/* XPM */
static char *wxcas_xpm[] = {
/* columns rows colors chars-per-pixel */
"32 32 190 2",
"   c None",
".  c #182139",
"X  c #182152",
"o  c #18314a",
"O  c #10395a",
"+  c #083963",
"@  c #212942",
"#  c #21395a",
"$  c #313142",
"%  c #31394a",
"&  c #39394a",
"*  c #39397b",
"=  c #08425a",
"-  c #00426b",
";  c #004273",
":  c #00526b",
">  c #08526b",
",  c #00637b",
"<  c #7b4200",
"1  c #424252",
"2  c #4a4a5a",
"3  c #4a4a63",
"4  c #525263",
"5  c #5a5a6b",
"6  c #52527b",
"7  c gray42",
"8  c #636373",
"9  c gray45",
"0  c #005294",
"q  c #085aad",
"w  c #00738c",
"e  c #006bad",
"r  c #006bb5",
"t  c #0073a5",
"y  c #007ba5",
"u  c #0073bd",
"i  c #007bc6",
"p  c #6b739c",
"a  c #0094bd",
"s  c #008cce",
"d  c #009cc6",
"f  c #0094d6",
"g  c #009cd6",
"h  c #0894d6",
"j  c #089cde",
"k  c #1894ce",
"l  c #00a5ce",
"z  c #00a5d6",
"x  c #00a5de",
"c  c #18a5de",
"v  c #00ade7",
"b  c #00b5e7",
"n  c #00b5ef",
"m  c #00bdef",
"M  c #08b5e7",
"N  c #00bdf7",
"B  c #10ade7",
"V  c #18b5e7",
"C  c #2194c6",
"Z  c #219cd6",
"A  c #21adde",
"S  c #31adde",
"D  c #21b5e7",
"F  c #29b5e7",
"G  c #39ade7",
"H  c #39bdef",
"J  c #00c6f7",
"K  c #42adde",
"L  c #4abde7",
"P  c #73bdd6",
"I  c #4ac6ef",
"U  c #4ad6f7",
"Y  c #5ac6ef",
"T  c #5ad6f7",
"R  c #63ceef",
"E  c #6bd6f7",
"W  c #73ceef",
"Q  c #73d6f7",
"!  c #8c4a00",
"~  c #9c5200",
"^  c #9c7339",
"/  c #a55a00",
"(  c #ad5a00",
")  c #a56300",
"_  c #ad6300",
"`  c #ad6308",
"'  c #ad6b08",
"]  c #a56b18",
"[  c #ad6b18",
"{  c #ad7318",
"}  c #b56300",
"|  c #b56b00",
" . c #bd6b00",
".. c #b56b10",
"X. c #b57300",
"o. c #bd7300",
"O. c #bd7310",
"+. c #ad7b39",
"@. c #b57b29",
"#. c #bd7b31",
"$. c #c66b00",
"%. c #c67300",
"&. c #ce7300",
"*. c #c67b18",
"=. c #ce7b10",
"-. c #d67b00",
";. c #bd8429",
":. c #b58442",
">. c #bd8c42",
",. c #ad946b",
"<. c #b58c63",
"1. c #b59c7b",
"2. c #bd9c73",
"3. c #bd9c7b",
"4. c #bda57b",
"5. c #c68418",
"6. c #d68400",
"7. c #de8400",
"8. c #de8c08",
"9. c #d68c18",
"0. c #de8c18",
"q. c #de9418",
"w. c #c68421",
"e. c #de8c21",
"r. c #de9429",
"t. c #d69431",
"y. c #d69439",
"u. c #de9c39",
"i. c #e78c08",
"p. c #e78c18",
"a. c #e79418",
"s. c #f79c08",
"d. c #e79c21",
"f. c #e79c29",
"g. c #f7a518",
"h. c #ffa510",
"j. c #ffad18",
"k. c #e7a539",
"l. c #f7a521",
"z. c #ffad21",
"x. c #f7a531",
"c. c #f7ad31",
"v. c #ffb531",
"b. c #ffb539",
"n. c #c6944a",
"m. c #ce944a",
"M. c #de9c42",
"N. c #c6a57b",
"B. c #cead73",
"V. c #cead7b",
"C. c #e7ad4a",
"Z. c #f7b542",
"A. c #ffb542",
"S. c #ffbd4a",
"D. c #f7bd52",
"F. c #ffbd52",
"G. c #ffbd5a",
"H. c #e7b573",
"J. c #efbd73",
"K. c #f7bd63",
"L. c #ffc65a",
"P. c #f7c66b",
"I. c #ffc663",
"U. c #ffc66b",
"Y. c #ffc673",
"T. c #ffce7b",
"R. c #8cceef",
"E. c #84def7",
"W. c #94deef",
"Q. c #94d6f7",
"!. c #8ce7ff",
"~. c #94e7ff",
"^. c #9cefff",
"/. c #a5e7ff",
"(. c #a5efff",
"). c #ade7ff",
"_. c #b5efff",
"`. c #d6bda5",
"'. c #d6c6ad",
"]. c #d6c6b5",
"[. c #deceb5",
"{. c #ffce84",
"}. c #ffd68c",
"|. c #ffd694",
" X c #e7d6bd",
".X c #ffdea5",
"XX c #e7dece",
"oX c #efe7de",
"OX c #ffe7c6",
"+X c None",
/* pixels */
"+X+X+X+X+X+X+X+X+X+X+X+X+X+X+X_.+X+X+X+X+X+X+X+X+X+X+X+X+X+X+X+X",
"+X+X+X+X+X+X+X+X+X+X+X+X+X+X+X_.+X+X+X+X+X+X+X+X+X+X+X+X9   2 +X",
"+X+X+X+X+X+X+X+X+X+X+X+X+X+XR _.U % # @ X X + O o =       .   +X",
"+X+X+X+X+X+X+X+X+X: : . . o K _.E q w t r y y r y r e r r . O +X",
"+X+X+X+X. O + = : : w w t i W _.E y r r y y y r r e e r r . O +X",
"+X+X+X4 * y r r y r r r y u E._.Q r y Z _.i y e e e e e r . $ +X",
"+X+X+X4 * y r r y r r y r s /._.Q.y y E _.s r e e e e r r . $ +X",
"+X+X+X4 * r r r y y y r y h )._.Q.r r Q._.j r e e e e r r . % +X",
"+X+X+X4 - y y r r r r r y S (._.!.i r W._.A r e e e r r r . 1 +X",
"+X+X+X4 - y y r r h s r r S _.Y _.i u ~._.K u r r r u u u . 1 +X",
"+X+X+X4 - y y r u _.Y r r Y _.Y _.u a _./.R u i i u u i u . 2 +X",
"+X+X+X4 - y r r a _.(.u r E _.I _.a h _.W.E.a i u u i i u . 3 +X",
"+X+X+X4 * y y r j _._.j u E._.K _.a c _.T _.j i i u i s a . 4 +X",
"+X+X+X5 * y y u L _._.G a _._.H _.s G _.F _.D s k j c D S J E Q ",
"+X+X+X4 - y r u W _.!.T j _.S S _.j H _.V _.F Y W./._._._.(.+X+X",
"+X+X+X5 ; u i k _.P Y W.D _.A G _.M P _.M _.Y _.R F H C v > 6 +X",
"+X+X+XJ C K Y Q _.A H (.P _.c G _.C R Q g _._._.A f g g f o 4 +X",
"+X+X XV.w.[ E.:.| N.c /.E._.k D _.D _.Y g T _.).M d f g f o 4 +X",
"W W O.I.F.b.n.8.s.i./ ^.(.W.g D _.H _.U d U _.^.v f f x l o 4 +X",
"+X+X) F.A.v.l.z.h.h.) `.'.T f A _.U _.F f F _.E v l v x x o 4 +X",
"m.y...Z.A.c.r.f.l.h.o.6.6.`.f Z _.P _.D x Z _.U v v v v v o 4 +X",
"H.}.I.G.u.`  ._ ' q.h.h.s.6.'.C _.T _.B x b _.B v x x B b O 4 +X",
"Y.T.U.I.)  .&.&.$./ q.h.s.6.3.C _.Q._.M B B b b b b b B b O 4 +X",
"-.e.U.I.:.[.[.2.] ( { j.i./ <.B _.~._.b b b b B v m m A m O 4 +X",
">._ K.Y.;.oX+X+XoX! ] z.g.s._ B _.~._.n b m A m m m m N n O 4 +X",
"B.M.OX{.P.>.4.].].< r.v.z.g.X.m _.).Q.m A m m N N J J J E O 4 +X",
"-.a..X}.P.P.C.t.t.k.S.x.9.a.@.N _._.T N N N J n E n E n n . 4 +X",
"%.7.p.*.5.|.Y.I.L.G.L.G.| ~ '.z Q _.I 0 , ; o X . .   % & 2 8 +X",
"`.%.#.`.` .X|.T.D.x.{.{.e.,.. ; P _.E 7 +X+X+X+X+X+X+X+X+X+X+X+X",
"+X'.+XXX_ d.K.J.@.-.0.=.} 1.+X+XR._.+Xp +X+X+X+X+X+X+X+X+X+X+X+X",
"+X+X+X4.%.7.7.| '.+.&./ ^ +X+X+X+X_.+X+X+X+X+X+X+X+X+X+X+X+X+X+X",
"+X+X+X+X3.+./ +.+X+X1.].+X+X+X+X+X_.+X+X+X+X+X+X+X+X+X+X+X+X+X+X"
};
