/* XPM */
static char * bn_connect_ico_xpm[] = {
"32 32 61 1",
" 	c None",
".	c #897000",
"+	c #846B00",
"@	c #9C7E00",
"#	c #A48400",
"$	c #977A00",
"%	c #907400",
"&	c #CC9C00",
"*	c #7C6400",
"=	c #BD9700",
"-	c #D1A400",
";	c #C9A800",
">	c #755F00",
",	c #D3AB00",
"'	c #D8AD00",
")	c #6E5900",
"!	c #D9B400",
"~	c #E1BB00",
"{	c #DDB800",
"]	c #ECC800",
"^	c #F7D804",
"/	c #FADC00",
"(	c #BB9A00",
"_	c #C3A000",
":	c #F4DB38",
"<	c #FDEE81",
"[	c #FDF3AE",
"}	c #FDF198",
"|	c #FCE960",
"1	c #B49B00",
"2	c #F7E465",
"3	c #FDF6C3",
"4	c #FFFBE2",
"5	c #FDF08F",
"6	c #FDE852",
"7	c #E2C302",
"8	c #FFFEF4",
"9	c #FEF5B3",
"0	c #FDEB6A",
"a	c #FEF3A3",
"b	c #FEF6BE",
"c	c #FDED71",
"d	c #FCE430",
"e	c #C5AB01",
"f	c #FDF193",
"g	c #FDE748",
"h	c #D4B801",
"i	c #E8CE18",
"j	c #FDEE78",
"k	c #B59200",
"l	c #F5D400",
"m	c #927C12",
"n	c #FCE220",
"o	c #DBC31A",
"p	c #E8C600",
"q	c #EFD30D",
"r	c #C6AE0C",
"s	c #BB9E12",
"t	c #FFFFFF",
"u	c #CDB103",
"v	c #766000",
"                   ..+++        ",
"              @#@$%&&&&@*       ",
"         #####=&--;---&&@>      ",
"        @&,,',---------&-@)     ",
"        #!',,,'--,------&&@)    ",
"        #~!,,'-,----'{]^//()    ",
"       #_~~',,,!~:<[[}}|/1>     ",
"       #,~~~]23443[[5<6^1>      ",
"       #{7{{^8839}<<<|/1)       ",
"      #_{{~7089a<<<<|/1)        ",
"      #,{{~]b9}<<<c|de)         ",
"      #!{{{^bf<<<c|gh)          ",
"     #_!!{{|9<<<c|6i).>         ",
"     #,h!{]}f<j0||d).#k>        ",
"    #(,h!!l9fj||||m)>)))        ",
"    #_,,'!n5c6||gggdo1)         ",
"     #_,,p|c||gggggq1).>        ",
"      #_,l||gggggg^r>.#k)       ",
"       #_/gggggg6do.))))))      ",
"        ######sjdddddd/l1)      ",
"          #{(#|4jddd//l1)       ",
"          #(#|tjdd///l1)        ",
"           $/3jd////le)         ",
"          ./j6/////lu)          ",
"          .....(/llh)           ",
"            .(.lll{v            ",
"            .k.ll7*             ",
"             .;l]+              ",
"             .,].               ",
"             .u.                ",
"             ..                 ",
"             .                  "};
