/* XPM */
static char *message.ICO[] = {
/* columns rows colors chars-per-pixel */
"16 16 32 1",
"  c black",
". c #8A5A25",
"X c #986A2E",
"o c #A57936",
"O c #BD9542",
"+ c #C78244",
"@ c #C09944",
"# c #C0994B",
"$ c #CC974C",
"% c #C6A255",
"& c #CDAC5A",
"* c #D0AF51",
"= c #D8B157",
"- c #D1B262",
"; c #E0BD5F",
": c #DCC05E",
"> c #DDC261",
", c #DDC57B",
"< c #EFDA6D",
"1 c #E7D27E",
"2 c #F5E372",
"3 c #F9E875",
"4 c #FDEE79",
"5 c #DDC683",
"6 c #EDDE9F",
"7 c #FEF18A",
"8 c #FEF39B",
"9 c #FEF4AC",
"0 c #FEF6BC",
"q c #FEFBDD",
"w c gray100",
"e c None",
/* pixels */
"eeeeeeeeeeeeeeee",
"eeeeeeeeeeeeeeee",
"eeeeeeeeeeeeeeee",
"eeeeeeeeeeeeeeee",
"eeeeeeeeeeeeeeee",
"oooooooooooooooX",
"owwq09884444442.",
"owq008884444442.",
"oq65,&&&>+##$;2.",
"o0098884444442<.",
"o91-%#%:4####;<.",
"o8888744444444<.",
"o81*OO**@####=<.",
"o4444444444444<.",
"o4444443222444<.",
"X..............."
};
