/* XPM */
static char *notconnected.ICO[] = {
/* columns rows colors chars-per-pixel */
"16 16 163 2",
"   c black",
".  c #00182D",
"X  c #001931",
"o  c #001E31",
"O  c #00203A",
"+  c #002241",
"@  c #002343",
"#  c #002547",
"$  c #002448",
"%  c #002548",
"&  c #002549",
"*  c #00254A",
"=  c #002941",
"-  c #002943",
";  c #002844",
":  c #002847",
">  c #002A49",
",  c #002D5B",
"<  c #002F59",
"1  c #002E5D",
"2  c #003365",
"3  c #00366F",
"4  c #00376E",
"5  c #00376F",
"6  c #00396C",
"7  c #003A6F",
"8  c #003F6F",
"9  c #003470",
"0  c #003671",
"q  c #003771",
"w  c #003871",
"e  c #003970",
"r  c #003A72",
"t  c #003C73",
"y  c #034477",
"u  c #02467F",
"i  c #2F7C47",
"p  c #207C60",
"a  c #207B6E",
"s  c #2E7F63",
"d  c #3D746A",
"f  c #560909",
"g  c #600B0B",
"h  c #630B0B",
"j  c #650B0B",
"k  c #680B0B",
"l  c #6A0C0C",
"z  c #6C0C0C",
"x  c #7A0D0D",
"c  c #7B0D0D",
"v  c #004180",
"b  c #004082",
"n  c #024E88",
"m  c #004992",
"M  c #004B94",
"N  c #095D8F",
"B  c #045794",
"V  c #00529F",
"C  c #00579F",
"Z  c #075E98",
"A  c #0057A6",
"S  c #065FA3",
"D  c #025BAF",
"F  c #0057B2",
"G  c #0056B5",
"H  c #015CB4",
"J  c #006490",
"K  c #007A89",
"L  c #0364B3",
"P  c #0267BC",
"I  c #006ABC",
"U  c #0E7BB7",
"Y  c #005ACC",
"T  c #147ECE",
"R  c #319D38",
"E  c #24B12E",
"W  c #28B128",
"Q  c #28BA37",
"!  c #31A438",
"~  c #36B234",
"^  c #088152",
"/  c #329B49",
"(  c #359672",
")  c #3DA34A",
"_  c #3CBE7B",
"`  c #22D01E",
"'  c #45AB2C",
"]  c #4DBD42",
"[  c #50C41F",
"{  c #58D661",
"}  c #6FE754",
"|  c #68E57B",
" . c #008AAB",
".. c #008EBA",
"X. c #1484BA",
"o. c #0AAA9D",
"O. c #10A997",
"+. c #26969D",
"@. c #008DDF",
"#. c #0D8CD3",
"$. c #0096C0",
"%. c #0094C5",
"&. c #009FD8",
"*. c #1485CF",
"=. c #0C93E8",
"-. c #00A4D2",
";. c #00A1DE",
":. c #02B6FF",
">. c #23A9DF",
",. c #1CCF87",
"<. c #14D2AF",
"1. c #3CDA85",
"2. c #0EC6DF",
"3. c #08CAE7",
"4. c #05C0FF",
"5. c #0EC9F1",
"6. c #00D3FC",
"7. c #00D3FF",
"8. c #00DBF2",
"9. c #0DD0F3",
"0. c #4BCDAF",
"q. c #7DD1BF",
"w. c #4ECEDF",
"e. c #5AECFF",
"r. c #971010",
"t. c #9C1010",
"y. c #A01212",
"u. c #A81313",
"i. c #B21414",
"p. c #BA1515",
"a. c #C11515",
"s. c #C41616",
"d. c #C91616",
"f. c #D01717",
"g. c #DA1919",
"h. c #DD1919",
"j. c #E31A1A",
"k. c #E51A1A",
"l. c #EC1B1B",
"z. c #ED2121",
"x. c #ED2222",
"c. c #EF4848",
"v. c #F04C4C",
"b. c #F05151",
"n. c #F05252",
"m. c #F15858",
"M. c #F16060",
"N. c #F37F7F",
"B. c #83DF7E",
"V. c #A0CE72",
"C. c #94DC94",
"Z. c #8AC6D9",
"A. c #F59191",
"S. c #F6A3A3",
"D. c #F7ADAD",
"F. c #F8B3B3",
"G. c #FBD8D8",
"H. c #FCDEDE",
"J. c #EDF7C9",
"K. c #F7F7DA",
"L. c #F2FFDD",
"P. c gray100",
"I. c None",
/* pixels */
"I.I.I.I.I.7 4 2 6 6 w I.< . I.I.",
"I.I.I.w 7 S =.Z._ #.B < h h . I.",
"I.I.0 s | %.:.0.O.u b i < t.x . ",
"I.0 d L.<.;.5.{ I u N.< j d.r.. ",
"I.0 C.,.-.6.8...X.b H.M.l.x.u.. ",
"7 J 1.&.5.e.6.:.>.b P.S.m.h.. X ",
"2 K  .$.3.w.3.K.B.b F.M.k.y.. O ",
"b b b b u b . } ` b b.k.d.p.c . ",
"b b.D.P.G.b.. o.^ b . . . . . . ",
"< b v.A.c.k.. @.*.U C V M b t o ",
"1 b x.c.k.d.. Z.J.] +.T Y A 8 + ",
"b i.g.a.c u.. V.Q E [ ) P H = I.",
"b l s.x . x . ' W ~ ! p L n # I.",
"b z t.. m . . ( R / a D u # I.I.",
"I.. f k . 7 F F N Z y & & I.I.I.",
"I.I.. . I.@ = : : > & I.I.I.I.I."
};
