/* XPM */
static char *Prefs_Notifications.ico[] = {
/* columns rows colors chars-per-pixel */
"16 16 38 1",
"  c None",
". c #335d76",
"X c #335e79",
"o c #34607b",
"O c #790000",
"+ c #404040",
"@ c #356481",
"# c #366886",
"$ c #3b6c8a",
"% c #117ec1",
"& c #406f8b",
"* c #1181c5",
"= c #1285cc",
"- c #138dd9",
"; c #1494e4",
": c #1e9deb",
"> c #27a1ec",
", c #2aa3ec",
"< c #9e0b0e",
"1 c #ed1c24",
"2 c #ef4439",
"3 c #f04d3f",
"4 c #f05844",
"5 c #f3705a",
"6 c #f47b5f",
"7 c #f48164",
"8 c #f5896f",
"9 c #f58970",
"0 c #f69679",
"q c #8a8884",
"w c #89c2e5",
"e c #89c6ec",
"r c #f8a690",
"t c #fbcbbc",
"y c #d4d0c8",
"u c #c4e1f3",
"i c white",
"p c None",
/* pixels */
"pppppppppp<<pppp",
"ppppppppp<irOppp",
"ppppppppp<t8Oppp",
"yyyyyyyyy<05Oyyq",
"y++++++++<73O+y+",
"y+.......<41O.y+",
"y+.%%%%%%<21O%y+",
"y+X*******OO**y+",
"y+X=wuuww=====y+",
"y+o=======<<==y+",
"y+#-eue--<t6O-y+",
"y+#;;;;;;<91O;y+",
"y+$:::::::OO::y+",
"y+&,,>,,>>>>>>y+",
"yyyyyyyyyyyyyyy+",
"q+++++++++++++++"
};
