/* XPM */
static char *Prefs_Connection.ico[] = {
/* columns rows colors chars-per-pixel */
"16 16 45 1",
"  c black",
". c #2D2D00000000",
"X c #303039394141",
"o c #5A5A00000000",
"O c #7A7A00000000",
"+ c #41414D4D5858",
"@ c #4B4B59596666",
"# c #565666667575",
"$ c #858500000000",
"% c #8B8B00000000",
"& c #959500000000",
"* c #9A9A00000000",
"= c #A2A200000000",
"- c #A5A50A0A0A0A",
"; c #AAAA00000000",
": c #B3B300000000",
"> c #BCBC21212121",
", c #888849495050",
"< c #969659596262",
"1 c #D0D000000000",
"2 c #DADA00000000",
"3 c #D0D014141414",
"4 c #D0D021212121",
"5 c #E5E519191919",
"6 c #ECEC21212121",
"7 c #ECEC2D2D2D2D",
"8 c #E7E732323232",
"9 c #EDED36363636",
"0 c #F3F33A3A3A3A",
"q c #FFFF43434343",
"w c #FFFF56565656",
"e c #E1E172727575",
"r c #F3F362626262",
"t c #FFFF71717171",
"y c #868691919C9C",
"u c #AAAAB1B1B9B9",
"i c #FFFF84848484",
"p c #FFFF8A8A8A8A",
"a c #FFFF95959595",
"s c #FFFFA1A1A1A1",
"d c #C4C4C9C9CECE",
"f c #D4D4DADAE0E0",
"g c #EAEAEDEDF0F0",
"h c gray100",
"j c None",
/* pixels */
"jjjjj#+jjj#+jjjj",
"jjjj#u+jj#u+jjjj",
"jjjj#h+jj#h+jjjj",
"jjjj#g+jj#g+jjjj",
"jjj=#f+.o#f+.ooj",
"jj=6<f,$2<f,$$oo",
"j=6w6e33q6e3-O%o",
"j====&*%%%%%O&*o",
"j=wwwqq09888O;*o",
"j=wtiaaaair8O;*o",
"j=w71::::158O=*o",
"j=wtpsssspr8O&%o",
"j=491::::15>O%oj",
"jj=4wqq098>O$ojj",
"jjj%%$%$OOOOojjj",
"jjjjj@duy+Xjjjjj"
};
