/* XPM */
static char *SmallServer.ico[] = {
/* columns rows colors chars-per-pixel */
"16 16 57 1",
"  c None",
". c #2d353d",
"X c #303941",
"o c #3a454e",
"O c #3f4b56",
"+ c #404c57",
"@ c #414d58",
"# c #45525d",
"$ c #4b5965",
"% c #4e5d6a",
"& c #505f6d",
"* c #566675",
"= c #586671",
"- c #5a6976",
"; c #5f6e7a",
": c #7e5863",
"> c #65717c",
", c #726969",
"< c #667582",
"1 c #6d7984",
"2 c #308f41",
"3 c #3fa751",
"4 c #15c61d",
"5 c #419257",
"6 c #4c9260",
"7 c #6aaf7e",
"8 c #41ff41",
"9 c #76828f",
"0 c #768593",
"q c #7d8b96",
"w c #7e8d9a",
"e c #8a545d",
"r c #906c77",
"t c #ff000a",
"y c #ca4f55",
"u c #97828e",
"i c #8d99a4",
"p c #9ea8b2",
"a c #bc9faa",
"s c #a1acb6",
"d c #a1adb9",
"f c #abb5bd",
"g c #b4bec6",
"h c #b5bec8",
"j c #94cca5",
"k c #afe4b9",
"l c #bbc4cc",
"z c #c4ccd3",
"x c #ccd4db",
"c c #d0d6dc",
"v c #d4dbe1",
"b c #d9dfe4",
"n c #e0e4e9",
"m c #e6eaed",
"M c #f3f5f6",
"N c white",
"B c None",
/* pixels */
"BBBBB&&$$@@@BBBB",
"BB***<<;;;*&@@@B",
"B*iq111<<<>;=$XB",
"B*Nxgi0111<-$OXB",
"B&Nmzhdq>w9$#OXB",
"B&Mmzhdq-s9$#OXB",
"B&Mzzhdq%vw$#OXB",
"B&m$nfdq$v9$#OXB",
"B$mgz@c64k1$#OXB",
"B$bobpd38j1$#OXB",
"B$bgz.z5271$#OXB",
"B$b.vpd,ya>$#OXB",
"B$fxz.l:tu>$#oXB",
"B$$1idd,er>$+XBB",
"BBB@@@>9$0>#XBBB",
"BBBBBB@@@@@XBBBB"
};
