/* XPM */
static char * sort_up_xpm[] = {
"13 7 3 1",
" 	c None",
".	c #808080",
"+	c #FFFFFF",
"      .      ",
"     . +     ",
"    .   +    ",
"   .     +   ",
"  .       +  ",
" .         + ",
".++++++++++++"};
