/* XPM */
static char *transfer.ico[] = {
/* columns rows colors chars-per-pixel */
"32 32 134 2",
"   c None",
".  c #093d5c",
"X  c #2d440a",
"o  c #344f0c",
"O  c #36520c",
"+  c #3c5b0d",
"@  c #0b446b",
"#  c #0b4771",
"$  c #0c4c79",
"%  c #6d0000",
"&  c #770303",
"*  c #7c0405",
"=  c #41630e",
"-  c #45690f",
";  c #476b10",
":  c #486d10",
">  c #4b7310",
",  c #527c12",
"<  c #094e84",
"1  c #0e568d",
"2  c #075090",
"3  c #0b5fa0",
"4  c #135fa1",
"5  c #12619e",
"6  c #126aae",
"7  c #1370b8",
"8  c #317abd",
"9  c #1479c6",
"0  c #568313",
"q  c #598714",
"w  c #5c8c14",
"e  c #5f9115",
"r  c #629516",
"t  c #679c17",
"y  c #689e17",
"u  c #6ba217",
"i  c #6ba318",
"p  c #71ab19",
"a  c #76b41a",
"s  c #78b61a",
"d  c #7cbd1b",
"f  c #7fc11c",
"g  c #248ad6",
"h  c #3191d9",
"j  c #3b95d4",
"k  c #2b9bea",
"l  c #369ce6",
"z  c #44a9f3",
"x  c #57b4f9",
"c  c #5bb6f8",
"v  c #6baaec",
"b  c #65b9f8",
"n  c #6fbef9",
"m  c #79afe9",
"M  c #75b8f3",
"N  c #77c0f6",
"B  c #73c1fd",
"V  c #880506",
"C  c #8a0609",
"Z  c #920609",
"A  c #92080a",
"S  c #990405",
"D  c #9b0a0d",
"F  c #a20a0d",
"G  c #a40d10",
"H  c #b50f13",
"J  c #bc1318",
"K  c #cb161c",
"L  c #d31820",
"P  c #c62d31",
"I  c #cd3035",
"U  c #d53f3a",
"Y  c #e21d26",
"T  c #ea212a",
"R  c #f2232d",
"E  c #f44b53",
"W  c #f5585f",
"Q  c #f5656c",
"!  c #f56d61",
"~  c #f66b71",
"^  c #f57076",
"/  c #81c41c",
"(  c #85cb1d",
")  c #88cf1e",
"_  c #8cd41f",
"`  c #8fd91f",
"'  c #95e025",
"]  c #98e12b",
"[  c #9be231",
"{  c #9fe33a",
"}  c #a2e43f",
"|  c #a3e441",
" . c #a7e54b",
".. c #ace754",
"X. c #aee759",
"o. c #b0e85b",
"O. c #b5e967",
"+. c #b6ea69",
"@. c #b8ea6c",
"#. c #bbeb73",
"$. c #beec7a",
"%. c #8dc7fa",
"&. c #99cef9",
"*. c #afd9fd",
"=. c #b5daf9",
"-. c #f7878c",
";. c #f88d91",
":. c #f89296",
">. c #f8a3a6",
",. c #c5ee87",
"<. c #c6ee8a",
"1. c #c8ef8e",
"2. c #ccf095",
"3. c #cff19d",
"4. c #d3f2a4",
"5. c #d6f3ab",
"6. c #d8f4af",
"7. c #daf4b4",
"8. c #dff6bd",
"9. c #c5e3fb",
"0. c #d4eafd",
"q. c #fbced0",
"w. c #fbd4d5",
"e. c #e3f7c6",
"r. c #e6f8cb",
"t. c #e9f9d2",
"y. c #edfad9",
"u. c #fde9ea",
"i. c #f1fbe3",
"p. c #f5fcea",
"a. c #f3faff",
"s. c #f8fdf1",
"d. c white",
"f. c None",
/* pixels */
"f.f.f.f.f.f.f.2 . f.f.f.f.f.f.f.* V Z Z F F H H f.f.f.f.f.f.f.f.",
"f.f.f.f.f.f.2 M 4 . f.f.f.f.f.& A D G J L L Y K H H f.f.f.f.f.f.",
"f.f.f.f.f.2 m *.B 4 . f.f.f.% % % % * C G Y Y Y T K H f.f.f.f.f.",
"f.f.f.f.2 m 0.9.N x 4 . f.f.f.f.f.f.f.* Z H Y R R R H f.f.f.f.f.",
"f.f.f.2 m a.a.0.n l h 4 . f.f.f.f.f.f.% V D R E ^ -.U H f.f.f.f.",
"f.f.2 2 2 2 %.0.b g . . . . = + + + + % V S R W -.>.! H f.f.f.f.",
"f.f.f.f.f.2 v =.c 9 . > p p p p p p p % V F R W -.w.! H - X X f.",
"f.f.f.f.f.2 8 &.z 9 . e i p p p p p p % & F R W -.w.! H 0 e > X ",
"f.f.f.f.f.= 2 j k 7 . w t y u u i % % % & F R Q -.d.! H 0 u w X ",
"f.f.f.f.f.+ 2 3 6 5 1 . . . . w y % V P I I R ~ ;.d.! H H H H O ",
"f.f.f.f.f.+ e 2 < $ # @ . . q r r r % V R W Q ~ :.u.d.d.! H > X ",
"f.f.f.f.f.+ > > > > > > 0 r e e e e e % V R Q -.:.q.u.! H > e X ",
"f.X X X X X X X X X X + = = > > > > > > % V R :.:.w.! H : w w X ",
"+ r ] X.o.o.{ [ _ r = X X X X X X X X + > % V R >.! H - 0 0 0 X ",
"+ ] 4.r.p.s.s.s.i.r.5.2.#.X.{ { ' s = X - > % V ! H = 0 0 0 0 X ",
"+ f 5.r.r.r.r.t.t.y.p.s.s.s.i.r.7.1.) X O = > % V = > , , , , X ",
"f.+ o.4.4.4.4.5.6.8.e.e.e.e.e.e.e.7.,.t X O = - = - - : > > > X ",
"f.+ s 1.1.1.1.1.1.1.1.1.1.1.1.1.1.1.3.$.a X X X X X = - : > > X ",
"f.f.+ } #.#.#.#.#.#.#.#.#.#.#.#.#.#.1.3.,.#.#...' w X = - > > X ",
"f.f.+ u o.o.o.o.o.o.o.o.o.o.o.o.o.o.@.1.3.r.y.y.6.<.r X = : > X ",
"f.f.f.+ ` } } } } | | | | | | | | |  ...+.O.+.O.+.+.' X = - : X ",
"f.f.f.+ r ] ] ] ] ] ] ] ] ] ] ] ] ] ] ] ] ] ] ] ] ] ] X + = - X ",
"f.f.f.f.O d ' ` ` ` ` ` ` ` ` ` ` ` ` ` ` ` ` ` ` ` ' e X = - X ",
"f.f.f.f.O w _ _ _ _ _ _ _ _ _ _ _ _ _ _ _ _ _ _ _ _ _ f X = = X ",
"f.f.f.f.f.O a _ ) ) ) ) ) ) ( ) ( ( ( ( ( ( ( ( ( ( ( _ X O = X ",
"f.f.f.f.f.O 0 ( _ ) ) ) ) ) ( ( ( ( ( ( ( ( ( ( ( ( ( ) > X = X ",
"f.f.f.f.f.f.O p ) _ _ _ _ _ _ _ _ _ _ _ _ _ _ _ _ _ _ _ d X = X ",
"f.f.f.f.f.f.O > a _ _ _ _ _ _ _ _ _ _ _ _ _ _ _ _ _ _ _ _ X O X ",
"f.f.f.f.f.f.f.O , i d ( _ _ _ ` _ _ _ _ _ _ _ _ _ _ _ _ _ 0 X X ",
"f.f.f.f.f.f.f.f.o o o o o o o > t p d ( ( ) _ _ _ _ _ _ _ i X X ",
"f.f.f.f.f.f.f.f.f.f.f.f.f.f.f.: : o O o X X X : e p d / ( w X f.",
"f.f.f.f.f.f.f.f.f.f.f.f.f.f.f.f.f.f.f.f.f.f.f.= X X X X X X f.f."
};
