/* XPM */
static char *Up0down1.ico[] = {
/* columns rows colors chars-per-pixel */
"16 16 18 1",
"  c None",
". c #001500",
"X c #191919",
"o c #002a00",
"O c #2a2a2a",
"+ c gray20",
"@ c #114c11",
"# c #007700",
"$ c #790000",
"% c #444444",
"& c gray40",
"* c #008000",
"= c #00b700",
"- c green",
"; c #b70000",
": c red",
"> c #888888",
", c None",
/* pixels */
",,,,,,,,,,$,,,,,",
",,,,,,,,,$:$,,,,",
",,,,,,,,$:;:$,,,",
",,,,,,,$:;$;:$,,",
",,,,,,$:;$O$;:$,",
",,,,,,    &    ,",
",,,,,,,,, > ,,,,",
",,,,,X+X, & ,,,,",
",,,,,+&+,++ ,,,,",
",,,,,%>%,,,,,,,,",
",,.o.&&&.o.,,,,,",
",,*-=@+@=-*,,,,,",
",,,*-=#=-*,,,,,,",
",,,,*-=-*,,,,,,,",
",,,,,*-*,,,,,,,,",
",,,,,,*,,,,,,,,,"
};
