/* XPM */
static char *Up1down1.ico[] = {
/* columns rows colors chars-per-pixel */
"16 16 13 1",
"  c None",
". c #001500",
"X c #191919",
"o c #002a00",
"O c gray20",
"+ c #006f00",
"@ c #404f40",
"# c gray40",
"$ c #00ca00",
"% c #00d400",
"& c green",
"* c #888888",
"= c None",
/* pixels */
"==========+=====",
"=========+&+====",
"========+&$&+===",
"=======+&$+$&+==",
"======+&$+ +$&+=",
"======    #O   =",
"========= * ====",
"=====XOX= # ====",
"=====O#O=OO ====",
"=====@*@========",
"==.o. # .o.=====",
"==+&$+ +%&+=====",
"===+&$+$&+======",
"====+&$&+=======",
"=====+&+========",
"======+========="
};
