/* XPM */
static char *amule[]={
"32 32 496 2",
"Qt c None",
".i c #75777a",
"eQ c #d2dfed",
".h c #83878c",
".A c #c8cacc",
"f# c #c8daf1",
".# c #6f7377",
"fO c #a9b8c9",
"ft c #bfd9f7",
"eB c #d5e4f3",
".j c #777b80",
".g c #7f8388",
"ca c #612809",
"fL c #cae1fd",
".B c #aab4bf",
"bh c #777f89",
"dG c #33373d",
".a c #737980",
".f c #6b7178",
"d1 c #b0cbec",
"eR c #b3cdee",
"eh c #abc8eb",
"dH c #acc9ec",
"dp c #a6c4ea",
"dc c #a9c8ed",
".k c #6f7780",
"c1 c #a9c9f1",
".z c #899097",
"cQ c #b2cdef",
"cF c #cbdaec",
"cs c #bed1e7",
"a3 c #a4acb6",
"fa c #c1d9f7",
"cb c #b3c9e4",
"aM c #819aba",
"b2 c #a2bcdc",
"ax c #8199b3",
"bS c #b9cee8",
".e c #61676f",
"aj c #8b949f",
"bJ c #cfdff3",
".V c #707a86",
"#5 c #818a94",
"bv c #bed2ea",
"#N c #7a8591",
"bi c #b7cde7",
"fu c #c3dcfb",
"#w c #747f8c",
"a4 c #b0c8e5",
".b c #717e8e",
"aN c #aac3e2",
"ay c #9ebadd",
"fN c #a5bbd5",
"ak c #abc4e4",
"#6 c #b4cbe8",
"#d c #647180",
".l c #727e8d",
"#O c #a9c3e3",
"#x c #a4bfe0",
"#e c #a0bde1",
".W c #94b2d8",
"fA c #91a8c2",
".d c #5c6672",
"fM c #c9e0fd",
".c c #6d7f95",
"eS c #b7d4f9",
".m c #728499",
".y c #455161",
".C c #778aa1",
"fb c #bcd9fc",
".x c #556373",
"fz c #86a0bf",
"fv c #c1dcfd",
".n c #768eaa",
"eC c #b1d2fa",
"b1 c #6c819a",
"bR c #6b7f98",
"bI c #697e97",
"bu c #667c97",
"bg c #687d97",
"a2 c #626c78",
"aL c #58595b",
".w c #4d5c70",
".D c #758ead",
"aw c #4d525a",
"ai c #5b6572",
".U c #51657d",
"#4 c #677c95",
"#M c #657b95",
"eT c #b6d6fe",
"#v c #637992",
"dC c #000000",
"ar c #00cb58",
"aG c #02de6d",
"as c #166339",
"ef c #171614",
"aH c #1b814e",
"ad c #313928",
"d0 c #32373d",
"dF c #32373e",
"fG c #3f3330",
"ah c #40464e",
"dU c #414041",
"dE c #45312a",
".t c #485e78",
"a1 c #4a5057",
"aI c #4b3655",
"at c #4b4363",
"ae c #4b4b48",
".u c #4b6079",
"fK c #4e5257",
".v c #506178",
"ag c #525558",
".T c #536f90",
"a0 c #565c64",
"fF c #572d16",
"aX c #575254",
"aq c #59827a",
"dl c #5d2d0e",
"aZ c #616164",
"ac c #616166",
"aY c #616568",
"af c #625d5d",
"cm c #632809",
"aF c #636e6f",
".S c #637e9e",
"c# c #642909",
"fp c #64676b",
"#c c #647a95",
"fE c #652909",
"aW c #656474",
"#Y c #667992",
"fD c #682b09",
"#3 c #6888af",
".8 c #69819f",
"#q c #6982a1",
".s c #6a88ac",
"bf c #6a8db8",
"ee c #6b6c6f",
"#1 c #6b849d",
"#u c #6b86a6",
"#2 c #6c85a4",
".R c #6c88a9",
"#G c #6c89ac",
"#L c #6c89ad",
"fH c #6d7072",
"#t c #6d86a5",
"ba c #6d8bad",
"eZ c #6e310c",
"## c #6e87a6",
"#a c #6e88a6",
"#. c #6e88a7",
"c. c #6f7d94",
".9 c #6f88a7",
"bC c #6f8aac",
"bP c #6f8aad",
"bo c #6f8bae",
"dQ c #70320e",
"#s c #7089a8",
"#r c #708aa8",
".O c #708bab",
"#K c #708cad",
"b9 c #708cae",
"ci c #708caf",
"cx c #708db0",
"cV c #708db1",
"fg c #7091b7",
"cl c #717e94",
"#b c #718dae",
"be c #718eb1",
"c7 c #718eb2",
"dh c #718fb3",
"dv c #718fb4",
"fi c #7190b7",
".Q c #728daf",
"#J c #728eb0",
"bH c #728fb2",
"dO c #7290b4",
"cL c #737f95",
"d6 c #7390b5",
"#I c #7391b4",
"eo c #7391b6",
"eF c #7392b6",
"eW c #7392b7",
"fy c #7392b8",
"dx c #748198",
"bG c #748eaf",
"bQ c #748faf",
"b0 c #7490b0",
"bs c #7490b2",
"bd c #7492b1",
"bF c #7590b0",
"br c #7592b3",
"#H c #7594b9",
"fh c #7594bb",
"#0 c #7685a2",
"bZ c #7691b1",
"bE c #7691b2",
"bD c #7691b3",
"bt c #7694b9",
"cM c #77380f",
"bY c #7792b3",
".P c #7792b4",
"bq c #7793b5",
"ck c #7892b4",
"c9 c #7893b4",
"cj c #7893b5",
"bp c #7893b7",
"cy c #7894b6",
"da c #793910",
"bc c #798eb3",
"cX c #7994b6",
"cK c #7995b6",
"cW c #7995b7",
"c8 c #7a95b7",
"di c #7a96b8",
"d7 c #7a97b9",
"#Z c #7b7999",
"dw c #7b96b9",
"dP c #7b97ba",
"fm c #7c4d2d",
"eY c #7c98ba",
"ep c #7c98bb",
"eX c #7c99bb",
"bb c #7d8bb4",
".o c #7e9bbe",
".E c #809ec3",
"fC c #833f14",
".7 c #84a3c9",
"cP c #86461a",
"#F c #86a4ca",
"#p c #86a5cb",
"fs c #878889",
".p c #87a9d3",
".F c #88abd6",
"#X c #89aad1",
".N c #8babd2",
"cY c #8e4a1a",
"dD c #8e4d1e",
"b# c #8eadd4",
"bn c #8faed5",
".X c #8fb9ee",
"bB c #90b0d6",
"fP c #914c1b",
"aJ c #916c3d",
"bO c #91b0d7",
"ab c #91b4de",
"bX c #92b1d7",
"b8 c #92b2d8",
"aV c #92b7e0",
"ch c #93b2d8",
"fx c #93b5dd",
".G c #93baeb",
"cw c #94b3d9",
"d8 c #954e1d",
"d. c #954f1d",
"cJ c #95b4da",
"c6 c #96b5db",
"fB c #97511e",
"fI c #979797",
"aE c #97aadc",
"dg c #97b6dc",
"#7 c #97bff0",
"au c #986d3c",
"du c #98b7dc",
"#P c #98c0f0",
"ap c #99a4d9",
"dN c #99b7dd",
"d5 c #99b8dd",
"#y c #99bfee",
"cE c #9a5522",
"en c #9ab8de",
"db c #9b5724",
"eE c #9bb9de",
"eV c #9bb9df",
"bK c #9bc6fa",
"fl c #9c5420",
"dT c #9c9691",
"ff c #9cbbe0",
"#f c #9cc1f0",
"al c #9cc4f4",
"bw c #9ec8fb",
".q c #9fc4f1",
"bj c #9fc8fa",
"fn c #a0a09e",
"ez c #a0a09f",
"aO c #a0c8f9",
"a5 c #a0c8fa",
"e4 c #a15821",
"#g c #a1c6f3",
"bT c #a1cafd",
".H c #a1cbfe",
"az c #a2c8f8",
"#z c #a3c7f5",
"#h c #a3c9f6",
"ct c #a3ccff",
"#Q c #a4caf7",
"cc c #a4cdff",
"fj c #a55c25",
"#i c #a5cbf9",
"ei c #a5cefd",
"dj c #a65d24",
"fk c #a65d25",
"#R c #a6ccfb",
"cR c #a6cefe",
"dV c #a7602a",
"#A c #a7cdfb",
"#j c #a7cdfc",
"#8 c #a7cefd",
"b3 c #a7cfff",
"#S c #a8cefe",
"#B c #a8cffe",
"aP c #a8cfff",
"#k c #a8d0ff",
"c2 c #a9cffe",
"#9 c #a9d0ff",
".Y c #a9d2ff",
"ey c #aaaaa7",
"dI c #aacffe",
"dq c #aad0fe",
".2 c #aad1ff",
"eq c #ab6026",
".3 c #abd1ff",
"fT c #ac6328",
".4 c #acd1ff",
"a6 c #acd2ff",
"ev c #ad6228",
"#l c #add1ff",
"#m c #add2ff",
"b4 c #add3ff",
".1 c #add4ff",
"cr c #ae6227",
"c0 c #ae6327",
"#C c #aed2ff",
".Z c #aed7ff",
".I c #aed9ff",
"bL c #afd2ff",
"#T c #afd3ff",
".0 c #afd7ff",
"aQ c #b0d3ff",
"#U c #b0d4ff",
"a. c #b1d4ff",
"dr c #b1d5ff",
"bx c #b2d4ff",
"am c #b2d5ff",
"eg c #b3b3b0",
"fJ c #b3b3b2",
"a7 c #b3d5ff",
"aA c #b3d6ff",
"eu c #b4682c",
"aB c #b4d5ff",
"aR c #b4d6ff",
"ej c #b4d7ff",
"e0 c #b5682a",
"do c #b56f36",
"aS c #b5d6ff",
"d2 c #b5d7ff",
".r c #b5daff",
"eK c #b67139",
"e5 c #b68b67",
"ex c #b6b6b0",
"a8 c #b6d7ff",
".J c #b6e2ff",
"cA c #b7692a",
"bk c #b7d7ff",
".5 c #b7d8ff",
"d# c #b86b2c",
"cd c #b8d7ff",
"by c #b8d8ff",
".K c #b8e1ff",
"bU c #b9d8ff",
"#n c #b9d9ff",
"e3 c #ba6c2c",
"b5 c #bad9ff",
"ce c #bbd9ff",
"#D c #bbdaff",
"cG c #bcdaff",
"#V c #bcdbff",
"eJ c #bd6f2e",
"dZ c #bdbdb6",
"cT c #bddaff",
"cS c #bddbff",
"ew c #be7d3f",
"c3 c #bedbff",
"a# c #bedcff",
"av c #bf5700",
"dd c #bfdcff",
"an c #bfddff",
"dy c #c0712f",
"dJ c #c0dcff",
"dK c #c0ddff",
".L c #c0e3ff",
"d3 c #c1dcff",
"aC c #c1ddff",
"eb c #c27739",
"eD c #c2ddff",
"ek c #c2deff",
"fQ c #c37a31",
"aT c #c3deff",
"fc c #c3dfff",
"a9 c #c4dfff",
"bl c #c5dfff",
"dk c #c67530",
"ec c #c68338",
"bz c #c6e0ff",
"cz c #c77631",
"e2 c #c77731",
"bM c #c7e0ff",
".6 c #c7e4ff",
"bV c #c8e1ff",
"e6 c #c9c2b9",
"b6 c #c9e2ff",
"e# c #ca7b38",
"fo c #cacac6",
"cf c #cae2ff",
"#o c #cae6ff",
"cu c #cbe3ff",
"fq c #ccccc7",
"cH c #cce3ff",
"#E c #cce7ff",
".M c #cce9ff",
"eG c #cd813f",
"ed c #cdae80",
"c4 c #cde3ff",
"fw c #cde4ff",
"cq c #ce8240",
"de c #cee4ff",
"ds c #cee5ff",
"dR c #cf874a",
"dL c #cfe5ff",
"#W c #cfe9ff",
"d4 c #d0e6ff",
"cp c #d18849",
"el c #d1e6ff",
"eU c #d2e6ff",
"aa c #d2ebff",
"cn c #d38b4b",
"cD c #d38e52",
"fS c #d48c38",
"cZ c #d48d4e",
"er c #d48e4f",
"ea c #d49259",
"dW c #d4b595",
"eL c #d4cdc2",
"fd c #d4e8ff",
"ao c #d5ecff",
"e. c #d79453",
"cO c #d7995a",
"e1 c #d89c47",
"dz c #d89f6e",
"aD c #d8eeff",
"eH c #d99a61",
"eI c #dba06b",
"aU c #dbf0ff",
"d9 c #dca25c",
"co c #dca36c",
"dB c #dcd6d1",
"e7 c #dcdcda",
"aK c #de7000",
"dm c #deaa7d",
"fr c #dfdfdb",
"b. c #dff2ff",
"cN c #e1af7c",
"et c #e1b17e",
"bm c #e1f3ff",
"eA c #e3e3e0",
"bA c #e3f4ff",
"fR c #e49c3f",
"cC c #e4b886",
"dX c #e5dcd2",
"bN c #e6f5ff",
"f. c #e7e7e5",
"bW c #e8f7ff",
"eM c #e9e9e6",
"e8 c #e9e9e7",
"b7 c #e9f7ff",
"cB c #ebc999",
"cg c #ecf9ff",
"dn c #edcfb5",
"eP c #eeeeec",
"cv c #eefaff",
"es c #efd5a7",
"e9 c #efefee",
"cI c #f0fbff",
"cU c #f1fcff",
"dY c #f2f2f1",
"c5 c #f2fcff",
"df c #f3fdff",
"dt c #f4fdff",
"dM c #f5feff",
"dS c #f6e7da",
"em c #f6feff",
"eN c #f7f7f6",
"fe c #f8ffff",
"eO c #f9f9f9",
"dA c #ffffff",
"QtQtQtQtQtQtQtQt.#.a.b.c.d.e.f.g.hQtQtQtQtQtQtQtQtQtQtQtQtQtQtQt",
"QtQt.i.j.k.l.m.n.o.p.q.r.s.t.u.v.w.x.y.z.AQtQtQtQtQtQtQtQtQtQtQt",
".B.C.D.E.F.G.H.I.J.K.L.M.N.O.P.Q.R.S.T.U.VQtQtQtQtQtQtQtQtQtQtQt",
".W.X.Y.Z.0.1.2.2.3.4.5.6.7.8.9#.###a#b#c#dQtQtQtQtQtQtQtQtQtQtQt",
"#e#f#g#h#i#j#k.2#l#m#n#o#p#q#r#s###t#u#v#wQtQtQtQtQtQtQtQtQtQtQt",
"#x#y#z#i#A#B.2.4#C#C#D#E#F#G#H#I#J#K#L#M#NQtQtQtQtQtQtQtQtQtQtQt",
"#O#P#Q#R#S.2.3#m#T#U#V#W#X#Y#Z#0#1#2#3#4#5QtQtQtQtQtQtQtQtQtQtQt",
"#6#7#i#8#9.3#m#Ca.a.a#aaabacadaeafagahaiajQtQtQtQtQtQtQtQtQtQtQt",
"akal#R#9.3#m#C#TamamanaoapaqarasatauavawaxQtQtQtQtQtQtQtQtQtQtQt",
"ayaz#8.2.3#C#Ta.aAaBaCaDaEaFaGaHaIaJaKaLaMQtQtQtQtQtQtQtQtQtQtQt",
"aNaOaP.3#m#TaQamaRaSaTaUaVaWaXaYaZa0a1a2a3QtQtQtQtQtQtQtQtQtQtQt",
"a4a5#9a6#CaQama7a8a8a9b.b#babbbcbdbebfbgbhQtQtQtQtQtQtQtQtQtQtQt",
"bibj.2#m#Ta.a7aRa8bkblbmbnbobpbqbrbsbtbubhQtQtQtQtQtQtQtQtQtQtQt",
"bvbw.2#C#TbxaAaSbkbybzbAbBbCbDbEbFbGbHbIbhQtQtQtQtQtQtQtQtQtQtQt",
"bJbK.2bLaQamaRa8bybybMbNbObP.PbEbFbQbHbRbhQtQtQtQtQtQtQtQtQtQtQt",
"bSbTa6#Ta.a7aSa8bU#nbVbWbXbo.PbYbZb0bHb1bhQtQtQtQtQtQtQtQtQtQtQt",
"b2b3b4aQamaAaSbkb5b5b6b7b8b9.P.PbEbFc.c#c#c#Qtcac#c#c#c#c#c#c#ca",
"cbccb4a.amaRa8cdce#DcfcgchcicjckbEclcmcnc#Qtc#c#cocpcqcqcrc#caQt",
"csctb4a.a7aSbkbU#D#DcucvcwcxcycjbYc#czcAc#c#cBcCcDcqcEc#c#caQtQt",
"cF.Hb4amaRa8byb5#VcGcHcIcJcxcKcjcLcmcAcMcqcNcOcpcPc#c#caQtQtQtQt",
"cQcR#TamaRbkbUcecScTcHcUcJcVcWcXc#c#cYcqcZcqc0c#caQtQtQtQtQtQtQt",
"c1c2#Ua7a8bk#n#Dc3c3c4c5c6c7c8cXc9c#d.d#c0c0dadbc#caQtQtQtQtQtQt",
"dcc2a.aRa8byb5cGdddddedfdgdhdicWc#c#djd#dkdldmdndoc#caQtQtQtQtQt",
"dpdqdraSbkbU#DcSdddddsdtdudvdwdidxc#d#dydkdzdAdBdCdDc#dEdFdFdGQt",
"dHdIdraSbk#n#DcSdJdKdLdMdNdOdPdic#dQczcqczdRdSdTdUdVdWdXdYdZd0dG",
"d1dqamd2byb5#Vc3d3aCd4dMd5d6dPd7c#d8cZd9e.e#dReaebecedeeefdYegdF",
"eheieja8byb5cSddaCekelemeneoepdPc#eqeresetcZe#euevewexeyezdYeAdF",
"eBeC#9ej#ncGcSddeDekelemeEeFepdPc#d.eGeHeIcZe#eJeveKeLeMeNeOePdF",
"QteQeReSeT.5#VaCaTaTeUemeVeWeXeYc#eZe0eGeGe1e2e3e4e5e6e7e8e9f.dF",
"QtQtQtQtf#fafbcGanfcfdfefffgfhfic#dac#fjfjfkfjflfmfnfofpfqfrfsdF",
"QtQtQtQtQtQtQtftfufvfwcUfxfyfzfAeZcYfBfCfDfEfFfGdFfHfIfJfKdFdFdG",
"QtQtQtQtQtQtQtQtQtQtfLfMfNfOQtQteZfPfQfRfSfTfEQtdGdFdFdFdFdGQtQt"};
