/* XPM */
static char * mule_Tr_yellow_big_ico_xpm[] = {
"22 22 166 2",
"  	c #ff0000",
". 	c #624E09",
"+ 	c #66520A",
"@ 	c #64500A",
"# 	c #776610",
"$ 	c #66520D",
"% 	c #65520C",
"& 	c #65510B",
"* 	c #634F09",
"= 	c #A49424",
"- 	c #8D7D18",
"; 	c #705E0D",
"> 	c #958B46",
", 	c #D7DA92",
"' 	c #D5D37B",
") 	c #CEC962",
"! 	c #C2B542",
"~ 	c #AD9E2B",
"{ 	c #857417",
"] 	c #67530B",
"^ 	c #776411",
"/ 	c #A39323",
"( 	c #7D6B13",
"_ 	c #9B924B",
": 	c #CFCE7F",
"< 	c #E0DD79",
"[ 	c #D8D162",
"} 	c #C6BB42",
"| 	c #918022",
"1 	c #7B6914",
"2 	c #736110",
"3 	c #69550B",
"4 	c #877517",
"5 	c #B4A42F",
"6 	c #ACA03C",
"7 	c #C5BF61",
"8 	c #CEC865",
"9 	c #AEA13C",
"0 	c #948429",
"a 	c #8A791A",
"b 	c #725F10",
"c 	c #6E5B0E",
"d 	c #A49423",
"e 	c #C1B236",
"f 	c #C7BD4A",
"g 	c #BEB246",
"h 	c #A0902D",
"i 	c #7B6813",
"j 	c #746110",
"k 	c #C3B430",
"l 	c #BBAC2D",
"m 	c #9F9023",
"n 	c #978729",
"o 	c #8B7A28",
"p 	c #76631A",
"q 	c #BBAC2E",
"r 	c #BAAB2D",
"s 	c #7F701D",
"t 	c #A99E54",
"u 	c #CDBE76",
"v 	c #A58F4D",
"w 	c #7F6C19",
"x 	c #69560D",
"y 	c #756212",
"z 	c #C8B938",
"A 	c #BCAD2E",
"B 	c #CCC165",
"C 	c #EAE6BE",
"D 	c #D5A0F1",
"E 	c #9630C4",
"F 	c #928841",
"G 	c #9F8F2A",
"H 	c #4E4D38",
"I 	c #32373D",
"J 	c #766414",
"K 	c #CFC346",
"L 	c #D1C74F",
"M 	c #D7CE5F",
"N 	c #E5E2B1",
"O 	c #B2A4BB",
"P 	c #6B4E60",
"Q 	c #B7AA3C",
"R 	c #C1BA45",
"S 	c #BCBC88",
"T 	c #C7C8BC",
"U 	c #BABBBC",
"V 	c #86898A",
"W 	c #786619",
"X 	c #D9D360",
"Y 	c #E2E287",
"Z 	c #DEDA71",
"` 	c #DED87F",
" .	c #BCB56D",
"..	c #938834",
"+.	c #C0B336",
"@.	c #C4BE51",
"#.	c #A5A47F",
"$.	c #82827B",
"%.	c #A6A7A5",
"&.	c #B3B5B5",
"*.	c #65510A",
"=.	c #7C6C1B",
"-.	c #DCD666",
";.	c #E3E48B",
">.	c #E0DE77",
",.	c #D9D25F",
"'.	c #C7BB44",
").	c #B3A32C",
"!.	c #B4A730",
"~.	c #BFB964",
"{.	c #9D9D89",
"].	c #6C6D6B",
"^.	c #9C9C9B",
"/.	c #BDBEC0",
"(.	c #66530A",
"_.	c #7E6E18",
":.	c #CAC04C",
"<.	c #D8D160",
"[.	c #DAD463",
"}.	c #D3CA51",
"|.	c #C2B539",
"1.	c #AE9E29",
"2.	c #A8992D",
"3.	c #BFBA80",
"4.	c #CAC9BB",
"5.	c #BDBDBB",
"6.	c #CBCBC9",
"7.	c #B3B5B6",
"8.	c #67540A",
"9.	c #786711",
"0.	c #9E8E22",
"a.	c #BDB13D",
"b.	c #C2B641",
"c.	c #BDAF35",
"d.	c #B0A028",
"e.	c #A19225",
"f.	c #A29538",
"g.	c #BDBB96",
"h.	c #D5D5CB",
"i.	c #DBDCD9",
"j.	c #D4D5D3",
"k.	c #A4A6A6",
"l.	c #6C590C",
"m.	c #7A6910",
"n.	c #685923",
"o.	c #777876",
"p.	c #9C9D9B",
"q.	c #A7A8A5",
"r.	c #737677",
"s.	c #373C41",
"t.	c #705D0E",
"u.	c #8D7D19",
"v.	c #9D8E21",
"w.	c #99871F",
"x.	c #826F15",
"y.	c #6C590D",
"z.	c #3E4348",
"A.	c #454A4E",
"B.	c #474C50",
"C.	c #474B50",
"D.	c #44484D",
"E.	c #94841C",
"F.	c #B9AC2B",
"G.	c #B3A42A",
"H.	c #9A891F",
"I.	c #766411",
"                                            ",
"                                            ",
"                                            ",
"          .                                 ",
"          .                                 ",
"        . +                                 ",
"      . @ #     $ % % & @ * . .             ",
"      @ = - ; > , ' ) ! ~ { .               ",
"    ] ^ / ( _ : < [ } | 1 2                 ",
"    3 4 5 6 7 8 9 0 a b                     ",
"    c d e f g h i . .                       ",
"  . j k l m n o p                           ",
". . b q r s t u v w x                       ",
"    y z A B C D E F G H I I I               ",
". . J K L M N O P Q R S T U V I             ",
"  . W X Y Z `  ...+.@.#.$.%.&.I             ",
"  *.=.-.;.>.,.'.).!.~.{.].^./.I             ",
". (._.:.<.[.}.|.1.2.3.4.5.6.7.I             ",
". 8.9.0.a.b.c.d.e.f.g.h.i.j.k.I             ",
". l.m.@ & & *.@ n.o.p.q.q.r.s.              ",
". t.u.v.w.x.y..   z.A.B.C.D.                ",
". t.E.F.G.H.I..                             "};
