/* XPM */
static char * aMule_xpm[] = {
"32 42 589 2",
"  	c None",
". 	c #EFEFEF",
"+ 	c #FFFFFF",
"@ 	c #DF7F34",
"# 	c #994C15",
"$ 	c #C3742E",
"% 	c #8A5E2E",
"& 	c #C47B48",
"* 	c #A36E35",
"= 	c #E9E7E6",
"- 	c #A85E27",
"; 	c #F1AE75",
"> 	c #975F32",
", 	c #FBFFFF",
"' 	c #81491C",
") 	c #C0793C",
"! 	c #B9763F",
"~ 	c #A37B52",
"{ 	c #6D401C",
"] 	c #95653A",
"^ 	c #C7BBB9",
"/ 	c #9D531D",
"( 	c #EDAD75",
"_ 	c #9D531C",
": 	c #D2D2D0",
"< 	c #814629",
"[ 	c #5F391A",
"} 	c #86561A",
"| 	c #E1E9F0",
"1 	c #834A1C",
"2 	c #B46D2F",
"3 	c #E4A071",
"4 	c #8E4E16",
"5 	c #E9F2FA",
"6 	c #B7B4AE",
"7 	c #6B341A",
"8 	c #633F21",
"9 	c #944F1F",
"0 	c #B69C8D",
"a 	c #DDE5ED",
"b 	c #904F17",
"c 	c #D89962",
"d 	c #C08851",
"e 	c #834608",
"f 	c #FEFFFF",
"g 	c #6F3316",
"h 	c #5D3B26",
"i 	c #7B4E27",
"j 	c #885124",
"k 	c #885A1D",
"l 	c #FCFFFF",
"m 	c #C7C6CF",
"n 	c #9C500E",
"o 	c #EDB67B",
"p 	c #B77642",
"q 	c #834B1F",
"r 	c #D1D8DC",
"s 	c #674128",
"t 	c #63412C",
"u 	c #874C26",
"v 	c #B17A54",
"w 	c #91571C",
"x 	c #CDCFD1",
"y 	c #B4B2A4",
"z 	c #9D510F",
"A 	c #ECB67C",
"B 	c #BF6B2D",
"C 	c #8A5F37",
"D 	c #41271E",
"E 	c #49261B",
"F 	c #62402B",
"G 	c #825821",
"H 	c #E8BE9E",
"I 	c #855A2F",
"J 	c #B5BABE",
"K 	c #BDC0B7",
"L 	c #B4BFBC",
"M 	c #A0541E",
"N 	c #EAAB74",
"O 	c #B36120",
"P 	c #BECBCA",
"Q 	c #3D2319",
"R 	c #3E2721",
"S 	c #694224",
"T 	c #A36227",
"U 	c #FFF1D9",
"V 	c #ADB7B3",
"W 	c #3C2615",
"X 	c #6F6668",
"Y 	c #7A450F",
"Z 	c #E9A76D",
"` 	c #9C4E15",
" .	c #B7B5BD",
"..	c #DADBDB",
"+.	c #272119",
"@.	c #252420",
"#.	c #744823",
"$.	c #3C1D18",
"%.	c #72431E",
"&.	c #8A5429",
"*.	c #9D602A",
"=.	c #E2B794",
"-.	c #FFF0E2",
";.	c #7C440D",
">.	c #A5AEB7",
",.	c #C7C8C9",
"'.	c #B8AEAF",
").	c #020504",
"!.	c #4C2921",
"~.	c #865D27",
"{.	c #A06430",
"].	c #A56B39",
"^.	c #B67135",
"/.	c #B16B2F",
"(.	c #A76C2F",
"_.	c #94601F",
":.	c #A0A095",
"<.	c #D0D3D7",
"[.	c #B7B8B9",
"}.	c #9AA2A8",
"|.	c #6F4321",
"1.	c #9F6431",
"2.	c #BC7C48",
"3.	c #BF7C43",
"4.	c #BC7A42",
"5.	c #C6813A",
"6.	c #B97134",
"7.	c #BD7132",
"8.	c #AF6922",
"9.	c #96837A",
"0.	c #9B5C1C",
"a.	c #B76F3B",
"b.	c #C68044",
"c.	c #D08349",
"d.	c #CE8D49",
"e.	c #E28F45",
"f.	c #CB7C3C",
"g.	c #B1ACA6",
"h.	c #C18345",
"i.	c #F8AD6B",
"j.	c #E19D56",
"k.	c #DF9157",
"l.	c #F3A557",
"m.	c #FFE3B9",
"n.	c #ADA5A7",
"o.	c #EA9447",
"p.	c #D69156",
"q.	c #BBBEC0",
"r.	c #A0A1A1",
"s.	c #D8DCE0",
"t.	c #EC904D",
"u.	c #0C0C09",
"v.	c #C8AB8D",
"w.	c #969799",
"x.	c #FFF6EB",
"y.	c #000000",
"z.	c #7D5129",
"A.	c #AE6F3F",
"B.	c #D7BBA0",
"C.	c #A2A4A6",
"D.	c #E0C9A7",
"E.	c #EEF0F2",
"F.	c #CFD3D7",
"G.	c #D9D2D5",
"H.	c #D5D8D9",
"I.	c #E0E0DF",
"J.	c #D1D2D3",
"K.	c #EDEEEF",
"L.	c #9A9B9C",
"M.	c #7F7B76",
"N.	c #FBFCF2",
"O.	c #E9EAEC",
"P.	c #AFAFAF",
"Q.	c #F6F6F6",
"R.	c #F4F4FF",
"S.	c #F5F5FF",
"T.	c #F6F7F6",
"U.	c #DEDFDF",
"V.	c #2D2822",
"W.	c #A7A8A8",
"X.	c #B3B3B4",
"Y.	c #A4A4A5",
"Z.	c #A4A4A4",
"`.	c #A1A2A2",
" +	c #A0A0A0",
".+	c #A9A9A9",
"++	c #9B9B9A",
"@+	c #A7A7A6",
"#+	c #9C9C9C",
"$+	c #B7ADAD",
"%+	c #252727",
"&+	c #EDE3E3",
"*+	c #F3E8E8",
"=+	c #342F2A",
"-+	c #A3A3A4",
";+	c #B4B5B5",
">+	c #AFA4A4",
",+	c #A5A5A5",
"'+	c #A4A5A5",
")+	c #BAAFAF",
"!+	c #322D28",
"~+	c #D3D4D4",
"{+	c #ECEDED",
"]+	c #868787",
"^+	c #6F6A65",
"/+	c #EBEBE1",
"(+	c #575859",
"_+	c #3A2F25",
":+	c #B1B1B1",
"<+	c #A6A6A6",
"[+	c #A8A9A9",
"}+	c #ACADAE",
"|+	c #848586",
"1+	c #C3C4C4",
"2+	c #D2D2D3",
"3+	c #827C77",
"4+	c #8D8E8E",
"5+	c #E0E0E1",
"6+	c #D5D6CA",
"7+	c #515252",
"8+	c #B0A4A5",
"9+	c #AAAB9E",
"0+	c #9B9B9B",
"a+	c #A89C9C",
"b+	c #9E9E9E",
"c+	c #57574C",
"d+	c #BDBDB3",
"e+	c #B7B7B7",
"f+	c #C9CACA",
"g+	c #747475",
"h+	c #8C888E",
"i+	c #CFD3D6",
"j+	c #BFC0C0",
"k+	c #363637",
"l+	c #959696",
"m+	c #949494",
"n+	c #949595",
"o+	c #979797",
"p+	c #939494",
"q+	c #ACAEAF",
"r+	c #B2B7BB",
"s+	c #5D656D",
"t+	c #677270",
"u+	c #838587",
"v+	c #909599",
"w+	c #A8A9AA",
"x+	c #CFCFCF",
"y+	c #736C67",
"z+	c #B5ACB0",
"A+	c #B8C3BF",
"B+	c #FAA152",
"C+	c #F09145",
"D+	c #C56C1C",
"E+	c #C1CBD3",
"F+	c #AAACAE",
"G+	c #B2B2B2",
"H+	c #ABABAB",
"I+	c #8C8C8C",
"J+	c #8D8D8D",
"K+	c #898A8A",
"L+	c #B5ACAE",
"M+	c #A5ACB2",
"N+	c #BD9B83",
"O+	c #BB6624",
"P+	c #DC8830",
"Q+	c #E79042",
"R+	c #A49795",
"S+	c #8F9396",
"T+	c #A9A99E",
"U+	c #ABACAC",
"V+	c #AAAEB1",
"W+	c #9C571B",
"X+	c #E8964D",
"Y+	c #D98F4C",
"Z+	c #C9752A",
"`+	c #C2926F",
" @	c #A2AAB3",
".@	c #AFB3B7",
"+@	c #B3A9AB",
"@@	c #7E7E7E",
"#@	c #838484",
"$@	c #838485",
"%@	c #80887B",
"&@	c #7B8989",
"*@	c #8BA0A2",
"=@	c #7E4B19",
"-@	c #925923",
";@	c #BD702B",
">@	c #DA8442",
",@	c #E79953",
"'@	c #BD702D",
")@	c #ADB4BA",
"!@	c #B2B3B3",
"~@	c #E3E3E3",
"{@	c #636464",
"]@	c #CCCFD2",
"^@	c #BFC1C1",
"/@	c #D18A41",
"(@	c #D98E4B",
"_@	c #C58441",
":@	c #AA6326",
"<@	c #8C571F",
"[@	c #B29981",
"}@	c #B4BDC6",
"|@	c #7D858D",
"1@	c #838991",
"2@	c #837D85",
"3@	c #807B83",
"4@	c #90999D",
"5@	c #CA2425",
"6@	c #C32425",
"7@	c #FB9E97",
"8@	c #9C5B27",
"9@	c #CC7C34",
"0@	c #D98E4C",
"a@	c #DC9951",
"b@	c #A76734",
"c@	c #D1CACF",
"d@	c #D4D5D5",
"e@	c #807A75",
"f@	c #B0B1B2",
"g@	c #A6ADB3",
"h@	c #C0733C",
"i@	c #E99A48",
"j@	c #D0844D",
"k@	c #C2732E",
"l@	c #8F5F2E",
"m@	c #85501B",
"n@	c #A6642D",
"o@	c #9A6420",
"p@	c #794D17",
"q@	c #845A22",
"r@	c #8B5820",
"s@	c #B57F3D",
"t@	c #E52A4C",
"u@	c #EC7179",
"v@	c #F2B0BF",
"w@	c #9B652C",
"x@	c #D07D31",
"y@	c #E29149",
"z@	c #DA8F4D",
"A@	c #8E98A1",
"B@	c #9DA0A2",
"C@	c #BFBFBF",
"D@	c #55504B",
"E@	c #7E7F80",
"F@	c #797774",
"G@	c #67727C",
"H@	c #EA9C4D",
"I@	c #E69145",
"J@	c #C77D31",
"K@	c #704727",
"L@	c #9D6230",
"M@	c #AE7546",
"N@	c #C27D44",
"O@	c #CD8843",
"P@	c #D6924D",
"Q@	c #DD8F56",
"R@	c #E49554",
"S@	c #DF254C",
"T@	c #E95762",
"U@	c #F08387",
"V@	c #AB753A",
"W@	c #525254",
"X@	c #E79746",
"Y@	c #656A6D",
"Z@	c #686C6F",
"`@	c #7B7671",
" #	c #635A5A",
".#	c #66615C",
"+#	c #584E4F",
"@#	c #494846",
"##	c #3F4243",
"$#	c #E2EEF7",
"%#	c #3A4855",
"&#	c #8E5923",
"*#	c #9B612F",
"=#	c #C17D43",
"-#	c #CA854B",
";#	c #E19552",
">#	c #DF9E5A",
",#	c #DEA25A",
"'#	c #DE9E4F",
")#	c #DE224B",
"!#	c #E53556",
"~#	c #C6833D",
"{#	c #38424A",
"]#	c #FDF6F9",
"^#	c #4D4E4E",
"/#	c #3B3B3B",
"(#	c #45403A",
"_#	c #4F4545",
":#	c #443A3A",
"<#	c #3D373B",
"[#	c #38353C",
"}#	c #383842",
"|#	c #3C3A43",
"1#	c #39363E",
"2#	c #3B383E",
"3#	c #353640",
"4#	c #905A2F",
"5#	c #A56B3A",
"6#	c #BF7C42",
"7#	c #C8844A",
"8#	c #D78B53",
"9#	c #DF9E5B",
"0#	c #EAA76A",
"a#	c #DDA770",
"b#	c #DEA15A",
"c#	c #E09D52",
"d#	c #C58A49",
"e#	c #C48141",
"f#	c #7B5933",
"g#	c #DEDCE5",
"h#	c #D8E1E9",
"i#	c #D1DBE4",
"j#	c #D5E0EA",
"k#	c #DBE3EA",
"l#	c #EEE6EA",
"m#	c #F4F4F4",
"n#	c #FFFFFE",
"o#	c #635E5A",
"p#	c #A8ABAD",
"q#	c #A3AEB7",
"r#	c #E89033",
"s#	c #C37130",
"t#	c #B2712E",
"u#	c #94682F",
"v#	c #8C4D24",
"w#	c #713C25",
"x#	c #996730",
"y#	c #C8844B",
"z#	c #DE9E5B",
"A#	c #DDA76F",
"B#	c #DE9D59",
"C#	c #E29652",
"D#	c #C7834A",
"E#	c #C27D42",
"F#	c #9B6235",
"G#	c #834D22",
"H#	c #A05E1B",
"I#	c #BB7024",
"J#	c #DA852E",
"K#	c #DD8435",
"L#	c #848E97",
"M#	c #888B8E",
"N#	c #A2A3A3",
"O#	c #9C9494",
"P#	c #42423D",
"Q#	c #B4B5B6",
"R#	c #A8ABAE",
"S#	c #7B4012",
"T#	c #E3853C",
"U#	c #BE722F",
"V#	c #A46B31",
"W#	c #946432",
"X#	c #835B33",
"Y#	c #784D2B",
"Z#	c #8C5A27",
"`#	c #A6602F",
" $	c #C07D37",
".$	c #C68540",
"+$	c #D88D49",
"@$	c #E09451",
"#$	c #DE9D5A",
"$$	c #EB9D67",
"%$	c #DF945B",
"&$	c #D88C53",
"*$	c #C8854B",
"=$	c #C37E44",
"-$	c #90612F",
";$	c #865631",
">$	c #A36A30",
",$	c #CB7A34",
"'$	c #D88D4C",
")$	c #E99953",
"!$	c #9E5A21",
"~$	c #A9AEB3",
"{$	c #B2B2B3",
"]$	c #4A4242",
"^$	c #554F4A",
"/$	c #D7DAD1",
"($	c #B7C4C4",
"_$	c #CC853C",
":$	c #BE722E",
"<$	c #AE6A31",
"[$	c #926331",
"}$	c #8D5A27",
"|$	c #764D2B",
"1$	c #9D6431",
"2$	c #BA7B48",
"3$	c #C98742",
"4$	c #D0844B",
"5$	c #D88C49",
"6$	c #E19653",
"7$	c #E19652",
"8$	c #D78C47",
"9$	c #D08F4A",
"0$	c #BE7B42",
"a$	c #BC763A",
"b$	c #7C5625",
"c$	c #915C27",
"d$	c #B76C33",
"e$	c #D18737",
"f$	c #D88D4B",
"g$	c #DD9851",
"h$	c #9C632B",
"i$	c #C8CDD2",
"j$	c #535354",
"k$	c #5A5252",
"l$	c #B5B6B7",
"m$	c #9FA0A1",
"n$	c #99959C",
"o$	c #C47736",
"p$	c #D17D32",
"q$	c #AC6930",
"r$	c #9C6231",
"s$	c #8D5A32",
"t$	c #8A4E27",
"u$	c #753F28",
"v$	c #965426",
"w$	c #B2723B",
"x$	c #C27E47",
"y$	c #C68541",
"z$	c #CB864B",
"A$	c #D38A4D",
"B$	c #CA8244",
"C$	c #C37A39",
"D$	c #7F5831",
"E$	c #7F5827",
"F$	c #9B6232",
"G$	c #C0732F",
"H$	c #C48543",
"I$	c #E68D49",
"J$	c #D58C41",
"K$	c #ADB8C1",
"L$	c #BFC2C5",
"M$	c #C9C9C9",
"N$	c #6B6B63",
"O$	c #737373",
"P$	c #8E8E8E",
"Q$	c #858585",
"R$	c #787C80",
"S$	c #757C80",
"T$	c #E38633",
"U$	c #B77736",
"V$	c #B4702D",
"W$	c #986B30",
"X$	c #704932",
"Y$	c #2F343A",
"Z$	c #312F2A",
"`$	c #2D2B29",
" %	c #534032",
".%	c #BC7940",
"+%	c #D98D3F",
"@%	c #D88C4B",
"#%	c #C4834B",
"$%	c #725335",
"%%	c #242B36",
"&%	c #574333",
"*%	c #7F512D",
"=%	c #9A6033",
"-%	c #B57330",
";%	c #CE772B",
">%	c #EB994F",
",%	c #EAA054",
"'%	c #997868",
")%	c #898387",
"!%	c #8A8A8A",
"~%	c #959596",
"{%	c #6B6B6B",
"]%	c #636363",
"^%	c #5D5D5D",
"/%	c #666767",
"(%	c #554E47",
"_%	c #201F21",
":%	c #242932",
"<%	c #E2E9F2",
"[%	c #A8B1AE",
"}%	c #252933",
"|%	c #222934",
"1%	c #AA7948",
"2%	c #5E656C",
"3%	c #6C6F70",
"4%	c #757777",
"5%	c #787879",
"6%	c #DEDED6",
"7%	c #847B7B",
"8%	c #2D2724",
"                                      .                         ",
"                                    + @                         ",
"                                  + # $                         ",
"                                  % & *                         ",
"                                = - ; >                         ",
"      + ,                     + ' ) ! ~                         ",
"        { ] +                 ^ / ( _ :                         ",
"        < [ } |             + 1 2 3 4 5                         ",
"        6 7 8 9 0 +         a b c d e f                         ",
"        + g h i j k l       m n o p q +                         ",
"          r s t u v w + x   y z A B C                           ",
"            D E F G H I J K L M N O P                           ",
"            + Q R S T U V W X Y Z `  ...                        ",
"              + +.@.#.$.%.&.*.=.-.;.>.,.                        ",
"                '.).!.~.{.].^./.(._.:.<.                        ",
"                [.}.|.1.2.3.4.5.6.7.8.                          ",
"                  9.0.a.b.c.d.e.+ + f.                          ",
"                  g.h.  i.j.k.l.    m.+                         ",
"                  n.      o.p.+       q.                        ",
"                  r.    s.+ t.+ u.    v.                        ",
"                  w.x.  y.+ z.A.      B.                        ",
"                  C.D.  + E.F.G.H.I.J.K.L.                      ",
"                  M.N.O.P.P.Q.R.S.T.U.V.+ W.                    ",
"                  X.Y.Z.`. +.+++@+#+$+%+&+*+                    ",
"                + + =+-+;+>+Z.Z.,+'+)+!+~+{+]+                  ",
"                ^+/+(+_+[.'+:+<+<+[+}+|+1+2+3+                  ",
"                4+5+6+7+8+9+0+0+a+b+c+d+e+f+g+                  ",
"                h+i+e+j+k+l+m+m+n+o+p+X.q+r+s+t+u+v+w+x+        ",
"      y+z+A+B+C+D+E+F+G+H+I+I+I+J+g+K+L+M+N+O+P+Q+R+S+T+        ",
"      U+V+W+X+Y+Z+`+ @.@+@@@#@#@$@%@&@*@=@-@;@>@,@'@)@!@~@      ",
"      {@]@^@/@(@_@:@<@[@}@|@1@2@3@4@5@6@7@8@9@0@a@b@c@d@        ",
"      e@f@g@h@i@j@k@l@m@n@o@p@q@r@s@t@u@v@w@x@y@z@A@B@C@        ",
"      D@E@F@G@H@I@J@K@L@M@N@O@P@Q@R@S@T@U@V@W@X@Y@Z@`@4+        ",
"       #.#+#@###$#%#&#*#=#-#d.;#>#,#'#)#!#~#{#  ]#^#/#(#        ",
"  _#:#<#[#}#|#1#2#3#4#5#6#7#8#9#0#a#b#c#d#e#f#g#h#i#j#k#l#m#n#  ",
"o#!@p#q#r#s#t#u#v#w#x#5#3.y#8#z#0#A#B#C#D#E#F#G#H#I#J#K#L#M#N#O#",
"P#Q#R#S#T#U#V#W#X#Y#Z#`# $.$+$@$#$$$%$&$*$=$-$;$>$,$'$)$!$~${$]$",
"P#^$/$($_$:$<$[$}$Y#|$1$2$3$4$5$6$7$8$9$0$a$b$c$d$e$f$g$h$i$j$P#",
"k$l$m$n$o$p$q$r$s$t$u$v$w$x$=#y$y#z$A$B$C$D$E$F$G$H$I$J$K$L$M$N$",
"O$P$Q$R$S$T$U$V$W$X$Y$Z$`$ %.%+%@%#%$%%%&%*%=%-%;%>%,%'%)%!%~%{%",
"  ]%^%/%(%_%:%<%                              [%}%|%1%2%3%4%5%6%",
"  #+,+                                                  7%8%8%  "};
