/* XPM */
static char *client0_ICO[] = {
/* columns rows colors chars-per-pixel */
"16 16 41 1",
"  c black",
". c #0F8E0E",
"X c #08A504",
"o c #12B20E",
"O c #1ABB15",
"+ c #13C10E",
"@ c #1BCE16",
"# c #1BD816",
"$ c #20DA1B",
"% c #25C422",
"& c #2AD825",
"* c #32CE2E",
"= c #35CD30",
"- c #31D52D",
"; c #34DC2E",
": c #3DDF37",
"> c #22E21D",
", c #3DED36",
"< c #36F02F",
"1 c #39F331",
"2 c #41D63D",
"3 c #44E93E",
"4 c #49C146",
"5 c #5DD95A",
"6 c #4CEB48",
"7 c #4DF645",
"8 c #4FF34A",
"9 c #48FA40",
"0 c #53F74F",
"q c #58FC52",
"w c #62D45F",
"e c #72C970",
"r c #92DF90",
"t c #94E292",
"y c #9FE09E",
"u c #CAEDCA",
"i c #D0EFD0",
"p c #D8F2D7",
"a c #E9FAE9",
"s c #F6FFF6",
"d c None",
/* pixels */
"dddddddddddddddd",
"dddddd....dddddd",
"dddd..assa..dddd",
"ddd.upuuuupi.ddd",
"dd.eyrtttttye.dd",
"dd.4w  55  w4.dd",
"d.XO*  ;-  *OX.d",
"d.o+@######@+o.d",
"d.O@$>>>>>>$@O.d",
"d.%& <1111< &%.d",
"dd.;, 9999 ,-.dd",
"dd.:37    7:=.dd",
"ddd.38qqq062.ddd",
"dddd..8006..dddd",
"dddddd....dddddd",
"dddddddddddddddd"
};
