/* XPM */
static char *client1_ICO[] = {
/* columns rows colors chars-per-pixel */
"16 16 47 1",
"  c black",
". c #8E1515",
"X c #901515",
"o c #9A1818",
"O c #9F2424",
"+ c #913E3E",
"@ c #A91C1C",
"# c #B41E1E",
"$ c #B91F1F",
"% c #A32929",
"& c #B72121",
"* c #B53D3D",
"= c #BB3E3E",
"- c #BD3E3E",
"; c #AA5252",
": c #AF5858",
"> c #BF6E6E",
", c #B57474",
"< c #C12525",
"1 c #C72121",
"2 c #CD2525",
"3 c #D22323",
"4 c #D32727",
"5 c #DD2A2A",
"6 c #E22626",
"7 c #E82B2B",
"8 c #EC2929",
"9 c #E93030",
"0 c #ED3232",
"q c #F12B2B",
"w c #F52D2D",
"e c #F53232",
"r c #FD3232",
"t c #FD3535",
"y c #C56A6A",
"u c #BD8181",
"i c #D39C9C",
"p c #D49C9C",
"a c #D4A6A6",
"s c #E6CDCD",
"d c #E8D0D0",
"f c #EAD4D4",
"g c #EEDCDC",
"h c #F7E9E9",
"j c #F8EDED",
"k c #FFF8F8",
"l c None",
/* pixels */
"llllllllllllllll",
"llllll++++llllll",
"llll++hkkj++llll",
"lll+sgfdffff+lll",
"ll+,aiipppaau+ll",
"ll+;>  yy  >:+ll",
"l+.O*  --  =%X+l",
"l+o@&<<<<<<$@o+l",
"l+@$24444442$@+l",
"l+$3790000952#+l",
"ll+30      72+ll",
"ll+38erttr051+ll",
"lll+6qwrrq73+lll",
"llll++qqw8++llll",
"llllll++++llllll",
"llllllllllllllll"
};
