/* XPM */
static char *compatible_ICO[] = {
/* columns rows colors chars-per-pixel */
"16 16 59 1",
"  c black",
". c #5E5075",
"X c #65577A",
"o c #464699",
"O c #515199",
"+ c #5B5B99",
"@ c #4646A2",
"# c #655B82",
"$ c #6C5F81",
"% c #6B6087",
"& c #6D648D",
"* c #6C699E",
"= c #776A8A",
"- c #7A6E8D",
"; c #6565A5",
": c #6E6EA1",
"> c #6E6EBB",
", c #74EC48",
"< c #827694",
"1 c #8D839D",
"2 c #8581A8",
"3 c #8282B5",
"4 c #8A87B4",
"5 c #8F8FBD",
"6 c #9187A0",
"7 c #978CA6",
"8 c #938FB7",
"9 c #9C98B1",
"0 c #9A9ABF",
"q c #8FA0B1",
"w c #A69EB2",
"e c #A0A0BF",
"r c #8F98CF",
"t c #9797C9",
"y c #ADADC7",
"u c #A5A5D1",
"i c #A5AEDE",
"p c #B1B0C4",
"a c #B4B4C9",
"s c #BEB8C7",
"d c #B4B4D5",
"f c #B4B4DC",
"g c #BEBED3",
"h c #C4BFCD",
"j c #C2C2D7",
"k c #C4C3DC",
"l c #CEC9D4",
"z c #CAC9DD",
"x c LightGray",
"c c #D6D6DB",
"v c #DEDEDF",
"b c #D4D4E1",
"n c #DFDFE0",
"m c #DEDDEA",
"M c #E1E1E2",
"N c #E1E1EF",
"B c #ECEBEF",
"V c #F4F3F6",
"C c None",
/* pixels */
"CCCCCCMnnzgebCCC",
"CCCxxhkye    lCC",
"CCClqgggn ,, sCC",
"CCClnvv   ,,   C",
"CCCcgnv ,,,,,, C",
"CCCngnv ,,,,,, C",
"CCCCgnv   ,,   C",
"CCCCgnnvv ,, =BC",
"CCCCkgnnn    <BC",
"CCCCbgngi>@#6lCC",
"CCCCbrfutoo*pVCC",
"CCCmBNVMd;O38nCC",
"CCCbBVBvj5+34wVC",
"CCCmlMncge:5&9BC",
"CCCCh9pay02%-sCC",
"CCCCCl7$..X1hVCC"
};
