/* XPM */
static char *MyInfo.ico[] = {
/* columns rows colors chars-per-pixel */
"16 16 58 1",
"  c black",
". c #454546465353",
"X c #29295D5DBDBD",
"o c #31316161C6C6",
"O c #31316565CECE",
"+ c #39396969CECE",
"@ c #39396969D6D6",
"# c #39397171D6D6",
"$ c #42426D6DCECE",
"% c #42427171CECE",
"& c #42427171DEDE",
"* c #7B7B8E8EB5B5",
"= c #52528686EFEF",
"- c #5A5A8E8EF7F7",
"; c #73738E8EC6C6",
": c #73739696D6D6",
"> c #7B7B9E9EDEDE",
", c #63639292EFEF",
"< c #6B6B9A9AF7F7",
"1 c #7373AAAAFFFF",
"2 c #7B7BA6A6FFFF",
"3 c #84849292B5B5",
"4 c #9C9CA6A6BDBD",
"5 c #84849E9ED6D6",
"6 c #8C8CA6A6D6D6",
"7 c #9C9CB2B2DEDE",
"8 c #8C8CAAAAEFEF",
"9 c #9494C7C7FFFF",
"0 c #9C9CD3D3FFFF",
"q c #BDBDC7C7D6D6",
"w c #ADADD7D7FFFF",
"e c #ADADDFDFFFFF",
"r c #BDBDC7C7E7E7",
"t c #BDBDCBCBE7E7",
"y c #C6C6CBCBDEDE",
"u c #CECED7D7F7F7",
"i c #CECEDBDBF7F7",
"p c #D6D6DBDBE7E7",
"a c #D6D6DFDFF7F7",
"s c #C6C6F3F3FFFF",
"d c #DEDEE3E3EFEF",
"f c #D6D6E3E3F7F7",
"g c #D6D6EFEFFFFF",
"h c #DEDEE7E7F7F7",
"j c #DEDEEBEBFFFF",
"k c #EFEFEBEBEFEF",
"l c #E7E7E7E7F7F7",
"z c #E7E7EBEBF7F7",
"x c #E7E7EFEFFFFF",
"c c #EFEFEFEFF7F7",
"v c #EFEFEFEFFFFF",
"b c #EFEFF3F3F7F7",
"n c #EFEFF3F3FFFF",
"m c #F7F7F3F3F7F7",
"M c #F7F7F3F3FFFF",
"N c #F7F7FBFBFFFF",
"B c #FFFFFBFBFFFF",
"V c None",
/* pixels */
"VVVVVyqqqqVVVVVV",
"VVVqqBBBBByqVVVV",
"VVqBBse09wBBqVVV",
"VqBg18OOO2-iBqVV",
"Vqj=OOeeeO&#nl.V",
"qB<@OOjNjOOX,Bq.",
"qx@OOOOOOOOO+Ba.",
"quOOOOeeeOOOXbd.",
"qfXOOOeNeOOOXva.",
"qMoXOOeNeOOX%Bt.",
"4B>XOOeNeOXXtcy.",
"V4B$XXjNjXX:Nf.V",
"V4zB;XXOXX5mhq.V",
"VV4hMp76rkmft.VV",
"VVV*3fddhf4..VVV",
"VVVVV......VVVVV"
};
