/* XPM */
static char *NewServer.ico[] = {
/* columns rows colors chars-per-pixel */
"16 16 71 1",
"  c black",
". c #2D2D35353D3D",
"X c #34343E3E4545",
"o c #3A3A45454E4E",
"O c #3F3F4B4B5656",
"+ c #444437370101",
"@ c #535343430101",
"# c #48484E4E4646",
"$ c #41414C4C5252",
"% c #41414D4D5858",
"& c #4E4E54544C4C",
"* c #454552525D5D",
"= c #4C4C5A5A6666",
"- c #4E4E5D5D6A6A",
"; c #50505F5F6D6D",
": c #565666667575",
"> c #5A5A69697676",
", c #5F5F6E6E7A7A",
"< c #7E7E58586363",
"1 c #66666D6D6464",
"2 c #6F6F71716161",
"3 c #656571717C7C",
"4 c #727269696969",
"5 c #676776768383",
"6 c #6D6D79798484",
"7 c #30308F8F4141",
"8 c #3F3FA7A75151",
"9 c #1515C6C61D1D",
"0 c #414192925757",
"q c #4C4C92926060",
"w c #6A6AAFAF7E7E",
"e c #4141FFFF4141",
"r c #767682828F8F",
"t c #767685859393",
"y c #7D7D8B8B9696",
"u c #8A8A54545D5D",
"i c #90906C6C7777",
"p c #FFFF00000A0A",
"a c #CACA4F4F5555",
"s c #999982820909",
"d c #B1B19B9B1313",
"f c #8888ADAD7C7C",
"g c #C0C0AAAA1E1E",
"h c #DEDEC5C52424",
"j c #E6E6CBCB2424",
"k c #E2E2CACA2828",
"l c #EDEDD5D52B2B",
"z c #FCFCDBDB2323",
"x c #FCFCE4E43030",
"c c #979782828E8E",
"v c #8D8D9999A4A4",
"b c #9E9EA8A8B2B2",
"n c #BCBC9F9FAAAA",
"m c #A1A1ADADB9B9",
"M c #ABABB5B5BDBD",
"N c #B4B4BEBEC6C6",
"B c #B5B5BEBEC8C8",
"V c #BBBBC4C4CCCC",
"C c #FEFEF1F19393",
"Z c #FEFEF3F39E9E",
"A c #C4C4CCCCD3D3",
"S c #CCCCD4D4DBDB",
"D c #D0D0D6D6DCDC",
"F c #D2D2D8D8DFDF",
"G c #D9D9DFDFE4E4",
"H c #FEFEF9F9C9C9",
"J c #E0E0E4E4E9E9",
"K c #E6E6EAEAEDED",
"L c #F3F3F5F5F6F6",
"P c gray100",
"I c None",
/* pixels */
"IIII;;==%%%@IIII",
"I:::55,,,:@x@2II",
":vy6665@@@xZx@@@",
":PSNvt6@lZPHZzk+",
";PKABmy3@gHZxg+I",
";LKABmy>-@Cxz+II",
";LAABmy-@jzszh+I",
";K=JMmy=@d+#+d+I",
"=KNA%Dq9@+&*$++I",
"=GoGbm8ef1=*OXII",
"=GNA.A07w6=*OXII",
"=G.Fbm4an3=*OXII",
"=MSA.V<pc3=*oXII",
"==6vmm4ui3=$XIII",
"II%%%3r=t3*XIIII",
"IIIII%%%%%XIIIII"
};
