/* XPM */
static char *pluseDonkeyHybrid_ico[] = {
/* columns rows colors chars-per-pixel */
"16 16 69 1",
"  c None",
". c #5c5670",
"X c #625e74",
"o c #636479",
"O c #686879",
"+ c #484e91",
"@ c #484e9a",
"# c #545c8e",
"$ c #5e698b",
"% c #6b7180",
"& c #6e7a8d",
"* c #6a7892",
"= c #727680",
"- c #767983",
"; c #727faa",
": c #73828d",
"> c #7d828a",
", c #b6dc79",
"< c #c3e66a",
"1 c #f6ff7d",
"2 c #898e94",
"3 c #869297",
"4 c #8d9297",
"5 c #92979d",
"6 c #8695a1",
"7 c #8897a1",
"8 c #8c99a2",
"9 c #979da0",
"0 c #88ae8d",
"q c #94a1a6",
"w c #94a2aa",
"e c #9ba5a4",
"r c #9eacad",
"t c #9cacb4",
"y c #9bb3af",
"u c #a3ad96",
"i c #a6acae",
"p c #a4b1ae",
"a c #aab7ac",
"s c #aab9bd",
"d c #b0bab5",
"f c #b1bcb8",
"g c #9dce81",
"h c #b7c6a8",
"j c #b7c1bc",
"k c #bbc1c0",
"l c #b9c8c8",
"z c #c4ce95",
"x c #c7da98",
"c c #ccddbd",
"v c #dbe1a8",
"b c #f8ff81",
"n c #c1c7c6",
"m c #c1cbc6",
"M c #c5cdc9",
"N c #c6d1ce",
"B c #cbd0cf",
"V c #ced3d1",
"C c #d1d6d4",
"Z c #d3dbd6",
"A c #d7d9d8",
"S c #dededf",
"D c #dfdfe0",
"F c #dce0de",
"G c #dfe5e1",
"H c #e1e1e2",
"J c #eff0f0",
"K c #f2f4f3",
"L c None",
/* pixels */
"LLLLLLZmmuuuxLLL",
"LLLCmdzum<<<=hLL",
"LLLCu<b11111=zLL",
"LLLBb  bb  bXaLL",
"LLLCv  bb  b0uLL",
"LLLFc      b02LL",
"LLLLd  bb  bg>LL",
"LLLLk  b1  b0=LL",
"LLLLNbb1bbm>O>LL",
"LLLLA,1bh;@o4MLL",
"LLLLAylst++&fLLL",
"LLLGJHKHk*#6qFLL",
"LLLAJJJSMq$78iLL",
"LLLGVHDAmp:w%9LL",
"LLLLkefjfr3O-kLL",
"LLLLLN5O..X2nLLL"
};
