/* XPM */
static char *Prefs_Files.ico[] = {
/* columns rows colors chars-per-pixel */
"16 16 75 1",
"  c None",
". c #003963",
"X c #3a3f42",
"o c #0a4941",
"O c #01426f",
"+ c #014675",
"@ c #014a7b",
"# c #5c2500",
"$ c #423223",
"% c #632f00",
"& c #6b3900",
"* c #623414",
"= c #4e4137",
"- c #015287",
"; c #015a93",
": c #014da3",
"> c #036e9f",
", c #0075db",
"< c #16876e",
"1 c #17967c",
"2 c #309368",
"3 c #29b561",
"4 c #3fca3c",
"5 c #31ef63",
"6 c #0c828d",
"7 c #088e84",
"8 c #069fba",
"9 c #1a85a5",
"0 c #18aaa5",
"q c #2e9295",
"w c #0394d1",
"e c #02b0e8",
"r c #16bae8",
"t c #3bc2b9",
"y c #01c8eb",
"u c #00e7ff",
"i c #2bc1d8",
"p c #57c18a",
"a c #5cd68c",
"s c #5bd2da",
"d c #6eedc1",
"f c #65f4c2",
"g c #844f17",
"h c #87501f",
"j c #88521c",
"k c #8d5522",
"l c #975e29",
"z c #9b632d",
"x c #9b6230",
"c c #a66e36",
"v c #aa723b",
"b c #a37449",
"n c #be854b",
"m c #cd8b47",
"M c #c78e53",
"N c #cd955b",
"B c #d39755",
"V c #d49b5e",
"C c #dead73",
"Z c #e2a86a",
"A c #e7ae72",
"S c #e2b27d",
"D c #ebb479",
"F c #a5f7ff",
"G c #eabb86",
"H c #f0bb81",
"J c #efc18e",
"K c #edc293",
"L c #f5c189",
"P c #f6c998",
"I c #f5d0a6",
"U c #f8d4ae",
"Y c #f4e1c5",
"T c #fcecda",
"R c None",
/* pixels */
"RRRRRRRRRRRRRRRR",
"RRRRRR;;-@@RRRRR",
"RRRRR;9rtp2ORRRR",
"RRRR;quyia4<+RRR",
"RRRR;sFud531O*%R",
"RRR&.euf50,;XbM%",
"RR&$o6w87>:=bSn%",
"R&ccccccccgbKN%R",
"&ALUTIPGCm&zB&RR",
"&&&&&&&&&&z&&#RR",
"RR&MMMMMMMvjk#RR",
"RR&ZDZZZZVvzl#RR",
"RR&DGDAZZVvzh#RR",
"RR&LYLDAZVvk#RRR",
"RR&LIGDDZVx#RRRR",
"RR&&&&&&&&#RRRRR"
};
