/* XPM */
static char *Rating_bad_ico[] = {
/* columns rows colors chars-per-pixel */
"16 16 22 1",
"  c None",
". c #07090e",
"X c #080b0f",
"o c #090c11",
"O c #0d1219",
"+ c #10151f",
"@ c #161e2a",
"# c #18202d",
"$ c #1a2332",
"% c #1f293b",
"& c #272728",
"* c #2c2c2d",
"= c #323233",
"- c #263247",
"; c #b20000",
": c #e50000",
"> c #dedfe1",
", c #e6e6e6",
"< c #e6e7ea",
"1 c #e8e9ec",
"2 c white",
"3 c None",
/* pixels */
"3;;;;;;;;3333333",
";::.  @::;333333",
";:.122,@:;333333",
";:X122,@:;333333",
";:o<22,#:;333333",
";:o<22,#:;333333",
";:o<22,#:;333333",
";:o<22,@:;333333",
";:O>11,$:;333333",
";::=*=&::;333333",
";:%,,,,-:;333333",
";:O2222%:;333333",
";::Ooo%::;333333",
"3;;;;;;;;3333333",
"3333333333333333",
"3333333333333333"
};
