/* XPM */
static char *up.bmp[] = {
/* columns rows colors chars-per-pixel */
"14 14 3 1",
"  c #808080",
". c #c0c0c0",
"X c white",
/* pixels */
"..............",
"..............",
"..............",
"..............",
"...... X......",
".....  XX.....",
"..... ..X.....",
"....  ..XX....",
".... ....X....",
"...  ....XX...",
"...XXXXXXXX...",
"..............",
"..............",
".............."
};
