/* XPM */
static char *ag[] = {
/* columns rows colors chars-per-pixel */
"16 11 146 2",
"   c black",
".  c #390000",
"X  c #2B2C2D",
"o  c #302C2C",
"O  c #313131",
"+  c #393731",
"@  c #3A3937",
"#  c #7A2626",
"$  c #7F6F36",
"%  c #535353",
"&  c #585757",
"*  c #5A5854",
"=  c #5B5A59",
"-  c #58595A",
";  c gray36",
":  c #614E4E",
">  c #645F5F",
",  c #656560",
"<  c #7C7765",
"1  c #777777",
"2  c #787774",
"3  c #797979",
"4  c #7B7B7B",
"5  c #810000",
"6  c #AB0000",
"7  c #AD0000",
"8  c #B10000",
"9  c #B30000",
"0  c #B50000",
"q  c #B70000",
"w  c #B90000",
"e  c #BB0000",
"r  c #BD0000",
"t  c #B72D3B",
"y  c #C30000",
"u  c #C50000",
"i  c #C90000",
"p  c #CB0000",
"a  c #CF0000",
"s  c #D30000",
"d  c #D50000",
"f  c #D70000",
"g  c #D90000",
"h  c #DB0000",
"j  c #DD0000",
"k  c #DF0000",
"l  c #E50000",
"z  c #CA2424",
"x  c #D72B24",
"c  c #D82F28",
"v  c #D82F29",
"b  c #DA332C",
"n  c #DA342C",
"m  c #DA342E",
"M  c #DD3831",
"N  c #DF3932",
"B  c #DE3E37",
"V  c #E03931",
"C  c #943F5A",
"Z  c #B14949",
"A  c #A35C5C",
"S  c #8C7F51",
"D  c #AD5D72",
"F  c #8E7B7B",
"G  c #DB4741",
"H  c #DB4444",
"J  c #DD4B44",
"K  c #DD4D47",
"L  c #DE4D47",
"P  c #DE504B",
"I  c #DF544D",
"U  c #E4544D",
"Y  c #E4544F",
"T  c #E05550",
"R  c #E25954",
"E  c #E55954",
"W  c #E75A54",
"Q  c #E75E58",
"!  c #E75E59",
"~  c #E8625E",
"^  c #EC635E",
"/  c #CD5964",
"(  c #D86060",
")  c #DB6666",
"_  c #CE7B7A",
"`  c #E66762",
"'  c #E96761",
"]  c #E76B66",
"[  c #ED6C66",
"{  c #E86F6A",
"}  c #EE706A",
"|  c #E9746F",
" . c #EA7773",
".. c #EC7B76",
"X. c #EA7979",
"o. c #ED7F7A",
"O. c #DFBF3D",
"+. c #EAC83C",
"@. c #AE9842",
"#. c #B19D51",
"$. c #848071",
"%. c #B5B36B",
"&. c #ED837E",
"*. c #CCB969",
"=. c #CDBB6D",
"-. c #DBC154",
";. c #E4C547",
":. c #E6C84C",
">. c #EACA4B",
",. c #FADE42",
"<. c #FBDF47",
"1. c #4684CC",
"2. c #5E91CB",
"3. c #428AD9",
"4. c #4788D9",
"5. c #4D8CDA",
"6. c #518FDC",
"7. c #5D98D2",
"8. c #5692DD",
"9. c #5E9DDC",
"0. c #689CD7",
"q. c #639ED9",
"w. c #6DA3D5",
"e. c #67A1DA",
"r. c #6BA4DC",
"t. c #71A6D6",
"y. c #75A9D8",
"u. c #70A8DE",
"i. c #79ACDA",
"p. c #5B9AE1",
"a. c #74AAE1",
"s. c #7CAEE0",
"d. c #EE8582",
"f. c #F08984",
"g. c #E39999",
"h. c #C1BF80",
"j. c #E9A09F",
"k. c #83AFDD",
"l. c #EDCBCA",
"z. c #F0C9C9",
"x. c #F5ECEC",
"c. c #F4EEEE",
"v. c gray96",
"b. c #F6F6F6",
"n. c gray97",
"m. c #F8F8F8",
/* pixels */
".                               ",
"q F 3 3 2 2 F *.*.< , ; - % : 5 ",
"l _ , ; = -.#.:.;.@.O.@ O X Z 6 ",
"k X.A - & S :.<.,.+.$ + X # H e ",
"k f.[ k.s.h.y.y.t.w.%.7.2.B E e ",
"h d.[ / 0.p.p.6.5.4.3.1.t V I q ",
"h &.` ^ D s.u.r.e.q.9.C N m I 8 ",
"h o.~ ! Q g.m.m.v.v.g.N n v K 8 ",
"f ..! E U U l.v.v.l.z m c x J 7 ",
"s  .| { ] ` ) c.c.( I P K J H 7 ",
"f a p p u u r e e 8 q 8 8 7 7 8 "
};
