/* XPM */
static char *al[] = {
/* columns rows colors chars-per-pixel */
"16 11 152 2",
"   c #2F2F2F",
".  c #3D2725",
"X  c #373636",
"o  c #3F3736",
"O  c gray24",
"+  c #3E3D3E",
"@  c #403F3E",
"#  c #473E3D",
"$  c #543C3A",
"%  c #65312D",
"&  c #643A34",
"*  c #6E3A36",
"=  c #723935",
"-  c #713A34",
";  c #434343",
":  c #444444",
">  c gray27",
",  c gray29",
"<  c #5B4644",
"1  c #5F4D4C",
"2  c #505151",
"3  c #555150",
"4  c #565656",
"5  c #5B5252",
"6  c #5F5858",
"7  c #5E5D5D",
"8  c #704743",
"9  c #795654",
"0  c #795B59",
"q  c #950000",
"w  c #9D0000",
"e  c #9F0000",
"r  c #A30000",
"t  c #A70000",
"y  c #A90000",
"u  c #AD0000",
"i  c #AF0000",
"p  c #B10000",
"a  c #B70000",
"s  c #B90000",
"d  c #BB0000",
"f  c #BD0000",
"g  c #953931",
"h  c #C10000",
"j  c #C30000",
"k  c #C50000",
"l  c #C70000",
"z  c #C90000",
"x  c #CD0000",
"c  c #CF0000",
"v  c #D10000",
"b  c #D30000",
"n  c #D50000",
"m  c #D70000",
"M  c #D70100",
"N  c #D50700",
"B  c #D70700",
"V  c #DB0000",
"C  c #DB0500",
"Z  c #D30900",
"A  c #D70900",
"S  c #D42B1B",
"D  c #D52E1F",
"F  c #D63324",
"G  c #D53425",
"H  c #D73425",
"J  c #D6392B",
"K  c #D8392A",
"L  c #D9392A",
"P  c #D8392B",
"I  c #CF3D30",
"U  c #DB3E30",
"Y  c #DA3F31",
"T  c #C84135",
"R  c #CF4235",
"E  c #D94032",
"W  c #D84638",
"Q  c #DA4638",
"!  c #DC4538",
"~  c #D9493B",
"^  c #D9493C",
"/  c #DC4C3F",
"(  c #DE4C3E",
")  c #804B48",
"_  c #AB4841",
"`  c #B74A40",
"'  c #B35B53",
"]  c #8F635F",
"[  c #B3635C",
"{  c #906C69",
"}  c #80706F",
"|  c #8D7E7C",
" . c #BA6A63",
".. c #DB4B40",
"X. c #DB4D40",
"o. c #D35247",
"O. c #DB5043",
"+. c #DD5044",
"@. c #DD5447",
"#. c #DD5549",
"$. c #DF584B",
"%. c #DE5A4E",
"&. c #C45C52",
"*. c #D35D53",
"=. c #E45042",
"-. c #E05245",
";. c #E15447",
":. c #E3594D",
">. c #E15B50",
",. c #E35C51",
"<. c #E35F53",
"1. c #DD6459",
"2. c #E06053",
"3. c #E66053",
"4. c #E26055",
"5. c #E26458",
"6. c #E2655B",
"7. c #E56559",
"8. c #E3695E",
"9. c #E36A5F",
"0. c #E76A5F",
"q. c #C36F68",
"w. c #E56E63",
"e. c #E56F65",
"r. c #E96C60",
"t. c #E86F65",
"y. c #EC7066",
"u. c #E77368",
"i. c #E5756B",
"p. c #E7746A",
"a. c #E6776E",
"s. c #E87469",
"d. c #ED756A",
"f. c #E8796F",
"g. c #EA786E",
"h. c #EE796F",
"j. c #E97B72",
"k. c #EB7D73",
"l. c #EF7E73",
"z. c #E97D74",
"x. c #EC8076",
"c. c #E3847B",
"v. c #E1877E",
"b. c #EA8278",
"n. c #EC857D",
"m. c #EC8A81",
"M. c #ED8E85",
"N. c #F18F87",
"B. c #EE9189",
"V. c #ED928A",
"C. c #EF948C",
"Z. c #F0978F",
/* pixels */
"Z B A A C M V b b b c z k j j a ",
"A Z.Z.C.B.N.| v.M.0 j.g.u.w.8.a ",
"A Z.x.l.{ i. .6 4 ' <.8 +.( 5.p ",
"B C.k.h.q.7 4 3 5 > @ _ ( ! 1.u ",
"M B.h.d.] 0 2 , > + $ * ! E %.u ",
"M M.s.t.[ 9 &.: O ` & g P P #.p ",
"b m.t.r.1.*.) # o * T J P G @.y ",
"c n.0.7.<.< o.X   R . P G D / e ",
"z b.7.<.:.@.=.= % E P G D S ~ e ",
"c k.f.i.e.0.6.4.:.$.#.O./ ~ W e ",
"k z k j f f a u u t t t r w w q "
};
