/* XPM */
static char *am[] = {
/* columns rows colors chars-per-pixel */
"16 11 155 2",
"   c #00005B",
".  c #000063",
"X  c #E30000",
"o  c #E50000",
"O  c #E90000",
"+  c #EB0000",
"@  c #ED0000",
"#  c #EF0000",
"$  c #F10000",
"%  c #F30000",
"&  c #F50000",
"*  c #F70000",
"=  c #F70303",
"-  c #FB0505",
";  c #F70909",
":  c #F90D0D",
">  c #FB1313",
",  c #FB1515",
"<  c #FB2525",
"1  c #D74900",
"2  c #D74B00",
"3  c #D94F00",
"4  c #D75500",
"5  c #D95100",
"6  c #D95500",
"7  c #DD5500",
"8  c #D95900",
"9  c #DF5900",
"0  c #DF5D00",
"q  c #E16100",
"w  c #E36500",
"e  c #E76B00",
"r  c #E96F00",
"t  c #EB7300",
"y  c #ED7900",
"u  c #EF7D00",
"i  c #F45352",
"p  c #F45757",
"a  c #F55757",
"s  c #F55C5B",
"d  c #F55C5C",
"f  c #F6605F",
"g  c #F66161",
"h  c #F76464",
"j  c #F76565",
"k  c #F46A6A",
"l  c #F66F6F",
"z  c #F86868",
"x  c #F96D6D",
"c  c #F77373",
"v  c #F77676",
"b  c #FA7171",
"n  c #FB7575",
"m  c #FB7878",
"M  c #FB7979",
"N  c #F87A7A",
"B  c #FB7B7B",
"V  c #FB7B7C",
"C  c #F87E7E",
"Z  c #FC7E7E",
"A  c #F18300",
"S  c #F38900",
"D  c #F18D00",
"F  c #F79500",
"G  c #F59700",
"H  c #EEAC3B",
"J  c #EFAE3F",
"K  c #EFB043",
"L  c #F0B043",
"P  c #F0B247",
"I  c #F0B248",
"U  c #F1B44B",
"Y  c #F3B74F",
"T  c #EFB155",
"R  c #EFB357",
"E  c #EFB859",
"W  c #F3B750",
"Q  c #F4B954",
"!  c #F4B955",
"~  c #F1B35B",
"^  c #F2B55E",
"/  c #F1B95B",
"(  c #F5BB59",
")  c #F6BE5E",
"_  c #F2B861",
"`  c #F2B964",
"'  c #F3BB67",
"]  c #F5BD6B",
"[  c #F6BF6F",
"{  c #F7C062",
"}  c #F8C366",
"|  c #F8C367",
" . c #F9C56B",
".. c #FAC66F",
"X. c #F7C173",
"o. c #F7C377",
"O. c #F8C57B",
"+. c #F9C87F",
"@. c #03039B",
"#. c #09099B",
"$. c #0F0F9F",
"%. c #4242AD",
"&. c #4747AE",
"*. c #4646AF",
"=. c #4B4BB0",
"-. c #4B4BB1",
";. c #5050B3",
":. c #5050B4",
">. c #5353B6",
",. c #5455B5",
"<. c #5555B6",
"1. c #5858B7",
"2. c #5858B8",
"3. c #5959B8",
"4. c #5D5DB9",
"5. c #5D5DBA",
"6. c #5C5CBB",
"7. c #5E5EBA",
"8. c #6060B9",
"9. c #6161BC",
"0. c #6161BD",
"q. c #6262BD",
"w. c #6565BC",
"e. c #6666BE",
"r. c #6666BF",
"t. c #6666C0",
"y. c #6A6AC1",
"u. c #6B6BC1",
"i. c #6A6AC2",
"p. c #6F6EC3",
"a. c #6E6EC4",
"s. c #6F6FC4",
"d. c #7272C5",
"f. c #7272C6",
"g. c #7373C6",
"h. c #7676C7",
"j. c #7777C7",
"k. c #797AC9",
"l. c #F98181",
"z. c #FC8181",
"x. c #FA8484",
"c. c #FB8888",
"v. c #FC8B8B",
"b. c #FC8F8F",
"n. c #FC9191",
"m. c #FC9494",
"M. c #FC9595",
"N. c #FD9796",
"B. c #FD9797",
"V. c #FAC983",
"C. c #FBCF86",
"Z. c #FBD18A",
"A. c #8C8CD0",
"S. c #8F8FD1",
"D. c #9191D3",
/* pixels */
"< , , , > : ; = = = $ $ $ # # O ",
"> B.B.B.B.n.b.v.x.l.l.Z N v c O ",
", B.Z Z V M n x x z j g d p l o ",
"- M.Z B M n b l z j f s p i k X ",
"$.D.k.h.g.s.u.e.q.4.2.<.:.-.e.. ",
"#.S.h.f.p.u.e.0.4.2.<.:.-.&.8.  ",
"@.A.f.a.u.t.0.6.2.<.:.-.*.%.4.  ",
"F Z... .| { ) ( ! W I I K J ( 6 ",
"F C. .} ' ) ( Q W U P K J H E 8 ",
"S V.+.O.o.X.[ ] ` ` _ _ ~ R R 1 ",
"D A u y t t e w q 0 9 6 5 3 1 4 "
};
