/* XPM */
static char *as[] = {
/* columns rows colors chars-per-pixel */
"16 11 161 2",
"   c #030000",
".  c #770003",
"X  c #7B624F",
"o  c #810000",
"O  c #9B0000",
"+  c #BB0000",
"@  c #C10000",
"#  c #98502A",
"$  c #8E4D32",
"%  c #D7453C",
"&  c #A06440",
"*  c #B17B50",
"=  c #B94065",
"-  c #DB4E42",
";  c #DF5D51",
":  c #E05C51",
">  c #DE605F",
",  c #D05A73",
"<  c #D46C7D",
"1  c #E46C66",
"2  c #E77268",
"3  c #E5786D",
"4  c #E67770",
"5  c #E97F79",
"6  c #EA7E7B",
"7  c #B5835A",
"8  c #B58D6F",
"9  c #BC9B78",
"0  c #BFA672",
"q  c #E58B77",
"w  c #EA817B",
"e  c #EC847A",
"r  c #C4A079",
"t  c #C5A27E",
"y  c #E9CB4B",
"u  c #EACE51",
"i  c #E9D366",
"p  c #EDDC7F",
"a  c #00009D",
"s  c #0000A1",
"d  c #6500B6",
"f  c #7339AF",
"g  c #0000DF",
"h  c #0000E1",
"j  c #0000E3",
"k  c #0000E7",
"l  c #0000E9",
"z  c #0000EB",
"x  c #0000ED",
"c  c #0000EF",
"v  c #0000F3",
"b  c #0400F2",
"n  c #0000F5",
"m  c #0000F7",
"M  c #0000F9",
"N  c #0000FB",
"B  c #0000FC",
"V  c #0000FD",
"C  c #0303FD",
"Z  c #0B0BFD",
"A  c #0D0BFD",
"S  c #0D0DFF",
"D  c #1111FF",
"F  c #2121FF",
"G  c #403DED",
"H  c #7755CC",
"J  c #5650EC",
"K  c #4545F8",
"L  c #4C4CF9",
"P  c #5757F7",
"I  c #5A5AF5",
"U  c #5353FA",
"Y  c #5A5AFB",
"T  c #5F5FF8",
"R  c #6F6AF6",
"E  c #6565F9",
"W  c #6161FC",
"Q  c #6C6CF9",
"!  c #6F6FFD",
"~  c #7474FA",
"^  c #7474FE",
"/  c #7574FE",
"(  c #7C7CFB",
")  c #7979FE",
"_  c #7D7DFE",
"`  c #BB5786",
"'  c #A053B0",
"]  c #BA73AE",
"[  c #A16AB6",
"{  c #CD7592",
"}  c #E07B81",
"|  c #C47DAA",
" . c #9572CF",
".. c #888A8C",
"X. c #9E9A98",
"o. c #9D9D9D",
"O. c #A28C81",
"+. c #BDA086",
"@. c #A0A099",
"#. c #A0A09E",
"$. c #A2A2A2",
"%. c #A5A5A5",
"&. c #E58080",
"*. c #E88C80",
"=. c #EB8C81",
"-. c #E79397",
";. c #E99391",
":. c #EE9694",
">. c #C3A78E",
",. c #CEB095",
"<. c #D2B59E",
"1. c #F2A19A",
"2. c #F1AB9F",
"3. c #C691BC",
"4. c #F3AFA7",
"5. c #F3AAA8",
"6. c #ECB8B0",
"7. c #F4BBB2",
"8. c #EED980",
"9. c #F0DE93",
"0. c #F0E4AF",
"q. c #9A86E9",
"w. c #8384FC",
"e. c #8A8AFD",
"r. c #9B91F0",
"t. c #9191FD",
"y. c #9595FD",
"u. c #9797FD",
"i. c #9A9AFD",
"p. c #9E9EFD",
"a. c #A1A1FE",
"s. c #A4A4FE",
"d. c #A7A6FE",
"f. c #A7A7FE",
"g. c #A8A8FF",
"h. c #A8A9FF",
"j. c #A9A9FF",
"k. c #B1A4F0",
"l. c #F3C9C2",
"z. c #F8CFC7",
"x. c #EDD6C5",
"c. c #F0D6CE",
"v. c #E3DAD3",
"b. c #E4E4C5",
"n. c #EAE0C2",
"m. c #E9E8C9",
"M. c #E8E9CF",
"N. c #F0E8C2",
"B. c #F9E4DC",
"V. c #E4E0E2",
"C. c #F8F1E9",
"Z. c #F4F4F0",
"A. c #F4F4F4",
"S. c #F6F6F6",
"D. c gray97",
"F. c #FAF1F0",
"G. c #F8F6F6",
"H. c #F8F8F8",
"J. c #F9F9F9",
"K. c gray98",
"L. c #FBFBFB",
/* pixels */
"F D D D Z B B B M M M m a . + @ ",
"S j.j.f.s.p.p.i.u.r.3.-.;.5.z.O.",
"D f._ ) ^ ! R [ < 1 6 7.x.>.9 X ",
"D f.) ^  .{ 3 5 4.C.H.,.* $ +.X.",
"A k.| &.w 1.B.L.J.H.<.7 8 # r ..",
"d :.e 2.F.L.L.L.H.p Z.M.V.& t o.",
"b q.] } 2 =.l.G.H.S.0.p m.r v.%.",
"B u.W I H ` > : q c.Z.i u y 9.#.",
"M t.Y U J K F f = % - q n.b.N.$.",
"M e.w.( ~ ~ ~ T Y J ' , ; 3 6.@.",
"m m m c l l l j j j j g s   o O "
};
