/* XPM */
static char *aw[] = {
/* columns rows colors chars-per-pixel */
"16 11 169 2",
"   c #E26D6D",
".  c #E37171",
"X  c #DDAF00",
"o  c #DFB300",
"O  c #F7D500",
"+  c #FBDB00",
"@  c #F2DB27",
"#  c #F2DC2C",
"$  c #F3DE2F",
"%  c #F4DF34",
"&  c #F5E139",
"*  c #F6E23E",
"=  c #F2DD40",
"-  c #F2DF42",
";  c #F2DF46",
":  c #F3DF46",
">  c #F7E343",
",  c #F3E149",
"<  c #F4E24B",
"1  c #F8E548",
"2  c #F9E64D",
"3  c #F5E350",
"4  c #F6E354",
"5  c #FAE852",
"6  c #FBE957",
"7  c #F7E558",
"8  c #F7E65C",
"9  c #FBEA5C",
"0  c #F8E861",
"q  c #F9E965",
"w  c #F9EA69",
"e  c #FAEB6E",
"r  c #FBED72",
"t  c #FCEE7A",
"y  c #001F85",
"u  c #00338F",
"i  c #002391",
"p  c #002593",
"a  c #002995",
"s  c #002D95",
"d  c #002D97",
"f  c #003991",
"g  c #003F93",
"h  c #003199",
"j  c #00379D",
"k  c #003BA1",
"l  c #003FA3",
"z  c #004597",
"x  c #004B9B",
"c  c #004D9D",
"v  c #0045A7",
"b  c #004BAB",
"n  c #005DA7",
"m  c #0051AD",
"M  c #0055B1",
"N  c #005BB5",
"B  c #0061A9",
"V  c #0063AB",
"C  c #0067AF",
"Z  c #0061B7",
"A  c #006DB1",
"S  c #006DB5",
"D  c #006FBF",
"F  c #0071B3",
"G  c #0075B7",
"H  c #0079B9",
"J  c #007DBD",
"K  c #007DBF",
"L  c #0581BD",
"P  c #0781C1",
"I  c #0B83C1",
"U  c #0D87C1",
"Y  c #0F87C3",
"T  c #0F89C3",
"R  c #0F8BC5",
"E  c #1189C5",
"W  c #158BC5",
"Q  c #1991C9",
"!  c #1D91C9",
"~  c #2191C7",
"^  c #3694C4",
"/  c #3A96C6",
"(  c #3E98C7",
")  c #3F99C8",
"_  c #439BC9",
"`  c #449BC9",
"'  c #459BC9",
"]  c #479ECB",
"[  c #489ECB",
"{  c #499ECB",
"}  c #4B9FCA",
"|  c #4CA1CD",
" . c #4DA1CD",
".. c #4EA1CC",
"X. c #4FA2CC",
"o. c #50A2CC",
"O. c #51A3CF",
"+. c #55A3CC",
"@. c #51A4CF",
"#. c #53A4CE",
"$. c #54A5CE",
"%. c #55A6CE",
"&. c #5BA7CF",
"*. c #58A8CF",
"=. c #54A6D1",
"-. c #57A7D0",
";. c #56A7D1",
":. c #59A8D0",
">. c #59A9D0",
",. c #59A9D3",
"<. c #5BAAD3",
"1. c #5FA9D0",
"2. c #5EABD1",
"3. c #5CAAD2",
"4. c #5EABD2",
"5. c #5EABD4",
"6. c #62AED3",
"7. c #64ADD2",
"8. c #60ACD4",
"9. c #61ADD4",
"0. c #63AED4",
"q. c #62AED6",
"w. c #63AFD6",
"e. c #64AFD6",
"r. c #68AFD3",
"t. c #66B0D5",
"y. c #67B0D5",
"u. c #67B1D5",
"i. c #69B2D7",
"p. c #6AB3D7",
"a. c #6BB3D7",
"s. c #6CB2D5",
"d. c #67B1D8",
"f. c #68B1D8",
"g. c #6DB4D9",
"h. c #6EB5D8",
"j. c #6EB6D8",
"k. c #6FB6D8",
"l. c #6CB4DA",
"z. c #70B4D7",
"x. c #70B6DB",
"c. c #71B6DB",
"v. c #72B7DA",
"b. c #73B7DA",
"n. c #75B7D8",
"m. c #76BADB",
"M. c #74B9DC",
"N. c #75BADC",
"B. c #76BADC",
"V. c #79B9D9",
"C. c #7CBBDB",
"Z. c #7EBBDA",
"A. c #7DBFDF",
"S. c #7BBFE0",
"D. c #E88989",
"F. c #80BEDD",
"G. c #83BFDF",
"H. c #84C0DD",
"J. c #87C2DF",
"K. c #9DC4DD",
"L. c #9FC4DC",
"P. c #8AC3E0",
"I. c #8AC3E2",
"U. c #8DC5E2",
"Y. c #8EC6E2",
"T. c #8FC7E2",
"R. c #91C8E3",
"E. c #91C8E4",
"W. c #99C8E1",
/* pixels */
"~ W Q E E I L K H G F A C V n V ",
"T L.D.W.E.U.U.J.J.H.F.Z.V.n.z.c ",
"Q D..   S.m.v.v.s.u.6.2.&.%.s.x ",
"E L.  Z.m.v.j.i.i.6.2.*.#.o.r.z ",
"T R.S.N.M.g.i.y.6.2.*.#.X.{ 7.z ",
"P U.N.l.g.i.e.9.2.%.#...{ ' &.u ",
"K I.k.k.f.e.8.<.;.#...] ' ) &.u ",
"+ t 9 6 5 2 1 > * & % % # @ > o ",
"S F.d.9.5.,.=.O.| ] _ ) / ^ +.y ",
"O r r w q 0 8 7 4 3 < , ; - - X ",
"D Z N M b b v l k j h d s i i s "
};
