/* XPM */
static char *ax[] = {
/* columns rows colors chars-per-pixel */
"16 11 172 2",
"   c #000047",
".  c #00004B",
"X  c #00004D",
"o  c #00004F",
"O  c #000055",
"+  c #00005B",
"@  c #000061",
"#  c #000065",
"$  c #000067",
"%  c #000069",
"&  c #000075",
"*  c #00007B",
"=  c #D30000",
"-  c #E10000",
";  c #FD1309",
":  c #FD1D0F",
">  c #EC2C25",
",  c #EE342C",
"<  c #EF3B33",
"1  c #CB5900",
"2  c #CF6B00",
"3  c #DD6F00",
"4  c #F1433C",
"5  c #ED4A42",
"6  c #F34943",
"7  c #F45348",
"8  c #F4514A",
"9  c #F55A50",
"0  c #F65852",
"q  c #F75C59",
"w  c #F75D59",
"e  c #F4685F",
"r  c #F96060",
"t  c #FA6A66",
"y  c #FA6C68",
"u  c #FB736E",
"i  c #FB776F",
"p  c #FC7873",
"a  c #FC7D75",
"s  c #CF8D00",
"d  c #FBAF15",
"f  c #F7B111",
"g  c #F9BB23",
"h  c #E8AF31",
"j  c #EAB237",
"k  c #ECB63F",
"l  c #EFC12D",
"z  c #EAB940",
"x  c #EDBA45",
"c  c #EDBC48",
"v  c #EBBA4D",
"b  c #F0BD4C",
"n  c #F2BC51",
"m  c #F6BA60",
"M  c #EFC04E",
"N  c #EDC15A",
"B  c #F2C054",
"V  c #F0C355",
"C  c #F4C259",
"Z  c #F3C65A",
"A  c #F2C65C",
"S  c #EBCB66",
"D  c #F2C367",
"F  c #F3C963",
"G  c #F9C46F",
"H  c #F6CF6A",
"J  c #F9CB6E",
"K  c #F0D26B",
"L  c #FACE76",
"P  c #EDD179",
"I  c #F8D074",
"U  c #FAD27B",
"Y  c #FBD37B",
"T  c #FBD07C",
"R  c #000987",
"E  c #000789",
"W  c #000B89",
"Q  c #00118F",
"!  c #00178F",
"~  c #002195",
"^  c #002B9B",
"/  c #00339F",
"(  c #0033A1",
")  c #0035A1",
"_  c #003DA5",
"`  c #014BA5",
"'  c #0043AB",
"]  c #0045AF",
"[  c #0B53A9",
"{  c #1A59AB",
"}  c #215DAE",
"|  c #1F63BB",
" . c #1D61BD",
".. c #1F61BD",
"X. c #1F63BD",
"o. c #2560AB",
"O. c #2C65AE",
"+. c #2762B1",
"@. c #2365B7",
"#. c #2D67B4",
"$. c #2569BB",
"%. c #2769BD",
"&. c #326AB1",
"*. c #376FB0",
"=. c #356DB7",
"-. c #396FB5",
";. c #3B6DBF",
":. c #3B72B3",
">. c #3B70B7",
",. c #3F75B4",
"<. c #4475B6",
"1. c #4679B7",
"2. c #4175B9",
"3. c #457AB8",
"4. c #477ABC",
"5. c #4A7EBA",
"6. c #4C7FBB",
"7. c #487ABD",
"8. c #487BC0",
"9. c #4C7EC1",
"0. c #4F81BD",
"q. c #5384BF",
"w. c #4F81C3",
"e. c #5583C3",
"r. c #5686C7",
"t. c #5B8AC2",
"y. c #5E8AC0",
"u. c #5F8AC3",
"i. c #5E8BCA",
"p. c #5E8CC8",
"a. c #5F8FCB",
"s. c #628FC5",
"d. c #6593C8",
"f. c #6491CD",
"g. c #6792CF",
"h. c #6892C9",
"j. c #6F98C9",
"k. c #6C98CB",
"l. c #759BC7",
"z. c #729CCD",
"x. c #749CCC",
"c. c #749DCF",
"v. c #789FCD",
"b. c #6A92D3",
"n. c #78A0D0",
"m. c #79A1D3",
"M. c #7EA5D3",
"N. c #7FA5D3",
"B. c #FC928E",
"V. c #FD968F",
"C. c #F5DC85",
"Z. c #FBD881",
"A. c #FBD987",
"S. c #F5DB8B",
"D. c #FCDB94",
"F. c #FCDA96",
"G. c #FCE19D",
"H. c #F7E2A2",
"J. c #83A9D5",
"K. c #86AAD5",
"L. c #84A9D8",
"P. c #86ABDA",
"I. c #88AADA",
"U. c #89ACD8",
"Y. c #89ACDD",
"T. c #8FB0D8",
"R. c #93B3D7",
"E. c #9FBCDF",
"W. c #9CBAE2",
"Q. c #9EBCE2",
"!. c #9EBDE2",
"~. c #9EBCE3",
/* pixels */
"%.| X.X.l : d [ ' _ ( ^ ~ ! R R ",
"$.!.W.W.H.V.F.R.I.J.M.n.c.k.d.* ",
"X.!.Y.P.S.a T v.b.f.i.r.w.8.p.& ",
"@.E.U.K.C.i L l.h.s.t.e.5.1.y.# ",
"g F.A.Z.U y G H F A V c c z N 2 ",
"; V.p u t r q 9 8 6 4 < , > 5 = ",
"f F.U I J w m Z B b x k j j v 1 ",
"` T.c.j.K 9 C 9.7.2.-.&.O.o.<.X ",
"' L.g.f.S 7 n 4.;.=.#.+.} { >.X ",
"( N.m.v.P t D y.e.q.5.1.,.:.*.. ",
"( ~ Q E s = 3 % % @ + O X .   . "
};
