/* XPM */
static char *bf[] = {
/* columns rows colors chars-per-pixel */
"16 11 148 2",
"   c #002100",
".  c #002300",
"X  c #002500",
"o  c #002900",
"O  c #002B00",
"+  c #002D00",
"@  c #003100",
"#  c #003700",
"$  c #003B00",
"%  c #003F00",
"&  c #004500",
"*  c #004B00",
"=  c #005100",
"-  c #005500",
";  c #005B00",
":  c #006100",
">  c #006700",
",  c #006B00",
"<  c #007100",
"1  c #007500",
"2  c #007D00",
"3  c #AF0000",
"4  c #CB0000",
"5  c #E70000",
"6  c #E90000",
"7  c #EB0000",
"8  c #ED0000",
"9  c #EF0000",
"0  c #F10000",
"q  c #F30000",
"w  c #F50000",
"e  c #F70000",
"r  c #F90000",
"t  c #FB0000",
"y  c #FD0000",
"u  c red",
"i  c #D82A1A",
"p  c #D9301F",
"a  c #DB3425",
"s  c #DD3A2B",
"d  c #F42020",
"f  c #F52525",
"g  c #F52626",
"h  c #F62B2B",
"j  c #F62C2C",
"k  c #F73030",
"l  c #F73131",
"z  c #F83736",
"x  c #F83737",
"c  c #F83B36",
"v  c #F53F3F",
"b  c #F93C3C",
"n  c #F93C3D",
"m  c #DD493B",
"M  c #DE5646",
"N  c #F64444",
"B  c #FA4242",
"V  c #FB4747",
"C  c #FB4946",
"Z  c #F74949",
"A  c #F74E4E",
"S  c #FC4B4B",
"D  c #FC4C4C",
"F  c #E05B4B",
"G  c #FD4F50",
"H  c #F85353",
"J  c #FD5151",
"K  c #F95757",
"L  c #FD5454",
"P  c #FE5858",
"I  c #FE5959",
"U  c #FA5C5C",
"Y  c #FE5C5C",
"T  c #FE5F5F",
"R  c #E1604F",
"E  c #E26453",
"W  c #FB6060",
"Q  c #FC6565",
"!  c #FC6969",
"~  c #FD6D6D",
"^  c #E87F73",
"/  c #FD7071",
"(  c #FE7474",
")  c #FE7676",
"_  c #FE7777",
"`  c #FE7979",
"'  c #FF7B7A",
"]  c #FF7B7B",
"[  c #0B950B",
"{  c #0F970E",
"}  c #109710",
"|  c #139913",
" . c #149914",
".. c #149B14",
"X. c #189C19",
"o. c #199C19",
"O. c #199D19",
"+. c #1E9F1E",
"@. c #1F9F1F",
"#. c #1FA21F",
"$. c #23A123",
"%. c #26A324",
"&. c #24A424",
"*. c #2AA32A",
"=. c #29A429",
"-. c #2AA72A",
";. c #2CA22C",
":. c #2FA42F",
">. c #2EA62E",
",. c #2FA62F",
"<. c #32A532",
"1. c #33A632",
"2. c #34A934",
"3. c #35A835",
"4. c #35AA34",
"5. c #36A936",
"6. c #39A939",
"7. c #3AAC3A",
"8. c #3DAC3D",
"9. c #3FAF3F",
"0. c #3BB43A",
"q. c #40AF3F",
"w. c #42AE42",
"e. c #40B240",
"r. c #44B144",
"t. c #45B245",
"y. c #46B046",
"u. c #45B445",
"i. c #4BB24B",
"p. c #49B449",
"a. c #49B749",
"s. c #4FB94F",
"d. c #50B450",
"f. c #54B755",
"g. c #58B958",
"h. c #5DBC5D",
"j. c #61BE62",
"k. c #66C066",
"l. c #6AC36A",
"z. c #6FC66F",
"x. c #F1B43C",
"c. c #D8DB30",
"v. c #D7E82F",
"b. c #D8E935",
"n. c #EAF036",
"m. c #EAF03B",
"M. c #F2B641",
"N. c #DDDD40",
/* pixels */
"u u u u u u u t t t e e q q 8 8 ",
"u ] ] ] _ ) / ~ ! Q W U K H A 7 ",
"u ] T Y I L G D Z B n x l j Z 7 ",
"u _ T K L G D S B n x l h g N 5 ",
"u _ Y L D D D M.x.c l h g d v 5 ",
"4 ^ E F F M c.m.n.c.s a p i m 3 ",
"2 z.s.a.u.e.0.b.v.-.&.#.O...3.+ ",
"1 l.p.t.e.7.5.,.*.%.@.o...} 1.O ",
"< k.r.9.7.5.,.;.$.@.....{ [ :.. ",
", j.h.g.f.d.i.w.w.8.7.5.<.:.;.. ",
"> : ; - = * & % $ # + + O X . . "
};
