/* XPM */
static char *bj[] = {
/* columns rows colors chars-per-pixel */
"16 11 139 2",
"   c #004900",
".  c #005300",
"X  c #005700",
"o  c #005D00",
"O  c #006300",
"+  c #006700",
"@  c #006F00",
"#  c #007500",
"$  c #007700",
"%  c #007B00",
"&  c #007F00",
"*  c #DD0000",
"=  c #DF0000",
"-  c #E10000",
";  c #E30000",
":  c #E50000",
">  c #E70000",
",  c #E90000",
"<  c #F10B0B",
"1  c #F10F0E",
"2  c #F21010",
"3  c #F21313",
"4  c #F21414",
"5  c #F31919",
"6  c #F41E1E",
"7  c #F41F1F",
"8  c #F3261A",
"9  c #F42B1F",
"0  c #F52323",
"q  c #F52424",
"w  c #F62929",
"e  c #F62A2A",
"r  c #F22C2C",
"t  c #F22F2F",
"y  c #F72F2F",
"u  c #F53025",
"i  c #F6362B",
"p  c #F23232",
"a  c #F33232",
"s  c #F33535",
"d  c #F43636",
"f  c #F83535",
"g  c #F73B30",
"h  c #F43939",
"j  c #F53D3D",
"k  c #F84036",
"l  c #F4463B",
"z  c #F9463B",
"x  c #F64242",
"c  c #F74646",
"v  c #008300",
"b  c #008500",
"n  c #008700",
"m  c #008900",
"M  c #009100",
"N  c #3CAA3A",
"B  c #3AAC3A",
"V  c #3EAE3E",
"C  c #3FAF3F",
"Z  c #40AF3F",
"A  c #43AD40",
"S  c #44B144",
"D  c #45B245",
"F  c #48B046",
"G  c #4EB24B",
"H  c #49B449",
"J  c #49B549",
"K  c #4BB54B",
"L  c #4FB64F",
"P  c #4FB74F",
"I  c #50B750",
"U  c #53B751",
"Y  c #56B555",
"T  c #54B755",
"R  c #53B953",
"E  c #54B954",
"W  c #54BA54",
"Q  c #58BA56",
"!  c #58B958",
"~  c #59BB59",
"^  c #58BC58",
"/  c #58BC59",
"(  c #59BC59",
")  c #5CBD5B",
"_  c #5CBD5C",
"`  c #5DBC5D",
"'  c #5CBE5C",
"]  c #5EBD5E",
"[  c #5FBF5F",
"{  c #61BE62",
"}  c #66C066",
"|  c #6AC36A",
" . c #6FC46F",
".. c #72C673",
"X. c #76C876",
"o. c #77C877",
"O. c #79C879",
"+. c #79C979",
"@. c #7AC97A",
"#. c #7BCA7A",
"$. c #7BCA7B",
"%. c #E7E700",
"&. c #E9E900",
"*. c #EBEB00",
"=. c #EDEF00",
"-. c #EFEF00",
";. c #F1F100",
":. c #F3F300",
">. c #F5F500",
",. c #F7F700",
"<. c #F9F900",
"1. c #FBFB00",
"2. c #FDFD00",
"3. c #F4F420",
"4. c #F5F525",
"5. c #F5F526",
"6. c #F6F62B",
"7. c #F6F62C",
"8. c #F7F730",
"9. c #F7F731",
"0. c #F8F836",
"q. c #F8F837",
"w. c #F5F53F",
"e. c #F9F93C",
"r. c #F9F93D",
"t. c #F6F644",
"y. c #FAFA41",
"u. c #FAFA42",
"i. c #FBFB47",
"p. c #F7F749",
"a. c #F7F74E",
"s. c #FCFC4C",
"d. c #F8F853",
"f. c #F9F957",
"g. c #FAFA5C",
"h. c #FBFB60",
"j. c #FCFC65",
"k. c #FCFC69",
"l. c #FDFD6D",
/* pixels */
"M m m m b v v 2.1.1.1.>.:.-.-.-.",
"b $.$.$.o.$.$.l.k.j.g.g.g.d.a.*.",
"b $.] ' ~ ] ) s.i.u.w.0.9.7.p.&.",
"m $.' ^ W ~ Q i.u.e.0.8.7.5.t.%.",
"b X.^ R I W U u.r.0.7.7.5.3.w.%.",
"b ..R P H P G z k g i u 9 8 l ; ",
"&  .P H D H D f y e q 7 5 4 d ; ",
"% | H D A D A y e q 7 5 4 2 a = ",
"% { D V B V N e 0 7 5 3 1 < t = ",
"@ { ` ! Y Q Y c x j h d p t r * ",
"# + O o X .   > > > ; ; = * * * "
};
