/* XPM */
static char *bn[] = {
/* columns rows colors chars-per-pixel */
"16 11 156 2",
"   c black",
".  c #0B0B0B",
"X  c #0F0F0E",
"o  c #131313",
"O  c gray8",
"+  c #181919",
"@  c #191919",
"#  c gray12",
"$  c #2C2C2C",
"%  c #2F2F2F",
"&  c #4A2F30",
"*  c #522936",
"=  c #403535",
"-  c gray27",
";  c #474545",
":  c #404049",
">  c #494A49",
",  c #4B4A4B",
"<  c gray31",
"1  c #535353",
"2  c gray38",
"3  c #727273",
"4  c #767676",
"5  c #D3765F",
"6  c #DD765E",
"7  c #D57F6C",
"8  c #DD7E6A",
"9  c #B38700",
"0  c #B2A437",
"q  c #D7A700",
"w  c #D9A900",
"e  c #D9AB00",
"r  c #DDAF00",
"t  c #D5B500",
"y  c #DBB300",
"u  c #DFB300",
"i  c #DBB500",
"p  c #DFB500",
"a  c #D7B900",
"s  c #D7BB00",
"d  c #E1B700",
"f  c #E1B900",
"g  c #E3BB00",
"h  c #E3BD00",
"j  c #E5BF00",
"k  c #CDAC33",
"l  c #CEBD3B",
"z  c #E9C100",
"x  c #E9C500",
"c  c #EBC500",
"v  c #EBC700",
"b  c #EDC700",
"n  c #EFC900",
"m  c #EDCB00",
"M  c #EFCB00",
"N  c #EFCD00",
"B  c #F1CF00",
"V  c #F1D100",
"C  c #F3D100",
"Z  c #F1D300",
"A  c #F3D300",
"S  c #F5D300",
"D  c #F3D700",
"F  c #F5D500",
"G  c #F5D900",
"H  c #EED82F",
"J  c #E7CD33",
"K  c #E8CE37",
"L  c #EDD73B",
"P  c #EAD73F",
"I  c #F0D935",
"U  c #F1DC35",
"Y  c #F2DD3A",
"T  c #F2DE3B",
"R  c #F5E63D",
"E  c #C9AE47",
"W  c #D48473",
"Q  c #D78777",
"!  c #DD8370",
"~  c #DD8272",
"^  c #DF8977",
"/  c #E18878",
"(  c #D8C247",
")  c #D0C257",
"_  c #EFDB4B",
"`  c #F4DF40",
"'  c #F4DE45",
"]  c #F2DE4D",
"[  c #F1DE4E",
"{  c #EDD250",
"}  c #EFDD50",
"|  c #F0DD50",
" . c #F1E541",
".. c #F6E643",
"X. c #F2E646",
"o. c #F1E048",
"O. c #F4E048",
"+. c #F6E348",
"@. c #F6E34A",
"#. c #F5E14D",
"$. c #F8ED4D",
"%. c #F2E151",
"&. c #F6E550",
"*. c #F5E653",
"=. c #F3E257",
"-. c #F7E855",
";. c #F3E258",
":. c #F4E35B",
">. c #F3E05E",
",. c #F4E25C",
"<. c #F6E45F",
"1. c #F5E460",
"2. c #F7E564",
"3. c #F7E768",
"4. c #F7E76C",
"5. c #F7E868",
"6. c #F7E96C",
"7. c #F8EA70",
"8. c #F9EB70",
"9. c #F9EA74",
"0. c #F9ED75",
"q. c #F4E778",
"w. c #F9E978",
"e. c #FAEA7A",
"r. c #FAEC79",
"t. c #FAEC7D",
"y. c #898787",
"u. c #AAAAAA",
"i. c #DC9A91",
"p. c #FCEE8E",
"a. c #FCF2A3",
"s. c #C2C8C8",
"d. c #C3C9C9",
"f. c #C7D3D3",
"g. c #C9D1D1",
"h. c #D5DBDF",
"j. c #DADFDF",
"k. c #DFDFDF",
"l. c #F5F2D7",
"z. c #E4DEF8",
"x. c gray89",
"c. c gray90",
"v. c #EDE4E2",
"b. c #FCFBE8",
"n. c gray95",
"m. c #F3F3F3",
"M. c #F2F7F7",
"N. c #F4F4F4",
"B. c #F4F5F5",
"V. c gray96",
"C. c #F6F6F6",
"Z. c #F9F3F3",
"A. c gray99",
"S. c #FDFDFD",
"D. c #FEFEFE",
"F. c gray100",
/* pixels */
"G S F F Z Z B B B B B b b j j j ",
"F.F.a.p.r.r.r.9.8.4.3.2.<.| <.d ",
"F.F.F.F.F.b.r.,.{ @.' ` T U | d ",
"y.A.F.F.A.F.A.h.i.] ' T I H | r ",
"  4 2 d.j.A.Z./ ~ z.M.C.l.| | q ",
"  3 1 < > W Q g.v./ ~ N.Z.N.N.c.",
"D q.) > - : 7 = & 5 s.f.m.n.N.c.",
"Z 0.-.$.] ( E 8 6 * # @ O ; u.k.",
"Z 7.*.+...R L K J k @ o X . %   ",
"N 6.5.1.,.;.*.} _ X. .P l 0 $   ",
"m v v j f f p f i e e y a a t 9 "
};
