/* XPM */
static char *bs[] = {
/* columns rows colors chars-per-pixel */
"16 11 150 2",
"   c black",
".  c #001B1B",
"X  c #004B4B",
"o  c #4B4846",
"O  c #494949",
"+  c #494A49",
"@  c #4B4A4B",
"#  c gray31",
"$  c #554C45",
"%  c #455656",
"&  c #445F5F",
"*  c #535353",
"=  c gray33",
"-  c #585858",
";  c gray36",
":  c #625950",
">  c #586C6C",
",  c #5F7B7B",
"<  c gray40",
"1  c #6A6A6A",
"2  c #6F6F6F",
"3  c #727273",
"4  c #767676",
"5  c #797979",
"6  c #7B7B7A",
"7  c #BA9E3F",
"8  c #DF8300",
"9  c #E38B00",
"0  c #E58F00",
"q  c #E79300",
"w  c #F2C410",
"e  c #F2C614",
"r  c #F3C819",
"t  c #F3C81A",
"y  c #F4C91F",
"u  c #F4CA1F",
"i  c #F4CA20",
"p  c #F5CB24",
"a  c #F5CB25",
"s  c #F5CC25",
"d  c #F5CD26",
"f  c #F6CD2A",
"g  c #F6CD2B",
"h  c #F6CE2B",
"j  c #F7CF2F",
"k  c #F3CC32",
"l  c #F7CF30",
"z  c #F4CD36",
"x  c #F4CF3B",
"c  c #F7D031",
"v  c #F8D134",
"b  c #F8D235",
"n  c #F8D136",
"m  c #F8D236",
"M  c #F5D23F",
"N  c #F9D33A",
"B  c #F9D53A",
"V  c #F9D33C",
"C  c #F9D83B",
"Z  c #BA9E40",
"A  c #C4AA4B",
"S  c #DCBC40",
"D  c #C3AA54",
"F  c #F6D344",
"G  c #FAD641",
"H  c #FAD542",
"J  c #FBD747",
"K  c #FBD846",
"L  c #FCD84B",
"P  c #FDDA51",
"I  c #008181",
"U  c #008383",
"Y  c #008787",
"T  c #008989",
"R  c #008B8B",
"E  c #008F8F",
"W  c #008799",
"Q  c #009191",
"!  c #009393",
"~  c #009999",
"^  c #009D9D",
"/  c #009F9F",
"(  c #009BA9",
")  c #00A3A3",
"_  c #00A7A7",
"`  c #00A9A9",
"'  c #00ABAB",
"]  c #00AFAF",
"[  c #00B1B1",
"{  c #00B3B3",
"}  c #00B5B5",
"|  c #00B7B7",
" . c #00B9B9",
".. c #00BDBD",
"X. c #3FBFBF",
"o. c #618485",
"O. c #7B9E9E",
"+. c #00C1C1",
"@. c #00C3C3",
"#. c #00C5C5",
"$. c #0BC2CC",
"%. c #0FC4CD",
"&. c #00CBCB",
"*. c #13C6CF",
"=. c #18C7D1",
"-. c #1EC9D3",
";. c #2CCACA",
":. c #2FCACA",
">. c #32CCCC",
",. c #35CDCD",
"<. c #39CFCF",
"1. c #23CBD4",
"2. c #2FCBD3",
"3. c #29CDD6",
"4. c #2CCED6",
"5. c #2ECFD7",
"6. c #3DD0D0",
"7. c #31D0D8",
"8. c #34D1D9",
"9. c #37D2DA",
"0. c #3DD4DB",
"q. c #3ADCDF",
"w. c #5CCFCF",
"e. c #42D2D2",
"r. c #46D3D3",
"t. c #4BD5D5",
"y. c #4ED7D7",
"u. c #42D5DD",
"i. c #47D7DE",
"p. c #49D5DB",
"a. c #50D7D7",
"s. c #5DD2D2",
"d. c #53D8D8",
"f. c #54D8D8",
"g. c #58D9D9",
"h. c #5CDBDB",
"j. c #58DFDF",
"k. c #61DDDD",
"l. c #65DDDD",
"z. c #69DFDF",
"x. c #7BDFDF",
"c. c #4CD8E0",
"v. c #51DAE1",
"b. c #54DBE2",
"n. c #59E4E7",
"m. c #6DE0E0",
"M. c #70E2E2",
"N. c #74E2E2",
"B. c #77E3E3",
"V. c #79E8E8",
/* pixels */
"X #.&.@.@.@..... .| { [ ] ' _ ` ",
"  O.x.V.N.N.M.z.z.z.k.h.g.f.y.^ ",
"  5 , w.n.b.b.c.i.u.0.9.7.4.i.( ",
"  5 ; > D P L J H N v c g a H q ",
"  4 - = : A K G V v l g a i M q ",
"  3 = # + o S C N l g a i t x 0 ",
"  2 # + $ Z B v g g i i t e z 9 ",
"  1 + % Z N v l h a y t e w k 8 ",
"  < & X.q.8.4.3.1.-.=.*.%.$.2.W ",
"  o.s.j.f.a.t.r.e.6.<.,.>.:.:.I ",
". ` | _ ) ^ ^ ~ ! ! E R Y Y U T "
};
