/* XPM */
static char *bw[] = {
/* columns rows colors chars-per-pixel */
"16 11 136 2",
"   c black",
".  c gray8",
"X  c #191919",
"o  c gray10",
"O  c gray12",
"+  c #202020",
"@  c gray14",
"#  c #252525",
"$  c #2A2A2A",
"%  c #2A2B2B",
"&  c gray17",
"*  c #2F2F2F",
"=  c gray19",
"-  c #353535",
";  c gray21",
":  c #3B3B3A",
">  c gray23",
",  c #3B3B3C",
"<  c #3F3F3F",
"1  c gray25",
"2  c #414141",
"3  c gray27",
"4  c #464646",
"5  c #494A49",
"6  c #4B4A4B",
"7  c #4B4B4B",
"8  c gray31",
"9  c #504F50",
"0  c #535353",
"q  c gray33",
"w  c #585858",
"e  c #6F6F6F",
"r  c #727273",
"t  c #767676",
"y  c #0083DD",
"u  c #0085DD",
"i  c #0087DF",
"p  c #0089DD",
"a  c #008BDD",
"s  c #0089DF",
"d  c #008DE1",
"f  c #008FE3",
"g  c #0091E5",
"h  c #0095E7",
"j  c #009BE9",
"k  c #009DEB",
"l  c #009FEB",
"z  c #00A1ED",
"x  c #00A5ED",
"c  c #00A9EF",
"v  c #00ADF1",
"b  c #00AFF3",
"n  c #00B1F5",
"m  c #00B3F7",
"M  c #00B7F5",
"N  c #00B5F7",
"B  c #00B7F9",
"V  c #00B9F9",
"C  c #00BBFB",
"Z  c #01BDFD",
"A  c #07BFFD",
"S  c #0BC1FD",
"D  c #11C3FD",
"F  c #11C3FF",
"G  c #13C3FF",
"H  c #15C5FF",
"J  c #25C9FF",
"K  c #37C2F1",
"L  c #3BC4F1",
"P  c #3FC6F2",
"I  c #44C7F3",
"U  c #48C9F4",
"Y  c #4CCBF5",
"T  c #55CBF2",
"R  c #57CBF2",
"E  c #51CDF6",
"W  c #55CEF6",
"Q  c #55CFF7",
"!  c #5ACDF3",
"~  c #5DCEF3",
"^  c #59D0F7",
"/  c #5AD1F8",
"(  c #5ED2F8",
")  c #5FD3F9",
"_  c #60CFF4",
"`  c #63D1F5",
"'  c #67D3F6",
"]  c #6AD4F7",
"[  c #6CD5F7",
"{  c #6FD6F7",
"}  c #63D4F9",
"|  c #63D4FA",
" . c #67D5FA",
".. c #68D6FA",
"X. c #6BD7FB",
"o. c #6FD8FC",
"O. c #72D7F7",
"+. c #73D8F8",
"@. c #75D8F8",
"#. c #76D9F9",
"$. c #73DAFD",
"%. c #76DBFD",
"&. c #7ADAF9",
"*. c #7EDCFA",
"=. c #7ADCFE",
"-. c #7CDEFE",
";. c #7FDFFE",
":. c #81DDFB",
">. c #82DDFB",
",. c #84DEFC",
"<. c #88DFFC",
"1. c #8AE1FD",
"2. c #8EE2FE",
"3. c #90E2FE",
"4. c #93E4FE",
"5. c #94E5FE",
"6. c #95E4FF",
"7. c #96E5FF",
"8. c #97E5FF",
"9. c #CDCDCD",
"0. c #D5D5D5",
"q. c gray93",
"w. c #F1F1F1",
"e. c gray95",
"r. c #F3F3F3",
"t. c #F4F4F4",
"y. c gray96",
"u. c #F6F6F6",
"i. c gray97",
"p. c #F8F8F8",
"a. c #F9F9F9",
"s. c gray98",
"d. c #FBFBFB",
"f. c gray99",
"g. c #FDFDFD",
"h. c #FEFEFE",
/* pixels */
"J H H H F S A Z C C N n b b x c ",
"F 8.8.8.3.3.3.1.<.,.:.*.&.@.O.z ",
"F 8.-.-.=.%.$.o.X. .' ( ^ W ] j ",
"w.h.h.h.h.f.f.f.d.p.p.u.u.u.u.0.",
"  t w q 8 5 4 1 , ; * & # + <   ",
"  r 0 8 7 4 1 : ; = & @ O o :   ",
"  e 8 5 4 1 : - * & @ O o . ;   ",
"q.f.d.d.d.a.a.u.u.u.u.u.w.w.w.9.",
"B ,.X.| ( ^ W E Y I I I L K R i ",
"n :.*.&.@.+.O.' ' ` _ ~ R R R y ",
"M n b c x z k j h g f f i a u a "
};
