/* XPM */
static char *by[] = {
/* columns rows colors chars-per-pixel */
"16 11 146 2",
"   c #002B00",
".  c #002D00",
"X  c #002F00",
"o  c #003300",
"O  c #003700",
"+  c #003D00",
"@  c #004100",
"#  c #004700",
"$  c #004D00",
"%  c #005100",
"&  c #005700",
"*  c #005D00",
"=  c #E30000",
"-  c #E50000",
";  c #E70000",
":  c #E90000",
">  c #EB0000",
",  c #ED0000",
"<  c #EF0000",
"1  c #F10000",
"2  c #F30000",
"3  c #F50000",
"4  c #F70000",
"5  c #F90000",
"6  c #FB0000",
"7  c #FD0000",
"8  c red",
"9  c #F21414",
"0  c #F31919",
"q  c #F31A1A",
"w  c #F41F1F",
"e  c #F42020",
"r  c #F52424",
"t  c #F52525",
"y  c #F52626",
"u  c #F62A2A",
"i  c #F62B2B",
"p  c #F62C2C",
"a  c #F72F2F",
"s  c #F73030",
"d  c #F73131",
"f  c #F43636",
"g  c #F83535",
"h  c #F83636",
"j  c #F83736",
"k  c #F83737",
"l  c #FB353B",
"z  c #F43B3B",
"x  c #F53F3F",
"c  c #F93B3A",
"v  c #F93B3B",
"b  c #F93B3C",
"n  c #F93C3C",
"m  c #F93C3D",
"M  c #F64444",
"N  c #FA4040",
"B  c #FA4141",
"V  c #FA4142",
"C  c #FA4242",
"Z  c #FB4545",
"A  c #FB4646",
"S  c #FB4747",
"D  c #F74949",
"F  c #F74E4E",
"G  c #FB4A49",
"H  c #FC4A4B",
"J  c #FC4B4B",
"K  c #FC4C4C",
"L  c #FC4F4F",
"P  c #FD4F50",
"I  c #EF5B53",
"U  c #F85353",
"Y  c #FD5151",
"T  c #F95757",
"R  c #FD5454",
"E  c #FD5757",
"W  c #FE5959",
"Q  c #FA5C5C",
"!  c #FE5C5C",
"~  c #FF5F5F",
"^  c #FB6060",
"/  c #FE6161",
"(  c #FC6565",
")  c #FC6969",
"_  c #FD6D6D",
"`  c #E97066",
"'  c #FD7071",
"]  c #F87775",
"[  c #FE7474",
"{  c #FE7777",
"}  c #FE7979",
"|  c #FF7E7E",
" . c #0B9C0B",
".. c #0F9E0E",
"X. c #189810",
"o. c #1D9A14",
"O. c #219D19",
"+. c #13A013",
"@. c #18A219",
"#. c #1EA51E",
"$. c #27A01F",
"%. c #2CA324",
"&. c #23A823",
"*. c #29AA29",
"=. c #2CA82C",
"-. c #2FA92F",
";. c #2EAD2E",
":. c #31A52A",
">. c #37A72F",
",. c #3AA732",
"<. c #32AA32",
"1. c #35AD35",
"2. c #3CAA34",
"3. c #39AE39",
"4. c #34B034",
"5. c #3AB33A",
"6. c #3DB03D",
"7. c #3FB53F",
"8. c #41AD3A",
"9. c #47B03F",
"0. c #42B342",
"q. c #46B546",
"w. c #4CB245",
"e. c #4BB74B",
"r. c #50B950",
"t. c #54BC55",
"y. c #58BE58",
"u. c #FDA3A3",
"i. c #FEA5A5",
"p. c #FFB3B3",
"a. c #FFDFDF",
"s. c #CBE3CB",
"d. c #F5E7E9",
"f. c #F9E9EB",
"g. c #FCE9EA",
"h. c #FDEBEB",
"j. c #FEECEC",
"k. c #FEEDED",
"l. c #E7F3E7",
"z. c #F7F4F2",
"x. c #FAF3F2",
"c. c #FFF1F1",
"v. c #FEF4F4",
"b. c #FEF5F5",
"n. c #FFF5F5",
"m. c #FFF9F9",
/* pixels */
"n.~ a.8 8 8 6 8 6 4 4 4 1 1 < < ",
"8 m.| } [ [ [ _ ) ( ^ Q T U F : ",
"v.p.k.~ W Y Y K A B m k d p D : ",
"8 v./ E E Y J A B m k d p y M ; ",
"h.i.h.R L G A B b g s i y e x ; ",
"8 n.E L H A N v g s i y w q z ; ",
"h.u.h.G A V b g s i y e q 9 f = ",
"l x.I w.8.8.2.,.:.%.O.O.o.X.,.. ",
"h.] l.7.5.4.;.*.&.$.@.+... .-.o ",
"4 z.` y.t.r.e.q.0.6.3.1.<.-.=.. ",
"d.: s.* & % $ # @ + + O . . . . "
};
