/* XPM */
static char *bz[] = {
/* columns rows colors chars-per-pixel */
"16 11 156 2",
"   c #C30000",
".  c #C70000",
"X  c #CB0000",
"o  c #CF0000",
"O  c #D10000",
"+  c #D30000",
"@  c #DD0000",
"#  c #E10000",
"$  c #E50000",
"%  c #E70000",
"&  c #E90000",
"*  c #EB0000",
"=  c #ED0000",
"-  c #EF0000",
";  c #F10000",
":  c #F50000",
">  c #F90000",
",  c #0000A7",
"<  c #0000B1",
"1  c #0000C9",
"2  c #0000CB",
"3  c MediumBlue",
"4  c #0000CF",
"5  c #0000D1",
"6  c #0000D7",
"7  c #0001DB",
"8  c #001FDD",
"9  c #0017F1",
"0  c #001FF1",
"q  c #0025F1",
"w  c #002BF3",
"e  c #002FF5",
"r  c #0033F5",
"t  c #3C5ED9",
"y  c #1351E7",
"u  c #1753E5",
"i  c #1753E7",
"p  c #1D57E7",
"a  c #1C57E9",
"s  c #235BEA",
"d  c #225CE8",
"f  c #2860E9",
"g  c #2861EB",
"h  c #2E65EB",
"j  c #2D64ED",
"k  c #376AE4",
"l  c #366AEA",
"z  c #3369EC",
"x  c #3469EE",
"c  c #396DE9",
"v  c #3D6FE9",
"b  c #396DEF",
"n  c #3677E9",
"m  c #3E71F0",
"M  c #4060DA",
"N  c #4263DB",
"B  c #4565DC",
"V  c #5B79DF",
"C  c #6175DE",
"Z  c #4173EB",
"A  c #4476E9",
"S  c #4676E8",
"D  c #4676EC",
"F  c #4B7AED",
"G  c #417BF4",
"H  c #467FF5",
"J  c #507EF0",
"K  c #6579E0",
"L  c #6A7DE1",
"P  c #76ACBB",
"I  c #728DD9",
"U  c #7590D9",
"Y  c #70A4C7",
"T  c #4A87F2",
"R  c #4D86F1",
"E  c #4C83F5",
"W  c #4C83F6",
"Q  c #5385F2",
"!  c #5186F6",
"~  c #5187F6",
"^  c #568AF7",
"/  c #5A8AF0",
"(  c #578AF8",
")  c #5B8DF8",
"_  c #5E90F9",
"`  c #5E91F9",
"'  c #5F91F9",
"]  c #6681E5",
"[  c #6E80E1",
"{  c #6084EC",
"}  c #6588ED",
"|  c #698CED",
" . c #6D8FEE",
".. c #798FE7",
"X. c #6192F6",
"o. c #6D92F0",
"O. c #6293F9",
"+. c #6393F9",
"@. c #6197F9",
"#. c #6696FA",
"$. c #6C99F8",
"%. c #709CF8",
"&. c #759FF9",
"*. c #7DA2F6",
"=. c #78A2F9",
"-. c #7BA4FA",
";. c #7FA6FB",
":. c #B2A08E",
">. c #93A0B3",
",. c #B4ADAB",
"<. c #B3BDA6",
"1. c #88C7AE",
"2. c #8ED5BF",
"3. c #BCC9AF",
"4. c #BED5BE",
"5. c #B1F4A9",
"6. c #B1F4B2",
"7. c #BAF9B6",
"8. c #B9F5BD",
"9. c #C9F5BE",
"0. c #83ABDE",
"q. c #87B0D6",
"w. c #A6B4C0",
"e. c #8A9DE2",
"r. c #8F9FE6",
"t. c #8497EC",
"y. c #849BEE",
"u. c #869EEE",
"i. c #889EEF",
"p. c #80A8FB",
"a. c #9FCCC6",
"s. c #92D6C6",
"d. c #94DBC0",
"f. c #9EDEC1",
"g. c #A1D5D7",
"h. c #A2E2C1",
"j. c #AFEECC",
"k. c #B7F1CF",
"l. c #DDD5D3",
"z. c #D2F5C8",
"x. c #D5FCCD",
"c. c #D8FACE",
"v. c #D4E9D2",
"b. c #D9F5D3",
"n. c #DEF3DA",
"m. c #E5FBDE",
"M. c #DDE2E1",
"N. c #E3E5E3",
"B. c #E1E6E2",
"V. c #E5ECE4",
"C. c #F3EDE5",
"Z. c #E7FCE4",
"A. c #EAF3EC",
"S. c #F0F1F0",
"D. c #F5F4F5",
"F. c #F9F9F9",
/* pixels */
"> > > > > : ; & & - ; - - & & & ",
"8 i.i.u.y.*.t.r.e...o.L L K C < ",
"r ;.#.+.+.@.g.k.j.s.R m b x J 6 ",
"r ;.+.` X.8.Z.A.V.n.6.A z h F 5 ",
"r -.) ) 0.x.C.3.<.l.9.Y j g D 4 ",
"w -.) ^ a.m.F.,.:.D.b.1.g d A 4 ",
"q &.^ ! q.c.S.w.>.B.z.P d p v 2 ",
"0 %.! E Q 7.v.N.M.4.5.k p u c 2 ",
"9 $.E E H T 2.h.f.2.n a i y l 2 ",
"7  .} } { / ] U I V S B N M t , ",
"& & % % # @ + .   X + + + o o o "
};
