/* XPM */
static char *catalonia[] = {
/* columns rows colors chars-per-pixel */
"16 11 137 2",
"   c #E71802",
".  c #E61B06",
"X  c #E61B0B",
"o  c #F1380B",
"O  c #F13A0E",
"+  c #EF2511",
"@  c #F23E13",
"#  c #F23B14",
"$  c #F43E20",
"%  c #F34019",
"&  c #F34319",
"*  c #F0441B",
"=  c #F4451F",
"-  c #F4471E",
";  c #E55918",
":  c #E65A19",
">  c #E75B1A",
",  c #E85C1B",
"<  c #F54325",
"1  c #F34823",
"2  c #F54C23",
"3  c #F54924",
"4  c #F6482B",
"5  c #F64E2A",
"6  c #F4492C",
"7  c #F65029",
"8  c #F6532C",
"9  c #F7532F",
"0  c #F7542E",
"q  c #F74D30",
"w  c #F85236",
"e  c #F75831",
"r  c #F65C37",
"t  c #F85934",
"y  c #F85835",
"u  c #F85C37",
"i  c #F9563C",
"p  c #F95C3A",
"a  c #F95E3A",
"s  c #F9613D",
"d  c #FA623F",
"f  c #FA5B41",
"g  c #FB5F46",
"h  c #F76043",
"j  c #FA6642",
"k  c #FB6A47",
"l  c #FA634D",
"z  c #FC6E4C",
"x  c #FD7151",
"c  c #FD7554",
"v  c #FE7859",
"b  c #FE7B5C",
"n  c #D0A409",
"m  c #D1A50A",
"M  c #D3A70C",
"N  c #D6AA0F",
"B  c #D7AB10",
"V  c #D9AD12",
"C  c #DBAF14",
"Z  c #DDB116",
"A  c #DEB217",
"S  c #E0B419",
"D  c #E3B71C",
"F  c #E5B91E",
"G  c #E8BC21",
"H  c #EBBF24",
"J  c #E4EC10",
"K  c #E6ED15",
"L  c #E3EB18",
"P  c #E7EE1A",
"I  c #E5EB1C",
"U  c #E6EC1F",
"Y  c #E8EF1F",
"T  c #F3E41A",
"R  c #F4E61F",
"E  c #ECC025",
"W  c #EEC227",
"Q  c #EFC328",
"!  c #F0C429",
"~  c #F1C52A",
"^  c #F3C72C",
"/  c #F4C82D",
"(  c #F5C92E",
")  c #F6CA2F",
"_  c #F7CB30",
"`  c #F8CC31",
"'  c #F9CD32",
"]  c #FACE33",
"[  c #FBCF34",
"{  c #FCD035",
"}  c #E6ED22",
"|  c #E8EE27",
" . c #E9EE2B",
".. c #F5E725",
"X. c #F3E628",
"o. c #F6E92B",
"O. c #EAF025",
"+. c #EAF126",
"@. c #EBF12B",
"#. c #EBF22C",
"$. c #F7EA30",
"%. c #F8EB36",
"&. c #F9EC3B",
"*. c #EAF030",
"=. c #EBF133",
"-. c #ECF230",
";. c #EDF332",
":. c #EBF135",
">. c #EEF335",
",. c #EEF437",
"<. c #ECF23A",
"1. c #EFF43B",
"2. c #ECF33E",
"3. c #EDF33F",
"4. c #EFF53D",
"5. c #FAEE40",
"6. c #EEF443",
"7. c #EEF445",
"8. c #EFF548",
"9. c #EFF549",
"0. c #F0F540",
"q. c #F0F642",
"w. c #F1F747",
"e. c #F0F64D",
"r. c #F2F74C",
"t. c #F0F64E",
"y. c #F1F652",
"u. c #F2F756",
"i. c #F3F851",
"p. c #F3F955",
"a. c #F3F85B",
"s. c #F4F860",
"d. c #F5F963",
"f. c #F5FA67",
"g. c #F6FA6A",
"h. c #F6FB6D",
"j. c #F6FB6F",
/* pixels */
"{ { { { { ] ` _ ) ^ Q Q E H G F ",
"] j.j.j.g.f.d.a.a.u.y.r.9.6.2.D ",
", b b b b x x z k j s p e 8 r + ",
") p.p.p.p.i.r.w.6.4.,.-.#.+.=.Z ",
"> l l l l l g f i w q 4 < $ 6 X ",
") &.5.5.5.5.5.&.%.$.o...R T X.B ",
"> h h h h h p y 9 5 2 1 % # 1 . ",
"~ 6.4.0.0.1.>.-.@.| U P K J U M ",
"> h j s p t 0 7 2 - % @ O o %   ",
"W t.9.9.7.2.<.,.#. .| } U I L n ",
"E E E G F D A A C V V N M m n n "
};
