/* XPM */
static char *cc[] = {
/* columns rows colors chars-per-pixel */
"16 11 151 2",
"   c black",
".  c #000500",
"X  c #000900",
"o  c #000B00",
"O  c #000F00",
"+  c #001100",
"@  c #001700",
"#  c #001900",
"$  c #001D00",
"%  c #002300",
"&  c #002500",
"*  c #002B00",
"=  c #003100",
"-  c #003700",
";  c #003D00",
":  c #003F00",
">  c #004300",
",  c #004500",
"<  c #004900",
"1  c #004B00",
"2  c #004D00",
"3  c #005100",
"4  c #005300",
"5  c #005500",
"6  c #005700",
"7  c #005900",
"8  c #005D03",
"9  c #004F19",
"0  c #005D17",
"q  c #0B7A38",
"w  c #107D3B",
"e  c #137F3E",
"r  c #147F3F",
"t  c #4E9232",
"y  c #188243",
"u  c #198243",
"i  c #198244",
"p  c #1A8444",
"a  c #1E8547",
"s  c #1F8648",
"d  c #1F8748",
"f  c #24894D",
"g  c #25894D",
"h  c #258B4E",
"j  c #268B4E",
"k  c #2E8C4B",
"l  c #2A8A52",
"z  c #2C8A51",
"x  c #2B8E53",
"c  c #2C8E53",
"v  c #2F8D55",
"b  c #318F57",
"n  c #388E50",
"m  c #338F58",
"M  c #3C9354",
"N  c #3E9256",
"B  c #349359",
"V  c #36915B",
"C  c #37955D",
"Z  c #39945D",
"A  c #3A965E",
"S  c #3D9760",
"D  c #3B9860",
"F  c #3C9861",
"G  c #3D9961",
"H  c #3F9962",
"J  c #5C9A42",
"K  c #4C9B52",
"L  c #43965A",
"P  c #46985B",
"I  c #44985E",
"U  c #4C9D5E",
"Y  c #659E4D",
"T  c #60A251",
"R  c #6AA453",
"E  c #6FA658",
"W  c #7CAD5F",
"Q  c #429765",
"!  c #409963",
"~  c #429B66",
"^  c #449C67",
"/  c #459D67",
"(  c #4D9C63",
")  c #469C68",
"_  c #479D6A",
"`  c #499E6A",
"'  c #4B9A6F",
"]  c #499F6C",
"[  c #4B9E6C",
"{  c #529F68",
"}  c #559F6F",
"|  c #549D79",
" . c #4FA066",
".. c #49A06C",
"X. c #4EA16F",
"o. c #50A06F",
"O. c #57A16D",
"+. c #57A26C",
"@. c #5AA76F",
"#. c #4FA270",
"$. c #54A474",
"%. c #59A073",
"&. c #59A571",
"*. c #58A677",
"=. c #5DA97B",
"-. c #64AE70",
";. c #6CAD71",
":. c #61AC7F",
">. c #D1BE27",
",. c #C2C03E",
"<. c #CFC33C",
"1. c #E6CC3E",
"2. c #8CAA47",
"3. c #93B051",
"4. c #A8BA4D",
"5. c #81B36D",
"6. c #81B576",
"7. c #87B976",
"8. c #B9C06B",
"9. c #ADC472",
"0. c #CAC448",
"q. c #D4C441",
"w. c #DAC941",
"e. c #DACA4F",
"r. c #CFC952",
"t. c #E1CD4A",
"y. c #ECD24F",
"u. c #E2CF51",
"i. c #E3D154",
"p. c #EAD455",
"a. c #FEDD58",
"s. c #FDED54",
"d. c #FEEE59",
"f. c #E2D365",
"g. c #FEF17D",
"h. c #FFF67E",
"j. c #5FA283",
"k. c #65AE82",
"l. c #66AE83",
"z. c #69B085",
"x. c #6AB187",
"c. c #6DB389",
"v. c #6FB38A",
"b. c #74B38F",
"n. c #70B58C",
"m. c #72B48F",
"M. c #77B591",
"N. c #ACCC8A",
"B. c #B3CD8D",
"V. c #F3E284",
"C. c #FFE982",
/* pixels */
"8 8 8 8 7 6 4 2 < > : - 5 * & $ ",
"8 B.h.V.M.b.n.v.x.k.z.;.f.5.o.@ ",
"8 C.j.7.d.| &.} _ ^ F C T c [ O ",
"0 g.9.8.s.%.' p.t.F 3.B c j W X ",
"9 N.a.s.-.O.i.r.F 4.w.2.j t u.* ",
"4 m.;.@.O.{ y.U ! I >.j f u E   ",
"4 v.#.]  .( t.0.N l f s a >.D   ",
"< x.../ ! I L 1.<.f s i r q m   ",
", k./ H A B M n k s i e t q v   ",
": :.=.*.$.X.[ _ Q F Z R q.Y z   ",
"- = * % $ @ + X .       #       "
};
