/* XPM */
static char *cf[] = {
/* columns rows colors chars-per-pixel */
"16 11 158 2",
"   c #001D00",
".  c #002300",
"X  c #005A00",
"o  c #005E00",
"O  c #0C6D0C",
"+  c #D80000",
"@  c #DA0000",
"#  c #F00000",
"$  c #F30000",
"%  c #F52323",
"&  c #F62929",
"*  c #F62A2A",
"=  c #F72F2F",
"-  c #F83535",
";  c #F83636",
":  c #F93B3B",
">  c #F93B3C",
",  c #F64242",
"<  c #F74646",
"1  c #FA4141",
"2  c #FA4142",
"3  c #FB4747",
"4  c #FC4C4C",
"5  c #FC6969",
"6  c #FD6D6D",
"7  c #109610",
"8  c #149314",
"9  c #149914",
"0  c #199519",
"q  c #199619",
"w  c #1F981F",
"e  c #3F8F00",
"r  c #249B24",
"t  c #2A9E2A",
"y  c #33A532",
"u  c #36A236",
"i  c #34AF34",
"p  c #3AB23A",
"a  c #3BB23A",
"s  c #74BC00",
"d  c #40B43F",
"f  c #4AA74A",
"g  c #40B540",
"h  c #45B745",
"j  c #49B949",
"k  c #49BA49",
"l  c #4FBC4F",
"z  c #6AC76A",
"x  c #6FC86F",
"c  c #BBBB02",
"v  c #AAD50B",
"b  c #ACD60E",
"n  c #AED713",
"m  c #B0DA19",
"M  c #B3DC1E",
"N  c #B6DA2F",
"B  c #BAE12E",
"V  c #BCE234",
"C  c #BFE23A",
"Z  c #C2C200",
"A  c #C4C400",
"S  c #CCCC00",
"D  c #CDCD00",
"F  c #CECE00",
"G  c #D1D100",
"H  c #D3D300",
"J  c #D4D400",
"K  c #D6D600",
"L  c #DDDD00",
"P  c #DFDF00",
"I  c #DFE200",
"U  c #C1E43F",
"Y  c #F2F22C",
"T  c #F2F22F",
"R  c #F2F232",
"E  c #F3F335",
"W  c #F4F439",
"Q  c #F5F53D",
"!  c #C3E544",
"~  c #F7F74B",
"^  c #F8F850",
"/  c #F9F955",
"(  c #F9F958",
")  c #FAFA5D",
"_  c #CEEA66",
"`  c #FBFB62",
"'  c #EDED7E",
"]  c #FFFF7F",
"[  c #0000CE",
"{  c #000CCE",
"}  c #0010D3",
"|  c #0016D7",
" . c #001CD9",
".. c #001FDC",
"X. c #0025DE",
"o. c #092FD8",
"O. c #0024E3",
"+. c #0029E1",
"@. c #0230E7",
"#. c #053CE7",
"$. c #0A3BE8",
"%. c #0A3CE9",
"&. c #0A3EE9",
"*. c #0C3EE8",
"=. c #0C3EE9",
"-. c #5D82F1",
";. c #6286F2",
":. c #6689F4",
">. c #6B8DF5",
",. c #6F90F6",
"<. c #7493F2",
"1. c #779EF2",
"2. c #7A9FF4",
"3. c #7B99F8",
"4. c #7D9CF9",
"5. c #7FA3F5",
"6. c #7FA1F9",
"7. c #B7B7B7",
"8. c #87C887",
"9. c #8BCA8B",
"0. c #8ECB8E",
"q. c #98CF98",
"w. c #90D191",
"e. c #94D394",
"r. c #9DD89D",
"t. c #A0DAA1",
"y. c #A3D8A3",
"u. c #A6DAA6",
"i. c #A9DBA9",
"p. c #B9E2B9",
"a. c #EDED8F",
"s. c #E4E499",
"d. c #82A5F6",
"f. c #85A8F7",
"g. c #81A0F9",
"h. c #8AA5F8",
"j. c #93ACFA",
"k. c #94B3FA",
"l. c #97B5FA",
"z. c #9CB3FB",
"x. c gray77",
"c. c #E4E4E4",
"v. c #E4E4E9",
"b. c #F4F4F4",
"n. c #F4F4F5",
"m. c gray96",
"M. c #F5F5F6",
"N. c #F6F6F6",
"B. c gray97",
"V. c #F8F8F8",
"C. c #F9F9F9",
"Z. c #FBFBFB",
"A. c #FBFBFE",
"S. c gray99",
"D. c #FCFCFD",
"F. c #FDFCFD",
"G. c #FDFDFD",
"H. c #FEFEFE",
/* pixels */
"o.*.c %.%.#.@.$ $ O.+.X... .| } ",
"*.s.] a.k.k.j.6 5 h.f.d.5.2.1.{ ",
"$.z.' g.5.4.3.4 3 ,.>.:.;.-.<.[ ",
"v.H.A.A.A.F.F.3 2 Z.V.B.B.b.B.x.",
"c.H.H.H.H.Z.F.2 > V.B.B.b.b.b.7.",
"f p.i.u.y.t.r.> ; e.w.0.9.8.q.O ",
"o x l j h g a ; = t r w 0 8 u   ",
"X z j h a a i = * r w 0 9 7 y . ",
"s _ ! ! C V B * % M m n b v N e ",
"Z ` ) ( / ~ ~ < , Q W E R T T S ",
"Z A D J I P L + + K H H D S S S "
};
