/* XPM */
static char *ch[] = {
/* columns rows colors chars-per-pixel */
"11 11 64 1",
"  c #E30000",
". c #E50000",
"X c #E70000",
"o c #E90000",
"O c #EB0000",
"+ c #ED0000",
"@ c #EF0000",
"# c #F10000",
"$ c #F30000",
"% c #F50000",
"& c #F70000",
"* c #F90000",
"= c #FB0000",
"- c #FD0000",
"; c red",
": c #F52323",
"> c #F62929",
", c #F62A2A",
"< c #F72F2F",
"1 c #F53D3D",
"2 c #FA3F3F",
"3 c #F64242",
"4 c #F74646",
"5 c #F74747",
"6 c #FA4142",
"7 c #FA4444",
"8 c #FB4545",
"9 c #FB4747",
"0 c #FB4949",
"q c #FC4C4C",
"w c #F75050",
"e c #F85758",
"r c #F95858",
"t c #F95859",
"y c #F85B5B",
"u c #F95B5B",
"i c #FA5B5B",
"p c #FE5959",
"a c #FA5D5D",
"s c #FE5C5C",
"d c #FE5F5F",
"f c #FB6060",
"g c #FB6162",
"h c #FC6565",
"j c #FC6666",
"k c #FC6969",
"l c #FC6A6A",
"z c #FD6D6D",
"x c #FD7272",
"c c #FD7575",
"v c #FE7979",
"b c #FE7A7A",
"n c #FF7B7A",
"m c #FF7B7B",
"M c gray97",
"N c #F8F8F8",
"B c #F9F9F9",
"V c gray98",
"C c #FBFBFB",
"Z c #FBFCFB",
"A c gray99",
"S c #FDFCFD",
"D c #FDFDFD",
"F c #FEFEFE",
/* pixels */
";;;;;==;==%",
";mmcmmczkh%",
";mdsDDDq9g%",
";mspDDZ97t#",
"=mDDDACCNa@",
";mDDDCCNNyo",
"=xACCCNNMw@",
"=l07NCN<>9.",
"=j72CMM>:3.",
"%gartew431.",
"%##@@@oo.. "
};
