/* XPM */
static char *ci[] = {
/* columns rows colors chars-per-pixel */
"16 11 120 2",
"   c #ED5300",
".  c #EF5B00",
"X  c #F16300",
"o  c #F36700",
"O  c #F76F00",
"+  c #F57500",
"@  c #F97700",
"#  c #FB7B00",
"$  c #FD7F00",
"%  c #008100",
"&  c #008300",
"*  c #008700",
"=  c #008900",
"-  c #008B00",
";  c #008F00",
":  c #009300",
">  c #009700",
",  c #009B00",
"<  c #009D00",
"1  c #00A700",
"2  c #00A900",
"3  c #00AB00",
"4  c #00AF00",
"5  c #00B100",
"6  c #0BC20B",
"7  c #0FC40E",
"8  c #10C410",
"9  c #13C513",
"0  c #14C614",
"q  c #19C719",
"w  c #19C819",
"e  c #1AC81A",
"r  c #1FC91F",
"t  c #1FCA1F",
"y  c #20CA20",
"u  c #25CB25",
"i  c #25CC25",
"p  c #26CD26",
"a  c #2BCD2B",
"s  c #2BCE2B",
"d  c #2CCA2C",
"f  c #2FCA2F",
"g  c #2FCB2F",
"h  c #2CCE2C",
"j  c #31CF31",
"k  c #32CC32",
"l  c #33CC32",
"z  c #35CD35",
"x  c #36CD36",
"c  c #3BCF3B",
"v  c #31D031",
"b  c #37D137",
"n  c #3FD23F",
"m  c #44D344",
"M  c #49D549",
"N  c #4ED74E",
"B  c #53D853",
"V  c #58D957",
"C  c #5CDA5C",
"Z  c #FD8300",
"A  c #FF8500",
"S  c #FD8700",
"D  c #FF8700",
"F  c #FF8900",
"G  c #FF9100",
"H  c #F9AA3A",
"J  c #FAAD3F",
"K  c #FAAE3F",
"L  c #FAB144",
"P  c #FBB045",
"I  c #FBB145",
"U  c #FCB34B",
"Y  c #FBB449",
"T  c #FCB64F",
"R  c #FCB74F",
"E  c #FDB550",
"W  c #F9B555",
"Q  c #FDB754",
"!  c #FDB953",
"~  c #FDB954",
"^  c #F9B958",
"/  c #FEBA59",
"(  c #FEBB59",
")  c #FEBC58",
"_  c #FABC5D",
"`  c #FEBD5C",
"'  c #FEBF5F",
"]  c #FBBE62",
"[  c #FCC066",
"{  c #FCC36A",
"}  c #FDC46F",
"|  c #FEC673",
" . c #FEC777",
".. c #FEC876",
"X. c #FEC879",
"o. c #FFCA7A",
"O. c #FFCA7B",
"+. c gray82",
"@. c LightGray",
"#. c #D7D7D7",
"$. c gray85",
"%. c #DDDDDD",
"&. c #E9E9E9",
"*. c gray92",
"=. c gray93",
"-. c #EFEFEF",
";. c #EFEFF1",
":. c #F3F3F3",
">. c #F4F4F4",
",. c gray96",
"<. c #F6F6F6",
"1. c gray97",
"2. c #F8F8F8",
"3. c #F9F9F9",
"4. c gray98",
"5. c #FBFBFB",
"6. c gray99",
"7. c #FDFDFD",
"8. c #FDFDFE",
"9. c #FEFEFE",
/* pixels */
"G F F A Z ;.-.=.=.*.&.5 4 3 1 3 ",
"A O.O.O. .9.7.7.5.7.5.C V B N , ",
"A O.' ` / 7.7.5.5.5.3.b k h M , ",
"F O.' ~ Q 9.5.5.5.3.2.k s p m > ",
"A ..~ ~ Q 6.5.3.3.3.>.s p t n > ",
"Z | ~ T Y 5.5.2.2.2.2.u t w c ; ",
"Z } T Y P 3.3.2.>.>.>.y w 0 x = ",
"# { Y L L 2.2.2.5.>.>.q 0 8 k * ",
"@ ] L L H 2.5.>.>.>.:.8 8 6 f * ",
"O ] _ W W 5.>.2.>.>.>.z k f d % ",
"+ o X .   %.$.#.$.@.@.= * = % = "
};
