/* XPM */
static char *ck[] = {
/* columns rows colors chars-per-pixel */
"16 11 148 2",
"   c black",
".  c #000003",
"X  c #000009",
"o  c #00000B",
"O  c #000011",
"+  c #000019",
"@  c #00001F",
"#  c #000023",
"$  c #000025",
"%  c #00002B",
"&  c #000031",
"*  c #000037",
"=  c #000039",
"-  c #00003F",
";  c #000045",
":  c #00004B",
">  c #00196B",
",  c #002977",
"<  c #203A76",
"1  c #253D79",
"2  c #571D59",
"3  c #591F5D",
"4  c #29417B",
"5  c #2A427C",
"6  c #2D467E",
"7  c #2E467F",
"8  c #2F477F",
"9  c #3E517F",
"0  c #D31B19",
"q  c #891D43",
"w  c #8D1D41",
"e  c #8B3155",
"r  c #A5536D",
"t  c #BB677B",
"y  c #D86F73",
"u  c #E36C6B",
"i  c #E57372",
"p  c #E27879",
"a  c #EA7D7A",
"s  c #373781",
"d  c #324982",
"f  c #324B82",
"g  c #344B83",
"h  c #374E85",
"j  c #374E86",
"k  c #385086",
"l  c #395086",
"z  c #3A5187",
"x  c #3C5289",
"c  c #3C5389",
"v  c #3D5389",
"b  c #3E5488",
"n  c #3D558A",
"m  c #3E558A",
"M  c #3F558A",
"N  c #445683",
"B  c #40568A",
"V  c #41578A",
"C  c #41578C",
"Z  c #42578C",
"A  c #42588D",
"S  c #43598D",
"D  c #44598C",
"F  c #445A8D",
"G  c #475C8E",
"H  c #4A5C88",
"J  c #485D8F",
"K  c #465C90",
"L  c #475C90",
"P  c #485E91",
"I  c #4A5F92",
"U  c #6F578F",
"Y  c #4F618B",
"T  c #4B6090",
"R  c #4B6093",
"E  c #4C6092",
"W  c #4C6193",
"Q  c #4E6293",
"!  c #4D6194",
"~  c #4E6394",
"^  c #4F6395",
"/  c #506594",
"(  c #526695",
")  c #516596",
"_  c #516597",
"`  c #516697",
"'  c #536898",
"]  c #576A99",
"[  c #556A9A",
"{  c #556A9B",
"}  c #566A9A",
"|  c #5A6D9A",
" . c #5A6E9C",
".. c #5B6E9C",
"X. c #5B6E9D",
"o. c #5F719E",
"O. c #6B6197",
"+. c #60719E",
"@. c #5F72A0",
"#. c #6375A0",
"$. c #6475A1",
"%. c #6377A5",
"&. c #6779A4",
"*. c #687AA4",
"=. c #6B7DA6",
"-. c #6B7DA7",
";. c #6C7EA7",
":. c #707FA1",
">. c #826995",
",. c #846D99",
"<. c #8F769B",
"1. c #AF7B95",
"2. c #947DA3",
"3. c #6F80A9",
"4. c #7081A9",
"5. c #7384AB",
"6. c #7585AC",
"7. c #7989AE",
"8. c #7C8CB1",
"9. c #868BB3",
"0. c #908EB7",
"q. c #C78696",
"w. c #C58999",
"e. c #D99097",
"r. c #E08587",
"t. c #EC8583",
"y. c #E18689",
"u. c #E89596",
"i. c #D8A4AE",
"p. c #D4ABB7",
"a. c #DAABB4",
"s. c #F0AAA8",
"d. c #F0ACAB",
"f. c #E6B9BF",
"g. c #93A0C7",
"h. c #A4ACCA",
"j. c #D4BAC8",
"k. c #DFBFC8",
"l. c #C3C3C3",
"z. c #DDD3DE",
"x. c #E6C3CA",
"c. c #E8CED4",
"v. c #F1F1F1",
"b. c #F3F3F3",
"n. c #F4F4F4",
"m. c #F6F6F6",
"M. c gray97",
"N. c #F8F8F8",
/* pixels */
"t U , q w > 2 r # - * % % $ # + ",
"s x.z.a.i.j.c.h.:.5.3.-.&.$.o.O ",
"0 u.t.i u a p y Y } ! R m.M | X ",
"e f.s.r.y.d.e.1.H ! N.F M z m.. ",
"O.k.0.w.q.g.p.2.N K S M z g ` . ",
"3 9.%.,.>.} -.<.9 m.M h f 8 Y l.",
": 8.@. .} ` ! K S M z f 8 4 K . ",
"; 7. .} _ ! K Z c h n.8 4 1 b.. ",
"- 6.} ` R K V c h f 6 4 v.< V . ",
"= 4.;.*.$.+.| ] ` W Y G A M b . ",
"& % $ @ + O X . . . . . . . . . "
};
