/* XPM */
static char *cl[] = {
/* columns rows colors chars-per-pixel */
"16 11 121 2",
"   c #DD0000",
".  c #DF0000",
"X  c #E10000",
"o  c #E30000",
"O  c #E50000",
"+  c #E70000",
"@  c #E90000",
"#  c #EB0000",
"$  c #ED0000",
"%  c #EF0000",
"&  c #F10000",
"*  c #F30000",
"=  c #F50000",
"-  c #F70000",
";  c #F90000",
":  c #FB0000",
">  c #FD0000",
",  c #F10B0B",
"<  c #F10F0E",
"1  c #F21010",
"2  c #F21313",
"3  c #F21414",
"4  c #F31919",
"5  c #F41E1E",
"6  c #F41F1F",
"7  c #F52323",
"8  c #F52424",
"9  c #F62929",
"0  c #F62A2A",
"q  c #F22C2C",
"w  c #F22F2F",
"e  c #F72E2E",
"r  c #F72F2F",
"t  c #F23232",
"y  c #F33232",
"u  c #F33535",
"i  c #F43636",
"p  c #F83434",
"a  c #F83535",
"s  c #F43939",
"d  c #F53D3D",
"f  c #F93A3A",
"g  c #F93B3A",
"h  c #FA3F3F",
"j  c #F64242",
"k  c #F74646",
"l  c #FA4040",
"z  c #FA4444",
"x  c #FB4545",
"c  c #F74B4B",
"v  c #FB4949",
"b  c #FB4A49",
"n  c #FC4F4F",
"m  c #F85050",
"M  c #F95455",
"N  c #F95858",
"B  c #FA5D5D",
"V  c #FB6162",
"C  c #FC6666",
"Z  c #FC6A6A",
"A  c #FD6F6F",
"S  c #003FAF",
"D  c #0053C1",
"F  c #0059C3",
"G  c #005BC3",
"H  c #005DC3",
"J  c #0067C7",
"K  c #0061D3",
"L  c #5293D1",
"P  c #5695D3",
"I  c #5B98D4",
"U  c #549ADA",
"Y  c #599EDB",
"T  c #5CA1DA",
"R  c #62A4DC",
"E  c #66A7DE",
"W  c #6AAADE",
"Q  c #78ABDC",
"!  c #50A1E2",
"~  c #54A6E5",
"^  c #58A7E5",
"/  c #77B1E2",
"(  c #7BB5E4",
")  c #7AB6E5",
"_  c #76B9EB",
"`  c #85BAE5",
"'  c #85BDE6",
"]  c #91C3E7",
"[  c #E5D3D3",
"{  c #D7E9F6",
"}  c #D8EAF7",
"|  c #DAEAF7",
" . c #DAEBF7",
".. c #DFEDF8",
"X. c #E7E7E7",
"o. c #E9E9E9",
"O. c gray92",
"+. c #EDEFEF",
"@. c #EFEFEF",
"#. c #F3EBEB",
"$. c #F4ECEC",
"%. c #F4EDED",
"&. c #F5EDED",
"*. c #F6EFEF",
"=. c #F1F1F1",
"-. c #F3F3F3",
";. c #F7F0F0",
":. c #F4F4F4",
">. c gray96",
",. c #F6F6F6",
"<. c gray97",
"1. c #F8F1F1",
"2. c #F9F2F2",
"3. c #FAF2F2",
"4. c #F8F8F8",
"5. c #F9F9F9",
"6. c gray98",
"7. c #FBFBFB",
"8. c gray99",
"9. c #FDFDFD",
"0. c #FDFDFE",
/* pixels */
"J H G G D H 9.9.6.6.<.<.=.=.@.@.",
"G ( | ( / ` 9.9.8.8.8.6.6.<.<.O.",
"F ..| { Y W 9.9.6.6.6.<.<.<.<.o.",
"F ' { ] U E 9.6.6.6.<.<.<.:.<.X.",
"K _ ^ ~ ! R 8.6.6.4.<.<.:.:.>.X.",
"S Q I P L T 2.2.;.;.&.&.#.#.%.[ ",
"> A n b x l f p r 0 8 6 4 3 i X ",
": Z b x l f p r 0 8 6 4 3 1 y . ",
": C x h s p r 0 8 6 4 2 < , w . ",
"- V B N M n c k j d s i y w q   ",
"- & & $ $ $ @ @ + + X X .       "
};
