/* XPM */
static char *cm[] = {
/* columns rows colors chars-per-pixel */
"16 11 154 2",
"   c #005F00",
".  c #006300",
"X  c #006700",
"o  c #006F00",
"O  c #007500",
"+  c #007700",
"@  c #007B00",
"#  c #007F00",
"$  c #C90000",
"%  c #E10000",
"&  c #E30000",
"*  c #E50000",
"=  c #E70000",
"-  c #E90000",
";  c #EB0000",
":  c #F70000",
">  c #F90000",
",  c #FB0000",
"<  c #FD0000",
"1  c #F41E1E",
"2  c #F32B19",
"3  c #F4301F",
"4  c #F52323",
"5  c #F52424",
"6  c #F62929",
"7  c #F62A2A",
"8  c #F72E2E",
"9  c #F72F2F",
"0  c #F53524",
"q  c #F63A2B",
"w  c #E63F34",
"e  c #F83434",
"r  c #F83C36",
"t  c #F53D3D",
"y  c #F93B3A",
"u  c #F93C3C",
"i  c #E7453A",
"p  c #F74030",
"a  c #F84736",
"s  c #F44939",
"d  c #F94C3D",
"f  c #E84A40",
"g  c #EA4F46",
"h  c #F64242",
"j  c #F74646",
"k  c #FA4142",
"l  c #FA4242",
"z  c #FB4747",
"x  c #FB4C46",
"c  c #F74B4B",
"v  c #FC4B4B",
"b  c #FC4C4C",
"n  c #EB554B",
"m  c #E85950",
"M  c #EC5A51",
"N  c #ED5E54",
"B  c #FD5151",
"V  c #FC6565",
"C  c #FB6E60",
"Z  c #FC6969",
"A  c #FD6D6D",
"S  c #FD7071",
"D  c #F17B74",
"F  c #008300",
"G  c #008500",
"H  c #008700",
"J  c #008900",
"K  c #008D00",
"L  c #009100",
"P  c #3AB03A",
"I  c #3FB03F",
"U  c #40B33F",
"Y  c #44B144",
"T  c #45B245",
"R  c #45B645",
"E  c #49B449",
"W  c #49B549",
"Q  c #4FB74F",
"!  c #4BB84B",
"~  c #4FB84F",
"^  c #50BB50",
"/  c #53B953",
"(  c #54BA54",
")  c #54BA55",
"_  c #54BD54",
"`  c #58BA58",
"'  c #58BC58",
"]  c #58BC59",
"[  c #59BF59",
"{  c #5CBD5C",
"}  c #5DBC5D",
"|  c #5CBE5C",
" . c #5FBF5F",
".. c #61BE62",
"X. c #66C066",
"o. c #6AC36A",
"O. c #6FC46F",
"+. c #72C673",
"@. c #76C876",
"#. c #77CB77",
"$. c #79C879",
"%. c #79C979",
"&. c #7BCA7A",
"*. c #7BCA7B",
"=. c #F7B630",
"-. c #DDDD00",
";. c #DFDF00",
":. c #E1E100",
">. c #E3E300",
",. c #E5E500",
"<. c #E7E700",
"1. c #E9E900",
"2. c #EBEB00",
"3. c #EDEF00",
"4. c #EFEF00",
"5. c #F1F100",
"6. c #F3F300",
"7. c #F5F500",
"8. c #F1F10B",
"9. c #F1F10E",
"0. c #F2F210",
"q. c #F2F213",
"w. c #F2F214",
"e. c #F3F319",
"r. c #F3F31A",
"t. c #F4F41F",
"y. c #F7C32F",
"u. c #F8C435",
"i. c #F9C53C",
"p. c #F8DE36",
"a. c #F9DD3B",
"s. c #F4F420",
"d. c #F5F525",
"f. c #F5F526",
"g. c #F6F62B",
"h. c #F2F22C",
"j. c #F2F22F",
"k. c #F6F62C",
"l. c #F2F232",
"z. c #F3F332",
"x. c #F7F731",
"c. c #F3F335",
"v. c #F4F436",
"b. c #F8F837",
"n. c #F4F53B",
"m. c #F5F53F",
"M. c #FABC40",
"N. c #FAC741",
"B. c #F6F644",
"V. c #F7F749",
"C. c #F7F74E",
"Z. c #F8F853",
"A. c #F9F957",
"S. c #FAFA5C",
/* pixels */
"L J J J K % < < , , : 7.7.4.4.3.",
"G *.*.*.#.D S A Z V C S.A.Z.C.2.",
"G *. .{ { N B b z l d b.x.k.V.1.",
"J *. .) ) M v z l u a x.g.f.B.1.",
"G @.) ) ^ n x N.i.r p g.f.s.m.,.",
"G +./ ~ ~ g M.a.p.=.q f.t.e.n.,.",
"# O.Q E R i a i.y.7 0 t.e.w.v.,.",
"@ o.E T I i e 9 7 5 3 e.w.0.z.-.",
"+ ..Y I P i 8 7 5 1 2 0.9.8.j.-.",
"o ..} ` / m c j h t s c.z.z.h.-.",
"+ X .     $ ; ; * * % :.-.-.-.-."
};
