/* XPM */
static char *cr[] = {
/* columns rows colors chars-per-pixel */
"16 11 160 2",
"   c #000023",
".  c #000025",
"X  c #000029",
"o  c #00002B",
"O  c #000031",
"+  c #000037",
"@  c #00003B",
"#  c #00003F",
"$  c #000045",
"%  c #00004B",
"&  c #000051",
"*  c #000055",
"=  c #000057",
"-  c #00005B",
";  c #00005D",
":  c #000061",
">  c #000063",
",  c #000067",
"<  c #00006D",
"1  c #000071",
"2  c #000073",
"3  c #000075",
"4  c #000079",
"5  c #00007D",
"6  c #00017F",
"7  c #B70000",
"8  c #B90000",
"9  c #BB0000",
"0  c #DD0000",
"q  c #DF0000",
"w  c #DC1414",
"e  c #DD1919",
"r  c #DE1A1A",
"t  c #DF1F1F",
"y  c #E10000",
"u  c #E01F1F",
"i  c #E02020",
"p  c #E02424",
"a  c #E12525",
"s  c #E22A2A",
"d  c #E32B2B",
"f  c #E32F2F",
"g  c #E43030",
"h  c #E03636",
"j  c #E53535",
"k  c #E63636",
"l  c #E23B3B",
"z  c #E63B3A",
"x  c #E73B3B",
"c  c #E73B3C",
"v  c #E33F3F",
"b  c #D3413F",
"n  c #E74040",
"m  c #E84040",
"M  c #E94141",
"N  c #E84545",
"B  c #E94646",
"V  c #E94A49",
"C  c #EA4A4B",
"Z  c #EA4B4B",
"A  c #EB4F4F",
"S  c #EB4F50",
"D  c #ED5353",
"F  c #ED5454",
"G  c #EE5858",
"H  c #DF6967",
"J  c #EF6F6F",
"K  c #F17273",
"L  c #F17676",
"P  c #000783",
"I  c #000985",
"U  c #000F85",
"Y  c #00198D",
"T  c #5B79B5",
"R  c #5C7AB6",
"E  c #607DB8",
"W  c #627FB9",
"Q  c #6582BB",
"!  c #6984BD",
"~  c #6C88BE",
"^  c #6F8AC1",
"/  c #6F8AC2",
"(  c #738EC3",
")  c #748EC3",
"_  c #7791C5",
"`  c #7790C6",
"'  c #7B94C7",
"]  c #7A94C8",
"[  c #7F97C9",
"{  c #7F97CA",
"}  c #F18785",
"|  c #EBA09F",
" . c #ECA2A2",
".. c #EEA4A3",
"X. c #EEA7A6",
"o. c #EFAAA9",
"O. c #EDAEAD",
"+. c #F9A1A1",
"@. c #F0ACAB",
"#. c #F1AFAE",
"$. c #F3B2B1",
"%. c #F2B4B3",
"&. c #F4B4B3",
"*. c #F3B6B5",
"=. c #F5B7B6",
"-. c #F4B9B8",
";. c #F6B9B8",
":. c #F4BCBB",
">. c #F7BCBB",
",. c #F3BEBE",
"<. c #F5BDBD",
"1. c #F6BFBF",
"2. c #829ACB",
"3. c #829ACC",
"4. c #859DCD",
"5. c #859ECD",
"6. c #89A0CE",
"7. c #8BA2D0",
"8. c #8FA4D2",
"9. c #91A7D3",
"0. c #93A8D4",
"q. c #94A9D4",
"w. c #95A9D4",
"e. c #DDDFDF",
"r. c #F7C2C1",
"t. c #F8C4C3",
"y. c #F9C6C5",
"u. c #FAC8C7",
"i. c #F9C8C8",
"p. c #FAC9C9",
"a. c #FBCBCA",
"s. c #FCD4D4",
"d. c #E5E9E9",
"f. c #F0F1F1",
"g. c #F1F1F1",
"h. c #F1F2F2",
"j. c #F2F3F3",
"k. c #F3F4F4",
"l. c #F4F5F5",
"z. c #F4F6F6",
"x. c #F5F6F6",
"c. c #F5F7F7",
"v. c gray97",
"b. c #F5F8F8",
"n. c #F6F9F9",
"m. c #F7F9F9",
"M. c #F7FAFA",
"N. c #F8F8F8",
"B. c #F9F9F9",
"V. c #F9FAFA",
"C. c #F8FBFB",
"Z. c gray98",
"A. c #F9FCFC",
"S. c #FBFCFC",
"D. c #FAFDFD",
"F. c #FBFDFD",
"G. c #F9FFFF",
"H. c #FBFEFE",
"J. c #FCFEFE",
"K. c #FCFFFF",
/* pixels */
"U I I I P 6 6 4 3 1 < , > ; - * ",
"Y w.w.0.9.8.6.6.5.3.{ ] ) ) / * ",
"H.J.H.J.H.H.H.H.C.C.N.c.c.c.b.d.",
"+.s.p.p.y.y.r.t.1.1.:.-.*.%.,.H ",
"y L G D D V B M c k g d a u v 9 ",
"q K D S V B c x k g d a u r l 9 ",
"q J S V B n z j f s p t r w h 7 ",
"} i.:.;.=.&.&.O.O.o.X. . .| O.b ",
"N.S.B.C.B.N.c.c.c.j.k.j.g.g.j.e.",
"1 5.2.2.' _ ) / ~ ! Q W E R T o ",
", > ; * % % $ # @ + o o o .   . "
};
