/* XPM */
static char *cs[] = {
/* columns rows colors chars-per-pixel */
"16 11 138 2",
"   c #000043",
".  c #00004D",
"X  c #00005D",
"o  c #000061",
"O  c #000063",
"+  c #000067",
"@  c #00006D",
"#  c #000071",
"$  c #000075",
"%  c #000079",
"&  c #00007B",
"*  c #00007D",
"=  c #DD0000",
"-  c #DF0000",
";  c #E10000",
":  c #E30000",
">  c #E50000",
",  c #E70000",
"<  c #E90000",
"1  c #EB0000",
"2  c #ED0000",
"3  c #EF0000",
"4  c #F10000",
"5  c #F30000",
"6  c #F50000",
"7  c #F70000",
"8  c #F90000",
"9  c #F10B0B",
"0  c #F10F0E",
"q  c #F21313",
"w  c #F31919",
"e  c #F41E1E",
"r  c #F52323",
"t  c #F62929",
"y  c #F22C2C",
"u  c #F22F2F",
"i  c #F72E2E",
"p  c #FB2929",
"a  c #F23232",
"s  c #F33535",
"d  c #F83434",
"f  c #F43939",
"g  c #F53D3D",
"h  c #F93A3A",
"j  c #FA3F3F",
"k  c #F64242",
"l  c #F74646",
"z  c #FA4444",
"x  c #F74B4B",
"c  c #F85050",
"v  c #F95455",
"b  c #F95858",
"n  c #FA5D5D",
"m  c #F26363",
"M  c #F26666",
"N  c #FB6162",
"B  c #FC6666",
"V  c #F36A6A",
"C  c #F46E6E",
"Z  c #F57171",
"A  c #F37777",
"S  c #F67575",
"D  c #F77879",
"F  c #F87C7C",
"G  c #000081",
"H  c #000083",
"J  c #000085",
"K  c #000087",
"L  c #000089",
"P  c #000091",
"I  c #2C2CA1",
"U  c #3131A4",
"Y  c #3737A7",
"T  c #3535AF",
"R  c #3D3CAA",
"E  c #4242AD",
"W  c #4949AE",
"Q  c #4747B0",
"!  c #4C4CB2",
"~  c #4E4EB4",
"^  c #5151B4",
"/  c #5353B7",
"(  c #5454B7",
")  c #5857B9",
"_  c #5959B8",
"`  c #5C5CBA",
"'  c #5C5CBB",
"]  c #5F5FBB",
"[  c #6160BE",
"{  c #6A6ABE",
"}  c #6565C0",
"|  c #6969C2",
" . c #6E6EC0",
".. c #6D6DC3",
"X. c #7272C2",
"o. c #7070C5",
"O. c #7676C4",
"+. c #7474C7",
"@. c #7A7AC6",
"#. c #7F7FC6",
"$. c #7777C8",
"%. c #7979C9",
"&. c #7B7BC8",
"*. c #7B7BCA",
"=. c #7D7DC9",
"-. c #F98080",
";. c #FA8484",
":. c #FB8888",
">. c #FB8B8B",
",. c #FCA0A0",
"<. c #8181CA",
"1. c #8585CC",
"2. c #8888CE",
"3. c #8B8BCF",
"4. c #8E8FD1",
"5. c #9090D2",
"6. c #A4A4DA",
"7. c #E3C7C7",
"8. c #E5C9C9",
"9. c #E7CDCD",
"0. c #FDE7E7",
"q. c #FDE9E9",
"w. c gray95",
"e. c #F3F3F3",
"r. c #F4F4F4",
"t. c #F4F5F5",
"y. c gray96",
"u. c #F6F6F6",
"i. c gray97",
"p. c #F8F8F8",
"a. c #F9F9F9",
"s. c gray98",
"d. c #FBFBFB",
"f. c #FBFCFB",
"g. c gray99",
"h. c #FDFCFD",
"j. c #FDFDFD",
"k. c #FEFEFE",
/* pixels */
"P L L L L G G * & $ # @ + O X O ",
"J *.*.*.O.+.o...| } [ ' ) / ~ . ",
"G *.] ` ` / ^ ! Q E R Y U I W   ",
"T 6.4.4.3.1.1.<.=.@.O.X.{ { #.& ",
"q.k.k.k.g.g.d.p.d.i.i.i.i.y.y.9.",
"q.k.f.k.g.d.d.d.i.i.y.i.y.e.y.8.",
"0.k.d.d.d.d.p.p.i.i.i.w.w.w.y.7.",
"p ,.>.:.;.-.F D S C C V M m A - ",
"8 B z j h d i t r e w q 0 9 u - ",
"8 N n b v c x l k g f s a u y = ",
"6 4 4 2 2 2 < < > > : : - = = = "
};
