/* XPM */
static char *cx[] = {
/* columns rows colors chars-per-pixel */
"16 11 167 2",
"   c #000100",
".  c #006500",
"X  c #006900",
"o  c #006B00",
"O  c #006F00",
"+  c #007300",
"@  c #007700",
"#  c #000041",
"$  c #00175F",
"%  c #000069",
"&  c #00006D",
"*  c #000077",
"=  c #00007B",
"-  c #0F7D4A",
";  c #008100",
":  c #008500",
">  c #008B00",
",  c #008F00",
"<  c #009300",
"1  c #009700",
"2  c #009B00",
"3  c #009D00",
"4  c #00A100",
"5  c #00A300",
"6  c #00A500",
"7  c #00A700",
"8  c #00AB00",
"9  c #00AD00",
"0  c #00AF00",
"q  c #0BB70B",
"w  c #10B910",
"e  c #14BB14",
"r  c #19AC2A",
"t  c #2CB636",
"y  c #24C124",
"u  c #25C125",
"i  c #2AC32B",
"p  c #2BC32B",
"a  c #2FC12F",
"s  c #33C332",
"d  c #30C530",
"f  c #31C631",
"g  c #36C436",
"h  c #37C836",
"j  c #37C837",
"k  c #3ECA36",
"l  c #3BC63B",
"z  c #3CCA3C",
"x  c #3DCA3D",
"c  c #7DD300",
"v  c #7EE13B",
"b  c #51B76B",
"n  c #42CB42",
"m  c #42CC42",
"M  c #47CE47",
"N  c #49CC49",
"B  c #4ECD4E",
"V  c #4BD04B",
"C  c #4CD04C",
"Z  c #51D151",
"A  c #54D354",
"S  c #58D257",
"D  c #59D05D",
"F  c #5CD35C",
"G  c #61D460",
"H  c #65D665",
"J  c #69D869",
"K  c #6DD96D",
"L  c #70DA71",
"P  c #74DB74",
"I  c #77DD77",
"U  c #79DD79",
"Y  c #8BDB19",
"T  c #8BDB1A",
"R  c #8EDD1F",
"E  c #95E02C",
"W  c #9EE13F",
"Q  c #9FE53C",
"!  c #C0EA20",
"~  c #C2EC26",
"^  c #C3ED2B",
"/  c #CBEA2E",
"(  c #D6F32F",
")  c #C5EE30",
"_  c #C5EE31",
"`  c #C7EF36",
"'  c #EAF835",
"]  c #87877D",
"[  c #A3E641",
"{  c #A9E753",
"}  c #D3DE4E",
"|  c #CAED44",
" . c #D3EE4C",
".. c #ECF942",
"X. c #000081",
"o. c #000085",
"O. c #000089",
"+. c #00008D",
"@. c #00008F",
"#. c #000093",
"$. c #000097",
"%. c #00009B",
"&. c #0000A1",
"*. c #0000A5",
"=. c #0000A7",
"-. c #0000AB",
";. c #0000AF",
":. c #0000B1",
">. c #0000B3",
",. c #0000B5",
"<. c #131DB1",
"1. c #1819BC",
"2. c #1E1EBE",
"3. c #1F4A93",
"4. c #2F5D92",
"5. c #2424C1",
"6. c #2E2EC6",
"7. c #2323C8",
"8. c #2929CA",
"9. c #3232C3",
"0. c #3535C3",
"q. c #3434C7",
"w. c #3939C5",
"e. c #3D3DC7",
"r. c #3535C9",
"t. c #3A3AC9",
"y. c #3A3ACA",
"u. c #4242C8",
"i. c #4646CA",
"p. c #4242CC",
"a. c #4B4BCC",
"s. c #4949CE",
"d. c #4949CF",
"f. c #4B4DCE",
"g. c #5050CE",
"h. c #5454CF",
"j. c #4040D1",
"k. c #4646D8",
"l. c #504FD1",
"z. c #5151D0",
"x. c #5050D1",
"c. c #5353D2",
"v. c #5555D4",
"b. c #5959D2",
"n. c #5859D4",
"m. c #5C5CD5",
"M. c #5F5FD7",
"N. c #5467C0",
"B. c #6161D4",
"V. c #6363D7",
"C. c #6666D7",
"Z. c #6A6AD8",
"A. c #7677DA",
"S. c #7676DB",
"D. c #7979DD",
"F. c #7B7BDD",
"G. c #5C91A1",
"H. c #7BC397",
"J. c #7B85D3",
"K. c #828287",
"L. c #8484DF",
"P. c #A9A9E5",
"I. c #B0B0E8",
"U. c #DFDFF3",
"Y. c #E2E2F5",
"T. c #E1E1F7",
"R. c #E8E8F7",
/* pixels */
"$ 5 0 0 0 0 0 6 6 5 3 2 1 < , > ",
";.J.H.U P P L K J H G F S { B : ",
",.F.M.G.D A Z C N m x h f E N ; ",
",.S.M.n.N.b C M n x h _ ^ ~ | c ",
">.S.T.C.l.f. .[ Q ` d p u ! W @ ",
">.L.x.v.T.k...v k ^ p u R T l + ",
";.R.x.b.g.j.} ' ( / u R T e g O ",
"-.Z.d.I.P.y.r.K.] 5.3.r e w s o ",
"*.C.d.p.w.q.6.8.7.2.1.<.- q a o ",
"%.B.A.Y.h.g.d.i.p.e.w.0.9.4.t . ",
"*.%.$.#.@.@.O.o.X.= * & % % #   "
};
