/* XPM */
static char *cy[] = {
/* columns rows colors chars-per-pixel */
"16 11 77 1",
"  c #F9D33F",
". c #FACD41",
"X c #F9CD42",
"o c #FAD340",
"O c #F8D547",
"+ c #FBD456",
"@ c #F8D95A",
"# c #FBDD64",
"$ c #FCDA6A",
"% c #F7D678",
"& c #F8D97B",
"* c #7AC182",
"= c #87C991",
"- c #8DCC96",
"; c #9AD09F",
": c #9ED5A5",
"> c #A6D7AE",
", c #A5D8AD",
"< c #BBDFB1",
"1 c #FBDF8C",
"2 c #F7E397",
"3 c #F7E594",
"4 c #EAE6A7",
"5 c gray81",
"6 c gray82",
"7 c LightGray",
"8 c #D5D5D5",
"9 c #D7D7D7",
"0 c gray85",
"q c gray86",
"w c #DDDDDD",
"e c #DFDFDF",
"r c #CEE4C0",
"t c #DFEDDF",
"y c #FDF1C5",
"u c #FDF3D3",
"i c #F8F1D5",
"p c #F9F2D6",
"a c #E1E1E1",
"s c #E1E3E1",
"d c gray89",
"f c gray90",
"g c #E7E7E7",
"h c #E1ECE1",
"j c #E9E9E9",
"k c gray92",
"l c gray93",
"z c #EFEFEF",
"x c #FCF7E4",
"c c #FAF8EF",
"v c #EFEFF1",
"b c #F1F1F1",
"n c gray95",
"m c #F2F2F3",
"M c #F3F3F3",
"N c #F6F5F0",
"B c #F6F6F3",
"V c #F4F4F4",
"C c #F4F5F5",
"Z c gray96",
"A c #F6F6F6",
"S c gray97",
"D c #F7F9F7",
"F c #FCFAF2",
"G c #F8F8F7",
"H c #F8F8F8",
"J c #F9F9F9",
"K c #F8FAF9",
"L c gray98",
"P c #FBFBFB",
"I c #FBFCFB",
"U c gray99",
"Y c #FDFDFC",
"T c #FDFDFD",
"R c #FDFDFE",
"E c #FEFEFE",
"W c gray100",
/* pixels */
"bbbbbvzzkkkgfddw",
"ZWWWPWWPUPIPHHHw",
"bWWWWWWUPPPZHZHw",
"ZWPWPux1cp%%ZZZq",
"ZWWPy$+..O2NZVZ9",
"bWWPF#  @2ZZVMZ8",
"bWPPD<4ir,ZZMMM7",
"bWPPD:=>*-MZbbM7",
"zPPPPHt;hMMMbbb6",
"kPPDHDDZZDMMbMb6",
"kkggdwwqq8876555"
};
