/* XPM */
static char *de[] = {
/* columns rows colors chars-per-pixel */
"16 11 159 2",
"   c #3F3F2F",
".  c #3F3F31",
"X  c #3E3D3D",
"o  c #653635",
"O  c #6C3C3C",
"+  c #404136",
"@  c #46463A",
"#  c #47473A",
"$  c #4C4738",
"%  c #4C493A",
"&  c #49493C",
"*  c #4C4A3C",
"=  c #66493C",
"-  c gray27",
";  c #4C4C43",
":  c gray30",
">  c gray33",
",  c #5B5B5B",
"<  c #714544",
"1  c #784C4B",
"2  c #7E5353",
"3  c #626262",
"4  c #696869",
"5  c #6F6F6F",
"6  c gray46",
"7  c gray48",
"8  c #7E7E7E",
"9  c #9D3F2F",
"0  c #A53F2F",
"q  c #A83F2F",
"w  c #A93F2F",
"e  c #BC3F2F",
"r  c #BD3F2F",
"t  c #EA1E1E",
"y  c #EB2424",
"u  c #EC2425",
"i  c #EE2C2B",
"p  c #EE2C2C",
"a  c #EE2D2D",
"s  c #EF3232",
"d  c #EF3333",
"f  c #F03335",
"g  c #F13B3B",
"h  c #F13C3C",
"j  c #BE4435",
"k  c #93732F",
"l  c #9D792F",
"z  c #9E7C2F",
"x  c #A1762F",
"c  c #A1792F",
"v  c #A07F2F",
"b  c #A37E2F",
"n  c #AA7F2F",
"m  c #AC7F2F",
"M  c #B7792F",
"N  c #835B5B",
"B  c #896161",
"V  c #8E6868",
"C  c #936F6F",
"Z  c #977474",
"A  c #9B7A7A",
"S  c #9F7E7E",
"D  c #F24242",
"F  c #F34343",
"G  c #F34444",
"H  c #F44949",
"J  c #F44A4A",
"K  c #F44B4B",
"L  c #F65151",
"P  c #F65252",
"I  c #F65253",
"U  c #F75959",
"Y  c #F85A5A",
"T  c #F95F5F",
"R  c #F96060",
"E  c #F96161",
"W  c #FA6666",
"Q  c #FA6868",
"!  c #FB6D6D",
"~  c #FB6D6E",
"^  c #FB6E6E",
"/  c #F17C6B",
"(  c #FC7373",
")  c #F27F70",
"_  c #FD7979",
"`  c #9B842F",
"'  c #A3852F",
"]  c #A9822F",
"[  c #AB852F",
"{  c #A98D2F",
"}  c #AE8E2F",
"|  c #B4852F",
" . c #B3882F",
".. c #B68B2F",
"X. c #B6A12F",
"o. c #B6A72F",
"O. c #E8821D",
"+. c #EA8724",
"@. c #EB8B2A",
"#. c #EE9032",
"$. c #EF9439",
"%. c #E6CD1D",
"&. c #E8CF22",
"*. c #E9D129",
"=. c #EBD42F",
"-. c #EDD737",
";. c #EFD93D",
":. c #8D8D7F",
">. c #A5897A",
",. c #F19941",
"<. c #F29D47",
"1. c #F4A24F",
"2. c #F5A556",
"3. c #F7AA5D",
"4. c #F38476",
"5. c #F9AF64",
"6. c #F0B66C",
"7. c #FAB26B",
"8. c #F1DB45",
"9. c #F2DD4B",
"0. c #F4E053",
"q. c #F5E25A",
"w. c #EFDA69",
"e. c #EFDB6B",
"r. c #F0DC6F",
"t. c #F1DD73",
"y. c #F2DE76",
"u. c #EFE06D",
"i. c #F7E461",
"p. c #F9E668",
"a. c #F3E07A",
"s. c #F4E27F",
"d. c #828383",
"f. c #919184",
"g. c #969689",
"h. c #9A9A8E",
"j. c #9E9D92",
"k. c #A2A297",
"l. c #A6A69B",
"z. c #AAAA9F",
"x. c #ADADA3",
"c. c #B0B0A7",
"v. c #B3B3A9",
"b. c #B6B6AD",
"n. c #B8B8AF",
"m. c #BABAB1",
"M. c #CAB8AF",
"N. c #FCAFA5",
"B. c #FCB2A9",
"V. c #FDB5AC",
"C. c #F5E482",
"Z. c #F5E587",
"A. c #F7E78B",
"S. c #F8E991",
"D. c #F9EB94",
"F. c #F9EB9A",
"G. c #FAED9D",
"H. c #FCD5A4",
"J. c #FBF1A2",
/* pixels */
"; % $ * # + . . .               ",
"# m.m.n.b.c.x.x.z.l.k.j.h.g.f.  ",
"& m.d.8 7 6 5 4 3 , > : - X :.  ",
"= M.S A Z Z V B N 2 1 < O o >.  ",
"j V._ ( ! Q E U I K D h f a 4.w ",
"r B.( ! W E U L K D h s a u / w ",
"r N.! W T U L H D h s i y t / j ",
"M H.7.5.3.2.1.<.,.$.#.@.+.O.6.9 ",
"o.J.p.q.q.0.9.8.;.-.=.*.&.%.u.` ",
"X.G.G.D.S.A.Z.C.s.a.y.t.r.e.e.l ",
"} ..|  .m m { [ ` ` v z v x c k "
};
