/* XPM */
static char *dj[] = {
/* columns rows colors chars-per-pixel */
"16 11 153 2",
"   c #FD6E6E",
".  c #008100",
"X  c #008300",
"o  c #008700",
"O  c #008900",
"+  c #008B00",
"@  c #008F00",
"#  c #009100",
"$  c #009300",
"%  c #009900",
"&  c #009D00",
"*  c #009F00",
"=  c #00A300",
"-  c #00A500",
";  c #00A700",
":  c #00B500",
">  c #0BC20B",
",  c #0FC40E",
"<  c #10C410",
"1  c #13C613",
"2  c #14C614",
"3  c #14CA14",
"4  c #18C719",
"5  c #19C819",
"6  c #19CB19",
"7  c #1EC91E",
"8  c #1FC91F",
"9  c #1FCD1F",
"0  c #23CB23",
"q  c #24CB24",
"w  c #24CF24",
"e  c #29CD29",
"r  c #2ACD2A",
"t  c #2CCA2C",
"y  c #2FCA2F",
"u  c #2FCB2F",
"i  c #2ECF2E",
"p  c #2FCE2F",
"a  c #2AD12A",
"s  c #2FD22F",
"d  c #32CC32",
"f  c #33CC32",
"g  c #35CD35",
"h  c #34CE34",
"j  c #34CF34",
"k  c #39CF39",
"l  c #36D136",
"z  c #3DD03D",
"x  c #42D242",
"c  c #46D346",
"v  c #48D644",
"b  c #4BD54B",
"n  c #4BD64B",
"m  c #50D750",
"M  c #54D855",
"N  c #58D858",
"B  c #74DE74",
"V  c #004981",
"C  c #0039E7",
"Z  c #0045E7",
"A  c #004BE9",
"S  c #004DEB",
"D  c #135DEF",
"F  c #1961EF",
"G  c #1963F1",
"H  c #2167F3",
"J  c #276DF5",
"K  c #2D71F7",
"L  c #3575F9",
"P  c #3979FB",
"I  c #3F7DFD",
"U  c #5DA6C0",
"Y  c #61A9C2",
"T  c #65ACC4",
"R  c #69AEC6",
"E  c #6DB1C9",
"W  c #71B3CB",
"Q  c #74B3C9",
"!  c #4381FD",
"~  c #4381FF",
"^  c #4583FD",
"/  c #4B87FD",
"(  c #4B87FF",
")  c #5B93FF",
"_  c #7B9CF4",
"`  c #7F9FF5",
"'  c #7AA2F5",
"]  c #7CA5F6",
"[  c #7EA6F6",
"{  c #FCA9A9",
"}  c #FCB2B2",
"|  c #FEB7B7",
" . c #8DDF8D",
".. c #95E796",
"X. c #ABEAAB",
"o. c #B7ECB7",
"O. c #82A2F6",
"+. c #86A5F7",
"@. c #80A8F7",
"#. c #81A9F7",
"$. c #8DA9F5",
"%. c #8CAFF6",
"&. c #84ABF8",
"*. c #8AA8F8",
"=. c #8BAAF9",
"-. c #88AEF9",
";. c #8FB2F7",
":. c #8BB0FA",
">. c #8BB1FA",
",. c #8CB2FB",
"<. c #8FB3FB",
"1. c #8CB2FC",
"2. c #93B4F7",
"3. c #95B3FA",
"4. c #96B7F8",
"5. c #92B6FC",
"6. c #93B7FD",
"7. c #95B7FD",
"8. c #99B9F9",
"9. c #9BBBFA",
"0. c #9EBEFB",
"q. c #A0BFFE",
"w. c #BFE3D6",
"e. c #A1C0FC",
"r. c #A4C2FC",
"t. c #A7C3FD",
"y. c #A9C5FE",
"u. c #ABC7FE",
"i. c #AFC9FD",
"p. c #FECACA",
"a. c #DDF4DD",
"s. c #C3D7FF",
"d. c #C9DAFB",
"f. c #C8DAFF",
"g. c #D6E4FE",
"h. c #E9F7E9",
"j. c #EAF1FD",
"k. c gray97",
"l. c #FBF1F1",
"z. c #FDF3F3",
"x. c #F3F7FF",
"c. c #F9F9F9",
"v. c #F9FAF9",
"b. c gray98",
"n. c #FBFBFB",
"m. c #FAFAFC",
"M. c gray99",
"N. c #FDFCFC",
"B. c #FDFCFD",
"V. c #FDFDFD",
"C. c #FEFDFD",
"Z. c #FEFEFE",
"A. c gray100",
/* pixels */
"s.) ~ ( ( ^ ~ I P L K J H F D F ",
"A.x.f.u.u.u.u.t.e.e.0.9.9.4.2.S ",
"A.A.A.g.0.6.7.5.5.>.-.&.#.[ ;.A ",
"A.A.A.A.j.i.1.>.-.-.&.#.] ' %.Z ",
"n.N.| l.N.m.d.3.=.*.+.O.` _ $.C ",
"A.p.  { N.n.n.w.Q E R T Y U Q V ",
"n.A.} l.n.n.X.v s r w 9 6 3 l $ ",
"n.n.n.n.a.B d p r q 8 6 2 < d o ",
"n.m.n.o.n j p r 0 9 4 2 , > y o ",
"k.h...N M m n c x k k g d y t . ",
" .: ; ; = & & % $ @ @ + o o . + "
};
