/* XPM */
static char *eh[] = {
/* columns rows colors chars-per-pixel */
"16 11 145 2",
"   c black",
".  c #002500",
"X  c #002700",
"o  c #002B00",
"O  c #002D00",
"+  c #002F00",
"@  c #003500",
"#  c #003B00",
"$  c #003F00",
"%  c #3B3737",
"&  c gray24",
"*  c #004500",
"=  c #004B00",
"-  c #005100",
";  c #005500",
":  c #005B00",
">  c #006100",
",  c #006B00",
"<  c #006D00",
"1  c #006F00",
"2  c gray26",
"3  c gray28",
"4  c #4B4B4D",
"5  c #515051",
"6  c #555555",
"7  c gray35",
"8  c #5A5858",
"9  c gray36",
"0  c #5D5D5D",
"q  c #616061",
"w  c gray38",
"e  c #646464",
"r  c #656565",
"t  c #6A6A6A",
"y  c #6D6D6D",
"u  c #717170",
"i  c gray46",
"p  c #777777",
"a  c gray48",
"s  c gray49",
"d  c #7F7F7E",
"f  c gray50",
"g  c #B10000",
"h  c #B90000",
"j  c #DD0000",
"k  c #DF0000",
"l  c #DF0B0B",
"z  c #E30000",
"x  c #E50000",
"c  c #E70000",
"v  c #E90000",
"b  c #EB0000",
"n  c #E21414",
"m  c #E41F1F",
"M  c #F21010",
"N  c #F21414",
"B  c #F31919",
"V  c #F31A1A",
"C  c #F41F1F",
"Z  c #D82C2C",
"A  c #D82D2D",
"S  c #E22C2C",
"D  c #F42020",
"F  c #F52525",
"G  c #F52626",
"H  c #F22F2F",
"J  c #F33232",
"K  c #F43636",
"L  c #F43B3B",
"P  c #F53F3F",
"I  c #DE4F4F",
"U  c #F64444",
"Y  c #F74949",
"T  c #FA6262",
"R  c #F7797A",
"E  c #F87878",
"W  c #12960E",
"Q  c #139A13",
"!  c #189B19",
"~  c #1E9C1E",
"^  c #239F23",
"/  c #29A229",
"(  c #2EA62E",
")  c #31A32F",
"_  c #32A632",
"`  c #34A934",
"'  c #35A835",
"]  c #39A939",
"[  c #3AAB3A",
"{  c #3DAC3D",
"}  c #3FAD3F",
"|  c #42AE42",
" . c #44B044",
".. c #46B046",
"X. c #4BB24B",
"o. c #50B450",
"O. c #54B755",
"+. c #58B958",
"@. c #5DBC5D",
"#. c #61BE62",
"$. c #66BF66",
"%. c #F98181",
"&. c #F88486",
"*. c #FA9191",
"=. c #DFDFDF",
"-. c #F9C4C4",
";. c #FBC8C8",
":. c #FBD0D0",
">. c #F9D7D7",
",. c #DFE8DB",
"<. c #DDEFDD",
"1. c #E4E1E1",
"2. c #E5E6E6",
"3. c #E6E6E6",
"4. c #E0EDE1",
"5. c #E2EDE2",
"6. c #E2EFE2",
"7. c #E4EFE4",
"8. c gray91",
"9. c #E9E9E9",
"0. c #EAEAEA",
"q. c gray92",
"w. c #ECECEC",
"e. c gray93",
"r. c #F5E7E9",
"t. c #E6F1E6",
"y. c #E7F1E7",
"u. c #E8F2E8",
"i. c #EAF3EA",
"p. c #EBF4EB",
"a. c #EFF7EF",
"s. c #F1F1F1",
"d. c #F7F3F3",
"f. c #F6F6F6",
"g. c gray97",
"h. c #F1F9F1",
"j. c #F3F9F3",
"k. c #F8F8F8",
"l. c gray98",
"z. c #FBFBFB",
"x. c #FBFCFB",
"c. c gray99",
"v. c #FDFCFD",
"b. c #FDFDFD",
"n. c #FEFEFE",
/* pixels */
"                              g ",
"  f f f a p p u y t e e 7 7 I b ",
"  f e 0 0 7 6 5 4 3 2 & % A Y b ",
"=.s.e.e.w.w.9.9.3.3.3.1.A G U c ",
"j.n.n.n.c.z.;.*.%.g.d.Z G C P c ",
"h.n.n.x.c.:.T >.E g.Z G C V L c ",
"a.n.n.z.z.z.-.&.R g.r.m V N K z ",
"<.a.i.i.i.t.7.7.5.5.4.,.n M J k ",
"1 $...{ ] ` ( / ^ ~ ! Q W l H k ",
"1 #.@.+.O.o.X...| { ] ' _ ) S k ",
"1 > : ; - = * $ # @ + o . . + h "
};
