/* XPM */
static char *england[] = {
/* columns rows colors chars-per-pixel */
"16 11 106 2",
"   c #8D0000",
".  c #910000",
"X  c #970000",
"o  c #9D0000",
"O  c #A70000",
"+  c #B90000",
"@  c #BB0000",
"#  c #BF0000",
"$  c #CA2222",
"%  c #CB2828",
"&  c #CD2A2A",
"*  c #CD2C2C",
"=  c #CF3030",
"-  c #CF3232",
";  c #C93F3F",
":  c #D13636",
">  c #D13737",
",  c #D33B3B",
"<  c #D33C3C",
"1  c #D14242",
"2  c #D54242",
"3  c #D34747",
"4  c #D64747",
"5  c #D74748",
"6  c #D54C4C",
"7  c #D84C4C",
"8  c #D84D4D",
"9  c #D15555",
"0  c #DA5151",
"q  c #DA5252",
"w  c #DB5556",
"e  c #DC5A5A",
"r  c #D87070",
"t  c #D97373",
"y  c #DB7777",
"u  c #DD7A7A",
"i  c #DE7A7A",
"p  c #E06E6E",
"a  c #E27272",
"s  c #E27777",
"d  c #DD8181",
"f  c #DD8484",
"g  c #DE8585",
"h  c #E28686",
"j  c #E08888",
"k  c #E28B8B",
"l  c #E38B8B",
"z  c #E48D8D",
"x  c #E19393",
"c  c #E69090",
"v  c #E69493",
"b  c #E79595",
"n  c #E89696",
"m  c #E99C9C",
"M  c #E99F9F",
"N  c #D1BFBF",
"B  c #EAA1A1",
"V  c #ECA4A4",
"C  c #EDA9A9",
"Z  c #EFB4B4",
"A  c #CBCBCB",
"S  c #CFCDCD",
"D  c gray81",
"F  c #D7CBCB",
"G  c gray82",
"H  c #D7D7D7",
"J  c gray85",
"K  c #DDDDDD",
"L  c #DFDFDF",
"P  c #E9DBDB",
"I  c #E1E1E1",
"U  c gray89",
"Y  c gray90",
"T  c #E7E7E7",
"R  c #EDE5E5",
"E  c #E9E9E9",
"W  c gray92",
"Q  c gray93",
"!  c #F2EBEB",
"~  c #F3EDED",
"^  c #F4EEEE",
"/  c #EFEFF1",
"(  c #F1F1F1",
")  c gray95",
"_  c #F2F2F3",
"`  c #F3F3F3",
"'  c #F6F1F1",
"]  c #F7F1F1",
"[  c #F4F4F4",
"{  c gray96",
"}  c #F6F6F6",
"|  c gray97",
" . c #F9F2F2",
".. c #F8F3F3",
"X. c #FAF5F5",
"o. c #FBF5F5",
"O. c #FBF6F6",
"+. c #F8F8F8",
"@. c #F9F9F9",
"#. c gray98",
"$. c #FBFBFB",
"%. c #FCF8F8",
"&. c gray99",
"*. c #FDFDFD",
"=. c #FEFEFE",
"-. c gray100",
/* pixels */
"( ( ( ( Q / R @ @ P E T Y U I L ",
"( -.-.-.-.-.&.a p o.$.$.+.+.} K ",
"Q -.-.-.-.&.O.q 8 ..$.+.} } | J ",
"( -.$.-.&.-.o.6 4 ..o.} } } } H ",
"9 Z V B M M b 4 2 z z j g d x O ",
"# s e w 8 6 4 2 < - - % % $ 1   ",
"1 C b v c z h , > u u y t t g o ",
"W &.&.$.$.$.' : - ^ } [ ( ( ( D ",
"W $.$.$.@.@.' = & ! ( ( ( ( [ A ",
"E $.@.@.@.@.' 6 3 ~ } ( [ ( ( A ",
"T Y U I L K F X . N G D D A A A "
};
