/* XPM */
static char *fm[] = {
/* columns rows colors chars-per-pixel */
"16 11 139 2",
"   c #001F7D",
".  c #002181",
"X  c #002581",
"o  c #002783",
"O  c #002985",
"+  c #002B85",
"@  c #002D89",
"#  c #002F89",
"$  c #00338B",
"%  c #00358D",
"&  c #00398F",
"*  c #003B93",
"=  c #003D93",
"-  c #004197",
";  c #00479B",
":  c #004D9F",
">  c #0353A3",
",  c #0B59A5",
"<  c #115DA9",
"1  c #1963AD",
"2  c #1F69B1",
"3  c #256DB3",
"4  c #276FB5",
"5  c #2B73B5",
"6  c #2D73B5",
"7  c #3175B9",
"8  c #3377B9",
"9  c #3579BB",
"0  c #397BBD",
"q  c #3B7DBD",
"w  c #3D7DBF",
"e  c #3F7FBF",
"r  c #417FBF",
"t  c #4181BF",
"y  c #6795C2",
"u  c #6A97C4",
"i  c #6C99C6",
"p  c #6E99C6",
"a  c #6E9AC6",
"s  c #6F9BC7",
"d  c #6F9BC8",
"f  c #709CC7",
"g  c #709CC8",
"h  c #729DC9",
"j  c #759FCA",
"k  c #77A1CB",
"l  c #7BA2CA",
"z  c #7CA4CA",
"x  c #7DA4CB",
"c  c #78A1CC",
"v  c #7AA2CC",
"b  c #7AA4CD",
"n  c #7FA5CC",
"m  c #7FA6CC",
"M  c #7CA5CE",
"N  c #7EA6CE",
"B  c #7EA7CF",
"V  c #82A8CD",
"C  c #84A9CF",
"Z  c #85AACF",
"A  c #85ABCF",
"S  c #80A8D0",
"D  c #81A9D0",
"F  c #82A9D0",
"G  c #82A9D1",
"H  c #83A9D1",
"J  c #81AAD1",
"K  c #83ABD2",
"L  c #84ABD2",
"P  c #85ACD2",
"I  c #86ADD2",
"U  c #86ACD3",
"Y  c #87ADD3",
"T  c #89ADD2",
"R  c #8CAFD3",
"E  c #88ADD4",
"W  c #88AED4",
"Q  c #89AFD5",
"!  c #8AAED4",
"~  c #8AAFD4",
"^  c #8FB1D4",
"/  c #8FB2D5",
"(  c #8EB1D6",
")  c #8EB2D6",
"_  c #91B4D7",
"`  c #93B4D7",
"'  c #95B6D7",
"]  c #91B4D8",
"[  c #90B5D8",
"{  c #91B5D8",
"}  c #92B6D9",
"|  c #92B7D9",
" . c #96B7D8",
".. c #95B7DA",
"X. c #97B9DB",
"o. c #97BADB",
"O. c #98B8D8",
"+. c #99B9D9",
"@. c #99B9DA",
"#. c #98BADB",
"$. c #9BBBDB",
"%. c #9CBCDB",
"&. c #9ABCDC",
"*. c #9BBCDD",
"=. c #9EBEDD",
"-. c #9FBEDD",
";. c #9DBDDE",
":. c #9DBEDE",
">. c #9FBFDF",
",. c #A0BFDD",
"<. c #A5C0DB",
"1. c #A3C0DE",
"2. c #A6C1DC",
"3. c #A5C2DF",
"4. c #A8C2DB",
"5. c #ADC6DD",
"6. c #AEC7DF",
"7. c #A5C3E0",
"8. c #A8C4E0",
"9. c #A8C4E1",
"0. c #AAC6E2",
"q. c #ABC7E2",
"w. c #ADC8E3",
"e. c #AEC8E4",
"r. c #AEC9E4",
"t. c #B1C9E0",
"y. c #B0CAE4",
"u. c #B5CCE4",
"i. c #B9CFE4",
"p. c #B8CEE6",
"a. c #B9D0E6",
"s. c #BAD0E6",
"d. c #BFD2E5",
"f. c #BDD3E7",
"g. c #BFD4E9",
"h. c gray96",
"j. c #F6F6F6",
"k. c #FBFBFB",
"l. c gray99",
/* pixels */
"t t t t t q 9 7 5 3 3 1 , , > : ",
"t y.y.r.w.q.9.a.u.,.>.#.#.' ` ; ",
"t r.>.>.*.X.[ k.k.W W K K B _ = ",
"r w.>.#.X.} [ 3.3.W K B M v R * ",
"w w.&.X.g.f._ R P P t.5.j j R $ ",
"0 0.X.} l.k.u.P L d.j.h.h h Z # ",
"8 0..._ p.p.R K B B 5.2.p p V + ",
"6 7._ ( Q K K ' ' k h d p u B o ",
"4 ,.( R L L l j.h.p f p u y n   ",
"3 ,.%.#.' _ ( 2.2.A Z V n z l   ",
"1 < , > : ; - = & $ @ O o .     "
};
