/* XPM */
static char *fo[] = {
/* columns rows colors chars-per-pixel */
"16 11 104 2",
"   c #B30000",
".  c #BF0000",
"X  c #D90000",
"o  c #DB0000",
"O  c #DB311A",
"+  c #DD361F",
"@  c #DE3B25",
"#  c #E0402B",
"$  c #E24530",
"%  c #E34934",
"&  c #E34A36",
"*  c #E04F3B",
"=  c #E54E3A",
"-  c #E54F3B",
";  c #E65440",
":  c #E75946",
">  c #E85D4B",
",  c #E95E4B",
"<  c #E9624F",
"1  c #E66150",
"2  c #E96351",
"3  c #EA6553",
"4  c #EB6754",
"5  c #EE8173",
"6  c #EF8274",
"7  c #0000B1",
"8  c #0000B5",
"9  c #0000BD",
"0  c #0000C3",
"q  c #0003D7",
"w  c #0007D9",
"e  c #000FDB",
"r  c #0011DB",
"t  c #144CDA",
"y  c #1950DB",
"u  c #1F55DD",
"i  c #2055DD",
"p  c #2459DE",
"a  c #2559DE",
"s  c #3665DE",
"d  c #2A5EE0",
"f  c #2B5EE0",
"g  c #2E60E2",
"h  c #2F62E2",
"j  c #3063E2",
"k  c #3465E3",
"l  c #3566E3",
"z  c #3667E3",
"x  c #3F6DE1",
"c  c #3A69E4",
"v  c #3B6BE5",
"b  c #406EE5",
"n  c #4170E6",
"m  c #4572E7",
"M  c #4B76E5",
"N  c #4674E8",
"B  c #4977E8",
"V  c #4B77E9",
"C  c #4F7AE9",
"Z  c #547DE7",
"A  c #507BE9",
"S  c #517BE9",
"D  c #547EEA",
"F  c #547FEA",
"G  c #5882EC",
"H  c #5982EC",
"J  c #6F93ED",
"K  c #7094EE",
"L  c #7698EF",
"P  c #7799F0",
"I  c #CDCDCD",
"U  c #D1CFCF",
"Y  c gray82",
"T  c LightGray",
"R  c #D5D5D5",
"E  c #D7D7D7",
"W  c gray85",
"Q  c gray86",
"!  c #DDDDDD",
"~  c #E1E1E1",
"^  c gray89",
"/  c gray90",
"(  c #E7E7E7",
")  c #E9E9E9",
"_  c gray92",
"`  c gray93",
"'  c #EFEFEF",
"]  c #F1F1F1",
"[  c gray95",
"{  c #F2F2F3",
"}  c #F3F3F3",
"|  c #F4F4F4",
" . c gray96",
".. c #F6F6F6",
"X. c gray97",
"o. c #F8F8F8",
"O. c #F9F9F9",
"+. c gray98",
"@. c #FBFBFB",
"#. c #F9FEFE",
"$. c gray99",
"%. c #FDFDFD",
"&. c #FEFEFE",
"*. c gray100",
/* pixels */
"} } } } r o w ' ` ` _ _ / / ^ ~ ",
"} *.*.*.P 6 K *.@.@.@.@.@.X.X.! ",
"} *.*.*.G 4 C *.@.@.X.X.X.X.X.Q ",
"} @.*.#.D 2 B $.@.@.X.X.X.| X.W ",
"e L G D A , N b v v k a p u s 8 ",
"X 5 3 < , : ; - & # # @ + O -   ",
"q J C B m ; v k h g a u y t s 7 ",
"' @.@.@.x - k o. . .| } ] } | T ",
"` @.o.@.c % g X. .| } ] ] ] ] I ",
"_ @.@.@.Z 1 M X.X. .| | ] } } I ",
") / / ^ 0 . 9 W E R T Y U I I I "
};
