/* XPM */
static char *ga[] = {
/* columns rows colors chars-per-pixel */
"16 11 156 2",
"   c #004100",
".  c #004700",
"X  c #004900",
"o  c #005100",
"O  c #005500",
"+  c #005900",
"@  c #005F00",
"#  c #006500",
"$  c #006B00",
"%  c #006F00",
"&  c #007300",
"*  c #007700",
"=  c #007B00",
"-  c #007D00",
";  c #00006D",
":  c #00007D",
">  c #00007F",
",  c #008100",
"<  c #008300",
"1  c #008900",
"2  c #2CA52C",
"3  c #32A826",
"4  c #37AA2B",
"5  c #31A831",
"6  c #37AA37",
"7  c #3DAD31",
"8  c #3DAD3D",
"9  c #42B036",
"0  c #47B23C",
"q  c #42B042",
"w  c #47B347",
"e  c #4CB442",
"r  c #4FB344",
"t  c #49B149",
"y  c #4CB54C",
"u  c #4EB44E",
"i  c #51B747",
"p  c #56B94B",
"a  c #51B751",
"s  c #53B753",
"d  c #54B954",
"f  c #5BBC51",
"g  c #58B957",
"h  c #5EBE54",
"j  c #59BB59",
"k  c #5CBB5C",
"l  c #5CBD5C",
"z  c #5FBE5F",
"x  c #62BF59",
"c  c #61BE60",
"v  c #65C15C",
"b  c #65C065",
"n  c #69C269",
"m  c #6DC36D",
"M  c #70C571",
"N  c #74C774",
"B  c #77C877",
"V  c #79C979",
"C  c #7BC97A",
"Z  c #7BCA7B",
"A  c #E3E300",
"S  c #E5E500",
"D  c #E7E700",
"F  c #FDFD00",
"G  c #F2F214",
"H  c #F3F319",
"J  c #F3F31A",
"K  c #F4F41F",
"L  c #F4F420",
"P  c #F5F524",
"I  c #F5F525",
"U  c #F6F62A",
"Y  c #F6F62B",
"T  c #F7F72F",
"R  c #F7F730",
"E  c #F4F436",
"W  c #F8F835",
"Q  c #F8F836",
"!  c #F4F53B",
"~  c #F5F53F",
"^  c #F9F93A",
"/  c #F9F93B",
"(  c #F9F93C",
")  c #80CD79",
"_  c #FAFA40",
"`  c #FAFA41",
"'  c #FBFB45",
"]  c #FBFB46",
"[  c #FBFC49",
"{  c #FCFC4B",
"}  c #FCFC4F",
"|  c #FDFC50",
" . c #FDFD53",
".. c #FDFD54",
"X. c #FEFE58",
"o. c #FDFD6F",
"O. c #FEFE73",
"+. c #FEFE76",
"@. c #000083",
"#. c #000087",
"$. c #00008B",
"%. c #00008D",
"&. c #000091",
"*. c #000095",
"=. c #000099",
"-. c #00009D",
";. c #0001A1",
":. c #0007A3",
">. c #000DA7",
",. c #0013A9",
"<. c #001DAF",
"1. c #003FA7",
"2. c #0023B3",
"3. c #0029B7",
"4. c #4973B8",
"5. c #4D76BA",
"6. c #5179BB",
"7. c #557DBD",
"8. c #3666C4",
"9. c #3A69C6",
"0. c #3E6BC7",
"q. c #436FC9",
"w. c #4773CB",
"e. c #4C76CD",
"r. c #537BCA",
"t. c #557CCA",
"y. c #517ACF",
"u. c #557CCC",
"i. c #587FCC",
"p. c #547ED1",
"a. c #5A80C0",
"s. c #5E83C2",
"d. c #5B82CD",
"f. c #5F84CF",
"g. c #5982D3",
"h. c #5E85D4",
"j. c #6487C2",
"k. c #6286C4",
"l. c #668AC6",
"z. c #6A8EC8",
"x. c #6F91CA",
"c. c #7394CD",
"v. c #7798CE",
"b. c #6286D0",
"n. c #658AD2",
"m. c #6289D6",
"M. c #698DD3",
"N. c #678DD8",
"B. c #6D90D5",
"V. c #7193D7",
"C. c #7596D8",
"Z. c #7999DA",
"A. c #7D9DDB",
"S. c #809FDD",
"D. c #83A2DF",
"F. c #90ABD8",
/* pixels */
"< < < < - - - * & % $ # @ + O o ",
"< Z Z Z B N M m n b c k g s u X ",
"< C z l j d a y w q 8 6 5 2 t   ",
"1 Z v x h f p i e 0 9 7 4 3 i . ",
"F +..... .[ [ ` ( W R Y P K ~ S ",
"F O. .} } ] ( ^ W R Y P K H ! S ",
"F o.} [ ] ( ^ W R Y P K H G E S ",
"1.F.v.c.c.z.l.k.s.t.7.6.5.4.j.; ",
"3.D.N.m.h.g.p.y.e.w.q.0.9.8.t.#.",
"2.S.A.Z.C.V.B.M.n.b.b.d.i.t.r.> ",
"<.,.>.:.;.-.*.*.%.$.$.#.@.@.> > "
};
