/* XPM */
static char *gd[] = {
/* columns rows colors chars-per-pixel */
"16 11 156 2",
"   c #D70000",
".  c #DD0000",
"X  c #DF0000",
"o  c #E30000",
"O  c #E50000",
"+  c #E70000",
"@  c #E90000",
"#  c #EB0000",
"$  c #ED0000",
"%  c #EF0000",
"&  c #F10000",
"*  c #F30000",
"=  c #F50000",
"-  c #F70000",
";  c #F90000",
":  c #FB0000",
">  c #FD0000",
",  c red",
"<  c #E32300",
"1  c #E13B00",
"2  c #E73D00",
"3  c #ED3F00",
"4  c #E94100",
"5  c #ED5F00",
"6  c #F75D00",
"7  c #F56F00",
"8  c #FB7300",
"9  c #FD7300",
"0  c #FD7700",
"q  c #F55E37",
"w  c #C37036",
"e  c #F6643C",
"r  c #CA7B46",
"t  c #F86B43",
"y  c #F87048",
"u  c #109C10",
"i  c #179914",
"p  c #199B19",
"a  c #1F9C1F",
"s  c #1F9F1F",
"d  c #14A014",
"f  c #1AA31A",
"g  c #36B00B",
"h  c #20A620",
"j  c #25A125",
"k  c #25A225",
"l  c #26A626",
"z  c #2BA32B",
"x  c #2AA42B",
"c  c #38A524",
"v  c #31A62B",
"b  c #70AE19",
"n  c #419C2F",
"m  c #479B32",
"M  c #4B9E36",
"N  c #608C2C",
"B  c #5ABF2C",
"V  c #49AC30",
"C  c #4FA13B",
"Z  c #53A43F",
"A  c #58A644",
"S  c #5AAC49",
"D  c #45B145",
"F  c #45B245",
"G  c #46B246",
"H  c #4BB44B",
"J  c #49B949",
"K  c #50B240",
"L  c #5FB94B",
"P  c #50B550",
"I  c #54BA54",
"U  c #5BBC59",
"Y  c #7DA04E",
"T  c #67B249",
"R  c #76B966",
"E  c #7BB96A",
"W  c #7FBD6F",
"Q  c #5CC05C",
"!  c #64C844",
"~  c #9BBD2A",
"^  c #89BA31",
"/  c #87BD3F",
"(  c #FD8900",
")  c #B3C40E",
"_  c #A9C336",
"`  c #A0C43A",
"'  c #D7C51F",
"]  c #F2D113",
"[  c #F3D419",
"{  c #F4D41E",
"}  c #DDCE3A",
"|  c #C9D231",
" . c #C3D43F",
".. c #F5CE24",
"X. c #F0CC2F",
"o. c #F5D423",
"O. c #F6D729",
"+. c #F6D42A",
"@. c #F7D62F",
"#. c #F7D92E",
"$. c #E5CE36",
"%. c #F4C736",
"&. c #F2CD32",
"*. c #F5C93B",
"=. c #F4CF39",
"-. c #F3D035",
";. c #F8D334",
":. c #F8DC34",
">. c #F8DC37",
",. c #F5D13D",
"<. c #F9D63C",
"1. c #F9DC3A",
"2. c #F9DF3D",
"3. c #8BBB4F",
"4. c #8AAC62",
"5. c #84BF73",
"6. c #86BF76",
"7. c #9FBA7B",
"8. c #DF8955",
"9. c #9CC854",
"0. c #80D35F",
"q. c #AFCA46",
"w. c #88C279",
"e. c #89C47A",
"r. c #D5DF5C",
"t. c #D8DD58",
"y. c #F6D342",
"u. c #F7D546",
"i. c #FADB42",
"p. c #FBDC47",
"a. c #F7D64B",
"s. c #FCDB4B",
"d. c #F7C853",
"f. c #F7CD5D",
"g. c #E9D751",
"h. c #F3DD53",
"j. c #F8D850",
"k. c #F9DB55",
"l. c #F9DA57",
"z. c #F9DA58",
"x. c #FADD5C",
"c. c #FAE042",
"v. c #FBE047",
"b. c #FCE14C",
"n. c #FDE351",
"m. c #FDE554",
"M. c #FEE559",
"N. c #FBDD60",
"B. c #FCDD65",
"V. c #FCE069",
"C. c #FDE26D",
"Z. c #FDE271",
"A. c #FEE274",
"S. c #FEE577",
"D. c #FEE479",
"F. c #FEE47B",
/* pixels */
", , , , ( 9 , 0 8 - 6 7 * * $ $ ",
", 7.D.D.S.A.Z.C.V.B.N.x.l.d.Y @ ",
": e.W r.M.m.m.b.v.c.2.>.| B S + ",
", e.Q Q 9.g.s.p.i.<.$.^ v l A + ",
", e.r.I H L q.y t _ V z k h A + ",
"- w.n.8.H F r *.%.w x k f f C + ",
": W 3.T F V ` e q ~ c a p u M o ",
": E J F 3.} ;.#.+...' b p u m . ",
"; R !  .1.>.#.+.o.{ [ ] ) g n . ",
"- 4.f.z.k.s.a.u.y.,.=.-.&.X.N   ",
"* * * $ 5 2 $ 4 2 + < 1 . . . . "
};
