/* XPM */
/* Copyright (c) 2017 Sebastiano Pistore SebastianoPistore.info@protonmail.ch */
/* This program is free software; you can redistribute it and/or modify */
/* it under the terms of the GNU General Public License as published by */
/* the Free Software Foundation; either version 2 of the License, or */
/* (at your option) any later version. */
static const char *gg[] = {
/* width height num_colors chars_per_pixel */
"    16    11      256            2",
/* colors */
"`` c #070707",
"`. c #080808",
"`# c #0d0405",
"`a c #170103",
"`b c #1f0103",
"`c c #888888",
"`d c #8e8e8e",
"`e c #958b8a",
"`f c #a0817f",
"`g c #825957",
"`h c #968a8a",
"`i c #f5f3f4",
"`j c #f6f4f5",
"`k c #f6f4f7",
"`l c #fff0ec",
"`m c #ffdcd3",
"`n c #c17f73",
"`o c #ffefee",
"`p c #f5f5f3",
"`q c #ffe4e8",
"`r c #ffe5e6",
"`s c #ffe8e3",
"`t c #ffe6d8",
"`u c #ffd5be",
"`v c #e39277",
"`w c #ffd4be",
"`x c #ffe5da",
"`y c #ffe7e5",
"`z c #f27f86",
"`A c #f38087",
"`B c #f27d85",
"`C c #ef8182",
"`D c #f29586",
"`E c #fca589",
"`F c #fca379",
"`G c #fb9f6e",
"`H c #fea279",
"`I c #fea489",
"`J c #f29584",
"`K c #ee8280",
"`L c #f17e83",
"`M c #f47f87",
"`N c #f37e86",
"`O c #d65d64",
"`P c #d85c66",
"`Q c #d26060",
"`R c #da7969",
"`S c #e99072",
"`T c #eb9064",
"`U c #ffa572",
"`V c #ea8f72",
"`W c #dc7869",
"`X c #d2605f",
"`Y c #d65d62",
"`Z c #d85c64",
"`0 c #ffc7ca",
"`1 c #ffc6cc",
"`2 c #fec7ca",
"`3 c #fccfc9",
"`4 c #ffd2c1",
"`5 c #ffc5a9",
"`6 c #e89575",
"`7 c #e69675",
"`8 c #ffd1c3",
".` c #fecfc9",
".. c #fcc9c8",
".# c #ffeff1",
".a c #fff0f1",
".b c #fff1f0",
".c c #ffefe8",
".d c #ffdace",
".e c #d28b79",
".f c #ffdbce",
".g c #ffeeea",
".h c #fff0f0",
".i c #ede7e7",
".j c #eee8e8",
".k c #ede9e8",
".l c #f7e5e3",
".m c #ffd3d0",
".n c #ad726e",
".o c #ece8e7",
".p c #212121",
".q c #262626",
".r c #2d2322",
".s c #3c1e20",
".t c #4c2526",
".u c #4d2526",
".v c #3c1e1e",
".w c #2d2324",
".x c #252726",
".y c #202221",
".z c #000000",
".A c #030000",
".B c #070000",
".C c #080000",
".D c #0a0000",
".E c #000000",
".F c #000000",
".G c #000000",
".H c #000000",
".I c #000000",
".J c #000000",
".K c #000000",
".L c #000000",
".M c #000000",
".N c #000000",
".O c #000000",
".P c #000000",
".Q c #000000",
".R c #000000",
".S c #000000",
".T c #000000",
".U c #000000",
".V c #000000",
".W c #000000",
".X c #000000",
".Y c #000000",
".Z c #000000",
".0 c #000000",
".1 c #000000",
".2 c #000000",
".3 c #000000",
".4 c #000000",
".5 c #000000",
".6 c #000000",
".7 c #000000",
".8 c #000000",
"#` c #000000",
"#. c #000000",
"## c #000000",
"#a c #000000",
"#b c #000000",
"#c c #000000",
"#d c #000000",
"#e c #000000",
"#f c #000000",
"#g c #000000",
"#h c #000000",
"#i c #000000",
"#j c #000000",
"#k c #000000",
"#l c #000000",
"#m c #000000",
"#n c #000000",
"#o c #000000",
"#p c #000000",
"#q c #000000",
"#r c #000000",
"#s c #000000",
"#t c #000000",
"#u c #000000",
"#v c #000000",
"#w c #000000",
"#x c #000000",
"#y c #000000",
"#z c #000000",
"#A c #000000",
"#B c #000000",
"#C c #000000",
"#D c #000000",
"#E c #000000",
"#F c #000000",
"#G c #000000",
"#H c #000000",
"#I c #000000",
"#J c #000000",
"#K c #000000",
"#L c #000000",
"#M c #000000",
"#N c #000000",
"#O c #000000",
"#P c #000000",
"#Q c #000000",
"#R c #000000",
"#S c #000000",
"#T c #000000",
"#U c #000000",
"#V c #000000",
"#W c #000000",
"#X c #000000",
"#Y c #000000",
"#Z c #000000",
"#0 c #000000",
"#1 c #000000",
"#2 c #000000",
"#3 c #000000",
"#4 c #000000",
"#5 c #000000",
"#6 c #000000",
"#7 c #000000",
"#8 c #000000",
"a` c #000000",
"a. c #000000",
"a# c #000000",
"aa c #000000",
"ab c #000000",
"ac c #000000",
"ad c #000000",
"ae c #000000",
"af c #000000",
"ag c #000000",
"ah c #000000",
"ai c #000000",
"aj c #000000",
"ak c #000000",
"al c #000000",
"am c #000000",
"an c #000000",
"ao c #000000",
"ap c #000000",
"aq c #000000",
"ar c #000000",
"as c #000000",
"at c #000000",
"au c #000000",
"av c #000000",
"aw c #000000",
"ax c #000000",
"ay c #000000",
"az c #000000",
"aA c #000000",
"aB c #000000",
"aC c #000000",
"aD c #000000",
"aE c #000000",
"aF c #000000",
"aG c #000000",
"aH c #000000",
"aI c #000000",
"aJ c #000000",
"aK c #000000",
"aL c #000000",
"aM c #000000",
"aN c #000000",
"aO c #000000",
"aP c #000000",
"aQ c #000000",
"aR c #000000",
"aS c #000000",
"aT c #000000",
"aU c #000000",
"aV c #000000",
"aW c #000000",
"aX c #000000",
"aY c #000000",
"aZ c #000000",
"a0 c #000000",
"a1 c #000000",
"a2 c #000000",
"a3 c #000000",
"a4 c #000000",
"a5 c #000000",
"a6 c #000000",
"a7 c #000000",
"a8 c #000000",
/* pixels */
"`````.`.`.`#`a`b`b`a`#`.`.`.````",
"`c`d`d`d`d`e`f`g`g`f`h`d`d`d`d`c",
"`i`j`k`j`j`l`m`n`n`m`o`j`p`p`j`i",
"`q`q`q`r`s`t`u`v`v`w`x`s`y`r`r`q",
"`z`A`B`C`D`E`F`G`G`H`I`J`K`L`M`N",
"`O`O`P`Q`R`S`T`U`U`T`V`W`X`Y`Z`Z",
"`0`0`1`2`3`4`5`6`7`5`8.`..`2`0`0",
".#.#.#.a.b.c.d.e.e.f.g.h.a.a.#.#",
".i.j.j.j.k.l.m.n.n.m.l.j.j.j.k.o",
".p.q.q.q.q.r.s.t.u.v.w.q.q.q.x.y",
".z.z.z.z.z.A.B.C.D.B.A.z.z.z.z.z"
};
