/* XPM */
static char *gi[] = {
/* columns rows colors chars-per-pixel */
"16 11 113 2",
"   c #B93D35",
".  c #D50000",
"X  c #DD0000",
"o  c #DF0000",
"O  c #E10000",
"+  c #E30000",
"@  c #E50000",
"#  c #E70000",
"$  c #E90000",
"%  c #ED0000",
"&  c #EF0000",
"*  c #F10000",
"=  c #F30000",
"-  c #F50000",
";  c #F70000",
":  c #F91505",
">  c #DE3D31",
",  c #F2382C",
"<  c #F23B2F",
"1  c #F23F32",
"2  c #E1483C",
"3  c #F34135",
"4  c #F04337",
"5  c #F44639",
"6  c #F2483B",
"7  c #F54A3D",
"8  c #AD6965",
"9  c #F24D41",
"0  c #F14E43",
"q  c #E8554A",
"w  c #F45042",
"e  c #F15245",
"r  c #F35A41",
"t  c #F15448",
"y  c #F2584C",
"u  c #F4584D",
"i  c #EC5E54",
"p  c #F05B51",
"a  c #F35C51",
"s  c #F55E53",
"d  c #F85B50",
"f  c #F95F55",
"g  c #F76055",
"h  c #F96358",
"j  c #FA685D",
"k  c #F26A60",
"l  c #F86B61",
"z  c #FB6B62",
"x  c #F86D63",
"c  c #F7776E",
"v  c #F9746A",
"b  c #FA786E",
"n  c #FA7C72",
"m  c #E1A13F",
"M  c #E8A73C",
"N  c #EEAB58",
"B  c #EBB055",
"V  c #FB847C",
"C  c #FC948D",
"Z  c #C9C7C7",
"A  c #CBCBCB",
"S  c #CDCDCD",
"D  c gray81",
"F  c gray82",
"G  c #D5D5D5",
"H  c #D7D7D7",
"J  c gray85",
"K  c gray86",
"L  c #DFDFDF",
"P  c #E3CAC8",
"I  c #EDCCCA",
"U  c #EBD3D0",
"Y  c #EDD4D3",
"T  c #F1DEDD",
"R  c #F7E0DE",
"E  c #E1E1E1",
"W  c gray89",
"Q  c gray90",
"!  c #E7E7E7",
"~  c #EFE2E1",
"^  c #E9E7E7",
"/  c #EEE5E4",
"(  c #E9E9E9",
")  c gray92",
"_  c gray93",
"`  c #EFEFEF",
"'  c #F7E5E4",
"]  c #F9E3E2",
"[  c #F2F1F1",
"{  c gray95",
"}  c #F3F2F2",
"|  c #F3F3F3",
" . c #F7F2F1",
".. c #F6F3F3",
"X. c #F4F4F4",
"o. c #F4F5F5",
"O. c gray96",
"+. c #F6F6F6",
"@. c gray97",
"#. c #FAF3F3",
"$. c #F8F8F8",
"%. c #F9F9F9",
"&. c gray98",
"*. c #FBFAFA",
"=. c #FBFBFB",
"-. c #FBFCFB",
";. c gray99",
":. c #FDFCFC",
">. c #FDFCFD",
",. c #FDFDFD",
"<. c #FDFDFE",
"1. c #FEFEFE",
"2. c gray100",
/* pixels */
"` ` ` ` _ _ ) ! ) ! W W E T J J ",
"` 2.2.2.:.2.:.2.=.=.=.=.%.$.o.G ",
"` 2.2.2.2.=.#.V ' =.=.$.$.o.o.J ",
"` 2.=.2.2.] l i s T $.$.o.o.o.F ",
") 2.2.:.2.Y i 8 q Y %.o.o.o.o.D ",
") 2.=.=.=.c 7 6 4 0 ..o.o.o.o.S ",
") 2.=.=.=.I 2   > P o.X.{ { o.A ",
"! =.=.=.=. .~ m T ~ o.{ { { { Z ",
": C n b v x f M r y a t t e k o ",
"; l j h g u N B w 7 5 4 3 < < o ",
"; * * & & & # . # # + + o X o X "
};
