/* XPM */
static char *gl[] = {
/* columns rows colors chars-per-pixel */
"16 11 124 2",
"   c #DD0000",
".  c #DF0000",
"X  c #E10000",
"o  c #E30000",
"O  c #E50000",
"+  c #E70000",
"@  c #E90000",
"#  c #EB0000",
"$  c #ED0000",
"%  c #EF0000",
"&  c #F10000",
"*  c #F30000",
"=  c #F50000",
"-  c #F70000",
";  c #F90000",
":  c #FB0000",
">  c #FD0000",
",  c #F10B0B",
"<  c #F10F0E",
"1  c #E51111",
"2  c #F21010",
"3  c #F21313",
"4  c #F21414",
"5  c #F31919",
"6  c #F41E1E",
"7  c #F41F1F",
"8  c #F52424",
"9  c #F22C2C",
"0  c #F22F2F",
"q  c #F23232",
"w  c #F33232",
"e  c #F33535",
"r  c #F43636",
"t  c #F43939",
"y  c #F53D3D",
"u  c #F93B3C",
"i  c #F64242",
"p  c #FA4141",
"a  c #FA4444",
"s  c #FB4646",
"d  c #FA4647",
"f  c #FB4747",
"g  c #FB4B4B",
"h  c #FC4B4B",
"j  c #FD4F50",
"k  c #F75252",
"l  c #FA5151",
"z  c #FD5151",
"x  c #F95455",
"c  c #FD5454",
"v  c #FD5555",
"b  c #F55858",
"n  c #F95858",
"m  c #FA5D5D",
"M  c #FD5E5E",
"N  c #FB6162",
"B  c #FD6565",
"V  c #FC6666",
"C  c #FC6767",
"Z  c #F56E6E",
"A  c #F86A6A",
"S  c #FC6A6A",
"D  c #FC6D6D",
"F  c #FD6F6F",
"G  c #F77070",
"H  c #F87575",
"J  c #F38787",
"K  c #F48B8B",
"L  c #F58E8E",
"P  c #F69191",
"I  c #F79494",
"U  c #FE9292",
"Y  c #FE9393",
"T  c #F89797",
"R  c #F49898",
"E  c #F99A9A",
"W  c #FA9D9D",
"Q  c #FBA0A1",
"!  c #FCA3A3",
"~  c #FCA5A5",
"^  c #FDA9A9",
"/  c #F6B6B6",
"(  c #FEB9B9",
")  c #F9BEBE",
"_  c #D5D5D5",
"`  c #D7D7D7",
"'  c gray85",
"]  c #DDDDDD",
"[  c #DFDFDF",
"{  c #FBC0C0",
"}  c #FBC2C2",
"|  c #F9CFCF",
" . c #F6DCDC",
".. c #E1E1E1",
"X. c gray89",
"o. c gray90",
"O. c #E7E7E7",
"+. c #E9E9E9",
"@. c gray92",
"#. c gray93",
"$. c #EFEFEF",
"%. c #FEE3E3",
"&. c #FDE5E5",
"*. c #FEEDED",
"=. c #EFEFF1",
"-. c #F1F1F1",
";. c #F6F2F2",
":. c #F4F4F4",
">. c gray96",
",. c #F7F4F4",
"<. c #F6F6F6",
"1. c gray97",
"2. c #F8F1F1",
"3. c #FEF2F2",
"4. c #FDF7F7",
"5. c #F8F8F8",
"6. c #F9F9F9",
"7. c gray98",
"8. c #FBFBFB",
"9. c #FBFCFB",
"0. c gray99",
"q. c #FEFDFD",
"w. c #FEFEFE",
"e. c gray100",
/* pixels */
"-.-.-.-.-.=.$.$.@.@.+.O.o.X...[ ",
"-.e.e.e.e.*.&.4.0.0.8.8.5.5.1.] ",
"-.e.e.3.U M v C } 8.5.5.1.1.1.' ",
"-.e.0.U v z g s s | 5.1.1.:.1.` ",
"-.e.%.c h h s p u H 1.1.:.:.:._ ",
"B ( ^ ~ ! ! W E I I P L K J R 1 ",
": F F 8.0.8.1.5.5./ 8 7 5 4 r X ",
": S g ) 8.8.1.1.;.b 7 5 4 2 w . ",
"- C s l ) 2.1. .Z 7 5 3 < , 0 . ",
"- B m v x A Z k i y t r w 0 9   ",
"& - & $ $ $ @ @ + + X X .       "
};
