/* XPM */
static char *gq[] = {
/* columns rows colors chars-per-pixel */
"16 11 157 2",
"   c #004300",
".  c #004D00",
"X  c #005D00",
"o  c #006100",
"O  c #006300",
"+  c #006700",
"@  c #006D00",
"#  c #007100",
"$  c #007500",
"%  c #007900",
"&  c #007D00",
"*  c #990000",
"=  c #9B0000",
"-  c #9D0000",
";  c #A10000",
":  c #A30000",
">  c #A50000",
",  c #A90000",
"<  c #AB0000",
"1  c #AF0000",
"2  c #B30000",
"3  c #B70000",
"4  c #B90000",
"5  c #BD0000",
"6  c #CD0000",
"7  c #CC1D1D",
"8  c #CE201F",
"9  c #CF2424",
"0  c #D12929",
"q  c #D32E2E",
"w  c #D73535",
"e  c #D73939",
"r  c #D33E3E",
"t  c #D73D3D",
"y  c #D44343",
"u  c #D54646",
"i  c #D94242",
"p  c #D64A4A",
"a  c #D74C4C",
"s  c #DB4848",
"d  c #DE4C4B",
"f  c #D85050",
"g  c #D95454",
"h  c #DB5757",
"j  c #DD5C5C",
"k  c #E05959",
"l  c #DD6060",
"z  c #DF6364",
"x  c #E16869",
"c  c #E26C6C",
"v  c #E46F6F",
"b  c #008100",
"n  c #008300",
"m  c #008700",
"M  c #008900",
"N  c #2CA12C",
"B  c #31A431",
"V  c #37A737",
"C  c #3DAA3D",
"Z  c #42AD42",
"A  c #49AE49",
"S  c #47B047",
"D  c #4CB34C",
"F  c #4EB44E",
"G  c #51B451",
"H  c #53B753",
"J  c #54B754",
"K  c #58B957",
"L  c #59B859",
"P  c #5CBA5C",
"I  c #5CBB5C",
"U  c #5FBD5F",
"Y  c #61BE60",
"T  c #65C065",
"R  c #69C269",
"E  c #6DC36D",
"W  c #70C571",
"Q  c #74C774",
"!  c #77C877",
"~  c #79C979",
"^  c #7BCA7B",
"/  c #005FDD",
"(  c #0071F5",
")  c #007BFB",
"_  c #007DF9",
"`  c #037FFD",
"'  c #1389DF",
"]  c #0783FD",
"[  c #0D87FD",
"{  c #1187FF",
"}  c #1589FB",
"|  c #1589FF",
" . c #7CBBFC",
".. c #8ABF85",
"X. c #B9BFB9",
"o. c #90C38B",
"O. c #BDC4BE",
"+. c #F8EFB6",
"@. c #F9F0B8",
"#. c #9EA5D0",
"$. c #80BEFD",
"%. c #83BFFE",
"&. c #91BEF3",
"*. c #BFC1C2",
"=. c #8FCAE9",
"-. c #88C1FC",
";. c #88C3FD",
":. c #8FC5FC",
">. c #9ACDF7",
",. c #91C8FE",
"<. c #98C9FA",
"1. c #99CBFE",
"2. c #9BCDFE",
"3. c #A1D0FD",
"4. c #C5C8C9",
"5. c #DDD7D5",
"6. c #D8DCDD",
"7. c gray87",
"8. c #DFE5DF",
"9. c #DEE2E2",
"0. c #E1E0E0",
"q. c gray89",
"w. c gray90",
"e. c #E7E7E7",
"r. c #F1EDED",
"t. c #F1EEEE",
"y. c #F2EEEE",
"u. c #F2EFEF",
"i. c #E9F7FB",
"p. c #F3F0F0",
"a. c gray95",
"s. c #F3F3F3",
"d. c #F4F1F1",
"f. c #F1F4F1",
"g. c #F2F5F2",
"h. c #F3F6F3",
"j. c #F4F7F3",
"k. c #F4F4F4",
"l. c #F4F5F5",
"z. c gray96",
"x. c #F6F6F6",
"c. c gray97",
"v. c #F8F4F4",
"b. c #F9F5F5",
"n. c #F9F6F6",
"m. c #FAF7F7",
"M. c #F5F8F5",
"N. c #F7FAF7",
"B. c #F1F6FD",
"V. c #F8F8F8",
"C. c #F8FBF8",
"Z. c #F9FBF9",
"A. c gray98",
"S. c #FBFBFB",
"D. c #F9FCF9",
"F. c gray99",
"G. c #FDFCFD",
/* pixels */
"' M M M m n n & $ $ # @ + O X O ",
"} =.~ ~ ! Q W E R T Y I K H F . ",
"| >.Y P K J G D S Z C V B N A   ",
"{ 2.3.D.A.A.N.+.+.M.j.h.h.f.h.8.",
"[ 1.$.B.G.G.A.o...c.c.c.k.k.k.e.",
"] ,.$.;.S.S.A.O.X.c.c.k.k.f.z.w.",
"` ;. .i.S.A.9.4.*.6.k.k.k.f.k.q.",
") :.<.m.m.m.v.0.0.p.p.r.r.r.p.5.",
"_ &.k d s i t e w q 0 9 8 7 r * ",
"( #.v c x z l j h g f a p u y * ",
"/ 6 5 4 3 2 2 , , > : : - * * - "
};
