/* XPM */
static char *gr[] = {
/* columns rows colors chars-per-pixel */
"16 11 151 2",
"   c #000087",
".  c #00008B",
"X  c #00008F",
"o  c #000091",
"O  c #000093",
"+  c #000097",
"@  c #00009B",
"#  c #00009F",
"$  c #0000A3",
"%  c #0000A7",
"&  c #0000AB",
"*  c #0001AB",
"=  c #0007AD",
"-  c #000FAF",
";  c #0018A1",
":  c #0017B3",
">  c #001DB7",
",  c #0721A9",
"<  c #0A34A1",
"1  c #0023B9",
"2  c #0029BD",
"3  c #002FBF",
"4  c #0035C1",
"5  c #0335C3",
"6  c #073BC3",
"7  c #093DC3",
"8  c #093BC4",
"9  c #0D3FC5",
"0  c #2B56C8",
"q  c #2D57C9",
"w  c #2F58CA",
"e  c #315ACB",
"r  c #335CCC",
"t  c #355ECD",
"y  c #375FCC",
"u  c #3760CD",
"i  c #3961CE",
"p  c #3C63CF",
"a  c #3D65D0",
"s  c #3F67D1",
"d  c #5876C8",
"f  c #4C71D4",
"g  c #4D71D4",
"h  c #4D72D5",
"j  c #4F73D5",
"k  c #7A92D9",
"l  c #7C95DA",
"z  c #8182C8",
"x  c #8184CD",
"c  c #8098DC",
"v  c #849CDD",
"b  c #899FD8",
"n  c #889FDE",
"m  c #8CA1D9",
"M  c #8FA3DA",
"N  c #8CA2DD",
"B  c #92A5DC",
"V  c #95A8DE",
"C  c #97AADF",
"Z  c #9BACDD",
"A  c #AAB0C7",
"S  c #8BA2E0",
"D  c #8FA5E1",
"F  c #92A7E3",
"G  c #97AAE0",
"H  c #9AADE1",
"J  c #9DAFE2",
"K  c #A0B2E3",
"L  c #A3B5E5",
"P  c #A6B7E6",
"I  c #A9BAE7",
"U  c #B3C0E4",
"Y  c #B5C1E5",
"T  c #B5C2E7",
"R  c #B6C3E6",
"E  c #B8C4E6",
"W  c #BAC5E7",
"Q  c #BDC8E7",
"!  c #B7C4E8",
"~  c #B9C5E9",
"^  c #BBC7E8",
"/  c #BBC7E9",
"(  c #B9C6ED",
")  c #BDC8E9",
"_  c #BECAE9",
"`  c #BCC8EA",
"'  c #BFCAEA",
"]  c #BECAEB",
"[  c #C8CAD6",
"{  c #D0D0D4",
"}  c #D5D5D5",
"|  c #D2D6DD",
" . c #C0CCEA",
".. c #C2CDEB",
"X. c #C0CBEC",
"o. c #C2CCEC",
"O. c #C4CEEC",
"+. c #C5D0ED",
"@. c #CFD7EF",
"#. c #D9DFF1",
"$. c #E2E2E2",
"%. c #E0E3ED",
"&. c #E2E4ED",
"*. c #E2E5EF",
"=. c #E8E8EC",
"-. c #E3E6F0",
";. c #E4E7F0",
":. c #E5E8F1",
">. c #E6E9F2",
",. c #E8EAF3",
"<. c #ECEEF2",
"1. c #E8ECF4",
"2. c #E9EDF5",
"3. c #EBEDF6",
"4. c #EDEFF4",
"5. c #EDEEF7",
"6. c #EEF0F4",
"7. c #EFF0F5",
"8. c #EDF0F7",
"9. c #EEF1F8",
"0. c #F0F0F1",
"q. c #F0F0F2",
"w. c #F1F2F3",
"e. c #F2F2F3",
"r. c #F3F3F4",
"t. c #F0F2F6",
"y. c #F1F3F7",
"u. c #F2F4F7",
"i. c #F4F4F5",
"p. c #F4F5F7",
"a. c #F5F5F7",
"s. c #F2F3F8",
"d. c #F3F4F9",
"f. c #F3F5FA",
"g. c #F5F6F8",
"h. c #F6F6F8",
"j. c #F6F7F9",
"k. c #F7F7F9",
"l. c #F7F7FA",
"z. c #F7F8FB",
"x. c #F7F9FC",
"c. c #F8F8F9",
"v. c #F9F9FA",
"b. c #FAFAFB",
"n. c #FBFBFB",
"m. c #F8F9FC",
"M. c #F9FAFC",
"N. c gray99",
"B. c #FDFDFD",
"V. c #FEFEFE",
"C. c gray100",
/* pixels */
"9 9 } } 7 8 5 3 2 1 > : - = * % ",
"9 j V.V.g f z.z.z.z.l.l.l.u.u.| ",
"$.V.V.V.V.V...X.' / / / ! T ' x ",
"$.V.V.V.V.V.F D S N v l l k N ; ",
"6 j V.N.s s f.f.u.t.t.6.4.<.6.[ ",
"5 f V.N.s i i u y r e w q 0 y , ",
"=.N.n.n.l.n.l.a.a.a.e.e.e.6.e.{ ",
"G @.+.O...' ' W W W E T Y U Q z ",
"d ( I P P J J Z C C B B m b Z < ",
"#.9.9.4.3.2.2.,.>.;.*.*.*.&.%.A ",
": - = * % $ # @ + O O X . .     "
};
