/* XPM */
static char *gs[] = {
/* columns rows colors chars-per-pixel */
"16 11 149 2",
"   c black",
".  c #000005",
"X  c #000007",
"o  c #00000D",
"O  c #000015",
"+  c #00001B",
"@  c #000023",
"#  c #000027",
"$  c #000029",
"%  c #00002B",
"&  c #00002F",
"*  c #000031",
"=  c #000037",
"-  c #000039",
";  c #5F0D3F",
":  c #6F032D",
">  c #000043",
",  c #000059",
"<  c #00005D",
"1  c #0B0B64",
"2  c #15156F",
"3  c #18196D",
"4  c #00007D",
"5  c #1A1A73",
"6  c #1E1E74",
"7  c #232377",
"8  c #242474",
"9  c #2A2A79",
"0  c #29297B",
"q  c #2A2A7B",
"w  c #2C2C7A",
"e  c #2C2C7B",
"r  c #2F2F7C",
"t  c #2F2F7D",
"y  c #2E2E7F",
"u  c #2F2F7F",
"i  c #32327F",
"p  c #36367F",
"a  c #3A377F",
"s  c #46467C",
"d  c #97112D",
"f  c #A52137",
"g  c #FF1B00",
"h  c #972F4F",
"j  c #E75959",
"k  c #EA655F",
"l  c #FC6950",
"z  c #E36261",
"x  c #F06A62",
"c  c #F16F67",
"v  c #E57A79",
"b  c #E47D7E",
"n  c #F97971",
"m  c #598E5E",
"M  c #313182",
"N  c #333382",
"B  c #353581",
"V  c #343483",
"C  c #3B3B83",
"Z  c #393984",
"A  c #383986",
"S  c #3A3A86",
"D  c #3C3C85",
"F  c #3D3C86",
"G  c #3D3D86",
"H  c #3F3F87",
"J  c #3F3F8A",
"K  c #403F8A",
"L  c #40408A",
"P  c #42428A",
"I  c #42428C",
"U  c #46468D",
"Y  c #44448E",
"T  c #45458E",
"R  c #45458F",
"E  c #48448B",
"W  c #49498F",
"Q  c #50498D",
"!  c #494991",
"~  c #4B4B90",
"^  c #494A92",
"/  c #4E4E93",
"(  c #4F4F94",
")  c #505093",
"_  c #535396",
"`  c #545496",
"'  c #53539B",
"]  c #585798",
"[  c #585899",
"{  c #5C5C9B",
"}  c #5D5D9D",
"|  c #61609E",
" . c #61619F",
".. c #686A99",
"X. c #75729F",
"o. c #4F67AF",
"O. c #6565A1",
"+. c #6666A3",
"@. c #6B6BA4",
"#. c #6A6AA5",
"$. c #6F6FA8",
"%. c #7070A2",
"&. c #7777A8",
"*. c #7E7EAB",
"=. c #7A7FB4",
"-. c #8A6088",
";. c #8B648D",
":. c #A47B9B",
">. c #AA7E98",
",. c #6587C7",
"<. c #77A3DB",
"1. c #7AB6F0",
"2. c #95969A",
"3. c #B5B583",
"4. c #8686B4",
"5. c #8B85B3",
"6. c #9BB8B8",
"7. c #D88085",
"8. c #D8848C",
"9. c #D38C96",
"0. c #E78D8C",
"q. c #FD9981",
"w. c #C891A0",
"e. c #DAA3AC",
"r. c #DAB3BD",
"t. c #FEBCAC",
"y. c #CAC39F",
"u. c #D3CEA2",
"i. c #FDC9B8",
"p. c #C1C1D4",
"a. c #C5C5D7",
"s. c #C8C8D9",
"d. c #CACADA",
"f. c #FFCAC4",
"g. c #FBDAC6",
"h. c #E8CAD0",
"j. c #EBCED3",
"k. c #FEDFD1",
"l. c #DEDFE6",
"z. c #E3E2E3",
"x. c #E1E1E8",
"c. c #E4E4EC",
"v. c #EBECEB",
"b. c #E8E8EC",
"n. c #E9E9EE",
"m. c #EEEEEE",
"M. c #F3F3F4",
"N. c #FDFDF7",
"B. c #F9FFFF",
/* pixels */
"n 5., d f < : q.> & $ @ + O o X ",
"4 f.B.r.e.j.N.<.@.O.| { ` ` /   ",
"g b c k j x k l W P F S V e W   ",
"; h.t.v 0.i.7.>.E F 5.b.M.d.*.  ",
",.k.=.9.8.1.g.:.F p c.v...x.d.  ",
"h X.' ;.-.s o.w.a i M.6.m 2.n.  ",
"- $.( ! T L S V i 9 l.u.3.y.a.  ",
"= #.! T K S V u 9 8 &.z.m.p.$.  ",
"* O.T L S V u 9 7 6 3 5 2 1 u   ",
"$ | } [ ` ) ! T L F C V i r e   ",
"$ + O o X                       "
};
