/* XPM */
static char *gt[] = {
/* columns rows colors chars-per-pixel */
"16 11 137 2",
"   c #0000DD",
".  c #0000DF",
"X  c #0000E1",
"o  c #0000E3",
"O  c #0000E5",
"+  c #0003E7",
"@  c #0009E7",
"#  c #0011E9",
"$  c #0015EB",
"%  c #0019ED",
"&  c #0023EF",
"*  c #0025EF",
"=  c #002DEF",
"-  c #002DF1",
";  c #0031F3",
":  c #0033F3",
">  c #0035F5",
",  c #003DF7",
"<  c #0045F5",
"1  c #0047F9",
"2  c #004DFB",
"3  c #0051FD",
"4  c #0053FD",
"5  c #0055FD",
"6  c #0059FD",
"7  c #005BFF",
"8  c #005DFF",
"9  c #005FFF",
"0  c #0367FF",
"q  c #1F73F1",
"w  c #2375F1",
"e  c #2376F2",
"r  c #2476F2",
"t  c #2879F2",
"y  c #297AF2",
"u  c #297AF3",
"i  c #2D7CF3",
"p  c #2E7DF3",
"a  c #2E7EF4",
"s  c #3280F4",
"d  c #3481F4",
"f  c #3482F5",
"g  c #3D86F2",
"h  c #3883F5",
"j  c #3985F5",
"k  c #3986F6",
"l  c #3D87F6",
"z  c #3E88F6",
"x  c #3F89F7",
"c  c #4087F2",
"v  c #4289F3",
"b  c #428AF3",
"n  c #448AF3",
"m  c #438BF7",
"M  c #478DF4",
"N  c #4B8FF5",
"B  c #458DF8",
"V  c #458DF9",
"C  c #4B90FA",
"Z  c #4F93FA",
"A  c #5093F5",
"S  c #5596F6",
"D  c #5999F7",
"F  c #5E9CF7",
"G  c #5094FB",
"H  c #5597FA",
"J  c #5497FB",
"K  c #5597FC",
"L  c #599BFB",
"P  c #5A9BFB",
"I  c #5E9CF9",
"U  c #5A9BFD",
"Y  c #5E9EFC",
"T  c #5F9EFC",
"R  c #5E9EFD",
"E  c #629EF8",
"W  c #66A1F9",
"Q  c #66A2F9",
"!  c #63A0FD",
"~  c #63A1FD",
"^  c #62A1FE",
"/  c #66A3FE",
"(  c #67A3FE",
")  c #68A3FA",
"_  c #6BA5FA",
"`  c #6AA5FE",
"'  c #6AA6FE",
"]  c #6FA8FB",
"[  c #6EA8FE",
"{  c #74AAFC",
"}  c #78AEFC",
"|  c #7CAFFD",
" . c #7FB1FE",
".. c #7FB2FE",
"X. c #82B3FE",
"o. c #84B5FE",
"O. c #85B5FE",
"+. c #87B7FF",
"@. c #BBC1CB",
"#. c gray81",
"$. c #CBCFD7",
"%. c gray82",
"&. c LightGray",
"*. c #D7D7D7",
"=. c #D9DDE5",
"-. c #E7E7E7",
";. c #E3E7ED",
":. c #E9E9E9",
">. c gray92",
",. c #EAEEF3",
"<. c #EBEEF4",
"1. c #EDEFF4",
"2. c #ECEFF5",
"3. c #EEF1F6",
"4. c #EFF2F7",
"5. c #F4F4F4",
"6. c gray96",
"7. c #F6F6F6",
"8. c gray97",
"9. c #F0F4F8",
"0. c #F1F5F9",
"q. c #F2F4F8",
"w. c #F3F5F8",
"e. c #F3F5F9",
"r. c #F4F6FA",
"t. c #F5F7FB",
"y. c #F6F8FC",
"u. c #F7F9FD",
"i. c #F8F8F8",
"p. c #F9F9F9",
"a. c gray98",
"s. c #FBFBFB",
"d. c #F8FAFD",
"f. c #FAFBFE",
"g. c gray99",
"h. c #FDFDFD",
"j. c #FDFDFE",
/* pixels */
"0 9 9 9 5 ;.>.>.:.-.=.> ; - * = ",
"7 +.+.o. .f.h.h.h.a.t.Q Q E F $ ",
"9 +.[ ` ^ y.h.h.a.a.t.B m z D # ",
"7 +.` ( T u.h.a.a.a.4.z l j S @ ",
"7 X.( ^ U y.a.a.p.t.9.j h d A + ",
"4  .E T K t.a.p.p.8.4.d s p N + ",
"4 | T P Z t.t.i.8.8.2.p i t M o ",
"2 } P H C t.i.8.8.5.<.t t w M . ",
"1 { H Z V q.8.8.5.5.<.w w w g . ",
", ] _ Q I 5.8.8.8.5.1.b b g g . ",
"< ; - & % $.*.&.%.#.@.. .       "
};
