/* XPM */
static char *gw[] = {
/* columns rows colors chars-per-pixel */
"16 11 151 2",
"   c #002300",
".  c #002500",
"X  c #002700",
"o  c #002D00",
"O  c #002F00",
"+  c #003100",
"@  c #003300",
"#  c #003500",
"$  c #003900",
"%  c #003B00",
"&  c #003D00",
"*  c #004100",
"=  c #004700",
"-  c #5B5353",
";  c #654F4F",
":  c #664F4F",
">  c #6F5858",
",  c #ED0000",
"<  c #EF0000",
"1  c #F10000",
"2  c #F30000",
"3  c #F50000",
"4  c #F70000",
"5  c #F90000",
"6  c #FB0000",
"7  c #FD0000",
"8  c red",
"9  c #F93A3A",
"0  c #FA3F3F",
"q  c #8D7273",
"w  c #D44A49",
"e  c #DC5454",
"r  c #FA4444",
"t  c #FB4545",
"y  c #FB4949",
"u  c #FB4A4B",
"i  c #FC4F50",
"p  c #F95455",
"a  c #FD5454",
"s  c #F95858",
"d  c #FE5959",
"f  c #FA5D5D",
"g  c #FD5C5C",
"h  c #FE5C5C",
"j  c #FE5F5F",
"k  c #FB6162",
"l  c #FC6666",
"z  c #F66F6F",
"x  c #FC6A6A",
"c  c #F57676",
"v  c #FE7777",
"b  c #FE7979",
"n  c #FF7B7A",
"m  c #FF7B7B",
"M  c #118F00",
"N  c #0B950B",
"B  c #0F970E",
"V  c #109710",
"C  c #139913",
"Z  c #149914",
"A  c #149A14",
"S  c #199C19",
"D  c #189D19",
"F  c #199D19",
"G  c #1F9F1F",
"H  c #1EA01E",
"J  c #1FA01F",
"K  c #23A223",
"L  c #24A224",
"P  c #24A324",
"I  c #29A429",
"U  c #2AA52A",
"Y  c #2CA32C",
"T  c #2FA42F",
"R  c #2FA72F",
"E  c #2EA82E",
"W  c #2FA82F",
"Q  c #32A532",
"!  c #33A632",
"~  c #35A835",
"^  c #34AB34",
"/  c #35AA35",
"(  c #36A836",
")  c #39A939",
"_  c #3BAE3A",
"`  c #3DAC3D",
"'  c #41A334",
"]  c #47A63A",
"[  c #42AE42",
"{  c #4BA840",
"}  c #46B046",
"|  c #4BB34B",
" . c #5BAE50",
".. c #D7A100",
"X. c #DBA500",
"o. c #DDA900",
"O. c #DFAD00",
"+. c #E1B100",
"@. c #E5B500",
"#. c #E7B700",
"$. c #E9BB00",
"%. c #EBBF00",
"&. c #87C81A",
"*. c #8BCA1F",
"=. c #8ECB25",
"-. c #90CD2B",
";. c #94CF30",
":. c #98CF3B",
">. c #97D136",
",. c #9AD33B",
"<. c #EDC100",
"1. c #EFC500",
"2. c #F1C700",
"3. c #F3C900",
"4. c #F3CB00",
"5. c #F4F420",
"6. c #F5F525",
"7. c #F5F526",
"8. c #F6F62B",
"9. c #F6F62C",
"0. c #F7F730",
"q. c #F7F731",
"w. c #F8F836",
"e. c #F8F837",
"r. c #F5F53F",
"t. c #F9F93C",
"y. c #F9F93D",
"u. c #9DD840",
"i. c #A7D046",
"p. c #F6F644",
"a. c #FAFA41",
"s. c #FAFA42",
"d. c #FBFB46",
"f. c #FBFB47",
"g. c #F7F749",
"h. c #F7F74E",
"j. c #FCF14B",
"k. c #FCFC4B",
"l. c #FCFC4C",
"z. c #FDF151",
"x. c #FDF254",
"c. c #F8F853",
"v. c #FDFD51",
"b. c #F9F957",
"n. c #FAFA5C",
"m. c #FBFB60",
"M. c #FCFC65",
"N. c #FCFC69",
"B. c #FDFD6D",
"V. c #FEF574",
"C. c #FDFD71",
/* pixels */
"8 8 8 8 8 4.4.2.1.1.<.%.$.#.#.+.",
"8 m m m v V.C.B.N.M.m.n.b.c.h.O.",
"8 m j g g z.v.k.f.s.y.w.q.9.g.o.",
"8 m j a a z.k.f.s.y.w.q.9.7.p.X.",
"8 c > e i j.k.a.y.e.9.9.7.5.r...",
"6 q - ; y i.,.,.>.;.-.=.*.&.:.M ",
"8 z ; w r ] ` ^ W U L G S Z ~ o ",
"6 x y r r ] ^ ! U P G F Z V ! + ",
"6 l r 0 9 ) W U K J D C B N T . ",
"3 k f s a  .| } [ ` ) / ! T Y . ",
"3 1 1 < < $ = = * & $ + o o . # "
};
