/* XPM */
static char *hk[] = {
/* columns rows colors chars-per-pixel */
"16 11 135 2",
"   c #BB0000",
".  c #BD0000",
"X  c #BF0000",
"o  c #C10000",
"O  c #C30000",
"+  c #C70000",
"@  c #C90000",
"#  c #CB0000",
"$  c #CD0000",
"%  c #CF0000",
"&  c #D10000",
"*  c #D50000",
"=  c #D70000",
"-  c #D90000",
";  c #DB0000",
":  c #DF0000",
">  c #DF0B0B",
",  c #E10000",
"<  c #E30000",
"1  c #E50000",
"2  c #E70000",
"3  c #E90000",
"4  c #EB0000",
"5  c #ED0000",
"6  c #E10F0E",
"7  c #E11010",
"8  c #E11313",
"9  c #E21414",
"0  c #E31919",
"q  c #E21B1B",
"w  c #E41A1A",
"e  c #E41F1F",
"r  c #E52020",
"t  c #E52424",
"y  c #E62525",
"u  c #E62626",
"i  c #E72B2B",
"p  c #E22C2C",
"a  c #E32F2F",
"s  c #E82C2C",
"d  c #E92C2C",
"f  c #EA2E2E",
"g  c #E43232",
"h  c #E63535",
"j  c #E63636",
"k  c #E83131",
"l  c #E93131",
"z  c #EB3131",
"x  c #EA3737",
"c  c #E63939",
"v  c #E73B3B",
"b  c #E73D3D",
"n  c #EB3838",
"m  c #EB3A3A",
"M  c #EC3838",
"N  c #EE3838",
"B  c #EB3C3D",
"V  c #E83F3F",
"C  c #EC3E3D",
"Z  c #EC3F3F",
"A  c #E84242",
"S  c #EC4040",
"D  c #ED4242",
"F  c #E94444",
"G  c #E94646",
"H  c #EE4444",
"J  c #EE4545",
"K  c #EA4949",
"L  c #EB4B4B",
"P  c #EF4949",
"I  c #EF4A49",
"U  c #EF4A4C",
"Y  c #EC4E4E",
"T  c #F04F4F",
"R  c #F24F4F",
"E  c #EC5050",
"W  c #ED5353",
"Q  c #ED5455",
"!  c #EE5757",
"~  c #EE5858",
"^  c #EF5C5C",
"/  c #EF5D5D",
"(  c #F05151",
")  c #F35050",
"_  c #F05353",
"`  c #F35353",
"'  c #F15454",
"]  c #F25454",
"[  c #F25555",
"{  c #F15656",
"}  c #F35656",
"|  c #F55555",
" . c #F15858",
".. c #F15959",
"X. c #F25C5C",
"o. c #F35F5F",
"O. c #F06060",
"+. c #F06162",
"@. c #F16565",
"#. c #F26666",
"$. c #F26A6A",
"%. c #F26D6D",
"&. c #F26F6F",
"*. c #F37071",
"=. c #F37273",
"-. c #F37474",
";. c #F47676",
":. c #F47777",
">. c #F57979",
",. c #F57B7A",
"<. c #F57B7B",
"1. c #F67E7E",
"2. c #F68F8F",
"3. c #FC8B8C",
"4. c #FB9696",
"5. c #F99E9F",
"6. c #F8A7A8",
"7. c #F9AAAA",
"8. c #FBAAAA",
"9. c #FABDBD",
"0. c #F7C3C3",
"q. c #FBC0C0",
"w. c #F9C5C6",
"e. c #F7CACB",
"r. c #F7CECE",
"t. c #F7CECF",
"y. c #FACDCE",
"u. c #F8D0D1",
"i. c #FCD1D1",
"p. c #F6D8D8",
"a. c #F8D8D8",
"s. c #F5E1E1",
"d. c #F8E7E7",
"f. c #FAECEC",
"g. c #FBEEEE",
/* pixels */
"5 3 5 3 2 3 2 2 , , : ; ; = = = ",
"3 <.<.<.:.-.=.%.$.@.O.^ ! E E % ",
"3 <.o.X.~ | E 3.4.D B x k s K % ",
"5 <.X.} } } | g.9.| B k i u G # ",
"3 ;.} Q } i.q.y.w.d.r.M u e B + ",
"3 =._ R U 8.f.5.6.0.1.f e w b + ",
"2 &.Y P H S 8.u.r.p.d e 0 9 j O ",
"2 $.T D Z R a.e.2.s.M 0 9 7 g O ",
", @.J B m n R k u _ 0 8 6 > a X ",
": +./ ! ! E U G A B c j g a a   ",
", ; ; = = % % # + + O O O X   O "
};
