/* XPM */
static char *hr[] = {
/* columns rows colors chars-per-pixel */
"16 11 129 2",
"   c #E70000",
".  c #E90000",
"X  c #EB0000",
"o  c #ED0000",
"O  c #EF0000",
"+  c #F10000",
"@  c #F30000",
"#  c #F50000",
"$  c #F70000",
"%  c #F90000",
"&  c #FB0000",
"*  c #FD0000",
"=  c red",
"-  c #F52626",
";  c #F62A2A",
":  c #F62B2B",
">  c #F62C2C",
",  c #F72F2F",
"<  c #F73131",
"1  c #F43736",
"2  c #F83535",
"3  c #F83636",
"4  c #F83737",
"5  c #F93C3D",
"6  c #F64444",
"7  c #FA4040",
"8  c #FA4141",
"9  c #FA4142",
"0  c #F74949",
"q  c #FC4B4B",
"w  c #F75757",
"e  c #F85151",
"r  c #FD5454",
"t  c #FE5959",
"y  c #F85C5C",
"u  c #FE5C5C",
"i  c #FE5F5F",
"p  c #F96060",
"a  c #FA6565",
"s  c #FB6969",
"d  c #FB6E6E",
"f  c #FA7374",
"g  c #FB7676",
"h  c #FE7979",
"j  c #FD797A",
"k  c #FF7B7A",
"l  c #FE7B7B",
"z  c #FF7B7B",
"x  c #00008F",
"c  c #000091",
"v  c #000093",
"b  c #000395",
"n  c #000997",
"m  c #000D9B",
"M  c #00139F",
"N  c #0019A3",
"B  c #001FA5",
"V  c #0027A9",
"C  c #002DAD",
"Z  c #0033AF",
"A  c #0039B3",
"S  c #0041B7",
"D  c #0045B9",
"F  c #004BBD",
"G  c #0051BF",
"H  c #4274A9",
"J  c #0057C3",
"K  c #5180B1",
"L  c #3682CB",
"P  c #3A85CC",
"I  c #3B85CC",
"U  c #3E86CD",
"Y  c #3F88CD",
"T  c #438ACF",
"R  c #478DD1",
"E  c #488DD1",
"W  c #4C90D3",
"Q  c #5192D1",
"!  c #5494D2",
"~  c #5594D2",
"^  c #5695D3",
"/  c #5193D5",
"(  c #5496D6",
")  c #5896D3",
"_  c #5A98D4",
"`  c #599AD7",
"'  c #5D99D5",
"]  c #5E9DD9",
"[  c #609CD7",
"{  c #659ED8",
"}  c #62A0DB",
"|  c #63A0DB",
" . c #67A3DC",
".. c #67A3DD",
"X. c #68A1DA",
"o. c #6CA4DB",
"O. c #6AA4DE",
"+. c #6FA7DD",
"@. c #6CA6DE",
"#. c #74A9DD",
"$. c #77ACDF",
"%. c #72A9E0",
"&. c #7BAFE1",
"*. c #7FB2E2",
"=. c #66C4DC",
"-. c #6EC8DF",
";. c #83B4E3",
":. c #87B6E5",
">. c #F7C8C8",
",. c #F9CCCC",
"<. c #FBD0D0",
"1. c gray89",
"2. c gray90",
"3. c #E7E7E7",
"4. c #EFEFEF",
"5. c #F0F1F1",
"6. c gray95",
"7. c #F3F3F3",
"8. c #F4F4F4",
"9. c #F4F5F5",
"0. c gray96",
"q. c #F6F6F6",
"w. c gray97",
"e. c #FBFBFB",
"r. c #FBFCFB",
"t. c gray99",
"y. c #FDFCFD",
"u. c #FDFDFD",
"i. c #FEFEFE",
/* pixels */
"= = = = = = & & & & $ $ + + O O ",
"= z z z h z z g f d s a p y w . ",
"= z i u u r %.-.O.=.5 4 < , 0 . ",
"= z i r r e q <.9 >.1 < : - 6   ",
"u.u.u.u.u.w.<.7 ,.2 5.w.w.7.w.2.",
"u.u.u.u.e.w.7 ,.2 >.5.w.7.7.9.2.",
"u.u.u.r.e.9.,.1 >.: 4.8.7.7.9.1.",
"J :.@...{ ] K < : H E T U I ^ v ",
"G ;.o.| ] ` ( Q E E T U I L ^ x ",
"F *.&.$.#.@.o.X.{ [ ' ' ^ ! Q x ",
"D S A Z C V B N M m n b v v x x "
};
