/* XPM */
static char *ie[] = {
/* columns rows colors chars-per-pixel */
"16 11 134 2",
"   c #005300",
".  c #005B00",
"X  c #006300",
"o  c #006700",
"O  c #006F00",
"+  c #007500",
"@  c #007700",
"#  c #007B00",
"$  c #007F00",
"%  c #DD0000",
"&  c #DF0000",
"*  c #E10000",
"=  c #E30000",
"-  c #E50000",
";  c #E70000",
":  c #E90000",
">  c #EB0000",
",  c #EF1300",
"<  c #ED1B00",
"1  c #F11900",
"2  c #F31F00",
"3  c #F52100",
"4  c #F1670B",
"5  c #F1690E",
"6  c #F26A10",
"7  c #F26913",
"8  c #F26D14",
"9  c #F26E14",
"0  c #F36D19",
"q  c #F36F19",
"w  c #F3701A",
"e  c #F4721F",
"r  c #F4741F",
"t  c #F47520",
"y  c #F57525",
"u  c #F57725",
"i  c #F57A26",
"p  c #F6792B",
"a  c #F67B2B",
"s  c #F27B2C",
"d  c #F27C2F",
"f  c #F27D2F",
"g  c #F67C2C",
"h  c #F27F32",
"j  c #F37F32",
"k  c #F77E31",
"l  c #F37F35",
"z  c #008300",
"x  c #008500",
"c  c #008700",
"v  c #008900",
"b  c #009100",
"n  c #3AAA3A",
"m  c #3FAE3F",
"M  c #40AD3F",
"N  c #44B144",
"B  c #45B045",
"V  c #45B145",
"C  c #4BB34B",
"Z  c #49B449",
"A  c #4FB64F",
"S  c #4FB74F",
"D  c #50B550",
"F  c #54B555",
"G  c #54B754",
"H  c #53B953",
"J  c #54B954",
"K  c #58B958",
"L  c #59BA59",
"P  c #58BB59",
"I  c #58BC58",
"U  c #5CBD5C",
"Y  c #5DBC5D",
"T  c #5FBF5F",
"R  c #61BE62",
"E  c #66C066",
"W  c #6AC36A",
"Q  c #6FC46F",
"!  c #72C673",
"~  c #77C777",
"^  c #76C876",
"/  c #79C879",
"(  c #7BCA7A",
")  c #7BCA7B",
"_  c #F78131",
"`  c #F48236",
"'  c #F88237",
"]  c #F4853B",
"[  c #F5893F",
"{  c #F68C44",
"}  c #F78F49",
"|  c #F7934E",
" . c #F89653",
".. c #F99857",
"X. c #FA995C",
"o. c #C5B5A9",
"O. c #B7C7B7",
"+. c gray79",
"@. c #CBCBCB",
"#. c gray81",
"$. c gray82",
"%. c #E1DFDB",
"&. c gray89",
"*. c gray90",
"=. c #E5E7E5",
"-. c #E7E7E7",
";. c #F3EAE2",
":. c #F4EBE4",
">. c #F5ECE5",
",. c #F4ECE6",
"<. c #F6EEE7",
"1. c #F7EFE8",
"2. c #E9F2E9",
"3. c #EAF3EA",
"4. c #EBF3EB",
"5. c #ECF4EC",
"6. c #EDF5ED",
"7. c #EEF6EE",
"8. c #EFF7EF",
"9. c #F8F0EA",
"0. c #F9F1EB",
"q. c #F4F4F4",
"w. c gray96",
"e. c #F6F6F6",
"r. c gray97",
"t. c #F0F8F0",
"y. c #F8F8F8",
"u. c #F9F9F9",
"i. c #FBFAF8",
"p. c gray98",
"a. c #FBFBFB",
"s. c gray99",
"d. c #FDFDFD",
"f. c #FDFDFE",
/* pixels */
"b v v x z =.=.-.=.&.%.2 2 1 , < ",
"x ) ) ) ~ d.d.d.f.f.s.X... .| > ",
"x ) T U L t.d.s.u.u.0.' _ g } > ",
"v ) T J G 7.s.s.u.p.0.k g i { > ",
"x ^ J J G 7.s.u.p.r.1.p u r [ - ",
"x ! H S C 7.u.u.r.p.:.y r q ] - ",
"$ Q S Z B 5.u.y.r.r.:.t q 9 ` = ",
"# W Z V m 2.y.r.r.q.:.q 9 6 j & ",
"# R N m n 2.r.r.q.q.:.7 5 4 d & ",
"O R Y K F 2.r.r.r.q.:.l j h s % ",
"+ o X .   O.$.#.@.+.o.= & % % % "
};
