/* XPM */
static char *il[] = {
/* columns rows colors chars-per-pixel */
"16 11 92 1",
"  c #0000BB",
". c #0000CF",
"X c #0025DF",
"o c #0747E9",
"O c #5884F2",
"+ c #5A85F2",
"@ c #5D87F3",
"# c #5D82F6",
"$ c #6285F7",
"% c #608AF3",
"& c #638CF4",
"* c #668FF5",
"= c #678AF8",
"- c #6B8BF9",
"; c #768EF7",
": c #708FFA",
"> c #6A91F6",
", c #6E94F7",
"< c #7197F7",
"1 c #7599F7",
"2 c #7494FB",
"3 c #759AF8",
"4 c #799DF8",
"5 c #799EF9",
"6 c #7C9FF9",
"7 c #7DA0F9",
"8 c #7FA3FA",
"9 c #BBBBBB",
"0 c gray74",
"q c gray75",
"w c #8093F6",
"e c #8194F7",
"r c #869FF5",
"t c #8399FA",
"y c #889FFA",
"u c #9B9BF9",
"i c #9F9FF8",
"p c #8DA6F7",
"a c #80A4FA",
"s c #83A5FB",
"d c #84A6FB",
"f c #8AA0FB",
"g c #87A8FC",
"h c #8AAAFC",
"j c #8DADFD",
"k c #95ABFA",
"l c #90AFFE",
"z c #92B1FE",
"x c #95B3FE",
"c c #96B4FE",
"v c #9CB1FC",
"b c #99B5FF",
"n c #C1C1C1",
"m c #C3C3C3",
"M c #C5C5C5",
"N c gray78",
"B c #CBCBCB",
"V c #CDCDCD",
"C c gray81",
"Z c LightGray",
"A c #D5D5D5",
"S c #D7D7D7",
"D c gray86",
"F c #DFDFDF",
"G c #E1E1E1",
"H c gray89",
"J c gray90",
"K c #E7E7E7",
"L c #E9E9E9",
"P c #E9E9F6",
"I c #E9E9F8",
"U c #EFEFF9",
"Y c #ECECFB",
"T c #F1F1F1",
"R c gray95",
"E c #F3F3F3",
"W c #F2F2F4",
"Q c #F4F4F4",
"! c #F4F5F5",
"~ c gray96",
"^ c #F6F6F6",
"/ c gray97",
"( c #F8F8F8",
") c #F9F9F9",
"_ c gray98",
"` c #FBFBFB",
"' c #FBFCFB",
"] c gray99",
"[ c #FDFCFD",
"{ c #FDFDFD",
"} c #FEFEFE",
"| c gray100",
/* pixels */
"LLLLLKKJHGFDDAAZ",
"obbcxljjggsa641.",
"L}}}}}]}]_))/^/V",
"L}}}]}]fy))/^~^B",
"K}}}]v2tu=p^~~~N",
"K}`}]Y:UP$P~~R~M",
"K}`'`k-i;#r^~RRn",
"H````((ww^RRRRRq",
"H]``/`/^QQRRRRR0",
"Xd7753<,>*&%@+O ",
"DDDZZVVBNNnn0099"
};
