/* XPM */
/* Copyright (c) 2017 Sebastiano Pistore SebastianoPistore.info@protonmail.ch */
/* This program is free software; you can redistribute it and/or modify */
/* it under the terms of the GNU General Public License as published by */
/* the Free Software Foundation; either version 2 of the License, or */
/* (at your option) any later version. */
static const char *im[] = {
/* width height num_colors chars_per_pixel */
"    16    11      256            2",
/* colors */
"`` c #280000",
"`. c #2a0000",
"`# c #2b0000",
"`a c #290000",
"`b c #842d33",
"`c c #883137",
"`d c #873237",
"`e c #843339",
"`f c #82363a",
"`g c #80353a",
"`h c #813539",
"`i c #843437",
"`j c #853337",
"`k c #883235",
"`l c #832e31",
"`m c #ea545d",
"`n c #e6565f",
"`o c #dd5a62",
"`p c #d75e65",
"`q c #d36067",
"`r c #d96268",
"`s c #e05960",
"`t c #e15860",
"`u c #db5c63",
"`v c #dc5a62",
"`w c #e8555d",
"`x c #ff4c57",
"`y c #ff4b56",
"`z c #fb4d57",
"`A c #f05058",
"`B c #f6656c",
"`C c #ec6a72",
"`D c #ff8189",
"`E c #ed5b65",
"`F c #ec555e",
"`G c #f6636d",
"`H c #eb4f5a",
"`I c #f94e57",
"`J c #ff4b54",
"`K c #fc4c56",
"`L c #f84e57",
"`M c #ed565d",
"`N c #e1666b",
"`O c #f78a8f",
"`P c #f8878d",
"`Q c #e96d75",
"`R c #fb6f78",
"`S c #ee525d",
"`T c #fd4c56",
"`U c #ef5259",
"`V c #ed7277",
"`W c #ed8085",
"`X c #eb7c83",
"`Y c #ef737b",
"`Z c #f3616b",
"`0 c #f2505b",
"`1 c #f45059",
"`2 c #f26b72",
"`3 c #f4757c",
"`4 c #ef5861",
"`5 c #f6505a",
"`6 c #ef525b",
"`7 c #f1515b",
"`8 c #dd5b63",
".` c #e0636b",
".. c #e1565d",
".# c #ee535b",
".a c #f2525c",
".b c #cb565c",
".c c #cd585e",
".d c #d0575e",
".e c #cf585e",
".f c #cc5960",
".g c #c85b61",
".h c #c65b61",
".i c #cb5a60",
".j c #cd5860",
".k c #cd565c",
".l c #430000",
".m c #450000",
".n c #490003",
".o c #490002",
".p c #480002",
".q c #480001",
".r c #460002",
".s c #460001",
".t c #470001",
".u c #110000",
".v c #120000",
".w c #000000",
".x c #000000",
".y c #000000",
".z c #000000",
".A c #000000",
".B c #000000",
".C c #000000",
".D c #000000",
".E c #000000",
".F c #000000",
".G c #000000",
".H c #000000",
".I c #000000",
".J c #000000",
".K c #000000",
".L c #000000",
".M c #000000",
".N c #000000",
".O c #000000",
".P c #000000",
".Q c #000000",
".R c #000000",
".S c #000000",
".T c #000000",
".U c #000000",
".V c #000000",
".W c #000000",
".X c #000000",
".Y c #000000",
".Z c #000000",
".0 c #000000",
".1 c #000000",
".2 c #000000",
".3 c #000000",
".4 c #000000",
".5 c #000000",
".6 c #000000",
".7 c #000000",
".8 c #000000",
"#` c #000000",
"#. c #000000",
"## c #000000",
"#a c #000000",
"#b c #000000",
"#c c #000000",
"#d c #000000",
"#e c #000000",
"#f c #000000",
"#g c #000000",
"#h c #000000",
"#i c #000000",
"#j c #000000",
"#k c #000000",
"#l c #000000",
"#m c #000000",
"#n c #000000",
"#o c #000000",
"#p c #000000",
"#q c #000000",
"#r c #000000",
"#s c #000000",
"#t c #000000",
"#u c #000000",
"#v c #000000",
"#w c #000000",
"#x c #000000",
"#y c #000000",
"#z c #000000",
"#A c #000000",
"#B c #000000",
"#C c #000000",
"#D c #000000",
"#E c #000000",
"#F c #000000",
"#G c #000000",
"#H c #000000",
"#I c #000000",
"#J c #000000",
"#K c #000000",
"#L c #000000",
"#M c #000000",
"#N c #000000",
"#O c #000000",
"#P c #000000",
"#Q c #000000",
"#R c #000000",
"#S c #000000",
"#T c #000000",
"#U c #000000",
"#V c #000000",
"#W c #000000",
"#X c #000000",
"#Y c #000000",
"#Z c #000000",
"#0 c #000000",
"#1 c #000000",
"#2 c #000000",
"#3 c #000000",
"#4 c #000000",
"#5 c #000000",
"#6 c #000000",
"#7 c #000000",
"#8 c #000000",
"a` c #000000",
"a. c #000000",
"a# c #000000",
"aa c #000000",
"ab c #000000",
"ac c #000000",
"ad c #000000",
"ae c #000000",
"af c #000000",
"ag c #000000",
"ah c #000000",
"ai c #000000",
"aj c #000000",
"ak c #000000",
"al c #000000",
"am c #000000",
"an c #000000",
"ao c #000000",
"ap c #000000",
"aq c #000000",
"ar c #000000",
"as c #000000",
"at c #000000",
"au c #000000",
"av c #000000",
"aw c #000000",
"ax c #000000",
"ay c #000000",
"az c #000000",
"aA c #000000",
"aB c #000000",
"aC c #000000",
"aD c #000000",
"aE c #000000",
"aF c #000000",
"aG c #000000",
"aH c #000000",
"aI c #000000",
"aJ c #000000",
"aK c #000000",
"aL c #000000",
"aM c #000000",
"aN c #000000",
"aO c #000000",
"aP c #000000",
"aQ c #000000",
"aR c #000000",
"aS c #000000",
"aT c #000000",
"aU c #000000",
"aV c #000000",
"aW c #000000",
"aX c #000000",
"aY c #000000",
"aZ c #000000",
"a0 c #000000",
"a1 c #000000",
"a2 c #000000",
"a3 c #000000",
"a4 c #000000",
"a5 c #000000",
"a6 c #000000",
"a7 c #000000",
"a8 c #000000",
/* pixels */
"```.`#`#`.`.`#`#`.`.`#`#`.`.`.`a",
"`b`c`c`d`e`f`g`h`i`j`e`e`d`k`k`l",
"`m`m`m`n`o`p`q`r`s`t`u`v`n`m`m`w",
"`x`y`y`z`A`B`C`D`E`F`G`H`I`J`y`y",
"`y`y`y`K`L`M`N`O`P`Q`R`S`I`y`y`y",
"`y`y`y`T`K`U`V`W`X`Y`Z`0`z`y`y`y",
"`T`y`y`y`T`1`2`3`t`4`5`z`T`y`y`y",
"`6`6`0`0`7`m`8.`..`m.#`7`7.a`7.a",
".b.c.d.d.e.f.g.h.i.j.e.d.e.e.e.k",
".l.m.n.o.p.q.r.s.p.q.o.q.n.o.t.m",
".u.u.u.u.u.u.u.u.u.u.v.u.u.u.u.u"
};
