/* XPM */
static char *io[] = {
/* columns rows colors chars-per-pixel */
"16 11 169 2",
"   c #00290F",
".  c #000037",
"X  c #000039",
"o  c #00003D",
"O  c #000041",
"+  c #000043",
"@  c #000049",
"#  c #00004B",
"$  c #00004F",
"%  c #000053",
"&  c #000057",
"*  c #000059",
"=  c #00005B",
"-  c #000061",
";  c #000067",
":  c #00006B",
">  c #00006D",
",  c #000071",
"<  c #000073",
"1  c #000075",
"2  c #00007F",
"3  c #A72B53",
"4  c #A12955",
"5  c #833771",
"6  c #AA6646",
"7  c #AB6D4C",
"8  c #B07356",
"9  c #A94D73",
"0  c #C74446",
"q  c #CE4542",
"w  c #CE5A4E",
"e  c #F55F5F",
"r  c #6C9B4B",
"t  c #6F9C5C",
"y  c #75A551",
"u  c #76A356",
"i  c #79A855",
"p  c #75A158",
"a  c #75A15F",
"s  c #7EA95F",
"d  c #719A60",
"f  c #7AA563",
"g  c #EECC39",
"h  c #81AA65",
"j  c #85AC70",
"k  c #99BB7F",
"l  c #B2A564",
"z  c #DDC945",
"x  c #EFCF43",
"c  c #EBD54E",
"v  c #DDCD7A",
"b  c #000081",
"n  c #000083",
"m  c #000089",
"M  c #000991",
"N  c #3F278B",
"B  c #5B4799",
"V  c #4049A7",
"C  c #454DAA",
"Z  c #4951AC",
"A  c #4A52AC",
"S  c #4E56AF",
"D  c #4F57AF",
"F  c #5259AE",
"G  c #535AB1",
"H  c #535BB2",
"J  c #565FB1",
"K  c #585FB4",
"L  c #5960B2",
"P  c #5D65B3",
"I  c #5860B4",
"U  c #5961B5",
"Y  c #5C64B7",
"T  c #5D64B7",
"R  c #5E65B7",
"E  c #5F67B7",
"W  c #636DB1",
"Q  c #6068B8",
"!  c #6269B9",
"~  c #636ABA",
"^  c #656DBB",
"/  c #676FBB",
"(  c #666DBC",
")  c #676EBC",
"_  c #6A71BD",
"`  c #6E75BF",
"'  c #B57F9F",
"]  c #8F75AB",
"[  c #837EBB",
"{  c #D77D8D",
"}  c #94B383",
"|  c #9BB597",
" . c #9287BE",
".. c #8F9BB4",
"X. c #8F93BB",
"o. c #9397BF",
"O. c #A382B1",
"+. c #FB9896",
"@. c #FB9F9C",
"#. c #F49FA1",
"$. c #C1A0BE",
"%. c #DEA7B6",
"&. c #DAA7B8",
"*. c #F5A1A0",
"=. c #FCA4A1",
"-. c #FEAAA7",
";. c #E9B6BE",
":. c #F8B4B4",
">. c #F9BFBF",
",. c #AAC59C",
"<. c #8D8AC2",
"1. c #8188C8",
"2. c #898ECC",
"3. c #998FC3",
"4. c #999DC5",
"5. c #9DA2CD",
"6. c #9DA2D0",
"7. c #9EA2D0",
"8. c #9DA2D3",
"9. c #A1A3CB",
"0. c #A9ABCF",
"q. c #B8ABCE",
"w. c #A6B1C3",
"e. c #A3A8D4",
"r. c #A7ABD6",
"t. c #A7ACD4",
"y. c #A9AED3",
"u. c #AAAED7",
"i. c #AFB3D9",
"p. c #B3B6D8",
"a. c #B1B6DD",
"s. c #B4B8D8",
"d. c #B7BBDA",
"f. c #B4B8DD",
"g. c #BBBFDF",
"h. c #B9C1D0",
"j. c #BBC0DF",
"k. c #BDC0DD",
"l. c #BCC0E0",
"z. c #BCC0E1",
"x. c #C1C5DA",
"c. c #E2C3CC",
"v. c #E0CEDC",
"b. c #F1CCD1",
"n. c #EDD4DB",
"m. c #FDD3D0",
"M. c #F2D6DC",
"N. c #F5D9DD",
"B. c #C2C4E1",
"V. c #C3C6E0",
"C. c #C2C6E2",
"Z. c #C3C6E2",
"A. c #C4C5E2",
"S. c #C7C9E4",
"D. c #DBD3E5",
"F. c #D3D4EA",
"G. c #D7D7E9",
"H. c #D4D5EB",
"J. c #D6D8EC",
"K. c #DADBEA",
"L. c #DEDFED",
"P. c #DCDDEE",
"I. c #EEDBE2",
"U. c #F5DEE2",
"Y. c #DEE0EE",
"T. c #FEE3E1",
"R. c #F5EBED",
"E. c #E0E0F1",
"W. c #F7F2F7",
/* pixels */
"{ ] M 4 3 b 5 N b b < >   : ; - ",
"B U.W.M.;.I.R.8.z.G.h.k ,.| x.0.",
"e :.-.@.+.=.*.O.( ! E f a d j & ",
"9 N.T.>.*.m.b. .u.S.f i y u } 9.",
"3.n.q.&.%.a.c.[ E I L t 7 r W # ",
"' D.E.v.$.A.P.<.e.x.u w.6 ..h 4.",
"m 2.` _ ( ! T I H D A w x 0 L + ",
"/ J.f.l.P.r.j.G.8.g.8.v q c d.o.",
"2 1./ ! T K G S A C V l g z F X ",
"P F.g.C.Y.i.C.K.y.A.y.p.8 5.s.X.",
"1 < > ; - * * % $ # + o o X . . "
};
