/* XPM */
static char *iq[] = {
/* columns rows colors chars-per-pixel */
"16 11 141 2",
"   c black",
".  c #0B0B0B",
"X  c #0F0F0E",
"o  c #131313",
"O  c #181919",
"+  c #1E1E1E",
"@  c #232323",
"#  c gray16",
"$  c #2C2C2C",
"%  c gray18",
"&  c #2F2F2F",
"*  c #323232",
"=  c #343434",
"-  c #353535",
";  c #393939",
":  c #3A3A3A",
">  c gray24",
",  c #3F3F3F",
"<  c gray26",
"1  c #444444",
"2  c #464646",
"3  c #4B4B4B",
"4  c #505050",
"5  c #545455",
"6  c #585858",
"7  c #5D5D5D",
"8  c #616162",
"9  c gray39",
"0  c gray40",
"q  c #6B6A6B",
"w  c #6C686C",
"e  c #706E70",
"r  c #737273",
"t  c #787678",
"y  c gray48",
"u  c #7D7A7D",
"i  c #7F7D7F",
"p  c #E70000",
"a  c #E90000",
"s  c #EB0000",
"d  c #ED0000",
"f  c #EF0000",
"g  c #F10000",
"h  c #F30000",
"j  c #F50000",
"k  c #F70000",
"l  c #F90000",
"z  c #FB0000",
"x  c #FD0000",
"c  c red",
"v  c #F62C2C",
"b  c #F73131",
"n  c #F83737",
"m  c #FF3535",
"M  c #F93C3D",
"N  c #FA4242",
"B  c #FB4747",
"V  c #F74949",
"C  c #F74E4E",
"Z  c #FC4C4C",
"A  c #F85353",
"S  c #FD5151",
"D  c #F95757",
"F  c #FD5454",
"G  c #FE5959",
"H  c #FA5C5C",
"J  c #FE5C5C",
"K  c #FE5F5F",
"L  c #FB6060",
"P  c #FC6565",
"I  c #F56A6A",
"U  c #FC6969",
"Y  c #FD6D6D",
"T  c #F67071",
"R  c #F77273",
"E  c #FD7071",
"W  c #F87777",
"Q  c #FE7474",
"!  c #FE7777",
"~  c #F67F7F",
"^  c #F97A7A",
"/  c #FE7979",
"(  c #FF7B7A",
")  c #FF7B7B",
"_  c #FA7E7F",
"`  c #6BBF6D",
"'  c #848284",
"]  c #888588",
"[  c #8C8B8C",
"{  c #8D8A8D",
"}  c #A0A0A0",
"|  c #FB8284",
" . c #FC8585",
".. c #FD8889",
"X. c #FD8B8B",
"o. c #FE8F91",
"O. c #FE9091",
"+. c #FEA4A4",
"@. c #89CD8B",
"#. c #8DCF8E",
"$. c #8BD08D",
"%. c #8FCD92",
"&. c #95CF96",
"*. c #9BD19D",
"=. c #9CD39E",
"-. c #A8DAA9",
";. c #ADDDAE",
":. c #B3E0B4",
">. c #B4E1B7",
",. c #BCE2BD",
"<. c #BDE3BD",
"1. c #BDE0C0",
"2. c #BEE4C4",
"3. c #C1E5C4",
"4. c #C3E6C5",
"5. c #CAE7CD",
"6. c #D4ECD6",
"7. c gray89",
"8. c gray90",
"9. c #E7E7E7",
"0. c #E4F3E4",
"q. c #E7F6E7",
"w. c #E9F4E9",
"e. c #EAF5EA",
"r. c #EFF4EF",
"t. c #EEF6F1",
"y. c #EDF7F2",
"u. c gray95",
"i. c #F2F4F4",
"p. c #F4F4F4",
"a. c #F4F5F5",
"s. c gray96",
"d. c #F1F9F0",
"f. c #F5F8F8",
"g. c #F6FBFA",
"h. c #F8FCFC",
"j. c #F9FEFC",
"k. c gray99",
"l. c #FCFCFD",
"z. c #FDFDFD",
"x. c #FEFEFE",
/* pixels */
"c c c c c z c z z z j j h h d d ",
"c ) ) ) ! Q E Y U P L H D A C s ",
"c ) K J J S S Z B N M n b v V s ",
"m +.O.X.X... .| _ ^ W R T I ~ p ",
"x.x.j.>.l.j.h.3.3.f.y.t.=.t.s.9.",
"x.x.:.$.-.2.6.@.#.5.1.%.` =.s.8.",
"l.x.k.;.q.0.d.<.,.e.w.r.&.p.p.7.",
"& } [ { ' ' i u t r e w w 9 y   ",
"  0 2 , ; = & # @ + O o X . &   ",
"  8 7 6 5 4 3 2 < > ; - * & $   ",
"                                "
};
