/* XPM */
static char *ir[] = {
/* columns rows colors chars-per-pixel */
"16 11 147 2",
"   c #004B00",
".  c #004D00",
"X  c #005D00",
"o  c #006100",
"O  c #006300",
"+  c #006700",
"@  c #006D00",
"#  c #007100",
"$  c #007500",
"%  c #007900",
"&  c #007D00",
"*  c #DD0000",
"=  c #DF0000",
"-  c #E10000",
";  c #E30000",
":  c #E50000",
">  c #E70000",
",  c #E90000",
"<  c #EB0000",
"1  c #ED0000",
"2  c #EF0000",
"3  c #F10000",
"4  c #F30000",
"5  c #F50000",
"6  c #F70000",
"7  c #F90000",
"8  c #F10F0F",
"9  c #F11212",
"0  c #F21717",
"q  c #F31C1C",
"w  c #F42222",
"e  c #F52727",
"r  c #F22C2C",
"t  c #F22F2F",
"y  c #F62C2C",
"u  c #F23232",
"i  c #F73131",
"p  c #F33535",
"a  c #F83737",
"s  c #F43939",
"d  c #F53D3D",
"f  c #F93C3C",
"g  c #F64242",
"h  c #F74646",
"j  c #FA4141",
"k  c #FA4747",
"l  c #F74B4B",
"z  c #F85050",
"x  c #F95455",
"c  c #F95858",
"v  c #FA5D5D",
"b  c #FB6162",
"n  c #FC6969",
"m  c #008100",
"M  c #008300",
"N  c #008500",
"B  c #008700",
"V  c #008900",
"C  c #009100",
"Z  c #2EA62D",
"A  c #33A933",
"S  c #3FA33F",
"D  c #39AC39",
"F  c #3EAF3E",
"G  c #44B144",
"H  c #4BB34B",
"J  c #48B449",
"K  c #4EB34E",
"L  c #4EB74E",
"P  c #53B653",
"I  c #52B851",
"U  c #56BA56",
"Y  c #58B957",
"T  c #5ABC5A",
"R  c #5CBA5C",
"E  c #5EBE5E",
"W  c #61BD60",
"Q  c #60BF61",
"!  c #65BF65",
"~  c #69C169",
"^  c #6DC36D",
"/  c #70C471",
"(  c #74C674",
")  c #77C877",
"_  c #79C879",
"`  c #7BCA7B",
"'  c #7CCA7C",
"]  c #DF8381",
"[  c #F78282",
"{  c #FB8585",
"}  c #F88787",
"|  c #F79191",
" . c #FA9B9B",
".. c #F2A5A5",
"X. c #F9A2A2",
"o. c #F4A8A8",
"O. c #F6ABAB",
"+. c #F3AFAF",
"@. c #F8B5B5",
"#. c #F9B4B6",
"$. c #FAB6B7",
"%. c #FAB9B9",
"&. c #F8BABA",
"*. c #FBBCBC",
"=. c #A3D5A3",
"-. c #AAD9AA",
";. c #AFDEB1",
":. c #B3DFB4",
">. c #B7E3B7",
",. c #B8E1B8",
"<. c #BDE4BD",
"1. c #F2C2C2",
"2. c #F3C7C7",
"3. c #F5CCCC",
"4. c #F7CCCD",
"5. c #F9D2D2",
"6. c #FBD5D5",
"7. c #C8E4C8",
"8. c #CCE7CC",
"9. c #CDE6CD",
"0. c #C9E9C9",
"q. c #CFE9CF",
"w. c #D4ECD5",
"e. c #D7EED7",
"r. c #D9EFD9",
"t. c gray89",
"y. c gray90",
"u. c #E7E7E7",
"i. c #FCE5E5",
"p. c #F8EFF1",
"a. c gray95",
"s. c #F3F3F3",
"d. c #F6F2F2",
"f. c #F4F4F4",
"g. c #F4F5F5",
"h. c gray96",
"j. c #F6F6F6",
"k. c gray97",
"l. c #FBF3F5",
"z. c #F9F7F7",
"x. c gray98",
"c. c #FBFBFB",
"v. c #FBFCFB",
"b. c gray99",
"n. c #FDFCFD",
"m. c #FDFDFD",
"M. c #FEFEFE",
/* pixels */
"C V V V N N m & % $ # @ + O X O ",
"N ` ` ` ( ( / ^ ~ ! W R Y P K   ",
"V ' E E T U I L J G F D A Z H . ",
">.0.r.<.e.>.w.:.q.:.8.-.7.=.9.S ",
"n.n.n.n.n.m.l.$.#.p.k.k.k.s.k.y.",
"n.n.m.m.m.m. .X.&.| k.g.s.s.k.y.",
"n.n.n.m.x.x.k.} [ d.k.s.s.s.s.t.",
"{ i.*.6.&.5.@.4.o.3...2...1.+.] ",
"7 n k j f a i y e w q 0 9 8 u = ",
"6 b v c x z l h g d s p u t r = ",
"6 3 3 1 1 1 , , > > - - = * * * "
};
