/* XPM */
static char *is[] = {
/* columns rows colors chars-per-pixel */
"16 11 129 2",
"   c #000043",
".  c #000045",
"X  c #000049",
"o  c #00004B",
"O  c #00004F",
"+  c #000055",
"@  c #000057",
"#  c #00005B",
"$  c #00005D",
"%  c #000061",
"&  c #000065",
"*  c #00006B",
"=  c #000071",
"-  c #000075",
";  c #00007B",
":  c #00037F",
">  c #B30000",
",  c #C10000",
"<  c #DB0000",
"1  c #DC2422",
"2  c #DE2828",
"3  c #DF2D2C",
"4  c #E13332",
"5  c #E33837",
"6  c #E33C3B",
"7  c #E43E3C",
"8  c #E14342",
"9  c #E54241",
"0  c #E64342",
"q  c #E74846",
"w  c #E74847",
"e  c #E74D4C",
"r  c #E75655",
"t  c #E95251",
"y  c #E95351",
"u  c #EA5756",
"i  c #EA5856",
"p  c #EB5B5A",
"a  c #EB5C5B",
"s  c #EF7877",
"d  c #EF7A79",
"f  c #000983",
"g  c #000B83",
"h  c #001187",
"j  c #001189",
"k  c #00178B",
"l  c #00198D",
"z  c #001D8F",
"x  c #002D97",
"c  c #002F99",
"v  c #2358A5",
"b  c #275CA7",
"n  c #285CA8",
"m  c #2B5EAA",
"M  c #2C60AA",
"N  c #2F62AD",
"B  c #3062AD",
"V  c #3466AE",
"C  c #3566AF",
"Z  c #396AB0",
"A  c #3A6AB1",
"S  c #3D6DB2",
"D  c #3F6EB3",
"F  c #406FB1",
"G  c #4370B3",
"H  c #4673B3",
"J  c #4773B3",
"K  c #4070B5",
"L  c #4271B5",
"P  c #4472B6",
"I  c #4674B7",
"U  c #4675B7",
"Y  c #4A75B5",
"T  c #4B78BA",
"R  c #4D78B8",
"E  c #507BB9",
"W  c #557FBB",
"Q  c #507CBC",
"!  c #517CBC",
"~  c #537EBD",
"^  c #557FBF",
"/  c #5580BF",
"(  c #5881BD",
")  c #5982BD",
"_  c #5882BF",
"`  c #5C84BE",
"'  c #5983C0",
"]  c #5A83C1",
"[  c #5D86C2",
"{  c #5F87C2",
"}  c #6088C1",
"|  c #658BC3",
" . c #6A8FC5",
".. c #6A90C8",
"X. c #6D91C8",
"o. c #6D93C9",
"O. c #6E93C8",
"+. c #7194C9",
"@. c #7296C9",
"#. c #7095CB",
"$. c #7598CB",
"%. c #7699CB",
"&. c #799ACC",
"*. c #7A9CCD",
"=. c #7C9ECD",
"-. c #87A5D3",
";. c #87A6D3",
":. c #89A8D3",
">. c #89A8D4",
",. c gray89",
"<. c #E7E7E7",
"1. c gray92",
"2. c #EDEFED",
"3. c gray95",
"4. c #F3F3F3",
"5. c #F4F4F4",
"6. c gray96",
"7. c #F6F6F6",
"8. c gray97",
"9. c #F8F8F8",
"0. c #F9F9F9",
"q. c gray98",
"w. c #FBFBFB",
"e. c #FBFCFB",
"r. c gray99",
"t. c #FDFCFD",
"y. c #FDFDFD",
"u. c #FDFDFE",
"i. c #FEFEFE",
/* pixels */
"c c c c t.< t.z l h f : ; - = * ",
"c >.>.;.t.d t.=.&.%.+.o. .| } & ",
"c :.#.o.t.a t.{ ] / Q T U G ` % ",
"x ;.o...t.i t._ / Q T U F S _ # ",
"t.t.t.t.t.y w.w.9.8.8.8.8.5.6.<.",
"< s a i y e q 9 7 5 4 3 2 1 8 > ",
"t.t.t.e.e.q w.9.8.8.8.5.3.3.5.,.",
"l *.[ _ w.9 8.P S Z C B M n J X ",
"j &._ Q w.6 8.F Z C N m b b F . ",
"f @.o. .9.r 8._ W E R Y J F F . ",
": ; - = 2., 1.$ @ @ O X X .     "
};
