/* XPM */
/* Copyright (c) 2017 Sebastiano Pistore SebastianoPistore.info@protonmail.ch */
/* This program is free software; you can redistribute it and/or modify */
/* it under the terms of the GNU General Public License as published by */
/* the Free Software Foundation; either version 2 of the License, or */
/* (at your option) any later version. */
static const char *je[] = {
/* width height num_colors chars_per_pixel */
"    16    11      256            2",
/* colors */
"`` c #210000",
"`. c #1c0000",
"`# c #120404",
"`a c #0b0706",
"`b c #090708",
"`c c #080808",
"`d c #080806",
"`e c #070705",
"`f c #090806",
"`g c #100404",
"`h c #1d0001",
"`i c #240000",
"`j c #856364",
"`k c #7a5a5b",
"`l c #927879",
"`m c #9d8789",
"`n c #9b8989",
"`o c #988a89",
"`p c #968b87",
"`q c #958a86",
"`r c #99898a",
"`s c #9b888a",
"`t c #9c8889",
"`u c #917979",
"`v c #7c595d",
"`w c #886164",
"`x c #f6d6d9",
"`y c #d8b1b2",
"`z c #c69296",
"`A c #e7afb2",
"`B c #ffdbde",
"`C c #ffe7e5",
"`D c #ffeae4",
"`E c #e6c5bc",
"`F c #ffebe5",
"`G c #ffe6e7",
"`H c #e6afb2",
"`I c #d8b1b4",
"`J c #ffeef0",
"`K c #ffebee",
"`L c #ffdfe2",
"`M c #eab2b5",
"`N c #c99597",
"`O c #dea6a5",
"`P c #ffc7c2",
"`Q c #f0ada5",
"`R c #dea6a7",
"`S c #c99599",
"`T c #fbf2f3",
"`U c #fcf2f3",
"`V c #fff0f1",
"`W c #fddfdf",
"`X c #f1bebd",
"`Y c #ea8e8f",
"`Z c #ef8182",
"`0 c #ea8e91",
"`1 c #f1bdbf",
"`2 c #fddfe1",
"`3 c #f6f4f5",
"`4 c #f8f4f3",
"`5 c #fdf1f1",
"`6 c #ffeff0",
"`7 c #ffebec",
"`8 c #ffdadd",
".` c #e78d8f",
".. c #d76a6f",
".# c #d86b70",
".a c #e58a8f",
".b c #fcf2f1",
".c c #f9f3f3",
".d c #fff2f2",
".e c #ffeaeb",
".f c #ffdcdf",
".g c #f5babe",
".h c #d39296",
".i c #dfa1a4",
".j c #ffc9cb",
".k c #dea2a4",
".l c #ffdddf",
".m c #fff1f1",
".n c #f6d9db",
".o c #dcb2b4",
".p c #cd999d",
".q c #dfa7aa",
".r c #ffd2d5",
".s c #ffedee",
".t c #cc9a9d",
".u c #dbb3b4",
".v c #f5d8da",
".w c #d1a0a3",
".x c #b88c8d",
".y c #d5aeb1",
".z c #eeced1",
".A c #f9e0e3",
".B c #f6e6e7",
".C c #f2e6e6",
".D c #f0e7e8",
".E c #f7e1e3",
".F c #eccfd1",
".G c #d3afaf",
".H c #b88b8e",
".I c #cfa1a3",
".J c #4b1d1f",
".K c #431c1d",
".L c #3a1d1f",
".M c #312122",
".N c #2a2424",
".O c #262626",
".P c #292524",
".Q c #302222",
".R c #371f1f",
".S c #4a1e1f",
".T c #0b0000",
".U c #080000",
".V c #070000",
".W c #040000",
".X c #010000",
".Y c #000000",
".Z c #030000",
".0 c #060000",
".1 c #0a0000",
".2 c #000000",
".3 c #000000",
".4 c #000000",
".5 c #000000",
".6 c #000000",
".7 c #000000",
".8 c #000000",
"#` c #000000",
"#. c #000000",
"## c #000000",
"#a c #000000",
"#b c #000000",
"#c c #000000",
"#d c #000000",
"#e c #000000",
"#f c #000000",
"#g c #000000",
"#h c #000000",
"#i c #000000",
"#j c #000000",
"#k c #000000",
"#l c #000000",
"#m c #000000",
"#n c #000000",
"#o c #000000",
"#p c #000000",
"#q c #000000",
"#r c #000000",
"#s c #000000",
"#t c #000000",
"#u c #000000",
"#v c #000000",
"#w c #000000",
"#x c #000000",
"#y c #000000",
"#z c #000000",
"#A c #000000",
"#B c #000000",
"#C c #000000",
"#D c #000000",
"#E c #000000",
"#F c #000000",
"#G c #000000",
"#H c #000000",
"#I c #000000",
"#J c #000000",
"#K c #000000",
"#L c #000000",
"#M c #000000",
"#N c #000000",
"#O c #000000",
"#P c #000000",
"#Q c #000000",
"#R c #000000",
"#S c #000000",
"#T c #000000",
"#U c #000000",
"#V c #000000",
"#W c #000000",
"#X c #000000",
"#Y c #000000",
"#Z c #000000",
"#0 c #000000",
"#1 c #000000",
"#2 c #000000",
"#3 c #000000",
"#4 c #000000",
"#5 c #000000",
"#6 c #000000",
"#7 c #000000",
"#8 c #000000",
"a` c #000000",
"a. c #000000",
"a# c #000000",
"aa c #000000",
"ab c #000000",
"ac c #000000",
"ad c #000000",
"ae c #000000",
"af c #000000",
"ag c #000000",
"ah c #000000",
"ai c #000000",
"aj c #000000",
"ak c #000000",
"al c #000000",
"am c #000000",
"an c #000000",
"ao c #000000",
"ap c #000000",
"aq c #000000",
"ar c #000000",
"as c #000000",
"at c #000000",
"au c #000000",
"av c #000000",
"aw c #000000",
"ax c #000000",
"ay c #000000",
"az c #000000",
"aA c #000000",
"aB c #000000",
"aC c #000000",
"aD c #000000",
"aE c #000000",
"aF c #000000",
"aG c #000000",
"aH c #000000",
"aI c #000000",
"aJ c #000000",
"aK c #000000",
"aL c #000000",
"aM c #000000",
"aN c #000000",
"aO c #000000",
"aP c #000000",
"aQ c #000000",
"aR c #000000",
"aS c #000000",
"aT c #000000",
"aU c #000000",
"aV c #000000",
"aW c #000000",
"aX c #000000",
"aY c #000000",
"aZ c #000000",
"a0 c #000000",
"a1 c #000000",
"a2 c #000000",
"a3 c #000000",
"a4 c #000000",
"a5 c #000000",
"a6 c #000000",
"a7 c #000000",
"a8 c #000000",
/* pixels */
"```.`#`a`b`c`d`d`d`e`b`b`f`g`h`i",
"`j`k`l`m`n`o`p`q`q`p`r`s`t`u`v`w",
"`x`y`z`A`B`C`D`E`E`F`G`B`H`z`I`x",
"`J`K`L`M`N`O`P`Q`Q`P`R`S`M`L`K`J",
"`T`U`V`J`W`X`Y`Z`Z`0`1`2`J`V`U`T",
"`3`4`5`6`7`8.`...#.a`8`K`6.b`4`3",
".c.d.e.f.g.h.i.j.j.k.h.g.l.e.m.c",
"`J.n.o.p.q.r`7.s.s`7.r.q.t.u.v`6",
".w.x.y.z.A.B.C.D.D.C.B.E.F.G.H.I",
".J.K.L.M.N.O.O.O.O.O.O.P.Q.R.K.S",
".T.U.V.W.X.Y.Y.Y.Y.Y.Y.X.Z.0.U.1"
};
