/* XPM */
static char *jm[] = {
/* columns rows colors chars-per-pixel */
"16 11 155 2",
"   c black",
".  c #130000",
"X  c #121210",
"o  c gray8",
"O  c #191919",
"+  c gray10",
"@  c gray12",
"#  c #290F00",
"$  c #002D00",
"%  c #003100",
"&  c #003900",
"*  c #003D00",
"=  c #202020",
"-  c #252525",
";  c #2D2B26",
":  c #39352B",
">  c #333232",
",  c gray21",
"<  c gray23",
"1  c #3F3F3F",
"2  c #553B00",
"3  c #004100",
"4  c #004700",
"5  c #004D00",
"6  c #005100",
"7  c #005500",
"8  c #005900",
"9  c #006300",
"0  c #006B00",
"q  c #007100",
"w  c #007500",
"e  c #007900",
"r  c #007D00",
"t  c #0D7D00",
"y  c #49401F",
"u  c #7A6514",
"i  c #4C462F",
"p  c #5A512B",
"a  c #444444",
"s  c #494A49",
"d  c #4B4B49",
"f  c #4B4A4B",
"g  c gray31",
"h  c #504E46",
"j  c #535353",
"k  c gray33",
"l  c #585858",
"z  c #605F5C",
"x  c #666045",
"c  c #696349",
"v  c #766E50",
"b  c #6A6A6A",
"n  c #6F6F6F",
"m  c #7B7766",
"M  c #727273",
"N  c #767676",
"B  c #797979",
"V  c #917C2B",
"C  c #008100",
"Z  c #008300",
"A  c #008500",
"S  c #1E9C1E",
"D  c #379B00",
"F  c #23A123",
"G  c #29A329",
"H  c #2EA52E",
"J  c #36A62A",
"K  c #3CA82F",
"L  c #39A739",
"P  c #3DAC3D",
"I  c #5DA919",
"U  c #4AAA35",
"Y  c #73B634",
"T  c #70B83D",
"R  c #42AE42",
"E  c #46B046",
"W  c #47B347",
"Q  c #48B142",
"!  c #4EB447",
"~  c #4BB24B",
"^  c #4CB54C",
"/  c #50B350",
"(  c #51B651",
")  c #67B955",
"_  c #6ABD5C",
"`  c #61BB60",
"'  c #65C065",
"]  c #69C269",
"[  c #6DC36D",
"{  c #70C571",
"}  c #74C574",
"|  c #AF8F0B",
" . c #B78500",
".. c #9BBA24",
"X. c #BEA124",
"o. c #ABBE32",
"O. c #DD9300",
"+. c #D1A700",
"@. c #DBAF00",
"#. c #EDB100",
"$. c #F5BD00",
"%. c #C5A72C",
"&. c #CCAE30",
"*. c #D7B630",
"=. c #E1BE2C",
"-. c #A6C134",
";. c #A0C23C",
":. c #D7C513",
">. c #E5C300",
",. c #FFCF00",
"<. c #F1CF0E",
"1. c #ECC319",
"2. c #F4D31F",
"3. c #D2C82F",
"4. c #D5CB35",
"5. c #DBCF37",
"6. c #D0CB3C",
"7. c #F6D02A",
"8. c #F2D42F",
"9. c #F6CF31",
"0. c #F2CF3F",
"q. c #E4D23A",
"w. c #F8D536",
"e. c #F7DC31",
"r. c #F8D936",
"t. c #F9D53A",
"y. c #F9DB3B",
"u. c #F9DC3A",
"i. c #FADF3F",
"p. c #958545",
"a. c #A99959",
"s. c #928D7A",
"d. c #C5AC44",
"f. c #C8AE40",
"g. c #DABC40",
"h. c #D3B94B",
"j. c #D6BF5F",
"k. c #85C354",
"l. c #AAC94B",
"z. c #B7CC57",
"x. c #82C977",
"c. c #D3CE41",
"v. c #C0CF58",
"b. c #EECF4E",
"n. c #FBDA46",
"m. c #E6DB59",
"M. c #F8DF53",
"N. c #FBDA54",
"B. c #FDE151",
"V. c #FAE35D",
"C. c #FEE65C",
"Z. c #C8D979",
"A. c #EED362",
"S. c #F7DF7B",
"D. c #FFEA7B",
/* pixels */
",.>.D A A Z Z r w w 0 0 9 r +.#.",
"2 S.D.Z.x.} { [ ] ' _ _ z.M.b.. ",
"  s.j.C.m.k.( ^ W R T 5.e.%.c   ",
"  B z a.N.M.l.! Q ;.r.w.V ; a   ",
"  N l j v h.n.c.6.w.f.p - = 1   ",
"  M j g d h g.i.r.*., - @ + <   ",
"  n g d x &.t.4.3.8.X.2 + o ,   ",
"  b d p.b.r.-.K J ..2.1.u X >   ",
"  m f.n.q.Y H G F S I :.<.| i   ",
"# A.V.v.) / ^ R R P L U o.8.=.  ",
"$.@.t 8 7 6 5 4 3 * & % $ 5  .O."
};
