/* XPM */
static char *jo[] = {
/* columns rows colors chars-per-pixel */
"16 11 120 2",
"   c black",
".  c #002900",
"X  c #002D00",
"o  c #002F00",
"O  c #003300",
"+  c #003900",
"@  c #003D00",
"#  c #2C2C2C",
"$  c #313131",
"%  c #373737",
"&  c #3D3C3D",
"*  c #004100",
"=  c #004700",
"-  c #004D00",
";  c #005100",
":  c #005700",
">  c #005D00",
",  c #006300",
"<  c gray26",
"1  c gray28",
"2  c #494949",
"3  c #4C4C4C",
"4  c #4E4E4E",
"5  c #515151",
"6  c #535353",
"7  c gray33",
"8  c #585757",
"9  c gray36",
"0  c #635959",
"q  c #616060",
"w  c #656565",
"e  c DimGray",
"r  c #6D6D6D",
"t  c #707071",
"y  c #747474",
"u  c #777777",
"i  c #797979",
"p  c #890000",
"a  c #9B0000",
"s  c #F70000",
"d  c #F90000",
"f  c #FB0000",
"g  c #FD0000",
"h  c red",
"j  c #B5693F",
"k  c #DC513F",
"l  c #BC5C5C",
"z  c #A47B7B",
"x  c #DD5454",
"c  c #FA4040",
"v  c #FA4444",
"b  c #FB4545",
"n  c #FB4646",
"m  c #FA4449",
"M  c #FB4949",
"N  c #FC4A4B",
"B  c #FB4E4E",
"V  c #FD4F50",
"C  c #FC5555",
"Z  c #FD5757",
"A  c #FE5959",
"S  c #FE5C5C",
"D  c #FE5F5F",
"F  c #E86C62",
"G  c #FC6666",
"H  c #FC6A6A",
"J  c #FD6F6F",
"K  c #EB7B7B",
"L  c #FE7676",
"P  c #FE7979",
"I  c #FF7B7A",
"U  c #189A19",
"Y  c #1C9C1C",
"T  c #219F21",
"R  c #25A126",
"E  c #2AA32A",
"W  c #30A630",
"Q  c #35A935",
"!  c #38A738",
"~  c #3AA83A",
"^  c #3BA93B",
"/  c #3AAC3A",
"(  c #3DA93D",
")  c #40AC40",
"_  c #40AE40",
"`  c #45AE44",
"'  c #48AF48",
"]  c #45B145",
"[  c #4CB24C",
"{  c #50B450",
"}  c #55B655",
"|  c #5AB95A",
" . c #5EBB5E",
".. c #62BE62",
"X. c #949B5D",
"o. c #F98889",
"O. c #FC8D8D",
"+. c #FE8E8E",
"@. c #F98E91",
"#. c #FC9090",
"$. c #FE9A9A",
"%. c #FB9E9E",
"&. c #FD9C9F",
"*. c gray81",
"=. c gray82",
"-. c #D5D5D5",
";. c #D7D7D7",
":. c gray95",
">. c #F3F3F3",
",. c #F4F4F4",
"<. c #F4F5F5",
"1. c gray96",
"2. c #F6F6F6",
"3. c gray97",
"4. c #F8F8F8",
"5. c #F9F9F9",
"6. c gray98",
"7. c #FBFBFB",
"8. c gray99",
"9. c #FDFDFD",
/* pixels */
"a                               ",
"h K z i u y t r e w q 9 7 7 4   ",
"h I D l 0 7 5 3 1 < & % $ # 2   ",
"h L D A x %.9.6.6.6.4.3.3.3.3.;.",
"h L +.Z V Z %.6.6.3.3.3.,.,.3.-.",
"f $.9.#.M b c o.3.3.,.3.,.>.<.*.",
"h J O.B b m @.4.3.3.>.>.>.:.,.-.",
"f H M b k @.4.3.3.,.>.>.:.:.>.*.",
"f G v j ] ` / Q E E R T Y U ( X ",
"s F X... .| } { [ ' ` ` ( ! ! . ",
"p ; , > : ; - = * @ + O X X . . "
};
