/* XPM */
static char *kh[] = {
/* columns rows colors chars-per-pixel */
"16 11 159 2",
"   c #000069",
".  c #00007B",
"X  c #00007D",
"o  c #00007F",
"O  c #8B0000",
"+  c #8F0000",
"@  c #970000",
"#  c #BD0000",
"$  c #BF0000",
"%  c #C30000",
"&  c #C61010",
"*  c #C81414",
"=  c #C91816",
"-  c #C81919",
";  c #C81A1A",
":  c #C91F1F",
">  c #CC2020",
",  c #CD2525",
"<  c #CD2626",
"1  c #CE2B2B",
"2  c #CF2E2D",
"3  c #CF3131",
"4  c #CD3232",
"5  c #CE3232",
"6  c #CF3636",
"7  c #CF3B3B",
"8  c #D03837",
"9  c #D23839",
"0  c #D23C3C",
"q  c #D33F3F",
"w  c #D34444",
"e  c #D84746",
"r  c #D74947",
"t  c #D74B4B",
"y  c #D94949",
"u  c #D84A49",
"i  c #D94F4F",
"p  c #DB4F4F",
"a  c #DB5150",
"s  c #DA5152",
"d  c #DA5252",
"f  c #DB5353",
"g  c #DB5454",
"h  c #DD5454",
"j  c #DC5857",
"k  c #DD5858",
"l  c #DC5959",
"z  c #DD5B5A",
"x  c #DE5C5C",
"c  c #DB6061",
"v  c #DD6363",
"b  c #DE6F6E",
"n  c #E16A6A",
"m  c #E26F6F",
"M  c #E27273",
"N  c #E47676",
"B  c #E47979",
"V  c #000081",
"C  c #000085",
"Z  c #000089",
"A  c #00008B",
"S  c #00008F",
"D  c #000093",
"F  c #000097",
"G  c #000099",
"H  c #00009B",
"J  c #00009F",
"K  c #0000A1",
"L  c #0000A3",
"P  c #0000A7",
"I  c #0000A9",
"U  c #0000AD",
"Y  c #0000AF",
"T  c #0000B1",
"R  c #0000B3",
"E  c #0007B3",
"W  c #0000B7",
"Q  c #0000B9",
"!  c #0000BB",
"~  c #0003BD",
"^  c #0007BD",
"/  c #0007BF",
"(  c #000DBF",
")  c #2238B4",
"_  c #263BB7",
"`  c #2B44BC",
"'  c #2F47BD",
"]  c #344BBF",
"[  c #4255BF",
"{  c #394FC1",
"}  c #3F54C3",
"|  c #3452C8",
" . c #3655C9",
".. c #3957CA",
"X. c #3D5BCB",
"o. c #4558C6",
"O. c #4459C6",
"+. c #415ECD",
"@. c #4A5DC8",
"#. c #495EC8",
"$. c #4461CE",
"%. c #4F62CA",
"&. c #4E63CB",
"*. c #4865CF",
"=. c #5263C9",
"-. c #5366CB",
";. c #5768CB",
":. c #576BCD",
">. c #5A6BCB",
",. c #5D6ECF",
"<. c #4D68D1",
"1. c #516CD3",
"2. c #556FD5",
"3. c #5670D4",
"4. c #5B75D6",
"5. c #5A74D7",
"6. c #5F77D8",
"7. c #5F78D8",
"8. c #6172D1",
"9. c #6576D2",
"0. c #6979D3",
"q. c #6B7CD5",
"w. c #6E7ED6",
"e. c #637BDA",
"r. c #647CDA",
"t. c #677FDB",
"y. c #687FDC",
"u. c #6A83DD",
"i. c #6F86DD",
"p. c #7684D5",
"a. c #738ADF",
"s. c #768CE0",
"d. c #798FE2",
"f. c #7C91E2",
"g. c #7F93E3",
"h. c #E58180",
"j. c #E59B9B",
"k. c #E8A3A3",
"l. c #8894DD",
"z. c #8095E3",
"x. c #EEDCDB",
"c. c #F5DEDD",
"v. c #F4DEDE",
"b. c #F2E2E2",
"n. c #F3E4E4",
"m. c #F6E5E5",
"M. c #F4E6E6",
"N. c #F5E6E6",
"B. c #F6E8E7",
"V. c #F7E8E8",
"C. c #F4EBEB",
"Z. c #F7EDEC",
"A. c #F7F2F2",
"S. c #F4F4F4",
"D. c #F5F4F4",
"F. c #F6F6F6",
"G. c gray97",
"H. c #F9F6F6",
"J. c #F8F8F8",
/* pixels */
"( / ^ ^ ~ ! ! W R R U I P L J J ",
"/ z.z.g.f.f.a.a.i.u.t.e.7.5.2.G ",
"E l.w.q.0.9.8.,.:.-.=.#.o.} >.C ",
"% B x j g d t v c 0 9 3 1 < w @ ",
"% N k h d h.k c.v.r b 2 < > q @ ",
"$ M d p d N.k.N.M.j.b.3 : - 7 + ",
"$ m p y j H.V.J.A.M.S.8 ; * 6 + ",
"$ b e e N.H.Z.H.F.C.S.x.= & 3 O ",
"J p.;.=.&.#.o.} { ] ' ` _ ) [   ",
"U t.t.7.5.3.1.<.*.$.+.X... .| o ",
"U I L J G F D S A A C o o o . . "
};
