/* XPM */
static char *km[] = {
/* columns rows colors chars-per-pixel */
"16 11 150 2",
"   c #005300",
".  c #005900",
"X  c #005517",
"o  c #006700",
"O  c #006F00",
"+  c #B30000",
"@  c #B50000",
"#  c #DA2E14",
"$  c #DB3510",
"%  c #DC3914",
"&  c #DB3119",
"*  c #DD361F",
"=  c #DE3D19",
"-  c #DE3B24",
";  c #E13F2A",
":  c #B36E3A",
">  c #DF411F",
",  c #DE4B36",
"<  c #D35635",
"1  c #E14624",
"2  c #E4452F",
"3  c #E24B2A",
"4  c #E84E2F",
"5  c #E05232",
"6  c #ED5134",
"7  c #4FA700",
"8  c #59963F",
"9  c #40A040",
"0  c #41A140",
"q  c #46A346",
"w  c #4FA751",
"e  c #50A950",
"r  c #53A953",
"t  c #5CB05D",
"y  c #60B15F",
"u  c #7D9B74",
"i  c #68B566",
"p  c #6CB66B",
"a  c #63AF71",
"s  c #74B973",
"d  c #7BBC7A",
"f  c #82813A",
"g  c #E7D600",
"h  c #EAD300",
"j  c #EBD400",
"k  c #ECD500",
"l  c #EDD600",
"z  c #EED700",
"x  c #EFD800",
"c  c #F0D900",
"v  c #F1DA00",
"b  c #F2DB00",
"n  c #80A562",
"m  c #9DCF5C",
"M  c #8EC87B",
"N  c #F7F74E",
"B  c #F8F853",
"V  c #F9F957",
"C  c #FAFA5C",
"Z  c #D4EA7B",
"A  c #F6F660",
"S  c #F7F764",
"D  c #FBFB60",
"F  c #FCFC65",
"G  c #F8F869",
"H  c #FCFC69",
"J  c #F9F96D",
"K  c #FDFD6D",
"L  c #F7F775",
"P  c #FAFA71",
"I  c #FDFD71",
"U  c #FBFB75",
"Y  c #FEFE74",
"T  c #FEFE77",
"R  c #F3F979",
"E  c #FCFC79",
"W  c #FEFE79",
"Q  c #FDFD7D",
"!  c #6D6DA7",
"~  c #0000DD",
"^  c #0000DF",
"/  c #0039C3",
"(  c #0000E1",
")  c #0000E3",
"_  c #0000E5",
"`  c #0001E7",
"'  c #0007E9",
"]  c #000FEB",
"[  c #0013ED",
"{  c #001BED",
"}  c #0021EF",
"|  c #002FF1",
" . c #6EA7BD",
".. c #4D8AF2",
"X. c #4F8CF2",
"o. c #528FF3",
"O. c #5590F3",
"+. c #5993F4",
"@. c #5C95F5",
"#. c #6098F6",
"$. c #649BF7",
"%. c #689EF7",
"&. c #6B9FF8",
"*. c #73A2F9",
"=. c #79A3F9",
"-. c #8882BE",
";. c #8884BE",
":. c #9787B5",
">. c #DBA597",
",. c #9BCD9E",
"<. c #B9DDB9",
"1. c #FDFD86",
"2. c #8985C0",
"3. c #8986C1",
"4. c #8A87C2",
"5. c #8B89C4",
"6. c #8B8AC5",
"7. c #8B8BC7",
"8. c #8D8CC7",
"9. c #8E8DC9",
"0. c #EFD3CC",
"q. c #F1D5CE",
"w. c #F1D7D0",
"e. c #F1D8D3",
"r. c #F2D9D2",
"t. c #F3D9D3",
"y. c #F4DBD4",
"u. c #CAE4CA",
"i. c #CEE7CE",
"p. c #CFE7CF",
"a. c #D3E8D3",
"s. c #DCEDDC",
"d. c #E7E7E7",
"f. c #E8F3E8",
"g. c #EAF3EA",
"h. c #E8F4E8",
"j. c #EBF4EB",
"k. c #EEF7EE",
"l. c #ECF8F2",
"z. c #F4F4F4",
"x. c #F5F5F4",
"c. c gray96",
"v. c #F6F6F5",
"b. c #F6F6F6",
"n. c gray97",
"m. c #F8F8F8",
"M. c #F9F9F9",
"N. c gray98",
"B. c #FBFBFB",
"V. c gray99",
/* pixels */
"7 g b b b x b b x b x x l l l l ",
"o M Z W Y Y I K H F D C V B N h ",
"O d p m R 1.W I U P J G S A L h ",
". d h.s.s i.V.M.N.M.M.n.b.z.b.d.",
". h.z.t i.e ,.k.M.N.b.b.z.z.b.d.",
". j.<.e g.q 0 u t.t.t.w.q.0.e.>.",
". j.j.e u.9 f < 2 2 - * & # , + ",
". i g.a.8 : 6 4 3 1 > = % $ 5 + ",
". i y u :.9.8.7.3.3.3.;.;.-.7.! ",
"  a  .=.*.&.%.$.@.@.@.O.o.X...~ ",
"X / | } { [ ] ' ` ` ( ( ~ ~ ~ ~ "
};
