/* XPM */
static char *kp[] = {
/* columns rows colors chars-per-pixel */
"16 11 158 2",
"   c #C70000",
".  c #CD0000",
"X  c #CF0000",
"o  c #D10000",
"O  c #D50000",
"+  c #D70000",
"@  c #E90000",
"#  c #ED0000",
"$  c #EF0000",
"%  c #F10000",
"&  c #F10001",
"*  c #E71010",
"=  c #E71414",
"-  c #E91414",
";  c #E81919",
":  c #EA1919",
">  c #E81A1A",
",  c #E91F1F",
"<  c #EB1F1F",
"1  c #E62323",
"2  c #E62727",
"3  c #E92020",
"4  c #EB2424",
"5  c #EB2525",
"6  c #EC2424",
"7  c #ED2626",
"8  c #E82B2B",
"9  c #EC2A2A",
"0  c #EC2B2B",
"q  c #EE2A2A",
"w  c #EE2B2B",
"e  c #ED2F2F",
"r  c #E93030",
"t  c #EB3232",
"y  c #ED3030",
"u  c #EF3131",
"i  c #EA3434",
"p  c #E93636",
"a  c #EF3434",
"s  c #EF3636",
"d  c #EB3B3B",
"f  c #EC3939",
"g  c #ED3E3E",
"h  c #EC3F3F",
"j  c #F03736",
"k  c #F03B3C",
"l  c #F13C3C",
"z  c #E94343",
"x  c #ED4142",
"c  c #EE4444",
"v  c #EC4A4C",
"b  c #EE4D4D",
"n  c #F24142",
"m  c #F34747",
"M  c #F04848",
"N  c #F24D4D",
"B  c #F04E4E",
"V  c #ED5051",
"C  c #EF5456",
"Z  c #F05152",
"A  c #F25858",
"S  c #F0595B",
"D  c #F15E5F",
"F  c #EE6465",
"G  c #F26161",
"H  c #F26163",
"J  c #F26565",
"K  c #F36667",
"L  c #F46969",
"P  c #F76A6A",
"I  c #F66F6F",
"U  c #F46E71",
"Y  c #F47272",
"T  c #F47273",
"R  c #F77273",
"E  c #F67475",
"W  c #F57676",
"Q  c #F77676",
"!  c #F67779",
"~  c #F87979",
"^  c #F97979",
"/  c #000BDD",
"(  c #000FDD",
")  c #0011DF",
"_  c #0019DD",
"`  c #0017E1",
"'  c #001DE3",
"]  c #0021E5",
"[  c #0025E7",
"{  c #002BE9",
"}  c #0031EB",
"|  c #0037ED",
" . c #003FED",
".. c #0043EF",
"X. c #0049EF",
"o. c #0049F1",
"O. c #004FF3",
"+. c #0055F5",
"@. c #005BF7",
"#. c #035FF5",
"$. c #055FF9",
"%. c #0B63FB",
"&. c #1167FD",
"*. c #176DFD",
"=. c #1B6FFD",
"-. c #2173FD",
";. c #2575FF",
":. c #317DFF",
">. c #7FA3DD",
",. c #F68584",
"<. c #F58A8A",
"1. c #F78C8C",
"2. c #F88F8F",
"3. c #F79999",
"4. c #F9A3A3",
"5. c #9DBBEB",
"6. c #B3CDF7",
"7. c #F8C2C2",
"8. c #FAC5C5",
"9. c #FBC8C7",
"0. c #FBC8C8",
"q. c #FBC9C9",
"w. c #FACACA",
"e. c #F9D3D3",
"r. c #FBD2D2",
"t. c #FBDDDC",
"y. c #FADEDE",
"u. c #CBD9F2",
"i. c #CBDAF2",
"p. c #CDDBF3",
"a. c #CEDCF3",
"s. c #C1D9FF",
"d. c #D0DDF4",
"f. c #D1DEF5",
"g. c #D3E0F6",
"h. c #D4E1F7",
"j. c #D6E2F7",
"k. c #D7E3F7",
"l. c #D8E4F8",
"z. c #D8E5F8",
"x. c #D9E6F9",
"c. c #DAE6F9",
"v. c #DAE7F9",
"b. c #DCE8FA",
"n. c #DDE8FB",
"m. c #DEE9FC",
"M. c #DFEBFC",
"N. c #F9E1E1",
"B. c #F9E3E2",
"V. c #FDE1E1",
"C. c #F9E8E8",
"Z. c #F9EAEA",
"A. c #FCE8E8",
"S. c #E1ECFD",
"D. c #E2EDFE",
"F. c #E4EEFE",
"G. c #E5EEFE",
"H. c #E5EFFF",
/* pixels */
":.;.;.;.-.=.*.&.%.$.@.+.O.X...X.",
"s.H.H.H.H.D.S.S.m.m.b.b.c.l.l.5.",
"& 2.! E U R K L H D S C V v F O ",
"& ~ ~ 0.A.V.1.M n l j a w 7 c O ",
"$ Q 0.4.9.3.t.B g s e w 7 , h o ",
"$ R t.e.Y e.Z.H s e 9 7 , ; d . ",
"$ I 8.,.7.<.B.c e w 6 , ; = p . ",
"# P L 0.B.C.J a w 4 , ; - * a . ",
"# Q A Z B B c h s i i 8 2 1 z   ",
"6.b.b.c.c.l.f.h.g.a.d.a.u.u.u.>.",
"#.O.X... .| } { [ ] ' ` ) ( / _ "
};
