/* XPM */
static char *kr[] = {
/* columns rows colors chars-per-pixel */
"16 11 122 2",
"   c #565656",
".  c #585858",
"X  c gray39",
"o  c #676666",
"O  c DimGray",
"+  c gray42",
"@  c #777777",
"#  c #7C7B7C",
"$  c #7E7E7E",
"%  c gray50",
"&  c #E7363D",
"*  c #EE3D43",
"=  c #E3434F",
"-  c #E84249",
";  c #FA4141",
":  c #FA4442",
">  c #FB4646",
",  c #FB4A4A",
"<  c #F97875",
"1  c #656EBE",
"2  c #2A66D6",
"3  c #3A6DD5",
"4  c #3C72D9",
"5  c #3A76DD",
"6  c #4B67C5",
"7  c #5569C2",
"8  c #586FC7",
"9  c #C67993",
"0  c #6D92DC",
"q  c #7AA1E6",
"w  c gray53",
"e  c gray55",
"r  c gray62",
"t  c #ABAAA7",
"y  c #AAA9A8",
"u  c #ADAFAF",
"i  c #AEAEAE",
"p  c #ADB0B0",
"a  c #B1B1B1",
"s  c #BAB9BA",
"d  c #BBBBBB",
"f  c #FC8A8A",
"g  c #F79695",
"h  c #F3B1B5",
"j  c #B59DC3",
"k  c #A3ACD9",
"l  c #AAC4F0",
"z  c gray76",
"x  c #C5C5C5",
"c  c #C6C6C6",
"v  c #C8C8C8",
"b  c #CBCBCB",
"n  c #CBD1CF",
"m  c #D0D0CD",
"M  c #CBD1D1",
"N  c #CBD3D1",
"B  c #CFD3D1",
"V  c #CFD5D3",
"C  c #CFD7D5",
"Z  c #D3D3D1",
"A  c #D1D7D5",
"S  c #D5D5D5",
"D  c #D7D7D7",
"F  c #D1D9D7",
"G  c #D3D9D9",
"H  c #D5DBD9",
"J  c #D7DBDB",
"K  c #D7DFDD",
"L  c gray85",
"P  c #DAD9DA",
"I  c #D8DADB",
"U  c #DADADA",
"Y  c #DBDADA",
"T  c #DADCDC",
"R  c #DFDFDF",
"E  c #FBD6D6",
"W  c #FCDADA",
"Q  c #D9E1DF",
"!  c #C5D2EC",
"~  c #C9D5ED",
"^  c #DDE3E1",
"/  c #DFE5E3",
"(  c #E1E7E5",
")  c #E7E7E7",
"_  c #E3E9E9",
"`  c #E5EBEB",
"'  c #E7EDED",
"]  c gray91",
"[  c #E9E9E9",
"{  c #E9E9EA",
"}  c #EAEAEA",
"|  c #EDECE8",
" . c #E9EEEE",
".. c #E9EFEF",
"X. c #EBF1EF",
"o. c #E8EEF4",
"O. c #EBF1F1",
"+. c #EDF1F1",
"@. c #EDF3F3",
"#. c #EFF5F3",
"$. c gray95",
"%. c #F2F2F3",
"&. c #F3F3F3",
"*. c #F5F4F3",
"=. c #F2F5F5",
"-. c #F1F7F5",
";. c #F4F4F4",
":. c #F4F5F5",
">. c gray96",
",. c #F6F6F6",
"<. c gray97",
"1. c #F8F0F0",
"2. c #FDF6F5",
"3. c #F2F4F9",
"4. c #F8F8F8",
"5. c gray98",
"6. c #FBFBFB",
"7. c gray99",
"8. c #FDFDFD",
"9. c #FDFDFE",
"0. c #FEFEFE",
"q. c gray100",
/* pixels */
"-.-.-.-.-.-.#.@.X.X.' ' ' _ / / ",
"-.q.q.D c *.q.7.7.7.%.s v 4.4.^ ",
"-.q.} e # T 8.W E 6.U o @ U <.Q ",
"-.q.U w i 2.f , : < 1.i X z <.K ",
"-.q.q.) -.h > * * & g  .U -.*.H ",
"@.q.7.7.7.j - = 1 6 9 <.;.%.<.A ",
"@.q.6.} *.l 7 8 5 2 k | U %.;.A ",
"X.7.S $ y 3.q 4 3 0 o.t . s %.V ",
"o.6.R $ + m <.~ ! %.n   O b %.M ",
" .6.6.c i } <.<.<.*.) r a *.%.M ",
" .` _ ( ( ^ Q K H G A C V M n n "
};
