/* XPM */
static char *ky[] = {
/* columns rows colors chars-per-pixel */
"16 11 152 2",
"   c black",
".  c #000003",
"X  c #00000B",
"o  c #000011",
"O  c #000019",
"+  c #00001F",
"@  c #000025",
"#  c #000027",
"$  c #00002D",
"%  c #00002F",
"&  c #000031",
"*  c #000033",
"=  c #000039",
"-  c #00003B",
";  c #00003F",
":  c #000049",
">  c #000963",
",  c #001D75",
"<  c #273373",
"1  c #772D4F",
"2  c #7F2F4F",
"3  c #573965",
"4  c #713D61",
"5  c #753D61",
"6  c #30437F",
"7  c #3B4E7F",
"8  c #607049",
"9  c #63744D",
"0  c #647350",
"q  c #6F7E5D",
"w  c #5D666F",
"e  c #6A7277",
"r  c #CB322E",
"t  c #C33339",
"y  c #D1423D",
"u  c #B5717F",
"i  c #C0656B",
"p  c #C2696F",
"a  c #E0777B",
"s  c #738159",
"d  c #77845E",
"f  c #AC9C6E",
"g  c #B09978",
"h  c #B29D7F",
"j  c #B7A16E",
"k  c #CE966D",
"l  c #C0A065",
"z  c #CCA373",
"x  c #CAAC72",
"c  c #233D82",
"v  c #2A4187",
"b  c #2C4385",
"n  c #294485",
"m  c #2D4486",
"M  c #2F4088",
"N  c #2E4889",
"B  c #2F4989",
"V  c #2E4B8E",
"C  c #364E87",
"Z  c #3B4E86",
"A  c #304288",
"S  c #35488B",
"D  c #344D8D",
"F  c #344E8D",
"G  c #374E8C",
"H  c #3A4E8B",
"J  c #394B8F",
"K  c #3B4D8D",
"L  c #3B4F8D",
"P  c #3B5289",
"I  c #3D548F",
"U  c #364C90",
"Y  c #3A5290",
"T  c #3C5291",
"R  c #3F5592",
"E  c #3F5793",
"W  c #3F5594",
"Q  c #415483",
"!  c #475987",
"~  c #4C5E8B",
"^  c #405793",
"/  c #405893",
"(  c #425993",
")  c #425895",
"_  c #445A95",
"`  c #465997",
"'  c #445C97",
"]  c #455C97",
"[  c #465E96",
"{  c #485C95",
"}  c #455B98",
"|  c #415C99",
" . c #495F98",
".. c #4B6099",
"X. c #49609A",
"o. c #49609B",
"O. c #4E649B",
"+. c #4F649D",
"@. c #526196",
"#. c #50659C",
"$. c #54699E",
"%. c #676F9B",
"&. c #7E7097",
"*. c #7F749B",
"=. c #5368A3",
"-. c #5469A0",
";. c #586DA2",
":. c #5D72A4",
">. c #6175A7",
",. c #6D7BA0",
"<. c #6D7AA2",
"1. c #6174A9",
"2. c #6577A8",
"3. c #647AA9",
"4. c #667AAA",
"5. c #6B7CAC",
"6. c #6A7EAD",
"7. c #6F7FAE",
"8. c #8D7FA1",
"9. c #7C92BA",
"0. c #7F95BC",
"q. c #8B8EB2",
"w. c #9C97B4",
"e. c #DE868B",
"r. c #C38E9E",
"t. c #E48084",
"y. c #E88A8C",
"u. c #E08E93",
"i. c #EA9293",
"p. c #E09398",
"a. c #D7BF95",
"s. c #C090A1",
"d. c #D397A0",
"f. c #E69FA4",
"g. c #CBACB5",
"h. c #D8A9B3",
"j. c #D0B4BC",
"k. c #D9B5BE",
"l. c #DAB5BE",
"z. c #F1B3B4",
"x. c #F1B6B6",
"c. c #97AACB",
"v. c #DABFCA",
"b. c #BFCADA",
"n. c #DFC2CA",
"m. c #C1CBDB",
"M. c #C3CDDD",
"N. c #C5CFDE",
"B. c #E2C1C8",
"V. c #E4C9D1",
"C. c #E4D3DC",
"Z. c #E2D9E2",
/* pixels */
"u 8., 1 2 > 4 @ ; = * % @ @ O X ",
"< n.Z.l.h.v.C.,.6.2.1.,.a.-.+.X ",
"t f.i.t.a y.e.~ @.) | d s D  .. ",
"5 B.z.u.p.x.d.! { T y k z r / . ",
"%.V.w.s.r.c.l.Q ^ K j.u u g.T . ",
"3 q.=.*.&.` 3.7 Z 6 q q.q.8 H . ",
": 7.+.X.} / L S N b N.N.m.m.H . ",
"; 6.X.] ^ Y F B c g x 8 8 j h . ",
"= 3.' E I F B b c A e j f w Q . ",
"* >.:.;.$.#...{ ( ^ K P Z c b . ",
"% @ @ O X X . .         . . . . "
};
