/* XPM */
static char *lt[] = {
/* columns rows colors chars-per-pixel */
"16 11 160 2",
"   c #002F00",
".  c #003B00",
"X  c #770000",
"o  c #007B00",
"O  c #AD0000",
"+  c #B70000",
"@  c #B90000",
"#  c #BB0000",
"$  c #BD0000",
"%  c #BF0000",
"&  c #BC2610",
"*  c #BD2B14",
"=  c #BF2E19",
"-  c #C10000",
";  c #C30000",
":  c #C70000",
">  c #C90000",
",  c #CD0000",
"<  c #CF0000",
"1  c #D10000",
"2  c #D50000",
"3  c #D70000",
"4  c #DB0000",
"5  c #DD0000",
"6  c #E30000",
"7  c #E10B0B",
"8  c #E20F0E",
"9  c #E31313",
"0  c #E41919",
"q  c #E61E1E",
"w  c #C1331F",
"e  c #C33824",
"r  c #C53D2A",
"t  c #E72323",
"y  c #E12C2C",
"u  c #E22F2F",
"i  c #E52F2F",
"p  c #E82929",
"a  c #EA2E2E",
"s  c #E23232",
"d  c #E43535",
"f  c #EB3434",
"g  c #E53939",
"h  c #E63D3D",
"j  c #EC3A3A",
"k  c #EE3F3F",
"l  c #C7422F",
"z  c #C54532",
"x  c #C94834",
"c  c #CB4C3A",
"v  c #CE523F",
"b  c #CF5645",
"n  c #D15B49",
"m  c #E74242",
"M  c #E84646",
"N  c #EF4444",
"B  c #E94B4B",
"V  c #EA5050",
"C  c #EC5455",
"Z  c #ED5858",
"A  c #EE5D5D",
"S  c #DA7A6A",
"D  c #EF6162",
"F  c #F26666",
"G  c #008300",
"H  c #149B14",
"J  c #199D19",
"K  c #1A9C1A",
"L  c #1F9F1F",
"P  c #1FA01F",
"I  c #209F20",
"U  c #24A324",
"Y  c #25A225",
"T  c #2AA52A",
"R  c #2AA52B",
"E  c #2BA52B",
"W  c #2FA92F",
"Q  c #30A830",
"!  c #35AB35",
"~  c #36A936",
"^  c #36AB36",
"/  c #3BAA3B",
"(  c #3BAD3B",
")  c #3BAE3A",
"_  c #3BAE3C",
"`  c #3FAD3F",
"'  c #40B040",
"]  c #41B041",
"[  c #45B245",
"{  c #46B246",
"}  c #46B346",
"|  c #49B549",
" . c #4BB54B",
".. c #4FB74F",
"X. c #4FB84F",
"o. c #50B750",
"O. c #53B953",
"+. c #54B954",
"@. c #58BC58",
"#. c #6FC56F",
"$. c #72C673",
"%. c #76C876",
"&. c #AB9B00",
"*. c #E9B100",
"=. c #EDB700",
"-. c #EBB900",
";. c #EFBB00",
":. c #F1BF00",
">. c #D1C700",
",. c #F1C100",
"<. c #F3C500",
"1. c #F5C500",
"2. c #F7C900",
"3. c #F7CB00",
"4. c #F7CD00",
"5. c #F9CD00",
"6. c #FBD100",
"7. c #FFD300",
"8. c #FBD500",
"9. c #D7CF30",
"0. c #D9D136",
"q. c #DAD33B",
"w. c #F6DA38",
"e. c #F7DC3D",
"r. c #DCD540",
"t. c #DED646",
"y. c #DCD64D",
"u. c #DFD84B",
"i. c #F8DE42",
"p. c #F9DF48",
"a. c #E0DA50",
"s. c #E1DB54",
"d. c #E3DD59",
"f. c #E4DE5D",
"g. c #F7DF53",
"h. c #F7DE57",
"j. c #FAE04D",
"k. c #FBE152",
"l. c #FCE357",
"z. c #F7E05C",
"x. c #FDE45B",
"c. c #FDE55E",
"v. c #E5DF61",
"b. c #E6E064",
"n. c #F8E160",
"m. c #FEE662",
"M. c #F8E265",
"N. c #FEE766",
"B. c #F9E469",
"V. c #FAE56D",
"C. c #FEE869",
"Z. c #EBE67F",
"A. c #FBE671",
"S. c #FCE775",
"D. c #FCE879",
"F. c #FCE97B",
"G. c #FCE97E",
"H. c #FCEA80",
"J. c #FDEB83",
"K. c #FFEC83",
/* pixels */
"8.6.6.6.6.5.4.3.3.1.<.:.:.;.=.-.",
"6.J.J.J.G.G.F.S.A.V.N.M.M.h.h.*.",
"7.K.N.N.m.x.x.l.g.j.p.p.e.w.g.*.",
">.Z.b.v.f.d.s.a.u.t.q.q.0.9.y.&.",
"G %.@.+.o.| { ' _ ! Q E Y I ` . ",
"o $.O... .{ ] ) ! Q E Y L K /   ",
"o #.X.| { ' ) ! Q E Y P K H !   ",
"O S n b v c x l r e w = * & z X ",
"6 F N N j f a p t q 0 9 8 5 d % ",
"4 D A Z C V B M m h g d s u u + ",
"4 2 2 1 < < > > ; ; % % @ @ + @ "
};
