/* XPM */
static char *lu[] = {
/* columns rows colors chars-per-pixel */
"16 11 145 2",
"   c #E90000",
".  c #EB0000",
"X  c #ED0000",
"o  c #EF0000",
"O  c #F10000",
"+  c #F30000",
"@  c #F50000",
"#  c #F70500",
"$  c #F90B00",
"%  c #FB1105",
"&  c #FD170B",
"*  c #FD1D0F",
"=  c #E71F17",
"-  c #FF1F13",
";  c #FD2117",
":  c #FF2719",
">  c #FD271B",
",  c #FF291D",
"<  c #FF372D",
"1  c #F65D54",
"2  c #F76259",
"3  c #F8665E",
"4  c #F96A63",
"5  c #FA6F67",
"6  c #FF6D67",
"7  c #F7746C",
"8  c #FB736C",
"9  c #FC776F",
"0  c #F77E77",
"q  c #FD7A72",
"w  c #FD7D76",
"e  c #F8817A",
"r  c #FE817A",
"t  c #F9857F",
"y  c #FE847C",
"u  c #FE867F",
"i  c #003BDF",
"p  c #003FDD",
"a  c #0041DD",
"s  c #0043DD",
"d  c #0047DF",
"f  c #0049DD",
"g  c #0049E1",
"h  c #004DE3",
"j  c #0053E5",
"k  c #0055E7",
"l  c #005BE9",
"z  c #005FEB",
"x  c #0065ED",
"c  c #0069ED",
"v  c #006FEF",
"b  c #0075F1",
"n  c #0079F3",
"m  c #0F81DF",
"M  c #0081F7",
"N  c #0185F5",
"B  c #0081F9",
"V  c #379CF1",
"C  c #3B9EF1",
"Z  c #3FA0F2",
"A  c #44A2F3",
"S  c #48A5F4",
"D  c #4CA8F5",
"F  c #55A9F2",
"G  c #51AAF6",
"H  c #55ADF7",
"J  c #5BACF2",
"K  c #5DAEF2",
"L  c #5AB0F8",
"P  c #5FB3F9",
"I  c #60AFF3",
"U  c #63B1F3",
"Y  c #66B3F4",
"T  c #6AB5F5",
"R  c #6DB7F6",
"E  c #61B5FB",
"W  c #63B5FA",
"Q  c #68B8FA",
"!  c #70B9F7",
"~  c #75BBF7",
"^  c #78BDF8",
"/  c #7BBFF9",
"(  c #7FC2F9",
")  c #FA8882",
"_  c #FB8B85",
"`  c #FC8F8A",
"'  c #F5908B",
"]  c #F6938E",
"[  c #FC928D",
"{  c #FD958F",
"}  c #F79792",
"|  c #FD9892",
" . c #F89995",
".. c #FE9994",
"X. c #FF9B95",
"o. c #FE9D97",
"O. c #F69F9A",
"+. c #F99C98",
"@. c #FE9E99",
"#. c #FA9F9C",
"$. c #FFA09B",
"%. c #FBA29F",
"&. c #FCA5A1",
"*. c #FDA8A4",
"=. c #FDABA6",
"-. c #FEACA9",
";. c #FEAFAB",
":. c #FEBDBA",
">. c #86BFF2",
",. c #88C1F2",
"<. c #8BC4F3",
"1. c #8EC6F4",
"2. c #83C3FA",
"3. c #86C5FB",
"4. c #84C5FC",
"5. c #97C8F3",
"6. c #91C8F5",
"7. c #94CAF6",
"8. c #97CBF7",
"9. c #9BCDF8",
"0. c #9ECFF9",
"q. c #A1D1FA",
"w. c #A4D2FB",
"e. c #A7D4FB",
"r. c #B7DDFC",
"t. c gainsboro",
"y. c gray87",
"u. c gray88",
"i. c gray93",
"p. c gray95",
"a. c #F3F3F3",
"s. c #F4F4F4",
"d. c #F4F5F5",
"f. c gray96",
"g. c #F6F6F6",
"h. c gray97",
"j. c #F8F8F8",
"k. c #F9F9F9",
"l. c gray98",
"z. c #FBFBFB",
"x. c #FBFCFB",
"c. c gray99",
"v. c #FDFCFD",
"b. c #FDFDFD",
"n. c #FEFEFE",
/* pixels */
"< , , , : - - & $ $ # # O O o o ",
": $.$.@.@.X. .{ [ { _ ) t 0 0 . ",
"- X.u u w w q 9 8 5 4 3 2 1 7 . ",
"6 :.;.=.=.*.&.%.#.+. .} ' ' O.= ",
"i.n.n.z.n.z.z.z.z.j.j.f.g.d.d.u.",
"i.n.n.z.z.z.z.j.j.j.f.f.d.a.d.y.",
"i.n.z.z.z.z.z.j.f.f.d.a.a.p.d.t.",
"E r.e.e.q.0.9.7.7.6.1.<.,.>.5.m ",
"B 4.Q E P L H G D S A C C C F i ",
"M 3.2.2.^ ^ ~ ! R T Y U I K J p ",
"N n b v c x z l k k h g g a a f "
};
