/* XPM */
static char *lv[] = {
/* columns rows colors chars-per-pixel */
"16 11 156 2",
"   c #270000",
".  c #290000",
"X  c #2B0000",
"o  c #2D0000",
"O  c #2F0000",
"+  c #330000",
"@  c #350000",
"#  c #390000",
"$  c #3D0000",
"%  c #410000",
"&  c #470000",
"*  c #4B0000",
"=  c #4D0000",
"-  c #510000",
";  c #570000",
":  c #5D0000",
">  c #5F0000",
",  c #630000",
"<  c #670000",
"1  c #6D0000",
"2  c #6F0000",
"3  c #710000",
"4  c #750000",
"5  c #770000",
"6  c #790000",
"7  c #7D0000",
"8  c #810000",
"9  c #830000",
"0  c #850000",
"q  c #870000",
"w  c #890000",
"e  c #910000",
"r  c #940B0B",
"t  c #960F0E",
"y  c #951010",
"u  c #971414",
"i  c #981313",
"p  c #991919",
"a  c #9B1919",
"s  c #9C1F1F",
"d  c #9E1E1E",
"f  c #9F2424",
"g  c #9E2626",
"h  c #A12323",
"j  c #A32929",
"k  c #A12B2B",
"l  c #A22A2A",
"z  c #A22C2C",
"x  c #A32F2F",
"c  c #A62C2C",
"v  c #A42F2F",
"b  c #A52F2F",
"n  c #A62E2E",
"m  c #A43131",
"M  c #A43232",
"N  c #A53232",
"B  c #A73736",
"V  c #A93131",
"C  c #A83434",
"Z  c #A93434",
"A  c #A83535",
"S  c #AB3737",
"D  c #A93939",
"F  c #AB3A3A",
"G  c #AA3C3C",
"H  c #AC3D3D",
"J  c #AE3C3D",
"K  c #AD3F3F",
"L  c #AE3F3F",
"P  c #AD4142",
"I  c #AE4242",
"U  c #AC4444",
"Y  c #AF4747",
"T  c #B14242",
"R  c #B14444",
"E  c #B04545",
"W  c #B04646",
"Q  c #B34747",
"!  c #B14949",
"~  c #B24949",
"^  c #B24B4B",
"/  c #B64C4C",
"(  c #B44E4E",
")  c #B45050",
"_  c #B45151",
"`  c #B75353",
"'  c #B65454",
"]  c #B75455",
"[  c #B85151",
"{  c #BA5454",
"}  c #B95757",
"|  c #B95858",
" . c #B85959",
".. c #BC5959",
"X. c #BA5C5C",
"o. c #BB5C5C",
"O. c #BB5D5D",
"+. c #BE5C5C",
"@. c #BF5F5F",
"#. c #BE6060",
"$. c #BE6162",
"%. c #BF6666",
"&. c #C06565",
"*. c #C26969",
"=. c #C16A6A",
"-. c #C36D6D",
";. c #C57071",
":. c #C77474",
">. c #C87777",
",. c #C67979",
"<. c #C97979",
"1. c #CA7B7A",
"2. c #CA7B7B",
"3. c #C79F9F",
"4. c #C99D9D",
"5. c #E4CFCF",
"6. c #E9C9C9",
"7. c #E9CBCB",
"8. c #E5D0D0",
"9. c #E5D1D1",
"0. c #E6D2D2",
"q. c #E7D3D3",
"w. c #E8D3D3",
"e. c #E8D5D5",
"r. c #E9D5D5",
"t. c #E8D6D6",
"y. c #E9D6D6",
"u. c #E9D7D7",
"i. c #EAD7D7",
"p. c #EBD8D8",
"a. c #ECD9D9",
"s. c #EDDADA",
"d. c #EDDBDB",
"f. c #EEDCDC",
"g. c #EEDDDD",
"h. c #F0DEDE",
"j. c #F1DEDE",
"k. c gray90",
"l. c #F1E0E0",
"z. c #F1E1E1",
"x. c #F2E1E1",
"c. c #F4E7E7",
"v. c #F5E7E7",
"b. c #F3F3F3",
"n. c #F4F4F4",
"m. c #F4F5F5",
"M. c gray96",
"N. c #F6F6F6",
"B. c gray97",
"V. c #F8F8F8",
"C. c #F9F9F9",
"Z. c gray98",
"A. c #FBFBFB",
"S. c gray99",
"D. c #FDFDFD",
"F. c #FEFEFE",
/* pixels */
"e w w w 0 8 8 7 6 5 2 2 < , : : ",
"0 2.2.2.>.:.;.-.=.&.@.@.] ] / = ",
"w 2.@.+...{ [ / Q T J A V b ^ * ",
"8 ,.O.] ] _ ^ Y I F B M l g U $ ",
"6.c.l.l.j.j.a.a.a.t.t.w.0.8.t.4.",
"F.F.F.S.S.A.A.A.A.B.M.M.n.b.m.k.",
"6.c.z.j.g.g.d.a.t.t.e.0.0.5.t.3.",
"5 =.^ Y L F A b l h s p u y M X ",
"5 %.Y J F A b l h d a u y r v X ",
"2 $.X...] / ^ Y I J F A M b z   ",
"4 < , : ; - = * % $ # + o o X + "
};
