/* XPM */
static char *mc[] = {
/* columns rows colors chars-per-pixel */
"16 11 106 2",
"   c #E50000",
".  c #E70000",
"X  c #E90000",
"o  c #EB0000",
"O  c #ED0000",
"+  c #EF0000",
"@  c #F10000",
"#  c #F30000",
"$  c #F50000",
"%  c #F70000",
"&  c #F90000",
"*  c #FB0000",
"=  c #FD0000",
"-  c red",
";  c #FD0505",
":  c #F42020",
">  c #F52525",
",  c #F52626",
"<  c #F62B2B",
"1  c #F62C2C",
"2  c #F73030",
"3  c #F73131",
"4  c #F83636",
"5  c #F83736",
"6  c #F83737",
"7  c #F53F3F",
"8  c #F93B3C",
"9  c #F93C3C",
"0  c #F93C3D",
"q  c #F64444",
"w  c #FA4141",
"e  c #FA4142",
"r  c #FA4242",
"t  c #FB4646",
"y  c #FB4747",
"u  c #F74949",
"i  c #F34C4C",
"p  c #F74E4E",
"a  c #FC4B4B",
"s  c #FC4C4C",
"d  c #FD4F50",
"f  c #F45151",
"g  c #F55555",
"h  c #F85353",
"j  c #FD5151",
"k  c #F95757",
"l  c #FD5454",
"z  c #F65A5A",
"x  c #F75E5E",
"c  c #FE5858",
"v  c #FE5959",
"b  c #FA5C5C",
"n  c #FE5C5C",
"m  c #FE5F5F",
"M  c #F46666",
"N  c #FB6060",
"B  c #F86363",
"V  c #F96767",
"C  c #FC6565",
"Z  c #FA6B6B",
"A  c #FC6969",
"S  c #FD6D6D",
"D  c #FB7070",
"F  c #FD7071",
"G  c #FC7474",
"H  c #FE7474",
"J  c #FE7676",
"K  c #FE7777",
"L  c #FC7778",
"P  c #FE7979",
"I  c #FD7A7A",
"U  c #FF7B7A",
"Y  c #FF7B7B",
"T  c #FE9393",
"R  c #C5C5C5",
"E  c gray78",
"W  c gray79",
"Q  c #C9CBC9",
"!  c #CBCBCB",
"~  c gray81",
"^  c gray82",
"/  c LightGray",
"(  c #D7D7D7",
")  c gray85",
"_  c gray86",
"`  c #DFDFDF",
"'  c gray89",
"]  c gray90",
"[  c #E7E7E7",
"{  c #E9E9E9",
"}  c gray92",
"|  c #F1F1F1",
" . c gray95",
".. c #F2F2F3",
"X. c #F3F3F3",
"o. c #F4F4F4",
"O. c gray96",
"+. c #F6F6F6",
"@. c gray97",
"#. c #F8F8F8",
"$. c #F9F9F9",
"%. c gray98",
"&. c #FBFBFB",
"*. c #FBFCFB",
"=. c gray99",
"-. c #FDFDFD",
/* pixels */
"- - - - - * - * * * % % # # + + ",
"- Y Y Y K H F S A V N b k g p X ",
"- Y m n n j j s t w 0 6 3 1 u X ",
"- K m k l j s t w 8 6 3 1 , q . ",
"- K n j s s t w 9 5 2 < , : 7   ",
"; T Y L K D Z V B x z g p p M   ",
"} =.%.*.%.%.%.@.@.@.@.X.X.....! ",
"} %.%.=.%.%.@.@.@.X.X.X.......W ",
"[ =.%.%.#.#.@.@.X.X.X...| | ..R ",
"] *.%.%.#.@.@.@.@.@.X.......| R ",
"' ' ` _ ) ( ( / ^ ~ ! Q E R Q R "
};
