/* XPM */
static char *md[] = {
/* columns rows colors chars-per-pixel */
"16 11 155 2",
"   c #9F0000",
".  c #A10000",
"X  c #A30000",
"o  c #A50000",
"O  c #A70000",
"+  c #A90000",
"@  c #AD0000",
"#  c #B10000",
"$  c #B30000",
"%  c #B90000",
"&  c #BB0000",
"*  c #BF0000",
"=  c #C10000",
"-  c #C50000",
";  c #C70000",
":  c #D3291A",
">  c #D42C1D",
",  c #D53022",
"<  c #D63122",
"1  c #D73527",
"2  c #D73627",
"3  c #D73628",
"4  c #D83B2C",
"5  c #D83B2D",
"6  c #DA4032",
"7  c #DB4133",
"8  c #D84538",
"9  c #DC4538",
"0  c #DC4638",
"q  c #DD4639",
"w  c #D8483B",
"e  c #DA4B3E",
"r  c #DA4B3F",
"t  c #DE4B3D",
"y  c #DE4B3E",
"u  c #DB4E41",
"i  c #DB4F42",
"p  c #DF5043",
"a  c #DD5346",
"s  c #DE574B",
"d  c #DF5B50",
"f  c #E15448",
"g  c #E2594C",
"h  c #E16054",
"j  c #E26459",
"k  c #E4695D",
"l  c #E56C61",
"z  c #E67066",
"x  c #97823C",
"c  c #97833D",
"v  c #E3BB00",
"b  c #E5BD00",
"n  c #E7BF00",
"m  c #E9C100",
"M  c #EDC700",
"N  c #EBC900",
"B  c #FBD100",
"V  c #FDD300",
"C  c #F7D900",
"Z  c #F9DB00",
"A  c #FDDF00",
"S  c #FDE300",
"D  c #F4E31E",
"F  c #F2D723",
"G  c #F4D929",
"H  c #F3E026",
"J  c #F4E12B",
"K  c #F7EA2E",
"L  c #F5E230",
"P  c #F5E331",
"I  c #F6E436",
"U  c #F5E43D",
"Y  c #F7E63C",
"T  c #9A8642",
"R  c #9A8743",
"E  c #9E8B48",
"W  c #A08D4C",
"Q  c #A49152",
"!  c #A79457",
"~  c #A99652",
"^  c #AF9E57",
"/  c #B1A15C",
"(  c #ED9E41",
")  c #D1BE52",
"_  c #EEA046",
"`  c #DED042",
"'  c #E7D84E",
"]  c #F4E344",
"[  c #F8E640",
"{  c #F8E842",
"}  c #F9E845",
"|  c #F6E54C",
" . c #F9E948",
".. c #FAE94B",
"X. c #FAEA4D",
"o. c #F7E750",
"O. c #F7E855",
"+. c #FBEB51",
"@. c #FCEC56",
"#. c #F8E95A",
"$. c #FDED5B",
"%. c #FDEE5E",
"&. c #FDF351",
"*. c #FCEE65",
"=. c #FBED6A",
"-. c #FCEF72",
";. c #FDF075",
":. c #FDF17A",
">. c #FEF27B",
",. c #000099",
"<. c #00009D",
"1. c #0000A1",
"2. c #0000A5",
"3. c #0000A9",
"4. c #0000AB",
"5. c #0000AF",
"6. c #0000B3",
"7. c #0000B5",
"8. c #0000B9",
"9. c #0003BB",
"0. c #0005BB",
"q. c #0007BB",
"w. c #0009BB",
"e. c #3C5ACD",
"r. c #415FCF",
"t. c #4663D0",
"y. c #4A67D2",
"u. c #4C67D2",
"i. c #4F6CD4",
"p. c #516CD4",
"a. c #5470D6",
"s. c #5571D6",
"d. c #5671D6",
"f. c #5974D7",
"g. c #5E78D6",
"h. c #5A75D8",
"j. c #5E79D9",
"k. c #5F79D9",
"l. c #5F79DA",
"z. c #637BD8",
"x. c #627CDB",
"c. c #637CDB",
"v. c #677FD9",
"b. c #667FDC",
"n. c #6B83DB",
"m. c #6982DD",
"M. c #6F87DD",
"N. c #748ADD",
"B. c #788EDF",
"V. c #7B90E1",
"C. c #7F94E2",
"Z. c #8195E2",
"A. c #8196E2",
"S. c #8497E2",
"D. c #8498E2",
/* pixels */
"w.w.w.w.q.A S V B Z C ; ; * * & ",
"w.D.D.A.C.>.>.-.-.*.=.z l k j & ",
"w.S.m.b.c.%.&./ ^ X...p t q h # ",
"q.A.b.c.l.$.' ) ~ ` { t 0 7 d # ",
"9.C.c.l.h.@.! g f E Y q 7 5 s @ ",
"9.V.l.h.d.+.Q _ ( R I 5 5 3 a O ",
"6.B.f.d.i...W r.e.c P 4 2 < i O ",
"6.N.p.p.u.} [ R c P J 2 < > r X ",
"5.M.i.y.t.[ K G F D G < > : w   ",
"4.n.v.z.g.#.O.o.| Y ] i e w 8   ",
"4.1.1.<.,.N N m n n v X X X     "
};
