/* XPM */
static char *mg[] = {
/* columns rows colors chars-per-pixel */
"16 11 132 2",
"   c #002700",
".  c #002900",
"X  c #002D00",
"o  c #002F00",
"O  c #003100",
"+  c #003300",
"@  c #003500",
"#  c #003900",
"$  c #003D00",
"%  c #003F00",
"&  c #004100",
"*  c #004700",
"=  c #005D00",
"-  c #9B0000",
";  c #E70000",
":  c #E90000",
">  c #EB0000",
",  c #ED0000",
"<  c #EF0000",
"1  c #F10000",
"2  c #F30000",
"3  c #F50000",
"4  c #F70000",
"5  c #F90000",
"6  c #FB0000",
"7  c #FD0000",
"8  c #CE311A",
"9  c #D1351F",
"0  c #D23A25",
"q  c #D43F2B",
"w  c #F42020",
"e  c #F52525",
"r  c #F52626",
"t  c #F62B2B",
"y  c #F62C2C",
"u  c #F73030",
"i  c #F73131",
"p  c #F83636",
"a  c #F83736",
"s  c #F83737",
"d  c #F53F3F",
"f  c #F93B3C",
"g  c #F93C3C",
"h  c #F93C3D",
"j  c #D64430",
"k  c #D84936",
"l  c #D54E3B",
"z  c #D94E3B",
"x  c #DB5240",
"c  c #F64444",
"v  c #FA4141",
"b  c #FA4142",
"n  c #FA4242",
"m  c #FB4646",
"M  c #FB4747",
"N  c #F74949",
"B  c #F74E4E",
"V  c #FC4B4B",
"C  c #FC4C4C",
"Z  c #F85353",
"A  c #FD5151",
"S  c #F95757",
"D  c #FA5C5C",
"F  c #E7675D",
"G  c #FB6060",
"H  c #FC6062",
"J  c #FC6565",
"K  c #FD6666",
"L  c #FC6969",
"P  c #FD6A6A",
"I  c #FD6D6D",
"U  c #FD7071",
"Y  c #0B950B",
"T  c #0F970E",
"R  c #109710",
"E  c #139913",
"W  c #149914",
"Q  c #189C19",
"!  c #199C19",
"~  c #1E9F1E",
"^  c #1F9F1F",
"/  c #14A314",
"(  c #19A519",
")  c #1FA81F",
"_  c #23A123",
"`  c #24A224",
"'  c #24AB24",
"]  c #29A429",
"[  c #2AA42A",
"{  c #2CA22C",
"}  c #2FA42F",
"|  c #2EA62E",
" . c #2FA72F",
".. c #2AAD2A",
"X. c #2FB02F",
"o. c #32A532",
"O. c #33A632",
"+. c #34A934",
"@. c #35A835",
"#. c #35AD35",
"$. c #39A939",
"%. c #3BAE3A",
"&. c #3DAC3D",
"*. c #36B036",
"=. c #42AE42",
"-. c #46B046",
";. c #4BB14B",
":. c #4DB44D",
">. c #52B752",
",. c #55BB58",
"<. c #64BD64",
"1. c #FE8585",
"2. c gray85",
"3. c gray86",
"4. c #DFDFDF",
"5. c #E1E1E1",
"6. c gray89",
"7. c gray90",
"8. c #E7E7E7",
"9. c #E9E9E9",
"0. c gray92",
"q. c gray93",
"w. c #EFEFEF",
"e. c #F9F9F9",
"r. c gray98",
"t. c #FBFBFB",
"y. c #FBFCFB",
"u. c gray99",
"i. c #FDFCFD",
"p. c #FDFDFD",
"a. c #FEFEFE",
"s. c gray100",
/* pixels */
"w.w.w.w.0.7 7 7 6 6 4 4 2 2 , , ",
"w.s.s.s.s.1.U I L J G D S Z B > ",
"w.s.s.s.s.L A C m b f a i y N > ",
"w.s.t.s.s.K V m b d a i t r c ; ",
"0.s.s.t.s.G m b f a i t r w c ; ",
"0.s.t.s.t.F x z k j q 0 8 8 l - ",
"0.t.t.y.t.,.%.#.....' ) ( / #.* ",
"8.s.t.t.t.>.+.| | ` ^ ! W R O.+ ",
"8.t.e.t.t.:.| ] _ ^ Q E T Y } X ",
"6.t.t.t.e.<.;.-.=.&.$.@.O.} {   ",
"6.6.4.3.2.= & $ & $ # + X X . @ "
};
