/* XPM */
static char *mh[] = {
/* columns rows colors chars-per-pixel */
"16 11 157 2",
"   c #000013",
".  c #000017",
"X  c #000019",
"o  c #00001B",
"O  c #00001F",
"+  c #3B0000",
"@  c #000025",
"#  c #000027",
"$  c #00002D",
"%  c #000033",
"&  c #000039",
"*  c #00003F",
"=  c #000045",
"-  c #00004B",
";  c #00004F",
":  c #000051",
">  c #000055",
",  c #00005B",
"<  c #00005F",
"1  c #000065",
"2  c #000069",
"3  c #00006B",
"4  c #00006D",
"5  c #00006F",
"6  c #000071",
"7  c #000073",
"8  c #000175",
"9  c #000375",
"0  c #000777",
"q  c #000979",
"w  c #00097B",
"e  c #0F2973",
"r  c #47436B",
"t  c #EB0000",
"y  c #E95D00",
"u  c #D3743C",
"i  c #F2762C",
"p  c #AF6F59",
"a  c #BB785D",
"s  c #846B77",
"d  c #957577",
"f  c #A26E62",
"g  c #E27E41",
"h  c #F6812D",
"j  c #F78135",
"k  c #F7924B",
"l  c #D28A62",
"z  c #F5A56F",
"x  c #F7A96B",
"c  c #F6A86E",
"v  c #F8A86A",
"b  c #F1A674",
"n  c #143B8F",
"m  c #123D8F",
"M  c #164192",
"N  c #174192",
"B  c #194092",
"V  c #184393",
"C  c #1B4494",
"Z  c #1E4896",
"A  c #1E4897",
"S  c #204997",
"D  c #234997",
"F  c #2C509B",
"G  c #32579E",
"H  c #35599E",
"J  c #36599F",
"K  c #365BA1",
"L  c #345AA2",
"P  c #375CA1",
"I  c #385CA1",
"U  c #3B60A4",
"Y  c #3C64AD",
"T  c #3D65B0",
"R  c #5E6795",
"E  c #54679C",
"W  c #726984",
"Q  c #6F7196",
"!  c #7E7E9D",
"~  c #4662A2",
"^  c #4062A4",
"/  c #4265A7",
"(  c #4D69A7",
")  c #4267AE",
"_  c #4769A9",
"`  c #476AAD",
"'  c #4A6AAB",
"]  c #4B6AAB",
"[  c #496DAF",
"{  c #4C6EAF",
"}  c #4269B0",
"|  c #4168B2",
" . c #466AB1",
".. c #4568B2",
"X. c #496FB4",
"o. c #4E71B0",
"O. c #4F71B0",
"+. c #5071B1",
"@. c #5172B1",
"#. c #5374B2",
"$. c #5375B3",
"%. c #5475B3",
"&. c #5575B3",
"*. c #5C7AB2",
"=. c #5879B4",
"-. c #5879B5",
";. c #587AB9",
":. c #5E7FB9",
">. c #6B83B1",
",. c #6581B9",
"<. c #6582B9",
"1. c #6683BD",
"2. c #6C86B9",
"3. c #6A86BC",
"4. c #6E8ABE",
"5. c #6F8BBE",
"6. c #718DC0",
"7. c #728EC0",
"8. c #758FC2",
"9. c #718FC4",
"0. c #7590C2",
"q. c #7190C5",
"w. c #7892C3",
"e. c #7F98C7",
"r. c #B2A4AC",
"t. c #CF9D82",
"y. c #D8C1B9",
"u. c #F5CDAE",
"i. c #F7DEBF",
"p. c #F8D8B8",
"a. c #8A9EC6",
"s. c #849BC8",
"d. c #859BC8",
"f. c #97A7CE",
"g. c #90A7D1",
"h. c #9DADD1",
"j. c #9CADD2",
"k. c #AEB8CF",
"l. c #A3B3D5",
"z. c #A9B6D6",
"x. c #B6C2DD",
"c. c #BFC7D9",
"v. c #B9C3DC",
"b. c #B5C5E1",
"n. c #F5DECC",
"m. c #F6E3CC",
"M. c #F6E2D3",
"N. c #C3CBE2",
"B. c #D6DAE6",
"V. c #D7E0EE",
"C. c #E7E7E7",
"Z. c #EEEFF3",
"A. c #EEF3F5",
"S. c #F4F4F4",
"D. c gray96",
"F. c #FDFDFE",
"G. c #FEFEFE",
/* pixels */
"w w w w 0 8 9 2 2 1 < , > : ; + ",
"w s.x.N.s.w.5.8.5.3.,.:.;.! l t ",
"w j.G.G.f.-.&.#.X.` T ~ f i k y ",
"w l.G.G.h.&.{ { ` Y W u h z M.C.",
"9 e.z.v.,.o.[ | E p j c n.D.A.2.",
"9 8.=.$.o. .) s g c m.D.B.a.*.@ ",
"4 7.#.o...R a v i.A.x.2.F n P O ",
"2 5.X.( d b p.B.f.] S V V N I o ",
"1 1.Q t.u.c.q.L A A Z C N m H . ",
"< r.y.k.q.O.] ] _ / ^ I P H H   ",
"r e 2 - = * & % $ @ @ @ o .     "
};
