/* XPM */
static char *mq[] = {
/* columns rows colors chars-per-pixel */
"16 11 149 2",
"   c #000015",
".  c #000017",
"X  c #000019",
"o  c #00001D",
"O  c #000027",
"+  c #000031",
"@  c #000035",
"#  c #000037",
"$  c #000041",
"%  c #000045",
"&  c #00004D",
"*  c #000051",
"=  c #000053",
"-  c #00005D",
";  c #000063",
":  c #000065",
">  c #000069",
",  c #00006B",
"<  c #000071",
"1  c #000173",
"2  c #000575",
"3  c #000F7B",
"4  c #00117D",
"5  c #00177F",
"6  c #001B83",
"7  c #001D83",
"8  c #002587",
"9  c #2F509A",
"0  c #33529C",
"q  c #35559D",
"w  c #37559D",
"e  c #38589F",
"r  c #3755A3",
"t  c #435FA1",
"y  c #415EA2",
"u  c #425EA2",
"i  c #4865A6",
"p  c #4864A7",
"a  c #4965A8",
"s  c #4966A8",
"d  c #4E68A8",
"f  c #4F6AA8",
"g  c #4E69AB",
"h  c #506BAA",
"j  c #506BAC",
"k  c #596FAF",
"l  c #5B71A5",
"z  c #5B73A5",
"x  c #5671AF",
"c  c #5872B0",
"v  c #5873B1",
"b  c #5D76B1",
"n  c #5E77B1",
"m  c #5F77B1",
"M  c #5C76B2",
"N  c #5F78B1",
"B  c #6079B2",
"V  c #667CB1",
"C  c #617AB6",
"Z  c #6981B9",
"A  c #7187BD",
"S  c #7188BC",
"D  c #748ABE",
"F  c #768CBE",
"G  c #778CBE",
"H  c #778CBF",
"J  c #788EC1",
"K  c #7A8FC1",
"L  c #8094C3",
"P  c #8195C5",
"I  c #8296C5",
"U  c #8598C3",
"Y  c #8598C7",
"T  c #8C9CC2",
"R  c #8B9DC5",
"E  c #8A9CC9",
"W  c #8A9DC9",
"Q  c #93A4CD",
"!  c #96A6CC",
"~  c #9BA9CF",
"^  c #9BABCF",
"/  c #9FAECE",
"(  c #A1AFCE",
")  c #A5B2D0",
"_  c #A7B5D7",
"`  c #B2BCD4",
"'  c #B3BDD6",
"]  c #B3BED7",
"[  c #B6C0D9",
"{  c #B6C1DA",
"}  c #B6C1DC",
"|  c #B9C2D8",
" . c #B8C2DB",
".. c #BCC5DB",
"X. c #B9C5DE",
"o. c #BAC4DE",
"O. c #BBC5DE",
"+. c #BDC6DD",
"@. c #BEC7DD",
"#. c #BEC8DE",
"$. c #BFC8DF",
"%. c #C3CBDC",
"&. c #C3CBDD",
"*. c #C2CAE0",
"=. c #C7CFE3",
"-. c #C9D1E1",
";. c #C8D0E2",
":. c #C8D1E4",
">. c #CAD2E5",
",. c #CBD3E6",
"<. c #CDD4E5",
"1. c #CFD5E4",
"2. c #D0D6E2",
"3. c #D0D7E7",
"4. c #D5D9E6",
"5. c #D6DBE7",
"6. c #D9DEE7",
"7. c #D0D8E9",
"8. c #D1D8EA",
"9. c #D6DBE8",
"0. c #D5DDEC",
"q. c #DBDEE8",
"w. c #DDE2EF",
"e. c gray90",
"r. c #E7E7E7",
"t. c #E1E6ED",
"y. c #E9E9E9",
"u. c #E0E5F0",
"i. c #E7E9F0",
"p. c #E6EAF1",
"a. c #E6E9F3",
"s. c #E6EAF3",
"d. c #EAEDF3",
"f. c #ECEDF1",
"g. c #EFF0F1",
"h. c #F4F4F4",
"j. c #F4F5F5",
"k. c gray96",
"l. c #F6F6F6",
"z. c gray97",
"x. c #F6F7FA",
"c. c #F7F7FA",
"v. c #F8F8F8",
"b. c #F9F9F9",
"n. c gray98",
"m. c #FBFBFB",
"M. c gray99",
"N. c #FDFDFD",
"B. c #FEFEFE",
/* pixels */
"8 7 P _ r 4 3 B.b.< : k R > = = ",
"6 W Q w.0.P L B.B.H S H 9.@.B % ",
"7 W J X.s.A C B.b.v j x { 1.m $ ",
"5 Y ,.s.d.D v b.b.g a -.5.-.N # ",
"^ 8.} X.X.=.$.b.b. .] / ) ( ..z ",
"B.B.B.c.c.M.b.b.b.v.k.h.f.g.k.e.",
"~ 8.t.s.,.@.@.v.k.{ ' 5.6.' | z ",
"2 J V 8.*.a p c.k.e 0 f %.V u o ",
"< J m ! <.b i k.k.w 9 w T ` u X ",
"> D :.i.t.U B v.k.h g &.6.2.t   ",
", - - ; - & $ y.y.+ O + # #     "
};
