/* XPM */
static char *ms[] = {
/* columns rows colors chars-per-pixel */
"16 11 160 2",
"   c #000011",
".  c #000015",
"X  c #000017",
"o  c #000019",
"O  c #00001D",
"+  c #000023",
"@  c #000025",
"#  c #000029",
"$  c #00002B",
"%  c #00002F",
"&  c #000031",
"*  c #000035",
"=  c #000037",
"-  c #00003D",
";  c #000043",
":  c #000049",
">  c #00004F",
",  c #000055",
"<  c #000059",
"1  c #00005B",
"2  c #00005D",
"3  c #00005F",
"4  c #000063",
"5  c #000067",
"6  c #000069",
"7  c #00006D",
"8  c #7F1947",
"9  c #67235D",
"0  c #6B3371",
"q  c #CD1517",
"w  c #8D1D43",
"e  c #81214F",
"r  c #B15D75",
"t  c #C36B7D",
"y  c #D66C71",
"u  c #E26867",
"i  c #E47271",
"p  c #E87A76",
"a  c #E07578",
"s  c #E07B7E",
"d  c #9D964A",
"f  c #9B8A55",
"g  c #9E8C57",
"h  c #9E8D58",
"j  c #A49360",
"k  c #91A571",
"l  c #94A775",
"z  c #C59E44",
"x  c #EA817E",
"c  c #000383",
"v  c #001795",
"b  c #1E2A8E",
"n  c #2F2583",
"m  c #232E91",
"M  c #273293",
"N  c #2C3796",
"B  c #283A98",
"V  c #2D3F9B",
"C  c #2E3F9B",
"Z  c #313C99",
"A  c #33449E",
"S  c #33449F",
"D  c #36459D",
"F  c #3B459F",
"G  c #38489E",
"H  c #3848A1",
"J  c #3849A2",
"K  c #394AA2",
"L  c #3D4DA4",
"P  c #3E4EA5",
"I  c #424B9D",
"U  c #434C9D",
"Y  c #4E509E",
"T  c #404BA0",
"R  c #404BA1",
"E  c #424CA3",
"W  c #464FA3",
"Q  c #4251A4",
"!  c #4352A7",
"~  c #4453A7",
"^  c #4655A6",
"/  c #4950A0",
"(  c #4E55A1",
")  c #4E56A4",
"_  c #4D56A6",
"`  c #4857AA",
"'  c #4A59A9",
"]  c #4958AA",
"[  c #4D5BAA",
"{  c #4F5EAB",
"}  c #4D5CAD",
"|  c #4E5CAD",
" . c #4E5CAE",
".. c #5259A4",
"X. c #5A5CA7",
"o. c #535CAA",
"O. c #5160AD",
"+. c #5360AE",
"@. c #5260B0",
"#. c #5261B0",
"$. c #5764B0",
"%. c #5765B2",
"&. c #5865B0",
"*. c #5C69B3",
"=. c #5B6CB7",
"-. c #6361A7",
";. c #6067AD",
":. c #6469AE",
">. c #6D69AB",
",. c #606DB5",
"<. c #6470B7",
"1. c #6572B8",
"2. c #6875B9",
"3. c #6975BA",
"4. c #6E7ABD",
"5. c #717AB9",
"6. c #747ABA",
"7. c #717EBE",
"8. c #777FBC",
"9. c #5E7FD7",
"0. c #8B6C9D",
"q. c #AB7594",
"w. c #836DA3",
"e. c #8B70A1",
"r. c #9A7FA6",
"t. c #9B7EA7",
"y. c #7581C0",
"u. c #7F9AC2",
"i. c #6482D9",
"p. c #6886DB",
"a. c #6C89DD",
"s. c #6D89DD",
"d. c #708CDF",
"f. c #718DDF",
"g. c #7490E0",
"h. c #7591E0",
"j. c #7994E2",
"k. c #948AB9",
"l. c #9F90B9",
"z. c #D3808B",
"x. c #C68496",
"c. c #C18499",
"v. c #E08384",
"b. c #E69394",
"n. c #EE9E9C",
"m. c #EEA19F",
"M. c #D89EA9",
"N. c #D7ACB7",
"B. c #D8AAB6",
"V. c #E1B2BA",
"C. c #869ED2",
"Z. c #8EA3CC",
"A. c #91A1C5",
"S. c #9DA4D0",
"D. c #9CAAD5",
"F. c #D7B6C4",
"G. c #DFB9C3",
"H. c #DFD3DE",
"J. c #E3C2CA",
"K. c #E2CBD4",
/* pixels */
"t w.v 8 w c 9 r 6 4 2 1 , > : ; ",
"n G.H.B.M.F.K.S.8.6.3.,.:.:.%.- ",
"q b.x i u p a y -.o.j.h.f.s.o.* ",
"e V.n.s v.m.z.q.X.) g.Z.A.p.[ % ",
">.J.l.c.x.D.N.r.) W d.u.l i...# ",
"0 k.=.e.0.} 5.r.Y L a.A.k i.( + ",
"7 y.%.@.} ] ~ P J H j z g f W O ",
"6 7.@.} ` ~ P J S C Z g d m L o ",
"4 4.} ] Q P J D C B N M m b D . ",
"4 3.1.,.*.&.+.} _ ~ Q E E I D   ",
", , , ; ; - * & % + + O . .     "
};
