/* XPM */
static char *mt[] = {
/* columns rows colors chars-per-pixel */
"16 11 111 2",
"   c #DD0000",
".  c #DF0000",
"X  c #E10000",
"o  c #E30000",
"O  c #E50000",
"+  c #E70000",
"@  c #E90000",
"#  c #EB0000",
"$  c #ED0000",
"%  c #EF0000",
"&  c #F10000",
"*  c #F30000",
"=  c #F50000",
"-  c #F70000",
";  c #F90000",
":  c #FB0000",
">  c #F10B0B",
",  c #F10F0E",
"<  c #F21010",
"1  c #F21313",
"2  c #F21414",
"3  c #F31919",
"4  c #F31A1A",
"5  c #F41E1E",
"6  c #F41F1F",
"7  c #F42020",
"8  c #F52424",
"9  c #F52525",
"0  c #F52626",
"q  c #F62A2A",
"w  c #F62B2B",
"e  c #F22C2C",
"r  c #F22F2F",
"t  c #F62C2C",
"y  c #F23232",
"u  c #F33232",
"i  c #F53030",
"p  c #F73030",
"a  c #F73131",
"s  c #F33535",
"d  c #F43636",
"f  c #F63636",
"g  c #F83636",
"h  c #F83736",
"j  c #F83737",
"k  c #F43939",
"l  c #F43B3B",
"z  c #F73B3B",
"x  c #F53D3D",
"c  c #F53F3F",
"v  c #F93C3C",
"b  c #F93C3D",
"n  c #F64444",
"m  c #F84141",
"M  c #FA4242",
"N  c #F94747",
"B  c #F74949",
"V  c #F64C4C",
"C  c #F74E4E",
"Z  c #FA4C4C",
"A  c #F85353",
"S  c #FB5252",
"D  c #F95757",
"F  c #FA5C5C",
"G  c #FB6060",
"H  c #FC6565",
"J  c #FC7272",
"K  c #BDB8B8",
"L  c #C9C8C8",
"P  c #CFCDCD",
"I  c #D9C5C5",
"U  c #D3D2D2",
"Y  c #D6D4D3",
"T  c gray86",
"R  c #DDDDDD",
"E  c #EFDDDD",
"W  c #E1E1E1",
"Q  c gray89",
"!  c gray90",
"~  c #E7E7E7",
"^  c gray92",
"/  c gray93",
"(  c #EFEFEF",
")  c #F6EAEA",
"_  c #F7EBEC",
"`  c #F1EFEF",
"'  c #F7EDED",
"]  c #F8EDED",
"[  c #F9EEEE",
"{  c #FAEFEF",
"}  c #F1F1F1",
"|  c #F3F1F1",
" . c #F3F3F3",
".. c gray96",
"X. c gray97",
"o. c #FBF0F0",
"O. c #FCF2F2",
"+. c #FDF5F5",
"@. c #F8F8F8",
"#. c #F9F9F9",
"$. c #FAF9F9",
"%. c gray98",
"&. c #FBFBFB",
"*. c #FBFCFB",
"=. c gray99",
"-. c #FDFCFD",
";. c #FDFDFD",
":. c #FEFCFC",
">. c #FEFDFC",
",. c #FDFDFE",
"<. c #FEFEFE",
/* pixels */
"} ` } }  . . .E ; ; - - * * $ $ ",
"..$.U >.>.>.-.X.J H G F D A C # ",
"} Y K P >.-.>.o.S M b j a t B # ",
"..>.L >.-.-.-.o.Z v f a w 0 n O ",
" .>.-.-.-.-.*.{ N j t w 0 6 c O ",
"} >.-.-.-.*.$.' M a t 0 6 4 l O ",
"} >.-.*.*.*.#.' l w 0 6 4 2 f o ",
"( -.$.-.#.#.X.' f 8 7 4 < < y . ",
"/ -.#.#.#.#.X.) t 6 4 < < > r . ",
"/ -.$.#.#.#.X.' B c k s y r e   ",
"^ ~ ! Q W R T I O O O o .       "
};
