/* XPM */
static char *mu[] = {
/* columns rows colors chars-per-pixel */
"16 11 161 2",
"   c black",
".  c #001700",
"X  c #001900",
"o  c #001B00",
"O  c #001F00",
"+  c #002500",
"@  c #002900",
"#  c #002D00",
"$  c #003300",
"%  c #003900",
"&  c #003D00",
"*  c #00003F",
"=  c #490000",
"-  c #004300",
";  c #004900",
":  c #004D00",
">  c #005300",
",  c #005900",
"<  c #005F00",
"1  c #006300",
"2  c #000049",
"3  c #00194B",
"4  c #495C7B",
"5  c #4E607E",
"6  c #870000",
"7  c #A70000",
"8  c #AB0000",
"9  c #AF0000",
"0  c #B10000",
"q  c #B30000",
"w  c #B70000",
"e  c #B90000",
"r  c #BD0000",
"t  c #C10000",
"y  c #C30000",
"u  c #C70000",
"i  c #CD0000",
"p  c #A52C41",
"a  c #A83146",
"s  c #AA374B",
"d  c #AD3C50",
"f  c #B04254",
"g  c #B34759",
"h  c #B1495B",
"j  c #B54C5E",
"k  c #B85162",
"l  c #B95466",
"z  c #BB5969",
"x  c #BD5C6D",
"c  c #BE5F70",
"v  c #DC4E4E",
"b  c #DD5353",
"n  c #DE5757",
"m  c #E05C5C",
"M  c #E16060",
"N  c #E26565",
"B  c #E36969",
"V  c #E56D6D",
"C  c #E67071",
"Z  c #E77474",
"A  c #E87777",
"S  c #E87979",
"D  c #E87B7B",
"F  c #E97B7B",
"G  c #0F8B00",
"H  c #2C9E2C",
"J  c #2F9F2F",
"K  c #32A232",
"L  c #35A435",
"P  c #39A539",
"I  c #3DA83D",
"U  c #61B900",
"Y  c #42AA42",
"T  c #46AD46",
"R  c #4BAF4B",
"E  c #50B250",
"W  c #54B455",
"Q  c #58B758",
"!  c #5DB95D",
"~  c #61BB62",
"^  c #88C50B",
"/  c #8BC70E",
"(  c #8EC813",
")  c #91CA19",
"_  c #94CC1E",
"`  c #96CE23",
"'  c #9ACD2F",
"]  c #99D029",
"[  c #9CD12E",
"{  c #9FD334",
"}  c #A2D53A",
"|  c #A6D73F",
" . c #DFDF00",
".. c #E3E300",
"X. c #FBFB00",
"o. c #FDFD00",
"O. c #F2F210",
"+. c #F2F214",
"@. c #F3F319",
"#. c #F4F41F",
"$. c #F5F524",
"%. c #F6F62A",
"&. c #F7F72F",
"*. c #F3F332",
"=. c #F4F436",
"-. c #F8F834",
";. c #F8F835",
":. c #F9F93A",
">. c #FAFA3F",
",. c #A8D944",
"<. c #B9E066",
"1. c #FAFA40",
"2. c #FBFB45",
"3. c #FBFB49",
"4. c #FBFC49",
"5. c #FCFC4F",
"6. c #FCFC6A",
"7. c #FDFD6F",
"8. c #000083",
"9. c #00008B",
"0. c #2642A2",
"q. c #2042A7",
"w. c #2B46A5",
"e. c #2546AA",
"r. c #2B4BAD",
"t. c #314CA8",
"y. c #3751AB",
"u. c #3C55AE",
"i. c #3050B0",
"p. c #3655B2",
"a. c #3B5AB5",
"s. c #3F5DB4",
"d. c #526482",
"f. c #566885",
"g. c #5A6C88",
"h. c #5F708C",
"j. c #63738D",
"k. c #64758F",
"l. c #687992",
"z. c #6D7C96",
"x. c #717F99",
"c. c #445CAF",
"v. c #425AB0",
"b. c #475FB3",
"n. c #415FB7",
"m. c #4B63B6",
"M. c #4663BA",
"N. c #4B67BC",
"B. c #5167B7",
"V. c #546BBA",
"C. c #506CBF",
"Z. c #586EBC",
"A. c #5C71BE",
"S. c #5470C0",
"D. c #5872C2",
"F. c #C97B88",
"G. c #75839C",
"H. c #79879F",
"J. c #768BCD",
"K. c #798AC9",
"L. c #909DB0",
/* pixels */
"u y y y y y r r e w q q 9 8 7 7 ",
"i F S F A Z C V B N M n n b b 8 ",
"6 F.c x l l k j h f d s a p h = ",
"8.K.A.Z.V.B.m.b.c.u.y.t.w.0.c.* ",
"9.J.S.S.S.N.M.M.a.p.y.r.e.q.n.2 ",
"3 L.H.G.x.z.l.k.h.g.f.d.4 4 j.  ",
"o.7.5.4.2.1.:.-.-.%.$.#.@.+.=...",
"X.6.3.2.>.:.=.&.%.$.#.@.+.O.*. .",
"U <.,.,.} { [ ' ` _ ) ( / ^ ' G ",
"1 ~ ! W W E R T Y I P L K J H . ",
"< , > : ; - & % $ # @ + + X X X "
};
