/* XPM */
static char *mv[] = {
/* columns rows colors chars-per-pixel */
"16 11 147 2",
"   c #B90000",
".  c #BB0000",
"X  c #BD0000",
"o  c #BF0000",
"O  c #C10000",
"+  c #C30000",
"@  c #C50000",
"#  c #C90000",
"$  c #CB0000",
"%  c #CF0000",
"&  c #D10000",
"*  c #D30000",
"=  c #D70000",
"-  c #D90000",
";  c #DB0000",
":  c #DD0000",
">  c #DF0000",
",  c #DD1511",
"<  c #DA1911",
"1  c #DE1A16",
"2  c #DB1D16",
"3  c #E10000",
"4  c #E30000",
"5  c #E50000",
"6  c #E70000",
"7  c #E90000",
"8  c #EB0000",
"9  c #E10B0B",
"0  c #E01F1C",
"q  c #DD221B",
"w  c #DE2722",
"e  c #DF2C26",
"r  c #E12522",
"t  c #E32B27",
"y  c #E22C2C",
"u  c #E22F2F",
"i  c #E52F2F",
"p  c #E92C2C",
"a  c #E0312A",
"s  c #E63232",
"d  c #E23730",
"f  c #E83232",
"g  c #E93535",
"h  c #E83636",
"j  c #E23C35",
"k  c #E43C36",
"l  c #EB3939",
"z  c #E83B3B",
"x  c #EB3D3D",
"c  c #E93F3F",
"v  c #E3433B",
"b  c #E5423B",
"n  c #E74741",
"m  c #EC4242",
"M  c #EB4444",
"N  c #EF4444",
"B  c #EE4646",
"V  c #E44841",
"C  c #E54D46",
"Z  c #EB4949",
"A  c #EF4B4B",
"S  c #EC4D4A",
"D  c #ED4E4E",
"F  c #E6524A",
"G  c #E7564E",
"H  c #EE524F",
"J  c #EF5050",
"K  c #ED5353",
"L  c #EF5754",
"P  c #E95B54",
"I  c #EF5B59",
"U  c #EA5E58",
"Y  c #F15455",
"T  c #F05757",
"R  c #F15858",
"E  c #F05D5D",
"W  c #F25C5C",
"Q  c #F05F5D",
"!  c #F45F5F",
"~  c #EB635C",
"^  c #ED655E",
"/  c #F26060",
"(  c #F16162",
")  c #F26565",
"_  c #F26666",
"`  c #F36A6A",
"'  c #F46969",
"]  c #F56D6D",
"[  c #F46F6F",
"{  c #F57071",
"}  c #F57273",
"|  c #F67474",
" . c #F67676",
".. c #F77777",
"X. c #F67979",
"o. c #F77979",
"O. c #F77B7A",
"+. c #F77B7B",
"@. c #4FD44C",
"#. c #4FDA51",
"$. c #52D751",
"%. c #58D755",
"&. c #56D854",
"*. c #5BDA5A",
"=. c #58DD5B",
"-. c #58DF5B",
";. c #5DDF5D",
":. c #5FDE5F",
">. c #60DD5F",
",. c #51E057",
"<. c #63DE62",
"1. c #62DF62",
"2. c #5CE360",
"3. c #5FE665",
"4. c #63E163",
"5. c #65E468",
"6. c #6CE16A",
"7. c #6AE56C",
"8. c #6CE46C",
"9. c #6DE56F",
"0. c #6CE66F",
"q. c #74E272",
"w. c #73E775",
"e. c #78E577",
"r. c #70E975",
"t. c #72E975",
"y. c #7DE67B",
"u. c #75E978",
"i. c #79EB7C",
"p. c #7AEA7D",
"a. c #80E77E",
"s. c #7BEE81",
"d. c #89E387",
"f. c #83E983",
"g. c #88E98A",
"h. c #8DEB8F",
"j. c #93ED95",
"k. c #9BE99C",
"l. c #A2ECA3",
"z. c #B2EEB2",
"x. c #B5ECB5",
"c. c #BFF3C1",
"v. c #CBF1CD",
"b. c #D0F4D1",
"n. c #D6F4D7",
"m. c #D6F5D7",
"M. c #DAF6DA",
/* pixels */
"8 8 5 5 8 4 4 4 4 > > ; ; = * * ",
"8 +.o.o...| { [ ` ) / Q L K D % ",
"8 o./ ^ ^ U P G F C V v j i Z $ ",
"8 o.Q f.s.p.r.j.c.8.5.3.>.t M $ ",
"5 ..I a.i.w.h.M.b.l.5.,.*.r c @ ",
"5 | L y.u.8.z.m.:.1.:.-.%.0 z + ",
"5 [ H e.r.7.g.m.v.k.=.-.$.1 h o ",
"5 ` S q.8.6.<.d.x.*.&.#.@., s o ",
"4 _ B n b k a a e w q 1 < 9 i o ",
"> / Q L Y Y D B m c z h f u y   ",
"> ; = * * % $ $ @ + + o o       "
};
