/* XPM */
static char *mx[] = {
/* columns rows colors chars-per-pixel */
"16 11 153 2",
"   c #001F00",
".  c #002F00",
"X  c #003100",
"o  c #003900",
"O  c #003D00",
"+  c #004300",
"@  c #004900",
"#  c #004F00",
"$  c #005300",
"%  c #005701",
"&  c #005D07",
"*  c #005D0B",
"=  c #005F0B",
"-  c #005F0D",
";  c #00610F",
":  c #A90000",
">  c #AB0000",
",  c #AD0000",
"<  c #AF0000",
"1  c #B10000",
"2  c #B30000",
"3  c #B70000",
"4  c #B90000",
"5  c #BD0000",
"6  c #BF0000",
"7  c #C50000",
"8  c #C70000",
"9  c #C90000",
"0  c #CD0000",
"q  c #D6272C",
"w  c #D7292F",
"e  c #D82A2F",
"r  c #D72A30",
"t  c #D92E34",
"y  c #D92F35",
"u  c #D93035",
"i  c #DA3339",
"p  c #DA343A",
"a  c #DC353A",
"s  c #DC383E",
"d  c #DC393F",
"f  c #835F3F",
"g  c #DE3B40",
"h  c #DE3E43",
"j  c #DE3F44",
"k  c #DF3F44",
"l  c #8D7D6A",
"z  c #DA4246",
"x  c #DC464B",
"c  c #DD484C",
"v  c #DD494D",
"b  c #DE4D50",
"n  c #DF5155",
"m  c #E04348",
"M  c #E04449",
"N  c #E0454A",
"B  c #E1494E",
"V  c #E24A50",
"C  c #E05559",
"Z  c #E25A5D",
"A  c #E35E62",
"S  c #E56266",
"D  c #E6676B",
"F  c #E86A6F",
"G  c #E86C70",
"H  c #3C9460",
"J  c #429764",
"K  c #489A69",
"L  c #489C6A",
"P  c #4D9D6E",
"I  c #4E9E6E",
"U  c #4E9E6F",
"Y  c #52A072",
"T  c #52A172",
"R  c #53A172",
"E  c #56A275",
"W  c #57A376",
"Q  c #57A476",
"!  c #5BA67A",
"~  c #5CA67A",
"^  c #5CA77A",
"/  c #60A77C",
"(  c #60A97D",
")  c #60AA7E",
"_  c #64AB80",
"`  c #65AA81",
"'  c #64AB81",
"]  c #67AD83",
"[  c #69AD84",
"{  c #6EAF88",
"}  c #71B38B",
"|  c #75B58F",
" . c #79B791",
".. c #79B792",
"X. c #7CB994",
"o. c #7FBA96",
"O. c #9AAA96",
"+. c #9BAA96",
"@. c #9DAD99",
"#. c #9EAD99",
"$. c #81BB98",
"%. c #81BC98",
"&. c #81BC99",
"*. c #A3B29F",
"=. c #BAB19A",
"-. c #9FB9AC",
";. c #C6AF8C",
":. c #D1C5AE",
">. c #D8CEBA",
",. c #DAD0BC",
"<. c #C9C3C3",
"1. c gray81",
"2. c #DFD5C4",
"3. c gray82",
"4. c LightGray",
"5. c #D1D5D1",
"6. c #D7D7D7",
"7. c #E3DFDF",
"8. c #DEE4DE",
"9. c #E1E0D5",
"0. c #E5E5DA",
"q. c #E5E7E2",
"w. c #E7E7E7",
"e. c #E9E9E9",
"r. c #E9EBE9",
"t. c gray92",
"y. c #F2EEEE",
"u. c #F3F0F0",
"i. c #F4F1F1",
"p. c #F6F2F2",
"a. c #F4F4F4",
"s. c gray96",
"d. c #F7F4F4",
"f. c #F4F6F5",
"g. c #F5F6F5",
"h. c #F5F7F6",
"j. c #F6F6F6",
"k. c gray97",
"l. c #F8F4F4",
"z. c #F9F5F6",
"x. c #FBF7F7",
"c. c #F5F8F6",
"v. c #F6F8F7",
"b. c #F7F9F8",
"n. c #F8FAF9",
"m. c #F9FBFA",
"M. c gray98",
"N. c #FAFBFB",
"B. c #FBFBFB",
"V. c #FBFCFC",
"C. c gray99",
"Z. c #FDFDFD",
"A. c #FDFDFE",
/* pixels */
"= ; ; ; = r.r.r.e.w.7.0 0 0 8 8 ",
"- %.%.o. .V.Z.Z.C.C.x.F F D S 6 ",
"- $.] ' ! N.Z.Z.B.N.z.B B x A 6 ",
"= o.' ( Q N.V.,.>.j.z.x m j Z 3 ",
"& o.^ ^ R N.2.;.f :.l.m h d C 4 ",
"%  .! W P b.0.=.l 7.p.d s i n 2 ",
"$ | W R L v.*.-.+.+.p.p p u v 2 ",
"# } R P J v.q.@.+.8.u.y y r v < ",
"@ { P K H f.v.j.d.a.t.r r q x > ",
"+ [ ' ~ W j.v.v.g.g.u.x v x z > ",
"O o . .   5.6.4.3.1.>.: 2 > < < "
};
