/* XPM */
static char *my[] = {
/* columns rows colors chars-per-pixel */
"16 11 157 2",
"   c #B10000",
".  c #B70000",
"X  c #BB0000",
"o  c #C30000",
"O  c #C90000",
"+  c #CB0000",
"@  c #CF0000",
"#  c #D10000",
"$  c #D50000",
"%  c #D70000",
"&  c #D90000",
"*  c #DA1A1A",
"=  c #DC1D1D",
"-  c #DD2222",
";  c #DD2525",
":  c #DF2626",
">  c #DF2A2A",
",  c #E02B2B",
"<  c #E02F2F",
"1  c #E13131",
"2  c #E23132",
"3  c #E13434",
"4  c #E23434",
"5  c #E23636",
"6  c #E23839",
"7  c #E33939",
"8  c #E03B3B",
"9  c #E43B3B",
"0  c #E33E3E",
"q  c #E43C3C",
"w  c #DA3640",
"e  c #DC3C45",
"r  c #87774B",
"t  c #DD424A",
"y  c #DE474E",
"u  c #DE464F",
"i  c #E64141",
"p  c #E54242",
"a  c #E54343",
"s  c #E24444",
"d  c #E74646",
"f  c #E74747",
"g  c #E84A4A",
"h  c #E84C4D",
"j  c #EA4F4F",
"k  c #E04A54",
"l  c #E04F59",
"z  c #E45050",
"x  c #E95151",
"c  c #E75857",
"v  c #E15158",
"b  c #EE6F6F",
"n  c #E76F77",
"m  c #C3AD25",
"M  c #E8DA7E",
"N  c #F2E37B",
"B  c #F2E37C",
"V  c #F2E57F",
"C  c #F4E77C",
"Z  c #0B0397",
"A  c #0D0797",
"S  c #110999",
"D  c #726FBD",
"F  c #0000C1",
"G  c #0000C3",
"H  c #0000C5",
"J  c #0000C9",
"K  c #3B3BD9",
"L  c #4141D7",
"P  c #4040DA",
"I  c #4747DB",
"U  c #4646DC",
"Y  c #4C4CDB",
"T  c #4B4ADD",
"R  c #7C7AC6",
"E  c #6D6DE1",
"W  c #A09AB6",
"Q  c #B8B1AA",
"!  c #D59D9D",
"~  c #D79D9D",
"^  c #D79F9F",
"/  c #D7A1A1",
"(  c #DBA5A3",
")  c #DDA7A7",
"_  c #DDA9A9",
"`  c #DFABAB",
"'  c #DDBBBB",
"]  c #E3AFAF",
"[  c #E5B3B3",
"{  c #E7B7B7",
"}  c #E9B9B9",
"|  c #EBBDBD",
" . c #DBCF82",
".. c #DCCF81",
"X. c #DCD084",
"o. c #DCD085",
"O. c #DDD187",
"+. c #DED38B",
"@. c #E6DB89",
"#. c #E3DA9E",
"$. c #F5EA95",
"%. c #F2E899",
"&. c #F2E89B",
"*. c #F2E89C",
"=. c #DDD4A5",
"-. c #928FCF",
";. c #9491D0",
":. c #B1ADC3",
">. c #DFC3C3",
",. c #E5C5C5",
"<. c #E7C7C7",
"1. c #EDC1C1",
"2. c #EFC3C3",
"3. c #F1C7C5",
"4. c #EBD3D3",
"5. c #F7DFDF",
"6. c #EEE5EE",
"7. c #F2E2E2",
"8. c #F2E3E3",
"9. c #F3E4E4",
"0. c #F3E5E5",
"q. c #F3E6E6",
"w. c #F4E4E4",
"e. c #F4E5E5",
"r. c #F5E5E5",
"t. c #F4E6E6",
"y. c #F5E6E6",
"u. c #F4E7E7",
"i. c #F5E7E7",
"p. c #F6E6E6",
"a. c #F6E7E7",
"s. c #FBE7E5",
"d. c #F7E8E7",
"f. c #F1E7EE",
"g. c #F6E8E8",
"h. c #F7E8E8",
"j. c #F6E9E9",
"k. c #F7EAEA",
"l. c #F7EBEB",
"z. c #F7EDED",
"x. c #F8E9E8",
"c. c #F9EAEA",
"v. c #F8EBEB",
"b. c #F8EDEC",
"n. c #F9EDED",
"m. c #F9EEED",
"M. c #F8EEEE",
"N. c #F9EFEF",
"B. c #FAEEEE",
"V. c #FAEFEE",
"C. c #F5EFF5",
"Z. c #FAF0F0",
"A. c #FBF0F0",
"S. c #FBF1F0",
"D. c #FBF2F2",
"F. c #FCF2F2",
"G. c #FCF4F3",
/* pixels */
"J S m m A H G G O & % % @ @ O O ",
"S *.*.:.=.#.-.E C.S.S.Z.B.z.z.4.",
"r %.Q @.V B o.Y v x h f p q c o ",
"r %.W +.N M  .I f.c.c.d.y.y.k.<.",
"Z $.C R  . .D L y f f 0 6 4 z X ",
"H ;.+. .T U P K 6.y.y.g.y.8.y.,.",
"O n l k u t e w 4 6 4 > > ; s . ",
"s.G.S.S.B.B.B.k.k.y.y.8.8.8.q.>.",
"& b h g f p q 4 4 > ; - = * 6   ",
"5.A.B.n.n.n.k.y.y.y.y.8.8.8.8.' ",
"3.3.1.| } { [ ] ` ` ) ( ( ! ! ! "
};
