/* XPM */
static char *mz[] = {
/* columns rows colors chars-per-pixel */
"16 11 170 2",
"   c black",
".  c gray10",
"X  c gray12",
"o  c #141622",
"O  c #191B26",
"+  c #1F212B",
"@  c #252525",
"#  c #2A2B2B",
"$  c #242631",
"%  c #2A2C36",
"&  c #312831",
"*  c #362D36",
"=  c #2F313B",
"-  c gray19",
";  c gray21",
":  c #3B333B",
">  c gray23",
",  c #004D00",
"<  c #005100",
"1  c #005D00",
"2  c #006100",
"3  c #006300",
"4  c #006700",
"5  c #006D00",
"6  c #007100",
"7  c #007500",
"8  c #007900",
"9  c #007D00",
"0  c #353640",
"q  c #363741",
"w  c #403740",
"e  c #463C45",
"r  c #553C46",
"t  c #4B424B",
"y  c #4E464E",
"u  c #504750",
"i  c #6A4C54",
"p  c #6C726E",
"a  c #8D2F00",
"s  c #E70000",
"d  c #EF0000",
"f  c #F50000",
"g  c #F70000",
"h  c #F90000",
"j  c red",
"k  c #F51500",
"l  c #BC4040",
"z  c #917E74",
"x  c #C2424B",
"c  c #CF5159",
"v  c #FB4646",
"b  c #FA4D44",
"n  c #FA4548",
"m  c #FB4A49",
"M  c #FB5545",
"N  c #FC574B",
"B  c #FD5655",
"V  c #F95959",
"C  c #E56A54",
"Z  c #F0675F",
"A  c #FE685C",
"S  c #FC6666",
"D  c #FB7B62",
"F  c #FC7A6A",
"G  c #FE7979",
"H  c #FF7B7A",
"J  c #008100",
"K  c #008300",
"L  c #008500",
"P  c #008700",
"I  c #008900",
"U  c #009100",
"Y  c #2CA82C",
"T  c #31AB31",
"R  c #37AE37",
"E  c #3DB03D",
"W  c #42B342",
"Q  c #47B547",
"!  c #49B349",
"~  c #4CB74C",
"^  c #4EB44E",
"/  c #53B753",
"(  c #51BA51",
")  c #54BC54",
"_  c #58B957",
"`  c #5CBB5C",
"'  c #61BE60",
"]  c #59C159",
"[  c #65C065",
"{  c #69C269",
"}  c #6DC36D",
"|  c #70C571",
" . c #74C774",
".. c #77C877",
"X. c #79CE79",
"o. c #DD8100",
"O. c #DD8300",
"+. c #DD8700",
"@. c #DF8700",
"#. c #DD8900",
"$. c #DF9500",
"%. c #E18B00",
"&. c #E38F00",
"*. c #E59100",
"=. c #E79300",
"-. c #E99900",
";. c #EB9D00",
":. c #ED9F00",
">. c #EDA300",
",. c #EFA700",
"<. c #F3A100",
"1. c #F1B700",
"2. c #FA9E3F",
"3. c #F1CA0B",
"4. c #F1CB0E",
"5. c #F2CC13",
"6. c #F3CE19",
"7. c #F4D01E",
"8. c #F2CA2C",
"9. c #F2CA2F",
"0. c #F5D223",
"q. c #F6D429",
"w. c #F2D12F",
"e. c #F7D62E",
"r. c #F2CC32",
"t. c #F3CD35",
"y. c #F4CF39",
"u. c #F8D834",
"i. c #F5D03D",
"p. c #F9DB3A",
"a. c #8FA05C",
"s. c #91BE7B",
"d. c #BBAF7F",
"f. c #CD8376",
"g. c #DF8F7B",
"h. c #E28766",
"j. c #F6D242",
"k. c #F7D346",
"l. c #F7D54B",
"z. c #EEC558",
"x. c #FAC45D",
"c. c #F2C95E",
"v. c #F8D750",
"b. c #F9D955",
"n. c #F9E158",
"m. c #F4CF64",
"M. c #E6C977",
"N. c #B9CDB9",
"B. c #DFD8BF",
"V. c #E0DAC1",
"C. c #E2DBC4",
"Z. c #E2DDC6",
"A. c #E4D8CA",
"S. c #E2DDC8",
"D. c #E4DEC8",
"F. c #F9D5C2",
"G. c #DEE7DE",
"H. c #E5E0CA",
"J. c #E6E2CC",
"K. c #E6E3CD",
"L. c #EAE5CF",
"P. c #E0E9E0",
"I. c #E1EAE1",
"U. c #E2EBE2",
"Y. c #E3EBE3",
"T. c #E4EDE4",
"R. c #E5EEE5",
"E. c #E7EFE7",
"W. c #E8F0E8",
"Q. c #E9F1E9",
/* pixels */
"a L U I L L J 9 8 7 6 5 4 3 1 3 ",
"j g.s.X.....| } { [ ` ` ` / ^ , ",
"j G Z a.] ) ( ~ Q W E R Y Y ! , ",
"j G A V A.W.W.E.E.T.U.U.U.G.T.N.",
"f f.z.C B c i u t e w : * & y   ",
"d M.p c.N v l > ; - # @ X . >   ",
"s z m.h.n x r 0 = % $ + O o 0   ",
"h F m M F.L.K.K.H.D.Z.Z.B.B.D.d.",
"h S b 2.p.u.e.q.0.7.6.5.4.3.9.$.",
"f D x.n.b.v.l.k.j.i.y.t.r.r.8.O.",
"k <.1.>.>.>.:.-.=.=.&.%.O.#.O.#."
};
