/* XPM */
static char *na[] = {
/* columns rows colors chars-per-pixel */
"16 11 158 2",
"   c #002700",
".  c #002900",
"X  c #002D00",
"o  c #002F00",
"O  c #003100",
"+  c #003300",
"@  c #003500",
"#  c #003900",
"$  c #003B00",
"%  c #003D00",
"&  c #003F00",
"*  c #004100",
"=  c #004700",
"-  c #004900",
";  c #005B00",
":  c #006500",
">  c #000073",
",  c #000079",
"<  c #00007D",
"1  c #EB0000",
"2  c #ED0000",
"3  c #EF0000",
"4  c #F10000",
"5  c #F30000",
"6  c #F50000",
"7  c #F70D07",
"8  c #F62C2D",
"9  c #F73030",
"0  c #F73131",
"q  c #F83535",
"w  c #F83636",
"e  c #F83736",
"r  c #F83737",
"t  c #F93A3A",
"y  c #F93B3A",
"u  c #F93B3B",
"i  c #F93B3C",
"p  c #FA3F3F",
"a  c #F83D43",
"s  c #FA4240",
"d  c #FA4B45",
"f  c #F74148",
"g  c #F74E4E",
"h  c #F9504A",
"j  c #F64C53",
"k  c #F85353",
"l  c #FA5D56",
"z  c #F95B5F",
"x  c #FA5D5D",
"c  c #F9615F",
"v  c #FB6162",
"b  c #F8666D",
"n  c #FB706B",
"m  c #F97874",
"M  c #F7777A",
"N  c #0B950B",
"B  c #0F970E",
"V  c #109710",
"C  c #139913",
"Z  c #149914",
"A  c #149A14",
"S  c #199B19",
"D  c #1A9A1A",
"F  c #189C19",
"G  c #199C19",
"H  c #1F9C1F",
"J  c #1E9E1E",
"K  c #25A125",
"L  c #2CA22C",
"P  c #2FA42F",
"I  c #32A532",
"U  c #32A632",
"Y  c #33A632",
"T  c #35A835",
"R  c #36A836",
"E  c #39A939",
"W  c #3BAA3B",
"Q  c #3FAB3F",
"!  c #3DAC3D",
"~  c #3FB142",
"^  c #42AE42",
"/  c #46AE46",
"(  c #55BC5C",
")  c #F7DA5D",
"_  c #EDD266",
"`  c #ECD26B",
"'  c #F4D962",
"]  c #000081",
"[  c #000083",
"{  c #000087",
"}  c #000089",
"|  c #00008D",
" . c #000091",
".. c #5151B7",
"X. c #5857B5",
"o. c #5353BB",
"O. c #5655BC",
"+. c #5A5ABA",
"@. c #6F6AAE",
"#. c #7970A3",
"$. c #7D75A1",
"%. c #7C75A6",
"&. c #6767C6",
"*. c #6969C0",
"=. c #6D6DC3",
"-. c #6F6FC3",
";. c #7070C5",
":. c #7272C6",
">. c #7474C7",
",. c #7D7BC5",
"<. c #7776C8",
"1. c #7577CA",
"2. c #7E7DCA",
"3. c #7CCB83",
"4. c #948FB9",
"5. c #F68688",
"6. c #FA8C8A",
"7. c #F99F9F",
"8. c #CBA993",
"9. c #F7A9AB",
"0. c #EDB2AD",
"q. c #F3B2AE",
"w. c #81C989",
"e. c #88D08D",
"r. c #96D59C",
"t. c #B9C7AD",
"y. c #ABDDAF",
"u. c #ECC0BB",
"i. c #8582C3",
"p. c #8482C5",
"a. c #8C88C1",
"s. c #8F95D6",
"d. c #9195D3",
"f. c #9B9FD8",
"g. c #A3A8DE",
"h. c #B5BAE3",
"j. c #D7BBCD",
"k. c #E9CBC4",
"l. c #F9C1C2",
"z. c #E2D8CC",
"x. c #E2DFD3",
"c. c #F3D0D3",
"v. c #F1D3D7",
"b. c #C5E2C5",
"n. c #C7E3C7",
"m. c #D1E5D0",
"M. c #DEE2D5",
"N. c #DDEADC",
"B. c #DDD7E7",
"V. c #F2DDE1",
"C. c #EBE1EB",
"Z. c #ECE7EF",
"A. c #F2E4E9",
"S. c #E0E1F2",
"D. c #E1E2F2",
"F. c #E4E4F2",
"G. c #EDE9F1",
"H. c #EAEAF4",
/* pixels */
" .} |  .} [ [ < , > { d.j.4 3 3 ",
"{ 2.a.4.,.:.;.-.@.f.H.c.c k g 1 ",
"| p.` ' %.O...+.h.C.M r 0 8 9.t.",
"| i._ ) $.o.<.F.v.j r 0 j k.b.; ",
"{ <.@.#.X.g.Z.6.i r 0 5.M.3.Q & ",
"[ :.o.&.S.V.l y r g 0.n.~ G W $ ",
"< -.s.G.7.s y q M x.r.K S A R @ ",
"{ S.A.n p y a 0.m.( H G A V Y O ",
"B.l.d a y b z.y.I J F V B N P X ",
"7 v x z q.N.e./ ^ ~ W T Y P L   ",
"6 6 4 8.w.: - = & $ $ O X X . @ "
};
