/* XPM */
static char *np[] = {
/* columns rows colors chars-per-pixel */
"9 11 66 1",
"  c #060936",
". c #070A37",
"X c #070B38",
"o c #080C38",
"O c #080D3A",
"+ c #090E3C",
"@ c #0A0F3E",
"# c #161236",
"$ c #1A153E",
"% c #0A1044",
"& c #0B1047",
"* c #0B1149",
"= c #0E165D",
"- c #1E1855",
"; c #111A72",
": c #111B75",
"> c #121C78",
", c #131D7F",
"< c #181E7F",
"1 c #221C6C",
"2 c #AB0000",
"3 c #B30000",
"4 c #C10000",
"5 c #C20000",
"6 c #C70000",
"7 c #D00000",
"8 c #D80000",
"9 c #DC0000",
"0 c #DD0000",
"q c #DE0000",
"w c #E70101",
"e c #EC0000",
"r c #F00000",
"t c #DF4B4B",
"y c #E35252",
"u c #E45757",
"i c #E45D5D",
"p c #E76D6D",
"a c #EA7D7D",
"s c #271F83",
"d c #1D2D96",
"f c #1A249D",
"g c #2A2299",
"h c #1C2AB7",
"j c #2E25AB",
"k c #3027B9",
"l c #2C44B4",
"z c #1D2DC9",
"x c #1F30D6",
"c c #3329C6",
"v c #3229C9",
"b c #EA8282",
"n c #EC8888",
"m c #F2AEAE",
"M c #F6D3D3",
"N c #F9DBDB",
"B c #F9DCDC",
"V c #F9DDDD",
"C c #F9DFDF",
"Z c #F9E0E0",
"A c #FAE4E4",
"S c #FAE6E6",
"D c #FBEAEA",
"F c #FBEBEB",
"G c #FCF0F0",
"H c None",
/* pixels */
"vxxHHHHHH",
"crwzHHHHH",
"keAMhHHHH",
"jGVNAfHHH",
"gmFF06,HH",
"s09lds>;H",
"19nb:HHHH",
"-aZVt=HHH",
"$pVNi3&HH",
"#6uy632+H",
"*%@++X..."
};
