/* XPM */
static char *pf[] = {
/* columns rows colors chars-per-pixel */
"16 11 133 2",
"   c #990000",
".  c #9B0000",
"X  c #9D0000",
"o  c #9F0000",
"O  c #A30000",
"+  c #A50000",
"@  c #A70000",
"#  c #A90000",
"$  c #AD0000",
"%  c #B10000",
"&  c #B30000",
"*  c #B50000",
"=  c #B70000",
"-  c #BB0000",
";  c #BF0000",
":  c #C10000",
">  c #C50000",
",  c #C70000",
"<  c #C90000",
"1  c #CB0000",
"2  c #CD0000",
"3  c #CF0000",
"4  c #CF0B0B",
"5  c #D10000",
"6  c #D30000",
"7  c #D70000",
"8  c #D00F0E",
"9  c #D21313",
"0  c #D31919",
"q  c #D51E1E",
"w  c #D72323",
"e  c #D32C2C",
"r  c #D42F2F",
"t  c #D62F2F",
"y  c #D82929",
"u  c #DA2C2C",
"i  c #DA2E2E",
"p  c #D53232",
"a  c #D63535",
"s  c #DB3131",
"d  c #DC3434",
"f  c #DD3737",
"g  c #D83939",
"h  c #DD3A3A",
"j  c #D93D3D",
"k  c #DF3C3D",
"l  c #DF3F3F",
"z  c #DB4242",
"x  c #DD4646",
"c  c #DE4949",
"v  c #DD4B4B",
"b  c #DF4E4E",
"n  c #DE5050",
"m  c #E04242",
"M  c #E04444",
"N  c #E14747",
"B  c #E24C4C",
"V  c #E15353",
"C  c #E45151",
"Z  c #E05455",
"A  c #E25757",
"S  c #E55454",
"D  c #E25858",
"F  c #E65959",
"G  c #E35C5C",
"H  c #E25D5D",
"J  c #E65C5C",
"K  c #E75F5F",
"L  c #E36848",
"P  c #D06961",
"I  c #E46060",
"U  c #E46162",
"Y  c #E66565",
"T  c #E76666",
"R  c #E66969",
"E  c #E86D6D",
"W  c #E87071",
"Q  c #E97474",
"!  c #EA7777",
"~  c #EB7979",
"^  c #EB7B7B",
"/  c #EC7B7A",
"(  c #E89B51",
")  c #E8DE59",
"_  c #EBDA62",
"`  c #EED47B",
"'  c #EBE964",
"]  c #EFED70",
"[  c #968296",
"{  c #99869A",
"}  c #BD9182",
"|  c #9FB1BF",
" . c #EFE282",
".. c #EFEE8A",
"X. c #F3F39A",
"o. c #92AFC2",
"O. c #90B4CC",
"+. c #93B6CE",
"@. c #DFDFDF",
"#. c #F9F9C8",
"$. c #FCFCD0",
"%. c #F7F7DF",
"&. c #CADDEB",
"*. c #D1E2EE",
"=. c gray89",
"-. c gray90",
";. c #E7E7E7",
":. c #E5EFEC",
">. c gray91",
",. c #E9E9E9",
"<. c #EBE9E9",
"1. c #FCFCE7",
"2. c #ECF5F2",
"3. c gray95",
"4. c #F3F3F3",
"5. c #F4F4F4",
"6. c #F5F4F4",
"7. c #F4F5F5",
"8. c gray96",
"9. c #F6F5F5",
"0. c #F6F6F6",
"q. c gray97",
"w. c #F8F8F8",
"e. c #F9F9F9",
"r. c gray98",
"t. c #FBFBFB",
"y. c #FBFCFB",
"u. c gray99",
"i. c #FDFCFC",
"p. c #FDFCFD",
"a. c #FDFDFD",
"s. c #FEFDFD",
"d. c #FEFEFE",
/* pixels */
"7 6 6 6 7 6 3 3 < < > > ; ; - - ",
"6 ^ ^ ^ ! Q W E R Y K G A V b & ",
"6 / K J J C C B N z k f s u c $ ",
"<.s.s.i.s.s.$.`  .#.e.e.9.6.9.;.",
"<.s.s.s.s.1.] L ( ' %.9.9.4.9.;.",
",.s.y.s.y.X._ P } ) ..6.7.4.7.;.",
",.y.y.y.u.2.o.{ [ o.:.6.4.4.4.=.",
",.y.y.y.u.w.*.+.O.&.6.4.2.4.4.@.",
", Y m z h d i y w q 0 9 4 4 r . ",
", U H G n n c x z j g a a r r . ",
", > ; - = = & $ # @ @ O X X . X "
};
