/* XPM */
static char *pk[] = {
/* columns rows colors chars-per-pixel */
"16 11 145 2",
"   c #002100",
".  c #002300",
"X  c #002500",
"o  c #002900",
"O  c #002B00",
"+  c #002D00",
"@  c #002F00",
"#  c #003300",
"$  c #003500",
"%  c #003900",
"&  c #003B00",
"*  c #003F00",
"=  c #004300",
"-  c #004500",
";  c #004700",
":  c #004900",
">  c #005700",
",  c #005B00",
"<  c #006100",
"1  c #006700",
"2  c #006B00",
"3  c #007100",
"4  c #007300",
"5  c #007700",
"6  c #007B00",
"7  c #007D00",
"8  c #008900",
"9  c #0B900B",
"0  c #139313",
"q  c #159715",
"w  c #1A991A",
"e  c #1F981F",
"r  c #1E9A1E",
"t  c #209A20",
"y  c #249A24",
"u  c #269E26",
"i  c #2A9B2A",
"p  c #2C9F2C",
"a  c #2F9D2F",
"s  c #2BA02A",
"d  c #2AA12B",
"f  c #2CA22C",
"g  c #2FA02F",
"h  c #2EA32E",
"j  c #30A230",
"k  c #32A232",
"l  c #33A332",
"z  c #31A431",
"x  c #35A235",
"c  c #34A434",
"v  c #34A534",
"b  c #36A536",
"n  c #37A637",
"m  c #3CA73C",
"M  c #3DA73D",
"N  c #3EA73E",
"B  c #3AA83A",
"V  c #3BA83B",
"C  c #3DAB3D",
"Z  c #3FA93F",
"A  c #42A742",
"S  c #40AA40",
"D  c #41AC41",
"F  c #46AB46",
"G  c #44AC44",
"H  c #45AD45",
"J  c #45AE45",
"K  c #46AD46",
"L  c #46AE46",
"P  c #49AE49",
"I  c #4AAD4A",
"U  c #4BB04A",
"Y  c #4BB04B",
"T  c #4EB14E",
"R  c #57AF57",
"E  c #50B150",
"W  c #50B350",
"Q  c #53B353",
"!  c #50B450",
"~  c #51B451",
"^  c #54B654",
"/  c #55B655",
"(  c #58B657",
")  c #5CB45C",
"_  c #5DB75D",
"`  c #5AB95A",
"'  c #5CB95C",
"]  c #5EB95E",
"[  c #5EBB5E",
"{  c #5FB960",
"}  c #61BB60",
"|  c #62BD62",
" . c #65BE65",
".. c #69BE69",
"X. c #6DB96D",
"o. c #6BBF6C",
"O. c #6DC16D",
"+. c #70C371",
"@. c #74C374",
"#. c #7CC47B",
"$. c #7FC87F",
"%. c #87C687",
"&. c #85C985",
"*. c #90CA90",
"=. c #92CE92",
"-. c #94CC94",
";. c #A3D3A3",
":. c #A7D3A7",
">. c #A6D4A6",
",. c #A7D6A7",
"<. c #ACD6AC",
"1. c #ACD7AC",
"2. c #BBDFBB",
"3. c #D0E4D0",
"4. c #D5E8D5",
"5. c #DBE7DB",
"6. c #DCEADC",
"7. c #E3EBE3",
"8. c #E1EFE1",
"9. c #E5EDE5",
"0. c #E7EFE7",
"q. c #E5F3E5",
"w. c #E9F1E9",
"e. c #EAF2EA",
"r. c #EBF3EB",
"t. c #EDF3ED",
"y. c #EDF5EF",
"u. c #EFF4EF",
"i. c #EFF5EF",
"p. c #EFF7EF",
"a. c #F0F5F0",
"s. c #F0F6F0",
"d. c #F1F7F1",
"f. c #F1F9F1",
"g. c #F2F8F2",
"h. c #F3F9F3",
"j. c #F4F9F4",
"k. c #F5FAF5",
"l. c #F7FCF7",
"z. c gray98",
"x. c #FBFBFB",
"c. c gray99",
"v. c #FDFDFD",
"b. c #FEFEFE",
"n. c gray100",
/* pixels */
"f.f.f.q.8 7 6 5 4 4 2 1 < , > , ",
"f.n.n.l.$.@.+.O... .} [ ( Q T : ",
"p.n.n.j.| / ~ W o.K C c z f I = ",
"f.n.n.j.[ ~ Y 2.,.M S 1.I u K * ",
"f.n.n.d.` I &.8.{ b _ 4.,.e C $ ",
"p.n.n.f./ K =.w.G l f ( M w C $ ",
"t.c.c.d.W S #.d.;.i y e e q b + ",
"t.c.x.s.Y B c 1.u.-.%.:.R 0 l O ",
"w.x.x.u.K v g f *.3.6.X.a 9 g X ",
"w.x.x.d.[ T Y K A Z m b l a p   ",
"0.0.8.5., - - * % $ + + O X   + "
};
