/* XPM */
static char *pl[] = {
/* columns rows colors chars-per-pixel */
"16 11 106 2",
"   c #DD0000",
".  c #DF0000",
"X  c #E10000",
"o  c #E30000",
"O  c #E50000",
"+  c #E70000",
"@  c #E90000",
"#  c #EB0000",
"$  c #ED0000",
"%  c #EF0000",
"&  c #F10000",
"*  c #F30000",
"=  c #F50000",
"-  c #F70000",
";  c #F90000",
":  c #FB0000",
">  c #FD0000",
",  c #F10B0B",
"<  c #F10F0E",
"1  c #F21010",
"2  c #F21313",
"3  c #F21414",
"4  c #F31919",
"5  c #F41E1E",
"6  c #F41F1F",
"7  c #F52323",
"8  c #F52424",
"9  c #F62929",
"0  c #F62A2A",
"q  c #F22C2C",
"w  c #F22F2F",
"e  c #F72E2E",
"r  c #F72F2F",
"t  c #F23232",
"y  c #F33232",
"u  c #F33535",
"i  c #F43636",
"p  c #F83434",
"a  c #F83535",
"s  c #F43939",
"d  c #F53D3D",
"f  c #F93A3A",
"g  c #F93B3A",
"h  c #FA3F3F",
"j  c #F64242",
"k  c #F34444",
"l  c #F74646",
"z  c #FA4040",
"x  c #FA4444",
"c  c #FB4545",
"v  c #F44848",
"b  c #F74B4B",
"n  c #F54D4D",
"m  c #FB4949",
"M  c #FB4A49",
"N  c #FC4F4F",
"B  c #F65252",
"V  c #F75657",
"C  c #F85050",
"Z  c #F95455",
"A  c #F45F5F",
"S  c #F95858",
"D  c #F85B5B",
"F  c #FA5D5D",
"G  c #F96060",
"H  c #FB6162",
"J  c #FA6464",
"K  c #FC6666",
"L  c #FB6868",
"P  c #FC6A6A",
"I  c #FC6C6C",
"U  c #FD6F6F",
"Y  c #FC7070",
"T  c #FD7474",
"R  c #FE8E8E",
"E  c #E7D5D5",
"W  c #E7D7D7",
"Q  c #E9D9D9",
"!  c #EBDDDD",
"~  c #EDDFDF",
"^  c #EFE1E1",
"/  c #F1E3E3",
"(  c #F3E5E5",
")  c #F5E7E7",
"_  c #F7E9E9",
"`  c #F9EBEB",
"'  c #FBEDED",
"]  c #FDEDED",
"[  c #FDEFEF",
"{  c #FDEFF1",
"}  c #F4F4F4",
"|  c gray96",
" . c #F6F6F6",
".. c gray97",
"X. c #FDF1F1",
"o. c #FFF1F1",
"O. c #F8F8F8",
"+. c #F9F9F9",
"@. c gray98",
"#. c #FBFBFB",
"$. c gray99",
"%. c #FDFCFD",
"&. c #FDFDFD",
"*. c #FDFDFE",
"=. c #FEFEFE",
"-. c gray100",
/* pixels */
"o.o.o.o.[ { [ [ ` ` _ ) ( ^ ^ ~ ",
"o.-.-.-.-.-.*.*.$.#.#.#.#.....! ",
"[ -.-.-.-.$.-.$.#.#...........Q ",
"o.-.#.-.#.-.#.#.#.#.....} ....W ",
"o.-.-.-.$.#.$.#.#.......} } } E ",
": R T Y I L J F D V B n l l A X ",
"> U N M c z f i r 9 8 6 4 3 u X ",
": L M c h f p r 9 8 6 4 3 1 y . ",
": J c h f a r 9 8 5 4 1 1 , w . ",
"- H F S Z n b l j d s i y w w . ",
"- & % % % % @ @ O O X X .       "
};
