/* XPM */
static char *pn[] = {
/* columns rows colors chars-per-pixel */
"16 11 161 2",
"   c #000025",
".  c #000027",
"X  c #00002B",
"o  c #00002D",
"O  c #00002F",
"+  c #000033",
"@  c #000035",
"#  c #000039",
"$  c #00003B",
"%  c #000041",
"&  c #000045",
"*  c #000047",
"=  c #00004B",
"-  c #00004D",
";  c #000053",
":  c #000057",
">  c #00005D",
",  c #000063",
"<  c #000067",
"1  c #00006D",
"2  c #000073",
"3  c #000077",
"4  c #31497D",
"5  c #335075",
"6  c #477250",
"7  c #4B7553",
"8  c #4B7555",
"9  c #4F7857",
"0  c #507958",
"q  c #547C5C",
"w  c #617348",
"e  c #6A7351",
"r  c #5A7674",
"t  c #C46A79",
"y  c #D5677F",
"u  c #ED6567",
"i  c #ED6771",
"p  c #FD7373",
"a  c #66815A",
"s  c #75825F",
"d  c #77AC5E",
"f  c #598060",
"g  c #7C8964",
"h  c #7C8C7D",
"j  c #7AA975",
"k  c #ACB923",
"l  c #BCBF40",
"z  c #ABB460",
"x  c #000081",
"c  c #2946A4",
"v  c #2E4AA6",
"b  c #314CA3",
"n  c #3750A5",
"m  c #3650A6",
"M  c #3651A6",
"N  c #3953A0",
"B  c #3955A1",
"V  c #3654AC",
"C  c #3B54A9",
"Z  c #3A55AB",
"A  c #3C55A9",
"S  c #3C56A9",
"D  c #415A98",
"F  c #446382",
"G  c #496986",
"H  c #4F6899",
"J  c #506597",
"K  c #5D6E9F",
"L  c #4057A3",
"P  c #4059A1",
"I  c #405EA3",
"U  c #435BA4",
"Y  c #465DAB",
"T  c #4159AC",
"R  c #415AAC",
"E  c #405AAD",
"W  c #465EAE",
"Q  c #465EAF",
"!  c #5953B9",
"~  c #7F5DAB",
"^  c #4D64A1",
"/  c #4E64A9",
"(  c #4860AE",
")  c #4C65AF",
"_  c #5467A7",
"`  c #546EAE",
"'  c #4A62B1",
"]  c #4C63B1",
"[  c #4D66B2",
"{  c #4966B6",
"}  c #4F67B4",
"|  c #4D6AB9",
" . c #5068B2",
".. c #556CB4",
"X. c #546CB7",
"o. c #586EB7",
"O. c #5A6FB7",
"+. c #596FB8",
"@. c #5C72BB",
"#. c #5E74B9",
"$. c #7B69BF",
"%. c #6276B6",
"&. c #667BB7",
"*. c #6277BB",
"=. c #667BBE",
"-. c #7976B9",
";. c #1B39C7",
":. c #3B5DDB",
">. c #5F71DF",
",. c #6361CB",
"<. c #6A7FC0",
"1. c #697DC2",
"2. c #516FE7",
"3. c #4F71E7",
"4. c #AE6185",
"5. c #C16481",
"6. c #C36387",
"7. c #CC6E84",
"8. c #659486",
"9. c #6DA092",
"0. c #6E82C2",
"q. c #6F83C2",
"w. c #7387C4",
"e. c #7389C7",
"r. c #7782CE",
"t. c #878D9E",
"y. c #8E9393",
"u. c #FE8986",
"i. c #F89597",
"p. c #FE9897",
"a. c #F79999",
"s. c #FEA19E",
"d. c #FDA29F",
"f. c #DB9EAB",
"g. c #DDA2B4",
"h. c #FDA9A4",
"j. c #F0A2AB",
"k. c #EAB1BB",
"l. c #EAB8BE",
"z. c #F5B3B6",
"x. c #9B8ECA",
"c. c #A298CF",
"v. c #8492E1",
"b. c #889AE6",
"n. c #99A4E8",
"m. c #9BB0ED",
"M. c #B5B3E3",
"N. c #AEBFF5",
"B. c #CAB5D7",
"V. c #FDCECE",
"C. c #FED0D1",
"Z. c #FCD8D5",
"A. c #D7CEE8",
"S. c #D6CFE8",
"D. c #CED3F3",
"F. c #CED7F7",
"G. c #FEE1E0",
"H. c #FAE2E4",
"J. c #F0E0E8",
"K. c #F7E5E9",
"L. c #FFEEEE",
/* pixels */
",.a.>.$.u :.~ 6.;.3 1 < , > : ; ",
"2.F.L.A.Z.A.J.N.n.0.1.&.%.@.o.= ",
"i H.V.s.u.h.z.j.5.[ _ H t.B ` & ",
"y K.C.p.p s.k.g.4./ d r y.s j % ",
"3.D.G.B.i.M.f.m.r.I G e w a K $ ",
"! l.b.c.7.v.x.t -.A D f 8.0 ^ @ ",
"x e.+.| { ] E V Z B F q 9.8 J O ",
"3 w.X.} ] Q E A M v l 9 7 6 z X ",
"2 w.} ' W R A n b c g 5 k 4 h   ",
"1 1.=.*.%.o.X. .) ( Y U U B n   ",
"< , > : ; - & % $ $ + X O       "
};
