/* XPM */
static char *pr[] = {
/* columns rows colors chars-per-pixel */
"16 11 156 2",
"   c #810000",
".  c #830000",
"X  c #850000",
"o  c #870000",
"O  c #890000",
"+  c #8D0000",
"@  c #8F0000",
"#  c #910000",
"$  c #970000",
"%  c #9B0000",
"&  c #9D0000",
"*  c #9F0000",
"=  c #A10000",
"-  c #A50000",
";  c #A70000",
":  c #A90000",
">  c #AB0000",
",  c #AD0000",
"<  c #A30009",
"1  c #B10000",
"2  c #B50000",
"3  c #B90000",
"4  c #BB0000",
"5  c #BD0000",
"6  c #BF0000",
"7  c #C10000",
"8  c #C70000",
"9  c #CF0000",
"0  c #C31A1A",
"q  c #C51F1F",
"w  c #C72525",
"e  c #C92B2B",
"r  c #CB3030",
"t  c #CB3333",
"y  c #CD3536",
"u  c #CE3639",
"i  c #CB3B3B",
"p  c #CE3939",
"a  c #D13030",
"s  c #D13C3C",
"d  c #D03D3D",
"f  c #D14141",
"g  c #D34141",
"h  c #D34545",
"j  c #D44646",
"k  c #D44A4A",
"l  c #D64B4B",
"z  c #D64E4E",
"x  c #D35353",
"c  c #D75252",
"v  c #D55656",
"b  c #D85050",
"n  c #D85353",
"m  c #D95557",
"M  c #D85656",
"N  c #DF5D57",
"B  c #D75858",
"V  c #D65A5A",
"C  c #DA5B5B",
"Z  c #D85E5E",
"A  c #CC5A6D",
"S  c #D95D62",
"D  c #DA6363",
"F  c #DC6060",
"G  c #DD6464",
"H  c #DB6768",
"J  c #D86B6B",
"K  c #DE6868",
"L  c #DF6C6C",
"P  c #D86B73",
"I  c #E16F6F",
"U  c #E27374",
"Y  c #E37776",
"T  c #E87E79",
"R  c #0000D5",
"E  c #0000D9",
"W  c #0000F7",
"Q  c #0000F9",
"!  c #0000FB",
"~  c #0000FD",
"^  c blue",
"/  c #4040FA",
"(  c #4444FA",
")  c #4545FB",
"_  c #4946FB",
"`  c #4A46FB",
"'  c #4949FB",
"]  c #4D4EFA",
"[  c #4B4BFC",
"{  c #5451FC",
"}  c #5859FE",
"|  c #5F5DFD",
" . c #5F5FFE",
".. c #6851E0",
"X. c #5D60FD",
"o. c #7F6BE8",
"O. c #6D61F0",
"+. c #6866FC",
"@. c #6C68FE",
"#. c #706AFC",
"$. c #7874FB",
"%. c #7979FE",
"&. c #7E7AFD",
"*. c #7D7BFF",
"=. c #9C3D83",
"-. c #A45FA3",
";. c #A45DA7",
":. c #AA68AA",
">. c #B77BB8",
",. c #E37D80",
"<. c #857BF5",
"1. c #D9BFBF",
"2. c #8F8FFE",
"3. c #918DFD",
"4. c #D9C9C9",
"5. c #E5CDCD",
"6. c #E3D1D1",
"7. c #C2C0FC",
"8. c #C5C3FE",
"9. c #D2D1FE",
"0. c #D8D9F9",
"q. c #DDDBFC",
"w. c #DFDFFD",
"e. c #E9DDEC",
"r. c #F0ECEC",
"t. c #F1EDED",
"y. c #F1EEEE",
"u. c #F2EEEE",
"i. c #F0E6F2",
"p. c #F3F0F0",
"a. c gray95",
"s. c #F3F3F3",
"d. c #F4F1F1",
"f. c #F6F3F3",
"g. c #F4F4F4",
"h. c gray96",
"j. c #F6F5F5",
"k. c #F6F6F6",
"l. c #F7F6F6",
"z. c #F7F7F6",
"x. c gray97",
"c. c #F8F4F4",
"v. c #F9F5F5",
"b. c #FAF6F6",
"n. c #FAF7F7",
"m. c #F8F8F7",
"M. c #F5F7F8",
"N. c #F8F8F8",
"B. c #F9F9F9",
"V. c #FBF8F8",
"C. c gray98",
"Z. c #FBFBFB",
"A. c #FCF8F8",
"S. c #FDFAF9",
"D. c #F9FAFC",
"F. c #FBFBFD",
/* pixels */
"E < 9 8 7 7 5 4 4 2 2 , , : - - ",
"^ <.>.,.T Y U I L K G F C M c = ",
"^ *. .o.i.m.A.Z.n.n.x.f.x.f.f.5.",
"^ %.@.} | w.Z.Z.Z.N.n.x.x.x.x.6.",
"^ 2.9.3. .' :.A M b l h d d B & ",
"! 8.Z.q.{ ` / =.u a e w q 0 i . ",
"^ &.7.$.` / -.P H D Z V v x J = ",
"! #.' ) ] 0.M.x.x.x.s.s.s.s.s.4.",
"! +.) ..e.x.x.x.u.p.u.u.u.r.r.1.",
"W O.;.S N c z k h f d p y t r . ",
"R . 4 : & = % $ # @ @ o o . . o "
};
