/* XPM */
static char *py[] = {
/* columns rows colors chars-per-pixel */
"16 11 146 2",
"   c #E90000",
".  c #EB0000",
"X  c #ED0000",
"o  c #EF0000",
"O  c #F10000",
"+  c #F30000",
"@  c #F50000",
"#  c #F70000",
"$  c #F90000",
"%  c #FB0000",
"&  c #FD0000",
"*  c red",
"=  c #F62C2C",
"-  c #F73131",
";  c #F83737",
":  c #F93C3D",
">  c #FA4242",
",  c #FB4747",
"<  c #F74949",
"1  c #F74E4E",
"2  c #FC4C4C",
"3  c #F85353",
"4  c #FD5151",
"5  c #F95757",
"6  c #FD5454",
"7  c #FE5959",
"8  c #FA5C5C",
"9  c #FE5C5C",
"0  c #FE5F5F",
"q  c #FB6060",
"w  c #FC6565",
"e  c #FC6969",
"r  c #FD6D6D",
"t  c #EA7973",
"y  c #FD7071",
"u  c #FE7474",
"i  c #FE7777",
"p  c #FE7979",
"a  c #FF7B7A",
"s  c #FF7B7B",
"d  c #9ABD7A",
"f  c #EA8079",
"g  c #0000A7",
"h  c #0000AB",
"j  c #0000AD",
"k  c #0000AF",
"l  c #0000B1",
"z  c #0000B5",
"x  c #0000B9",
"c  c #0000BB",
"v  c #0000BD",
"b  c #0000C1",
"n  c #0000C3",
"m  c #0000C7",
"M  c #0000C9",
"N  c #0003CD",
"B  c #000BCF",
"V  c #0011D1",
"C  c #3658D6",
"Z  c #395CD7",
"A  c #3D5ED9",
"S  c #4262DA",
"D  c #4666DC",
"F  c #4B6ADD",
"G  c #506FDA",
"H  c #506EDF",
"J  c #5370DC",
"K  c #5470DC",
"L  c #5573DD",
"P  c #5975DD",
"I  c #5C78DF",
"U  c #5472E1",
"Y  c #5976E2",
"T  c #5D7AE4",
"R  c #607BE0",
"E  c #647FE2",
"W  c #627EE4",
"Q  c #7081CA",
"!  c #6682E6",
"~  c #6882E2",
"^  c #6B85E4",
"/  c #6F89E6",
"(  c #738CE7",
")  c #778FE8",
"_  c #7A93E8",
"`  c #7F96EA",
"'  c #F18D87",
"]  c #F3928C",
"[  c #8399EB",
"{  c #CFD3DB",
"}  c #CFD1DF",
"|  c #F6CCC8",
" . c #E7DDDD",
".. c #F6D4D1",
"X. c #F9D2D0",
"o. c #F7D9D9",
"O. c #F9DBD8",
"+. c #FADEDE",
"@. c #CFD3E1",
"#. c #D3D7E3",
"$. c #F5EFEF",
"%. c #E7E9F0",
"&. c #E9EAF0",
"*. c #EAECF1",
"=. c #EBECF2",
"-. c #EBEDF2",
";. c #ECEEF4",
":. c #EFEFF5",
">. c #EDEFF9",
",. c #EDF1F7",
"<. c #EFF0F7",
"1. c #EFF1F7",
"2. c #EFF1FB",
"3. c #EFF3FB",
"4. c gray95",
"5. c #F3F3F3",
"6. c #F6F0F0",
"7. c #F6F1F1",
"8. c #F7F2F2",
"9. c #F4F4F4",
"0. c #F4F5F5",
"q. c gray96",
"w. c #F6F6F6",
"e. c gray97",
"r. c #F8F3F3",
"t. c #F9F4F4",
"y. c #FAF4F5",
"u. c #FBF5F5",
"i. c #FFF5F5",
"p. c #FCF6F6",
"a. c #FDF7F7",
"s. c #F0F2F8",
"d. c #F2F3F9",
"f. c #F3F4FA",
"g. c #F4F5FA",
"h. c #F7F7FC",
"j. c gray98",
"k. c #FBFBFB",
"l. c #FDF8F8",
"z. c #FEF9F9",
"x. c #FEFBFB",
"c. c #FBFCFB",
"v. c gray99",
"b. c #FDFCFD",
"n. c #FDFDFD",
"m. c #FEFEFE",
/* pixels */
"* * * * * * * % % % # # O O o o ",
"* s s s i u y r e w q 8 5 3 1   ",
"* s 0 9 9 4 4 , , > : ; - = <   ",
"a.z.z.a.a.a.a.i.t.t.8.8.6.$.8. .",
"d.m.m.m.k.m.$.' ' o.p.0.0.9.0.#.",
"2.m.v.m.k.j.X.d Q | 0.0.9.5.0.@.",
">.m.k.c.j.j.O.t t ..0.9.5.5.9.} ",
",.h.f.f.d.d.,.,.,.;.*.&.=.%.=.{ ",
"V [ ! W T Y L H F D S A Z C K g ",
"B ` _ ) ( / ^ ~ E R I P L K G g ",
"N M m b b v c c z l k k h g g g "
};
