/* XPM */
static char *ro[] = {
/* columns rows colors chars-per-pixel */
"16 11 151 2",
"   c #DD0000",
".  c #DF0000",
"X  c #E10000",
"o  c #E30000",
"O  c #E50000",
"+  c #E70000",
"@  c #E90000",
"#  c #EB0000",
"$  c #ED0000",
"%  c #EF0000",
"&  c #F10000",
"*  c #F30000",
"=  c #F50000",
"-  c #F10B0B",
";  c #F10F0E",
":  c #F21010",
">  c #F21313",
",  c #F21414",
"<  c #F31919",
"1  c #F31A1A",
"2  c #F41F1F",
"3  c #F42020",
"4  c #F52525",
"5  c #F52626",
"6  c #F62B2B",
"7  c #F22C2C",
"8  c #F22F2F",
"9  c #F62C2C",
"0  c #F23232",
"q  c #F33232",
"w  c #F73131",
"e  c #F33535",
"r  c #F43636",
"t  c #F83737",
"y  c #F43B3B",
"u  c #F53F3F",
"i  c #F64444",
"p  c #F74949",
"a  c #F74E4E",
"s  c #F85353",
"d  c #F95757",
"f  c #FA5C5C",
"g  c #E3A900",
"h  c #E5B900",
"j  c #E7BD00",
"k  c #E9BD00",
"l  c #EBC100",
"z  c #EFDD00",
"x  c #F7D500",
"c  c #F3DD00",
"v  c #F5DF00",
"b  c #F7E100",
"n  c #F7E300",
"m  c #F3E319",
"M  c #F4E51F",
"N  c #F4F41E",
"B  c #F5E624",
"V  c #F6E82B",
"C  c #F5F523",
"Z  c #F5F524",
"A  c #F6F629",
"S  c #F6F62A",
"D  c #F7F72E",
"F  c #F7F72F",
"G  c #F7E930",
"H  c #F8EA36",
"J  c #F4E739",
"K  c #F9EC3D",
"L  c #F7F730",
"P  c #F8F834",
"I  c #F8F835",
"U  c #F8F836",
"Y  c #F0F03A",
"T  c #F5F53D",
"R  c #F9F93A",
"E  c #F9F93B",
"W  c #F9F93C",
"Q  c #F1F140",
"!  c #F6F642",
"~  c #F2F246",
"^  c #F7F746",
"/  c #FAFA40",
"(  c #FAFA41",
")  c #FAFA42",
"_  c #FBFB46",
"`  c #FBFB47",
"'  c #F3F34B",
"]  c #F7F74B",
"[  c #FCFC4B",
"{  c #FCFC4C",
"}  c #F4F450",
"|  c #F2F255",
" . c #F5F556",
".. c #FDFD51",
"X. c #F6F65A",
"o. c #FBF060",
"O. c #FCFC65",
"+. c #FCFC69",
"@. c #FDFD6D",
"#. c #FDFD71",
"$. c #F8F878",
"%. c #0000A9",
"&. c #0000AB",
"*. c #0000AD",
"=. c #0000AF",
"-. c #0000B3",
";. c #0000B5",
":. c #0000B7",
">. c #0007BB",
",. c #000DBD",
"<. c #0013BF",
"1. c #0019C1",
"2. c #0019C3",
"3. c #001DC3",
"4. c #001DC5",
"5. c #001DC9",
"6. c #002BC7",
"7. c #3F6BD5",
"8. c #3A68D8",
"9. c #446FD6",
"0. c #406CD9",
"q. c #4570D7",
"w. c #4571DB",
"e. c #4974D8",
"r. c #4974D9",
"t. c #4B75DD",
"y. c #4F78DA",
"u. c #4F78DB",
"i. c #537CDB",
"p. c #5079DE",
"a. c #547CDC",
"s. c #547CDD",
"d. c #547DDF",
"f. c #587FDA",
"g. c #5D83DB",
"h. c #5880DC",
"j. c #5880DD",
"k. c #5C83DE",
"l. c #5F85DF",
"z. c #6186DD",
"x. c #668ADE",
"c. c #5981E0",
"v. c #6A8EE0",
"b. c #6F91E0",
"n. c #7294E2",
"m. c #7697E3",
"M. c #7798E7",
"N. c #7999E4",
"B. c #7999E5",
"V. c #7B9AE4",
"C. c #7B9BE4",
/* pixels */
"6.3.3.4.5.z n n v c x = * * % % ",
"2.C.C.C.M.$.#.@.+.O.o.f d s a @ ",
"4.C.k.k.c.X...{ ` ( K t w 9 p @ ",
"2.C.k.j.d. .[ _ ( W H w 9 5 i + ",
"2.m.j.a.p.' _ ( W U G 6 5 3 u + ",
"<.n.i.y.t.' ( R U F V 4 2 1 y + ",
",.n.y.e.w.' R I F S B 2 1 , r X ",
">.x.e.q.0.Q P D S Z M 1 , : 0 . ",
";.x.9.9.8.Y F S C N m > ; - 8 . ",
"-.z.g.a.a.| ] ^ ! T J r 0 8 7 . ",
"-.*.&.&.*.j l j j h g X .       "
};
