/* XPM */
static char *rs[] = {
/* columns rows colors chars-per-pixel */
"16 11 118 2",
"   c #001A6C",
".  c #001D76",
"X  c #001D78",
"o  c #001E7A",
"O  c #BF0000",
"+  c #C10000",
"@  c #C30000",
"#  c #C50000",
"$  c #C70000",
"%  c #C90000",
"&  c #CB0000",
"*  c #CD0000",
"=  c #D00000",
"-  c #D20000",
";  c #D50000",
":  c #D70000",
">  c #D90000",
",  c #DA0000",
"<  c #DB0000",
"1  c #DD0000",
"2  c #E00000",
"3  c #E10000",
"4  c #E20000",
"5  c #E40000",
"6  c #C43C3F",
"7  c #D03131",
"8  c #D23131",
"9  c #D33232",
"0  c #D43232",
"q  c #D53232",
"w  c #D63232",
"e  c #D73232",
"r  c #D73333",
"t  c #D83333",
"y  c #D93333",
"u  c #DB3434",
"i  c #DD3434",
"p  c #D2353B",
"a  c #E53636",
"s  c #E73636",
"d  c #E93737",
"f  c #EB3737",
"g  c #C83D41",
"h  c #CD3E42",
"j  c #CE3E43",
"k  c #D03F43",
"l  c #D03F45",
"z  c #D54145",
"x  c #D8574E",
"c  c #D9584F",
"v  c #DC5950",
"b  c #DE5A51",
"n  c #E05B51",
"m  c #E35C52",
"M  c #E55D53",
"N  c #E75E54",
"B  c #E95F55",
"V  c #EB6056",
"C  c #ED6156",
"Z  c #F06257",
"A  c #F36357",
"S  c #F56458",
"D  c #F56459",
"F  c #F56559",
"G  c #F5665A",
"H  c #E57E54",
"J  c #D15D60",
"K  c #D25E61",
"L  c #CE6E72",
"P  c #D07174",
"I  c #D77779",
"U  c #DD7A7C",
"Y  c #E88055",
"T  c #F5F576",
"R  c #F5F577",
"E  c #005496",
"W  c #005497",
"Q  c #005597",
"!  c #005598",
"~  c #005699",
"^  c #00569A",
"/  c #00569B",
"(  c #00569C",
")  c #00579C",
"_  c #00579E",
"`  c #00599F",
"'  c #005AA1",
"]  c #005AA2",
"[  c #005BA4",
"{  c #005CA4",
"}  c #005DA7",
"|  c #3073A4",
" . c #3073A5",
".. c #347EB3",
"X. c #357FB6",
"o. c #3682B8",
"O. c #EDA3A4",
"+. c #EEB8B8",
"@. c #F1BABA",
"#. c #EBC2C3",
"$. c #EDC3C4",
"%. c #E9CCCE",
"&. c #F0C7C7",
"*. c #EDD0D1",
"=. c gray90",
"-. c #E6E6E6",
";. c #E7E7E7",
":. c #E9E9E9",
">. c gray92",
",. c gray93",
"<. c #EFEFEF",
"1. c gray94",
"2. c #F1F1F1",
"3. c gray95",
"4. c #F3F3F3",
"5. c #F5F1F1",
"6. c #F4F4F4",
"7. c gray96",
/* pixels */
"5 3 3 1 , , : : - * * * * % $ $ ",
"3 G S G A A C V B B M m m v c + ",
"1 S f f p H H l i u y r 9 9 c + ",
", A a a z T T h y r r 9 9 9 x + ",
"o o.} [ O.k h +.` ^ ^ ^ W W  .  ",
"o X.[ ' @.7.5.&.) ^ ^ W W W  .  ",
". ..' ` U K K I / W W W W W |   ",
"6.7.7.7.g $.#.6 6.6.3.2.2.<.7.=.",
"7.7.7.7.*.P L %.3.3.3.2.<.<.3.=.",
"<.7.7.7.7.7.6.3.3.3.3.<.<.3.3.=.",
"<.:.:.:.;.=.=.=.=.=.=.=.=.=.=.=."
};
