/* XPM */
static char *sa[] = {
/* columns rows colors chars-per-pixel */
"16 11 138 2",
"   c black",
".  c #000700",
"X  c #000F00",
"o  c #001700",
"O  c #001D00",
"+  c #002300",
"@  c #002B00",
"#  c #003100",
"$  c #003300",
"%  c #003700",
"&  c #003900",
"*  c #003B00",
"=  c #003F00",
"-  c #004100",
";  c #004500",
":  c #004700",
">  c #004900",
",  c #004B00",
"<  c #146E13",
"1  c #187017",
"2  c #1C721B",
"3  c #1F731E",
"4  c #20751F",
"5  c #217520",
"6  c #227621",
"7  c #237823",
"8  c #267A26",
"9  c #297B27",
"0  c #297B29",
"q  c #2F7E2F",
"w  c #358233",
"e  c #358034",
"r  c #348234",
"t  c #368236",
"y  c #378236",
"u  c #388438",
"i  c #3A843A",
"p  c #3A853A",
"a  c #3B853A",
"s  c #3E863D",
"d  c #3F873E",
"f  c #3C883C",
"g  c #40883F",
"h  c #408A3F",
"j  c #418A40",
"k  c #438A42",
"l  c #448C43",
"z  c #448A45",
"x  c #458C44",
"c  c #478D46",
"v  c #478F46",
"b  c #498F48",
"n  c #4A9149",
"m  c #4B914A",
"M  c #4C904B",
"N  c #4C914C",
"B  c #4D914D",
"V  c #4E914D",
"C  c #4C924C",
"Z  c #50944F",
"A  c #519450",
"S  c #529451",
"D  c #519651",
"F  c #539752",
"G  c #549653",
"H  c #569755",
"J  c #579756",
"K  c #569956",
"L  c #579A56",
"P  c #5C975C",
"I  c #5B9A5A",
"U  c #5B9A5B",
"Y  c #5B9B5B",
"T  c #5C9B5B",
"R  c #5B9D5B",
"E  c #5E9C5D",
"W  c #609E5F",
"Q  c #5FA05E",
"!  c #609A62",
"~  c #619E60",
"^  c #64A064",
"/  c #64A264",
"(  c #66A265",
")  c #66A266",
"_  c #66A466",
"`  c #68A069",
"'  c #68A468",
"]  c #6AA46A",
"[  c #6DA66C",
"{  c #6EA76D",
"}  c #70A373",
"|  c #71A970",
" . c #72AA71",
".. c #75AC74",
"X. c #76AC75",
"o. c #78AE77",
"O. c #78A979",
"+. c #78AE78",
"@. c #7AAB7D",
"#. c #7BB07A",
"$. c #7BB07B",
"%. c #7FB37E",
"&. c #7FB27F",
"*. c #80AD81",
"=. c #80B380",
"-. c #81B380",
";. c #89B48A",
":. c #89B48B",
">. c #8AB38C",
",. c #8AB58C",
"<. c #8CB48D",
"1. c #91B793",
"2. c #94BD95",
"3. c #96BB98",
"4. c #99BD99",
"5. c #99BD9A",
"6. c #99C19A",
"7. c #A3C2A4",
"8. c #A1C4A4",
"9. c #A8C8A9",
"0. c #AAC9AC",
"q. c #ADC9AD",
"w. c #AECBAF",
"e. c #ADCCAC",
"r. c #AFCCB1",
"t. c #B1CBB1",
"y. c #B0CBB2",
"u. c #B3CDB3",
"i. c #B3CCB4",
"p. c #B3CCB5",
"a. c #B6CDB6",
"s. c #B6CFB6",
"d. c #B6CEB8",
"f. c #B7D0B7",
"g. c #B6D0B8",
"h. c #BBD0BB",
"j. c #BCD4BF",
"k. c #CEDFCF",
/* pixels */
", , , , , ; ; & % @ @ + O o X . ",
", -.-.%.#.o.X.| { [ ' ~ E U H   ",
", =._ / ) ) T H R H B b h y S   ",
", %.Q 6.j.r.@.0.r.i.O.s.:.0 b   ",
"; @.R 2.w.g.3.p.3.<.~ 7.<.7 c   ",
"; o.L 9.k.8.,.:.5.! } *.z 4 k   ",
"= ..K D G Z m l j a a 8 6 3 g   ",
"& | D m e.f.s.u.y.q.h.s.4 1 a   ",
"$ { B v h s a t q 0 4.P 2 < t   ",
"@ _ ^ W U J S Z c z j s a t q   ",
"+ O o X .                       "
};
