/* XPM */
static char *sd[] = {
/* columns rows colors chars-per-pixel */
"16 11 136 2",
"   c black",
".  c #0B0B0B",
"X  c #0F0F0E",
"o  c #131313",
"O  c #181919",
"+  c #1E1E1E",
"@  c #003D00",
"#  c #232323",
"$  c gray16",
"%  c #2C2C2C",
"&  c gray18",
"*  c #2F2F2F",
"=  c #323232",
"-  c #343434",
";  c #353535",
":  c #393939",
">  c #3A3A3A",
",  c gray24",
"<  c #195F00",
"1  c #006D00",
"2  c #007900",
"3  c #007B00",
"4  c #007F00",
"5  c #3F463F",
"6  c gray26",
"7  c #464646",
"8  c #4B4B4B",
"9  c #505050",
"0  c #545455",
"q  c #585858",
"w  c #5D615D",
"e  c #E90000",
"r  c #EB0000",
"t  c #ED0000",
"y  c #EF0000",
"u  c #F10000",
"i  c #F30000",
"p  c #F50000",
"a  c #F70000",
"s  c #F90000",
"d  c #FB0000",
"f  c #FD0000",
"g  c red",
"h  c #F62C2C",
"j  c #F73131",
"k  c #F83737",
"l  c #F93C3D",
"z  c #FA4242",
"x  c #FB4747",
"c  c #F74949",
"v  c #F74E4E",
"b  c #FC4C4C",
"n  c #F85353",
"m  c #FD5151",
"M  c #F95757",
"N  c #FD5454",
"B  c #FE5959",
"V  c #FA5C5C",
"C  c #FC5E5C",
"Z  c #FB6060",
"A  c #FC6565",
"S  c #FC6969",
"D  c #FD6D6D",
"F  c #FD7071",
"G  c #FE7474",
"H  c #FE7777",
"J  c #FE7979",
"K  c #FC7D7B",
"L  c #008300",
"P  c #008700",
"I  c #008B00",
"U  c #008F00",
"Y  c #539F53",
"T  c #49B549",
"R  c #49B649",
"E  c #4BB44B",
"W  c #4FB74F",
"Q  c #54A154",
"!  c #5CA95C",
"~  c #53B953",
"^  c #54BC54",
"/  c #58BC58",
"(  c #6EAC6F",
")  c #70AF6B",
"_  c #62B162",
"`  c #68B068",
"'  c #78B271",
"]  c #5CC25C",
"[  c #66C266",
"{  c #6AC36A",
"}  c #6FC46F",
"|  c #72C673",
" . c #76C876",
".. c #79C979",
"X. c #7BCF7A",
"o. c #90BF8A",
"O. c gray74",
"+. c #CBCBCB",
"@. c #CDCDCD",
"#. c gray81",
"$. c #E7C7C7",
"%. c #DEF2DE",
"&. c gray88",
"*. c #E1E1E1",
"=. c #E2E2E2",
"-. c gray89",
";. c #E4E4E4",
":. c #E6E6E6",
">. c #E7E7E7",
",. c #E9E9E9",
"<. c #E9EBE9",
"1. c gray92",
"2. c #F5E5E5",
"3. c #F6E6E6",
"4. c #F7E8E7",
"5. c #F6E8E8",
"6. c #F8E9E8",
"7. c #F9EAEA",
"8. c #FAEBEB",
"9. c #FBECEC",
"0. c #FBEFEE",
"q. c #FCEDED",
"w. c #FDEEEF",
"e. c #E0F4E4",
"r. c gray95",
"t. c #F3F3F3",
"y. c #F4F4F4",
"u. c #F4F5F5",
"i. c gray96",
"p. c #F6F6F6",
"a. c gray97",
"s. c #F8F8F8",
"d. c #F9F9F9",
"f. c #F8FAF9",
"g. c gray98",
"h. c #FBFBFB",
/* pixels */
"< g g g g g d g d a a a u u y y ",
"U o.K J J G F D S A Z V M n v e ",
"I X.' C B N m b x z l k j h c e ",
"P ..] ) q.w.q.q.8.7.7.3.3.3.5.$.",
"P  ./ ^ ( %.f.f.f.f.a.u.u.y.u.#.",
"L | ~ W R ! f.s.s.a.u.u.y.t.t.#.",
"4 } W R _ %.f.f.a.a.t.t.t.t.y.+.",
"3 { R Q <.1.<.>.:.;.-.-.-.&.-.O.",
"3 [ Y 5 > - * $ # + O o X . *   ",
"1 ( w q 0 9 8 7 6 , > ; = * %   ",
"@                               "
};
