/* XPM */
static char *si[] = {
/* columns rows colors chars-per-pixel */
"16 11 149 2",
"   c #3F0000",
".  c #850015",
"X  c #DD0000",
"o  c #DF0000",
"O  c #E10000",
"+  c #E30000",
"@  c #E50000",
"#  c #E70000",
"$  c #E90000",
"%  c #EB0000",
"&  c #ED0000",
"*  c #EF0000",
"=  c #F10000",
"-  c #F30000",
";  c #F50000",
":  c #F70000",
">  c #F90000",
",  c #F10B0B",
"<  c #F10F0E",
"1  c #F21313",
"2  c #F31919",
"3  c #F41E1E",
"4  c #F52323",
"5  c #F62929",
"6  c #F22C2C",
"7  c #F22F2F",
"8  c #F72E2E",
"9  c #F23232",
"0  c #F33535",
"q  c #F83434",
"w  c #F43939",
"e  c #F53D3D",
"r  c #F93A3A",
"t  c #FA3F3F",
"y  c #9E1650",
"u  c #A11B53",
"i  c #A31F57",
"p  c #A5255B",
"a  c #A8295F",
"s  c #AB2F63",
"d  c #AE3468",
"f  c #AC3769",
"g  c #B0396C",
"h  c #B33F70",
"j  c #B54474",
"k  c #B84A78",
"l  c #BA4E7C",
"z  c #F64242",
"x  c #F74646",
"c  c #FA4444",
"v  c #F74B4B",
"b  c #F85050",
"n  c #F95455",
"m  c #F95858",
"M  c #FA5D5D",
"N  c #FB6162",
"B  c #FC6666",
"V  c #000081",
"C  c #000083",
"Z  c #000085",
"A  c #000097",
"S  c #0000B5",
"D  c #0000B7",
"F  c #0000B9",
"G  c #0311C3",
"H  c #1426C3",
"J  c #1A28C1",
"K  c #1F2EC3",
"L  c #192BC6",
"P  c #1F30C7",
"I  c #202CC1",
"U  c #2531C4",
"Y  c #2533C5",
"T  c #2B37C6",
"R  c #2A38C7",
"E  c #2435CA",
"W  c #2A3ACB",
"Q  c #303CC8",
"!  c #303DC9",
"~  c #2F40CD",
"^  c #3641CA",
"/  c #3643CB",
"(  c #3645CB",
")  c #3544CF",
"_  c #3B47C9",
"`  c #3B47CC",
"'  c #3F4AC9",
"]  c #3B48CD",
"[  c #3B49D0",
"{  c #414CCE",
"}  c #404ECF",
"|  c #4B50CD",
" . c #4F58CE",
".. c #404ED2",
"X. c #464FD0",
"o. c #454FD3",
"O. c #4650D0",
"+. c #4954D5",
"@. c #4F5CD7",
"#. c #535CD0",
"$. c #5861D2",
"%. c #5D65D4",
"&. c #787ACE",
"*. c #6169D6",
"=. c #676FD5",
"-. c #666DD7",
";. c #6A72D9",
":. c #6E76DB",
">. c #6F7ADF",
",. c #757CD1",
"<. c #7077DB",
"1. c #727CDD",
"2. c #767DDD",
"3. c #A65F9A",
"4. c #AA649D",
"5. c #9659A3",
"6. c #C86F94",
"7. c #7C83DE",
"8. c #F3AFB5",
"9. c #F4B2B9",
"0. c #868CE1",
"q. c #8D92E2",
"w. c #9399E5",
"e. c #E1E3E3",
"r. c gray90",
"t. c #E7E7E7",
"y. c #E9E9E9",
"u. c gray92",
"i. c gray93",
"p. c #EFEFEF",
"a. c #E0E0F4",
"s. c #F1EEF6",
"d. c #F1F1F1",
"f. c #F3F3F3",
"g. c gray96",
"h. c #F6F6F6",
"j. c gray97",
"k. c #F6F7FB",
"l. c #F6F6FC",
"z. c #F8F8F8",
"x. c #F9F9F9",
"c. c gray98",
"v. c #FBFBFB",
"b. c #FDFBFB",
"n. c gray99",
"m. c #FDFDFD",
"M. c #FDFDFE",
"N. c #FEFEFF",
"B. c gray100",
/* pixels */
"g.g.g.g.f.f.f.f.i.i.i.u.u.u.r.e.",
"g.B.B.l.k.B.B.b.v.B.n.v.z.g.g.u.",
"g.B.q.,.&.b.B.n.v.v.z.g.z.g.g.u.",
"G w.0.a.7.:.:.;.-.*.%.$.#. .-.A ",
"D 2.9.s.8.| O.{ ' ^ W T U I ' V ",
"D 1.5.4.3.X...` / ! T Y K J _ V ",
"D >.@.+.X.[ [ ) W W E K L H ( Z ",
". 6.l k j h g g s s p p u y f   ",
"> B c t r q 8 5 4 3 2 1 < , 7 o ",
": N M m n b v x z e w 0 9 7 6 o ",
": = = & & & $ $ $ @ + + o X X X "
};
