/* XPM */
static char *sk[] = {
/* columns rows colors chars-per-pixel */
"16 11 152 2",
"   c #8D0000",
".  c #BF0000",
"X  c #DD0000",
"o  c #DF0000",
"O  c #E10000",
"+  c #E30000",
"@  c #E50000",
"#  c #E70000",
"$  c #E90000",
"%  c #EB0000",
"&  c #ED0000",
"*  c #EF0000",
"=  c #F10000",
"-  c #F30000",
";  c #F50000",
":  c #F70000",
">  c #F90000",
",  c #F10B0B",
"<  c #F10F0E",
"1  c #F21313",
"2  c #F31919",
"3  c #F41E1E",
"4  c #C7233F",
"5  c #F52323",
"6  c #F62929",
"7  c #F22C2C",
"8  c #F22F2F",
"9  c #F72E2E",
"0  c #F23232",
"q  c #F33535",
"w  c #F43939",
"e  c #F53D3D",
"r  c #C92843",
"t  c #CA2C48",
"y  c #CC314B",
"u  c #CE3650",
"i  c #D03B55",
"p  c #CE435B",
"a  c #D24059",
"s  c #F64242",
"d  c #F74646",
"f  c #FA4444",
"g  c #F74B4B",
"h  c #F85050",
"j  c #F95455",
"k  c #F7585B",
"l  c #F95858",
"z  c #F95A5A",
"x  c #FA5A5B",
"c  c #FA5D5D",
"v  c #FB6162",
"b  c #FE6361",
"n  c #FC6560",
"m  c #FC6666",
"M  c #EF6972",
"N  c #F16C74",
"B  c #FA7472",
"V  c #F3747C",
"C  c #F17B7F",
"Z  c #00009D",
"A  c #0000A3",
"S  c #0003B5",
"D  c #001FC9",
"F  c #001FCF",
"G  c #0323C9",
"H  c #3E57CF",
"J  c #3855D2",
"K  c #3C59D4",
"L  c #3F59D9",
"P  c #425ACF",
"I  c #435AD1",
"U  c #405DD6",
"Y  c #485ED1",
"T  c #485ED2",
"R  c #4561D7",
"E  c #4C63D3",
"W  c #4D63D4",
"Q  c #4A65D8",
"!  c #4D69DB",
"~  c #5166D4",
"^  c #5167D6",
"/  c #566AD6",
"(  c #5B6FD5",
")  c #526CD9",
"_  c #546ED8",
"`  c #566EDA",
"'  c #5E71D5",
"]  c #5973DD",
"[  c #6B6ECE",
"{  c #6B75D5",
"}  c #6076DD",
"|  c #7078D4",
" . c #7D7ED2",
".. c #E1778A",
"X. c #E17F8E",
"o. c #8675C3",
"O. c #7687DB",
"+. c #7A8ADD",
"@. c #7E8EDF",
"#. c #FD8584",
"$. c #FB8986",
"%. c #F48B8F",
"&. c #E68694",
"*. c #F48B91",
"=. c #F58F94",
"-. c #F69096",
";. c #F69EA2",
":. c #F0ADB3",
">. c #8997DF",
",. c #8291E0",
"<. c #8594E2",
"1. c #8898E4",
"2. c #8298E9",
"3. c #8399EB",
"4. c #849BEC",
"5. c #909AE1",
"6. c #ACB7EE",
"7. c #E0B3C3",
"8. c #D7C2D9",
"9. c #D2C1DD",
"0. c #DDC5D8",
"q. c #FDCDCC",
"w. c #E7DDDF",
"e. c #FCDEDE",
"r. c #FDDEDE",
"t. c #EBE1E3",
"y. c #EDE3E5",
"u. c #EFE5E5",
"i. c #FCE2E1",
"p. c #F1E7E9",
"a. c #F3E9EB",
"s. c #F5EBED",
"d. c #F5EDEF",
"f. c #F7EFEF",
"g. c #FDEDEC",
"h. c #F9EFF1",
"j. c #F6F6F6",
"k. c gray97",
"l. c #FBF1F3",
"z. c #FBF3F3",
"x. c #FDF3F3",
"c. c #FDF5F5",
"v. c #FDF5F7",
"b. c #F8F8F8",
"n. c #F9F9F9",
"m. c gray98",
"M. c #FBFBFB",
"N. c gray99",
"B. c #FDFDFD",
"V. c #FDFDFE",
"C. c #FEFEFE",
"Z. c gray100",
/* pixels */
"v.v.c.c.c.c.z.l.f.f.d.s.a.p.u.y.",
"v.Z.Z.Z.B.B.B.B.N.B.m.m.m.b.k.t.",
"v.Z.;.=.-.%.%.c.N.b.b.b.k.k.k.w.",
"K 6.V b r.#.z 5.1.>.,.@.+.O.>.S ",
"G 4.N q.g.i.k O._ / ~ E Y P ( Z ",
"D 4.M n e.$.l | _ ~ W T I H ( Z ",
"F @.9. .{ [ 7.] ! Q R U K J _ A ",
"X ..&.9.' 8.&.a i u y t r 4 p   ",
"> m f B :...9 6 5 3 2 1 < , 8 X ",
"; v c z j h g d s e w q 0 8 7 X ",
"; - - - ; & & $ $ @ + + X X X X "
};
