/* XPM */
static char *sl[] = {
/* columns rows colors chars-per-pixel */
"16 11 137 2",
"   c #000079",
".  c #00007B",
"X  c #00007D",
"o  c #00007F",
"O  c #009B00",
"+  c #009F00",
"@  c #00A300",
"#  c #00A700",
"$  c #00AB00",
"%  c #00AF00",
"&  c #00B100",
"*  c #00B300",
"=  c #00B500",
"-  c #00B700",
";  c #00B900",
":  c #00BD00",
">  c #00C100",
",  c #00C300",
"<  c #38D038",
"1  c #3DD23D",
"2  c #3DD93D",
"3  c #42D442",
"4  c #48D648",
"5  c #4DD74D",
"6  c #53D753",
"7  c #52D952",
"8  c #57DB57",
"9  c #58D858",
"0  c #5BDC5B",
"q  c #5CDA5C",
"w  c #5EDE5E",
"e  c #61DB60",
"r  c #62DE62",
"t  c #65DD65",
"y  c #6ADD6A",
"u  c #6DDB6D",
"i  c #6EDF6E",
"p  c #71DC71",
"a  c #76DE75",
"s  c #79DF79",
"d  c #66E066",
"f  c #68E169",
"g  c #72E172",
"h  c #75E275",
"j  c #79E37A",
"k  c #7BE37B",
"l  c #7DE17D",
"z  c #7FE57F",
"x  c #000083",
"c  c #000087",
"v  c #000089",
"b  c #00008D",
"n  c #000091",
"m  c #000095",
"M  c #000099",
"N  c #00009D",
"B  c #0000A1",
"V  c #0000A5",
"C  c #0000A7",
"Z  c #0000A9",
"A  c #0000AB",
"S  c #0000AF",
"D  c #0B0BBF",
"F  c #0F0FC1",
"G  c #1313C3",
"H  c #1819C5",
"J  c #1E1EC7",
"K  c #2323C8",
"L  c #2929CA",
"P  c #2C2CC8",
"I  c #2F2FC8",
"U  c #2E2ECC",
"Y  c #3232C9",
"T  c #3535CB",
"R  c #3434CE",
"E  c #3939CD",
"W  c #3D3DCE",
"Q  c #2D2DD1",
"!  c #3A3AD0",
"~  c #3F3FD2",
"^  c #4242CF",
"/  c #4646D1",
"(  c #4444D4",
")  c #4B4BD3",
"_  c #5050D4",
"`  c #5454D6",
"'  c #5858D8",
"]  c #5D5DD9",
"[  c #6363D5",
"{  c #6666D6",
"}  c #6A6AD7",
"|  c #6161DB",
" . c #6666DD",
".. c #6E6ED9",
"X. c #7171DB",
"o. c #7575DD",
"O. c #7A7ADB",
"+. c #7978DE",
"@. c #7C7CE0",
"#. c #82DF81",
"$. c #81E281",
"%. c #80E680",
"&. c #83E683",
"*. c #85E485",
"=. c #88E588",
"-. c #8CE68C",
";. c #8EE88E",
":. c #91E891",
">. c #94E994",
",. c #A7EDA7",
"<. c #8080E1",
"1. c #8484E3",
"2. c #8888E4",
"3. c #8B8BE6",
"4. c #A0A0EA",
"5. c #D3D3DF",
"6. c #D5D5E1",
"7. c #D7D7E3",
"8. c gray95",
"9. c #F3F3F3",
"0. c #F4F4F4",
"q. c #F4F5F5",
"w. c gray96",
"e. c #F6F6F6",
"r. c gray97",
"t. c #F1F1F9",
"y. c #F3F3FB",
"u. c #F5F5FB",
"i. c #F8F8F8",
"p. c #F9F9F9",
"a. c gray98",
"s. c #FBFBFB",
"d. c #FBFCFB",
"f. c gray99",
"g. c #FDFCFD",
"h. c #FDFDFD",
"j. c #FEFEFE",
/* pixels */
", , , , , , : : - - & & % $ # @ ",
", &.&.&.z k k h g i y t e q 9 + ",
", &.d d r w 0 8 7 5 4 3 1 < 6 O ",
"2 ,.>.:.-.-.=.&.&.s s a p u #.- ",
"u.j.d.d.j.d.s.s.i.i.u.w.w.w.w.7.",
"y.j.d.g.d.g.s.p.i.i.w.w.w.9.0.6.",
"y.g.g.g.g.s.s.s.i.w.w.9.9.9.0.5.",
"U 4.3.2.1.@.+.+.o.X...} { [ O.C ",
"S  .( ~ E R U L K J H G G D I   ",
"A | ] ' ` _ ) / ^ W E T Y I P   ",
"A C B N M m n b v c x o o       "
};
