/* XPM */
static char *sr[] = {
/* columns rows colors chars-per-pixel */
"16 11 160 2",
"   c #002700",
".  c #002B00",
"X  c #002D00",
"o  c #003100",
"O  c #003300",
"+  c #003700",
"@  c #003D00",
"#  c #003F00",
"$  c #004500",
"%  c #004B00",
"&  c #004F00",
"*  c #005100",
"=  c #005500",
"-  c #005B00",
";  c #005F00",
":  c #006100",
">  c #006500",
",  c #006B00",
"<  c #006F00",
"1  c #007300",
"2  c #007500",
"3  c #007700",
"4  c #007D00",
"5  c #DF0000",
"6  c #E30000",
"7  c #E50000",
"8  c #E70000",
"9  c #FB0000",
"0  c #FD0000",
"q  c red",
"w  c #F21414",
"e  c #F31919",
"r  c #F31A1A",
"t  c #F41F1F",
"y  c #F42020",
"u  c #F52424",
"i  c #F52525",
"p  c #F22A2B",
"a  c #F62B2B",
"s  c #F62D2B",
"d  c #F22E30",
"f  c #F73030",
"g  c #F33335",
"h  c #F43636",
"j  c #F43739",
"k  c #F43B3B",
"l  c #F53F3F",
"z  c #F5433E",
"x  c #F77C30",
"c  c #F54243",
"v  c #FA4040",
"b  c #FB4545",
"n  c #FB4746",
"m  c #F64843",
"M  c #F64648",
"N  c #F3494B",
"B  c #F74D49",
"V  c #F74C4D",
"C  c #FB4A49",
"Z  c #FC4A4B",
"A  c #FC4B4B",
"S  c #FC4F4F",
"D  c #F8514D",
"F  c #FD4F50",
"G  c #F95052",
"H  c #F85152",
"J  c #FD5353",
"K  c #F95557",
"L  c #FA5656",
"P  c #FD5454",
"I  c #F65C5D",
"U  c #FB5A5B",
"Y  c #FE5858",
"T  c #FB5E5F",
"R  c #FC6364",
"E  c #FD6768",
"W  c #FD6B6C",
"Q  c #FD6F6F",
"!  c #FE6E70",
"~  c #FE7173",
"^  c #FE7273",
"/  c #FE7676",
"(  c #FC7C7D",
")  c #008100",
"_  c #008300",
"`  c #008500",
"'  c #008700",
"]  c #008900",
"[  c #008F00",
"{  c #30A531",
"}  c #33A734",
"|  c #35A837",
" . c #39AA3B",
".. c #3DAD3F",
"X. c #41AE42",
"o. c #45B046",
"O. c #4AB34B",
"+. c #4EB550",
"@. c #50B650",
"#. c #53B854",
"$. c #54B855",
"%. c #57B959",
"&. c #59BA5A",
"*. c #5BBC5D",
"=. c #5EBD5E",
"-. c #60BE62",
";. c #62BE63",
":. c #65C066",
">. c #66C167",
",. c #6AC36B",
"<. c #6FC46E",
"1. c #71C672",
"2. c #75C875",
"3. c #78C879",
"4. c #7ACA7A",
"5. c #7CCB7D",
"6. c #F7B52F",
"7. c #F8B735",
"8. c #F6C22A",
"9. c #F8C736",
"0. c #F9C83A",
"q. c #F9D73C",
"w. c #F8F336",
"e. c #F9F23B",
"r. c #FA8240",
"t. c #FAAA4F",
"y. c #FBAD54",
"u. c #FBCD46",
"i. c #FAD841",
"p. c #FE8A8C",
"a. c #C9D9CB",
"s. c #D3E5D5",
"d. c #E6EEE7",
"f. c #E6EFE7",
"g. c #E8EFE9",
"h. c #E9EFEA",
"j. c #E9F0EA",
"k. c #EAF1EB",
"l. c #EBF5EB",
"z. c #ECF1EC",
"x. c #EDF2ED",
"c. c #EDF9F1",
"v. c #F1F5F2",
"b. c #F2F6F3",
"n. c #F2F7F3",
"m. c #F4F7F4",
"M. c #F3F8F4",
"N. c #F5F8F5",
"B. c #F4F9F5",
"V. c #F5F9F6",
"C. c #F6F9F6",
"Z. c #F6FAF7",
"A. c #F7FBF8",
"S. c #F8FBF8",
"D. c #F8FBF9",
"F. c #F9FCF9",
"G. c #F9FCFA",
"H. c #F9FDFA",
"J. c #FAFDFB",
"K. c #FBFEFC",
/* pixels */
"[ ' ' ' ' ) ) 4 3 1 < , > ; - ; ",
"] 5.5.4.3.2.1.<.,.>.;.=.&.$.+.* ",
"c.K.J.J.A.J.A.A.A.m.m.b.b.b.b.s.",
"q p.~ Q W E R y.y.K J V M c I 8 ",
"q / Y P F C u.i.q.9.d a i y l 8 ",
"9 ~ J S A n r.e.w.x s i t r k 8 ",
"q Q S C n v 0.7.7.8.i t r w h 6 ",
"9 ( T U P H D B m z j h p p N 5 ",
"l.G.A.m.C.C.b.x.z.k.h.g.f.f.h.a.",
"3 ;.;.*.%.$.O.O.X.X.X. .| } { X ",
"1 > > - = & % $ # # + o X .   o "
};
