/* XPM */
/* Copyright (c) 2017 Sebastiano Pistore SebastianoPistore.info@protonmail.ch */
/* This program is free software; you can redistribute it and/or modify */
/* it under the terms of the GNU General Public License as published by */
/* the Free Software Foundation; either version 2 of the License, or */
/* (at your option) any later version. */
static const char *sx[] = {
/* width height num_colors chars_per_pixel */
"    16    11      256            2",
/* colors */
"`` c #eea2a4",
"`. c #a0373b",
"`# c #c62127",
"`a c #da1820",
"`b c #dc171e",
"`c c #de171e",
"`d c #ffeded",
"`e c #ffc1c0",
"`f c #c83e3e",
"`g c #ca2021",
"`h c #d41b20",
"`i c #db1921",
"`j c #fff7f3",
"`k c #fff2ec",
"`l c #ffdacc",
"`m c #d95f54",
"`n c #c32323",
"`o c #d41b21",
"`p c #d9171f",
"`q c #fff5f3",
"`r c #d4c1bb",
"`s c #b28a80",
"`t c #eba59d",
"`u c #ee7a7a",
"`v c #bd282c",
"`w c #c61f27",
"`x c #d01c27",
"`y c #d11b27",
"`z c #fdf7f9",
"`A c #908b8f",
"`B c #9b989f",
"`C c #a49197",
"`D c #ffd0cf",
"`E c #ffb6b6",
"`F c #b33b45",
"`G c #b52737",
"`H c #b92438",
"`I c #bc2338",
"`J c #bc223a",
"`K c #eae2d7",
"`L c #959289",
"`M c #b0b4b5",
"`N c #a2a3a5",
"`O c #d3c5c2",
"`P c #fff3f7",
"`Q c #fdbdd7",
"`R c #742248",
"`S c #791e49",
"`T c #7a1d49",
"`U c #7c1d49",
"`V c #e8d7ac",
"`W c #a6946c",
"`X c #ae9f7e",
"`Y c #a29680",
"`Z c #cac3bb",
"`0 c #c4c1d2",
"`1 c #35356b",
"`2 c #211f6a",
"`3 c #211e6b",
"`4 c #221e6b",
"`5 c #221e6a",
"`6 c #fff4c9",
"`7 c #ecdcb8",
"`8 c #e7d9bf",
".` c #e0d9cf",
".. c #7d8592",
".# c #162c55",
".a c #082a74",
".b c #022986",
".c c #012a86",
".d c #012988",
".e c #012a84",
".f c #fffff3",
".g c #fffeff",
".h c #e9f1ff",
".i c #576893",
".j c #0d2a66",
".k c #042981",
".l c #f8ffff",
".m c #c9d7f4",
".n c #2c457d",
".o c #092972",
".p c #99aedd",
".q c #173068",
".r c #022984",
".s c #002985",
".t c #000000",
".u c #000000",
".v c #000000",
".w c #000000",
".x c #000000",
".y c #000000",
".z c #000000",
".A c #000000",
".B c #000000",
".C c #000000",
".D c #000000",
".E c #000000",
".F c #000000",
".G c #000000",
".H c #000000",
".I c #000000",
".J c #000000",
".K c #000000",
".L c #000000",
".M c #000000",
".N c #000000",
".O c #000000",
".P c #000000",
".Q c #000000",
".R c #000000",
".S c #000000",
".T c #000000",
".U c #000000",
".V c #000000",
".W c #000000",
".X c #000000",
".Y c #000000",
".Z c #000000",
".0 c #000000",
".1 c #000000",
".2 c #000000",
".3 c #000000",
".4 c #000000",
".5 c #000000",
".6 c #000000",
".7 c #000000",
".8 c #000000",
"#` c #000000",
"#. c #000000",
"## c #000000",
"#a c #000000",
"#b c #000000",
"#c c #000000",
"#d c #000000",
"#e c #000000",
"#f c #000000",
"#g c #000000",
"#h c #000000",
"#i c #000000",
"#j c #000000",
"#k c #000000",
"#l c #000000",
"#m c #000000",
"#n c #000000",
"#o c #000000",
"#p c #000000",
"#q c #000000",
"#r c #000000",
"#s c #000000",
"#t c #000000",
"#u c #000000",
"#v c #000000",
"#w c #000000",
"#x c #000000",
"#y c #000000",
"#z c #000000",
"#A c #000000",
"#B c #000000",
"#C c #000000",
"#D c #000000",
"#E c #000000",
"#F c #000000",
"#G c #000000",
"#H c #000000",
"#I c #000000",
"#J c #000000",
"#K c #000000",
"#L c #000000",
"#M c #000000",
"#N c #000000",
"#O c #000000",
"#P c #000000",
"#Q c #000000",
"#R c #000000",
"#S c #000000",
"#T c #000000",
"#U c #000000",
"#V c #000000",
"#W c #000000",
"#X c #000000",
"#Y c #000000",
"#Z c #000000",
"#0 c #000000",
"#1 c #000000",
"#2 c #000000",
"#3 c #000000",
"#4 c #000000",
"#5 c #000000",
"#6 c #000000",
"#7 c #000000",
"#8 c #000000",
"a` c #000000",
"a. c #000000",
"a# c #000000",
"aa c #000000",
"ab c #000000",
"ac c #000000",
"ad c #000000",
"ae c #000000",
"af c #000000",
"ag c #000000",
"ah c #000000",
"ai c #000000",
"aj c #000000",
"ak c #000000",
"al c #000000",
"am c #000000",
"an c #000000",
"ao c #000000",
"ap c #000000",
"aq c #000000",
"ar c #000000",
"as c #000000",
"at c #000000",
"au c #000000",
"av c #000000",
"aw c #000000",
"ax c #000000",
"ay c #000000",
"az c #000000",
"aA c #000000",
"aB c #000000",
"aC c #000000",
"aD c #000000",
"aE c #000000",
"aF c #000000",
"aG c #000000",
"aH c #000000",
"aI c #000000",
"aJ c #000000",
"aK c #000000",
"aL c #000000",
"aM c #000000",
"aN c #000000",
"aO c #000000",
"aP c #000000",
"aQ c #000000",
"aR c #000000",
"aS c #000000",
"aT c #000000",
"aU c #000000",
"aV c #000000",
"aW c #000000",
"aX c #000000",
"aY c #000000",
"aZ c #000000",
"a0 c #000000",
"a1 c #000000",
"a2 c #000000",
"a3 c #000000",
"a4 c #000000",
"a5 c #000000",
"a6 c #000000",
"a7 c #000000",
"a8 c #000000",
/* pixels */
"```.`#`a`b`b`c`c`b`b`c`c`b`b`b`b",
"`d`e`f`g`h`i`b`c`b`b`c`c`b`b`b`b",
"`j`k`l`m`n`o`p`b`b`b`b`b`b`b`b`b",
"`q`r`s`t`u`v`w`x`y`y`y`y`y`y`y`y",
"`z`A`B`C`D`E`F`G`H`I`J`J`I`I`J`J",
"`K`L`M`N`O`P`Q`R`S`T`U`U`T`T`U`U",
"`V`W`X`Y`Z`0`1`2`3`4`4`5`5`5`5`5",
"`6`7`8.`...#.a.b.c.d.c.c.c.c.c.e",
".f.g.h.i.j.a.k.c.b.b.c.c.c.c.c.c",
".l.m.n.o.k.c.c.c.b.b.c.c.c.c.d.d",
".p.q.a.k.r.c.c.s.c.c.c.c.c.c.c.c"
};
