/* XPM */
static char *sz[] = {
/* columns rows colors chars-per-pixel */
"16 11 168 2",
"   c #350000",
".  c #390000",
"X  c #3F0000",
"o  c #372F2F",
"O  c #3F3838",
"+  c #4F0000",
"@  c #7D0000",
"#  c #7F0000",
"$  c #4E3434",
"%  c #7A2020",
"&  c #003D77",
"*  c #474040",
"=  c #4B4343",
"-  c #4C4545",
";  c #564B4B",
":  c #534C4B",
">  c #564F4F",
",  c #545153",
"<  c #585051",
"1  c #666162",
"2  c #810000",
"3  c #850000",
"4  c #870000",
"5  c #961717",
"6  c #9A1514",
"7  c #9A1919",
"8  c #933A3A",
"9  c #A22626",
"0  c #AA2D2B",
"q  c #A83232",
"w  c #AD3231",
"e  c #AC3533",
"r  c #AD3835",
"t  c #A73A3A",
"y  c #AE3F3F",
"u  c #B73F3F",
"i  c #B24A3D",
"p  c #D14500",
"a  c #DD6100",
"s  c #9A4546",
"d  c #B34444",
"f  c #B04B4C",
"g  c #B44C4C",
"h  c #BC534C",
"j  c #A25151",
"k  c #BE5959",
"l  c #BF5D58",
"z  c #BF5C5C",
"x  c #C25854",
"c  c #C57272",
"v  c #C77676",
"b  c #C87673",
"n  c #C87675",
"m  c #CC7979",
"M  c #F18900",
"N  c #F59903",
"B  c #E9A336",
"V  c #EAA638",
"C  c #EBA93C",
"Z  c #BA8042",
"A  c #D48C4B",
"S  c #C18952",
"D  c #D4985F",
"F  c #EDAB40",
"G  c #EDAD46",
"H  c #EEB04C",
"J  c #EEB24F",
"K  c #EDB253",
"L  c #F0B554",
"P  c #F1B554",
"I  c #F2B758",
"U  c #F3B759",
"Y  c #F3BA5C",
"T  c #F3BA5D",
"R  c #E39B63",
"E  c #DDA571",
"W  c #DAAB78",
"Q  c #F4BB61",
"!  c #F4BC62",
"~  c #F5BE66",
"^  c #F5BF66",
"/  c #F2BE6B",
"(  c #F5C16B",
")  c #F6C26F",
"_  c #F7C472",
"`  c #F8C676",
"'  c #F9C879",
"]  c #F9C97C",
"[  c #FACB7E",
"{  c #002789",
"}  c #002B8B",
"|  c #002D8D",
" . c #00338D",
".. c #003191",
"X. c #003793",
"o. c #003D95",
"O. c #003F99",
"+. c #00459D",
"@. c #0B5D97",
"#. c #004BA1",
"$. c #014FA5",
"%. c #0755A7",
"&. c #0F5BAB",
"*. c #175FAD",
"=. c #1761AF",
"-. c #1D65B1",
";. c #377FAB",
":. c #236BB5",
">. c #2B6FB9",
",. c #3173B9",
"<. c #3173BB",
"1. c #3777BF",
"2. c #3B7DC1",
"3. c #837290",
"4. c #5393BD",
"5. c #798DB5",
"6. c #3F81C3",
"7. c #4583C5",
"8. c #4985C5",
"9. c #4B87C7",
"0. c #558FCB",
"q. c #8F8B89",
"w. c #A29A97",
"e. c #A39C99",
"r. c #A19DB6",
"t. c #C7AEAF",
"y. c #C1BDBA",
"u. c #CABEBC",
"i. c #E4B6B2",
"p. c #F7CB82",
"a. c #FBD494",
"s. c #C5C1BE",
"d. c #DFC1B6",
"f. c #EAC2BC",
"g. c #83ACC4",
"h. c #84ADC5",
"j. c #86AEC7",
"k. c #9BA8C7",
"l. c #89B0C8",
"z. c #8CB2C9",
"x. c #8EB3CA",
"c. c #90B3CA",
"v. c #96B9CF",
"b. c #98BBD1",
"n. c #98BBD3",
"m. c #99BDD2",
"M. c #9DBFD3",
"N. c #9BBDD5",
"B. c #9EBFD7",
"V. c #9FC1D5",
"C. c #A3C3D7",
"Z. c #A1C1D8",
"A. c #A4C3DA",
"S. c #A5C5D8",
"D. c #A6C4DA",
"F. c #A8C4DA",
"G. c #ABC8DD",
"H. c #AECBDF",
"J. c #AFCCE0",
"K. c #B1CDE1",
"L. c #B3CEE2",
"P. c #B3CFE2",
"I. c #CCC8C5",
"U. c #DFCEC8",
"Y. c #DFCFCB",
"T. c #E3E0DE",
"R. c #F2E9E5",
"E. c #F6EDE9",
/* pixels */
"0.9.9.9.8.7.2.2.2.>.>.:.-.*.*.*.",
"4.P.P.P.K.J.J.G.F.F.D.Z.B.N.n.@.",
"N a.[ [ ' ` ` / / ^ ~ T I K / a ",
"4 n z k x j , : E.f.h w 0 9 d + ",
"4 v x R D , , - I.R.Y.A U.% d X ",
"2 n E W ; e.w.* y.1 q.d.Z Z f . ",
"@ n r.k.s = * $ s.T.t.e 3.5.t   ",
"@ c g f i 8 $ o s.i.r 7 6 5 q   ",
"M p.~ Q T P P J H G F C V B K p ",
";.S.C.V.V.m.n.v.c.c.z.z.j.j.g.& ",
",.-.=.&.%.$.#.+.o.o.X...| } {  ."
};
