/* XPM */
static char *tg[] = {
/* columns rows colors chars-per-pixel */
"16 11 155 2",
"   c #002700",
".  c #002900",
"X  c #002B00",
"o  c #002D00",
"O  c #002F00",
"+  c #003100",
"@  c #003300",
"#  c #003700",
"$  c #003D00",
"%  c #003F00",
"&  c #004500",
"*  c #004B00",
"=  c #004D00",
"-  c #004F00",
";  c #005100",
":  c #005500",
">  c #005B00",
",  c #005F00",
"<  c #006100",
"1  c #006500",
"2  c #006B00",
"3  c #006F00",
"4  c #007100",
"5  c #007300",
"6  c #007700",
"7  c #FD0000",
"8  c red",
"9  c #AB7D00",
"0  c #F94646",
"q  c #FB4646",
"w  c #FA4B4B",
"e  c #FC4B4B",
"r  c #FB5050",
"t  c #FB5151",
"y  c #FB5554",
"u  c #FC5555",
"i  c #FC5656",
"p  c #FC5959",
"a  c #FD5B5B",
"s  c #FD5E5E",
"d  c #FE7172",
"f  c #FD7777",
"g  c #FE7676",
"h  c #FE7777",
"j  c #FD797A",
"k  c #FE7B7B",
"l  c #FF7B7B",
"z  c #FE7D7D",
"x  c #FE7E7E",
"c  c #008700",
"v  c #1A971A",
"b  c #1F9A1F",
"n  c #259D25",
"m  c #2AA02B",
"M  c #30A32C",
"N  c #33A42F",
"B  c #30A330",
"V  c #35A632",
"C  c #36A636",
"Z  c #39A835",
"A  c #3BA63B",
"S  c #3DAA39",
"D  c #3BB13B",
"F  c #4BA314",
"G  c #4FA519",
"H  c #54A81F",
"J  c #5BA920",
"K  c #58AB24",
"L  c #5FAC25",
"P  c #5DAD2A",
"I  c #41AD3D",
"U  c #55B035",
"Y  c #63AE2B",
"T  c #61B02F",
"R  c #67B130",
"E  c #65B036",
"W  c #6BB436",
"Q  c #6FB63C",
"!  c #72B53F",
"~  c #45AE42",
"^  c #4AB046",
"/  c #4EB34B",
"(  c #50B44E",
")  c #53B550",
"_  c #54B753",
"`  c #57B855",
"'  c #59B957",
"]  c #5BBA58",
"[  c #5EBB5C",
"{  c #74BE41",
"}  c #60BC5D",
"|  c #62BE60",
" . c #65BE62",
".. c #66C065",
"X. c #6AC269",
"o. c #6FC96D",
"O. c #DF8D00",
"+. c #D59700",
"@. c #E79D00",
"#. c #D3B100",
"$. c #D6BE0B",
"%. c #D7C00E",
"&. c #D9C213",
"*. c #DAC419",
"=. c #DCC61E",
"-. c #FBC500",
";. c #F2C710",
":. c #F2C914",
">. c #F3CA19",
",. c #F4CC1F",
"<. c #DDC723",
"1. c #DFCA29",
"2. c #DCC82F",
"3. c #E1CC2E",
"4. c #EBCE2C",
"5. c #F5CE24",
"6. c #F5CF26",
"7. c #F6D02A",
"8. c #F6D12B",
"9. c #F7D22F",
"0. c #E2CE34",
"q. c #E4CF3A",
"w. c #F3CE32",
"e. c #EDD031",
"r. c #EED237",
"t. c #E4D13F",
"y. c #EFD43D",
"u. c #F7D331",
"i. c #F8D534",
"p. c #F8D536",
"a. c #F9D63C",
"s. c #F9D93A",
"d. c #FADA3F",
"f. c #E6D344",
"g. c #EDD549",
"h. c #EDDA4C",
"j. c #F0D542",
"k. c #F1D747",
"l. c #F6D644",
"z. c #FAD842",
"x. c #FBDC45",
"c. c #FBDD49",
"v. c #FBE347",
"b. c #EBDC66",
"n. c #FCE46A",
"m. c #FF8383",
"M. c #FE8787",
"N. c #FE9B9B",
"B. c #FDB3B4",
"V. c #FEB7B7",
"C. c #FED0D0",
"Z. c #FEDADA",
"A. c #FDDEDE",
"S. c #FDE4E4",
"D. c #FEFEFE",
/* pixels */
"8 8 8 8 8 7 7 c 6 5 4 2 1 < > , ",
"8 l l x f k j o.X...} [ ' _ ( = ",
"8 m.N.C.d s a h.k.j.y.r.e.4.g.+.",
"8 x Z.D.A.a i v.z.a.p.i.8.6.l.@.",
"8 g V.S.B.w t { Q W R Y L J ! ; ",
"7 M.s p u q w D C B m n b v A O ",
"7 f p y w w q U T P K H G F E & ",
"-.n.c.x.x.s.i.9.7.6.,.>.:.;.w.O.",
"#.b.f.t.q.0.3.3.<.=.*.&.$.$.2.9 ",
"4  .} ] ` ( ( ^ ~ I S Z V V m . ",
"4 1 < > : = * & % % # O O . . @ "
};
