/* XPM */
static char *tm[] = {
/* columns rows colors chars-per-pixel */
"16 11 143 2",
"   c black",
".  c #000700",
"X  c #000F00",
"o  c #001500",
"O  c #001700",
"+  c #001D00",
"@  c #002300",
"#  c #002500",
"$  c #002B00",
"%  c #002D00",
"&  c #002F00",
"*  c #003100",
"=  c #003500",
"-  c #003700",
";  c #003900",
":  c #0B632D",
">  c #0D602D",
",  c #106231",
"<  c #116331",
"1  c #156635",
"2  c #166635",
"3  c #166636",
"4  c #1A693A",
"5  c #1B6A3A",
"6  c #1B6A3B",
"7  c #206D3D",
"8  c #206E3E",
"9  c #216E3F",
"0  c #226E40",
"q  c #257142",
"w  c #267143",
"e  c #267243",
"r  c #277244",
"t  c #277245",
"y  c #287345",
"u  c #2B7447",
"i  c #2C7547",
"p  c #2B7548",
"a  c #2C7548",
"s  c #2C7649",
"d  c #2D764A",
"f  c #2E764A",
"g  c #30764B",
"h  c #30774B",
"j  c #30784C",
"k  c #31784C",
"l  c #317A4D",
"z  c #33794E",
"x  c #337B4F",
"c  c #347A4E",
"v  c #337B50",
"b  c #367B51",
"n  c #367C51",
"m  c #377C51",
"M  c #367D52",
"N  c #397F54",
"B  c #3A7E55",
"V  c #3B7F56",
"C  c #890000",
"Z  c #910000",
"A  c #9F0000",
"S  c #AB0000",
"D  c #AD0000",
"F  c #BB2719",
"G  c #9D6354",
"H  c #956859",
"J  c #B7605E",
"K  c #C55B54",
"L  c #CD6553",
"P  c #C8645E",
"I  c #C9645F",
"U  c #CE695B",
"Y  c #CE6A5C",
"T  c #D16954",
"R  c #C16360",
"E  c #CC6C67",
"W  c #CC6D67",
"Q  c #CF7167",
"!  c #CF7565",
"~  c #CF736D",
"^  c #CF776C",
"/  c #D17164",
"(  c #D27265",
")  c #D4796C",
"_  c #D37F75",
"`  c #3C8056",
"'  c #3C8156",
"]  c #3D8157",
"[  c #3E8157",
"{  c #40825A",
"}  c #42845B",
"|  c #42845C",
" . c #42855C",
".. c #43865D",
"X. c #45865E",
"o. c #478760",
"O. c #478861",
"+. c #488961",
"@. c #488A62",
"#. c #4A8A63",
"$. c #4C8A65",
"%. c #4D8C65",
"&. c #4F8D67",
"*. c #508E69",
"=. c #518F6A",
"-. c #528F6A",
";. c #54906C",
":. c #59946F",
">. c #5B9572",
",. c #5E9674",
"<. c #629978",
"1. c #639A79",
"2. c #649979",
"3. c #649A79",
"4. c #679E7D",
"5. c #DE8A70",
"6. c #D5857E",
"7. c #6CA081",
"8. c #6FA182",
"9. c #6FA282",
"0. c #70A484",
"q. c #74A687",
"w. c #75A789",
"e. c #76A88A",
"r. c #7AAA8D",
"t. c #7CAB8F",
"y. c #7CAC8F",
"u. c #7EAC8F",
"i. c #80AE92",
"p. c #85B095",
"a. c #8EB59E",
"s. c #8FB69E",
"d. c #DD9388",
"f. c #DC918F",
"g. c #DC9A92",
"h. c #E2A199",
"j. c #B5CEBE",
"k. c #BFD4C8",
"l. c #C1D6C9",
"z. c #D3E2DA",
"x. c #D8E5DD",
"c. c #E2EBE5",
"v. c #E4ECE7",
/* pixels */
"; ; F S S * & : @ + o X .       ",
"; y.d.f.h.w.u.9.l.a.1.,.>.-.&.  ",
"; t.~ 5.W p.-.y.#.c.>.N v f @.  ",
"- r.) Q / -.j.@.k.v.1.v f y X.  ",
"- w.E R I $.9.x.z.s.| f t 0 [   ",
"& q./ J Y O.| ' 1. .f r 0 6 V   ",
"$ 0.I H K | ' m k f e 9 6 3 M   ",
"# 7.U G L ' m k u e 9 6 3 < c   ",
"+ 4.g.T 6.m f f e 6 6 2 , > g   ",
"o 1.^ _ ! -.$.X...' V M z g i   ",
"o . Z D C                       "
};
