/* XPM */
static char *tn[] = {
/* columns rows colors chars-per-pixel */
"16 11 136 2",
"   c #DD0000",
".  c #DF0000",
"X  c #E10000",
"o  c #E30000",
"O  c #E50000",
"+  c #E70000",
"@  c #E90000",
"#  c #EB0000",
"$  c #ED0000",
"%  c #EF0000",
"&  c #F10000",
"*  c #F30000",
"=  c #F50000",
"-  c #F70000",
";  c #F90000",
":  c #FB0000",
">  c #FD0000",
",  c red",
"<  c #F10B0B",
"1  c #F10F0E",
"2  c #F21010",
"3  c #F21313",
"4  c #F21414",
"5  c #F31919",
"6  c #F31A1A",
"7  c #F41F1F",
"8  c #F42020",
"9  c #F52525",
"0  c #F52626",
"q  c #F62B2B",
"w  c #F22C2C",
"e  c #F22F2F",
"r  c #F62C2C",
"t  c #F23232",
"y  c #F33232",
"u  c #F73131",
"i  c #F33535",
"p  c #F43636",
"a  c #F83737",
"s  c #F43939",
"d  c #F43B3B",
"f  c #F53D3D",
"g  c #F73C3C",
"h  c #F53F3F",
"j  c #F93A3A",
"k  c #FA3F3F",
"l  c #F64242",
"z  c #F64444",
"x  c #F74646",
"c  c #F84242",
"v  c #FA4444",
"b  c #FB4545",
"n  c #F74949",
"m  c #F74B4B",
"M  c #F74E4E",
"N  c #FB4949",
"B  c #FB4A49",
"V  c #FC4F4F",
"C  c #F35555",
"Z  c #F85050",
"A  c #FB5151",
"S  c #F85353",
"D  c #FB5252",
"F  c #FD5353",
"G  c #F95455",
"H  c #F95757",
"J  c #FD5454",
"K  c #F45959",
"L  c #F35D5D",
"P  c #F65C5C",
"I  c #F55E5E",
"U  c #F95858",
"Y  c #FE5858",
"T  c #FE5959",
"R  c #FA5C5C",
"E  c #FA5D5D",
"W  c #FE5C5C",
"Q  c #FE5F5F",
"!  c #F66363",
"~  c #FB6060",
"^  c #FB6162",
"/  c #F86565",
"(  c #FC6565",
")  c #FC6666",
"_  c #F76867",
"`  c #FC6969",
"'  c #FC6A6A",
"]  c #FA6D6D",
"[  c #FA6F6F",
"{  c #FD6D6D",
"}  c #FD6F6F",
"|  c #FD7071",
" . c #FE7273",
".. c #F97777",
"X. c #FE7474",
"o. c #FC7676",
"O. c #FC7777",
"+. c #FE7676",
"@. c #FE7777",
"#. c #F67C7C",
"$. c #F97878",
"%. c #FE7979",
"&. c #FF7B7A",
"*. c #FF7B7B",
"=. c #F98282",
"-. c #F88484",
";. c #F89493",
":. c #F79D9D",
">. c #F99998",
",. c #FB9F9F",
"<. c #F4A1A1",
"1. c #F4ABAB",
"2. c #F9A9A9",
"3. c #FAACAC",
"4. c #F5B2B2",
"5. c #F7B5B5",
"6. c #FBB0B0",
"7. c #FAB1B1",
"8. c #F8B2B2",
"9. c #FCB2B2",
"0. c #FDB4B4",
"q. c #FDB5B5",
"w. c #FDB7B7",
"e. c #F9BDBD",
"r. c #FDC1C1",
"t. c #F7D6D6",
"y. c #F5D9D9",
"u. c #F7DCDC",
"i. c #FDDFDF",
"p. c #F8E7E7",
"a. c #F6E9E9",
"s. c #F5EBEB",
"d. c #F6ECEC",
"f. c #FAE9E9",
"g. c #FBEEEE",
"h. c #FCEFEF",
/* pixels */
", , , , , : , , : : - - & & % % ",
", *.*.*.@.X.| ] ' ( ~ E H S M @ ",
", *.Q W W r.i.h.g.9.$.p u r n @ ",
", @.Q H q.q.O.A ] e.;._ q 0 z + ",
", @.Y J q.o.,.f.=.-.u./ 0 7 h + ",
",  .F V 9.A a.o.l 5.a.I 7 6 d + ",
": } V N 6.] >.p.:.#.y.K 6 4 p X ",
": ' N b 3.2./ g P 4.1.C 2 2 t . ",
": ) b k j 4.t.d.a.<.L 2 1 < e . ",
"- ~ E U G V M z l h d p t e e   ",
"- & & % % @ @ @ + + X X .       "
};
