/* XPM */
static char *to[] = {
/* columns rows colors chars-per-pixel */
"16 11 117 2",
"   c #DD0000",
".  c #DF0000",
"X  c #E10000",
"o  c #E30000",
"O  c #E50000",
"+  c #E70000",
"@  c #E90000",
"#  c #EB0000",
"$  c #ED0000",
"%  c #EF0000",
"&  c #F10000",
"*  c #F30000",
"=  c #F50000",
"-  c #F70000",
";  c #F90000",
":  c #FB0000",
">  c #FD0000",
",  c #F10B0B",
"<  c #F10F0E",
"1  c #F21010",
"2  c #F21313",
"3  c #F21414",
"4  c #F31919",
"5  c #F31A1A",
"6  c #F41E1E",
"7  c #F41F1F",
"8  c #F42020",
"9  c #F52323",
"0  c #F52424",
"q  c #F52525",
"w  c #F52626",
"e  c #F62929",
"r  c #F62A2A",
"t  c #F62B2B",
"y  c #F22C2C",
"u  c #F22F2F",
"i  c #F62C2C",
"p  c #F72E2E",
"a  c #F72F2F",
"s  c #F23232",
"d  c #F33232",
"f  c #F73030",
"g  c #F73131",
"h  c #F33535",
"j  c #F43636",
"k  c #F83434",
"l  c #F83535",
"z  c #F83636",
"x  c #F83736",
"c  c #F83737",
"v  c #F43939",
"b  c #F43B3B",
"n  c #F53D3D",
"m  c #F53F3F",
"M  c #F93A3A",
"N  c #F93B3A",
"B  c #F93B3B",
"V  c #F93B3C",
"C  c #F93C3C",
"Z  c #F93C3D",
"A  c #FA3F3F",
"S  c #F64242",
"D  c #F64444",
"F  c #F74646",
"G  c #FA4040",
"H  c #FA4141",
"J  c #FA4142",
"K  c #FA4242",
"L  c #FA4444",
"P  c #FB4545",
"I  c #FB4646",
"U  c #FB4747",
"Y  c #F74949",
"T  c #F74B4B",
"R  c #F74E4E",
"E  c #FB4949",
"W  c #FB4A49",
"Q  c #FC4A4B",
"!  c #FC4C4C",
"~  c #FC4F4F",
"^  c #F85050",
"/  c #F85353",
"(  c #FD5353",
")  c #F95455",
"_  c #F95757",
"`  c #F95858",
"'  c #FA5C5C",
"]  c #FA5D5D",
"[  c #FE5C5C",
"{  c #FE5E5F",
"}  c #FE5F5F",
"|  c #FB6060",
" . c #FB6162",
".. c #FE6060",
"X. c #FC6565",
"o. c #FC6666",
"O. c #FC6969",
"+. c #FC6A6A",
"@. c #FD6D6D",
"#. c #FD6F6F",
"$. c #FE7273",
"%. c #FE8585",
"&. c #FDCFCF",
"*. c #FED2D2",
"=. c #FED9D9",
"-. c #FFDBDB",
";. c #EFEFEF",
":. c #EFEFF1",
">. c #F1F1F1",
",. c #FBFBFB",
"<. c gray99",
"1. c #FDFCFC",
"2. c #FDFCFD",
"3. c #FDFDFD",
"4. c #FDFDFE",
"5. c #FEFEFE",
"6. c gray100",
/* pixels */
">.>.>.>.;.:.;.> : : - - & & % % ",
">.6.-.%.=.6.6.@.O.X.| ' _ / R @ ",
";.6.} } } <.6.! P G A M a a Y @ ",
">.6.*.} &.<.,.E G n l g t w D + ",
">.6.6.6.,.,.,.G V l a t w 6 n + ",
"> $.( ~ Q P G M l g t w 6 5 n + ",
"> #.~ E P G M l a t 9 7 5 3 j X ",
": +.E P A M l a t w 7 5 3 1 d   ",
"- X.P A M j a t 9 7 3 3 < , u   ",
"-  .' ` ) R Y P S b b j d u u   ",
"- & & % % % @ @ + + X X X       "
};
