/* XPM */
static char *tr[] = {
/* columns rows colors chars-per-pixel */
"16 11 133 2",
"   c #DD0000",
".  c #DF0000",
"X  c #E10000",
"o  c #E30000",
"O  c #E50000",
"+  c #E70000",
"@  c #E90000",
"#  c #EB0000",
"$  c #ED0000",
"%  c #EF0000",
"&  c #F10000",
"*  c #F30000",
"=  c #F50000",
"-  c #F70000",
";  c #F90000",
":  c #FB0000",
">  c #FD0000",
",  c red",
"<  c #F10B0B",
"1  c #F10F0E",
"2  c #F21010",
"3  c #F21313",
"4  c #F21414",
"5  c #F31919",
"6  c #F31A1A",
"7  c #F41E1E",
"8  c #F41F1F",
"9  c #F42020",
"0  c #F52323",
"q  c #F52424",
"w  c #F52525",
"e  c #F52626",
"r  c #F62B2B",
"t  c #F22C2C",
"y  c #F22F2F",
"u  c #F62C2C",
"i  c #F23232",
"p  c #F33232",
"a  c #F63030",
"s  c #F73131",
"d  c #F63333",
"f  c #F33535",
"g  c #F43636",
"h  c #F83736",
"j  c #F83737",
"k  c #F43939",
"l  c #F43B3B",
"z  c #F53D3D",
"x  c #F53F3F",
"c  c #F93A3A",
"v  c #F93B3A",
"b  c #F93B3B",
"n  c #F93C3C",
"m  c #F93C3D",
"M  c #F93D3D",
"N  c #FA3F3F",
"B  c #F64242",
"V  c #F74343",
"C  c #F64444",
"Z  c #F74646",
"A  c #FA4040",
"S  c #FA4242",
"D  c #FA4444",
"F  c #FB4545",
"G  c #FB4646",
"H  c #FB4747",
"J  c #F74949",
"K  c #F74B4B",
"L  c #F74E4E",
"P  c #FA4848",
"I  c #FB4949",
"U  c #FC4F4F",
"Y  c #F85050",
"T  c #F85353",
"R  c #FD5353",
"E  c #F95455",
"W  c #F95757",
"Q  c #FC5555",
"!  c #F95858",
"~  c #FE5858",
"^  c #FE5959",
"/  c #FA5C5C",
"(  c #FA5D5D",
")  c #FE5C5C",
"_  c #FE5F5F",
"`  c #F56262",
"'  c #F86161",
"]  c #FB6060",
"[  c #FB6565",
"{  c #FC6565",
"}  c #FC6666",
"|  c #FC6969",
" . c #FC6A6A",
".. c #FD6D6D",
"X. c #FD6F6F",
"o. c #FA7070",
"O. c #FA7171",
"+. c #FD7071",
"@. c #FE7273",
"#. c #FE7474",
"$. c #FE7777",
"%. c #F67D7D",
"&. c #FE7979",
"*. c #FD7A7A",
"=. c #FE7A7A",
"-. c #FF7B7B",
";. c #FE7D7D",
":. c #FF7E7E",
">. c #FF7F7F",
",. c #FC8080",
"<. c #F88787",
"1. c #F78C8C",
"2. c #FD9D9D",
"3. c #FD9F9F",
"4. c #FBA2A2",
"5. c #F7B7B7",
"6. c #FAB0B0",
"7. c #FDB4B4",
"8. c #FCBEBF",
"9. c #FBC0C0",
"0. c #F5D1D1",
"q. c #F7D7D7",
"w. c #F8D8D8",
"e. c #F8E3E3",
"r. c #F9E3E3",
"t. c #F8E5E5",
"y. c #FCE4E4",
"u. c #F6EFEF",
"i. c #FDE9E9",
"p. c #F7F5F5",
"a. c #FBF3F3",
"s. c #FCF3F3",
"d. c #FDF6F6",
/* pixels */
", , , , , , : , : - - - * * $ $ ",
", :.&.&.&.#.+.X.| [ ] / W T L # ",
", :.] ) ^ 2.2.Q F A n j d u J # ",
", :.) ^ 7.i.y.8.I n j d r e C O ",
", &.^ &.d.,.G O.n r.V u e 7 x O ",
", #.R 8.a.F A b t.p.u.` 7 5 l O ",
": X.U 4.a.O.b ` 5.%.0.9 5 4 g o ",
":  .I F 6.e.w.q.d e 8 5 4 2 p . ",
": | F n b <.1.g 9 8 5 2 2 < y . ",
"- [ / W T T I C V x k f p y y   ",
"- * * $ $ $ # O O O O o .       "
};
