/* XPM */
static char *tw[] = {
/* columns rows colors chars-per-pixel */
"16 11 131 2",
"   c #DD0000",
".  c #DF0000",
"X  c #E10000",
"o  c #E30000",
"O  c #E50000",
"+  c #E70000",
"@  c #E90000",
"#  c #EB0000",
"$  c #ED0000",
"%  c #EF0000",
"&  c #F10000",
"*  c #F30000",
"=  c #F50000",
"-  c #F70000",
";  c #F90000",
":  c #FB0000",
">  c #FD0000",
",  c #F10B0B",
"<  c #F10F0E",
"1  c #F21010",
"2  c #F21313",
"3  c #F21414",
"4  c #F31919",
"5  c #F31A1A",
"6  c #F41E1E",
"7  c #F41F1F",
"8  c #F42020",
"9  c #F52323",
"0  c #F52424",
"q  c #F52525",
"w  c #F52626",
"e  c #F62929",
"r  c #F62A2A",
"t  c #F62B2B",
"y  c #F22C2C",
"u  c #F22F2F",
"i  c #F62C2C",
"p  c #F72E2E",
"a  c #F72F2F",
"s  c #F23232",
"d  c #F33232",
"f  c #F73030",
"g  c #F73131",
"h  c #F33535",
"j  c #F43636",
"k  c #F83434",
"l  c #F83535",
"z  c #F83636",
"x  c #F83736",
"c  c #F83737",
"v  c #F1363A",
"b  c #F43939",
"n  c #F43B3B",
"m  c #F53D3D",
"M  c #F53F3F",
"N  c #F93A3A",
"B  c #F93B3A",
"V  c #F93C3C",
"C  c #F93C3D",
"Z  c #FA3F3F",
"A  c #EA3B46",
"S  c #EC414B",
"D  c #F64242",
"F  c #F64444",
"G  c #F74646",
"H  c #FA4040",
"J  c #FA4242",
"K  c #FA4444",
"L  c #FB4545",
"P  c #F74949",
"I  c #F74B4B",
"U  c #F74E4E",
"Y  c #FB4949",
"T  c #FB4A49",
"R  c #FC4F4F",
"E  c #ED4750",
"W  c #F85050",
"Q  c #F85353",
"!  c #F95455",
"~  c #F95757",
"^  c #F95858",
"/  c #FA5C5C",
"(  c #FA5D5D",
")  c #FB6060",
"_  c #FB6162",
"`  c #FC6565",
"'  c #FC6666",
"]  c #FC6A6A",
"[  c #FD6F6F",
"{  c #F16970",
"}  c #0011A9",
"|  c #001BAB",
" . c #0019AD",
".. c #001FAF",
"X. c #0021AF",
"o. c #0023B1",
"O. c #0025B3",
"+. c #0027B3",
"@. c #4A75C9",
"#. c #4F79CB",
"$. c #4E7BCD",
"%. c #527CCE",
"&. c #537DCF",
"*. c #537ECF",
"=. c #587FCF",
"-. c #5781D1",
";. c #5782D1",
":. c #5881D1",
">. c #5C83D1",
",. c #5C85D3",
"<. c #6087D2",
"1. c #638BD5",
"2. c #7193D8",
"3. c #7595DA",
"4. c #7799D9",
"5. c #7D9DDB",
"6. c #7A9CDC",
"7. c #7D9EDC",
"8. c #7F9FDD",
"9. c #9090D8",
"0. c #9393DA",
"q. c #9999DC",
"w. c #9899DD",
"e. c #82A2DD",
"r. c #84A4DF",
"t. c #B6B7E6",
"y. c #B9B9E8",
"u. c #F9F9FB",
"i. c #F9F9FC",
"p. c #F9F9FD",
"a. c #FEFEFE",
/* pixels */
"+.+.+.+.+... .} X : : = * * $ $ ",
"+.r.r.t.y.5.6.3.{ ` ) ( ^ Q U # ",
"+.r.w.p.a.q.,.:.E J Z l g i P # ",
"+.e.0.p.u.0.;.%.S V j f t w F O ",
"..8.1.3.2.;.%.$.A l f t w 8 M O ",
"| 5.<.>.=.%.#.@.v f t w 7 5 n O ",
"> [ R Y L H N l a t 0 6 5 3 j X ",
": ] Y L Z N k a t 0 6 5 2 1 d X ",
": ` L Z N l a t 9 6 3 3 < , u . ",
"= _ ( ^ ! U P G D M n h d u u . ",
"= * * $ $ $ # O O O O X .   .   "
};
