/* XPM */
static char *ua[] = {
/* columns rows colors chars-per-pixel */
"16 11 148 2",
"   c #DDB500",
".  c #DDB700",
"X  c #DFB700",
"o  c #DFB900",
"O  c #DFBB00",
"+  c #E1BB00",
"@  c #E3BB00",
"#  c #E3BF00",
"$  c #E5BF00",
"%  c #E7C300",
"&  c #E9C500",
"*  c #EBC700",
"=  c #EDCB00",
"-  c #EDCD00",
";  c #EFD100",
":  c #F1D300",
">  c #F3D700",
",  c #F5D900",
"<  c #F7DB00",
"1  c #F9DD00",
"2  c #FBDF00",
"3  c #FDE100",
"4  c #F1F10B",
"5  c #F1F10E",
"6  c #F2F210",
"7  c #F2F213",
"8  c #F2F214",
"9  c #F3F319",
"0  c #F4F41E",
"q  c #F4F41F",
"w  c #F5F523",
"e  c #F5F524",
"r  c #F6F629",
"t  c #F6F62A",
"y  c #F2F22C",
"u  c #F2F22F",
"i  c #F7F72E",
"p  c #F7F72F",
"a  c #F2F232",
"s  c #F3F332",
"d  c #F3F335",
"f  c #F4F436",
"g  c #F8F834",
"h  c #F8F835",
"j  c #F4F439",
"k  c #F5F53D",
"l  c #F9F93A",
"z  c #FAFA3F",
"x  c #F6F642",
"c  c #F7F746",
"v  c #FAFA40",
"b  c #FAFA44",
"n  c #FBFB45",
"m  c #F7F74B",
"M  c #FBFB49",
"N  c #FBFC49",
"B  c #FCFC4F",
"V  c #F8F850",
"C  c #F9F955",
"Z  c #F9F958",
"A  c #FAFA5D",
"S  c #FBFB62",
"D  c #FCFC66",
"F  c #FCFC6A",
"G  c #FDFD6F",
"H  c #004F99",
"J  c #0035E7",
"K  c #0045E7",
"L  c #0045E9",
"P  c #004DEB",
"I  c #0057EF",
"U  c #005DF1",
"Y  c #0063F3",
"T  c #0067F5",
"R  c #006DF7",
"E  c #0071F9",
"W  c #0075FB",
"Q  c #0079FD",
"!  c #007DFD",
"~  c #007FFD",
"^  c #0091C7",
"/  c #3EABCF",
"(  c #0083FD",
")  c #0083FF",
"_  c #0085FF",
"`  c #209FF4",
"'  c #25A1F5",
"]  c #26A2F5",
"[  c #2BA4F6",
"{  c #2BA5F6",
"}  c #2CA6F6",
"|  c #30A7F7",
" . c #31A8F7",
".. c #31A9F7",
"X. c #3FADF5",
"o. c #36AAF8",
"O. c #37ABF8",
"+. c #3BADF9",
"@. c #3CAEF9",
"#. c #3DAEF9",
"$. c #43AED1",
"%. c #48B0D2",
"&. c #4DB3D4",
"*. c #51B5D6",
"=. c #5BB7D5",
"-. c #56B8D8",
";. c #5BBAD9",
":. c #60BCDB",
">. c #64BEDD",
",. c #44AFF6",
"<. c #41AFFA",
"1. c #49B2F7",
"2. c #4EB4F7",
"3. c #42B0FA",
"4. c #42B1FA",
"5. c #46B2FB",
"6. c #47B3FB",
"7. c #4BB5FC",
"8. c #4BB6FC",
"9. c #4CB6FC",
"0. c #53B7F8",
"q. c #50B6FD",
"w. c #51B7FD",
"e. c #54B9FD",
"r. c #54BAFD",
"t. c #58B9F9",
"y. c #5CBBFA",
"u. c #58BBFE",
"i. c #58BCFE",
"p. c #59BCFE",
"a. c #5CBDFE",
"s. c #5CBEFE",
"d. c #5FBFFE",
"f. c #61BEFB",
"g. c #69C0DD",
"h. c #6DC2DF",
"j. c #70C4E0",
"k. c #65C0FC",
"l. c #69C2FC",
"z. c #6DC3FD",
"x. c #70C5FE",
"c. c #74C7FE",
"v. c #76C7FE",
"b. c #77C8FE",
"n. c #79C8FE",
"m. c #79C9FE",
"M. c #7BCAFF",
"N. c #8AD0E7",
/* pixels */
"_ _ _ _ _ ) ! Q W E R T Y U I I ",
") M.M.M.b.b.z.z.l.k.f.y.t.0.2.P ",
"_ M.d.a.a.w.q.9.6.3.#.O...} 1.L ",
") b.a.i.e.w.9.5.3.#.O...{ ] ,.K ",
"! v.u.e.q.7.5.<.+.o.| { ] ` X.J ",
"^ N.j.h.g.>.:.;.-.*.&.%.$./ =.H ",
"3 G B N n z l g p t e q 9 8 f @ ",
"2 F M n z l g p t e q 9 8 5 s O ",
"1 D n v l g p t w q 9 7 5 4 u X ",
"< S A C C V m c x k j d s u u   ",
", > ; ; - = * & % $ # @ X X     "
};
