/* XPM */
static char *um[] = {
/* columns rows colors chars-per-pixel */
"16 11 130 2",
"   c #710000",
".  c #7B0000",
"X  c #7E0000",
"o  c #4C4C4C",
"O  c #5C5959",
"+  c gray47",
"@  c #8B0000",
"#  c #950000",
"$  c #9F0000",
"%  c #A60000",
"&  c #B20000",
"*  c #BA0000",
"=  c #C00000",
"-  c #CC0000",
";  c #CD0000",
":  c #CF0000",
">  c #D20000",
",  c #D30000",
"<  c #D60000",
"1  c #D90000",
"2  c #DC0000",
"3  c #DD0201",
"4  c #DD0202",
"5  c #CD1C1C",
"6  c #D41F1F",
"7  c #D92222",
"8  c #DB2424",
"9  c #D33737",
"0  c #DB3C3C",
"q  c #E02626",
"w  c #E02828",
"e  c #E32828",
"r  c #E62A2A",
"t  c #E62C2C",
"y  c #E62D2D",
"u  c #E72F2F",
"i  c #E33333",
"p  c #E73131",
"a  c #E83232",
"s  c #E83636",
"d  c #E83838",
"f  c #E93939",
"g  c #E93A3A",
"h  c #E93D3D",
"j  c #EA4141",
"k  c #E94242",
"l  c #EB4242",
"z  c #EB4646",
"x  c #EB4949",
"c  c #EC4B4C",
"v  c #EB4D4C",
"b  c #EC4F4F",
"n  c #EE5657",
"m  c #EE5C5C",
"M  c #EE6464",
"N  c #EF6F6F",
"B  c #4F77C9",
"V  c #537BCD",
"C  c #557DCF",
"Z  c #577DCF",
"A  c #577FD1",
"S  c #5981D3",
"D  c #5983D3",
"F  c #5B83D5",
"G  c #6095D9",
"H  c #6BA4DA",
"J  c #6EA7DA",
"K  c #7BB4DC",
"L  c #7CB4DD",
"P  c gray52",
"I  c #A7A7A7",
"U  c #F29F9F",
"Y  c #8DB5DE",
"T  c #8EB5DE",
"R  c #92B6DE",
"E  c #93B6DF",
"W  c #A3B7E0",
"Q  c #A3B8E0",
"!  c #A4B9E1",
"~  c #A5B9E2",
"^  c #A6BAE2",
"/  c #A6BAE3",
"(  c #A7BBE3",
")  c #A8BCE5",
"_  c #A9BDE6",
"`  c #A9BEE7",
"'  c #AABEE7",
"]  c #ABBFE8",
"[  c #ACC0E9",
"{  c #B4C5E7",
"}  c #B6C7E9",
"|  c #B6C8EA",
" . c #B9C9EB",
".. c #B9C9EC",
"X. c #B9CAED",
"o. c #BACBED",
"O. c gray76",
"+. c gray81",
"@. c #D0D0D0",
"#. c gray83",
"$. c #D9D9DA",
"%. c #DCDADA",
"&. c gainsboro",
"*. c #E1E1E1",
"=. c gray90",
"-. c #E7E7E7",
";. c gray91",
":. c #E9E9E9",
">. c #E9EAEA",
",. c #EAEAEA",
"<. c #EBEBEA",
"1. c #ECECEC",
"2. c gray93",
"3. c #EEEEEE",
"4. c #EFEFEF",
"5. c gray94",
"6. c #F1F1F1",
"7. c gray95",
"8. c #F3F3F3",
"9. c #F4F4F4",
"0. c #F4F5F5",
"q. c gray96",
"w. c #F6F6F6",
"e. c gray97",
"r. c #F8F8F8",
"t. c #F9F9F9",
"y. c gray98",
"u. c gray99",
"i. c #FDFEFD",
"p. c #FEFEFE",
/* pixels */
"F F F F D Z Z V B i 8 4 4 1 < , ",
"F p.o.p. .u.| y.{ e.w.9.8.8.8.+ ",
"F o.[ ' ' ) / / Q M n c l f v - ",
"D o.u.' y./ w.W R 8.5.3.1.,.3.I ",
"D } ) ) / / W R K v l f p y l * ",
"Z p.' w.W w.Y 8.J 3.,.,.,.-.>.P ",
"V } / / W Y K H G s p t w 8 0 $ ",
"+.r.w.9.8.8.3.3.1.,.-.-.-.&.%.o ",
"i U N m b z h s y t q 7 6 5 9 X ",
"O.w.9.8.8.5.3.2.1.,.;.*.%.#.+.O ",
"4 1 1 < , : : : = & % # @ .     "
};
