/* XPM */
static char *ve[] = {
/* columns rows colors chars-per-pixel */
"16 11 158 2",
"   c black",
".  c #43003B",
"X  c #771072",
"o  c #7B1475",
"O  c #7D1978",
"+  c #DD0000",
"@  c #DF0000",
"#  c #E10000",
"$  c #E30000",
"%  c #E50000",
"&  c #E70000",
"*  c #E90000",
"=  c #EB0000",
"-  c #ED0000",
";  c #EF0000",
":  c #F10000",
">  c #F30000",
",  c #F50000",
"<  c #F70000",
"1  c #F90000",
"2  c #F10B0B",
"3  c #F10F0E",
"4  c #F21313",
"5  c #F31919",
"6  c #F41E1E",
"7  c #F52323",
"8  c #F62929",
"9  c #F22C2C",
"0  c #F22F2F",
"q  c #F72E2E",
"w  c #F23232",
"e  c #F33535",
"r  c #F83434",
"t  c #F43939",
"y  c #F53D3D",
"u  c #F93A3A",
"i  c #FA3F3F",
"p  c #801F7C",
"a  c #F64242",
"s  c #F74646",
"d  c #FA4444",
"f  c #F74B4B",
"g  c #F85050",
"h  c #F95455",
"j  c #F95858",
"k  c #FA5D5D",
"l  c #FB6162",
"z  c #FC6666",
"x  c #439500",
"c  c #419700",
"v  c #E7B900",
"b  c #E9BD00",
"n  c #B7D300",
"m  c #B7D500",
"M  c #EBC100",
"N  c #EDCD00",
"B  c #EFD100",
"V  c #F1D500",
"C  c #F3D700",
"Z  c #F5DB00",
"A  c #F7DB00",
"S  c #F9DD00",
"D  c #FBDF00",
"F  c #FFDD00",
"G  c #FDE100",
"H  c #FDE300",
"J  c #FDE500",
"K  c #FFE700",
"L  c #FDEB00",
"P  c #F5F526",
"I  c #F6F62B",
"U  c #F6F62C",
"Y  c #F7F731",
"T  c #F8F836",
"R  c #F8F837",
"E  c #F9F93C",
"W  c #F9F93D",
"Q  c #F38A7F",
"!  c #B9DA69",
"~  c #F6F644",
"^  c #FAFA42",
"/  c #FBFB47",
"(  c #F7F749",
")  c #F7F74E",
"_  c #FCFC4B",
"`  c #FCFC4C",
"'  c #F8F853",
"]  c #FDFD51",
"[  c #F9F957",
"{  c #FDFD54",
"}  c #FEFE59",
"|  c #FAFA5C",
" . c #FEFE5C",
".. c #FBFB60",
"X. c #FCFC65",
"o. c #FCFC69",
"O. c #FDFD6D",
"+. c #FDFD71",
"@. c #FEFE74",
"#. c #FEFE77",
"$. c #FEFE79",
"%. c #FCFC7C",
"&. c #000089",
"*. c #00008D",
"=. c #000091",
"-. c #0000BB",
";. c #0000BF",
":. c #0000C1",
">. c #1414C8",
",. c #1919C9",
"<. c #1A1ACA",
"1. c #1F1FCB",
"2. c #2020CC",
"3. c #2525CD",
"4. c #2A2ACF",
"5. c #2B2BCF",
"6. c #3636CF",
"7. c #2F2FD1",
"8. c #3030D1",
"9. c #3535D3",
"0. c #3636D3",
"q. c #3B3BD1",
"w. c #3F3FD3",
"e. c #3B3BD4",
"r. c #3B3BD5",
"t. c #494ADA",
"y. c #4B4ADA",
"u. c #4B4BDA",
"i. c #4F4FDB",
"p. c #504FDB",
"a. c #5353DC",
"s. c #5454DD",
"d. c #5858DD",
"f. c #6769D8",
"g. c #6F6FE2",
"h. c #7272E2",
"j. c #7676E4",
"k. c #842480",
"l. c #872A82",
"z. c #8B2F86",
"x. c #8B3286",
"c. c #8E3489",
"v. c #923A8D",
"b. c #953F90",
"n. c #984594",
"m. c #9B4997",
"M. c #AE6AAA",
"N. c #ACD289",
"B. c #8384DE",
"V. c #9595E3",
"C. c #9C9CE6",
"Z. c #A5A5EA",
"A. c #DFE0F0",
"S. c #E3E3F2",
"D. c #E6E6F4",
"F. c #E9E9F7",
"G. c #F1F1F8",
"H. c #F2F2F9",
/* pixels */
"L n m K K H H H D S A A V V B N ",
"c Q %.N.@.@.+.O.o.X...| [ ' ) M ",
"c B.f.! } { ] ` / ^ W R Y U ( b ",
"F $. .} { ] ` / ^ W R Y U P ~ v ",
":.j.d.s.p.t.F.H.G.D.7.7.3.1.w.=.",
";.h.a.i.y.F.Z.e.9.C.S.3.1.<.q.*.",
"-.g.i.t.F.Z.e.0.7.4.V.S.<.>.6.&.",
". M.m.n.b.v.c.z.l.k.O O o X x.  ",
"1 z d i i r q 8 7 6 5 4 3 2 0 + ",
"< l k j h f f s a y t e w 0 0 + ",
"< : : - - - = = % % $ $ + + + + "
};
