/* XPM */
static char *wales[] = {
/* columns rows colors chars-per-pixel */
"16 11 162 2",
"   c #002500",
".  c #002F00",
"X  c #003100",
"o  c #003300",
"O  c #003500",
"+  c #003700",
"@  c #003900",
"#  c #003F00",
"$  c #004100",
"%  c #004700",
"&  c #004D00",
"*  c #005100",
"=  c #005700",
"-  c #005D00",
";  c #006100",
":  c #006700",
">  c #006D00",
",  c #006F00",
"<  c #007500",
"1  c #007900",
"2  c #037F00",
"3  c #7B711F",
"4  c #F41F1F",
"5  c #CD2725",
"6  c #CC2C25",
"7  c #C3382B",
"8  c #C63B2A",
"9  c #CD3737",
"0  c #DB3736",
"q  c #D93C37",
"w  c #DA3C36",
"e  c #D13C3D",
"r  c #D13F3C",
"t  c #EC242C",
"y  c #F62A3B",
"u  c #A3411B",
"i  c #BE412F",
"p  c #9E6B39",
"a  c #B3663E",
"s  c #C54E38",
"d  c #D5413B",
"f  c #D2443C",
"g  c #DD3F42",
"h  c #E53D44",
"j  c #F43A4A",
"k  c #9E7440",
"l  c #B56948",
"z  c #BA6A49",
"x  c #CE4142",
"c  c #C04B4B",
"v  c #CF4A49",
"b  c #D54242",
"n  c #DB4740",
"m  c #D84840",
"M  c #DA5145",
"N  c #D1544B",
"B  c #D5554A",
"V  c #DF574D",
"C  c #D5594E",
"Z  c #C95B51",
"A  c #D25151",
"S  c #D25551",
"D  c #DE5454",
"F  c #E34146",
"G  c #E74B4F",
"H  c #E3504F",
"J  c #E05D58",
"K  c #D1665E",
"L  c #D86559",
"P  c #C7755D",
"I  c #ED5864",
"U  c #DB7474",
"Y  c #D97972",
"T  c #E26D65",
"R  c #F3626D",
"E  c #098300",
"W  c #3CA118",
"Q  c #3FA521",
"!  c #459F1C",
"~  c #41A21C",
"^  c #568E22",
"/  c #4A9C20",
"(  c #738C2E",
")  c #7F8D3A",
"_  c #7A9537",
"`  c #46A727",
"'  c #59AB32",
"]  c #5CA939",
"[  c #5FA938",
"{  c #4ABD3F",
"}  c #61AB37",
"|  c #60A93A",
" . c #65AE3D",
".. c #7A9541",
"X. c #68AE43",
"o. c #6FB24B",
"O. c #76B851",
"+. c #7AB957",
"@. c #7BBB57",
"#. c #7EBB5C",
"$. c #7FBE5C",
"%. c #948747",
"&. c #9E8F4D",
"*. c #E1827B",
"=. c #89C269",
"-. c #8CC36D",
";. c #8FC671",
":. c #93C875",
">. c #95C97A",
",. c #A2B794",
"<. c #E68682",
"1. c #E28E86",
"2. c #F4849A",
"3. c #E99991",
"4. c #E3A6A1",
"5. c #EBB3AD",
"6. c #E9B3AF",
"7. c #E3BBB7",
"8. c #E7BBB7",
"9. c #EDB8B4",
"0. c #E7BCBB",
"q. c #AED19E",
"w. c #CDCDCD",
"e. c gray81",
"r. c gray82",
"t. c #D5D5D5",
"y. c #D7D7D7",
"u. c #D7DBD9",
"i. c gray85",
"p. c gray86",
"a. c gray87",
"s. c #EEC4C1",
"d. c #E8CAC8",
"f. c #EACCC8",
"g. c #EBCCC9",
"h. c #EED0CB",
"j. c #EDDDDC",
"k. c #EEDFDD",
"l. c #F2D9D8",
"z. c #DEEEDD",
"x. c #EFE0DE",
"c. c #E1F2DC",
"v. c gray88",
"b. c #E1E1E1",
"n. c #E3E0E0",
"m. c gray89",
"M. c #E5E5E7",
"N. c #E7E7E7",
"B. c #E7F6E7",
"V. c #EEF6F6",
"C. c gray96",
"Z. c #F7F6F6",
"A. c gray97",
"S. c #FAF8F7",
"D. c #F8F8F8",
"F. c #FCFCFB",
"G. c gray99",
"H. c #FDFDFD",
"J. c #FDFEFE",
"K. c #FEFEFE",
"L. c #FEFFFE",
"P. c gray100",
/* pixels */
"N.N.N.N.N.M.j.b.m.b.b.a.u.u.u.y.",
"N.L.L.l.3.U d.J.J.1.6.s.x.A.C.y.",
"N.L.8.4.K D 9.L.N b e 9 C.L g.r.",
"N.F.7.L.d.A S.6.x C 0 j.0.7 k.e.",
"N.L.J L.<.c h.*.f 0 Y V.6 2.C.e.",
"q.c.R B.N S n d M q n T H %.z.,.",
"E >.$.v G V h h f s t 4 ^ Q X.+ ",
"2 :.+.&.z j a ) y ( ` 3 5 ! ' + ",
"1 ;.O.{ p _  .| i 7 / ~ u W [ X ",
"< -.-.I P #.+.Z l o...g p ] [   ",
", , : ; ; - * & % $ $ @ + X . . "
};
