/* XPM */
static char *yt[] = {
/* columns rows colors chars-per-pixel */
"16 11 133 2",
"   c #D83B29",
".  c #D93E2A",
"X  c #D53E34",
"o  c #DA422F",
"O  c #D54137",
"+  c #D64239",
"@  c #DE4D3D",
"#  c #DB5347",
"$  c #4C42A9",
"%  c #4747B1",
"&  c #4B4FB5",
"*  c #4B4DB6",
"=  c #625AB3",
"-  c #6264BE",
";  c #AEACAD",
":  c #B5B2B2",
">  c #B5B4B5",
",  c #B6B5B6",
"<  c #BBB8B8",
"1  c #BBBABB",
"2  c #E29295",
"3  c #E09899",
"4  c #E5989A",
"5  c #C0BDBA",
"6  c #E6ADAE",
"7  c #FAB1B1",
"8  c #FEB3B3",
"9  c #FDBFBF",
"0  c #FEBEBE",
"q  c #B5B7D6",
"w  c #B2B5DA",
"e  c #B4B6DB",
"r  c #C7C5C4",
"t  c #C6C5C5",
"y  c #C7C7C6",
"u  c #C9C7C8",
"i  c #CBC9C9",
"p  c #CDCAC9",
"a  c #CCCACA",
"s  c #CECDCD",
"d  c #CFCDCD",
"f  c gray81",
"g  c gray82",
"h  c #D2D1D1",
"j  c #D3D1D1",
"k  c LightGray",
"l  c #D5D5D5",
"z  c #D7D5D5",
"x  c #D7D7D7",
"c  c #D9D7D7",
"v  c gray86",
"b  c gainsboro",
"n  c #DDDDDD",
"m  c #DFDFDF",
"M  c #FBC1C1",
"N  c #FCC3C3",
"B  c #FDC6C6",
"V  c #E1E1DF",
"C  c #C4C7E1",
"Z  c #DBD8EA",
"A  c #DBD9EA",
"S  c #E1E2E2",
"D  c #E1E3E3",
"F  c #E6E0E1",
"G  c #E6E3E2",
"H  c #E4E4E4",
"J  c gray90",
"K  c #E7E6E7",
"L  c #E7E7E7",
"P  c #EDE3E3",
"I  c #E8E7E7",
"U  c #EBE7E7",
"Y  c #EFE5E5",
"T  c #E9E8E6",
"R  c #E6EAEA",
"E  c gray91",
"W  c #E9E9E9",
"Q  c #EAE9E9",
"!  c #E9EBE9",
"~  c #E9E9EB",
"^  c gray92",
"/  c #ECE8E9",
"(  c #EDEBEB",
")  c #EEEAEA",
"_  c #EFEBEB",
"`  c #EBEBED",
"'  c gray93",
"]  c #EEEEEE",
"[  c #EFEFEF",
"{  c #F1E9E9",
"}  c #F1EFEF",
"|  c #F3EFEF",
" . c #FEE8E8",
".. c #F9EEEE",
"X. c #EFEFF0",
"o. c #F3EFF1",
"O. c #EBF0F0",
"+. c #EEF0F0",
"@. c #EFF0F0",
"#. c #EFF1F1",
"$. c gray94",
"%. c #F1F1F1",
"&. c #F2F1F2",
"*. c gray95",
"=. c #F2F3F3",
"-. c #F3F3F3",
";. c #F5F1F1",
":. c #F5F3F3",
">. c #F4F4F4",
",. c #F4F4F5",
"<. c gray96",
"1. c #F6F6F6",
"2. c #F7F6F6",
"3. c #F7F7F6",
"4. c gray97",
"5. c #F8F0F0",
"6. c #F9F6F6",
"7. c #FBF6F6",
"8. c #FDF7F7",
"9. c #FEF7F7",
"0. c #FDF8F7",
"q. c #F8F8F8",
"w. c #FAF9F8",
"e. c #F8FBFB",
"r. c gray98",
"t. c #FBFBFB",
"y. c #FCF9F8",
"u. c gray99",
"i. c #FDFDFD",
"p. c #FEFCFC",
"a. c #FEFDFD",
"s. c #FEFEFE",
"d. c gray100",
/* pixels */
"<.<.<.:.:.o.| { ) Y P U W L L S ",
"<.d.d. .8 0 0 B N N 0 7 ..q.<.m ",
"-.d.d.p.3.0.8.p.8.r.6.:.<.<.<.m ",
"<.d.d.[ ' r.C e w q :.R L <.<.v ",
"<.d.b a a %.- * & % ` 5 < y <.x ",
"-.d.h } <.[ = Z A $ W T L < <.l ",
"[ d.a t 3.-.# O X + W W : , -.k ",
"-.r.r.t -.) @ o .   F S ; [ -.k ",
"[ d.<.u <.( 6 4 2 3 S U , U @.f ",
"^ t.r.L L q.,.@.@.@.-.m m [ -.f ",
"W W L H S m x l h h i d h f d f "
};
