/* XPM */
static char *za[] = {
/* columns rows colors chars-per-pixel */
"16 11 168 2",
"   c black",
".  c #002D00",
"X  c #003900",
"o  c #004500",
"O  c #006500",
"+  c #006900",
"@  c #535353",
"#  c #6F6F6F",
"$  c #727273",
"%  c #767676",
"&  c #E90000",
"*  c #EB0000",
"=  c #ED0000",
"-  c #EF0000",
";  c #F10000",
":  c #F30000",
">  c #F50000",
",  c #F70000",
"<  c #F90000",
"1  c #FB0000",
"2  c #FD0000",
"3  c #F32727",
"4  c #F62C2C",
"5  c #F73131",
"6  c #F83737",
"7  c #F93C3D",
"8  c #FA4242",
"9  c #FB4747",
"0  c #F74949",
"q  c #F74E4E",
"w  c #F85353",
"e  c #F95757",
"r  c #FA5C5C",
"t  c #E7696B",
"y  c #FB6060",
"u  c #FC6565",
"i  c #FC676B",
"p  c #FC6969",
"a  c #FD6D6D",
"s  c #FD7072",
"d  c #00850F",
"f  c #008513",
"g  c #1A9534",
"h  c #179D3B",
"j  c #1F9838",
"k  c #259A3D",
"l  c #2A9D42",
"z  c #29A14C",
"x  c #30A048",
"c  c #36A34D",
"v  c #2EA350",
"b  c #32A555",
"n  c #3BA451",
"m  c #34A758",
"M  c #37A859",
"N  c #37AA5A",
"B  c #3AA859",
"V  c #39A85C",
"C  c #3BAB5C",
"Z  c #3BAB5D",
"A  c #3CAB5E",
"S  c #3FAF5F",
"D  c #3FAA60",
"F  c #3EAB61",
"G  c #72BA5D",
"H  c #40AE60",
"J  c #40AE64",
"K  c #43AE65",
"L  c #43AF67",
"P  c #47AE65",
"I  c #43B065",
"U  c #46B165",
"Y  c #48B169",
"T  c #4BB36D",
"R  c #52B362",
"E  c #53B564",
"W  c #50B36F",
"Q  c #51B46D",
"!  c #58B76C",
"~  c #4BBF77",
"^  c #54B776",
"/  c #5DB777",
"(  c #5CB979",
")  c #6EBC60",
"_  c #73BB67",
"`  c #6DBF72",
"'  c #66BE7B",
"]  c #61BD7F",
"[  c #5CC07E",
"{  c #9F8300",
"}  c #B39B00",
"|  c #81C300",
" . c #9DCD00",
".. c #8D8D56",
"X. c #999555",
"o. c #A29E5E",
"O. c #84BB5A",
"+. c #BEB670",
"@. c #DCD454",
"#. c #E9DB55",
"$. c #E2DB5E",
"%. c #E6E356",
"&. c #C9C17E",
"*. c #EAE868",
"=. c #E5EC74",
"-. c #000081",
";. c #000083",
":. c #000087",
">. c #000089",
",. c #00008B",
"<. c #00008F",
"1. c #000091",
"2. c #000093",
"3. c #000099",
"4. c #00009B",
"5. c #00009D",
"6. c #0000B5",
"7. c #0B0BC0",
"8. c #0F0FC2",
"9. c #1313C4",
"0. c #1819C6",
"q. c #1E1EC7",
"w. c #2323C9",
"e. c #2F2FC9",
"r. c #2C2CCA",
"t. c #2F2FCA",
"y. c #3232CC",
"u. c #3535CD",
"i. c #3939CF",
"p. c #3B38D2",
"a. c #3D3DD0",
"s. c #4242D2",
"d. c #4646D2",
"f. c #514FD8",
"g. c #635FCB",
"h. c #77C98C",
"j. c #7BC690",
"k. c #7BC894",
"l. c #F8A1A0",
"z. c #F9ABAC",
"x. c #F5B5B6",
"c. c #F6B7B8",
"v. c #F7BABA",
"b. c #F8BCBD",
"n. c #F9BEBF",
"m. c #92D8AB",
"M. c #ADDCB9",
"N. c #E9F287",
"B. c #888BDD",
"V. c #95ADCB",
"C. c #8581E4",
"Z. c #B0AEE6",
"A. c #B3B0E8",
"S. c #B5B2E9",
"D. c #B7B4EA",
"F. c #BAB7EB",
"G. c #BCB9EA",
"H. c #F6BEC0",
"J. c #D9D1CB",
"K. c #FAC9CA",
"L. c #C4E5D5",
"P. c #CDE3DB",
"I. c #CDE4D8",
"U. c #D3EBDF",
"Y. c #C4C3EE",
"T. c #D8E6E3",
"R. c #E8EBE4",
"E. c #E4EEE8",
/* pixels */
"f d ~ J.3 1 1 2 1 1 > > : : = = ",
"| k.j.m.E.z.s a p u y r e w q * ",
"} N.' ( [ T.l.i 9 8 7 6 5 4 0 * ",
"  &.*.` ^ W L.R.K.n.n.v.c.x.n.t ",
"  % o.$._ ! U U T Y J F N m W o ",
"  $ @ ..#.G J C c x l k j g n . ",
"  # X.@.O.R C N H A N b v z P X ",
"  +.%.) J B I.T.Y.F.D.S.A.Z.G.g.",
"{ =.E D S M.B.p.w.q.0.9.8.7.t.;.",
" .] / h.P.C.f.d.s.a.i.u.y.t.r.;.",
"+ O h V.6.4.4.4.2.2.<.,.:.:.;.:."
};
