/* XPM */
static char *zw[] = {
/* columns rows colors chars-per-pixel */
"16 11 166 2",
"   c black",
".  c #000100",
"X  c #001F00",
"o  c gray10",
"O  c gray12",
"+  c #002100",
"@  c #002500",
"#  c #002900",
"$  c #002B00",
"%  c #002D00",
"&  c #003300",
"*  c #003700",
"=  c #003900",
"-  c #003D00",
";  c #252525",
":  c #2A2B2B",
">  c gray19",
",  c gray21",
"<  c gray23",
"1  c #5F0000",
"2  c #004100",
"3  c #004700",
"4  c #004D00",
"5  c #005300",
"6  c #005900",
"7  c #005D00",
"8  c #005F00",
"9  c #006300",
"0  c #006900",
"q  c #006D00",
"w  c #006F00",
"e  c #007300",
"r  c #007500",
"t  c #007900",
"y  c #007D00",
"u  c #007F00",
"i  c #404242",
"p  c #890000",
"a  c #AD0000",
"s  c #B90000",
"d  c #B02F20",
"f  c #B33425",
"g  c #B5392B",
"h  c #B83F30",
"j  c #C53614",
"k  c #C73A19",
"l  c #C93F1F",
"z  c #D73C10",
"x  c #BB4436",
"c  c #BC493C",
"v  c #BB4C3F",
"b  c #D84014",
"n  c #D94419",
"m  c #DB491F",
"M  c #CA4324",
"N  c #CC482A",
"B  c #CE4D2F",
"V  c #DD4E24",
"C  c #DE5826",
"Z  c #DE522A",
"A  c #CD5236",
"S  c #D05235",
"D  c #DD5832",
"F  c #D3573A",
"G  c #DD5A3A",
"H  c #E0552F",
"J  c #E05C2B",
"K  c #E15B34",
"L  c #E16131",
"P  c #E36536",
"I  c #E4693C",
"U  c #9C5C56",
"Y  c #BE4E41",
"T  c #A15746",
"R  c #96634E",
"E  c #A4775D",
"W  c #C15346",
"Q  c #E56D42",
"!  c #E26F44",
"~  c #E77247",
"^  c #E8764B",
"/  c #E67551",
"(  c #008100",
")  c #008500",
"_  c #059300",
"`  c #86C331",
"'  c #87C434",
"]  c #8AC637",
"[  c #8CC73B",
"{  c #8EC83F",
"}  c #DFDD00",
"|  c #E9E900",
" . c #F1F00B",
".. c #F1F10E",
"X. c #F2F113",
"o. c #F3F219",
"O. c #F4F31E",
"+. c #F5F423",
"@. c #F6F529",
"#. c #F2F12F",
"$. c #F6F62C",
"%. c #F7F72E",
"&. c #F7F731",
"*. c #F8F834",
"=. c #F8F837",
"-. c #F9F43A",
";. c #F9F93D",
":. c #A7A54B",
">. c #8AA962",
",. c #95B37E",
"<. c #B9B762",
"1. c #F2BD5E",
"2. c #E7876F",
"3. c #ED9379",
"4. c #EE977D",
"5. c #EE977E",
"6. c #90CB42",
"7. c #94CD46",
"8. c #97CE4B",
"9. c #94D24E",
"0. c #99D050",
"q. c #98D353",
"w. c #9CD154",
"e. c #9BD557",
"r. c #9FD359",
"t. c #9ED75C",
"y. c #A2D45D",
"u. c #A1D860",
"i. c #A4DA65",
"p. c #A7DC69",
"a. c #A9DD6D",
"s. c #ABDE71",
"d. c #ADDF74",
"f. c #AFE077",
"g. c #B2E179",
"h. c #FAFA42",
"j. c #FBFB47",
"k. c #F7F749",
"l. c #FCFB4F",
"z. c #FCFC4C",
"x. c #FDFD51",
"c. c #FDFC53",
"v. c #FDFD54",
"b. c #FEFD58",
"n. c #FEFC59",
"m. c #F1A28C",
"M. c #F1A690",
"N. c #F2B9A9",
"B. c #F7D68F",
"V. c #FEFD84",
"C. c #EDC5BD",
"Z. c #D7E1D7",
"A. c #E1E7E1",
"S. c #EFEFEF",
"D. c #F1ECE8",
"F. c #F1EFF1",
"G. c #EFF2F0",
"H. c #F5F4F0",
"J. c #F4F3F4",
"K. c #F5F3F5",
"L. c gray96",
"P. c gray97",
"I. c #FAFAF9",
"U. c #FCFCFB",
"Y. c #FFFAFC",
"T. c gray99",
/* pixels */
"Z.* ) ( u u r r r q 0 9 7 6 5 6 ",
"K.T.,.g.f.d.s.a.p.i.u.t.e.q.9._ ",
"L.Y.U.<.b.v.c.z.j.h.;.=.&.$.k.| ",
"L.V.M.U.E / ^ ~ Q I P L J C ! s ",
"2.B.b.4.3.U W Y c x h g f d v 1 ",
"C.m.c.l.N.L.i < , > : ; O o <   ",
"F.4.l.1.L.T F S B N M l k j A p ",
"S.U.I.D.R G K H Z V m n b z D a ",
"S.T.H.:.-.*.%.@.+.O.o.X... .#.} ",
"L.G.>.y.y.w.q.8.7.6.{ [ ] ' ` q ",
"A.  7 5 4 3 2 - = & % # @ + + # "
};
