/* XPM */
static char * mule_TrayIcon_big_ico_xpm[] = {
"22 22 169 2",
"  	c #ff0000",
". 	c #642909",
"+ 	c #682C0A",
"@ 	c #662B0A",
"# 	c #793910",
"$ 	c #682E0D",
"% 	c #672D0C",
"& 	c #672C0C",
"* 	c #672C0B",
"= 	c #652A09",
"- 	c #A65C24",
"; 	c #8E4A18",
"> 	c #72340D",
", 	c #996C47",
"' 	c #DDBF93",
") 	c #D7AD7B",
"! 	c #D09B63",
"~ 	c #C47F42",
"{ 	c #AE652B",
"] 	c #874417",
"^ 	c #692D0B",
"/ 	c #793911",
"( 	c #A55C23",
"_ 	c #7F3E13",
": 	c #9F724B",
"< 	c #D4AF80",
"[ 	c #E2B37A",
"} 	c #DA9F63",
"| 	c #C88143",
"1 	c #935122",
"2 	c #7D3D14",
"3 	c #753610",
"4 	c #6B2E0B",
"5 	c #894617",
"6 	c #B56B2F",
"7 	c #AE703D",
"8 	c #C89662",
"9 	c #D19C66",
"0 	c #AF703C",
"a 	c #96572A",
"b 	c #8C491B",
"c 	c #743510",
"d 	c #70320E",
"e 	c #C27636",
"f 	c #C9874A",
"g 	c #BF7F47",
"h 	c #A2602E",
"i 	c #7D3C13",
"j 	c #763710",
"k 	c #C47430",
"l 	c #BD6E2D",
"m 	c #A15A23",
"n 	c #99582A",
"o 	c #8D5029",
"p 	c #783D1A",
"q 	c #743610",
"r 	c #BD6E2E",
"s 	c #BC6D2D",
"t 	c #80471E",
"u 	c #AA7A55",
"v 	c #D09D73",
"w 	c #A76D43",
"x 	c #80421A",
"y 	c #6B2F0D",
"z 	c #773812",
"A 	c #C97A38",
"B 	c #BE6F2E",
"C 	c #CE9465",
"D 	c #EBD2BF",
"E 	c #F9F2ED",
"F 	c #936642",
"G 	c #A05D2A",
"H 	c #4E4038",
"I 	c #32373E",
"J 	c #783A14",
"K 	c #D08746",
"L 	c #D28E4F",
"M 	c #D89A60",
"N 	c #E6CCB2",
"O 	c #B6B5B5",
"P 	c #634F40",
"Q 	c #B8753D",
"R 	c #C28445",
"S 	c #BDA488",
"T 	c #C7C2BD",
"U 	c #BBBCBC",
"V 	c #888A8A",
"W 	c #7A3E19",
"X 	c #DA9E61",
"Y 	c #E6BD88",
"Z 	c #E0AC72",
"` 	c #DFB080",
" .	c #BD936E",
"..	c #946034",
"+.	c #C17937",
"@.	c #C58C51",
"#.	c #A5937F",
"$.	c #83807C",
"%.	c #A7A7A5",
"&.	c #B3B5B6",
"*.	c #7E421B",
"=.	c #DDA467",
"-.	c #E8C18C",
";.	c #E2B278",
">.	c #DA9D60",
",.	c #C88244",
"'.	c #B4692C",
").	c #B66F31",
"!.	c #C09265",
"~.	c #9E948A",
"{.	c #6D6D6C",
"].	c #9D9C9B",
"^.	c #BDBFC0",
"/.	c #672C0A",
"(.	c #7F4118",
"_.	c #CB894D",
":.	c #D99E60",
"<.	c #DBA164",
"[.	c #D49151",
"}.	c #C37839",
"|.	c #AF6429",
"1.	c #AA642D",
"2.	c #C0A081",
"3.	c #CBC5BB",
"4.	c #BEBEBC",
"5.	c #CCCCCA",
"6.	c #B4B6B7",
"7.	c #793A11",
"8.	c #A05822",
"9.	c #BF783D",
"0.	c #C47D41",
"a.	c #BE7435",
"b.	c #B16528",
"c.	c #A25C25",
"d.	c #A36738",
"e.	c #BEAA96",
"f.	c #D6D3CC",
"g.	c #DDDDDA",
"h.	c #D6D6D4",
"i.	c #A5A7A7",
"j.	c #6D300C",
"k.	c #7B3B10",
"l.	c #662A0A",
"m.	c #672B0B",
"n.	c #672B0A",
"o.	c #693C23",
"p.	c #777777",
"q.	c #9D9D9B",
"r.	c #A9A9A5",
"s.	c #A8A9A5",
"t.	c #747778",
"u.	c #373C42",
"v.	c #71340E",
"w.	c #8F4B19",
"x.	c #9F5721",
"y.	c #9A531F",
"z.	c #834115",
"A.	c #6E310D",
"B.	c #3E4349",
"C.	c #464A4F",
"D.	c #484C51",
"E.	c #474C51",
"F.	c #44494E",
"G.	c #72340E",
"H.	c #96511C",
"I.	c #BA6E2B",
"J.	c #B5682A",
"K.	c #9B541F",
"L.	c #783911",
"                                            ",
"                                            ",
"                                            ",
"          .                                 ",
"          .                                 ",
"        . +                                 ",
"      . @ #     $ % & * @ = . .             ",
"      @ - ; > , ' ) ! ~ { ] .               ",
"    ^ / ( _ : < [ } | 1 2 3                 ",
"    4 5 6 7 8 9 0 a b c                     ",
"    d ( e f g h i . .                       ",
"  . j k l m n o p                           ",
". . q r s t u v w x y                       ",
"    z A B C D E   F G H I I I               ",
". . J K L M N O P Q R S T U V I             ",
"  . W X Y Z `  ...+.@.#.$.%.&.I             ",
"  @ *.=.-.;.>.,.'.).!.~.{.].^.I             ",
". /.(._.:.<.[.}.|.1.2.3.4.5.6.I             ",
". + 7.8.9.0.a.b.c.d.e.f.g.h.i.I             ",
". j.k.l.m.* n.@ o.p.q.r.s.t.u.              ",
". v.w.x.y.z.A..   B.C.D.E.F.                ",
". G.H.I.J.K.L..                             "};
