/* XPM */
static char * sort_dnx2_xpm[] = {
"16 16 3 1",
" 	c None",
".	c #808080",
"+	c #FFFFFF",
"                ",
"                ",
"  .++++++++++++ ",
"   .         +  ",
"    .       +   ",
"     .     +    ",
"      .   +     ",
"  .+++++ ++++++ ",
"   .         +  ",
"    .       +   ",
"     .     +    ",
"      .   +     ",
"       . +      ",
"        .       ",
"                ",
"                "};
