/* XPM */
static char *at[] = {
/* columns rows colors chars-per-pixel */
"16 11 126 2",
"   c #DD0000",
".  c #DF0000",
"X  c #E10000",
"o  c #E30000",
"O  c #E50000",
"+  c #E70000",
"@  c #E90000",
"#  c #EB0000",
"$  c #ED0000",
"%  c #EF0000",
"&  c #F10000",
"*  c #F30000",
"=  c #F50000",
"-  c #F70000",
";  c #F90000",
":  c #FB0000",
">  c #FD0000",
",  c red",
"<  c #F10B0B",
"1  c #F10F0E",
"2  c #F21313",
"3  c #F31919",
"4  c #F41E1E",
"5  c #F52323",
"6  c #F62929",
"7  c #F22C2C",
"8  c #F22F2F",
"9  c #F62C2C",
"0  c #F72E2E",
"q  c #FB2F2F",
"w  c #F23232",
"e  c #F73131",
"r  c #F33535",
"t  c #F83434",
"y  c #F83737",
"u  c #FF3535",
"i  c #F43939",
"p  c #F53D3D",
"a  c #F93A3A",
"s  c #F93C3D",
"d  c #FA3F3F",
"f  c #F64242",
"g  c #F74646",
"h  c #FA4242",
"j  c #FA4444",
"k  c #FB4747",
"l  c #F74949",
"z  c #F74B4B",
"x  c #F74E4E",
"c  c #FC4C4C",
"v  c #F85050",
"b  c #F85353",
"n  c #FD5151",
"m  c #F95455",
"M  c #F95757",
"N  c #FD5454",
"B  c #F95858",
"V  c #FE5959",
"C  c #FA5C5C",
"Z  c #FA5D5D",
"A  c #FE5C5C",
"S  c #FE5F5F",
"D  c #F26363",
"F  c #F26666",
"G  c #FB6060",
"H  c #FB6162",
"J  c #FC6565",
"K  c #FC6666",
"L  c #F06868",
"P  c #F36A6A",
"I  c #F46E6E",
"U  c #F66E6E",
"Y  c #FC6969",
"T  c #FD6D6D",
"R  c #F57171",
"E  c #F77272",
"W  c #F67575",
"Q  c #FD7071",
"!  c #F87676",
"~  c #FE7474",
"^  c #FE7777",
"/  c #F37A7A",
"(  c #F77879",
")  c #F67F7F",
"_  c #F97A7A",
"`  c #FE7979",
"'  c #FF7B7A",
"]  c #FF7B7B",
"[  c #F87C7C",
"{  c #FA7D7D",
"}  c #F98080",
"|  c #FB8181",
" . c #FA8484",
".. c #FC8585",
"X. c #FB8888",
"o. c #FB8B8B",
"O. c #FD8888",
"+. c #FD8B8B",
"@. c #FE8F8F",
"#. c #FE9091",
"$. c #FCA0A0",
"%. c #FEA4A4",
"&. c #DFDFDF",
"*. c #E1E1E1",
"=. c #E2E2E2",
"-. c gray91",
";. c #E9E9E9",
":. c #EAEAEA",
">. c #EEEEEE",
",. c #EFEFEF",
"<. c gray94",
"1. c #F1F1F1",
"2. c #F4F4F4",
"3. c #F4F5F5",
"4. c gray96",
"5. c #F6F6F6",
"6. c gray97",
"7. c #F8F8F8",
"8. c #F9F9F9",
"9. c gray98",
"0. c #FBFBFB",
"q. c #FBFCFB",
"w. c gray99",
"e. c #FDFCFD",
"r. c #FDFDFD",
"t. c #FEFEFE",
/* pixels */
", , , , , , : : : : = * * * $ $ ",
", ] ] ] ~ ~ ~ T Y J S C M b x # ",
", ] S A A N n c k h s a e 9 l # ",
"u %.@.@.O.O. .} { ( ! E U L ) O ",
";.t.t.t.9.t.9.9.9.6.6.1.<.;.6.=.",
";.t.t.t.9.9.9.9.6.6.6.,.,.;.2.=.",
";.t.t.q.9.9.9.6.6.6.6.,.,.-.<.=.",
"q #.o.o. .} ) ( W R U L F D / . ",
"= J k s i t 9 6 5 4 3 2 1 < 8 . ",
": G S B M v c g f p i r w 8 7   ",
"* * * $ $ $ # O O O o o .       "
};
