/* XPM */
static char *az[] = {
/* columns rows colors chars-per-pixel */
"16 11 168 2",
"   c #002700",
".  c #002900",
"X  c #002D00",
"o  c #002F00",
"O  c #003300",
"+  c #003500",
"@  c #003900",
"#  c #003D00",
"$  c #004100",
"%  c #004700",
"&  c #004D00",
"*  c #005100",
"=  c #005700",
"-  c #005D00",
";  c #006300",
":  c #006700",
">  c #006F00",
",  c #007500",
"<  c #007D00",
"1  c #870000",
"2  c #930000",
"3  c #950000",
"4  c #970000",
"5  c #990000",
"6  c #BB0000",
"7  c #C10000",
"8  c #C30101",
"9  c #C30303",
"0  c #C73C3C",
"q  c #CB3E41",
"w  c #C94040",
"e  c #CD4345",
"r  c #CA4444",
"t  c #CA4545",
"y  c #CF474A",
"u  c #CD4948",
"i  c #CC4949",
"p  c #CF4D4D",
"a  c #CE4E4E",
"s  c #CF4F4F",
"d  c #CE5858",
"f  c #D15251",
"g  c #D05252",
"h  c #D05353",
"j  c #D25556",
"k  c #D25858",
"l  c #D35B5B",
"z  c #D25A5C",
"x  c #D45D5D",
"c  c #D55F5F",
"v  c #D95D60",
"b  c #D26060",
"n  c #D66161",
"m  c #D46261",
"M  c #D76363",
"N  c #D56767",
"B  c #D76666",
"V  c #D96867",
"C  c #DB6769",
"Z  c #D76868",
"A  c #D96868",
"S  c #D96A6A",
"D  c #DC6B6D",
"F  c #DA6C6C",
"G  c #DB6E6E",
"H  c #DD6F71",
"J  c #DD7070",
"K  c #DC7171",
"L  c #DC7272",
"P  c #D97274",
"I  c #DD7574",
"U  c #DD7575",
"Y  c #DE7676",
"T  c #DF7877",
"R  c #DE7979",
"E  c #DE797A",
"W  c #DF7B7C",
"Q  c #DB7D7C",
"!  c #0B9A39",
"~  c #0F9C3C",
"^  c #139F40",
"/  c #18A145",
"(  c #1EA349",
")  c #23A54D",
"_  c #2CA253",
"`  c #29A550",
"'  c #2FA455",
"]  c #2EAB55",
"[  c #2FA956",
"{  c #32A558",
"}  c #35A85B",
"|  c #34AE5B",
" . c #39A95F",
".. c #3DAC62",
"X. c #3AB160",
"o. c #3FB364",
"O. c #42AE65",
"+. c #46B069",
"@. c #44B669",
"#. c #4BB26D",
"$. c #50B471",
"%. c #54B775",
"&. c #58B979",
"*. c #5DBC7D",
"=. c #004D9D",
"-. c #005DA7",
";. c #0053A9",
":. c #0061A9",
">. c #0063AB",
",. c #0067AF",
"<. c #006DB1",
"1. c #0071B3",
"2. c #0075B7",
"3. c #0079B9",
"4. c #007DBD",
"5. c #0081BD",
"6. c #61BE80",
"7. c #66C384",
"8. c #0083C1",
"9. c #0085C3",
"0. c #0087C3",
"q. c #0089C3",
"w. c #008FCD",
"e. c #0091C7",
"r. c #2CAAD4",
"t. c #31ADD6",
"y. c #37AFD8",
"u. c #3DB2DA",
"i. c #4EB4D7",
"p. c #42B4DB",
"a. c #47B6DC",
"s. c #49B5DA",
"d. c #4CB7DC",
"f. c #53B7D8",
"g. c #51BADF",
"h. c #58B9D9",
"j. c #5CBBDB",
"k. c #61BEDD",
"l. c #54BDE0",
"z. c #59BFE2",
"x. c #65C0DD",
"c. c #69C2DF",
"v. c #5CC0E3",
"b. c #5FC2E3",
"n. c #6DC3E0",
"m. c #70C5E2",
"M. c #74C7E2",
"N. c #77C8E3",
"B. c #79C9E4",
"V. c #7BCAE4",
"C. c #7BCDE8",
"Z. c #E18787",
"A. c #E0898A",
"S. c #E48A8B",
"D. c #E38E8F",
"F. c #E58F8F",
"G. c #E59393",
"H. c #E59B9C",
"J. c #E4AAAA",
"K. c #E9B5B6",
"L. c #EABAB9",
"P. c #EDBFC1",
"I. c #EFC2C1",
"U. c #EFCDCD",
"Y. c #F0CECE",
"T. c #F1D8D9",
"R. c #F4DCDC",
"E. c #F4E2E2",
/* pixels */
"e.q.q.q.9.8.5.4.3.2.1.<.,.>.-.:.",
"9.V.V.V.V.M.n.n.n.x.k.j.h.f.i.=.",
"w.C.b.z.z.l.g.d.a.p.u.y.t.r.s.;.",
"8 G.W E U L G S N M x j h s N 4 ",
"8 G.T U J V I.R.H.L.Q g a i M 5 ",
"8 D.U L Z S.E.Z U.T.J.a i t b 4 ",
"8 S.H D S v P.Y.E K.P y r q l 2 ",
"6 Z.S Z M c l j g a i t q 0 d 1 ",
"! 7.@.o.X.| [ ` ) ( / ~ ~ ! [ @ ",
"; *.*.&.%.$.#.+.O... .} } ' _   ",
"> ; ; - = * & % $ # @ O X X . + "
};
