/* XPM */
static char *bd[] = {
/* columns rows colors chars-per-pixel */
"16 11 126 2",
"   c black",
".  c #000500",
"X  c #000D00",
"o  c #001300",
"O  c #001900",
"+  c #002100",
"@  c #002700",
"#  c #002D00",
"$  c #002F00",
"%  c #003300",
"&  c #003500",
"*  c #003700",
"=  c #003B00",
"-  c #003D00",
";  c #004100",
":  c #004300",
">  c #0B670B",
",  c #0F6A0E",
"<  c #106A10",
"1  c #136C13",
"2  c #146E14",
"3  c #197019",
"4  c #1A701A",
"5  c #1F741F",
"6  c #207520",
"7  c #257825",
"8  c #267A26",
"9  c #2B7C2B",
"0  c #2C7B2C",
"q  c #2C7C2C",
"w  c #2F7C2F",
"e  c #2F7D2F",
"r  c #327F32",
"t  c #337F32",
"y  c #6B5019",
"u  c #7C6331",
"i  c #7E6534",
"p  c #B9361F",
"a  c #CF2D1E",
"s  c #F1201F",
"d  c #D53C2E",
"f  c #ED2825",
"g  c #F32423",
"h  c #F52424",
"j  c #F42A29",
"k  c #F62A2A",
"l  c #F62B2B",
"z  c #F72F2F",
"x  c #F73030",
"c  c #F83434",
"v  c #F83535",
"b  c #F83636",
"n  c #F53836",
"m  c #F63C3A",
"M  c #F93B3A",
"N  c #F93B3B",
"B  c #F93B3C",
"V  c #F93C3C",
"C  c #BE412B",
"Z  c #846C3D",
"A  c #856E3F",
"S  c #947F54",
"D  c #DB4F42",
"F  c #C85945",
"G  c #DF5C51",
"H  c #FA4040",
"J  c #FA4141",
"K  c #FA4142",
"L  c #FB4646",
"P  c #FB4747",
"I  c #F94847",
"U  c #F44D4B",
"Y  c #FC4B4B",
"T  c #FA4C4C",
"R  c #FA5151",
"E  c #CC6350",
"W  c #318131",
"Q  c #358235",
"!  c #368236",
"~  c #378437",
"^  c #398439",
"/  c #3B853B",
"(  c #3A863A",
")  c #3D863D",
"_  c #3F893F",
"`  c #3F8A3F",
"'  c #428A42",
"]  c #448C44",
"[  c #448E44",
"{  c #458E45",
"}  c #468D46",
"|  c #498F49",
" . c #499149",
".. c #4B904B",
"X. c #4E934E",
"o. c #4F954F",
"O. c #509350",
"+. c #539653",
"@. c #539753",
"#. c #549754",
"$. c #549655",
"%. c #589857",
"&. c #589958",
"*. c #589A58",
"=. c #589B59",
"-. c #599B59",
";. c #5C9B5C",
":. c #5C9D5C",
">. c #5D9D5D",
",. c #5F9F5F",
"<. c #619E60",
"1. c #619F62",
"2. c #65A165",
"3. c #66A366",
"4. c #69A469",
"5. c #6AA56A",
"6. c #6DA76D",
"7. c #6FA86F",
"8. c #70A971",
"9. c #72AA73",
"0. c #74AB74",
"q. c #76AD76",
"w. c #77AD77",
"e. c #79AE79",
"r. c #7BB07A",
"t. c #7BB07B",
/* pixels */
": : : : : = & % $ @ + O o X .   ",
": t.t.e.w.0.8.6.5.1.<.;.%.$.X.  ",
": t.,.,.:.S G T P D A ~ W q |   ",
": w.:.*.S R Y P H V n u 9 8 ]   ",
"= w.*.@.E Y L H V c x C 7 6 _   ",
"= 9.@.o.U L H M c x l f 5 4 /   ",
"& 7.o. .F H M c x l h p 3 2 !   ",
"$ 5. .{ A m c z l h s y 2 < t   ",
"@ 2.{ _ / i d l g a y < , > e   ",
"+ 1.,.&.$.O.| { ' ) / ! t e q   ",
"O o X .                         "
};
