/* XPM */
static char *be[] = {
/* columns rows colors chars-per-pixel */
"16 11 133 2",
"   c black",
".  c #3A3A3A",
"X  c #3F3F3F",
"o  c #403F3F",
"O  c #444444",
"+  c gray27",
"@  c #494949",
"#  c #494A49",
"$  c #4B4A4B",
"%  c gray31",
"&  c #504F50",
"*  c #535353",
"=  c gray33",
"-  c #545455",
";  c #585858",
":  c #585959",
">  c gray35",
",  c gray36",
"<  c #5D5D5D",
"1  c #5F5F5F",
"2  c #616162",
"3  c gray40",
"4  c #6A6A6A",
"5  c #6F6F6F",
"6  c #727273",
"7  c #767676",
"8  c #777777",
"9  c #797979",
"0  c #7B7B7A",
"q  c #7B7B7B",
"w  c #A50000",
"e  c #C10000",
"r  c #C30000",
"t  c #C70000",
"y  c #C90000",
"u  c #E30000",
"i  c #E50000",
"p  c #E70000",
"a  c #E90000",
"s  c #EB0000",
"d  c #ED0000",
"f  c #EF0000",
"g  c #F10000",
"h  c #F30000",
"j  c #F50000",
"k  c #F10B0B",
"l  c #F10F0E",
"z  c #F21010",
"x  c #F21313",
"c  c #F21414",
"v  c #F31919",
"b  c #F31A1A",
"n  c #F41F1F",
"m  c #F42020",
"M  c #F52525",
"N  c #F52626",
"B  c #F62B2B",
"V  c #F22C2C",
"C  c #F22F2F",
"Z  c #F62C2C",
"A  c #F23232",
"S  c #F33232",
"D  c #F73131",
"F  c #F33535",
"G  c #F43636",
"H  c #F83737",
"J  c #F43B3B",
"K  c #F53F3F",
"L  c #F64444",
"P  c #F74949",
"I  c #F74E4E",
"U  c #F85353",
"Y  c #F95757",
"T  c #FA5C5C",
"R  c #CFDB00",
"E  c #DFD100",
"W  c #D1DF00",
"Q  c #DBDD00",
"!  c #D5E100",
"~  c #E1E300",
"^  c #FBE700",
"/  c #F7E900",
"(  c #F1EF00",
")  c #FDE900",
"_  c #F9F700",
"`  c #F4ED1F",
"'  c #F3F219",
"]  c #F4F41E",
"[  c #F5EE24",
"{  c #F6EF2B",
"}  c #F5F523",
"|  c #F5F524",
" . c #F6F629",
".. c #F6F62A",
"X. c #F7F72E",
"o. c #F7F72F",
"O. c #F4ED39",
"+. c #F7F130",
"@. c #F7F730",
"#. c #F1F134",
"$. c #F8F236",
"%. c #F8F834",
"&. c #F8F835",
"*. c #F8F836",
"=. c #F2F23A",
"-. c #F5F53D",
";. c #F9F33D",
":. c #F9F93A",
">. c #F9F93B",
",. c #F9F93C",
"<. c #F3F340",
"1. c #F6F642",
"2. c #F4F446",
"3. c #F7F746",
"4. c #FAFA40",
"5. c #FAFA41",
"6. c #FAFA42",
"7. c #FBFB46",
"8. c #FBFB47",
"9. c #F5F54B",
"0. c #F7F74B",
"q. c #FCFC4B",
"w. c #FCFC4C",
"e. c #F2F250",
"r. c #F6F651",
"t. c #F7F754",
"y. c #FDFD51",
"u. c #FBF660",
"i. c #FCFC65",
"p. c #FCFC69",
"a. c #FDFD6D",
"s. c #FDFD71",
"d. c #F9F974",
/* pixels */
"          ( ) ) ) _ / j h h f f ",
"  q q q 8 d.s.a.p.i.u.T Y U I a ",
"  q < < > t.y.w.8.6.;.H D Z P a ",
"  q , ; - r.w.8.6.,.$.D B N L p ",
"  7 ; = % 9.8.6.,.*.+.B N m K p ",
"  6 * % @ 2.,.-.*.@.{ N n v J p ",
"  5 % @ + -.>.*.o...[ n v c F u ",
"  4 @ + O =.@.@...| ` v c z A t ",
"  3 + X . #.X...} ] ' z z k C e ",
"  2 < ; - e.0.2.1.-.O.F A C V e ",
"          Q ! ! R ~ E t y e y w "
};
