/* XPM */
static char *bh[] = {
/* columns rows colors chars-per-pixel */
"16 11 117 2",
"   c #DD0000",
".  c #DF0000",
"X  c #E10000",
"o  c #E30000",
"O  c #E50000",
"+  c #E70000",
"@  c #E90000",
"#  c #EB0000",
"$  c #ED0000",
"%  c #EF0000",
"&  c #F10000",
"*  c #F30000",
"=  c #F50000",
"-  c #F90000",
";  c #FB0000",
":  c #FD0000",
">  c #FD0303",
",  c #F10B0B",
"<  c #F10F0E",
"1  c #F21010",
"2  c #F21313",
"3  c #F21414",
"4  c #F31919",
"5  c #F31A1A",
"6  c #F41E1E",
"7  c #F41F1F",
"8  c #F42020",
"9  c #F52323",
"0  c #F52424",
"q  c #F52525",
"w  c #F52626",
"e  c #F62929",
"r  c #F62A2A",
"t  c #F62B2B",
"y  c #F22C2C",
"u  c #F22F2F",
"i  c #F62C2C",
"p  c #F72E2E",
"a  c #F72F2F",
"s  c #F23232",
"d  c #F33232",
"f  c #F73030",
"g  c #F73131",
"h  c #F33535",
"j  c #F43636",
"k  c #F83434",
"l  c #F83535",
"z  c #F83636",
"x  c #F83737",
"c  c #F43B3B",
"v  c #F53D3D",
"b  c #F53F3F",
"n  c #F93B3A",
"m  c #F93B3B",
"M  c #F93B3C",
"N  c #F93C3C",
"B  c #F64242",
"V  c #F64444",
"C  c #F74646",
"Z  c #FA4040",
"A  c #FA4141",
"S  c #FA4142",
"D  c #FA4242",
"F  c #FB4646",
"G  c #FB4747",
"H  c #F74949",
"J  c #F74B4B",
"K  c #F74E4E",
"L  c #FC4B4B",
"P  c #FC4C4C",
"I  c #F95151",
"U  c #F85353",
"Y  c #FB5252",
"T  c #FD5151",
"R  c #F95756",
"E  c #F95757",
"W  c #FD5757",
"Q  c #F85858",
"!  c #FD5B5C",
"~  c #FA5C5C",
"^  c #FB6665",
"/  c #FC6565",
"(  c #FC6969",
")  c #FE6A69",
"_  c #FD6D6D",
"`  c #FD6E6E",
"'  c #FD7071",
"]  c #EF8787",
"[  c #FE8686",
"{  c #FFA9A9",
"}  c #FAC4C4",
"|  c #FBC8C7",
" . c #FDD0D0",
".. c #FED0D0",
"X. c #F9D8D8",
"o. c #E9E9E9",
"O. c #EAEAEA",
"+. c #ECECEC",
"@. c #EEEEEE",
"#. c #FAE2E2",
"$. c #FEE8E7",
"%. c #FDEBEB",
"&. c #FCECEC",
"*. c gray94",
"=. c #F1F1F1",
"-. c gray95",
";. c #F3F3F3",
":. c #F9F7F7",
">. c gray98",
",. c #FBFAFA",
"<. c #FBFBFB",
"1. c gray99",
"2. c #FDFDFD",
"3. c #FEFDFC",
"4. c #FEFDFD",
"5. c #FEFEFE",
"6. c gray100",
/* pixels */
"-.-.-.-.{ > > > > ; ; = * * % % ",
"-.6.6.6.3.$.[ ` ` ^ ^ ~ Q U K @ ",
"-.6.6.6. .) W T P G A x g i H @ ",
"-.<.6.6.6.%.` L F A N g i w V + ",
"@.6.6.6. .! L F A N k r w 8 b + ",
"@.6.<.6.<.&.^ A M k g w 7 5 c + ",
"-.6.<.<.} Y A n k g r 7 5 3 j X ",
"@.<.<.<.<.#.R k a r 9 5 2 1 s . ",
"O.<.:.<.} I k p r 9 7 2 , , u . ",
"O.<.<.<.:.X.! J C B b j s u y . ",
"O.-.-.-.] @ @ @ @ + + . .       "
};
