/* XPM */
static char *br[] = {
/* columns rows colors chars-per-pixel */
"16 11 147 2",
"   c black",
".  c #000300",
"X  c #000700",
"o  c #000B00",
"O  c #000D00",
"+  c #000F00",
"@  c #001300",
"#  c #001900",
"$  c #001B00",
"%  c #002100",
"&  c #002700",
"*  c #002D00",
"=  c #002F00",
"-  c #003500",
";  c #003B00",
":  c #004100",
">  c #004700",
",  c #004B00",
"<  c #004D00",
"1  c #005100",
"2  c #005300",
"3  c #005700",
"4  c #005B00",
"5  c #005D00",
"6  c #006100",
"7  c #006300",
"8  c #157F15",
"9  c #198219",
"0  c #1D851D",
"q  c #1E851E",
"w  c #379714",
"e  c #228722",
"r  c #2A8C2A",
"t  c #30902F",
"y  c #368A36",
"u  c #358F35",
"i  c #349334",
"p  c #359335",
"a  c #369136",
"s  c #379237",
"d  c #3A933B",
"f  c #3B943B",
"g  c #3B963B",
"h  c #3E963E",
"j  c #39A434",
"k  c #76B73B",
"l  c #3F9940",
"z  c #419841",
"x  c #429B42",
"c  c #459945",
"v  c #459D45",
"b  c #479C47",
"n  c #479E47",
"m  c #4C9E4C",
"M  c #4CA14C",
"N  c #4DA14D",
"B  c #51A251",
"V  c #52A252",
"C  c #51A451",
"Z  c #56A456",
"A  c #57A457",
"S  c #5BA75B",
"D  c #5BA85B",
"F  c #5CAA5C",
"G  c #5FAC5F",
"H  c #63B24F",
"J  c #60A95F",
"K  c #60B058",
"L  c #60AA60",
"P  c #60AC60",
"I  c #63AE63",
"U  c #64AD64",
"Y  c #64AD65",
"T  c #67AF67",
"R  c #68AF69",
"E  c #66B067",
"W  c #6BB16B",
"Q  c #6DB36D",
"!  c #71B471",
"~  c #75B875",
"^  c #77B877",
"/  c #7ABA7A",
"(  c #7BBB7B",
")  c #7DBB7D",
"_  c #7FBD7F",
"`  c #A4D419",
"'  c #9ED231",
"]  c #AFDC3F",
"[  c #F4E91F",
"{  c #F3F319",
"}  c #F3F31A",
"|  c #F4F41E",
" . c #F4F41F",
".. c #F5F525",
"X. c #F6F62B",
"o. c #F7F72E",
"O. c #F8EF36",
"+. c #F9F03A",
"@. c #ADDD46",
"#. c #A8D954",
"$. c #B0E142",
"%. c #95CA73",
"&. c #B7E269",
"*. c #B3E26D",
"=. c #F5ED44",
"-. c #FAFA42",
";. c #FBFB45",
":. c #F6F249",
">. c #FBFC49",
",. c #FCFC4B",
"<. c #FCFC4F",
"1. c #FDF351",
"2. c #FDFC50",
"3. c #FDFD51",
"4. c #FDFD53",
"5. c #FBFB55",
"6. c #FAFD54",
"7. c #FCFC5A",
"8. c #6D73AA",
"9. c #2A5EF6",
"0. c #2F61F7",
"q. c #2F6BF7",
"w. c #3670F8",
"e. c #3B74F9",
"r. c #4271FA",
"t. c #4775FB",
"y. c #4078FA",
"u. c #4478F8",
"i. c #6569E2",
"p. c #6067EE",
"a. c #6A6FEA",
"s. c #7777E3",
"d. c #7E9FD9",
"f. c #5C83E9",
"g. c #739AF9",
"h. c #80BE80",
"j. c #80BE81",
"k. c #81BE81",
"l. c #8F94B3",
"z. c #ADACA1",
"x. c #CDCAA6",
"c. c #ACC6EB",
"v. c #A8C0F3",
"b. c #A9C0F6",
"n. c #B9D5F7",
"m. c #DFE9F4",
"M. c #D0E1FB",
/* pixels */
"7 7 7 7 7 5 4 3 2 , , : ; - = & ",
"7 k.k._ ) ( ^ *.&.R T Y J S A % ",
"7 h.E I J F 4.7.5.-.b h g p B # ",
"7 _ I G #.1.s.t.r.i.O.' i t m @ ",
"7 ( K 6.4.x.M.m.c.w.8.X...r b o ",
"4 %.4.<.>.f.y.g.v.n.d... .} k   ",
"3 ~ H >.;.l.e.u.q.b.z. .{ w y + ",
"2 ! C N ] +.p.0.9.a.[ ` q 9 d   ",
"< Q N b z j o.:.=. .e q 9 8 p   ",
"> R Y G D S B @.$.b z h g p u   ",
": ; - = & % # @ o X             "
};
