/* XPM */
static char *bt[] = {
/* columns rows colors chars-per-pixel */
"16 11 151 2",
"   c #DD0000",
".  c #DF0000",
"X  c #E10000",
"o  c #E30000",
"O  c #E50000",
"+  c #E70000",
"@  c #E90000",
"#  c #EB0000",
"$  c #E90500",
"%  c #ED0B00",
"&  c #ED0F00",
"*  c #F10000",
"=  c #F30700",
"-  c #EF1500",
";  c #ED5300",
":  c #F25714",
">  c #F1670B",
",  c #F16B0E",
"<  c #F26413",
"1  c #F26B10",
"2  c #F26F14",
"3  c #F36319",
"4  c #F36419",
"5  c #F3701A",
"6  c #F4741E",
"7  c #F4741F",
"8  c #CE6D3E",
"9  c #F46720",
"0  c #F56D23",
"q  c #F4632C",
"w  c #F66D2A",
"e  c #F57326",
"r  c #F27B2C",
"t  c #F27C2F",
"y  c #F27D2F",
"u  c #F86934",
"i  c #F27F32",
"p  c #F37F32",
"a  c #F39F00",
"s  c #EFBB00",
"d  c #F3B100",
"f  c #F3B300",
"g  c #F5B100",
"h  c #F1B700",
"j  c #F7B700",
"k  c #F5B900",
"l  c #F7BB00",
"z  c #F5BF00",
"x  c #F9BD00",
"c  c #FBBD00",
"v  c #F9BF00",
"b  c #FBBF00",
"n  c #F38035",
"m  c #F48236",
"M  c #F48239",
"N  c #F4853B",
"B  c #F5873D",
"V  c #F58A3F",
"C  c #F7C300",
"Z  c #F9C100",
"A  c #F9C300",
"S  c #BA977C",
"D  c #D78B57",
"F  c #E68844",
"G  c #F68542",
"H  c #F68D44",
"J  c #F78649",
"K  c #F78E4E",
"L  c #F88A50",
"P  c #F98F55",
"I  c #F98858",
"U  c #F19151",
"Y  c #DFBB56",
"T  c #F9AB5F",
"R  c #FBD346",
"E  c #FBD647",
"W  c #FBDE45",
"Q  c #F2D24D",
"!  c #FBDA49",
"~  c #FCDB4B",
"^  c #FBDC49",
"/  c #FCDF4B",
"(  c #FCD94F",
")  c #FCDA4F",
"_  c #ECD75F",
"`  c #F8D753",
"'  c #F7DD57",
"]  c #FDD951",
"[  c #FDDA50",
"{  c #FDDB51",
"}  c #FDDB53",
"|  c #FDDB54",
" . c #FEDC58",
".. c #FEDC59",
"X. c #FADD5C",
"o. c #FEDE5C",
"O. c #FEDF5F",
"+. c #E5CD61",
"@. c #FBDC60",
"#. c #FCDF6A",
"$. c #FBE462",
"%. c #FCE266",
"&. c #FDE26D",
"*. c #FDE16F",
"=. c #FDE271",
"-. c #FEE273",
";. c #FAE472",
":. c #FEE274",
">. c #FEE376",
",. c #FEE477",
"<. c #FCE479",
"1. c #FEE579",
"2. c #FFE57A",
"3. c #FFE57B",
"4. c #F5A487",
"5. c #ECBA95",
"6. c #F8E28B",
"7. c #FCE88F",
"8. c #F2E69B",
"9. c #E8DBA7",
"0. c #E6CAB9",
"q. c #E8E4BB",
"w. c #D4CECC",
"e. c #D6D0CF",
"r. c #CFD7DD",
"t. c #D6D7D9",
"y. c #DDD8D8",
"u. c #DFDFDF",
"i. c #E0C0C0",
"p. c #E3CFC1",
"a. c #EAD2C3",
"s. c #E0D7C9",
"d. c #E8D8D0",
"f. c #EBDDD5",
"g. c #D8E2CE",
"h. c #D6D7E5",
"j. c #D4DBE6",
"k. c #D6DDEE",
"l. c #DEE0E1",
"z. c #D9E0E4",
"x. c #DBE2ED",
"c. c #DDE5EC",
"v. c #E7E4E2",
"b. c #E7E4E4",
"n. c #EFE8E5",
"m. c #EAEAEA",
"M. c #EAEAEB",
"N. c #EDEBEE",
"B. c #EAEDF3",
"V. c #F0F2F6",
"C. c #FAFAF7",
/* pixels */
"C b b z b z k j b b j g d h s ; ",
"b 3.3.3.>.-.-.&.7.6.@.X.' ` K # ",
"A 3.O.o.o.} ( 3.C.V.m._ Y q J $ ",
"A 3.o. .} } / E m.B.n.N.8 e H + ",
"A >. .} } ! Q +.9.x.S r.p.9 V + ",
"b -.} ( ~ R k.h.z.c.v.b.7 5 N + ",
"k *.( ! W q.j.f.d.t.a.F 3 2 m X ",
"k #.^ 8.g.e.y.0.w 4.u.w.: 1 p . ",
"h %.;.s.w.u l.D 0 6 3 < , > t . ",
"z $.T I L L 5.U G B M m p t r   ",
"a = * - = = # + + + X X .       "
};
