/* XPM */
static char *cg[] = {
/* columns rows colors chars-per-pixel */
"16 11 125 2",
"   c #DD0000",
".  c #DF0000",
"X  c #E10000",
"o  c #E30000",
"O  c #E50000",
"+  c #E70000",
"@  c #E90000",
"#  c #EB0000",
"$  c #F10B0B",
"%  c #F10F0E",
"&  c #F21010",
"*  c #F21313",
"=  c #F21414",
"-  c #F31919",
";  c #F31A1A",
":  c #F41E1E",
">  c #F41F1F",
",  c #F42020",
"<  c #F52725",
"1  c #F52B23",
"2  c #F52B24",
"3  c #F52A25",
"4  c #F52826",
"5  c #F22C2C",
"6  c #F22F2F",
"7  c #F23232",
"8  c #F33232",
"9  c #F33535",
"0  c #F43636",
"q  c #F43939",
"w  c #F43B3B",
"e  c #F53D3D",
"r  c #F53F3F",
"t  c #ED4900",
"y  c #F64242",
"u  c #F64444",
"i  c #F74949",
"p  c #F75346",
"a  c #00B100",
"s  c #00B700",
"d  c #00B900",
"f  c #00BB00",
"g  c #00BD00",
"h  c #00BF00",
"j  c #00C100",
"k  c #00C300",
"l  c #00C700",
"z  c #4DD500",
"x  c #49D649",
"c  c #49D749",
"v  c #4BD74B",
"b  c #4DD74B",
"n  c #4DD84B",
"m  c #4FD94F",
"M  c #50D84C",
"N  c #50D950",
"B  c #51D951",
"V  c #53DB53",
"C  c #54DB54",
"Z  c #58DC58",
"A  c #58DC59",
"S  c #59DC59",
"D  c #5CDE5C",
"F  c #5FDF5F",
"G  c #66DD66",
"H  c #6EDF69",
"J  c #6DDF6D",
"K  c #6AE06A",
"L  c #6FE16F",
"P  c #70E271",
"I  c #72E273",
"U  c #74E274",
"Y  c #76E376",
"T  c #77E377",
"R  c #79E479",
"E  c #7BE47A",
"W  c #7BE47B",
"Q  c #EDBF00",
"!  c #F6A52B",
"~  c #F6A02C",
"^  c #F6AA2B",
"/  c #F6AF2B",
"(  c #F6B32A",
")  c #F6BD29",
"_  c #EDC300",
"`  c #EFC500",
"'  c #F1C901",
"]  c #F3CB09",
"[  c #F5CD11",
"{  c #F7D117",
"}  c #F7F72E",
"|  c #F7F72F",
" . c #F7F730",
".. c #F7F731",
"X. c #F8F834",
"o. c #F8F835",
"O. c #F8F836",
"+. c #F8F837",
"@. c #F9F93A",
"#. c #F9F93B",
"$. c #F9F93C",
"%. c #F9F93D",
"&. c #FAFA3F",
"*. c #F7AE4E",
"=. c #9EE844",
"-. c #A5EA45",
";. c #ABEB45",
":. c #B1EC46",
">. c #B3ED46",
",. c #B4ED47",
"<. c #BFF047",
"1. c #ACEB62",
"2. c #F7CB4B",
"3. c #FAFA40",
"4. c #FAFA41",
"5. c #FAFA42",
"6. c #F8F850",
"7. c #F8F853",
"8. c #F9F955",
"9. c #F9F957",
"0. c #F9F958",
"q. c #FAFA5C",
"w. c #FAFA5D",
"e. c #CAF265",
"r. c #FBFB60",
/* pixels */
"l k k k k k f g f s [ [ ] ' ` t ",
"k W W W Y U I J H e.r.q.q.7.*.# ",
"k W F D D V V M <.4.%.+...~ i # ",
"k R D Z C M b ,.4.%.+...! 4 u + ",
"k Y Z V V x :.4.&.o.| ^ < , r + ",
"g I V m b :.4.@.+.../ 4 > ; w + ",
"g L m x ;.&.@.o.| ( 1 > ; = 0 X ",
"f K x -.&.@.o.| ( 1 > ; = & 7 . ",
"s G =.&.@...| ) 1 > = = % $ 6 . ",
"a 1.q.q.9.6.2.p y w w 0 7 6 6 . ",
"z ] ' ` _ Q # + + + X X .       "
};
