/* XPM */
static char *do_[] = {
/* columns rows colors chars-per-pixel */
"16 11 141 2",
"   c #000053",
".  c #000055",
"X  c #000059",
"o  c #00005D",
"O  c #00005F",
"+  c #000063",
"@  c #BB0000",
"#  c #BF0000",
"$  c #C30000",
"%  c #C50000",
"&  c #C90000",
"*  c #CB0000",
"=  c #CF0000",
"-  c #D10000",
";  c #D50000",
":  c #D70000",
">  c #D90000",
",  c #DB0000",
"<  c #DD0000",
"1  c #E12020",
"2  c #E22525",
"3  c #E22626",
"4  c #E32B2B",
"5  c #E42B2B",
"6  c #E42C2C",
"7  c #E42E2E",
"8  c #E53030",
"9  c #E53131",
"0  c #E63434",
"q  c #E73636",
"w  c #E73736",
"e  c #E73737",
"r  c #E73A3A",
"t  c #E73B3A",
"y  c #E43F3F",
"u  c #E83C3C",
"i  c #E83C3D",
"p  c #E83F3F",
"a  c #E64444",
"s  c #E84040",
"d  c #E94242",
"f  c #EA4444",
"g  c #EA4545",
"h  c #E74949",
"j  c #E74B4B",
"k  c #EB4949",
"l  c #EB4A49",
"z  c #E84E4E",
"x  c #EC4F4F",
"c  c #E85050",
"v  c #E95353",
"b  c #EA5455",
"n  c #EB5757",
"m  c #EB5858",
"M  c #EC5C5C",
"N  c #EC5D5D",
"B  c #ED6060",
"V  c #ED6162",
"C  c #EE6565",
"Z  c #EE6666",
"A  c #EF6A6A",
"S  c #F06F6F",
"D  c #001D9D",
"F  c #001F9F",
"G  c #0023A1",
"H  c #0025A1",
"J  c #0027A3",
"K  c #0329A3",
"L  c #3654AE",
"P  c #3A57AF",
"I  c #3B57AF",
"U  c #3E5AB2",
"Y  c #3F5BB2",
"T  c #435EB4",
"R  c #435FB4",
"E  c #445FB4",
"W  c #4762B6",
"Q  c #4863B6",
"!  c #4D67B9",
"~  c #516AB8",
"^  c #516BBB",
"/  c #546DB9",
"(  c #556DB9",
")  c #566FBB",
"_  c #586FBB",
"`  c #5A72BC",
"'  c #5B72BD",
"]  c #5D75BE",
"[  c #6078C0",
"{  c #697FC7",
"}  c #6D83C9",
"|  c #7186CA",
" . c #7187CB",
".. c #7287CB",
"X. c #758ACC",
"o. c #788DCE",
"O. c #798DCE",
"+. c #7B8FCF",
"@. c #7E92D0",
"#. c #8B9DD4",
"$. c #8F9FD6",
"%. c #8FA1D7",
"&. c #91A1D7",
"*. c #93A3D8",
"=. c #93A4D8",
"-. c #94A4D8",
";. c #94A5D8",
":. c #95A5D8",
">. c #E9D5D1",
",. c #D9DFE7",
"<. c gray90",
"1. c #F6ECEA",
"2. c #F7EDEB",
"3. c #F7EEED",
"4. c #FBEFED",
"5. c #EDF2F5",
"6. c #EFF3F6",
"7. c #EDF3FD",
"8. c #F3F3F3",
"9. c #F4F4F4",
"0. c #F4F5F5",
"q. c gray96",
"w. c #F5F6F7",
"e. c #F6F6F6",
"r. c gray97",
"t. c #F8F4F3",
"y. c #FAF4F2",
"u. c #FBF5F4",
"i. c #F9F6F5",
"p. c #FCF7F7",
"a. c #F2F7FB",
"s. c #F6F8FA",
"d. c #F4F8FC",
"f. c #F7F9FD",
"g. c #F8F8F8",
"h. c #F9F9F9",
"j. c gray98",
"k. c #FBFBFB",
"l. c gray99",
"z. c #FDFDFD",
"x. c #FEFEFE",
/* pixels */
"K K K K J F D 7.4., : : = = * * ",
"K :.:.=.&.%.#.s.p.C B N n v z $ ",
"K =.@.+.+...| d.p.d t e 9 6 h $ ",
"J *.+.o.X.| } a.y.r e 9 5 3 a # ",
"G %.+...| } { w.t.w 8 4 3 1 t @ ",
"x.x.x.x.l.k.k.k.h.w.w.w.9.8.w.<.",
"< A v k f s r t.w./ ! W W Y ' O ",
", A k g p r 0 2.6.! W R U I _ X ",
", C g t r 9 6 2.6.W R U P L /   ",
": C N n n v j 3.6.] ] ` ) / ~   ",
"; = = * * $ $ >.,.+ O O X .     "
};
