/* XPM */
static char *ee[] = {
/* columns rows colors chars-per-pixel */
"16 11 114 2",
"   c black",
".  c gray8",
"X  c #191919",
"o  c gray10",
"O  c gray12",
"+  c #202020",
"@  c gray14",
"#  c #252525",
"$  c #2A2A2A",
"%  c #2A2B2B",
"&  c gray17",
"*  c #2F2F2F",
"=  c gray19",
"-  c #353535",
";  c gray21",
":  c #3B3B3A",
">  c gray23",
",  c #3B3B3C",
"<  c #3F3F3F",
"1  c gray25",
"2  c #414141",
"3  c gray27",
"4  c #464646",
"5  c #494A49",
"6  c #4B4A4B",
"7  c #4B4B4B",
"8  c gray31",
"9  c #504F50",
"0  c #535353",
"q  c gray33",
"w  c #585858",
"e  c #6F6F6F",
"r  c #727273",
"t  c #767676",
"y  c #000093",
"u  c #000097",
"i  c #00009B",
"p  c #00009F",
"a  c #0005A3",
"s  c #000DA5",
"d  c #0013A9",
"f  c #0019AD",
"g  c #0021B1",
"h  c #0027B3",
"j  c #002DB5",
"k  c #0033B9",
"l  c #0037BB",
"z  c #003BBD",
"x  c #0041BF",
"c  c #0043BF",
"v  c #267ACC",
"b  c #2B7CCE",
"n  c #2C7CCE",
"m  c #3180D0",
"M  c #3181D0",
"N  c #3784D1",
"B  c #3784D2",
"V  c #3C88D3",
"C  c #3D88D4",
"Z  c #448CD3",
"A  c #428BD5",
"S  c #478FD7",
"D  c #498FD5",
"F  c #4E93D7",
"G  c #4B92D8",
"H  c #4C92D8",
"J  c #5396D8",
"K  c #5195DA",
"L  c #5498DB",
"P  c #5898D9",
"I  c #5C9BDB",
"U  c #589BDC",
"Y  c #599BDD",
"T  c #5C9DDE",
"R  c #5F9FDF",
"E  c #619EDD",
"W  c #65A1DD",
"Q  c #69A4DF",
"!  c #6DA7E0",
"~  c #70A9E2",
"^  c #74ABE2",
"/  c #77ADE3",
"(  c #79AEE4",
")  c #7BB0E4",
"_  c gray75",
"`  c #C1C1C1",
"'  c #C3C3C3",
"]  c #C5C5C5",
"[  c gray79",
"{  c #CBCBCB",
"}  c gray81",
"|  c gray82",
" . c LightGray",
".. c #D7D7D7",
"X. c #D9D7D9",
"o. c gray85",
"O. c gray86",
"+. c #DFDFDF",
"@. c #E1E1E1",
"#. c gray89",
"$. c gray90",
"%. c #F1F1F1",
"&. c gray95",
"*. c #F2F2F3",
"=. c #F3F3F3",
"-. c #F4F4F4",
";. c gray96",
":. c #F6F6F6",
">. c gray97",
",. c #F8F8F8",
"<. c #F9F9F9",
"1. c gray98",
"2. c #FBFBFB",
"3. c gray99",
/* pixels */
"c c c c c z l k j h g f d s a p ",
"c ) ) ( / ^ ~ ! Q E E I P K F i ",
"c ) R R Y L K H D A C V M n D u ",
"c / R L L K G S A C B n n v Z y ",
"  t w q 9 5 4 2 , - = & # + <   ",
"  r 0 8 6 4 1 : - = & @ O o >   ",
"  e 8 5 4 < : - = & @ O X . -   ",
"$.3.2.2.2.2.>.>.>.>.=.=.=.=.=.] ",
"#.2.2.2.2.>.>.>.=.=.=.=.%.%.=._ ",
"#.2.>.2.>.>.>.>.>.>.=.=.=.=.=._ ",
"+.O.O.X...| | } [ [ ] ] ' _ _ _ "
};
