/* XPM */
static char *er[] = {
/* columns rows colors chars-per-pixel */
"16 11 166 2",
"   c black",
".  c #003F00",
"X  c #5F3500",
"o  c #004900",
"O  c #004D00",
"+  c #005100",
"@  c #005F00",
"#  c #006300",
"$  c #006900",
"%  c #006D00",
"&  c #0B6B00",
"*  c #007100",
"=  c #007700",
"-  c #007B00",
";  c #007F00",
":  c #6E7021",
">  c #550041",
",  c #B10000",
"<  c #C30900",
"1  c #DF0000",
"2  c #E10000",
"3  c #E50000",
"4  c #E70000",
"5  c #EF0000",
"6  c #F11A1A",
"7  c #F41F1F",
"8  c #DB272E",
"9  c #DC352E",
"0  c #DF2F37",
"q  c #EB2525",
"w  c #EC2424",
"e  c #E72D2D",
"r  c #EE2A2A",
"t  c #E92F2F",
"y  c #EF2F2F",
"u  c #E73333",
"i  c #E83639",
"p  c #E63F3C",
"a  c #EC3B3F",
"s  c #F13034",
"d  c #F33639",
"f  c #AA4F28",
"g  c #817E38",
"h  c #B8613E",
"j  c #EC5D37",
"k  c #EF773D",
"l  c #F47634",
"z  c #F7753A",
"x  c #F5753F",
"c  c #B1375C",
"v  c #B93E61",
"b  c #C53C5E",
"n  c #D34A4A",
"m  c #E44844",
"M  c #EF4D45",
"N  c #EC4648",
"B  c #F5474A",
"V  c #EF5F44",
"C  c #EF594D",
"Z  c #CA6852",
"A  c #F16B56",
"S  c #EF7857",
"D  c #FB735B",
"F  c #FA7F5E",
"G  c #ED5F63",
"H  c #D3647E",
"J  c #F56162",
"K  c #F46762",
"L  c #F16669",
"P  c #F57B7C",
"I  c #F27E7E",
"U  c #FB7B7E",
"Y  c #008500",
"T  c #008900",
"R  c #008B00",
"E  c #009100",
"W  c #26AA26",
"Q  c #2BA92B",
"!  c #2CA92C",
"~  c #31AC31",
"^  c #37B037",
"/  c #3DB43D",
"(  c #499B32",
")  c #55A03F",
"_  c #54AF48",
"`  c #42B442",
"'  c #44B344",
"]  c #49B449",
"[  c #4EB74E",
"{  c #53B953",
"}  c #58BC57",
"|  c #5CBE5C",
" . c #61C060",
".. c #65C265",
"X. c #69C569",
"o. c #6DC86D",
"O. c #70C571",
"+. c #F4B93A",
"@. c #F6D63B",
"#. c #97874E",
"$. c #8AB675",
"%. c #B1A078",
"&. c #F29D42",
"*. c #F59C50",
"=. c #F59059",
"-. c #F4AF46",
";. c #FAB54D",
":. c #F7BD4B",
">. c #F6A155",
",. c #D8897A",
"<. c #F38F6D",
"1. c #F6907A",
"2. c #F6C142",
"3. c #F6C046",
"4. c #F6C940",
"5. c #F7CD47",
"6. c #F7C64C",
"7. c #F8CB4A",
"8. c #F8C251",
"9. c #F9C156",
"0. c #F8C851",
"q. c #FACC51",
"w. c #FACB5E",
"e. c #F9D059",
"r. c #FAD86F",
"t. c #FBD776",
"y. c #FBDD73",
"u. c #01009D",
"i. c #0000B9",
"p. c #0000BB",
"a. c #0000BD",
"s. c #0000BF",
"d. c #0000C1",
"f. c #0000C3",
"g. c #0000C5",
"h. c #0000C9",
"j. c MediumBlue",
"k. c #0000D5",
"l. c #000DD5",
"z. c #0005DD",
"x. c #3964DF",
"c. c #3C68E1",
"v. c #3C6BE7",
"b. c #3D6EE7",
"n. c #346DEC",
"m. c #3B73EE",
"M. c #5864CC",
"N. c #616BCE",
"B. c #6F76D3",
"V. c #4673E8",
"C. c #5479E2",
"Z. c #567AE3",
"A. c #577BE3",
"S. c #597DE4",
"D. c #597EE7",
"F. c #5C7FE6",
"G. c #804A95",
"H. c #875297",
"J. c #965694",
"K. c #AC72A9",
"L. c #7E8ADD",
"P. c #6082E6",
"I. c #6285E8",
"U. c #6588EA",
"Y. c #688CED",
"T. c #6D8EEC",
/* pixels */
"< X & T E T Y Y - = % % $ # # @ ",
"5 U I ,.%.$.O.o.X.....| } { [ O ",
"4 P K F D S Z #._ ` / ~ ~ ! ] O ",
"4 1.w.e.9.q.;.B m h g ( ! W ' o ",
"4 t.=.>.0.C 5.V a d s 9 f : ) o ",
"4 y.A 8.6.N 2.k i u e q 7 6 n   ",
"3 r.*.:.3.&.@.j t r w 8 c G.B.h.",
"1 <.7.-.4.+.l y 0 v H.M.b.n.D.d.",
"1 L V V z p b J.N.V.m.v.c.x.Z.p.",
"3 J J H K.L.T.Y.U.I.P.F.D.Z.Z.p.",
", > u.l.z.k.h.h.g.d.d.d.p.p.i.i."
};
