/* XPM */
static char *es[] = {
/* columns rows colors chars-per-pixel */
"16 11 136 2",
"   c #DD0000",
".  c #DF0000",
"X  c #E10000",
"o  c #E30000",
"O  c #E50000",
"+  c #E70000",
"@  c #E90000",
"#  c #EB0000",
"$  c #ED0000",
"%  c #EF0000",
"&  c #F10000",
"*  c #F30000",
"=  c #F50000",
"-  c #F70000",
";  c #F90000",
":  c #FB0000",
">  c #FD0000",
",  c red",
"<  c #F10B0B",
"1  c #F10F0E",
"2  c #F21313",
"3  c #F31919",
"4  c #F41E1E",
"5  c #F52323",
"6  c #F62929",
"7  c #F22C2C",
"8  c #F22F2F",
"9  c #F62C2C",
"0  c #F72E2E",
"q  c #F23232",
"w  c #F73131",
"e  c #F33535",
"r  c #F83434",
"t  c #F83737",
"y  c #F43939",
"u  c #F53D3D",
"i  c #F93A3A",
"p  c #F93C3D",
"a  c #FA3F3F",
"s  c #F64242",
"d  c #F74646",
"f  c #FA4242",
"g  c #FA4444",
"h  c #FB4747",
"j  c #F74949",
"k  c #F74B4B",
"l  c #F74E4E",
"z  c #FC4C4C",
"x  c #EC5351",
"c  c #F85050",
"v  c #F85353",
"b  c #FD5151",
"n  c #F95455",
"m  c #F95757",
"M  c #FD5454",
"N  c #F95858",
"B  c #FE5959",
"V  c #FA5C5C",
"C  c #FA5D5D",
"Z  c #FE5C5C",
"A  c #FE5F5F",
"S  c #ED6753",
"D  c #EB6957",
"F  c #F17E57",
"G  c #FB6060",
"H  c #FB6162",
"J  c #FC6565",
"K  c #FC6666",
"L  c #FC6969",
"P  c #FD6D6D",
"I  c #FD7071",
"U  c #FE7474",
"Y  c #FE7777",
"T  c #FE7979",
"R  c #FF7B7A",
"E  c #FF7B7B",
"W  c #DFDF00",
"Q  c #E3E300",
"!  c #E5E500",
"~  c #E7E700",
"^  c #FBFB00",
"/  c #FDFD00",
"(  c #FFFD00",
")  c #F2F210",
"_  c #F2F214",
"`  c #F3F319",
"'  c #F3F31A",
"]  c #F4F41F",
"[  c #F4F420",
"{  c #F5F524",
"}  c #F5F525",
"|  c #F5F426",
" . c #F6F62A",
".. c #F6F62B",
"X. c #F7F72F",
"o. c #E8EE3D",
"O. c #F3F332",
"+. c #F7F730",
"@. c #F7F731",
"#. c #F4F436",
"$. c #F8F836",
"%. c #F4F53B",
"&. c #F5F53F",
"*. c #F9F93C",
"=. c #E08C51",
"-. c #E4A74A",
";. c #EBC94B",
":. c #EBDE53",
">. c #ECE142",
",. c #F0E048",
"<. c #F3F441",
"1. c #F6F544",
"2. c #FAFA42",
"3. c #FBFB47",
"4. c #F8F44B",
"5. c #FBFB49",
"6. c #FCFC4F",
"7. c #F4EE57",
"8. c #F2F355",
"9. c #FDFD53",
"0. c #FEFE58",
"q. c #FEFE59",
"w. c #FEFE5C",
"e. c #FCFC6A",
"r. c #FDFD6F",
"t. c #FEFE73",
"y. c #FEFE76",
"u. c #FEFE79",
"i. c #B6BB9D",
"p. c #F2BDB0",
"a. c #EDE08D",
"s. c #C0CEA8",
"d. c #F5C3B1",
"f. c #ECD3D4",
"g. c #F9F1D6",
"h. c #F5EAE2",
/* pixels */
", , , , : , : , : - - - & % % # ",
", E E E Y U I P L J G V m b l # ",
", E A Z Z b b z h f p t w 9 k # ",
"( u.w.0.7.:.4.5.2.*.$.@...| 1.~ ",
"( y.0.8.F D a.1.*.$.X...| ] &.~ ",
"^ t.9.d.S f.p.>.$.X...| ] ' %.! ",
"( r.6.g.=.x h.>.X...| ] ' _ #.Q ",
"^ e.5.s.;.-.i.o.X.[ [ ' ) ) O.W ",
": J h a i r 9 6 5 4 3 2 1 < 8   ",
"- H V m m c l d s u y e q 8 7   ",
"& & & % % # # # O O o o         "
};
