/* XPM */
static char *fam[] = {
/* columns rows colors chars-per-pixel */
"16 11 159 2",
"   c #E30000",
".  c #E50000",
"X  c #E70000",
"o  c #E90000",
"O  c #EB0000",
"+  c #ED0000",
"@  c #F70011",
"#  c #F90017",
"$  c #FB001F",
"%  c #FD0025",
"&  c #FD0029",
"*  c #FD002F",
"=  c #F32267",
"-  c #F4276B",
";  c #F4286B",
":  c #F52C6E",
">  c #F52D6F",
",  c #F72E6F",
"<  c #F63172",
"1  c #F63273",
"2  c #F63373",
"3  c #F73777",
"4  c #F83473",
"5  c #F73877",
"6  c #F93B77",
"7  c #F73978",
"8  c #F83C7A",
"9  c #F83D7B",
"0  c #F83E7B",
"q  c #F83F7C",
"w  c #F4417C",
"e  c #F5457F",
"r  c #FA407C",
"t  c #F9427E",
"y  c #F9437F",
"u  c #53C900",
"i  c #63D100",
"p  c #67D300",
"a  c #69D300",
"s  c #69D500",
"d  c #69D700",
"f  c #6DD700",
"g  c #71D900",
"h  c #75DB00",
"j  c #7FE100",
"k  c #8FE500",
"l  c #95EB00",
"z  c #99EF00",
"x  c #9DEF00",
"c  c #A1ED00",
"v  c #A1F100",
"b  c #A3F300",
"n  c #BFF14B",
"m  c #C1F14E",
"M  c #C1F24F",
"N  c #C2F251",
"B  c #C3F252",
"V  c #C3F253",
"C  c #C5F356",
"Z  c #C6F356",
"A  c #C6F357",
"S  c #C7F45A",
"D  c #C8F45A",
"F  c #C8F45C",
"G  c #C9F55E",
"H  c #CAF55F",
"J  c #C8F263",
"K  c #CAF560",
"L  c #CBF663",
"P  c #C8F265",
"I  c #CCF664",
"U  c #CCF665",
"Y  c #C9F268",
"T  c #C9F368",
"R  c #CAF36A",
"E  c #CBF46B",
"W  c #CDF768",
"Q  c #CEF769",
"!  c #CDF56F",
"~  c #CFF86E",
"^  c #CFF573",
"/  c #D1F676",
"(  c #D3F77A",
")  c #D4F77E",
"_  c #F94480",
"`  c #FB4680",
"'  c #F64982",
"]  c #F74B82",
"[  c #F74E85",
"{  c #FA4883",
"}  c #FA4983",
"|  c #FA4984",
" . c #FC4B84",
".. c #FB4D87",
"X. c #FB4E87",
"o. c #FB4F88",
"O. c #FD5188",
"+. c #FC538A",
"@. c #FC538B",
"#. c #F8568C",
"$. c #FD588E",
"%. c #FD5C91",
"&. c #FB6798",
"*. c #FC6B9B",
"=. c #FC6F9E",
"-. c #FD74A0",
";. c #FD77A3",
":. c #FE7AA5",
">. c #00A7EF",
",. c #00ABE9",
"<. c #00A9F1",
"1. c #00ADF3",
"2. c #00B1F5",
"3. c #00B3F7",
"4. c #00B5F9",
"5. c #00B9FB",
"6. c #00BBFD",
"7. c #00BFFD",
"8. c #00C5F3",
"9. c #00C1FD",
"0. c #00C3FF",
"q. c #3BD8F9",
"w. c #46D7FA",
"e. c #41DAFA",
"r. c #47DCFB",
"t. c #4CD8FA",
"y. c #4CD9FB",
"u. c #4CDDFC",
"i. c #51D9FB",
"p. c #51DAFB",
"a. c #55DDF9",
"s. c #56DBFC",
"d. c #52DFFD",
"f. c #56DCFC",
"g. c #5FDCF9",
"h. c #5BDCFD",
"j. c #5BDDFD",
"k. c #5FDDFE",
"l. c #5EDEFE",
"z. c #64DDFA",
"x. c #63DFFE",
"c. c #68DEFB",
"v. c #6DDFFC",
"b. c #56E0FD",
"n. c #5BE2FE",
"m. c #63E0FE",
"M. c #66E0FE",
"N. c #71E1FC",
"B. c #75E2FD",
"V. c #78E2FE",
"C. c #7BE4FE",
"Z. c #7FE5FE",
"A. c #7FE6FE",
"S. c #79E8FE",
"D. c #D6F881",
"F. c #D8F985",
"G. c #D8FA89",
"H. c #80E6FF",
"J. c #81E6FF",
/* pixels */
"0.0.0.0.8.* & % $ # @ b c v x z ",
"0.J.J.A.S.:.;.-.=.*.&.G.F.D.) l ",
"0.A.M.m.n.%.+.+.+.| _ ! Q U ( k ",
"0.A.x.l.f.$. .X.` ` q W U K / j ",
"0.C.l.j.d.+.` { t q 7 K H H ^ h ",
"6.C.j.f.u...t t q 7 2 H D A ! g ",
"6.B.s.i.r.` 6 9 5 2 > S A N E f ",
"5.N.i.t.e.t 2 7 2 > ; A N N P s ",
"4.N.t.w.q.8 > 2 : - = N n n P p ",
"3.z.z.g.f.#.' [ ' e w R R P P s ",
"3.1.<.>.,.+ O O X X   d a p i u "
};
