/* XPM */
static char *fi[] = {
/* columns rows colors chars-per-pixel */
"16 11 126 2",
"   c #000085",
".  c #000087",
"X  c #00008F",
"o  c #000099",
"O  c #00009B",
"+  c #00009F",
"@  c #0029B9",
"#  c #0029BB",
"$  c #002BBD",
"%  c #002FBD",
"&  c #0035BD",
"*  c #0033C1",
"=  c #3063C9",
"-  c #3265CB",
";  c #3567CA",
":  c #376ACC",
">  c #3A6BCC",
",  c #3A6CCD",
"<  c #3D6DCE",
"1  c #3F6FCE",
"2  c #406FCF",
"3  c #4172D0",
"4  c #4473D0",
"5  c #4473D1",
"6  c #4574D1",
"7  c #4776D2",
"8  c #4977D2",
"9  c #4A78D3",
"0  c #4E7AD0",
"q  c #4D7AD3",
"w  c #4C7AD4",
"e  c #4F7BD5",
"r  c #4F7CD5",
"t  c #507CD2",
"y  c #517DD5",
"u  c #537FD6",
"i  c #5680D4",
"p  c #5480D7",
"a  c #5580D7",
"s  c #5581D7",
"d  c #5983D7",
"f  c #5984D9",
"g  c #5A85D9",
"h  c #5E86D8",
"j  c #5E88DA",
"k  c #5F88DB",
"l  c #628AD8",
"z  c #6089DA",
"x  c #668DDA",
"c  c #628BDC",
"v  c #638BDC",
"b  c #638CDC",
"n  c #648CDC",
"m  c #658EDD",
"M  c #668EDE",
"N  c #678FDE",
"B  c #6990DD",
"V  c #6B91DE",
"C  c #6C93DF",
"Z  c #A7B1C1",
"A  c #B5BDCD",
"S  c #B7BFCD",
"D  c #B7BFD7",
"F  c #80A1E3",
"G  c #80A2E2",
"H  c #81A3E3",
"J  c #83A4E3",
"K  c #85A5E5",
"L  c #87A7E5",
"P  c #B9C1CF",
"I  c #BBC3D1",
"U  c #B9C1D3",
"Y  c #BFC3D3",
"T  c #BFC7D5",
"R  c #C1C9D7",
"E  c #C3C9D7",
"W  c #C1CBD9",
"Q  c #C7CFDB",
"!  c #CDD3DD",
"~  c #D1D7E3",
"^  c #D3D9E5",
"/  c #D7DBE7",
"(  c #D5DBED",
")  c #D9DDE9",
"_  c #DBDFEB",
"`  c #DBDFEF",
"'  c #DDE1EB",
"]  c #DBE1ED",
"[  c #DDE3ED",
"{  c #DFE3ED",
"}  c #E3E9F3",
"|  c #E5EBF3",
" . c #E7EBF3",
".. c #E5EBF5",
"X. c #F1F1F1",
"o. c #F1F1F2",
"O. c gray95",
"+. c #F2F2F3",
"@. c #F3F3F3",
"#. c #F3F3F4",
"$. c #F4F4F4",
"%. c #F4F4F5",
"&. c #F4F5F5",
"*. c gray96",
"=. c #F4F5F6",
"-. c #F5F5F6",
";. c #F5F6F7",
":. c #F6F6F6",
">. c gray97",
",. c #F6F7F8",
"<. c #F7F8F9",
"1. c #F6F8FA",
"2. c #F7F9FA",
"3. c #F8F8F8",
"4. c #F9F9F9",
"5. c #F8F9FA",
"6. c #F9FAFA",
"7. c gray98",
"8. c #FBFBFB",
"9. c #F9FBFC",
"0. c #FBFCFD",
"q. c gray99",
"w. c #FDFDFD",
"e. c #FCFDFE",
"r. c #FEFEFE",
"t. c gray100",
/* pixels */
"| | | ..% @ & ` { [ _ _ / ^ ~ R ",
"| t.t.t.L K C t.8.t.8.8.3.3.;.! ",
"| t.t.t.B m n e.8.8.8.;.3.;.3.Q ",
"} e.0.8.m n k 8.<.,.;.;.$.@.;.R ",
"* L C B c k f d y e 9 3 2 > i X ",
"$ H m l k f s y e 7 3 1 : - t . ",
"@ C C l f p r q 8 3 1 > ; = 0 . ",
"` 0.8.8.p r 9 ,.;.-.+.O.O.O.O.I ",
"{ 8.7.7.t 8 6 ;.-.@.@.O.O.X.O.S ",
"' 7.7.4.x z z 3.;.;.@.@.O.O.O.S ",
"_ / ^ ~ + O O D E R Y P S S A Z "
};
