/* XPM */
static char *gm[] = {
/* columns rows colors chars-per-pixel */
"16 11 165 2",
"   c #002100",
".  c #002300",
"X  c #002700",
"o  c #002B00",
"O  c #002F00",
"+  c #003500",
"@  c #003900",
"#  c #003D00",
"$  c #004300",
"%  c #004900",
"&  c #004F00",
"*  c #005500",
"=  c #005900",
"-  c #005F00",
";  c #006700",
":  c #006B00",
">  c #006F00",
",  c #990000",
"<  c #9D0000",
"1  c #A70000",
"2  c #AB0000",
"3  c #AF0000",
"4  c #B10000",
"5  c #B30000",
"6  c #B70000",
"7  c #B90000",
"8  c #BD0000",
"9  c #C10000",
"0  c #C30000",
"q  c #C70000",
"w  c #CE2C2C",
"e  c #D03131",
"r  c #D13737",
"t  c #D33C3D",
"y  c #D54242",
"u  c #D64747",
"i  c #D44949",
"p  c #D74E4E",
"a  c #D84C4C",
"s  c #D95151",
"d  c #D85353",
"f  c #DB5454",
"g  c #D95757",
"h  c #DD5959",
"j  c #DB5C5C",
"k  c #DD5C5C",
"l  c #DE5F5F",
"z  c #DD6060",
"x  c #DD6565",
"c  c #DF6969",
"v  c #E06D6D",
"b  c #E27071",
"n  c #E27474",
"m  c #E37777",
"M  c #E47979",
"N  c #E47B7A",
"B  c #E47B7B",
"V  c #0B920B",
"C  c #0F940E",
"Z  c #139613",
"A  c #189919",
"S  c #1E9C1E",
"D  c #239F23",
"F  c #29A229",
"G  c #2CA22C",
"H  c #2FA22F",
"J  c #2EA52E",
"K  c #2FA42F",
"L  c #32A532",
"P  c #34A834",
"I  c #35A835",
"U  c #39A939",
"Y  c #3AAB3A",
"T  c #3DAC3D",
"R  c #3FAE3F",
"E  c #42AE42",
"W  c #44B144",
"Q  c #46B046",
"!  c #4BB24B",
"~  c #50B450",
"^  c #54B755",
"/  c #58B958",
"(  c #5DBC5D",
")  c #61BE62",
"_  c #66BF66",
"`  c #0003E3",
"'  c #0000E5",
"]  c #0015E7",
"[  c #0041FD",
"{  c #095BFD",
"}  c #1767FD",
"|  c #3C71F3",
" . c #4175F4",
".. c #4579F5",
"X. c #4A7DF6",
"o. c #4E83F2",
"O. c #4F80F7",
"+. c #5286F3",
"@. c #5886F5",
"#. c #568AF4",
"$. c #588DF4",
"%. c #5B8DF5",
"&. c #5F8FF6",
"*. c #5484F8",
"=. c #5988F9",
"-. c #5E8BFA",
";. c #5C90F5",
":. c #628FFB",
">. c #6193F6",
",. c #6393F7",
"<. c #6794F4",
"1. c #6596F7",
"2. c #6F9DF5",
"3. c #6796F8",
"4. c #6692FC",
"5. c #6B95FC",
"6. c #6A9AF8",
"7. c #6C99F9",
"8. c #6D9DF9",
"9. c #6F98FD",
"0. c #709DFA",
"q. c #749FFB",
"w. c #71A0FA",
"e. c #75A3FB",
"r. c #78A2FB",
"t. c #79A6FC",
"y. c #7CA5FC",
"u. c #7DA8FD",
"i. c #BBC1BB",
"p. c #80ABFD",
"a. c #83ADFE",
"s. c #88AAFE",
"d. c #94B6FD",
"f. c #99BCFE",
"g. c #CDC7C7",
"h. c #DFE5DF",
"j. c #EBE7E7",
"k. c #EDF0ED",
"l. c #EEF0EE",
"z. c #EEF1EE",
"x. c #EFF2EF",
"c. c #F0F2F0",
"v. c #F4F2F1",
"b. c #F5F3F2",
"n. c #F6F3F2",
"m. c #F1F4F1",
"M. c #F2F5F2",
"N. c #F3F6F3",
"B. c #F7F4F3",
"V. c #F4F7F4",
"C. c #F8F4F3",
"Z. c #F9F5F5",
"A. c #FAF6F6",
"S. c #FAF7F7",
"D. c #F5F8F5",
"F. c #F6F9F6",
"G. c #F7FAF7",
"H. c #FBF8F7",
"J. c #F8FAF8",
"K. c #FCF9F8",
"L. c #FCFAF9",
"P. c #FDFAF9",
"I. c #FEFBFA",
"U. c #FAFCFA",
"Y. c #FEFCFC",
/* pixels */
"q 0 0 0 q 8 8 8 7 7 5 5 3 2 1 1 ",
"0 B B B m n b v c x l k g d p < ",
"0 B l k k s s a u y t r e w i , ",
"j.I.I.K.H.I.H.S.S.S.n.n.n.v.v.g.",
"} f.a.p.u.t.e.w.8.6.3.;.;.%.2.] ",
"[ s.9.5.4.:.-.=.*.O.X...| | @.` ",
"{ d.y.r.q.0.7.3.,.;.%.#.+.o.<.` ",
"h.U.J.G.G.V.V.N.N.N.c.z.z.z.c.i.",
"> _ W R U I J G D S A Z C V H X ",
": ) ( / ^ ~ ! E E T U I L H G   ",
"; - * * * % $ # @ + O o X X     "
};
