/* XPM */
static char *hn[] = {
/* columns rows colors chars-per-pixel */
"16 11 152 2",
"   c #00004B",
".  c #00004D",
"X  c #000051",
"o  c #000053",
"O  c #000055",
"+  c #000057",
"@  c #000059",
"#  c #00005F",
"$  c #000063",
"%  c #000067",
"&  c #00006D",
"*  c #00006F",
"=  c #000071",
"-  c #000075",
";  c #00007B",
":  c #00007F",
">  c #000083",
",  c #000087",
"<  c #000089",
"1  c #00008B",
"2  c #00008D",
"3  c #00008F",
"4  c #000093",
"5  c #000097",
"6  c #000399",
"7  c #00079B",
"8  c #00079D",
"9  c #000D9F",
"0  c #0011A1",
"q  c #001FA5",
"w  c #0B32B1",
"e  c #0F36B2",
"r  c #1339B4",
"t  c #183EB8",
"y  c #3B519B",
"u  c #1E42B9",
"i  c #2347BB",
"p  c #294BBC",
"a  c #2C4EBF",
"s  c #2F50BC",
"d  c #2E50BF",
"f  c #3655BE",
"g  c #3757BF",
"h  c #455BA5",
"j  c #3154C1",
"k  c #3456C2",
"l  c #3758C4",
"z  c #3B5BC0",
"x  c #3A5AC3",
"c  c #3F5EC2",
"v  c #3D5EC6",
"b  c #3F5EC6",
"n  c #4261C3",
"m  c #4664C4",
"M  c #4A67C6",
"N  c #4262C8",
"B  c #4463C8",
"V  c #4766CA",
"C  c #4967C8",
"Z  c #4F6BC8",
"A  c #4C6ACC",
"S  c #536FCA",
"D  c #516ECD",
"F  c #5773CC",
"G  c #5572CF",
"H  c #5873CC",
"J  c #5B76CD",
"K  c #5C77CD",
"L  c #5975D1",
"P  c #5C78D1",
"I  c #5F7BD3",
"U  c #607ACF",
"Y  c #607BCF",
"T  c #647ED1",
"R  c #657FD1",
"E  c #667FD3",
"W  c #6881D3",
"Q  c #6983D3",
"!  c #6C84D5",
"~  c #7088D6",
"^  c #748BD7",
"/  c #778FD8",
"(  c #7A91DA",
")  c #7B92DA",
"_  c #7D94DA",
"`  c #7F95DC",
"'  c #8393C9",
"]  c #8797CD",
"[  c #8195D6",
"{  c #8197DC",
"}  c #8498D9",
"|  c #879BD9",
" . c #97A8DF",
".. c #A9B5DD",
"X. c #ABB7DE",
"o. c #A2B0E1",
"O. c #A6B5E2",
"+. c #ADB9E0",
"@. c #AEBAE0",
"#. c #AEBBE2",
"$. c #B2BDE2",
"%. c #B4BFE1",
"&. c #B0BDE4",
"*. c #B2BFE5",
"=. c #B5BFE7",
"-. c #B4C0E3",
";. c #B6C2E5",
":. c #B9C4E6",
">. c #B9C4E7",
",. c #B8C4E8",
"<. c #BBC6E9",
"1. c #BDC8E9",
"2. c #BEC8EA",
"3. c #BFCAEB",
"4. c #C1C1C1",
"5. c #C5C5C5",
"6. c gray78",
"7. c #C0CAEA",
"8. c #C1CAEC",
"9. c #C2CCEC",
"0. c #C2CDED",
"q. c #C5CFEE",
"w. c #C6D0EF",
"e. c #CDD6F0",
"r. c #D0D8F2",
"t. c gray90",
"y. c #E7E7E7",
"u. c #E3E5F1",
"i. c #EBECF1",
"p. c #EAEDF3",
"a. c #E8EBF6",
"s. c gray95",
"d. c #F3F3F3",
"f. c #F3F3F4",
"g. c #F4F4F4",
"h. c #F4F5F5",
"j. c gray96",
"k. c #F6F6F6",
"l. c gray97",
"z. c #F3F4F9",
"x. c #F3F4FB",
"c. c #F8F8F8",
"v. c #F8F9F9",
"b. c #F9F9F9",
"n. c #F9F9FA",
"m. c gray98",
"M. c #FAFAFB",
"N. c #FBFBFB",
"B. c #FBFCFB",
"V. c gray99",
"C. c #FDFDFD",
"Z. c #FEFEFE",
/* pixels */
"q 0 0 0 9 7 6 5 4 3 3 , > : ; ; ",
"9 { { ` _ ( / ^ ! ! W T U J F * ",
"8 ) I I L G D A C N v l j a M % ",
"] r.q.0.8.9.9.1.1.,.=.*.#.#.>.h ",
"y.Z.Z.Z.z. .m.m.c.c.| i.k.d.k.6.",
"y.Z.Z.m.m.a.m.O.o.c.u.g.k.d.d.6.",
"y.V.V.m.z.} m.l.c.k.[ i.d.d.d.4.",
"' e.9.9.1.,.,.;.*.%.X.#.....%.y ",
"3 E B v z j a p i u t r e w s   ",
", Q E U K F F Z M m n c z g g   ",
"; > : ; - = * % $ # @ + o . . + "
};
