/* XPM */
static char *ht_[] = {
/* columns rows colors chars-per-pixel */
"16 11 157 2",
"   c #000079",
".  c #C50000",
"X  c #C90000",
"o  c #CB0000",
"O  c #CF0000",
"+  c #D10000",
"@  c #D30000",
"#  c #D70000",
"$  c #D90000",
"%  c #DB0000",
"&  c #DF0000",
"*  c #E10000",
"=  c #E30000",
"-  c #E50000",
";  c #E70000",
":  c #E90000",
">  c #FD0000",
",  c #E5200B",
"<  c #E5240E",
"1  c #E52510",
"2  c #E72913",
"3  c #E72A14",
"4  c #E82D19",
"5  c #E82E19",
"6  c #F22814",
"7  c #F32D19",
"8  c #E9321E",
"9  c #E9321F",
"0  c #F4321F",
"q  c #EB3723",
"w  c #EB3724",
"e  c #E73E2C",
"r  c #EC3C29",
"t  c #EC3C2A",
"y  c #F53724",
"u  c #F63B2A",
"i  c #E8402F",
"p  c #E8412F",
"a  c #ED412E",
"s  c #ED412F",
"d  c #F7402F",
"f  c #E94432",
"g  c #E94735",
"h  c #EE4634",
"j  c #EE4734",
"k  c #EB4B39",
"l  c #EF4B3A",
"z  c #EC4E3D",
"x  c #F44636",
"c  c #F84535",
"v  c #F04C3A",
"b  c #F94B3A",
"n  c #F0513F",
"m  c #F1513F",
"M  c #ED5242",
"N  c #EE5746",
"B  c #EF5B4B",
"V  c #F15544",
"C  c #F15645",
"Z  c #FA5040",
"A  c #FB5445",
"S  c #F25A49",
"D  c #FB5A49",
"F  c #FC5E4F",
"G  c #EF6050",
"H  c #F16455",
"J  c #F26858",
"K  c #F26C5D",
"L  c #F37062",
"P  c #F47566",
"I  c #F5796A",
"U  c #FD7B6F",
"Y  c #000099",
"T  c #00009B",
"R  c #00009F",
"E  c #0000A3",
"W  c #0000AB",
"Q  c #0000AF",
"!  c #0B15AF",
"~  c #0000B1",
"^  c #0000B5",
"/  c #0001B9",
"(  c #0007BB",
")  c #000FBF",
"_  c #5258BE",
"`  c #0013C1",
"'  c #0019C3",
"]  c #001FC5",
"[  c #0123C5",
"{  c #0021C7",
"}  c #0325C7",
"|  c #0327C7",
" . c #0527C7",
".. c #465FCF",
"X. c #565CC0",
"o. c #5A60C3",
"O. c #5F65C5",
"+. c #4B63D1",
"@. c #4F65D1",
"#. c #5068D3",
"$. c #5369D3",
"%. c #5469D3",
"&. c #546CD4",
"*. c #586DD4",
"=. c #586DD5",
"-. c #5970D6",
";. c #5D71D6",
":. c #5E74D8",
">. c #6369C7",
",. c #676DC9",
"<. c #6A70C8",
"1. c #6C72CB",
"2. c #6F76CD",
"3. c #7379CF",
"4. c #6075D5",
"5. c #677AD7",
"6. c #6175D8",
"7. c #6276D8",
"8. c #6378DA",
"9. c #6679DA",
"0. c #667ADA",
"q. c #677CDB",
"w. c #6B7ED8",
"e. c #6A7DDB",
"r. c #6B7DDB",
"t. c #787DD1",
"y. c #6F82DA",
"u. c #6B80DD",
"i. c #6E81DD",
"p. c #6F81DD",
"a. c #6F83DE",
"s. c #7B81D3",
"d. c #7F84D4",
"f. c #7284DE",
"g. c #7286DF",
"h. c #7485DC",
"j. c #7687DF",
"k. c #7889DD",
"l. c #7B8CDE",
"z. c #7689E0",
"x. c #798AE0",
"c. c #7B8DE2",
"v. c #7F8FE0",
"b. c #7C8DE2",
"n. c #7E8FE2",
"m. c #969ADC",
"M. c #8393E1",
"N. c #8696E2",
"B. c #8A99E3",
"V. c #8C9BE5",
"C. c #8F9EE5",
"Z. c #8F9EE6",
"A. c #919FE7",
"S. c #93A1E7",
"D. c #94A3E8",
"F. c #94A4E8",
"G. c #95A4E8",
/* pixels */
" .|  . .[ ] ' ` ) ( / ^ ~ Q W W ",
"| G.G.S.A.Z.V.B.N.M.M.l.k.h.y.E ",
"| D.n.c.x.j.f.i.e.9.6.;.*.%.w.R ",
"| S.c.x.j.f.i.e.9.6.;.*.$.@.5.T ",
"] Z.z.z.i.e.e.8.:.-.&.$.+...4.T ",
"! m.d.s.t.3.2.1.,.>.O.o.X._ <.  ",
"> U F D A Z b c d u y 0 7 6 x = ",
": I S C M v j s t w 9 5 3 < f X ",
": P C m l j s t w 8 5 2 < < e . ",
"- L K J H G B N M z k g f e e . ",
"= = & $ $ # $ @ O O X X X . . . "
};
