/* XPM */
static char *jp[] = {
/* columns rows colors chars-per-pixel */
"16 11 80 1",
"  c #F52424",
". c #F52A2A",
"X c #F62A2A",
"o c #F62B2B",
"O c #F72F2F",
"+ c #F73030",
"@ c #F73737",
"# c #F83434",
"$ c #F83535",
"% c #F83636",
"& c #F93B3A",
"* c #F93B3B",
"= c #F93B3C",
"- c #F93C3C",
"; c #FA4040",
": c #FA4141",
"> c #FA4142",
", c #FB4646",
"< c #FB4747",
"1 c #FA4848",
"2 c #FC4B4B",
"3 c #F55555",
"4 c #FC5555",
"5 c #F65B5B",
"6 c #F47D7D",
"7 c #FB7979",
"8 c #FC7E7F",
"9 c #F49393",
"0 c #F89493",
"q c #F99797",
"w c #F7A1A1",
"e c #FDAAAA",
"r c #FAAFAF",
"t c #F5BBBB",
"y c #FDBBBB",
"u c gray81",
"i c gray82",
"p c LightGray",
"a c #D5D5D5",
"s c #D7D7D7",
"d c gray85",
"f c gray86",
"g c #DDDDDD",
"h c #DFDFDF",
"j c #F4D5D5",
"k c #FCD2D2",
"l c #F6DADA",
"z c #E1E3E1",
"x c #E1E3E3",
"c c gray90",
"v c #E7E7E7",
"b c #E9E9E9",
"n c gray92",
"m c gray93",
"M c #EFEFEF",
"N c #FBE7E7",
"B c #F3EFEF",
"V c #FDEAEA",
"C c #F1F1F1",
"Z c gray95",
"A c #F2F2F3",
"S c #F3F3F3",
"D c #F4F4F4",
"F c #F4F5F5",
"G c gray96",
"H c #F6F4F4",
"J c #F7F5F5",
"K c #F6F6F6",
"L c gray97",
"P c #F8F7F7",
"I c #F8F8F8",
"U c #F9F9F9",
"Y c gray98",
"T c #FBFBFB",
"R c #FBFCFB",
"E c gray99",
"W c #FDFDFD",
"Q c #FDFDFE",
"! c #FEFEFE",
"~ c gray100",
/* pixels */
"GGGGSSSCMMnnbvcx",
"G~~~~~WWTWTTUUGh",
"S~~~~Ty87rUTUGGh",
"G~T~~e21>-0GGGGf",
"G~~TV4,>*@@lGFGs",
"S~~Tk,-&@O.tGSSs",
"M~TTN,&@O..jSSFp",
"STTTTq#O. 6SCSSp",
"MTTTTGw539BSCMSu",
"MTIIITGHHHHSSSSu",
"nvvvzhgffsppuuuu"
};
