/* XPM */
static char *ke[] = {
/* columns rows colors chars-per-pixel */
"16 11 153 2",
"   c black",
".  c #002900",
"X  c #002D00",
"o  c #002F00",
"O  c #003100",
"+  c #003300",
"@  c #003500",
"#  c #003900",
"$  c #003D00",
"%  c #2C2C2C",
"&  c #313131",
"*  c #373737",
"=  c #582F31",
"-  c #4C3233",
";  c #4D3F3E",
":  c #623C3C",
">  c #004100",
",  c #004700",
"<  c #004D00",
"1  c #005100",
"2  c #005700",
"3  c #005D00",
"4  c #006300",
"5  c #006700",
"6  c #006F00",
"7  c #007100",
"8  c #007900",
"9  c #414646",
"0  c #494949",
"q  c #4E4E4E",
"w  c #5D4343",
"e  c #535353",
"r  c #585757",
"t  c #575C5C",
"y  c gray35",
"u  c gray36",
"i  c #5F5F5F",
"p  c #704D4D",
"a  c #646363",
"s  c #656666",
"d  c DimGray",
"f  c #6D6D6D",
"g  c #727272",
"h  c gray46",
"j  c #777777",
"k  c #797979",
"l  c #7B7B7A",
"z  c #7B7B7B",
"x  c #BB0000",
"c  c #C10000",
"v  c #DF0000",
"b  c #E50000",
"n  c #E90000",
"m  c #E0171F",
"M  c #E01B21",
"N  c #E11A22",
"B  c #E11F27",
"V  c #E22026",
"C  c #E3242A",
"Z  c #E3252C",
"A  c #E4272D",
"S  c #E5272D",
"D  c #E42C32",
"F  c #E52D33",
"G  c #E7353A",
"H  c #E4383F",
"J  c #E33B41",
"K  c #E03F43",
"L  c #805758",
"P  c #835E5E",
"I  c #DC4246",
"U  c #DE4348",
"Y  c #DC484B",
"T  c #DF4E51",
"R  c #E74348",
"E  c #EF474D",
"W  c #E44B4E",
"Q  c #EE484C",
"!  c #EC4A50",
"~  c #EE4B51",
"^  c #ED5055",
"/  c #EF5155",
"(  c #EE5459",
")  c #F15558",
"_  c #F1555A",
"`  c #F1595C",
"'  c #F25D61",
"]  c #E26869",
"[  c #E06C6C",
"{  c #F36165",
"}  c #E77B7B",
"|  c #E77F7F",
" . c #F17377",
".. c #F37578",
"X. c #F67D7F",
"o. c #0B9A0E",
"O. c #0F9C11",
"+. c #139F16",
"@. c #19A120",
"#. c #2CA434",
"$. c #36A636",
"%. c #36A937",
"&. c #34AF3A",
"*. c #38A838",
"=. c #3BA93C",
"-. c #3AB13B",
";. c #6F8239",
":. c #6E883E",
">. c #3BAD43",
",. c #3FB341",
"<. c #40AB40",
"1. c #41AC40",
"2. c #44AE44",
"3. c #44B646",
"4. c #48B148",
"5. c #4DB34D",
"6. c #51B551",
"7. c #56B756",
"8. c #5BB95B",
"9. c #5FBB5F",
"0. c #64BE64",
"q. c #68BF68",
"w. c #6CC36D",
"e. c #B19D9D",
"r. c #ABAF8F",
"t. c #D5D7BF",
"y. c #C6C8C8",
"u. c #CCCDCD",
"i. c #D5C9C9",
"p. c #DBD3C8",
"a. c #E0D9CE",
"s. c #E5D5D5",
"d. c #E9DBDB",
"f. c #EBE7E7",
"g. c #E7E8E2",
"h. c #E9EAE3",
"j. c #EAEBE4",
"k. c #EBEBE6",
"l. c #EBECE6",
"z. c #ECE9E9",
"x. c #EDEAEA",
"c. c #EDEBEA",
"v. c #EFEBEB",
"b. c #F0F1EC",
"n. c #F2F2EE",
"m. c #F3F3EF",
"M. c #F3F1F1",
"N. c #F4F2F2",
"B. c #F5F3F3",
"V. c #F4F4F0",
"C. c #F7F7F3",
"Z. c #F6F4F4",
"A. c #F7F6F6",
/* pixels */
"                                ",
"  z z z j h g f d s a u y e q   ",
"  z i u t t u.P p y.9 * & % 0   ",
"i.Z.Z.M.N.N.d.| X.d.v.c.z.f.c.e.",
"n X.{ ' ` _ p W W : G F A C R c ",
"v  .( / Q Q w Y I - F C B M J x ",
"b .._ / ~ Q ; Y K = S B N m J x ",
"t.C.V.m.m.b.p.[ ] p.k.k.h.g.k.r.",
"8 w.3.,.-.&.>.:.;.#.@.+.+.o.%.+ ",
"7 q.0.9.8.7.6.5.4.2.1.<.*.*.$.. ",
"6 5 4 3 2 1 < , > $ # + X X . + "
};
