/* XPM */
static char *kg[] = {
/* columns rows colors chars-per-pixel */
"16 11 131 2",
"   c #C70000",
".  c #C90000",
"X  c #CB0000",
"o  c #CD0000",
"O  c #D10000",
"+  c #D30000",
"@  c #D50000",
"#  c #D70000",
"$  c #D90000",
"%  c #DB0000",
"&  c #DD0000",
"*  c #E10000",
"=  c #E30000",
"-  c #E50000",
";  c #E70000",
":  c #E90000",
">  c #EB0000",
",  c #ED0000",
"<  c #EF0000",
"1  c #E50B0B",
"2  c #E50F0E",
"3  c #F10000",
"4  c #E51010",
"5  c #E71313",
"6  c #E71414",
"7  c #E81919",
"8  c #E81A1A",
"9  c #E91F1F",
"0  c #E9201F",
"q  c #EA281F",
"w  c #EA2C1E",
"e  c #E92020",
"r  c #EB2525",
"t  c #EB2625",
"y  c #EB2626",
"u  c #E72C2C",
"i  c #EC2B2B",
"p  c #E82F2F",
"a  c #EC2C2C",
"s  c #ED382E",
"d  c #E93232",
"f  c #ED3131",
"g  c #E93535",
"h  c #E93636",
"j  c #EE3434",
"k  c #EF3737",
"l  c #EB3939",
"z  c #EB3B3B",
"x  c #EF3A3A",
"c  c #EC3D3D",
"v  c #EC3F3F",
"b  c #F03C3D",
"n  c #F03F3F",
"m  c #F13F3F",
"M  c #EE5F23",
"N  c #EF4036",
"B  c #F0413A",
"V  c #EF6924",
"C  c #EF6729",
"Z  c #F26930",
"A  c #ED4242",
"S  c #ED4444",
"D  c #EE4646",
"F  c #EE4949",
"G  c #EF4B4B",
"H  c #EF4E4E",
"J  c #F14444",
"K  c #F14545",
"L  c #F24842",
"P  c #F24949",
"I  c #F24A49",
"U  c #F24A4B",
"Y  c #F34F4F",
"T  c #EF5050",
"R  c #F35050",
"E  c #F05353",
"W  c #F45353",
"Q  c #F45551",
"!  c #F15455",
"~  c #F25757",
"^  c #F45454",
"/  c #F45951",
"(  c #F25858",
")  c #F55858",
"_  c #F55959",
"`  c #F25C5C",
"'  c #F25D5D",
"]  c #F65C5C",
"[  c #F65F5F",
"{  c #F47340",
"}  c #F57747",
"|  c #F5764C",
" . c #F67D4B",
".. c #F36060",
"X. c #F36162",
"o. c #F46565",
"O. c #F46666",
"+. c #F56969",
"@. c #F56A6A",
"#. c #F66D6D",
"$. c #F66F6F",
"%. c #F67071",
"&. c #F77273",
"*. c #F77474",
"=. c #F77676",
"-. c #F77777",
";. c #F77979",
":. c #F87B7A",
">. c #F87B7B",
",. c #F1852B",
"<. c #F29924",
"1. c #F3942F",
"2. c #F38236",
"3. c #F5883B",
"4. c #F49735",
"5. c #F59E34",
"6. c #F69B3C",
"7. c #F4B72A",
"8. c #F6A03C",
"9. c #F5C42A",
"0. c #F6C72F",
"q. c #F5C330",
"w. c #F7C236",
"e. c #F8C03A",
"r. c #F79246",
"t. c #F6A041",
"y. c #F8A54B",
"u. c #F8CB40",
"i. c #F9C846",
"p. c #FAD442",
"a. c #FAD747",
/* pixels */
"3 3 3 3 < < < > > ; > = = & & & ",
"3 >.>.;.-.&.&.#.+.o...' ( Q H $ ",
"3 >.[ [ ] Q / | } L c k f a F @ ",
"3 >.] ~ ^ ^ y.a.p.6.N f i y S + ",
"< =.) ^ R  .i.t.r.7.Z i y 9 c + ",
"< &.W Y P r.u.3.3.0.,.y 9 8 c X ",
"> $.Y P K Z e.5.1.7.V 0 7 6 h o ",
"> @.P K J b 8.0.9.<.q 7 6 4 d X ",
"> O.K n x j s C V w 8 4 4 1 p X ",
"; X.' ( Q T Y S A z l h d p u   ",
"; = = & $ @ @ @ + o o o X       "
};
