/* XPM */
static char *ki[] = {
/* columns rows colors chars-per-pixel */
"16 11 163 2",
"   c #00004F",
".  c #000051",
"X  c #00005B",
"o  c #00005F",
"O  c #00006D",
"+  c #000073",
"@  c #000777",
"#  c #00007F",
"$  c #011F73",
"%  c #092377",
"&  c #332F69",
"*  c #B90000",
"=  c #BB0000",
"-  c #BF0000",
";  c #C10000",
":  c #C30000",
">  c #C70000",
",  c #CB0000",
"<  c #CD0000",
"1  c #CF0000",
"2  c #D70000",
"3  c #DB0000",
"4  c #DD0000",
"5  c #DF0000",
"6  c #E30000",
"7  c #DD3420",
"8  c #DE3925",
"9  c #DF3C26",
"0  c #E53E2B",
"q  c #E1412D",
"w  c #E1412E",
"e  c #E1422F",
"r  c #E34331",
"t  c #E34834",
"y  c #E34835",
"u  c #E44C3A",
"i  c #E44D3B",
"p  c #E4523F",
"a  c #AD4945",
"s  c #E25341",
"d  c #E65240",
"f  c #E25745",
"g  c #E75545",
"h  c #E85B47",
"j  c #E45B4A",
"k  c #E95C4C",
"l  c #E6604F",
"z  c #E8604E",
"x  c #EE604F",
"c  c #E76554",
"v  c #EA6352",
"b  c #EA6353",
"n  c #EB6353",
"m  c #EA6554",
"M  c #EB6757",
"N  c #E56F51",
"B  c #E96F55",
"V  c #EC6758",
"C  c #E86A5B",
"Z  c #EC6B5B",
"A  c #EA6E5F",
"S  c #ED6E5E",
"D  c #ED6F5E",
"F  c #EB7163",
"G  c #ED7060",
"H  c #E87C69",
"J  c #E7BB48",
"K  c #EF8375",
"L  c #EC8574",
"P  c #F08579",
"I  c #F0867A",
"U  c #F2877A",
"Y  c #F1887B",
"T  c #F1897B",
"R  c #F48A7B",
"E  c #F1897C",
"W  c #EAC156",
"Q  c #E9C257",
"!  c #EBC35B",
"~  c #E8DC52",
"^  c #EADE57",
"/  c #F2E350",
"(  c #F5E655",
")  c #F1DD7A",
"_  c #F2DD7E",
"`  c #13338F",
"'  c #002391",
"]  c #334B95",
"[  c #354D95",
"{  c #475785",
"}  c #535F8D",
"|  c #455B9F",
" . c #53618B",
".. c #5B6993",
"X. c #637199",
"o. c #5369A9",
"O. c #7F7BA5",
"+. c #4E6FC9",
"@. c #5371C6",
"#. c #5271C9",
"$. c #5B78CA",
"%. c #5F7BCC",
"&. c #5F7CD0",
"*. c #637CCA",
"=. c #627DCC",
"-. c #617DCF",
";. c #6A84CD",
":. c #6380D1",
">. c #6B84D1",
",. c #6E88D1",
"<. c #7089D1",
"1. c #7089D3",
"2. c #708BD6",
"3. c #7A91D5",
"4. c #7E94D7",
"5. c #7B93D9",
"6. c #7D97DB",
"7. c #8D99BB",
"8. c #D78D8B",
"9. c #F9C3BB",
"0. c #EFDCBE",
"q. c #879DDB",
"w. c #8E9DD8",
"e. c #8BA0DD",
"r. c #93A6DF",
"t. c #9CACDA",
"y. c #9BACDD",
"u. c #A9B7DF",
"i. c #AAB9DF",
"p. c #8BA4E1",
"a. c #91A5E0",
"s. c #AFBCE2",
"d. c #B2C0E6",
"f. c #B3C1E7",
"g. c #B7C3E6",
"h. c #B9C5E8",
"j. c #F2CDC9",
"k. c #F4CECB",
"l. c #FBCFC8",
"z. c #F1D4CF",
"x. c #E4CED2",
"c. c #E2D4DA",
"v. c #EEDBDD",
"b. c #F8D7D3",
"n. c #E4E4DE",
"m. c #F6EEDD",
"M. c #C1CAE4",
"N. c #C3CDE6",
"B. c #C6CDE6",
"V. c #C0CCEB",
"C. c #C8D0E9",
"Z. c #CBD3E8",
"A. c #CBD3EA",
"S. c #CDD5EB",
"D. c #CED7ED",
"F. c #D0D7EB",
"G. c #D0D8EF",
"H. c #D4DBEF",
"J. c #D6DDF1",
"K. c #D8DDF0",
"L. c #DEE3F3",
"P. c #E7E7E1",
"I. c #F0E5E9",
/* pixels */
"4 4 3 4 3 3 2 2 2 < < < < > : : ",
"4 E E Y I K K _ ) H F A C c l : ",
"4 Y G D Z m v B N g d i t q j - ",
"6 I D Z V v z ! Q p i t q 9 f = ",
"6 I V m v k Q ^ ~ J r q 9 7 s * ",
"8.R l.9.x b.m.( / 0.k.0 j.z.j a ",
"O.I.p.K.v.w.6.P.n.&.*.x.*.+.c.& ",
"7.a.J.f.2.G.D.:.-.C.y.#.N.M.,. .",
"' L.6.H.f.1.>.S.C.-.$.B.t.@.Z.% ",
"o.r.V.q.q.h.g.4.3.F.s.1.i.u.;.  ",
"@ | # [ ] + O X...o X  .$ . { ` "
};
