/* XPM */
static char *lb[] = {
/* columns rows colors chars-per-pixel */
"16 11 137 2",
"   c #AD0000",
".  c #B10000",
"X  c #B50000",
"o  c #B70000",
"O  c #BB0000",
"+  c #BD0000",
"@  c #BF0000",
"#  c #C10000",
"$  c #C30000",
"%  c #C50000",
"&  c #C90000",
"*  c #CB0000",
"=  c #CF0000",
"-  c #D10000",
";  c #D30000",
":  c #D50000",
">  c #D70000",
",  c #D90000",
"<  c #DB0000",
"1  c #DD0000",
"2  c #DF0000",
"3  c #E12A14",
"4  c #E22D18",
"5  c #E3311D",
"6  c #E43621",
"7  c #E53A25",
"8  c #E43E29",
"9  c #E43E2C",
"0  c #E5402F",
"q  c #E64432",
"w  c #E74735",
"e  c #E84430",
"r  c #E94533",
"t  c #E54936",
"y  c #E94835",
"u  c #E84B39",
"i  c #EA4B38",
"p  c #E84E3D",
"a  c #EB4E3C",
"s  c #EB4F3E",
"d  c #EA5242",
"f  c #EC5341",
"g  c #ED5443",
"h  c #EB5746",
"j  c #EE5846",
"k  c #EE5A48",
"l  c #EC5B4B",
"z  c #EB5F4F",
"x  c #EF5C4C",
"c  c #EF5E4D",
"v  c #ED5F4E",
"b  c #ED6050",
"n  c #ED6353",
"m  c #EE6455",
"M  c #EE6757",
"N  c #EF6858",
"B  c #F06251",
"V  c #F16656",
"C  c #F26A5A",
"Z  c #F06B5C",
"A  c #F06C5D",
"S  c #F36D5E",
"D  c #F16F60",
"F  c #F17062",
"G  c #F47161",
"H  c #F27365",
"J  c #F47365",
"K  c #F27769",
"L  c #F27A6C",
"P  c #F37A6D",
"I  c #F47E71",
"U  c #3B923B",
"Y  c #3E933E",
"T  c #3E943E",
"R  c #439643",
"E  c #439644",
"W  c #449745",
"Q  c #459945",
"!  c #499949",
"~  c #499B4A",
"^  c #529D53",
"/  c #57A257",
"(  c #57A357",
")  c #5AA45A",
"_  c #62A862",
"`  c #7DB37B",
"'  c #F58174",
"]  c #F68477",
"[  c #F68679",
"{  c #F7887B",
"}  c #F78C7F",
"|  c #85BA84",
" . c #BBBBBB",
".. c gray75",
"X. c #96C697",
"o. c #A0CDA2",
"O. c #A3CAA4",
"+. c #C1C1C1",
"@. c #C5C3C3",
"#. c #CBDFCB",
"$. c #DFDFDF",
"%. c #CEE4CF",
"&. c #D8E8DA",
"*. c #D8E9DA",
"=. c #DEEADE",
"-. c #E1E1E1",
";. c gray89",
":. c #E5E3E3",
">. c gray90",
",. c #E7F0E6",
"<. c #EEF2EF",
"1. c gray95",
"2. c #F3F3F3",
"3. c #F3F6F3",
"4. c #F1F4F4",
"5. c #F3F7F6",
"6. c #F4F4F4",
"7. c #F5F4F4",
"8. c #F4F5F5",
"9. c gray96",
"0. c #F6F5F4",
"q. c #F6F5F5",
"w. c #F6F6F6",
"e. c #F7F6F6",
"r. c #F8F8F8",
"t. c gray98",
"y. c #FAFBFB",
"u. c #FBFBFB",
"i. c #FDFBFB",
"p. c #FBFCFB",
"a. c #FDFBFC",
"s. c gray99",
"d. c #FDFCFD",
"f. c #FDFDFD",
"g. c #FEFCFC",
"h. c #FEFDFD",
"j. c #FEFEFE",
/* pixels */
"2 2 2 2 2 < < < > > ; ; = & & % ",
"2 { { [ ] ' I P K H F N M n v # ",
"2 } J G S C V n v j g s y r z @ ",
">.g.g.g.i.i.,.| ` =.y.9.9.9.9.@.",
">.g.g.g.f.f.o.( ! X.5.9.9.9.9.+.",
">.g.g.s.f.%.) Q R ! #.2.9.6.9...",
"-.f.f.y.y._ ( W T W ^ 4.2.2.2. .",
"-.y.y.y.y.3.*.T U O.&.<.2.2.2. .",
"> L x j s a y q 8 7 6 5 4 3 t   ",
"; F S N M b l h d p u w q 0 9   ",
"; = & & % % @ @ O o o   .       "
};
