/* XPM */
static char *me[] = {
/* columns rows colors chars-per-pixel */
"16 12 143 2",
"   c #5D3B68",
".  c #C80308",
"X  c #CA0308",
"o  c #CB0308",
"O  c #CC0308",
"+  c #CD0308",
"@  c #CF0308",
"#  c #D00309",
"$  c #D10309",
"%  c #D20309",
"&  c #D40309",
"*  c #D50309",
"=  c #D60309",
"-  c #D70309",
";  c #D80309",
":  c #D90309",
">  c #DB0309",
",  c #DC0309",
"<  c #DD0309",
"1  c #DF0309",
"2  c #E40006",
"3  c #E00309",
"4  c #E10309",
"5  c #E30309",
"6  c #E40309",
"7  c #E50409",
"8  c #E70409",
"9  c #E80409",
"0  c #EA040A",
"q  c #EB040A",
"w  c #EC040A",
"e  c #EE040A",
"r  c #EF040A",
"t  c #F0040A",
"y  c #F1040A",
"u  c #F3040A",
"i  c #F4040A",
"p  c #F5040A",
"a  c #F6040A",
"s  c #F7040A",
"d  c #FA040A",
"f  c #E32412",
"g  c #EC2112",
"h  c #D44135",
"j  c #D54135",
"k  c #D74135",
"l  c #D84135",
"z  c #D94135",
"x  c #DB4135",
"c  c #DC4136",
"v  c #DD4136",
"b  c #E04136",
"n  c #E14136",
"m  c #E24136",
"M  c #E34136",
"N  c #E54136",
"B  c #E74136",
"V  c #E84136",
"C  c #EA4136",
"Z  c #EC4236",
"A  c #ED4236",
"S  c #EE4236",
"D  c #F04237",
"F  c #F24237",
"G  c #F34237",
"H  c #F44237",
"J  c #F64237",
"K  c #F84237",
"L  c #FB4237",
"P  c #FC4237",
"I  c #D86426",
"U  c #DC6826",
"Y  c #DE772B",
"T  c #E96F29",
"R  c #219C7C",
"E  c #42A668",
"W  c #DE9C32",
"Q  c #F08831",
"!  c #F38A31",
"~  c #E29433",
"^  c #E69634",
"/  c #E89C33",
"(  c #D8A72A",
")  c #DAA92A",
"_  c #DBAA2A",
"`  c #DEAD2A",
"'  c #D5B235",
"]  c #D6B335",
"[  c #D8B335",
"{  c #D8B535",
"}  c #D9B535",
"|  c #DBB737",
" . c #DDB837",
".. c #DFB938",
"X. c #E1AE2B",
"o. c #E3B02C",
"O. c #E7B32C",
"+. c #EBB52E",
"@. c #EFB92F",
"#. c #E3A034",
"$. c #E8A437",
"%. c #EBAE3A",
"&. c #E3B43D",
"*. c #E7B53D",
"=. c #EDB63E",
"-. c #E1BC38",
";. c #E3BD39",
":. c #E6B83F",
">. c #E8BC3B",
",. c #EBBA3F",
"<. c #F2BC30",
"1. c #E6C03A",
"2. c #E7C13A",
"3. c #EBC33C",
"4. c #EDC63C",
"5. c #EFC73D",
"6. c #F2CB3E",
"7. c #F6CE3F",
"8. c #FED438",
"9. c #FFD839",
"0. c #FFDB3A",
"q. c #FFDF3C",
"w. c #FFE23D",
"e. c #FFE63E",
"r. c #FFE73E",
"t. c #FFE93F",
"y. c #FFEB3F",
"u. c #FFED3F",
"i. c #D3AC44",
"p. c #E3BC40",
"a. c #E9BC40",
"s. c #FAD041",
"d. c #FBD141",
"f. c #FED441",
"g. c #FFD642",
"h. c #FFD843",
"j. c #FFDA43",
"k. c #FFDD45",
"l. c #FFDE45",
"z. c #FFDF46",
"x. c #FFE146",
"c. c #0F65B1",
"v. c #0E66B1",
/* pixels */
"x.x.x.x.x.z.z.k.h.h.g.g.s.s.7.6.",
"u.P P L L J J J J D A A A C C <.",
"y.L d s s s y e r q 8 5 5 1 M @.",
"y.L s s y y e / $.2 5 1 > > M +.",
"e.J s r r ! g %.#.f ^ > > & M O.",
"e.J t r q Q =.v.v.*.~ > & % v X.",
"w.D e q 8 T ,.R E &.U & % % v X.",
"q.D 9 6 5 1 1 a.:.i.  % + + z ` ",
"0.C 6 1 < < >.Y :.I W O O o k _ ",
"0.C 5 1 < : & & O O O o O o h _ ",
"8.B N M M v v v v z k k h h h ( ",
"4.4.4.2.2.-.-... . .{ { ] ] ' ' "
};
