/* XPM */
static char *mm[] = {
/* columns rows colors chars-per-pixel */
"16 11 130 2",
"   c #DD0000",
".  c #DF0000",
"X  c #E10000",
"o  c #E30000",
"O  c #E50000",
"+  c #E70000",
"@  c #E90000",
"#  c #EB0000",
"$  c #ED0000",
"%  c #EF0000",
"&  c #F10000",
"*  c #F30000",
"=  c #F50000",
"-  c #F70000",
";  c #F90000",
":  c #FB0000",
">  c #F10B0B",
",  c #F10F0E",
"<  c #F21010",
"1  c #F21313",
"2  c #F21414",
"3  c #F31919",
"4  c #F31A1A",
"5  c #F41E1E",
"6  c #F41F1F",
"7  c #F42020",
"8  c #F52323",
"9  c #F52424",
"0  c #F52525",
"q  c #F52626",
"w  c #F62929",
"e  c #F62A2A",
"r  c #F62B2B",
"t  c #F22C2C",
"y  c #F22F2F",
"u  c #F62C2C",
"i  c #F72E2E",
"p  c #F72F2F",
"a  c #F23232",
"s  c #F33232",
"d  c #F73030",
"f  c #F73131",
"g  c #F33535",
"h  c #F43636",
"j  c #F83434",
"k  c #F83636",
"l  c #F83736",
"z  c #F83737",
"x  c #F23539",
"c  c #F43939",
"v  c #F43B3B",
"b  c #F53D3D",
"n  c #F53F3F",
"m  c #F93A3A",
"M  c #F93B3C",
"N  c #F93C3C",
"B  c #F93C3D",
"V  c #FA3F3F",
"C  c #F03B42",
"Z  c #F64242",
"A  c #F14047",
"S  c #F64444",
"D  c #F74646",
"F  c #FA4142",
"G  c #FA4242",
"H  c #FA4444",
"J  c #FB4545",
"K  c #FB4747",
"L  c #F1454C",
"P  c #F74949",
"I  c #F74B4B",
"U  c #F74E4E",
"Y  c #FB4949",
"T  c #F14A51",
"R  c #F34F56",
"E  c #F85050",
"W  c #F85353",
"Q  c #F95455",
"!  c #F95757",
"~  c #F95858",
"^  c #FA5C5C",
"/  c #FA5D5D",
"(  c #FB6060",
")  c #FB6162",
"_  c #FC6565",
"`  c #FC6666",
"'  c #FC6969",
"]  c #FC6A6A",
"[  c #F66F74",
"{  c #0000B7",
"}  c #0000C1",
"|  c #0000C3",
" . c #0000C5",
".. c #0000C7",
"X. c #0000C9",
"o. c #453BCE",
"O. c #4740D3",
"+. c #4641D3",
"@. c #4B46D3",
"#. c #4C47D5",
"$. c #4646DD",
"%. c #4B4BDB",
"&. c #514CD7",
"*. c #5E57D6",
"=. c #5D58D7",
"-. c #5151DD",
";. c #5558DE",
":. c #6C65DA",
">. c #716DDF",
",. c #7672DE",
"<. c #7070E4",
"1. c #7779E5",
"2. c #7979E3",
"3. c #7D7DE4",
"4. c #8080E5",
"5. c #8183E7",
"6. c #8282E6",
"7. c #9495EA",
"8. c #A9ABED",
"9. c #AEAFED",
"0. c #B0B0EE",
"q. c #B4B5F0",
"w. c #B9B9F1",
"e. c #BABAF0",
"r. c #BABAF1",
"t. c #C1C1F2",
"y. c #DBDBF7",
"u. c #DCDCF8",
"i. c #DDDDF9",
"p. c #DEDEF8",
/* pixels */
"..| | X.| | ..{ : : : * * * % # ",
"| 3.7.t.r.2.<.>.' _ ( / ~ W U # ",
"| 6.r.p.y.0.-.&.K G b z f u P # ",
"| 3.r.p.y.9.%.#.G N j f r q S O ",
"..1.5.0.9.;.$.O.m h p r q 7 b O ",
"{ ,.=.:.=.@.O.o.j d r q 6 4 N O ",
"% [ R T L A C x f r 8 6 4 2 h X ",
": ] Y J V m j d r q 6 4 2 < a . ",
": _ J V m j p r 8 5 4 < , > y . ",
"= ) / ~ Q U P D G b c h a y y . ",
"= * % % % % # O O O O X .       "
};
