/* XPM */
static char *mn[] = {
/* columns rows colors chars-per-pixel */
"16 11 141 2",
"   c #DD0000",
".  c #DF0000",
"X  c #E10000",
"o  c #E30000",
"O  c #E50000",
"+  c #E70000",
"@  c #E90000",
"#  c #EB0000",
"$  c #ED0000",
"%  c #EF0000",
"&  c #F10000",
"*  c #F30000",
"=  c #F50000",
"-  c #F70000",
";  c #F90000",
":  c #FB0000",
">  c #FD0000",
",  c red",
"<  c #F10B0B",
"1  c #F10F0E",
"2  c #F21010",
"3  c #F21313",
"4  c #F21414",
"5  c #F31919",
"6  c #F31A1A",
"7  c #F41F1F",
"8  c #F42020",
"9  c #F52525",
"0  c #F52626",
"q  c #F62B2B",
"w  c #F22C2C",
"e  c #F22F2F",
"r  c #F62C2C",
"t  c #F23232",
"y  c #F33232",
"u  c #F73131",
"i  c #F33535",
"p  c #F43636",
"a  c #F83737",
"s  c #F43B3B",
"d  c #F53F3F",
"f  c #F95B3A",
"g  c #FA5F3F",
"h  c #F64444",
"j  c #F74949",
"k  c #F74E4E",
"l  c #F85353",
"z  c #FD5650",
"x  c #F95757",
"c  c #FD5454",
"v  c #F95B55",
"b  c #FE5959",
"n  c #FA5C5C",
"m  c #FB6545",
"M  c #FC6A4B",
"N  c #FA655D",
"B  c #F96958",
"V  c #FE6B5C",
"C  c #FB7162",
"Z  c #FE7777",
"A  c #FF7B7A",
"S  c #FF7B7B",
"D  c #FE7F79",
"F  c #FAD33F",
"G  c #FD8354",
"H  c #FAB244",
"J  c #FDAC53",
"K  c #FEAC58",
"L  c #FE8776",
"P  c #FFB57B",
"I  c #FBCC49",
"U  c #FBDA45",
"Y  c #FCD04F",
"T  c #FCD64F",
"R  c #FBDA49",
"E  c #FEC359",
"W  c #FECE5F",
"Q  c #FEDE5C",
"!  c #FCD866",
"~  c #FCDB6A",
"^  c #FDDD6F",
"/  c #FEC879",
"(  c #FEDC73",
")  c #0000D3",
"_  c #0000D9",
"`  c #0000E5",
"'  c #0000E7",
"]  c #0000E9",
"[  c #0000EB",
"{  c #0000EF",
"}  c #1E19EE",
"|  c #0000F9",
" . c #0000FB",
".. c #0000FD",
"X. c #1E1EF4",
"o. c #241FEF",
"O. c #2323F5",
"+. c #2424F5",
"@. c #2A24F0",
"#. c #2929F6",
"$. c #2A2AF6",
"%. c #2E2EF7",
"&. c #2F2FF7",
"*. c #302BF1",
"=. c #3530F2",
"-. c #3030F7",
";. c #3C37F3",
":. c #3E39F0",
">. c #3D3DF5",
",. c #3434F8",
"<. c #3535F8",
"1. c #3636F8",
"2. c #3B3BF9",
"3. c #3C3CF9",
"4. c #4135EC",
"5. c #473BED",
"6. c #413CF5",
"7. c #4D41EE",
"8. c #5B50EE",
"9. c #4242F6",
"0. c #4646F7",
"q. c #4B4BF7",
"w. c #4040FA",
"e. c #4141FA",
"r. c #4241FA",
"t. c #4242FA",
"y. c #4646FB",
"u. c #4747FB",
"i. c #4B4BFC",
"p. c #4C4CFC",
"a. c #5246F0",
"s. c #574CF1",
"d. c #5B51F2",
"f. c #5151FD",
"g. c #6055F2",
"h. c #6560F7",
"j. c #6565FC",
"k. c #6969FC",
"l. c #6D6DFD",
"z. c #7D75F5",
"x. c #7070FE",
/* pixels */
", , , , , ] .... . .{ = * * % % ",
", S P D Z z.x.l.k.j.h.n x l k @ ",
", S W V b d.f.p.u.t.6.a u r j @ ",
", / Q E c d.p.y.e.>.;.u r 0 h + ",
", L K G z s.y.e.3.1.*.q 0 8 d + ",
": ( J T M a.w.2.1.-.*.9 8 6 s + ",
", ^ Y R m 7.2.<.-.$.@.7 6 4 p X ",
": ~ I U g 5.,.%.$.+.o.6 4 2 t . ",
"= ! H F f 4.%.$.+.X.} 3 1 < e . ",
"= C N B v 8.q.y.9.>.:.p t e w . ",
"= = * % % ) ] ] ' ' _ X .   .   "
};
