/* XPM */
static char *mo[] = {
/* columns rows colors chars-per-pixel */
"16 11 155 2",
"   c #002700",
".  c #002900",
"X  c #002D00",
"o  c #002F00",
"O  c #003100",
"+  c #003300",
"@  c #003500",
"#  c #003900",
"$  c #003B00",
"%  c #003D00",
"&  c #003F00",
"*  c #004500",
"=  c #004B00",
"-  c #004D00",
";  c #005100",
":  c #005700",
">  c #005D00",
",  c #006100",
"<  c #006300",
"1  c #006700",
"2  c #006D00",
"3  c #006F00",
"4  c #007100",
"5  c #007500",
"6  c #007700",
"7  c #007B00",
"8  c #007D00",
"9  c #007F00",
"0  c #008100",
"q  c #008300",
"w  c #008500",
"e  c #008700",
"r  c #008900",
"t  c #009100",
"y  c #0B950B",
"u  c #0F970E",
"i  c #109710",
"p  c #139813",
"a  c #149914",
"s  c #149A14",
"d  c #199B19",
"f  c #1A9C1A",
"g  c #1B9C1B",
"h  c #209F20",
"j  c #25A125",
"k  c #26A226",
"l  c #28A22B",
"z  c #2BA52B",
"x  c #2CA22C",
"c  c #2CA62C",
"v  c #2FA42F",
"b  c #39AA2B",
"n  c #30A530",
"m  c #32A532",
"M  c #33A632",
"N  c #31A931",
"B  c #35A835",
"V  c #36A836",
"C  c #37A937",
"Z  c #37AA37",
"A  c #39A939",
"S  c #3AAB3A",
"D  c #3BAA3B",
"F  c #3DAB3D",
"G  c #3EAC3E",
"H  c #3FAD3F",
"J  c #3FAF3F",
"K  c #41AE30",
"L  c #40AE3F",
"P  c #45B036",
"I  c #45B13D",
"U  c #4BB33E",
"Y  c #42AD42",
"T  c #44AF44",
"R  c #45AE45",
"E  c #44B144",
"W  c #45B045",
"Q  c #45B245",
"!  c #46B146",
"~  c #47B047",
"^  c #46B247",
"/  c #45B049",
"(  c #49B049",
")  c #49B249",
"_  c #4BB24B",
"`  c #49B449",
"'  c #49B549",
"]  c #4EB44E",
"[  c #4FB74F",
"{  c #51B542",
"}  c #57B94B",
"|  c #5CBB4B",
" . c #5FBD4C",
".. c #50B350",
"X. c #53B753",
"o. c #54B755",
"O. c #53B953",
"+. c #56B950",
"@. c #54B954",
"#. c #57BA54",
"$. c #58B957",
"%. c #58B958",
"&. c #59BB59",
"*. c #58BC58",
"=. c #58BC59",
"-. c #5CBB5C",
";. c #5CBD5C",
":. c #5DBC5D",
">. c #5CBE5C",
",. c #5FBF5F",
"<. c #62BE51",
"1. c #61BD60",
"2. c #61BE62",
"3. c #66BA67",
"4. c #65BE65",
"5. c #66C066",
"6. c #6AC16A",
"7. c #6AC36A",
"8. c #6FC46F",
"9. c #71C569",
"0. c #71C56D",
"q. c #70C371",
"w. c #72C673",
"e. c #74C774",
"r. c #76C876",
"t. c #77C877",
"y. c #79C879",
"u. c #79C979",
"i. c #7BCA7A",
"p. c #7BCA7B",
"a. c #7FC97E",
"s. c #9CC027",
"d. c #A7C737",
"f. c #BED44D",
"g. c #B2D050",
"h. c #B9D456",
"j. c #86CB88",
"k. c #93CD93",
"l. c #97CF97",
"z. c #9AD19A",
"x. c #A8D7AA",
"c. c #ABDAAB",
"v. c #AEDCAF",
"b. c #B4DCB4",
"n. c #B8DEB7",
"m. c #D1EAD1",
"M. c #D6EAD6",
"N. c #D8ECD8",
"B. c #DCECDC",
"V. c #E1EDE1",
"C. c #EEF4EE",
"Z. c #F3F6F3",
"A. c #F3F7F4",
"S. c #F6F6F6",
"D. c #F9F9F9",
/* pixels */
"t r r r w w q 7 6 6 4 2 1 , > , ",
"w p.p.p.t.e.q.0.9.4.2.=.-.o...- ",
"r p.,.;.&.#.<. .f./ J Z N c _ = ",
"w y.;.*.$.h.} 7.g./ J d.c k R * ",
"r r.*.O.+.| Q v.A./ K b k h H & ",
"q w.O.[ g.j.c.N.A.n.x.l s.f D $ ",
"9 8.[ ` Q m.D.C.M.S.B.k.d a C @ ",
"7 7.` Q Y Q ] R G Y n g a i M O ",
"6 5.E J S A z.b.V.l.3.p u y v X ",
"3 2.-.&.@...( ( R G A B M v x   ",
"6 1 < > : ; - * & $ $ O X X . @ "
};
