/* XPM */
static char *mw[] = {
/* columns rows colors chars-per-pixel */
"16 11 148 2",
"   c black",
".  c #070000",
"X  c #000700",
"o  c #002300",
"O  c #002900",
"+  c #002B00",
"@  c #002D00",
"#  c #002F00",
"$  c #003300",
"%  c #003900",
"&  c #003D00",
"*  c #2C2C2C",
"=  c #313131",
"-  c #6D0000",
";  c #6F0000",
":  c #402626",
">  c #452B2B",
",  c #613737",
"<  c #004100",
"1  c #004700",
"2  c #004D00",
"3  c #005100",
"4  c #005700",
"5  c #005B00",
"6  c #005D00",
"7  c #006300",
"8  c #006700",
"9  c #006D00",
"0  c #007500",
"q  c #494949",
"w  c #4E4E4E",
"e  c #5B4444",
"r  c #535353",
"t  c #585757",
"y  c gray36",
"u  c #5E5C5C",
"i  c #5F5F5F",
"p  c #734242",
"a  c #705151",
"s  c #715151",
"d  c #715C5C",
"f  c #787777",
"g  c #797979",
"h  c #7B7B7A",
"j  c #7B7B7B",
"k  c #883736",
"l  c #E30000",
"z  c #E50000",
"x  c #E70000",
"c  c #FD0000",
"v  c #F21414",
"b  c #F31919",
"n  c #F31A1A",
"m  c #F41F1F",
"M  c #C73131",
"N  c #C63C3C",
"B  c #C63C3D",
"V  c #F42020",
"C  c #F52424",
"Z  c #F52525",
"A  c #F62A2A",
"S  c #F62B2B",
"D  c #F72F2F",
"F  c #F63030",
"G  c #F73030",
"H  c #F23636",
"J  c #F43636",
"K  c #F83535",
"L  c #F83636",
"P  c #F43B3B",
"I  c #F13B3C",
"U  c #F53F3F",
"Y  c #F93B3A",
"T  c #F93B3B",
"R  c #9A5959",
"E  c #A15959",
"W  c #996060",
"Q  c #986969",
"!  c #996D6D",
"~  c #8A7979",
"^  c #A47474",
"/  c #CD4142",
"(  c #CF4747",
")  c #CA4B4B",
"_  c #D05454",
"`  c #D45454",
"'  c #EE4747",
"]  c #EE4C4C",
"[  c #F24141",
"{  c #F44646",
"}  c #FA4040",
"|  c #FB4545",
" . c #FB4646",
".. c #FB4A49",
"X. c #FA4B4B",
"o. c #FC4A4B",
"O. c #FC4F4F",
"+. c #FC4F50",
"@. c #FD5353",
"#. c #FD5454",
"$. c #FE5858",
"%. c #C46565",
"&. c #D97071",
"*. c #FD6F6F",
"=. c #FE7273",
"-. c #FE7676",
";. c #0B970B",
":. c #0F9A0E",
">. c #139C13",
",. c #189F19",
"<. c #2F8510",
"1. c #348814",
"2. c #388A19",
"3. c #3D8D1F",
"4. c #1EA11E",
"5. c #23A323",
"6. c #29A629",
"7. c #2CA22C",
"8. c #2FA42F",
"9. c #2FA62F",
"0. c #2EA92E",
"q. c #32A532",
"w. c #35A835",
"e. c #34AC34",
"r. c #39A939",
"t. c #3AAE3A",
"y. c #3DAC3D",
"u. c #3FB13F",
"i. c #429024",
"p. c #46932A",
"a. c #4B962F",
"s. c #4D9632",
"d. c #509A34",
"f. c #559D3A",
"g. c #58A13F",
"h. c #42AE42",
"j. c #5DA445",
"k. c #46B046",
"l. c #44B444",
"z. c #4BB24B",
"x. c #50B450",
"c. c #54B755",
"v. c #58B958",
"b. c #5DBC5D",
"n. c #61A749",
"m. c #61BE62",
"M. c #7FB76A",
"N. c #66C266",
/* pixels */
"            . ; ;               ",
"  j j j f ^ &.! Q %.W u t r w   ",
"  j i y E _ a ] ' p B , = * q   ",
"  ~ d R ` a ) ( / B k M > : e   ",
"c -.#.#.@... .[ I H G S Z V U x ",
"c =.@.O.o. .U T L G S Z m n P x ",
"c *.O... .} T J G S V V n v H l ",
"5 M.n.j.j.d.d.a.p.i.3.2.1.<.s.X ",
"0 N.l.u.t.e.0.6.5.4.,.>.:.;.8.@ ",
"9 m.b.v.c.x.z.k.h.y.r.w.q.8.7.o ",
"0 8 7 6 5 2 2 1 < & % $ @ @ O $ "
};
