/* XPM */
static char *ne[] = {
/* columns rows colors chars-per-pixel */
"16 11 154 2",
"   c #002100",
".  c #002700",
"X  c #002900",
"o  c #002D00",
"O  c #002F00",
"+  c #003300",
"@  c #003500",
"#  c #003900",
"$  c #003D00",
"%  c #004100",
"&  c #004700",
"*  c #004D00",
"=  c #005100",
"-  c #005700",
";  c #005D00",
":  c #006300",
">  c #006500",
",  c #006F00",
"<  c #007100",
"1  c #007500",
"2  c #E90000",
"3  c #EB0300",
"4  c #EF0F00",
"5  c #ED1B00",
"6  c #F11900",
"7  c #F32100",
"8  c #F52700",
"9  c #F72D00",
"0  c #F93500",
"q  c #FB3900",
"w  c #FD3D00",
"e  c #FD4300",
"r  c #FF4300",
"t  c #FD4500",
"y  c #FD4B00",
"u  c #FF4B00",
"i  c #FF4D00",
"p  c #FF5900",
"a  c #F6762C",
"s  c #F87536",
"d  c #F77B31",
"f  c #F87F37",
"g  c #F97C3B",
"h  c #0B8F0B",
"j  c #0F920E",
"k  c #139413",
"l  c #189619",
"z  c #1E991E",
"x  c #239D23",
"c  c #2F9F2F",
"v  c #29A029",
"b  c #2CA22C",
"n  c #2EA22E",
"m  c #2FA42F",
"M  c #32A532",
"N  c #34A534",
"B  c #35A835",
"V  c #39A939",
"C  c #3AA83A",
"Z  c #3FAB3F",
"A  c #3DAC3D",
"S  c #42AE42",
"D  c #44AE44",
"F  c #46B046",
"G  c #4BB24B",
"H  c #50B450",
"J  c #54B755",
"K  c #58B958",
"L  c #5DBC5D",
"P  c #61BE62",
"I  c #66BD66",
"U  c #F9823D",
"Y  c #FA8642",
"T  c #FB8A47",
"R  c #F78A49",
"E  c #FC8D4C",
"W  c #F7934E",
"Q  c #FD8F51",
"!  c #F89653",
"~  c #FD9354",
"^  c #F99857",
"/  c #FE9659",
"(  c #FA9B5C",
")  c #FE985C",
"_  c #FE9A5F",
"`  c #FB9E60",
"'  c #FCA165",
"]  c #FCA469",
"[  c #FDA76D",
"{  c #F7A471",
"}  c #FDA971",
"|  c #FEAB74",
" . c #FEAD77",
".. c #F8A978",
"X. c #FFAB7A",
"o. c #FEAE79",
"O. c #F9AE7F",
"+. c #FFB07B",
"@. c #DBB59D",
"#. c #F7B186",
"$. c #FAB286",
"%. c #FABD98",
"&. c #A1C7A1",
"*. c #F6C8AC",
"=. c #F8CDB3",
"-. c #F9CFB7",
";. c #FBD4BD",
":. c #C5DFC5",
">. c LightGray",
",. c #D5D5D5",
"<. c #D7D7D7",
"1. c #F5D9C9",
"2. c #D0E4D0",
"3. c #D2E6D2",
"4. c #D4E7D4",
"5. c #D5E8D5",
"6. c #D7E8D7",
"7. c #D7EAD8",
"8. c #D8ECDC",
"9. c #DAEDDD",
"0. c #DCEEDD",
"q. c #DDEFDD",
"w. c #DFF0DF",
"e. c #F5E3D6",
"r. c #F6E4D8",
"t. c #F7E6DA",
"y. c #F6E6DB",
"u. c #F8E8DB",
"i. c #F9E9DE",
"p. c #FAEAE0",
"a. c #FBEBE1",
"s. c #FCECE1",
"d. c #FDEDE2",
"f. c #FDEEE3",
"g. c #FEEFE5",
"h. c #E0F0E0",
"j. c #E2F1E2",
"k. c #E8F4E8",
"l. c #FEF2EA",
"z. c #F1F1F1",
"x. c gray95",
"c. c #F3F3F3",
"v. c #F4F4F4",
"b. c #F4F5F5",
"n. c gray96",
"m. c #F6F6F6",
"M. c gray97",
"N. c gray98",
"B. c #FBFBFB",
"V. c #FBFCFB",
"C. c gray99",
"Z. c #FDFCFD",
"A. c #FDFDFD",
"S. c #FEFEFE",
/* pixels */
"p u i i u t r w q 0 9 8 7 6 4 5 ",
"i +.+.o. .| } [ ] ' ( ( ( ! W 3 ",
"r X._ _ / ~ Q E T Y U f d a R 3 ",
"1.l.g.f.f.s.s.a.a.i.y.y.e.e.y.@.",
"n.S.S.S.C.B.;.$.#.=.M.n.b.v.b.<.",
"c.S.S.C.C.B.%.g s $.n.b.v.v.v.,.",
"c.C.B.B.B.B.-...] *.b.b.c.c.v.>.",
":.k.j.h.q.q.q.9.8.6.4.4.3.2.6.&.",
", I D S C M n v x z l k j j c   ",
", P L K J H G F S A C B M m b X ",
"1 > : ; - = * & $ $ # + o o . @ "
};
