/* XPM */
static char *ng[] = {
/* columns rows colors chars-per-pixel */
"16 11 132 2",
"   c #002700",
".  c #002900",
"X  c #002D00",
"o  c #002F00",
"O  c #003100",
"+  c #003500",
"@  c #003B00",
"#  c #003F00",
"$  c #004500",
"%  c #004B00",
"&  c #004D00",
"*  c #005300",
"=  c #005B00",
"-  c #005D00",
";  c #006100",
":  c #006300",
">  c #006500",
",  c #006700",
"<  c #006900",
"1  c #006F00",
"2  c #007500",
"3  c #007700",
"4  c #007B00",
"5  c #007F00",
"6  c #008300",
"7  c #008500",
"8  c #008700",
"9  c #008900",
"0  c #009100",
"q  c #0B950B",
"w  c #0F960E",
"e  c #109710",
"r  c #139713",
"t  c #149914",
"y  c #149A14",
"u  c #199A19",
"i  c #199B19",
"p  c #1A9C1A",
"a  c #1F9D1F",
"s  c #1F9E1F",
"d  c #209F20",
"f  c #25A025",
"g  c #25A125",
"h  c #26A226",
"j  c #2BA42B",
"k  c #2BA52B",
"l  c #2CA22C",
"z  c #2CA62C",
"x  c #2FA42F",
"c  c #31A731",
"v  c #32A532",
"b  c #33A632",
"n  c #35A635",
"m  c #31A831",
"M  c #36A836",
"N  c #37AA37",
"B  c #3AAA3A",
"V  c #3BAA3B",
"C  c #3FAD3F",
"Z  c #3FAE3F",
"A  c #40AD3F",
"S  c #44AF44",
"D  c #44B144",
"F  c #45B045",
"G  c #45B145",
"H  c #49B249",
"J  c #4BB34B",
"K  c #49B449",
"L  c #4EB44E",
"P  c #4FB64F",
"I  c #4FB74F",
"U  c #50B550",
"Y  c #53B753",
"T  c #54B555",
"R  c #54B754",
"E  c #53B953",
"W  c #54B954",
"Q  c #58B957",
"!  c #58B958",
"~  c #59BA59",
"^  c #58BB59",
"/  c #58BC58",
"(  c #5CB95C",
")  c #5CBD5C",
"_  c #5DBC5D",
"`  c #5FBF5F",
"'  c #61BE62",
"]  c #66C066",
"[  c #6AC36A",
"{  c #6FC46F",
"}  c #72C673",
"|  c #77C777",
" . c #76C876",
".. c #79C879",
"X. c #7BCA7A",
"o. c #7BCA7B",
"O. c #BDC7BD",
"+. c #C7D3C7",
"@. c LightGray",
"#. c #D7D7D7",
"$. c gray85",
"%. c #D9E3D9",
"&. c #DFE9DF",
"*. c #E7EEE7",
"=. c gray92",
"-. c #E8EFE8",
";. c gray93",
":. c #EFEFEF",
">. c #EAF0EA",
",. c #EBF1EB",
"<. c #ECF2EC",
"1. c #EEF3EE",
"2. c #EEF4EE",
"3. c #EFF4EF",
"4. c #EFF5EF",
"5. c #F0F6F0",
"6. c #F1F7F1",
"7. c #F2F7F2",
"8. c #F4F4F4",
"9. c gray96",
"0. c #F6F6F6",
"q. c gray97",
"w. c #F3F8F3",
"e. c #F4F9F4",
"r. c #F6FBF6",
"t. c #F8F8F8",
"y. c #F9F9F9",
"u. c gray98",
"i. c #FBFBFB",
"p. c gray99",
"a. c #FDFDFD",
"s. c #FDFDFE",
/* pixels */
"0 9 9 7 6 &.:.:.;.=.%.< > ; - ; ",
"7 o.o.o.| r.a.a.a.y.7.~ ~ Y I & ",
"7 o.` ) ~ e.a.p.y.p.7.N m x J % ",
"9 o.` W R w.p.p.y.y.1.c x d S $ ",
"7  .W W Y 7.p.y.y.t.1.x g d C $ ",
"7 } E I J 7.y.y.t.t.-.d s p V @ ",
"5 { I K G 7.y.t.t.q.-.a p t n + ",
"4 [ K G C 1.q.q.q.9.-.p t e c o ",
"3 ' G C B 1.q.q.9.8.-.r w q x X ",
"1 ' ` Q T 1.q.q.9.9.-.n v x x   ",
"3 > ; = * +.$.#.#.@.O.o X X   + "
};
