/* XPM */
static char *nr[] = {
/* columns rows colors chars-per-pixel */
"16 11 157 2",
"   c black",
".  c #000001",
"X  c #000003",
"o  c #000007",
"O  c #00000D",
"+  c #000013",
"@  c #000019",
"#  c #00001B",
"$  c #000021",
"%  c #000023",
"&  c #000027",
"*  c #00002D",
"=  c #00002F",
"-  c #000033",
";  c #000035",
":  c #000039",
">  c #00003B",
",  c #00003F",
"<  c #000041",
"1  c #000047",
"2  c #00004B",
"3  c #00004D",
"4  c #000351",
"5  c #000551",
"6  c #000955",
"7  c #000D59",
"8  c #00135D",
"9  c #00135F",
"0  c #00155F",
"q  c #001D5B",
"w  c #00195F",
"e  c #10457A",
"r  c #13477D",
"t  c #14487C",
"y  c #194B7F",
"u  c #1C4D7F",
"i  c #BB8100",
"p  c #DFB51D",
"a  c #DEC158",
"s  c #E0C35C",
"d  c #E1C560",
"f  c #E3C765",
"g  c #E4C969",
"h  c #E6CB6D",
"j  c #E2C970",
"k  c #E7CD72",
"l  c #E8CF76",
"z  c #E9D17A",
"x  c #E8D17D",
"c  c #184B80",
"v  c #1D4F83",
"b  c #1E5082",
"n  c #215182",
"m  c #225386",
"M  c #245485",
"N  c #265685",
"B  c #285785",
"V  c #285889",
"C  c #2A5A89",
"Z  c #28588A",
"A  c #2A5A8B",
"S  c #2D5B89",
"D  c #2D5C8C",
"F  c #2D5C8D",
"G  c #315D8A",
"H  c #305E8C",
"J  c #305E8E",
"K  c #315F8E",
"L  c #325F8F",
"P  c #33608C",
"I  c #34608D",
"U  c #35638F",
"Y  c #36628F",
"T  c #326191",
"R  c #366290",
"E  c #366391",
"W  c #356292",
"Q  c #376392",
"!  c #376490",
"~  c #3A6591",
"^  c #3B6692",
"/  c #3B6693",
"(  c #3C6690",
")  c #3B6795",
"_  c #3D6893",
"`  c #3C6895",
"'  c #3E6894",
"]  c #406B96",
"[  c #426B96",
"{  c #426D97",
"}  c #466F96",
"|  c #406B98",
" . c #416C98",
".. c #436E9A",
"X. c #466F99",
"o. c #456F9C",
"O. c #467099",
"+. c #47709A",
"@. c #46709B",
"#. c #48709A",
"$. c #4A729C",
"%. c #4A739F",
"&. c #4B749E",
"*. c #4C749D",
"=. c #4D759D",
"-. c #4F769E",
";. c #53799F",
":. c #4E77A1",
">. c #5078A1",
",. c #5279A0",
"<. c #5379A0",
"1. c #547BA0",
"2. c #557BA3",
"3. c #567CA2",
"4. c #577DA3",
"5. c #547AA4",
"6. c #5A7EA2",
"7. c #587EA6",
"8. c #597FA6",
"9. c #5E82A3",
"0. c #5C80A6",
"q. c #5B81A9",
"w. c #5D82A8",
"e. c #5F84AB",
"r. c #6284A6",
"t. c #6084A9",
"y. c #6185A9",
"u. c #6284A9",
"i. c #6085AB",
"p. c #6587AA",
"a. c #6387AC",
"s. c #6587AC",
"d. c #6588AB",
"f. c #698BAE",
"g. c #6A8BAE",
"h. c #6D8FB0",
"j. c #6E8FB1",
"k. c #7091B2",
"l. c #7394B3",
"z. c #7694B3",
"x. c #7494B4",
"c. c #7796B6",
"v. c #7E9BB6",
"b. c #7A99B9",
"n. c #7B99BA",
"m. c #7C9AB9",
"M. c #7E9CBA",
"N. c #7E9DBB",
"B. c #8FA8BF",
"V. c #E8D380",
"C. c #ECD684",
"Z. c #F1DD9A",
"A. c #93ABC4",
"S. c #B8C7D6",
"D. c #DBE3EC",
"F. c #E4E8EE",
"G. c #FBFBFB",
/* pixels */
"w 0 0 0 9 7 6 3 2 1 < > ; = & % ",
"0 N.N.m.n.c.l.l.j.f.d.e.9.7.<.@ ",
"0 N.a.i.q.0.5.>.&.@...) W L =.+ ",
"9 n.e.q.7.5.>.&.o.' ) W L A O.O ",
"q v.r.9.6.<.=.O.{ _ Q P S B } X ",
"p Z.C.x x z l k h g f s a a j i ",
"5 l.3.B.3.O.' / U P A N n u ( . ",
"3 j.A.G.D...Q T F Z m v y t W . ",
"1 g.i.F.S.( L D Z M v y t e Y . ",
", p.i.z.p.;.=.$.} { ' / Y P G . ",
"> - = & % @ + O X . . . . . . . "
};
