/* XPM */
static char *nz[] = {
/* columns rows colors chars-per-pixel */
"16 11 163 2",
"   c black",
".  c #000001",
"X  c #000003",
"o  c #000007",
"O  c #000009",
"+  c #00000B",
"@  c #00000F",
"#  c #000011",
"$  c #000015",
"%  c #000017",
"&  c #000019",
"*  c #00001D",
"=  c #00001F",
"-  c #000023",
";  c #000025",
":  c #000029",
">  c #00002D",
",  c #000033",
"<  c #000039",
"1  c #00003D",
"2  c #00003F",
"3  c #7F153B",
"4  c #000045",
"5  c #000047",
"6  c #00004D",
"7  c #00004F",
"8  c #000051",
"9  c #000053",
"0  c #000055",
"q  c #000059",
"w  c #00005D",
"e  c #00005F",
"r  c #000061",
"t  c #000067",
"y  c #2D176B",
"u  c #651F53",
"i  c #5D235D",
"p  c #7F2349",
"a  c #6E3663",
"s  c #753D6A",
"d  c #79426E",
"f  c #85173D",
"g  c #CF1919",
"h  c #A8485B",
"j  c #B94650",
"k  c #804D76",
"l  c #895378",
"z  c #88567F",
"x  c #8E597D",
"c  c #AE5265",
"v  c #B1596D",
"b  c #AF5F79",
"n  c #B66275",
"m  c #C3606A",
"M  c #C86670",
"N  c #D76E72",
"B  c #E46B6A",
"V  c #E57472",
"C  c #E17778",
"Z  c #E97C7A",
"A  c #102986",
"S  c #142E89",
"D  c #18318A",
"F  c #19318B",
"G  c #1E358E",
"H  c #1F368E",
"J  c #1F378E",
"K  c #233A91",
"L  c #243B90",
"P  c #243B91",
"I  c #253C92",
"U  c #293F94",
"Y  c #2C4193",
"T  c #2A4094",
"R  c #2B4195",
"E  c #2C4294",
"W  c #2C4396",
"Q  c #2F4494",
"!  c #2E4597",
"~  c #2F4597",
"^  c #2F4598",
"/  c #334797",
"(  c #354A99",
")  c #364B99",
"_  c #344A9A",
"`  c #344A9B",
"'  c #374C99",
"]  c #374C9B",
"[  c #394D9A",
"{  c #3B4F9C",
"}  c #3A4F9D",
"|  c #3A4F9E",
" . c #3B509C",
".. c #3D519D",
"X. c #3C519F",
"o. c #3F54A1",
"O. c #46468E",
"+. c #435299",
"@. c #42559F",
"#. c #4B559B",
"$. c #53539A",
"%. c #6B6199",
"&. c #7B6395",
"*. c #4055A0",
"=. c #4054A1",
"-. c #4256A2",
";. c #4457A2",
":. c #465AA2",
">. c #4458A4",
",. c #4559A4",
"<. c #485AA1",
"1. c #4B5BA3",
"2. c #495DA4",
"3. c #4B5EA5",
"4. c #495EA7",
"5. c #4E61A8",
"6. c #4F61A9",
"7. c #5062A8",
"8. c #5365A9",
"9. c #5466AA",
"0. c #586AAD",
"q. c #5D6FB0",
"w. c #6264A1",
"e. c #606EAD",
"r. c #6171B1",
"t. c #6172B3",
"y. c #6575B3",
"u. c #6676B4",
"i. c #6A7AB5",
"p. c #6A7AB7",
"a. c #6F7FB9",
"s. c #8F5F86",
"d. c #805E8C",
"f. c #945D80",
"g. c #916185",
"h. c #816290",
"j. c #92769C",
"k. c #98799E",
"l. c #A87390",
"z. c #A47B9A",
"x. c #887CA9",
"c. c #C37181",
"v. c #9787AF",
"b. c #C38293",
"n. c #C18395",
"m. c #D58991",
"M. c #E08284",
"N. c #EB8582",
"B. c #E28789",
"V. c #E79495",
"C. c #D8A1AA",
"Z. c #D8AAB4",
"A. c #D9B2BA",
"S. c #F1A8A6",
"D. c #F1ACA9",
"F. c #E2B8BE",
"G. c #939CC6",
"H. c #9A9CC3",
"J. c #D8BAC5",
"K. c #E4C0C8",
"L. c #E3C4CC",
"P. c #E6CFD7",
"I. c #E0D4DF",
/* pixels */
"c.&.t 3 f 0 u b w 0 8 6 4 2 < 2 ",
"y K.I.Z.C.J.P.H.p.y.r.z.e.8.5.: ",
"g V.N.V B Z C N 1.=.g.M x Y 2.; ",
"p F.S.M.B.D.m.l.;.X.] z ~ l 1.= ",
"%.L.v.n.b.G.A.k.X.n #.R k c g.& ",
"i x.$.h.d.O.w.j.] m v I J d  .$ ",
"r a.6.4.,.=.{ _ ~ Y L J F S ] @ ",
"w p.4.,.=.| _ ~ R K J F s A / o ",
"q u.,.o.{ _ ~ U K J S h j a Q . ",
"8 r.q.0.8.7.4.:.@.| { +.x / Y . ",
"8 5 2 < , > : - & & # + o . . + "
};
