/* XPM */
static char *ru[] = {
/* columns rows colors chars-per-pixel */
"16 11 135 2",
"   c #7B0000",
".  c #B30000",
"X  c #DD0000",
"o  c #DF0000",
"O  c #E10000",
"+  c #E30000",
"@  c #E50000",
"#  c #E70000",
"$  c #E90000",
"%  c #EB0000",
"&  c #ED0000",
"*  c #EF0000",
"=  c #F10000",
"-  c #F30000",
";  c #F50000",
":  c #F70000",
">  c #F90000",
",  c #F10B0B",
"<  c #F10F0E",
"1  c #F21313",
"2  c #F31919",
"3  c #F41E1E",
"4  c #F52323",
"5  c #F62929",
"6  c #F22C2C",
"7  c #F22F2F",
"8  c #F72E2E",
"9  c #F23232",
"0  c #F33535",
"q  c #F83434",
"w  c #F43939",
"e  c #F53D3D",
"r  c #F93A3A",
"t  c #FA3F3F",
"y  c #BD1043",
"u  c #BF1446",
"i  c #C2194B",
"p  c #C41F4F",
"a  c #C62453",
"s  c #C82A58",
"d  c #CA2F5D",
"f  c #C8325E",
"g  c #CC3461",
"h  c #CE3A66",
"j  c #D03F6A",
"k  c #F64242",
"l  c #F74646",
"z  c #FA4444",
"x  c #F74B4B",
"c  c #F85050",
"v  c #F95455",
"b  c #F95858",
"n  c #FA5D5D",
"m  c #D1456E",
"M  c #D34972",
"N  c #FB6162",
"B  c #FC6666",
"V  c #0000E3",
"C  c #0000E5",
"Z  c #0000E7",
"A  c #0000FD",
"S  c #1414F2",
"D  c #1919F3",
"F  c #1A1AF3",
"G  c #1F1FF4",
"H  c #2020F4",
"J  c #2424F5",
"K  c #2525F5",
"L  c #2A2AF6",
"P  c #2A2BF6",
"I  c #2B2BF6",
"U  c #2F2FF7",
"Y  c #3030F7",
"T  c #3636F4",
"R  c #3B3BF5",
"E  c #3F3FF5",
"W  c #3535F8",
"Q  c #3636F8",
"!  c #3B3BF9",
"~  c #4040FA",
"^  c #4141FA",
"/  c #4545FB",
"(  c #4646FB",
")  c #494AFB",
"_  c #4B4AFC",
"`  c #4B4BFC",
"'  c #4949FF",
"]  c #4F4FFC",
"[  c #504FFD",
"{  c #5353FD",
"}  c #5454FD",
"|  c #5858FE",
" . c #6F6FFD",
".. c #7D7DF5",
"X. c #7272FE",
"o. c #7676FE",
"O. c #DC6A8C",
"+. c #8181F6",
"@. c #8585F7",
"#. c #8F8FF6",
"$. c #8888F8",
"%. c #8C8CF9",
"&. c #8F8FFA",
"*. c #9393FB",
"=. c #9696FC",
"-. c #9898FD",
";. c #9B9BFD",
":. c #9E9EFE",
">. c #A0A0FE",
",. c #B1B1FE",
"<. c #DDDDE9",
"1. c #DFDFEB",
"2. c #E1E3EF",
"3. c #E5E5EF",
"4. c #E7E7F1",
"5. c #E9E9F3",
"6. c #EBEBF5",
"7. c #EDEDF7",
"8. c #EFEFF9",
"9. c #EFEFFB",
"0. c #F6F6F6",
"q. c gray97",
"w. c #F1F1FD",
"e. c #F3F3FD",
"r. c #F5F5FD",
"t. c #F5F5FF",
"y. c #F8F8F8",
"u. c #F9F9F9",
"i. c gray98",
"p. c #FBFBFB",
"a. c gray99",
"s. c #FDFDFD",
"d. c #FDFDFE",
"f. c #FEFEFE",
"g. c gray100",
/* pixels */
"t.t.t.t.e.e.e.w.8.8.7.6.5.4.3.2.",
"t.g.g.g.g.g.g.a.a.a.i.i.i.y.q.1.",
"t.g.g.g.g.a.g.a.i.i.i.q.q.q.q.1.",
"' ,.>.;.;.=.=.*.&.%.$.@.+...#.C ",
"A o.| } [ ) ( ^ ! W U I J G E C ",
"A X.{ ] ` ( ~ ! W U I K G F R C ",
"A  .] ) ( ~ ! W Y I J G F S T V ",
". O.M m j h g d s a p i u y f   ",
"> B z t t q 8 5 4 3 2 1 < , 7 X ",
": N n b v x x l k e w 0 9 7 7 X ",
": = = & & & % % # # + + X X X X "
};
