/* XPM */
static char *sb[] = {
/* columns rows colors chars-per-pixel */
"16 11 144 2",
"   c black",
".  c #000900",
"X  c #59353F",
"o  c #0B670B",
"O  c #0F6A0E",
"+  c #106A10",
"@  c #136C13",
"#  c #146E14",
"$  c #187019",
"%  c #197019",
"&  c #1A701A",
"*  c #1E741E",
"=  c #1F741F",
"-  c #207520",
";  c #237723",
":  c #257625",
">  c #257725",
",  c #267626",
"<  c #247824",
"1  c #297B29",
"2  c #2A792B",
"3  c #2A7A2A",
"4  c #2A7B2A",
"5  c #2C7A2B",
"6  c #2C7B2C",
"7  c #2E7C2E",
"8  c #2F7C2F",
"9  c #2F7D2F",
"0  c #327F32",
"q  c #337F32",
"w  c #436700",
"e  c #676B00",
"r  c #915700",
"t  c #358235",
"y  c #368236",
"u  c #398439",
"i  c #3B853B",
"p  c #3D863D",
"a  c #3F893F",
"s  c #558F36",
"d  c #428A42",
"f  c #448B44",
"g  c #468D46",
"h  c #498C49",
"j  c #4B904B",
"k  c #509250",
"l  c #549355",
"z  c #709C40",
"x  c #AF9900",
"c  c #9FAD3F",
"v  c #C79300",
"b  c #C39B00",
"n  c #D3C83A",
"m  c #E8CC3F",
"M  c #A2B043",
"N  c #AAB547",
"B  c #BFBE43",
"V  c #BCA178",
"C  c #D5B86C",
"Z  c #BEC568",
"A  c #C8C044",
"S  c #C8C247",
"D  c #CFC74B",
"F  c #D8CA40",
"G  c #E8CC47",
"H  c #E4C74F",
"J  c #E4CE49",
"K  c #E9CC4E",
"L  c #E4C45D",
"P  c #E1D45D",
"I  c #E3C461",
"U  c #E4C96F",
"Y  c #E3D263",
"T  c #00009F",
"R  c #0000B1",
"E  c #0000B3",
"W  c #0000B7",
"Q  c #0000B9",
"!  c #0000BB",
"~  c #0000BD",
"^  c #0000BF",
"/  c #786FBA",
"(  c #0000C3",
")  c #0000C7",
"_  c #0303CD",
"`  c #3B3BD7",
"'  c #4542D3",
"]  c #4644D5",
"[  c #4747D7",
"{  c #4B4BD7",
"}  c #4747D9",
"|  c #4242DC",
" . c #4241DE",
".. c #4646DD",
"X. c #4B4BD8",
"o. c #4C4CD8",
"O. c #4F4FDA",
"+. c #494ADD",
"@. c #5151D9",
"#. c #5151DA",
"$. c #5353DB",
"%. c #5454DB",
"&. c #5252DC",
"*. c #5859DB",
"=. c #5C5CDD",
"-. c #6160DE",
";. c #6565DD",
":. c #6969DF",
">. c #6B6BDF",
",. c #4646E0",
"<. c #4949E0",
"1. c #5C5CE2",
"2. c #6A6AE0",
"3. c #6D6DE0",
"4. c #6F6FE0",
"5. c #7071E1",
"6. c #7070E2",
"7. c #7575E2",
"8. c #7474E3",
"9. c #7B7BE5",
"0. c #8E7EA6",
"q. c #907FA0",
"w. c #B79D82",
"e. c #AA9899",
"r. c #BFA888",
"t. c #A697A8",
"y. c #AEA2B5",
"u. c #C4AB81",
"i. c #C7B292",
"p. c #8787E7",
"a. c #8C8CE7",
"s. c #8F8FE8",
"d. c #9E9EEA",
"f. c #A1A1EA",
"g. c #A1A1EB",
"h. c #A3A3EB",
"j. c #A9A9ED",
"k. c #B5B5F0",
"l. c #D2D2F5",
"z. c #E3E3F8",
"x. c #F7F7FB",
"c. c #F7F7FC",
"v. c #F7F7FD",
"b. c #FAFAFD",
/* pixels */
"_ p.^ 9._ ^ ^ ^ W W E E Q T r b ",
"g.v.a.b.j.8.5.>.:.;.-.1.t.U Y e ",
"( d.l.8.=.%.@.O.{ | ' V m A h   ",
") s.z.5.:.@.X.}  .q.L J c , f   ",
"` v.*.x.g.o...] w.G B 4 , - a   ",
"( k.$.g.&...0.I F M 4 , * & i   ",
"^ 4.O.+./ u.K S s 4 < = % # y   ",
"Q :.<.e.C n N 9 4 , = % # + q   ",
"^ y.r.H D z 9 4 ; * $ + + o 9   ",
"X i.P Z l k h g d p u y t 6 5   ",
"v x w .                         "
};
