/* XPM */
static char *so[] = {
/* columns rows colors chars-per-pixel */
"16 11 156 2",
"   c #0027DD",
".  c #0029DD",
"X  c #002DDD",
"o  c #002DDF",
"O  c #002FDF",
"+  c #0031DF",
"@  c #0035DD",
"#  c #0033E1",
"$  c #0035E3",
"%  c #0039E3",
"&  c #003BE5",
"*  c #003DE5",
"=  c #003FE7",
"-  c #0041E7",
";  c #0045E7",
":  c #0047E9",
">  c #004BE9",
",  c #004DEB",
"<  c #0051ED",
"1  c #0057ED",
"2  c #005DEF",
"3  c #0061EF",
"4  c #0063F1",
"5  c #0067F3",
"6  c #006DF5",
"7  c #006FF7",
"8  c #0071F7",
"9  c #0075F5",
"0  c #0075F9",
"q  c #0077F9",
"w  c #0079FB",
"e  c #007BFB",
"r  c #007DFD",
"t  c #037FFD",
"y  c #0581FD",
"u  c #0783FD",
"i  c #0B83FD",
"p  c #0D87FD",
"a  c #0F87FD",
"s  c #0F85FF",
"d  c #1187FF",
"f  c #1389FF",
"g  c #2191FF",
"h  c #3895F1",
"j  c #3C97F1",
"k  c #3D97F2",
"l  c #4099F2",
"z  c #4199F2",
"x  c #419AF2",
"c  c #459CF3",
"v  c #469CF3",
"b  c #459CF4",
"n  c #469DF4",
"m  c #469DF5",
"M  c #4A9FF4",
"N  c #4B9FF4",
"B  c #49A0F5",
"V  c #4DA1F5",
"C  c #4FA2F5",
"Z  c #4EA2F6",
"A  c #53A2F2",
"S  c #55A4F2",
"D  c #56A4F2",
"F  c #50A2F5",
"G  c #51A4F6",
"H  c #54A5F6",
"J  c #55A6F6",
"K  c #54A6F7",
"L  c #57A7F6",
"P  c #58A5F3",
"I  c #59A6F3",
"U  c #5BA8F3",
"Y  c #59A8F7",
"T  c #59A9F7",
"R  c #5CA8F4",
"E  c #5FA9F4",
"W  c #55A7F9",
"Q  c #5BA9F8",
"!  c #5BAAF8",
"~  c #5DABF9",
"^  c #5EABF8",
"/  c #5FADFA",
"(  c #60AAF5",
")  c #62ACF5",
"_  c #64ADF5",
"`  c #65AEF6",
"'  c #68AFF6",
"]  c #60ACF9",
"[  c #63AEF9",
"{  c #64AFFA",
"}  c #65AFFA",
"|  c #69B0F7",
" . c #6CB2F7",
".. c #6DB2F7",
"X. c #67B1FA",
"o. c #63B0FC",
"O. c #69B1FA",
"+. c #69B2FB",
"@. c #6BB3FB",
"#. c #6DB3FB",
"$. c #6DB4FB",
"%. c #6DB5FB",
"&. c #6CB4FC",
"*. c #70B4F7",
"=. c #7AB8F6",
"-. c #71B4F8",
";. c #75B7F8",
":. c #75B7F9",
">. c #70B6FC",
",. c #71B7FC",
"<. c #70B6FD",
"1. c #71B7FD",
"2. c #72B7FC",
"3. c #73B7FD",
"4. c #76B9FD",
"5. c #76BAFD",
"6. c #79B9F9",
"7. c #7CBBFA",
"8. c #7DBCFA",
"9. c #79BCFE",
"0. c #7ABCFE",
"q. c #7CBDFE",
"w. c #7CBEFE",
"e. c #7FBFFE",
"r. c #81BBF7",
"t. c #80BEFB",
"y. c #8CC0F6",
"u. c #84C0FC",
"i. c #86C2FC",
"p. c #88C3FC",
"a. c #8AC3FD",
"s. c #8BC4FD",
"d. c #8DC5FE",
"f. c #8EC6FE",
"g. c #8FC7FE",
"h. c #9BC9F5",
"j. c #98C8F7",
"k. c #90C4F9",
"l. c #91C8FE",
"z. c #94C8FE",
"x. c #94C9FE",
"c. c #95CAFF",
"v. c #A6D1FC",
"b. c #AED3F8",
"n. c #ADD3FA",
"m. c #AED4FB",
"M. c #BEDAF7",
"N. c #B2D5F8",
"B. c #B8DAFB",
"V. c #C1DDFA",
"C. c #D7E9FA",
"Z. c #D8E9F9",
"A. c #E1ECF7",
"S. c #E2EDF8",
"D. c #F0F3F8",
"F. c #F1F5F9",
/* pixels */
"g f f f a i y r e 0 8 6 5 4 2 3 ",
"s c.c.c.l.f.f.a.a.t.t.7.6.:.*., ",
"f c.e.q.q.5.>.>.O.o.} ) T J  .> ",
"d l.q.q.5.3.o.m.m.W T T J F ' ; ",
"s g.q.5.$.v.B.C.Z.N.j.G C M _ = ",
"u f.5.,.&.#.V.F.D.M.J C M v ) & ",
"y s.,.$.O./ k.S.S.y.b M c z R $ ",
"e p.$.O.o.^ b.r.=.h.b c z k I O ",
"0 u.O.} ^ R J C B b v z j h S X ",
"8 t.7.6.:.,. .| _ ) ( I I S A   ",
"9 5 4 2 1 < > : - = % $ O O   @ "
};
