/* XPM */
static char *sv[] = {
/* columns rows colors chars-per-pixel */
"16 11 142 2",
"   c #8DAD5F",
".  c #91AF64",
"X  c #E9D679",
"o  c #00009F",
"O  c #0000A1",
"+  c #0000A3",
"@  c #0000A5",
"#  c #0000A9",
"$  c #0000AB",
"%  c #0000AD",
"&  c #0000B1",
"*  c #0000B3",
"=  c #0000B5",
"-  c #0000B9",
";  c #0000BB",
":  c #0000BF",
">  c #0000C1",
",  c #0000C5",
"<  c #0003C5",
"1  c #0000C7",
"2  c #0005C9",
"3  c #0007CB",
"4  c #000BCB",
"5  c #0011CF",
"6  c #0017D1",
"7  c #001DD1",
"8  c #0021D3",
"9  c #0027D5",
"0  c #0029D7",
"q  c #002FD7",
"w  c #294ED1",
"e  c #2D51D2",
"r  c #3154D4",
"t  c #3658D5",
"y  c #3B5CD6",
"u  c #4967D7",
"i  c #4061D9",
"p  c #4566DB",
"a  c #4767DB",
"s  c #4968D8",
"d  c #4C6AD8",
"f  c #4E6CD9",
"g  c #4869DC",
"h  c #4C6CDD",
"j  c #4E6DDD",
"k  c #526FDA",
"l  c #5572DB",
"z  c #5170DF",
"x  c #5371DF",
"c  c #5875DC",
"v  c #5C79DD",
"b  c #607CDF",
"n  c #5674E0",
"m  c #5875E0",
"M  c #5B78E1",
"N  c #5C79E2",
"B  c #5F7CE3",
"V  c #607CE0",
"C  c #657FE1",
"Z  c #6480E4",
"A  c #6783E5",
"S  c #6882E2",
"D  c #6983E2",
"F  c #6C85E3",
"G  c #6D86E3",
"H  c #6B86E6",
"J  c #6F89E7",
"K  c #7089E4",
"L  c #708AE5",
"P  c #748DE6",
"I  c #758EE6",
"U  c #728CE8",
"Y  c #748EE9",
"T  c #7890E7",
"R  c #7990E8",
"E  c #7A91E8",
"W  c #7C94E8",
"Q  c #7F97E8",
"!  c #B7CB9E",
"~  c #BACDA1",
"^  c #DED480",
"/  c #8799D3",
"(  c #93A1DB",
")  c #8299EA",
"_  c #859BEB",
"`  c #899EEB",
"'  c #8BA0ED",
"]  c #8CA2ED",
"[  c #8DA2ED",
"{  c #8FA4ED",
"}  c #BBC7F1",
"|  c #BFCBF5",
" . c #C4CDEA",
".. c #C6CEEB",
"X. c #C1CBEC",
"o. c #C8D0ED",
"O. c #C9D2EE",
"+. c #CAD2EF",
"@. c #CBD4EF",
"#. c #CBD5EF",
"$. c #CCD4ED",
"%. c #CDD7EF",
"&. c #C8D2F2",
"*. c #CCD4F0",
"=. c #CED5F2",
"-. c #D0D7F3",
";. c #D1D8F1",
":. c #D1D8F2",
">. c #D3DAF3",
",. c #D2D9F4",
"<. c #D3DAF4",
"1. c #D4DCF4",
"2. c #D5DCF4",
"3. c #D6DDF5",
"4. c #D6DEF6",
"5. c #D8DFF6",
"6. c #D8DFF7",
"7. c #DAE0F8",
"8. c #DBE1F9",
"9. c #DCE2F9",
"0. c gray89",
"q. c gray90",
"w. c #E7E7E7",
"e. c #E0E5F8",
"r. c #E2E8FB",
"t. c gray95",
"y. c #F3F3F3",
"u. c #F4F4F4",
"i. c #F4F5F5",
"p. c gray96",
"a. c #F6F6F5",
"s. c #F6F6F6",
"d. c gray97",
"f. c #F8F8F8",
"g. c #F9F9F8",
"h. c gray98",
"j. c #FBFBFB",
"k. c #FBFCFB",
"l. c gray99",
"z. c #FDFCFD",
"x. c #FDFDFD",
"c. c #FEFEFE",
/* pixels */
"q 0 0 0 9 8 7 6 5 4 2 1 1 : : - ",
"0 { { [ ' ` _ ) Q W T I J F S - ",
"9 [ Y U J H A Z B M n x h a V * ",
"| r.9.8.7.7.3.2.>.,.=.=.O.O.>.( ",
"x.x.x.x.x.x.l.X X g.s.s.s.u.s.w.",
"x.x.x.x.j.j.&..   X.s.u.s.t.t.q.",
"x.x.x.k.j.j.f.! ~ i.a.a.u.t.s.0.",
"} e.6.3.3.>.-.%.O.&.O.o. . .O./ ",
"2 E N m x j h a i y t r e w u O ",
"2 E I L F F V v v c l k f d d o ",
"< 1 > > - - = * % $ $ @ O O o o "
};
