/* XPM */
static char *sy[] = {
/* columns rows colors chars-per-pixel */
"16 11 107 2",
"   c black",
".  c #0B0B0B",
"X  c #0F0F0E",
"o  c #131313",
"O  c #181919",
"+  c #1E1E1E",
"@  c #232323",
"#  c gray16",
"$  c #2C2C2C",
"%  c gray18",
"&  c #2F2F2F",
"*  c #323232",
"=  c #343434",
"-  c #353535",
";  c #393939",
":  c #3A3A3A",
">  c gray24",
",  c #3F3F3F",
"<  c gray26",
"1  c #444444",
"2  c #464646",
"3  c #4B4B4B",
"4  c #505050",
"5  c #545455",
"6  c #585858",
"7  c #5D5D5D",
"8  c #616162",
"9  c gray40",
"0  c #E90000",
"q  c #EB0000",
"w  c #ED0000",
"e  c #EF0000",
"r  c #F10000",
"t  c #F30000",
"y  c #F50000",
"u  c #F70000",
"i  c #F90000",
"p  c #FB0000",
"a  c #FD0000",
"s  c red",
"d  c #F62C2C",
"f  c #F73131",
"g  c #F83737",
"h  c #F93C3D",
"j  c #FA4242",
"k  c #FB4747",
"l  c #F74949",
"z  c #F74E4E",
"x  c #FC4C4C",
"c  c #F85353",
"v  c #FD5151",
"b  c #F95757",
"n  c #FD5454",
"m  c #FE5959",
"M  c #FA5C5C",
"N  c #FE5C5C",
"B  c #FE5F5F",
"V  c #FB6060",
"C  c #FC6565",
"Z  c #FC6969",
"A  c #FD6D6D",
"S  c #FD7071",
"D  c #FE7474",
"F  c #FE7777",
"G  c #FE7979",
"H  c #FF7B7A",
"J  c #FF7B7B",
"K  c #52B554",
"L  c #66BF67",
"P  c #80C882",
"I  c #85CA86",
"U  c #95D396",
"Y  c #97D39A",
"T  c #9DD49F",
"R  c #9DD69F",
"E  c #A3DAA5",
"W  c #A7DBA9",
"Q  c gray81",
"!  c gray82",
"~  c #D5D5D5",
"^  c #D7D7D7",
"/  c gray93",
"(  c #EDEFEF",
")  c #EFEFEF",
"_  c #E1F0E1",
"`  c #E9F3EB",
"'  c #F1F1F1",
"]  c gray95",
"[  c #F3F3F3",
"{  c #F4F4F4",
"}  c #F4F5F5",
"|  c gray96",
" . c #F6F6F6",
".. c gray97",
"X. c #F1F9F0",
"o. c #F3F8F6",
"O. c #F3FBF7",
"+. c #F5FBF5",
"@. c #F4FBF6",
"#. c #F8F8F8",
"$. c #F9F9F9",
"%. c gray98",
"&. c #FBFBFB",
"*. c #FBFCFB",
"=. c gray99",
"-. c #FDFDFD",
";. c #FEFEFE",
/* pixels */
"s s s s s p s p p p y y t t w w ",
"s J J J F D S A Z C V M b c z q ",
"s J B N N n x x k j h g f d l q ",
"' -.-.-.-.-.-.&.&.#.......} ..^ ",
"' -.-.-.+.W @.&.#.} Y ` } ' ..^ ",
"' -.-.=.E L R &.+.T K P ' } } ! ",
"( -.=.&.+.U ` #.#...I _ ..' ' ! ",
"( =.&.&.&.&.&.....| ..' ' ' } Q ",
"  9 2 < ; - & # @ + O o X . &   ",
"  8 7 6 5 3 3 2 < > ; - * & $   ",
"                                "
};
