/* XPM */
static char *td[] = {
/* columns rows colors chars-per-pixel */
"16 11 162 2",
"   c #BF0000",
".  c #C10000",
"X  c #C30000",
"o  c #C50000",
"O  c #C90000",
"+  c #CB0000",
"@  c #CD0000",
"#  c #CF0000",
"$  c #D30000",
"%  c #D70000",
"&  c #D90000",
"*  c #DB0000",
"=  c #DF0000",
"-  c #E12525",
";  c #E22828",
":  c #E22A2A",
">  c #E32A2C",
",  c #E32C2D",
"<  c #E42E2E",
"1  c #E42E31",
"2  c #E43132",
"3  c #E43233",
"4  c #E63436",
"5  c #E63737",
"6  c #E63838",
"7  c #E7393C",
"8  c #E73C3D",
"9  c #E73E3D",
"0  c #E93E41",
"q  c #E44242",
"w  c #E54545",
"e  c #E94142",
"r  c #E94242",
"t  c #EA4547",
"y  c #E64748",
"u  c #EA4748",
"i  c #E64848",
"p  c #E7484B",
"a  c #EB4A4C",
"s  c #E84C4C",
"d  c #E85050",
"f  c #E95454",
"g  c #EB5958",
"h  c #EB5D5D",
"j  c #ED6161",
"k  c #ED6565",
"l  c #EE696A",
"z  c #F06C6E",
"x  c #CD9700",
"c  c #C1AB00",
"v  c #D1B700",
"b  c #D5B500",
"n  c #D7B900",
"m  c #DBBD00",
"M  c #E7BB00",
"N  c #EDD301",
"B  c #EBD500",
"V  c #EDD507",
"C  c #F1D90B",
"Z  c #DBC921",
"A  c #E9CD50",
"S  c #EAD054",
"D  c #EBDE57",
"F  c #ECD159",
"G  c #EDD35E",
"H  c #ECDD5A",
"J  c #EEDF5F",
"K  c #ECE05B",
"L  c #EED563",
"P  c #EFD767",
"I  c #ECD368",
"U  c #F1D96C",
"Y  c #E3D870",
"T  c #E5DA74",
"R  c #E6DC79",
"E  c #E7DD7D",
"W  c #EEE260",
"Q  c #EFE163",
"!  c #EFE164",
"~  c #EFE365",
"^  c #EDE26E",
"/  c #F0E261",
"(  c #F1E466",
")  c #F0E268",
"_  c #F0E569",
"`  c #F2E56B",
"'  c #F1E46D",
"]  c #F1E46E",
"[  c #F1E66F",
"{  c #F3E76F",
"}  c #EEE270",
"|  c #EEE275",
" . c #F2E571",
".. c #F2E572",
"X. c #F3E775",
"o. c #F1E577",
"O. c #F4E777",
"+. c #F2E873",
"@. c #F4E874",
"#. c #F5EA78",
"$. c #F5E87A",
"%. c #F6EA7C",
"&. c #000093",
"*. c #000095",
"=. c #000399",
"-. c #000FA1",
";. c #0019A3",
":. c #001BA5",
">. c #0021A9",
",. c #0029AD",
"<. c #002DAF",
"1. c #002DB7",
"2. c #0031B1",
"3. c #0133B3",
"4. c #0335B3",
"5. c #0537B3",
"6. c #0335B5",
"7. c #1543B9",
"8. c #5173CB",
"9. c #5777CD",
"0. c #5B7ACB",
"q. c #5B7BCF",
"w. c #607ECD",
"e. c #607FCD",
"r. c #617FD2",
"t. c #6583CE",
"y. c #6482CF",
"u. c #6584D4",
"i. c #6986D1",
"p. c #6A87D0",
"a. c #6985D2",
"s. c #6987D5",
"d. c #6D8AD3",
"f. c #6E8AD2",
"g. c #6E8AD6",
"h. c #708CD2",
"j. c #718ED3",
"k. c #708DD4",
"l. c #748FD5",
"z. c #7590D3",
"x. c #7590D5",
"c. c #7A93D4",
"v. c #7893D6",
"b. c #7D96D6",
"n. c #E6DD83",
"m. c #E9DF81",
"M. c #E9E185",
"N. c #EBE288",
"B. c #F4E188",
"V. c #F6ED8E",
"C. c #F7EC8F",
"Z. c #EFE89E",
"A. c #F7ED93",
"S. c #F8EE94",
"D. c #819AD8",
"F. c #859DD8",
"G. c #879EDA",
"H. c #889FDE",
"J. c #8AA2DC",
"K. c #8DA4DD",
"L. c #8EA4DD",
"P. c #8FA5DD",
/* pixels */
"7.5.5.6.1.Z C V N B M = * * * % ",
"3.P.P.P.J.Z.S.S.A.C.B.z l k j $ ",
"5.P.x.x.g.M.%.$.X. .U a u r h @ ",
"4.P.x.k.s.M.$.X. .[ P u r 9 g @ ",
"3.J.z.p.u.M.@. . .~ L 0 8 5 f + ",
"<.G.f.p.u.E  .] ~ ~ G 7 5 3 d + ",
",.G.p.t.q.R ~ ~ U K F 5 2 < s X ",
":.D.t.q.9.T _ Q Q K A 1 < > i X ",
":.b.y.0.8.T K L K D A , > - w X ",
"=.c.z.f.i.M.#.| ^ ^ I i w w q   ",
":.=.*.&.&.c m n b v x o X X     "
};
