/* XPM */
static char *tv[] = {
/* columns rows colors chars-per-pixel */
"16 11 139 2",
"   c black",
".  c #010000",
"X  c #050000",
"o  c #1B0000",
"O  c #210000",
"+  c #270000",
"@  c #290000",
"#  c #2F0000",
"$  c #350000",
"%  c #3B0000",
"&  c #410000",
"*  c #470000",
"=  c #4B0000",
"-  c #510000",
";  c #570000",
":  c #590000",
">  c #5D0000",
",  c #5F0000",
"<  c #630000",
"1  c #670000",
"2  c #690000",
"3  c #000D7B",
"4  c #00137F",
"5  c #912100",
"6  c #A35D00",
"7  c #934631",
"8  c #944A34",
"9  c #964C37",
"0  c #C16300",
"q  c #9F5A46",
"w  c #A25E4B",
"e  c #A56250",
"r  c #A86654",
"t  c #A96A58",
"y  c #AA6A59",
"u  c #AD6F5D",
"i  c #AF7362",
"p  c #B17665",
"a  c #B27766",
"s  c #B37A6A",
"d  c #B67E6D",
"f  c #C38E38",
"g  c #DDB23B",
"h  c #E4C71F",
"j  c #DEC72C",
"k  c #E7CA2A",
"l  c #E8CD30",
"z  c #BD8440",
"x  c #BE8E57",
"c  c #B98070",
"v  c #BA8475",
"b  c #BC8677",
"n  c #BE897A",
"m  c #BE8B7D",
"M  c #A7B968",
"N  c #C08D7F",
"B  c #D3AF65",
"V  c #FEE058",
"C  c #E4CD65",
"Z  c #FEE676",
"A  c #FCE67C",
"S  c #001781",
"D  c #001D87",
"F  c #00238B",
"G  c #6DA281",
"H  c #78A98B",
"J  c #288DC2",
"K  c #2C90C5",
"L  c #2D90C5",
"P  c #3193C7",
"I  c #3294C7",
"U  c #3696C9",
"Y  c #3796C9",
"T  c #3897C9",
"R  c #3B9ACB",
"E  c #3C9ACB",
"W  c #3D9ACB",
"Q  c #439BC8",
"!  c #469ECA",
"~  c #409CCC",
"^  c #409DCC",
"/  c #419DCD",
"(  c #429DCD",
")  c #439DCD",
"_  c #459FCE",
"`  c #46A0CD",
"'  c #47A0CE",
"]  c #46A0CF",
"[  c #48A0CF",
"{  c #4BA3CF",
"}  c #4CA3CF",
"|  c #4CA4CF",
" . c #4DA4CF",
".. c #50A3CE",
"X. c #4AA2D0",
"o. c #4DA3D1",
"O. c #50A5D1",
"+. c #51A6D1",
"@. c #53A7D1",
"#. c #52A6D3",
"$. c #55A9D3",
"%. c #56A9D4",
"&. c #5AABD5",
"*. c #5BACD4",
"=. c #5FAED7",
"-. c #5DB1DB",
";. c #63B0D9",
":. c #71BDE2",
">. c #88B398",
",. c #8FB79E",
"<. c #A1C3A2",
"1. c #B3CEB3",
"2. c #FDE785",
"3. c #FDEB94",
"4. c #E7E6B7",
"5. c #FBF1BC",
"6. c #DFDFDF",
"7. c #FCF3C8",
"8. c #C4E0EE",
"9. c #CDE4F0",
"0. c #E9E9E9",
"q. c #E4F0F5",
"w. c #E9F5F9",
"e. c #F1F1F1",
"r. c gray95",
"t. c #F3F3F3",
"y. c #F4F4F4",
"u. c gray96",
"i. c #F6F6F6",
"p. c gray97",
"a. c #F8F8F8",
"s. c #F9F9F9",
"d. c gray98",
"f. c #FBFBFB",
"g. c gray99",
"h. c #FCFDFD",
"j. c #FDFDFD",
"k. c #FEFEFE",
"l. c gray100",
/* pixels */
"2 2 2 2 1 < , , ; - = * & % 6 # ",
"2 N N m n v v c d s p B C t x + ",
"k.k.k.k.k.k.k.g.f.f.f.a.p.p.p.0.",
"k.k.w.:.;.=.&.$.+.o._ ) E l ,.F ",
"k.Z V k.8.*.$.+.} ` ! W Y H ..D ",
"k.1.<.f.f.q. . .` ~ E T I j >.S ",
"2.3.A 5.9.$.{ ` ) R M k J J ! 4 ",
"f.7.4.-.o.X._ ~ R Y I J k G Q 3 ",
"f.f.f.f.f.p.p.p.p.t.t.t.t.t.t.6.",
"= p i u t r e w q z g f 8 8 7   ",
"* % % $ # @ O o 5 0 ; X         "
};
