/* XPM */
static char * unknown[] = {
"16 11 4 1",
" 	c None",
".	c #838383",
"+	c #000000",
"@	c #787878",
"................",
". ++++ .. ++++ .",
".+ . ++..+ . ++.",
".... ++..... ++.",
"....+++.....+++.",
"..@+++....@+++..",
"..+++.....+++...",
"..++......++....",
"................",
"..++......++....",
"..++......++...."};
