/* XPM */
static char *us[] = {
/* columns rows colors chars-per-pixel */
"16 11 135 2",
"   c #F80B0B",
".  c #F91010",
"X  c #F91616",
"o  c #FA1B1B",
"O  c #FA2020",
"+  c #FB2323",
"@  c #FB2828",
"#  c #FB2A2A",
"$  c #FB2C2C",
"%  c #FB2E2E",
"&  c #FB3131",
"*  c #FB3232",
"=  c #FC3838",
"-  c #FC3939",
";  c #FC3A3A",
":  c #FC3D3D",
">  c #9A634A",
",  c #9E634A",
"<  c #A0634A",
"1  c #A6634A",
"2  c #AB634A",
"3  c #AF634A",
"4  c #B5634A",
"5  c #BF634A",
"6  c #FC4040",
"7  c #FC4646",
"8  c #FC4747",
"9  c #FC4C4C",
"0  c #FC5050",
"q  c #FC5354",
"w  c #FC5858",
"e  c #C5634A",
"r  c #CC634A",
"t  c #D4634A",
"y  c #D5634A",
"u  c #D8634A",
"i  c #DA634A",
"p  c #DE634A",
"a  c #E0634A",
"s  c #E2634A",
"d  c #E5644A",
"f  c #E8634A",
"g  c #F4745E",
"h  c #FC6163",
"j  c #FC6868",
"k  c #FC7862",
"l  c #FB7F6B",
"z  c #FC7373",
"x  c #FD7F7F",
"c  c #FD826D",
"v  c #FC8672",
"b  c #FD8E7C",
"n  c #FDFD5B",
"m  c #002BB3",
"M  c #0049B6",
"N  c #004FB5",
"B  c #0068B9",
"V  c #0069BC",
"C  c #6363B1",
"Z  c #6363B7",
"A  c #6363B8",
"S  c #6363BE",
"D  c #6367BF",
"F  c #036FE1",
"G  c #0371E5",
"H  c #0473F1",
"J  c #0474F8",
"K  c #2F73F8",
"L  c #3070F8",
"P  c #3275F8",
"I  c #3674F9",
"U  c #3777F9",
"Y  c #3976F9",
"T  c #3A79F9",
"R  c #3D7AF9",
"E  c #3F7EFA",
"W  c #6365C2",
"Q  c #6367C4",
"!  c #407CFA",
"~  c #437EFA",
"^  c #4680FA",
"/  c #4982FA",
"(  c #919180",
")  c #ACAC9F",
"_  c #B4B4A8",
"`  c #FD9786",
"'  c #98B9FC",
"]  c #9BBBFC",
"[  c #9CBDFC",
"{  c #A1BEFC",
"}  c #A2C0FC",
"|  c #C9C9C1",
" . c #DADAD3",
".. c gainsboro",
"X. c #FECAC1",
"o. c #E2E2DD",
"O. c #E2E2DE",
"+. c #FDE1DC",
"@. c #D7FEFD",
"#. c gray89",
"$. c #E5E5E0",
"%. c gray90",
"&. c #E7E7E7",
"*. c gray91",
"=. c #E9E9E9",
"-. c #EAEAEA",
";. c gray92",
":. c #EDEDEA",
">. c #ECECEC",
",. c #EEEEEE",
"<. c #EFEFEF",
"1. c #F1F1EF",
"2. c #E5E5FC",
"3. c #ECFEFE",
"4. c gray94",
"5. c #F1F1F1",
"6. c #F2F2F0",
"7. c #F3F3F1",
"8. c gray95",
"9. c #F3F3F3",
"0. c #F4F4F2",
"q. c #F5F5F3",
"w. c #F4F4F4",
"e. c gray96",
"r. c #F6F6F4",
"t. c #F6F6F6",
"y. c #F7F7F6",
"u. c #F8F8F6",
"i. c #F8F8F7",
"p. c #F9F9F8",
"a. c #F9F9F9",
"s. c #FAFAF9",
"d. c #FBFBFB",
"f. c #FBFFFA",
"g. c #FEFEFD",
/* pixels */
"Q Q Q Q W S A A C c k f s a p i ",
"Q g.} f.{ a.[ a.' a.a.i.t.t.t.) ",
"Q } / ^ ~ R T U P z h q 8 : ` y ",
"D { a.E t.T <.K J 9.<.,.:.n 0.| ",
"W { ! R T I K H V 9 7 = * $ b e ",
"A a.R 4.I ;.F #.N ,.;.;.;.&.@._ ",
"A [ Y P L F B M m ; * $ + o v 3 ",
"O.d.t.t.9.9.,.,.>.;.&.&.%...+.( ",
"c X.x j w 9 6 = % $ + X     c , ",
" .i.3.i.t.t.0.0.1.1.1.:.2.$.O.g ",
"d a s p u p u y r 5 4 2 1 , > > "
};
