/* XPM */
static char *va[] = {
/* columns rows colors chars-per-pixel */
"16 11 143 2",
"   c #BBB732",
".  c #CDA700",
"X  c #CFA700",
"o  c #D1AB00",
"O  c #D5AF00",
"+  c #D7B300",
"@  c #D9B700",
"#  c #DBB700",
"$  c #DDBF00",
"%  c #DFBF00",
"&  c #E3C300",
"*  c #E5C500",
"=  c #E7C700",
"-  c #E5C901",
";  c #E7C900",
":  c #E9C900",
">  c #E9CB01",
",  c #E9CD03",
"<  c #EBCD03",
"1  c #EBCD05",
"2  c #EBCD07",
"3  c #EBCF15",
"4  c #A9886E",
"5  c #A8AC6E",
"6  c #BEA361",
"7  c #CCBC5F",
"8  c #C9BF7D",
"9  c #F4DF4E",
"0  c #F5E153",
"q  c #F3E057",
"w  c #F5E156",
"e  c #F6E258",
"r  c #F6E35B",
"t  c #F4E25C",
"y  c #F7E45E",
"u  c #F7E45F",
"i  c #DDD063",
"p  c #C4C27C",
"a  c #F5E361",
"s  c #F7E460",
"d  c #F5E266",
"f  c #F6E565",
"g  c #F8E562",
"h  c #F8E564",
"j  c #F8E664",
"k  c #F8E665",
"l  c #F9E767",
"z  c #F7E66A",
"x  c #F4E36E",
"c  c #F6E56D",
"v  c #F9E668",
"b  c #F9E769",
"n  c #F9E76A",
"m  c #FAE86B",
"M  c #FAE86D",
"N  c #F8E86F",
"B  c #FAE86E",
"V  c #FAE96E",
"C  c #F7E671",
"Z  c #F7E775",
"A  c #FAE971",
"S  c #FBE971",
"D  c #F9E973",
"F  c #FBEA75",
"G  c #F8E879",
"H  c #FCEB78",
"J  c #FCEC7B",
"K  c #F9E97C",
"L  c #BDBC81",
"P  c #BBB6AF",
"I  c #E0B19D",
"U  c #D9A4B6",
"Y  c #DFADB9",
"T  c #E0A7A6",
"R  c #FAEA80",
"E  c #FBEC84",
"W  c #FBED87",
"Q  c #FCED87",
"!  c #FCED8A",
"~  c #FCED8B",
"^  c #FBED8D",
"/  c #FCEE8E",
"(  c #FCEF8F",
")  c #FCF092",
"_  c #ECE7A9",
"`  c #EAE6AE",
"'  c gray81",
"]  c #CDD0CC",
"[  c #D9D7C3",
"{  c gray82",
"}  c #D3D3D1",
"|  c LightGray",
" . c #D5D5D5",
".. c #D7D7D7",
"X. c gray86",
"o. c #DDDDDD",
"O. c #DFDFDF",
"+. c #E5E2C3",
"@. c #E5E3CC",
"#. c #EFEDDF",
"$. c #F3F0DD",
"%. c #DBDCEA",
"&. c #E1E3E3",
"*. c gray90",
"=. c #E7E7E7",
"-. c #EAE1E1",
";. c #EBE3E2",
":. c #E9E9E9",
">. c #EAEBEA",
",. c gray92",
"<. c gray93",
"1. c #EFEDED",
"2. c #EFEFEF",
"3. c #F1EFE1",
"4. c #F1F1E2",
"5. c #F0F0EB",
"6. c #F5F3E9",
"7. c #F6F4EB",
"8. c #F5F5EF",
"9. c #F6F5EF",
"0. c #F8F6ED",
"q. c #F1F1F1",
"w. c gray95",
"e. c #F2F2F3",
"r. c #F3F3F3",
"t. c #F1F1F6",
"y. c #F4F4F4",
"u. c #F4F5F4",
"i. c gray96",
"p. c #F7F7F4",
"a. c #F7F7F5",
"s. c #F6F6F6",
"d. c gray97",
"f. c #FBF9F0",
"g. c #FAFAF2",
"h. c #F8F8F6",
"j. c #F9F9F6",
"k. c #FCFCF4",
"l. c #F8F8F8",
"z. c #F9F9F9",
"x. c gray98",
"c. c #FBFBFB",
"v. c gray99",
/* pixels */
"3 < 2 2 < > = - #.2.2.,.,.=.=.&.",
"2 ) ) ( ( ! Q ^ k.v.x.x.d.d.d.O.",
"2 ) J H F S m D f.x.x.d.i.d.d.o.",
"2 ( H F S N k N f.t.@.p 5 +.$.X.",
"> ( F S M n s z h.%.5 8 i   ` ..",
"> ! S M n k y d 0.d.8.6 4 q.i. .",
"= W M n k s r a d._ i I U P ' { ",
"= E f k s r 0 r 9.3.3.Y T 1.,.| ",
"& E s u r q 9 q 6.i.r.-.-.2.r.' ",
"$ K K Z C c d x 6.d.d.r.r.r.r.' ",
"$ @ @ + O o X X [ .. .{ ' ' ' ' "
};
