/* XPM */
static char *vg[] = {
/* columns rows colors chars-per-pixel */
"16 11 164 2",
"   c #00001D",
".  c #00001F",
"X  c #000021",
"o  c #000023",
"O  c #000025",
"+  c #000027",
"@  c #00002B",
"#  c #00002F",
"$  c #000031",
"%  c #000035",
"&  c #000037",
"*  c #00003B",
"=  c #000041",
"-  c #000045",
";  c #000047",
":  c #00004B",
">  c #00004D",
",  c #000051",
"<  c #000053",
"1  c #000057",
"2  c #000059",
"3  c #00005D",
"4  c #000063",
"5  c #000065",
"6  c #000069",
"7  c #00006D",
"8  c #00006F",
"9  c #000073",
"0  c #000077",
"q  c #73094B",
"w  c #7D1751",
"e  c #5D0F61",
"r  c #5B1F75",
"t  c #477941",
"y  c #487A47",
"u  c #4F7F4B",
"i  c #CD1517",
"p  c #831145",
"a  c #AD5777",
"s  c #BF677D",
"d  c #D56A71",
"f  c #DF7578",
"g  c #DE7B7D",
"h  c #E26867",
"j  c #E57371",
"k  c #E87B76",
"l  c #5C9149",
"z  c #538150",
"x  c #548253",
"c  c #548455",
"v  c #5C895A",
"b  c #568365",
"n  c #558568",
"m  c #618C61",
"M  c #7EA66F",
"N  c #819E4F",
"B  c #819D50",
"V  c #ABAB58",
"C  c #ADAD5C",
"Z  c #9C9666",
"A  c #A29D6F",
"S  c #C6BF5D",
"D  c #EA837E",
"F  c #C8C267",
"G  c #00008F",
"H  c #1D0789",
"J  c #00009D",
"K  c #1E1E9E",
"L  c #2323A0",
"P  c #2424A3",
"I  c #2929A2",
"U  c #2A2AA3",
"Y  c #2C2CA0",
"T  c #2F2FA3",
"R  c #2A2AA7",
"E  c #2D2DA4",
"W  c #2F2FA4",
"Q  c #2E2EA6",
"!  c #2F2FA6",
"~  c #2F2FA7",
"^  c #3135A5",
"/  c #3534A7",
"(  c #3B37A3",
")  c #3030AB",
"_  c #3232AA",
"`  c #3535A8",
"'  c #3434A9",
"]  c #3535A9",
"[  c #3636AB",
"{  c #3636AE",
"}  c #373AA8",
"|  c #3939A9",
" . c #3B3BAA",
".. c #3A3AAB",
"X. c #3D3DAA",
"o. c #3B3BAE",
"O. c #3D3EAC",
"+. c #3F3FAD",
"@. c #3F3FAF",
"#. c #3C3CB0",
"$. c #403FAE",
"%. c #4242AD",
"&. c #4040AE",
"*. c #4646AE",
"=. c #4843AC",
"-. c #5249AC",
";. c #4242B1",
":. c #4444B0",
">. c #4545B0",
",. c #4545B3",
"<. c #4646B3",
"1. c #4949B0",
"2. c #4B4BB1",
"3. c #4949B3",
"4. c #4E4EB3",
"5. c #494AB5",
"6. c #4F4FB5",
"7. c #5050B3",
"8. c #5353B5",
"9. c #5454B6",
"0. c #5353BE",
"q. c #5857B9",
"w. c #5858B8",
"e. c #5C5CBA",
"r. c #5D5DBA",
"t. c #6155AF",
"y. c #775DA7",
"u. c #7E5FA5",
"i. c #6160BC",
"p. c #6161BD",
"a. c #6263BD",
"s. c #6565BE",
"d. c #6666BF",
"f. c #6A6AC1",
"g. c #6A6BC1",
"h. c #6F6FC4",
"j. c #805C9F",
"k. c #A76D95",
"l. c #BB7C99",
"z. c #9172A9",
"x. c #9373A9",
"c. c #8A7ABD",
"v. c #D17E8B",
"b. c #C37E95",
"n. c #9FBE9E",
"m. c #9783BD",
"M. c #E08184",
"N. c #E59194",
"B. c #EFA09C",
"V. c #EEA29E",
"C. c #D79AA9",
"Z. c #D6A7B7",
"A. c #D4AAB7",
"S. c #DFAFBB",
"D. c #ACC29C",
"F. c #A7C3A2",
"G. c #ABC3A3",
"H. c #9598D4",
"J. c #939BDA",
"K. c #D4B3C5",
"L. c #DDB6C3",
"P. c #DDCEDF",
"I. c #E2C0CB",
"U. c #E1C8D4",
/* pixels */
"s y.J q p G e a 0 7 7 4 2 2 < > ",
"H L.P.Z.C.K.U.J.d.s.a.r.q.8.4.; ",
"i N.D j h k j d -.>.O.} ^ ~ 3.* ",
"w S.B.g M.V.v.k.=.#.m n b x >.* ",
"t.I.m.l.b.J.A.z.O.{ v M D.u O.& ",
"r c.0.u.j.>.a.z.( ) c n.G.y ..# ",
"0 h.6.5.<.&...] ~ R z l F.t { @ ",
"9 f.3.>.$...] ~ U P F N B S / O ",
"8 f.>.O.../ ~ U L K A C V Z T . ",
"7 a.r.q.9.7.2.*.&.O...] ) ^ Y . ",
"4 2 1 > : ; = * & $ @ O X .   . "
};
