/* XPM */
static char *wf[] = {
/* columns rows colors chars-per-pixel */
"16 11 137 2",
"   c #670000",
".  c #6D0000",
"X  c #6F0000",
"o  c #730000",
"O  c #750000",
"+  c #770000",
"@  c #7B0000",
"#  c #7F0000",
"$  c #810000",
"%  c #850000",
"&  c #890000",
"*  c #8D0000",
"=  c #8F0000",
"-  c #930000",
";  c #950000",
":  c #970000",
">  c #9B0000",
",  c #9F0000",
"<  c #A10000",
"1  c #A30000",
"2  c #A50000",
"3  c #A70000",
"4  c #AB0000",
"5  c #AD0000",
"6  c #AF0000",
"7  c #B70B0B",
"8  c #B70F0E",
"9  c #B81313",
"0  c #BA1919",
"q  c #BE1E1E",
"w  c #BD2525",
"e  c #C02323",
"r  c #C22727",
"t  c #C32929",
"y  c #C32A2A",
"u  c #C02C2C",
"i  c #C12F2F",
"p  c #C22E2E",
"a  c #C32F2F",
"s  c #C42C2C",
"d  c #C52E2E",
"f  c #C52F2F",
"g  c #C23232",
"h  c #C33232",
"j  c #C53131",
"k  c #C33535",
"l  c #C33636",
"z  c #C73434",
"x  c #C73535",
"c  c #C53636",
"v  c #C53737",
"b  c #C33B3B",
"n  c #C53939",
"m  c #C73A3A",
"M  c #C73B3B",
"N  c #C73D3C",
"B  c #C73D3D",
"V  c #C73F3F",
"C  c #C93A3A",
"Z  c #C93B3A",
"A  c #C93B3B",
"S  c #C83B3C",
"D  c #C93C3D",
"F  c #CB3F3F",
"G  c #CB4040",
"H  c #C84242",
"J  c #CA4343",
"K  c #CC4141",
"L  c #CC4142",
"P  c #CC4242",
"I  c #CA4444",
"U  c #CA4646",
"Y  c #CD4444",
"T  c #CD4545",
"R  c #CE4747",
"E  c #CC4949",
"W  c #CF4949",
"Q  c #CF4A49",
"!  c #CC4B4B",
"~  c #CD4E4E",
"^  c #CE4E4E",
"/  c #D14341",
"(  c #D14E4E",
")  c #D14F4F",
"_  c #D14F50",
"`  c #CE5050",
"'  c #CE5151",
"]  c #CF5353",
"[  c #D05353",
"{  c #D05454",
"}  c #D05455",
"|  c #D35454",
" . c #D25757",
".. c #D25858",
"X. c #D45959",
"o. c #D35C5C",
"O. c #D35D5D",
"+. c #D46060",
"@. c #D56162",
"#. c #D66565",
"$. c #D76666",
"%. c #D86969",
"&. c #D86A6A",
"*. c #D96F6E",
"=. c #DA6F6F",
"-. c #D97474",
";. c #DD7777",
":. c #000093",
">. c #000095",
",. c #7676D1",
"<. c #7979D3",
"1. c #7B7BD3",
"2. c #DD8989",
"3. c #DA8C8C",
"4. c #DA8E8E",
"5. c #DF8D8E",
"6. c #E09090",
"7. c #E29293",
"8. c #E19494",
"9. c #E29595",
"0. c #E39696",
"q. c #E49898",
"w. c #E2AEAE",
"e. c #E3AFAF",
"r. c #E4AEAE",
"t. c #E9A9A9",
"y. c #E9ABAB",
"u. c #E5B1B1",
"i. c #E5BEBE",
"p. c #EDCBCB",
"a. c #EECDCD",
"s. c #EFD8D8",
"d. c #F3F3F3",
"f. c gray97",
"g. c #FDFDFD",
"h. c #FEFEFE",
"j. c gray100",
/* pixels */
">.>.j.j.6 4 W 6 4 3 1 , > : - : ",
">.1.j.j.;.-.t.*.&.$.+.o. .` ` % ",
">.1.j.j...| q.) T P F l f f E % ",
">.,.g.j.| ` 0.W G ` a.f.s.B I # ",
":.,.j.j.^ [ 0.G S p.G u.M e.B # ",
"/ t.0.7.6.5.2.C l f.e.r 4.d.b @ ",
"6 =.) W T F C x a s.M 3.a i.l + ",
"4 &.W T F C z f y M e.d.i.w g o ",
"3 $.Y F M x f y e q 0 9 8 9 g X ",
", @.o...{ ^ ^ E G B n l g w w   ",
"3 > : - = = % % # @ + + o X X + "
};
