/* XPM */
static char * chat_ico_xpm[] = {
"16 16 59 1",
" 	c None",
".	c #6B5600",
"+	c #9C8A2E",
"@	c #D9CB71",
"#	c #FEF6B3",
"$	c #A89846",
"%	c #FFF8BC",
"&	c #FFFFFF",
"*	c #FFFDEE",
"=	c #FEFBDD",
"-	c #FEF289",
";	c #A8983D",
">	c #5B4800",
",	c #ECDF7A",
"'	c #073E5C",
")	c #D5CB84",
"!	c #AD9F4C",
"~	c #09547D",
"{	c #0E84C4",
"]	c #147BB3",
"^	c #EBD96B",
"/	c #1095DD",
"(	c #72B3D7",
"_	c #3287B5",
":	c #DDCB60",
"<	c #D1BF57",
"[	c #1BA4EF",
"}	c #A2DAF9",
"|	c #59BDF3",
"1	c #3B9DD4",
"2	c #0C70A7",
"3	c #0A5A85",
"4	c #BDAE54",
"5	c #074161",
"6	c #0F89CC",
"7	c #43B4F2",
"8	c #21A7F0",
"9	c #67540A",
"0	c #04273A",
"a	c #06344D",
"b	c #0A5D8A",
"c	c #0D7EBB",
"d	c #095076",
"e	c #063751",
"f	c #063A56",
"g	c #0C74AC",
"h	c #094E74",
"i	c #0C6EA3",
"j	c #4EB9F3",
"k	c #68C3F4",
"l	c #07405F",
"m	c #BAE3FA",
"n	c #3FB3F2",
"o	c #0D79B4",
"p	c #14A2EF",
"q	c #E7F5FD",
"r	c #71C6F5",
"s	c #28A9F0",
"t	c #ACDDF9",
"       .......  ",
"      .+@###@+. ",
"     .$%&&**=-;>",
"     >-%&&**=#,>",
"    '>)-%**=#-!>",
"   ~{]>!----^!> ",
"  ~/&(_>>:^<>>  ",
"  ~[}|123>4>    ",
"  56778/3490    ",
"  ab6//cd0efa   ",
" ~fa~gg3ah3~a   ",
"~ib'aaaahi~3a   ",
"jk{gbbbgcil3a   ",
"mno/n[/p/ifda   ",
"k[b8qr7s/iada   ",
"j/'8tr7s/iaaa   "};
