/* XPM */
static char *client2_ICO[] = {
/* columns rows colors chars-per-pixel */
"16 16 41 1",
"  c black",
". c #B59C0E",
"X c #D1B506",
"o c #D7BE11",
"O c #DCC71B",
"+ c #DFCD27",
"@ c #E6CB14",
"# c #EDD91F",
"$ c #F6DC17",
"% c #E8DA39",
"& c #F4DA2F",
"* c #FEE51A",
"= c #EFE02D",
"- c #EDE339",
"; c #F9E622",
": c #FDE32E",
"> c #FFEE25",
", c #FFF73B",
"< c #DDCC69",
"1 c #E4C846",
"2 c #E9DF4C",
"3 c #F1DD5E",
"4 c #E1D277",
"5 c #EEE340",
"6 c #F1E748",
"7 c #F6EE4E",
"8 c #F4ED55",
"9 c #FCE55A",
"0 c #FBF35B",
"q c #FFFC50",
"w c #FEFB5C",
"e c #FEFC62",
"r c #FEFD67",
"t c #F2E490",
"y c #F0E59D",
"u c #F6E892",
"i c #F6EFCA",
"p c #F8F3D5",
"a c #FEF7E9",
"s c #FFFEF6",
"d c None",
/* pixels */
"dddddddddddddddd",
"dddddd....dddddd",
"dddd..assa..dddd",
"ddd.ipiiiipp.ddd",
"dd.<ytuuuuty4.dd",
"dd.13  99  31.dd",
"d.X@&  ::  &@X.d",
"d.o@$******$@o.d",
"d.O#;>>>>>>;#O.d",
"d.+=>,,,,,,>=+.d",
"dd.-> qqqq $%.dd",
"dd.57>    >6%.dd",
"ddd.70eere82.ddd",
"dddd..wee0..dddd",
"dddddd....dddddd",
"dddddddddddddddd"
};
