/* XPM */
static char * close_hi_xpm[] = {
"16 16 5 1",
" 	c None",
".	c #000080",
"+	c #E2D704",
"@	c #FFFFFF",
"#	c #BFBFDF",
"                ",
"  ............  ",
" .++++++++++++. ",
" .+@@@@@@@@@@+. ",
" .+@..#@@#..@+. ",
" .+@...##...@+. ",
" .+@#......#@+. ",
" .+@@#....#@@+. ",
" .+@@#....#@@+. ",
" .+@#......#@+. ",
" .+@...##...@+. ",
" .+@..#@@#..@+. ",
" .+@@@@@@@@@@+. ",
" .++++++++++++. ",
"  ............  ",
"                "};
