/* XPM */
static char *wxDISABLE_BUTTON_BITMAP[] = {
/* columns rows colors chars-per-pixel */
"32 32 2 1",
"  c white",
". c #c0c0c0",
/* pixels */
" . . . . . . . . . . . . . . . .",
". . . . . . . . . . . . . . . . ",
" . . . . . . . . . . . . . . . .",
". . . . . . . . . . . . . . . . ",
" . . . . . . . . . . . . . . . .",
". . . . . . . . . . . . . . . . ",
" . . . . . . . . . . . . . . . .",
". . . . . . . . . . . . . . . . ",
" . . . . . . . . . . . . . . . .",
". . . . . . . . . . . . . . . . ",
" . . . . . . . . . . . . . . . .",
". . . . . . . . . . . . . . . . ",
" . . . . . . . . . . . . . . . .",
". . . . . . . . . . . . . . . . ",
" . . . . . . . . . . . . . . . .",
". . . . . . . . . . . . . . . . ",
" . . . . . . . . . . . . . . . .",
". . . . . . . . . . . . . . . . ",
" . . . . . . . . . . . . . . . .",
". . . . . . . . . . . . . . . . ",
" . . . . . . . . . . . . . . . .",
". . . . . . . . . . . . . . . . ",
" . . . . . . . . . . . . . . . .",
". . . . . . . . . . . . . . . . ",
" . . . . . . . . . . . . . . . .",
". . . . . . . . . . . . . . . . ",
" . . . . . . . . . . . . . . . .",
". . . . . . . . . . . . . . . . ",
" . . . . . . . . . . . . . . . .",
". . . . . . . . . . . . . . . . ",
" . . . . . . . . . . . . . . . .",
". . . . . . . . . . . . . . . . "
};
