/* XPM */
static char * down2x_bmp_xpm[] = {
"14 14 4 1",
" 	c None",
".	c #C0C0C0",
"+	c #808080",
"@	c #FFFFFF",
"..............",
"..............",
"..............",
"..............",
".++++++++++++.",
".++..++....@@.",
"..+...+....@..",
"..++..++..@@..",
"...+..@+..@...",
"...++@@++@@...",
"....+@..+@....",
"..............",
"..............",
".............."};
