/* XPM */
static char *folder_xpm[] = {
/* columns rows colors chars-per-pixel */
"16 16 145 2",
"   c black",
".  c #210B00",
"X  c #3B1200",
"o  c #440F00",
"O  c #842100",
"+  c #822C00",
"@  c #823300",
"#  c #A63A00",
"$  c #9C4210",
"%  c #A7460A",
"&  c #BD5400",
"*  c #BF5500",
"=  c #B36232",
"-  c #BA6734",
";  c #CE5B0A",
":  c #C35B13",
">  c #D35F00",
",  c #C46D32",
"<  c #D57F3E",
"1  c #FF5C00",
"2  c #E36400",
"3  c #E96400",
"4  c #EC730C",
"5  c #FF6500",
"6  c #FF6800",
"7  c #FC6E00",
"8  c #FF7400",
"9  c #F87913",
"0  c #B08670",
"q  c #D6BB38",
"w  c #FF8A00",
"e  c #FF8D00",
"r  c #FA8E0B",
"t  c #FF8C08",
"y  c #FF8110",
"u  c #FF8614",
"i  c #F59104",
"p  c #FF9107",
"a  c #FF9114",
"s  c #FF9F10",
"d  c #F58424",
"f  c #FA8426",
"g  c #FF9622",
"h  c #F8952C",
"j  c #FF9328",
"k  c #FF9B2C",
"l  c #FB9938",
"z  c #E1AA05",
"x  c #EDA021",
"c  c #EEA221",
"v  c #FFAF29",
"b  c #FFBA3A",
"n  c #E4934F",
"m  c #E29553",
"M  c #E09B55",
"N  c #E7A046",
"B  c #F7A840",
"V  c #F5A75B",
"C  c #FEB14E",
"Z  c #F8B94B",
"A  c #FEB15C",
"S  c #FEB35F",
"D  c #FDBC53",
"F  c #ECA665",
"G  c #EAAC60",
"H  c #FAAF70",
"J  c #F2B37A",
"K  c #F3B67B",
"L  c #FDB974",
"P  c #FFE62A",
"I  c #FFF02D",
"U  c #EFD359",
"Y  c #F9C65E",
"T  c #E6CB6C",
"R  c #FBCB62",
"E  c #FFCA62",
"W  c #F2D66F",
"Q  c #F4D468",
"!  c #FFDE71",
"~  c #F4E077",
"^  c #F3E17B",
"/  c #FCE176",
"(  c #FDE177",
")  c #F9F47E",
"_  c #B59C98",
"`  c #A3A8D1",
"'  c #A7B4DD",
"]  c #BEC8E5",
"[  c #B0CEFD",
"{  c #DBB686",
"}  c #D1B09E",
"|  c #E9BA89",
" . c #EBCB93",
".. c #EDDB9C",
"X. c #FDC788",
"o. c #FBCD81",
"O. c #FFDC95",
"+. c #F6EB85",
"@. c #F7EB85",
"#. c #FAE699",
"$. c #FFE498",
"%. c #F7F58E",
"&. c #FDFA8F",
"*. c #F6F695",
"=. c #F7F795",
"-. c #F7FC95",
";. c #F9FB94",
":. c #F9FF97",
">. c #FAFF97",
",. c #F9E3A9",
"<. c #FFFFAD",
"1. c #FAF4B1",
"2. c #FDFFB3",
"3. c #FDFFBE",
"4. c #C2C6D8",
"5. c #C4CBDC",
"6. c #CBCED3",
"7. c #C8CDDB",
"8. c #C3CCE7",
"9. c #C0CCE9",
"0. c #CAD0E6",
"q. c #C8D0EE",
"w. c #CDDBEA",
"e. c #CADBFF",
"r. c #D3D7E5",
"t. c #DBDEE4",
"y. c #D0DDF1",
"u. c #D5DBF5",
"i. c #D9E0F0",
"p. c #F7E4D7",
"a. c #FFFFC6",
"s. c #E7EBEE",
"d. c #EAEAE9",
"f. c #E0E7F8",
"g. c #E6EEFF",
"h. c #E8F4FF",
"j. c #EFF5FF",
"k. c #EEFAFF",
"l. c #EEFCFF",
"z. c #FFF2E8",
"x. c gray94",
"c. c #F5FAFF",
"v. c #FDFFFF",
"b. c gray100",
"n. c None",
/* pixels */
"n.n.n.n.n.n.n.n.n.n.n.n.n.n.n.n.",
"n.n.n.n.n.n.n.n.n.e k j n.n.n.n.",
"n.n.n.n.n.u.' n.s O.U i & n.n.n.",
"n.n.n.n.4.b.b.g.G q z r 2 n.n.n.",
"n.n.n.5.b.j.J V #.( T d 7 @ n.n.",
"n.n.7.b.L S 1.%.~ W D f 6 & n.n.",
"n.6.b.g 3.:.-.@.^ Y l 9 5 3 n.n.",
"x.b.b.S 2.;.*.@.R C h y 1 8 $ n.",
"s.w.l.z.o.:.*.( E B a t { [ = n.",
"n.p M ] F <.&.! Z v  .e.8.] _ + ",
"n.b $.I x ..) Q ,.h.i.i.y.0 - o ",
"n.n.u X.P N a.b.b.c.c.} , + n.n.",
"n.n.n.4 K x b.b.b.p.< % n.n.n.n.",
"n.n.n.n.> m | b.m :   n.n.n.n.n.",
"n.n.n.n.n.n.H ;   n.n.n.n.n.n.n.",
"n.n.n.n.n.n.n.  n.n.n.n.n.n.n.n."
};
