/* XPM */
static char *Prefs_Statistics.ico[] = {
/* columns rows colors chars-per-pixel */
"16 16 72 1",
"  c None",
". c #1c203a",
"X c #1e2252",
"o c #1e3249",
"O c #143959",
"+ c #34394c",
"@ c #044777",
"# c #01556d",
"$ c #09566b",
"% c #444451",
"& c #4a4a5d",
"* c #515161",
"= c #5c5c6d",
"- c #53537e",
"; c #5f5f70",
": c #727272",
"> c #025691",
", c #0a5fae",
"< c #0168af",
"1 c #016bb4",
"2 c #0175a2",
"3 c #017ca4",
"4 c #0173ba",
"5 c #017bc0",
"6 c #6c7698",
"7 c #0192bc",
"8 c #0589ca",
"9 c #019ac5",
"0 c #0192d2",
"q c #019bd9",
"w c #0e94d2",
"e c #089bd8",
"r c #1898d2",
"t c #01a3cf",
"y c #00a5d5",
"u c #01a5e0",
"i c #01aae4",
"p c #01aee8",
"a c #0daee5",
"s c #01b1e2",
"d c #01b3eb",
"f c #0cb0e7",
"g c #09b4eb",
"h c #01bcf2",
"j c #10aae1",
"k c #1eabe0",
"l c #12b3e9",
"z c #2597c5",
"x c #2398d1",
"c c #23b7e9",
"v c #2fb2e3",
"b c #2dbaea",
"n c #38afe0",
"m c #39bbe8",
"M c #01c1f5",
"N c #01c3f8",
"B c #45aedb",
"V c #77bed4",
"C c #5fd6f7",
"Z c #6bd4f4",
"A c #77d5f4",
"S c #85daf6",
"D c #93d3f3",
"F c #9fdff8",
"G c #92e4fb",
"H c #a6ecfe",
"J c #abebfd",
"K c #b7edfc",
"L c #b9f0fe",
"P c #cadff8",
"I c #caeaff",
"U c None",
/* pixels */
"UUUUUUUFUUUUUU U",
"UUUU#.oL,23111.U",
"U*31114L1x5<<<.U",
"U*1131wL1De<<1.U",
"U*31w1vI5GB114.U",
"U*31L4ZI7LS545.U",
"U=34KnLP8LL8eINA",
"U=4rVILPgLLLIz$U",
"IHLZ8ILPcICJ9qoU",
"U*888IFkIbbZtuoU",
"U*009ImzIldlufOU",
"U*0ttIijIddfhkOU",
"U-iapdfhIhhMNNOU",
"U;ddhhsyI>@X.+&U",
"UU.%:UUUI6UUUUUU",
"UUUUUUUUIUUUUUUU"
};
