/* XPM */
static char *Prefs_tweak.ico[] = {
/* columns rows colors chars-per-pixel */
"16 16 48 1",
"  c None",
". c #6b3900",
"X c #733300",
"o c #733900",
"O c #7b4200",
"+ c #8e3a00",
"@ c #8c4a00",
"# c #9c5200",
"$ c #b55a00",
"% c #be5500",
"& c #b96e04",
"* c #b57414",
"= c red",
"- c #ff1919",
"; c #c66d00",
": c #ce7000",
"> c #ce7b03",
", c #c57d14",
"< c #dd6e00",
"1 c #da7400",
"2 c #f37900",
"3 c #f97f00",
"4 c #808000",
"5 c #d38101",
"6 c #da921f",
"7 c #da9c38",
"8 c #ef8800",
"9 c #eb8912",
"0 c #fd8c00",
"q c #f69c08",
"w c #f09f25",
"e c #ffa308",
"r c #fdad2a",
"t c #feae33",
"y c #ffb029",
"u c #ffb639",
"i c #febc4a",
"p c #ffbf50",
"a c #ffc054",
"s c #ffc258",
"d c #ffc767",
"f c #ffc867",
"g c #ffcf7b",
"h c #ffd284",
"j c #ffd793",
"k c #ffe4b6",
"l c white",
"z c None",
/* pixels */
"zzzz       zzzzz",
"zzzz ----- zzzzz",
"zzzz --=-- 44zzz",
"zz44 --=-- 4oozz",
"z##z ----- z&eoz",
"#sayy --- ,eee5o",
"#fhiu --- @*eeeo",
"#0rsi --- z.yqXz",
"z#:hs --- z.yy>o",
"z##kgz - zO.yyyo",
"#;ilkf7- z.6yyyo",
"#80ifujzffaaa+$z",
"z#2<l === hdawoz",
"zz#l =---= t91oz",
"zzzz ----- 3%ozz",
"zzzz  ===  lozzz"
};
