/* XPM */
static char *search.ico[] = {
/* columns rows colors chars-per-pixel */
"32 32 257 2",
"   c #000000",
".  c #0a0000",
"X  c #101e28",
"o  c #2e0c00",
"O  c #2f170b",
"+  c #26140c",
"@  c #2b1b12",
"#  c #391805",
"$  c #3f2311",
"%  c #38251c",
"&  c #382f29",
"*  c #312e33",
"=  c #333335",
"-  c #39383c",
";  c #431c04",
":  c #511400",
">  c #4b250c",
",  c #4a2a15",
"<  c #522d13",
"1  c #502e18",
"2  c #582e10",
"3  c #5e381b",
"4  c #5a3316",
"5  c #4f3529",
"6  c #4c3524",
"7  c #553720",
"8  c #5f3c24",
"9  c #672804",
"0  c #632a0b",
"q  c #6a2601",
"w  c #692c09",
"e  c #652803",
"r  c #6f300e",
"t  c #68391d",
"y  c #792e01",
"u  c #773003",
"i  c #7c390d",
"p  c #703817",
"a  c #733c1a",
"s  c #733713",
"d  c #643f27",
"f  c #4e433f",
"g  c #5a402d",
"h  c #504239",
"j  c #564839",
"k  c #5f4938",
"l  c #5b4437",
"z  c #68442c",
"x  c #694933",
"c  c #794220",
"v  c #7e4a26",
"b  c #764725",
"n  c #785337",
"m  c #464548",
"M  c #494545",
"N  c #4d4846",
"B  c #4b4a4c",
"V  c #46494c",
"C  c #534a46",
"Z  c #514f50",
"A  c #5e524d",
"S  c #545353",
"D  c #57595f",
"F  c #585454",
"G  c #5b5a5a",
"H  c #5b5854",
"J  c #645449",
"K  c #6b594c",
"L  c #64625d",
"P  c #636262",
"I  c #676769",
"U  c #686563",
"Y  c #686569",
"T  c #6a6965",
"R  c #6c6b6b",
"E  c #6f777c",
"W  c #6d7072",
"Q  c #736f67",
"!  c #7a6f68",
"~  c #716f70",
"^  c #72706d",
"/  c #7b756c",
"(  c #757474",
")  c #7e7b76",
"_  c #7c7a7b",
"`  c #7f8a94",
"'  c #8c420f",
"]  c #8b4514",
"[  c #834419",
"{  c #98460e",
"}  c #9b4f17",
"|  c #954b15",
" . c #9e5016",
".. c #9e561f",
"X. c #894d23",
"o. c #87522b",
"O. c #835331",
"+. c #895836",
"@. c #90592e",
"#. c #9d5622",
"$. c #945322",
"%. c #8f643c",
"&. c #9f6436",
"*. c #a74e10",
"=. c #a25416",
"-. c #a5561b",
";. c #ba5f14",
":. c #b5580b",
">. c #a15720",
",. c #a55e28",
"<. c #a65b24",
"1. c #ab601c",
"2. c #ac6025",
"3. c #af6429",
"4. c #ad6c2f",
"5. c #a66938",
"6. c #a06536",
"7. c #b16325",
"8. c #b3662a",
"9. c #b76a27",
"0. c #ba6c2d",
"q. c #b76726",
"w. c #b26b32",
"e. c #bd742f",
"r. c #be7839",
"t. c #815c46",
"y. c #946644",
"u. c #966941",
"i. c #986846",
"p. c #9f6f4d",
"a. c #936a4c",
"s. c #9f704d",
"d. c #94755a",
"f. c #81776e",
"g. c #827d7a",
"h. c #827c74",
"j. c #987a67",
"k. c #aa7348",
"l. c #a87e59",
"z. c #bd7f47",
"x. c #b57b4b",
"c. c #a17e64",
"v. c #c66e28",
"b. c #c2712e",
"n. c #c87329",
"m. c #c47432",
"M. c #c07832",
"N. c #c77a3a",
"B. c #c97631",
"V. c #cc7a33",
"C. c #cd7e3a",
"Z. c #d37e34",
"A. c #81807c",
"S. c #888276",
"D. c #8a807d",
"F. c #9a8573",
"G. c #b6855a",
"H. c #a4846c",
"J. c #a38a74",
"K. c #a68d79",
"L. c #a88b73",
"P. c #be8c61",
"I. c #b1947b",
"U. c #d6833c",
"Y. c #cc8940",
"T. c #ca8f49",
"R. c #c68246",
"E. c #c98e53",
"W. c #d38848",
"Q. c #dc8f4a",
"!. c #d68846",
"~. c #dd9846",
"^. c #db934f",
"/. c #d89956",
"(. c #cf9c69",
"). c #c59863",
"_. c #c19877",
"`. c #d79a65",
"'. c #dca46c",
"]. c #dfac78",
"[. c #e3954d",
"{. c #e19c5c",
"}. c #ebac5b",
"|. c #e7a869",
" X c #848484",
".X c #8a8785",
"XX c #8a8a85",
"oX c #8a8a89",
"OX c #858887",
"+X c #8b9094",
"@X c #918c89",
"#X c #93928d",
"$X c #9a988c",
"%X c #939394",
"&X c #969699",
"*X c #969892",
"=X c #999a93",
"-X c #9b9c9a",
";X c #a79c8f",
":X c #af9883",
">X c #b09380",
",X c #a19ea1",
"<X c #a2a19c",
"1X c #bba087",
"2X c #b7a184",
"3X c #baa997",
"4X c #a4a4a3",
"5X c #aaa6a8",
"6X c #aaa9a3",
"7X c #acacab",
"8X c #a4abb0",
"9X c #afb4b3",
"0X c #b2aeb2",
"qX c #b6b3ae",
"wX c #b5b3b3",
"eX c #b7b8b5",
"rX c #b6bfbe",
"tX c #b9b6b9",
"yX c #b8b9b4",
"uX c #bdbbba",
"iX c #bebfc0",
"pX c #b1e2ff",
"aX c #c2a587",
"sX c #c4b39f",
"dX c #dbb68b",
"fX c #ddba9c",
"gX c #c0bebc",
"hX c #c8b8a5",
"jX c #e5b789",
"kX c #c7c4bb",
"lX c #fbc889",
"zX c #e6c6aa",
"xX c #c4c3c2",
"cX c #c9c9c7",
"vX c #cececb",
"bX c #c3caca",
"nX c #c8d0cf",
"mX c #d0cec6",
"MX c #d1d0cd",
"NX c #d6d6d2",
"BX c #dcdddc",
"VX c #f5dbc4",
"CX c #ead8c4",
"ZX c #e0e1dc",
"AX c #efe4d8",
"SX c #faefc3",
"DX c #e4e5e2",
"FX c #e7e8e5",
"GX c #ebeae5",
"HX c #edeeed",
"JX c #f7eee3",
"KX c #f9f2ea",
"LX c #f3f3f2",
"PX c #f5faff",
"IX c #fefaf0",
"UX c #fdfdfc",
"YX c None",
/* pixels */
"YXYXYXYXYXYXYXYXYXYXYXYXYXYXYXYXYXYXYXYXYXYXYXYXYXYXYXYXYXYXYXYX",
"YXYXYXYXYXYXYXYXYXYXYXYXYXYXYXYXYXYXYXYXYXYXYXYXYXYXYXYXYXYXYXYX",
"YXYXYXYXYXYXYXYXYXYXYXYXYXYXYXYXYXYXYXYXYXYXYXYXYXYXYXYXYXYXYXYX",
"YXYXYXYXYXYXYXYXYXYXYXYXYXYXYXYXYXYXYXYXYXYXYXYXYXYXYXYXYXYXYXYX",
"YXYXYXYXYXYXYXYXYXYXYXYXYXYXYX^ U ~ ~ S M N U YXYXYXYXYXYXYXYXYX",
"YXYXYXYXYXYXYXYXYXYXYXYXYXU R ,XwX-Xg.A A F m B G YXYXYXYXYXYXYX",
"YXYXYXYXYXYXYXYXYXYXYXYXG ,XwX! z z d.pXpXpXpXpXF m ^ YXYXYXYXYX",
"YXYXYXYXYXYXYXYXYXYXYX^ tXg.l v c.pXpXIXIXpXpXpXpXpXF L YXYXYXYX",
"YXYXYXYXYXYXYXYXYXYXG 0XA d pXpXpXpXpXIXIXpXIXIXIXpXpX^ ) YXYXYX",
"YXYXYXYXYXYXYXYXYXL _ K 9 i.pXpXpXpXpXpXpXpXIXIXIXIXpXpXU YXYXYX",
"YXYXYXYXYXYXYXYXYXZ F < v @.X.O.L.pXpXpXpXpXpXIXIXIXIXpXpXT YXYX",
"YXYXYXYXYXYXYXYXh.D 6 _.AXVX|.#.s L.pXpXpXpXpXpXpXIXIXIXpXS YXYX",
"YXYXYXYXYXYXYXYXH C I.UXUXBXF.5.] [ K.pXpXpXpXpXpXpXIXIXpXT R YX",
"YXYXYXYXYXYXYXYXB x zXUXLXG   n >.w.P.:X;X=X=XpXpXpXIXIXpXXXM YX",
"YXYXYXYXYXYXYXYXM c '.KXHX-   O.0.(.CXJXHXNXyX<XpXpXpXIXpX#X= YX",
"YXYXYXYXYXYXYXYXN o.Z.`.fXd.@.r.U.dX9X&XkXHXZXqX#XpXpXIXpX#X* YX",
"YXYXYXYXH.H.YXYXT %.U.v.q.N.N.e.T.2XOXS L vXLXvX=XpXpXpXpX_ - YX",
"YXYXYXc.$.r YXYXk d.Q.C.b.3.2.8.G.2X9XeXcXDXLXFX4X=XpXpXpXG B YX",
"YXYXYXr.V.p I.k.G.K R.C.B.0.3.2.G.sXkXNXLXUXLXGXyX<XpXpXpXB U YX",
"YXYX+.Z.| 0 '.YX|.n %.V.B.0.2.,.G.hXnXZXLXPXLXHXyX<XpXpXU U A.YX",
"YXYXs.} [ |.lXY.0.l.j 4.b.3...&.1XkXNXvXvXFXDXGX7X<XpX.X X%X$XYX",
"YXYX+.i W.N.=.y j.YXS.8 #.>.X.p.3XkXeX=XxXZXDXZX<X-X@XG wX_ YXYX",
"YXL.: ,.V.e.i a &.X.3X^ h 8 x / -X6X-XOX&XeXMXgXXXU ( tXg.YXYXYX",
"YXYX0 8.0...y.UXGX4.u K.M m S G I ` XXOXG V P G B U wX.XYXYXYXYX",
"YXYXo.Z.0.:.VXPXX 1 v.1XkX( L _ Y B m B m G U &XJ < $ YXYXYXYXYX",
"YXK.{ Q.^.Z.n.dXn 1.}.rX8XUX%X^ &X7X5X5X7XtXxX,X# > > K YXYXYXYX",
"YXj.-.{.SX].B.;.m.n.).` B bXUXOXYXYXYXYXYXYXYXYXYXo $ + YXYXYXYX",
"YXt.<.[.jX].W.V.3.*.P.nXUXUXUX%XYXYXYXYXYXYXYXYXYX% O @ & YXYXYX",
"YXn w b.!.^.[.B.7. .aXDXFXLXUX%XYXYXYXYXYXYXYXYXYXYX. , , YXYXYX",
"YXa 9 e >.q.e.q.{ y.bX7X-XLXUX#XYXYXYXYXYXYXYXYXYXYX% ; 4 k YXYX",
"YXc ' ] e q q t / E +X<XW R 6XYXYXYXYXYXYXYXYXYXYXYXYXo < 4 YXYX",
"YXX.k./.|.E.x.%.YXYX=XOXOXoXYXYXYXYXYXYXYXYXYXYXYXYXYX5 # 3 7 YX"
};
