/* XPM */
static char *SmallStatistics.ico[] = {
/* columns rows colors chars-per-pixel */
"16 16 68 1",
"  c None",
". c #313425",
"X c #383d2d",
"o c #0f274a",
"O c #122f5a",
"+ c #12305b",
"@ c #15386b",
"# c #18417c",
"$ c #524100",
"% c #584700",
"& c #5c4a00",
"* c #565530",
"= c #6c5800",
"- c #776300",
"; c #435152",
": c #4f5c56",
"> c #1b498c",
", c #2d4f83",
"< c #3f5f84",
"1 c #3e649d",
"2 c #3260a4",
"3 c #3161a8",
"4 c #3e67a5",
"5 c #3e69aa",
"6 c #3b6bb3",
"7 c #456eaa",
"8 c #4978bc",
"9 c #4679c4",
"0 c #4d7dc3",
"q c #507fc5",
"w c #5c80ae",
"e c #4d81cd",
"r c #5284ce",
"t c #5185d2",
"y c #5489d7",
"u c #5f8fda",
"i c #5f92e1",
"p c #6292dc",
"a c #6599e9",
"s c #6e9dea",
"d c #6fa2f3",
"f c #79abfc",
"g c #826c00",
"h c #877200",
"j c #917900",
"k c #9f8700",
"l c #a78e00",
"z c #ac9200",
"x c #ad950a",
"c c #b39900",
"v c #b99e00",
"b c #b3a42e",
"n c #b2a73f",
"m c #a0a354",
"M c #b3ac4a",
"N c #ccb921",
"B c #d4c133",
"V c #efd629",
"C c #f5e43f",
"Z c #ffe63c",
"A c #d7cf45",
"S c #edde4a",
"D c #f5e842",
"F c #f6eb4d",
"G c #ffed44",
"H c #fff047",
"J c #fff44b",
"K c None",
/* pixels */
"KKKK>>>>>>>>KKKK",
"KK>>6eiiiie6>>KK",
"K>3tiaa8aaaai6>K",
">3iaaa0$raaddd0>",
"#9aaa0%n:udddff@",
"@yaaq&nB&0ddffs+",
"O5ar&nVVM:sfff7o",
"O@4&nZZZS&wfp1oo",
"O2XbCJHGFm*,oo#o",
"O<$=xNDJJA.o@>>o",
"O;jk-&&&&$.@#>#o",
"K$lvvvvczh$@#@oK",
"K$cvvvvvvv$OooKK",
"K$$$gzvvvv$oKKKK",
"KKKK$$$$$$KKKKKK",
"KKKKKKKKKKKKKKKK"
};
