/* XPM */
static char *User.ico[] = {
/* columns rows colors chars-per-pixel */
"16 16 57 1",
"  c None",
". c #1c361f",
"X c #0d4628",
"o c #075c2f",
"O c #09532c",
"+ c #0f582e",
"@ c #055f30",
"# c #12502b",
"$ c #185129",
"% c #026c34",
"& c #0b6933",
"* c #007236",
"= c #047f3e",
"- c #0a7e39",
"; c #224126",
": c #204925",
"> c #225328",
", c #245d2b",
"< c #2a6832",
"1 c #11833d",
"2 c #168b3d",
"3 c #1d8c3e",
"4 c #328f3e",
"5 c #00a651",
"6 c #1dae4d",
"7 c #2c9f43",
"8 c #35a244",
"9 c #39b54a",
"0 c #28b26a",
"q c #499e55",
"w c #40af54",
"e c #44a859",
"r c #4ca173",
"t c #4eb560",
"y c #53be65",
"u c #5cb06f",
"i c #58c167",
"p c #5bc169",
"a c #63c373",
"s c #69c777",
"d c #6dc77e",
"f c #4cbe82",
"g c #77ba87",
"h c #76cb82",
"j c #7ccd8a",
"k c #82cf90",
"l c #82ca9c",
"z c #8ad395",
"x c #92d59f",
"c c #a4dcaf",
"v c #a1d7b5",
"b c #b9e1c8",
"n c #caebd0",
"m c #daf1df",
"M c #ecf8ef",
"N c white",
"B c None",
/* pixels */
"BBBBBB,>::BBBBBB",
"BBBBB,rf0*.BBBBB",
"BBBB,rNvd5*.BBBB",
"BBBB,fbld95.BBBB",
"BBBB$0ddy95...BB",
"BBBBX16995*.o#.B",
"BBB,O.=55*.%=&.B",
"BB,3-@....%3&=.B",
"B,hz72***273+=.B",
"B,ns4wguet93#=.B",
"B,zy<yMxdi93.=.B",
"B,h9;yMxdi93...B",
"B,p9.ymkdi93.BBB",
"B,99.ychii8..BBB",
"B:99.9jaq...BBBB",
"B:..B....BBBBBBB"
};
