/* XPM */
static char * mule_Tr_grey_big_ico_xpm[] = {
"22 22 106 2",
"  	c #ff0000",
". 	c #3B3B3B",
"+ 	c #3E3E3E",
"@ 	c #3D3D3D",
"# 	c #4C4C4C",
"$ 	c #3F3F3F",
"% 	c #3C3C3C",
"& 	c #717171",
"* 	c #5D5D5D",
"= 	c #464646",
"- 	c #787878",
"; 	c #C5C5C5",
"> 	c #B5B5B5",
", 	c #A6A6A6",
"' 	c #8F8F8F",
") 	c #777777",
"! 	c #565656",
"~ 	c #6E6E6E",
"{ 	c #505050",
"] 	c #7E7E7E",
"^ 	c #B6B6B6",
"/ 	c #BCBCBC",
"( 	c #ACACAC",
"_ 	c #949494",
": 	c #636363",
"< 	c #4F4F4F",
"[ 	c #484848",
"} 	c #404040",
"| 	c #595959",
"1 	c #7D7D7D",
"2 	c #7F7F7F",
"3 	c #A2A2A2",
"4 	c #A9A9A9",
"5 	c #818181",
"6 	c #696969",
"7 	c #5C5C5C",
"8 	c #444444",
"9 	c #6F6F6F",
"0 	c #898989",
"a 	c #959595",
"b 	c #737373",
"c 	c #494949",
"d 	c #878787",
"e 	c #848484",
"f 	c #6B6B6B",
"g 	c #838383",
"h 	c #575757",
"i 	c #888888",
"j 	c #A8A8A8",
"k 	c #535353",
"l 	c #414141",
"m 	c #4B4B4B",
"n 	c #929292",
"o 	c #858585",
"p 	c #D8D8D8",
"q 	c #F4F4F4",
"r 	c #707070",
"s 	c #363636",
"t 	c #4D4D4D",
"u 	c #9A9A9A",
"v 	c #9F9F9F",
"w 	c #D1D1D1",
"x 	c #555555",
"y 	c #979797",
"z 	c #AAAAAA",
"A 	c #C3C3C3",
"B 	c #BBBBBB",
"C 	c #ABABAB",
"D 	c #B7B7B7",
"E 	c #B9B9B9",
"F 	c #9C9C9C",
"G 	c #8A8A8A",
"H 	c #999999",
"I 	c #A7A7A7",
"J 	c #B4B4B4",
"K 	c #AFAFAF",
"L 	c #C8C8C8",
"M 	c #939393",
"N 	c #808080",
"O 	c #969696",
"P 	c #9E9E9E",
"Q 	c #BEBEBE",
"R 	c #525252",
"S 	c #989898",
"T 	c #ADADAD",
"U 	c #A1A1A1",
"V 	c #8D8D8D",
"W 	c #7B7B7B",
"X 	c #767676",
"Y 	c #A4A4A4",
"Z 	c #BFBFBF",
"` 	c #CDCDCD",
" .	c #373737",
"..	c #4A4A4A",
"+.	c #676767",
"@.	c #868686",
"#.	c #6C6C6C",
"$.	c #D2D2D2",
"%.	c #D9D9D9",
"&.	c #D5D5D5",
"*.	c #434343",
"=.	c #4E4E4E",
"-.	c #646464",
";.	c #545454",
">.	c #424242",
",.	c #686868",
"                                            ",
"                                            ",
"                                            ",
"          .                                 ",
"          .                                 ",
"        . +                                 ",
"      . @ #     $ $ + + @ % . .             ",
"      @ & * = - ; > , ' ) ! .               ",
"    $ # ~ { ] ^ / ( _ : < [                 ",
"    } | 1 2 3 4 5 6 7 [                     ",
"    8 9 0 a ' b { . .                       ",
"  . c d e f f : #                           ",
". . c e g h i j ) k l                       ",
"    m n o 3 p q   r 9 8 s s s               ",
". . t u v j w ^ x o y z A B 0 s             ",
"  . { C ; D E F ~ G H y 5 I J s             ",
"  @ k K L B 4 M N 5 H O ~ P Q s             ",
". @ R S z T U V W X Y ; Z ` D  .            ",
". + ..+.G ' @.) #.b T $.%.&.C .             ",
". *.=.% @ + @ @ c ) U j I X .               ",
". = * 6 -.;.*..   >...m m [                 ",
". [ +.5 N ,.m .                             "};
