<?xml version="1.0" encoding="UTF-8" standalone="no"?>
<!-- Created with Inkscape (http://www.inkscape.org/) -->
<svg
   xmlns:svg="http://www.w3.org/2000/svg"
   xmlns="http://www.w3.org/2000/svg"
   xmlns:xlink="http://www.w3.org/1999/xlink"
   version="1.0"
   width="128"
   height="128"
   id="svg2">
  <defs
     id="defs4">
    <linearGradient
       id="linearGradient5499">
      <stop
         id="stop5501"
         style="stop-color:#414041;stop-opacity:1"
         offset="0" />
      <stop
         id="stop5503"
         style="stop-color:#414041;stop-opacity:0"
         offset="1" />
    </linearGradient>
    <radialGradient
       cx="217.46033"
       cy="1267.6486"
       r="51.293652"
       fx="217.46033"
       fy="1267.6486"
       id="radialGradient5485"
       xlink:href="#linearGradient5499"
       gradientUnits="userSpaceOnUse"
       gradientTransform="matrix(1,0,0,1.7231807,0,-916.73904)" />
  </defs>
  <g
     id="layer2"
     style="display:inline">
    <path
       d="M 39.340653,6.101704 L 49.585554,6.101704 L 49.585554,21.033173 L 39.340653,21.033173 L 39.340653,6.101704 z"
       id="rect3606"
       style="fill:#642909;fill-opacity:1;fill-rule:evenodd;stroke:#642909;stroke-width:0.97238445;stroke-miterlimit:8.69999981;stroke-opacity:0" />
    <path
       d="M 31.157195,13.930587 L 40.319663,13.930587 L 40.319663,28.407229 L 31.157195,28.407229 L 31.157195,13.930587 z"
       id="rect3608"
       style="fill:#642909;fill-opacity:1;fill-rule:evenodd;stroke:#642909;stroke-width:0.9949488;stroke-miterlimit:8.69999981;stroke-opacity:0" />
    <path
       d="M 22.935572,20.962037 L 31.335333,20.962037 L 31.335333,36.615875 L 22.935572,36.615875 L 22.935572,20.962037 z"
       id="rect3610"
       style="fill:#642909;fill-opacity:1;fill-rule:evenodd;stroke:#642909;stroke-width:0.98637319;stroke-miterlimit:8.69999981;stroke-opacity:0" />
    <path
       d="M 13.926738,36.046062 L 22.651414,36.046062 L 22.651414,87.736033 L 13.926738,87.736033 L 13.926738,36.046062 z"
       id="rect3612"
       style="fill:#642909;fill-opacity:1;fill-rule:evenodd;stroke:#642909;stroke-width:0.91249251;stroke-miterlimit:8.69999981;stroke-opacity:0" />
    <path
       d="M 3.9349289,58.026734 L 14.136332,58.026734 L 14.136332,65.321003 L 3.9349289,65.321003 L 3.9349289,58.026734 z"
       id="rect3614"
       style="fill:#642909;fill-opacity:1;fill-rule:evenodd;stroke:#642909;stroke-width:1.01180661;stroke-miterlimit:8.69999981;stroke-opacity:0" />
    <path
       d="M 5.2020639,72.75029 L 15.930324,72.75029 L 15.930324,80.351753 L 5.2020639,80.351753 L 5.2020639,72.75029 z"
       id="rect3616"
       style="fill:#642909;fill-opacity:1;fill-rule:evenodd;stroke:#642909;stroke-width:0.91249251;stroke-miterlimit:8.69999981;stroke-opacity:0" />
    <path
       d="M 4.3420179,87.518853 L 13.926736,87.518853 L 13.926736,124.65744 L 4.3420179,124.65744 L 4.3420179,87.518853 z"
       id="rect3618"
       style="fill:#414041;fill-opacity:1;fill-rule:evenodd;stroke:#414041;stroke-width:0.91249251;stroke-miterlimit:8.69999981;stroke-opacity:1" />
    <path
       d="M 23.180182,102.50459 L 67.596712,102.50459 L 67.596712,109.88887 L 23.180182,109.88887 L 23.180182,102.50459 z"
       id="rect3620"
       style="fill:#642909;fill-opacity:1;fill-rule:evenodd;stroke:#642909;stroke-width:0.91249251;stroke-miterlimit:8.69999981;stroke-opacity:0" />
    <path
       d="M 49.35421,109.6717 L 59.136423,109.6717 L 59.136423,124.65745 L 49.35421,124.65745 L 49.35421,109.6717 z"
       id="rect3622"
       style="fill:#642909;fill-opacity:1;fill-rule:evenodd;stroke:#642909;stroke-width:0.91249251;stroke-miterlimit:8.69999981;stroke-opacity:0" />
    <path
       d="M 40.629533,57.981725 L 49.882979,57.981725 L 49.882979,65.800377 L 40.629533,65.800377 L 40.629533,57.981725 z"
       id="rect3624"
       style="fill:#642909;fill-opacity:1;fill-rule:evenodd;stroke:#642909;stroke-width:0.91249251;stroke-miterlimit:8.69999981;stroke-opacity:0" />
    <path
       d="M 59.136423,50.814627 L 68.125482,50.814627 L 68.125482,58.198909 L 59.136423,58.198909 L 59.136423,50.814627 z"
       id="rect3626"
       style="fill:#642909;fill-opacity:1;fill-rule:evenodd;stroke:#642909;stroke-width:0.91249251;stroke-miterlimit:8.69999981;stroke-opacity:0" />
    <path
       d="M 76.850162,58.198909 L 86.367982,58.198909 L 86.367982,64.931639 L 76.850162,64.931639 L 76.850162,58.198909 z"
       id="rect3628"
       style="fill:#642909;fill-opacity:1;fill-rule:evenodd;stroke:#642909;stroke-width:0.91249251;stroke-miterlimit:8.69999981;stroke-opacity:0" />
    <path
       d="M 68.125482,43.21316 L 85.839222,43.21316 L 85.839222,51.031811 L 68.125482,51.031811 L 68.125482,43.21316 z"
       id="rect3630"
       style="fill:#642909;fill-opacity:1;fill-rule:evenodd;stroke:#642909;stroke-width:0.91249251;stroke-miterlimit:8.69999981;stroke-opacity:0" />
    <path
       d="M 86.103602,36.046062 L 103.55295,36.046062 L 103.55295,43.430344 L 86.103602,43.430344 L 86.103602,36.046062 z"
       id="rect3632"
       style="fill:#642909;fill-opacity:1;fill-rule:evenodd;stroke:#642909;stroke-width:0.91249251;stroke-miterlimit:8.69999981;stroke-opacity:0" />
    <path
       d="M 102.88048,28.252166 L 113.04064,28.252166 L 113.04064,36.23849 L 102.88048,36.23849 L 102.88048,28.252166 z"
       id="rect3634"
       style="fill:#642909;fill-opacity:1;fill-rule:evenodd;stroke:#642909;stroke-width:0.96712023;stroke-miterlimit:8.69999981;stroke-opacity:0" />
    <path
       d="M 62.593752,21.060315 L 118.86689,21.060315 C 120.78226,21.060315 122.32423,22.327003 122.32423,23.900423 L 122.32423,25.604488 C 122.32423,27.177906 120.78226,28.444596 118.86689,28.444596 L 62.593752,28.444596 C 60.678393,28.444596 59.136423,27.177906 59.136423,25.604488 L 59.136423,23.900423 C 59.136423,22.327003 60.678393,21.060315 62.593752,21.060315 z"
       id="rect3636"
       style="fill:#642909;fill-opacity:1;fill-rule:evenodd;stroke:#642909;stroke-width:0.91249251;stroke-miterlimit:8.69999981;stroke-opacity:0" />
    <path
       d="M 49.35421,28.661781 L 58.34327,28.661781 L 58.34327,35.394509 L 49.35421,35.394509 L 49.35421,28.661781 z"
       id="rect5277"
       style="fill:#642909;fill-opacity:1;fill-rule:evenodd;stroke:#642909;stroke-width:0.91249251;stroke-miterlimit:8.69999981;stroke-opacity:1" />
    <path
       d="M 41.158301,36.480431 L 50.147361,36.480431 L 50.147361,42.995976 L 41.158301,42.995976 L 41.158301,36.480431 z"
       id="rect5279"
       style="fill:#642909;fill-opacity:1;fill-rule:evenodd;stroke:#642909;stroke-width:0.91249251;stroke-miterlimit:8.69999981;stroke-opacity:1" />
    <path
       d="M 39.215793,5.939705 C 38.715223,9.330421 36.588834,12.195726 31.264256,14.027471 C 30.314454,17.008113 28.936283,19.808787 23.591719,20.943099 C 21.24108,26.303546 21.981111,32.80014 14.245173,36.180923"
       id="path5394"
       style="fill:none;fill-rule:evenodd;stroke:#000000;stroke-width:0.08055982px;stroke-linecap:butt;stroke-linejoin:miter;stroke-opacity:1" />
    <path
       d="M 32.240586,13.806817 C 32.240586,13.743663 32.501332,13.582713 32.820026,13.449153 C 35.443975,12.349496 37.451683,10.628408 38.451783,8.621384 C 38.716785,8.089573 39.00076,7.636067 39.08284,7.613591 C 39.18425,7.585822 39.232075,8.59004 39.232075,10.747186 L 39.232075,13.921648 L 35.736331,13.921648 C 33.549304,13.921648 32.240586,13.878655 32.240586,13.806817 z"
       id="path5396"
       style="opacity:1;fill:#642909;fill-opacity:1;fill-rule:evenodd;stroke:#642909;stroke-width:1.44840074;stroke-miterlimit:8.69999981;stroke-dasharray:none;stroke-opacity:1" />
    <path
       d="M 25.249095,20.647913 C 25.249095,20.588997 25.668955,20.34791 26.182118,20.112165 C 28.087776,19.236715 29.689218,17.666857 30.45964,15.918998 C 31.026416,14.633163 31.099119,14.862044 31.099119,17.93221 L 31.099119,20.755038 L 28.174106,20.755038 C 26.502853,20.755038 25.249095,20.709122 25.249095,20.647915 L 25.249095,20.647913 z"
       id="path5398"
       style="opacity:1;fill:#642909;fill-opacity:1;fill-rule:evenodd;stroke:#642909;stroke-width:1.44840074;stroke-miterlimit:8.69999981;stroke-dasharray:none;stroke-opacity:1" />
    <path
       d="M 14.690515,35.894974 C 14.690515,35.841365 14.995502,35.634543 15.368263,35.435369 C 15.741024,35.236193 16.434957,34.765793 16.91034,34.390033 C 19.142521,32.625632 20.280821,30.70527 21.514754,26.622187 C 21.815628,25.626596 22.136862,24.791471 22.228609,24.766347 C 22.354366,24.731914 22.395425,26.10787 22.395425,30.356558 L 22.395425,35.992445 L 18.542971,35.992445 C 16.424121,35.992445 14.690515,35.948583 14.690515,35.894974 L 14.690515,35.894974 z"
       id="path5400"
       style="opacity:1;fill:#642909;fill-opacity:1;fill-rule:evenodd;stroke:#642909;stroke-width:1.44840074;stroke-miterlimit:8.69999981;stroke-dasharray:none;stroke-opacity:1" />
    <path
       d="M 30.786969,14.032631 C 29.888352,15.098906 29.383947,17.892502 29.383947,17.892502 L 24.696345,20.430284 C 28.746586,18.151073 21.755507,21.213217 22.300034,21.742622 L 20.402955,27.566126"
       id="path5402"
       style="fill:#642909;fill-opacity:1;fill-rule:evenodd;stroke:#642909;stroke-width:0.08147255px;stroke-linecap:butt;stroke-linejoin:miter;stroke-opacity:1" />
    <path
       d="M 23.518191,21.403041 C 23.518191,21.377518 23.561591,21.290021 23.614635,21.208601 C 23.707567,21.065954 23.738905,21.066012 24.475263,21.210127 C 24.895567,21.292385 25.264031,21.379885 25.294078,21.404567 C 25.324123,21.429248 24.936841,21.449443 24.433448,21.449443 C 23.930058,21.449443 23.518191,21.428562 23.518191,21.403038 L 23.518191,21.403041 z"
       id="path5404"
       style="opacity:1;fill:#642909;fill-opacity:1;fill-rule:evenodd;stroke:#642909;stroke-width:1.01355422;stroke-miterlimit:8.69999981;stroke-dasharray:none;stroke-opacity:1" />
    <path
       d="M 22.281231,23.559817 C 22.22932,23.448688 22.190453,23.442742 22.066825,23.52703 C 21.983775,23.583648 17.702616,34.061396 17.674025,34.03791 C 17.566511,33.949593 22.383089,21.784558 22.551131,21.707306 C 22.677071,21.649408 22.71942,21.661927 22.71942,21.757047 C 22.71942,21.826955 22.76435,21.884154 22.819267,21.884154 C 22.971338,21.884154 22.928404,22.433727 22.726627,23.069912 C 22.543681,23.646732 22.397133,23.807929 22.281231,23.559819 L 22.281231,23.559817 z"
       id="path5406"
       style="opacity:1;fill:#642909;fill-opacity:1;fill-rule:evenodd;stroke:#642909;stroke-width:1.01355422;stroke-miterlimit:8.69999981;stroke-dasharray:none;stroke-opacity:1" />
    <path
       d="M 3.8865129,58.026209 L 13.417082,36.229233"
       id="path5408"
       style="fill:none;fill-rule:evenodd;stroke:#642909;stroke-width:0.08147255px;stroke-linecap:butt;stroke-linejoin:miter;stroke-opacity:1" />
    <path
       d="M 4.2432109,58.01539 C 6.0023709,53.959739 13.749314,36.350054 13.777925,36.323778 C 13.800676,36.302879 13.551363,36.433894 13.673351,36.450824 L 13.895146,36.481609 L 13.895146,47.242734 L 13.895146,58.003862 L 8.9345419,58.003862 C 4.9892949,58.003862 3.9788699,57.992482 3.9980529,57.948259 L 4.2432109,58.01539 z"
       id="path5410"
       style="opacity:1;fill:#642909;fill-opacity:1;fill-rule:evenodd;stroke:#642909;stroke-width:0.5496943;stroke-miterlimit:8.69999981;stroke-dasharray:none;stroke-opacity:1" />
    <path
       d="M 3.9948139,65.232557 C 17.815786,69.93296 -1.6730071,70.712716 5.2944389,80.312513 C 17.882508,85.190263 4.6756049,87.017783 4.9695319,87.518853"
       id="path5412"
       style="fill:none;fill-rule:evenodd;stroke:#642909;stroke-width:0.08147255px;stroke-linecap:butt;stroke-linejoin:miter;stroke-opacity:1" />
    <path
       d="M 5.4475989,72.707309 C 5.4475989,72.63919 6.1996769,71.917446 7.0975699,71.123879 C 8.4418519,69.935795 8.8689969,69.45839 9.0530499,68.938297 C 9.4358499,67.856598 8.4672979,66.939089 5.7860419,65.843439 C 5.2425019,65.621329 4.7977859,65.422426 4.7977859,65.401427 C 4.7977859,65.380433 6.8446919,65.363253 9.3464679,65.363253 L 13.895146,65.363253 L 13.895146,69.055394 L 13.895146,72.747536 L 9.6713719,72.747536 C 7.1895439,72.747536 5.4475989,72.730944 5.4475989,72.707305 L 5.4475989,72.707309 z"
       id="path5414"
       style="opacity:1;fill:#642909;fill-opacity:1;fill-rule:evenodd;stroke:#642909;stroke-width:0.5496943;stroke-miterlimit:8.69999981;stroke-dasharray:none;stroke-opacity:1" />
    <path
       d="M 4.9222249,79.623243 C 4.2438179,78.553773 3.8931479,77.554243 3.8385399,76.534383 C 3.7911589,75.649463 3.9740649,74.882093 4.4229169,74.082633 C 4.6757749,73.632263 5.0597369,73.095273 5.1289049,73.095273 C 5.1563029,73.095273 5.1768429,74.543943 5.1768429,76.476023 C 5.1768429,78.661593 5.1580209,79.856783 5.1236049,79.856783 C 5.0943249,79.856783 5.0037019,79.751683 4.9222229,79.623243 L 4.9222249,79.623243 z"
       id="path5416"
       style="opacity:1;fill:#642909;fill-opacity:1;fill-rule:evenodd;stroke:#642909;stroke-width:0.5496943;stroke-miterlimit:8.69999981;stroke-dasharray:none;stroke-opacity:1" />
    <path
       d="M 5.1902089,87.452783 C 5.2025249,87.422423 5.7711109,87.216513 6.4537339,86.995183 C 8.5168459,86.326253 9.5029579,85.874823 10.158427,85.299213 C 10.621074,84.892933 10.780652,84.603983 10.781113,84.171693 C 10.781711,83.609253 10.505878,83.164493 9.7919699,82.576753 C 9.0910579,81.999733 8.2131769,81.504303 6.7066059,80.835563 C 6.2524159,80.633953 5.8808049,80.451363 5.8808049,80.429793 C 5.8808049,80.407523 7.6121159,80.390583 9.8879759,80.390583 L 13.895146,80.390583 L 13.895146,83.949273 L 13.895146,87.507973 L 9.5314839,87.507973 C 6.0823689,87.507973 5.1725119,87.496393 5.1902109,87.452783 L 5.1902089,87.452783 z"
       id="path5418"
       style="opacity:1;fill:#642909;fill-opacity:1;fill-rule:evenodd;stroke:#642909;stroke-width:0.5496943;stroke-miterlimit:8.69999981;stroke-dasharray:none;stroke-opacity:1" />
    <path
       d="M 103.84118,117.37931 C 106.90063,117.46172 111.28174,115.03097 114.69114,110.76294 C 121.73297,105.18527 120.26144,105.10684 122.47916,103.32636 L 123.41106,100.0455 C 125.17559,94.607773 125.16257,90.099283 125.0086,85.664463 C 124.30407,80.940603 124.42065,73.807723 122.61228,72.322348 C 119.26626,69.620488 114.29713,64.156705 113.16017,65.213846"
       id="path5420"
       style="fill:none;fill-rule:evenodd;stroke:#000000;stroke-width:0.08147255px;stroke-linecap:butt;stroke-linejoin:miter;stroke-opacity:1" />
    <path
       d="M 104.09881,113.70195 L 104.09881,110.08404 L 108.92101,110.08404 L 113.74321,110.08404 L 113.74321,106.72014 L 113.74321,103.35623 L 117.87652,103.35623 C 120.14985,103.35623 122.00984,103.3714 122.00984,103.38994 C 122.00984,103.40849 121.84786,103.5695 121.6499,103.74778 C 121.45193,103.92605 121.03172,104.39701 120.71612,104.79436 C 120.4005,105.19169 119.98138,105.70139 119.78474,105.92702 C 118.9688,106.86323 117.10725,108.57377 115.49818,109.86582 C 114.82644,110.40522 114.446,110.76659 114.00864,111.28067 C 112.12513,113.49463 110.14112,115.11955 107.97836,116.21953 C 106.86363,116.78649 105.49533,117.21165 104.54959,117.28492 L 104.09881,117.31986 L 104.09881,113.70195 z"
       id="path5422"
       style="opacity:1;fill:#414041;fill-opacity:1;fill-rule:evenodd;stroke:#414041;stroke-width:0.67093682;stroke-miterlimit:8.69999981;stroke-dasharray:none;stroke-opacity:1" />
    <path
       d="M 122.60629,87.332123 C 122.60629,75.538783 122.62307,72.563528 122.68949,72.580671 C 122.83029,72.617008 123.18859,73.229963 123.37059,73.745833 C 123.83201,75.053703 124.0652,76.646863 124.4708,81.262553 C 124.58311,82.540713 124.73356,84.047843 124.80512,84.611713 C 124.98036,85.992613 125.04506,88.963083 124.94239,90.913713 C 124.8154,93.326083 124.56138,95.232103 124.10432,97.202003 C 123.78141,98.593733 122.77124,102.05988 122.68138,102.08449 C 122.62576,102.09971 122.60629,98.274943 122.60629,87.332123 z"
       id="path5424"
       style="opacity:1;fill:#414041;fill-opacity:1;fill-rule:evenodd;stroke:#414041;stroke-width:0.67570281;stroke-miterlimit:8.69999981;stroke-dasharray:none;stroke-opacity:1" />
    <path
       d="M 113.37002,68.729453 C 113.38968,64.636295 113.3168,64.995766 114.06556,65.298576 C 114.96226,65.661208 116.18831,66.638662 119.17395,69.371208 C 120.15974,70.273441 121.27871,71.274101 121.66053,71.594901 C 122.04621,71.918956 122.33492,72.204494 122.31017,72.237398 C 122.2789,72.278966 120.93649,72.29663 117.80925,72.29663 L 113.3529,72.29663 L 113.37002,68.729453 z"
       id="path5426"
       style="opacity:1;fill:#414041;fill-opacity:1;fill-rule:evenodd;stroke:#414041;stroke-width:0.67570281;stroke-miterlimit:8.69999981;stroke-dasharray:none;stroke-opacity:1" />
    <path
       d="M 103.65401,38.976483 L 103.65401,36.245307 L 107.68062,36.245307 C 109.89525,36.245307 111.9355,35.820016 111.87115,35.864294 C 111.80681,35.908568 111.25162,36.465668 110.98071,36.538209 C 110.0245,36.79425 108.00086,37.675422 107.1564,38.203454 C 106.06111,38.888346 105.04135,39.88627 104.39683,40.90394 C 104.11687,41.34598 103.83521,41.707651 103.77092,41.707651 C 103.70002,41.707651 103.65401,40.632735 103.65401,38.976483 z"
       id="path5438"
       style="opacity:1;fill:#642909;fill-opacity:1;fill-rule:evenodd;stroke:#642909;stroke-width:1.24998963;stroke-miterlimit:8.69999981;stroke-dasharray:none;stroke-opacity:1" />
    <path
       d="M 49.598255,6.19708 C 52.270524,19.619097 55.844786,22.297105 59.739759,21.154985"
       id="path5440"
       style="fill:none;fill-rule:evenodd;stroke:#642909;stroke-width:0.08147255px;stroke-linecap:butt;stroke-linejoin:miter;stroke-opacity:0.94117647;display:inline" />
    <path
       d="M 50.439308,24.306414 C 50.439308,21.066587 50.389369,20.519603 50.093576,20.519603 C 49.794461,20.519603 49.74784,19.802562 49.74784,15.20229 C 49.74784,11.139896 49.813358,9.902915 50.025448,9.96099 C 50.178128,10.0028 50.62914,11.096239 51.027689,12.390862 C 52.206237,16.219183 53.864202,19.547084 54.536177,19.433168 C 54.682379,19.408383 54.751206,19.496844 54.689123,19.62975 C 54.531933,19.966244 55.859049,20.977488 56.21841,20.795044 C 56.401732,20.701969 56.444534,20.728466 56.338511,20.869384 C 56.129562,21.147113 57.111962,21.466307 58.175681,21.466307 L 58.967392,21.466307 L 58.967392,24.779767 L 58.967392,28.093226 L 54.703348,28.093226 L 50.439308,28.093226 L 50.439308,24.306414 z"
       id="path5443"
       style="opacity:1;fill:#642909;fill-opacity:1;fill-rule:evenodd;stroke:#642909;stroke-width:2.3397243;stroke-miterlimit:8.69999981;stroke-dasharray:none;stroke-opacity:0.94117647" />
  </g>
  <g
     id="layer3"
     style="display:inline">
    <path
       d="M 40.696336,21.009229 L 49.97224,21.009229 L 49.97224,36.002295 L 40.696336,36.002295 L 40.696336,21.009229 z"
       id="rect3643"
       style="fill:#803f12;fill-opacity:1;fill-rule:evenodd;stroke:#803f12;stroke-width:0.91382182;stroke-miterlimit:8.69999981;stroke-opacity:1" />
    <path
       d="M 13.688344,102.0789 L 23.651196,102.0789 L 23.651196,109.86101 L 13.688344,109.86101 L 13.688344,102.0789 z"
       id="rect3645"
       style="fill:#803f12;fill-opacity:1;fill-rule:evenodd;stroke:#803f12;stroke-width:0.95839912;stroke-miterlimit:8.69999981;stroke-opacity:1" />
  </g>
  <g
     id="layer4"
     style="display:inline">
    <path
       d="M 31.685473,28.397117 L 40.696341,28.397117 L 40.696341,36.002295 L 31.685473,36.002295 L 31.685473,28.397117 z"
       id="rect5178"
       style="fill:#bc6d2d;fill-opacity:1;fill-rule:evenodd;stroke:#bc6d2d;stroke-width:0.91382182;stroke-miterlimit:8.69999981;stroke-opacity:1" />
    <path
       d="M 31.950489,50.343494 L 40.43131,50.343494 L 40.43131,73.376323 L 31.950489,73.376323 L 31.950489,50.343494 z"
       id="rect5182"
       style="fill:#bc6d2d;fill-opacity:1;fill-rule:evenodd;stroke:#bc6d2d;stroke-width:0.91382182;stroke-miterlimit:8.69999981;stroke-opacity:1" />
    <path
       d="M 22.409577,57.731383 L 31.950496,57.731383 L 31.950496,65.336559 L 22.409577,65.336559 L 22.409577,57.731383 z"
       id="rect5184"
       style="fill:#bc6d2d;fill-opacity:1;fill-rule:evenodd;stroke:#bc6d2d;stroke-width:0.91382182;stroke-miterlimit:8.69999981;stroke-opacity:1" />
    <path
       d="M 76.474792,35.567712 L 85.750692,35.567712 L 85.750692,43.390179 L 76.474792,43.390179 L 76.474792,35.567712 z"
       id="rect5186"
       style="fill:#bc6d2d;fill-opacity:1;fill-rule:evenodd;stroke:#bc6d2d;stroke-width:0.91382182;stroke-miterlimit:8.69999981;stroke-opacity:1" />
    <path
       d="M 33.010597,117.1604 L 41.491415,117.1604 L 41.491415,124.331 L 33.010597,124.331 L 33.010597,117.1604 z"
       id="rect5205"
       style="fill:#bc6d2d;fill-opacity:1;fill-rule:evenodd;stroke:#c1742d;stroke-width:0.91382182;stroke-miterlimit:8.69999981;stroke-opacity:1;display:inline" />
  </g>
  <g
     id="layer5"
     style="display:inline">
    <path
       d="M 22.939624,36.002295 L 31.685469,36.002295 L 31.685469,43.390183 L 22.939624,43.390183 L 22.939624,36.002295 z"
       id="rect5189"
       style="fill:#7f3e13;fill-opacity:1;fill-rule:evenodd;stroke:#7f3e13;stroke-width:0.91382182;stroke-miterlimit:8.69999981;stroke-opacity:1" />
    <path
       d="M 40.961365,109.88119 L 49.177155,109.88119 L 49.177155,116.8345 L 40.961365,116.8345 L 40.961365,109.88119 z"
       id="rect5191"
       style="fill:#7f3e13;fill-opacity:1;fill-rule:evenodd;stroke:#7f3e13;stroke-width:0.91382182;stroke-miterlimit:8.69999981;stroke-opacity:1" />
  </g>
  <g
     id="layer6"
     style="display:inline">
    <path
       d="M 13.928757,110.31576 L 22.674601,110.31576 L 22.674601,124.43965 L 13.928757,124.43965 L 13.928757,110.31576 z"
       id="rect5194"
       style="fill:#8e4a19;fill-opacity:1;fill-rule:evenodd;stroke:#8e4a19;stroke-width:0.91382182;stroke-miterlimit:8.69999981;stroke-opacity:1" />
    <path
       d="M 21.879517,43.172896 L 31.950486,43.172896 L 31.950486,50.995364 L 21.879517,50.995364 L 21.879517,43.172896 z"
       id="rect5196"
       style="fill:#8e4a19;fill-opacity:1;fill-rule:evenodd;stroke:#8e4a19;stroke-width:0.91382182;stroke-miterlimit:8.69999981;stroke-opacity:1" />
  </g>
  <g
     id="layer7"
     style="display:inline">
    <path
       d="M 13.398704,87.282923 L 22.674605,87.282923 L 22.674605,101.40683 L 13.398704,101.40683 L 13.398704,87.282923 z"
       id="rect5199"
       style="fill:#6e310c;fill-opacity:1;fill-rule:evenodd;stroke:#6e310c;stroke-width:0.91382182;stroke-miterlimit:8.69999981;stroke-opacity:1" />
  </g>
  <g
     id="layer8"
     style="display:inline">
    <path
       d="M 22.688423,116.84582 L 32.508785,116.84582 L 32.508785,124.42832 L 22.688423,124.42832 L 22.688423,116.84582 z"
       id="rect5202"
       style="fill:#c1742d;fill-opacity:1;fill-rule:evenodd;stroke:#c1742d;stroke-width:0.93885654;stroke-miterlimit:8.69999981;stroke-opacity:1" />
  </g>
  <g
     id="layer9"
     style="display:inline">
    <path
       d="M 41.491413,117.48635 L 48.912128,117.48635 L 48.912128,124.22237 L 41.491413,124.22237 L 41.491413,117.48635 z"
       id="rect5210"
       style="fill:#9a531f;fill-opacity:0.94117647;fill-rule:evenodd;stroke:#9a531f;stroke-width:0.91382182;stroke-miterlimit:8.69999981;stroke-opacity:0.94117647" />
  </g>
  <g
     id="layer10"
     style="display:inline">
    <path
       d="M 22.97182,109.69029 L 32.713376,109.69029 L 32.713376,116.37351 L 22.97182,116.37351 L 22.97182,109.69029 z"
       id="rect5213"
       style="fill:#ac6226;fill-opacity:1;fill-rule:evenodd;stroke:#ac6226;stroke-width:0.97212332;stroke-miterlimit:8.69999981;stroke-opacity:1" />
    <path
       d="M 59.054206,94.729113 L 69.618192,94.729113 L 69.618192,103.17309 L 59.054206,103.17309 L 59.054206,94.729113 z"
       id="rect5215"
       style="fill:#ac6226;fill-opacity:1;fill-rule:evenodd;stroke:#ac6226;stroke-width:1.04258394;stroke-miterlimit:8.69999981;stroke-opacity:1" />
    <path
       d="M 94.761552,28.397117 L 103.77242,28.397117 L 103.77242,35.785005 L 94.761552,35.785005 L 94.761552,28.397117 z"
       id="rect5217"
       style="fill:#ac6226;fill-opacity:1;fill-rule:evenodd;stroke:#ac6226;stroke-width:0.91382182;stroke-miterlimit:8.69999981;stroke-opacity:1" />
  </g>
  <g
     id="layer11"
     style="display:inline">
    <path
       d="M 33.010597,109.66389 L 40.961365,109.66389 L 40.961365,117.05178 L 33.010597,117.05178 L 33.010597,109.66389 z"
       id="rect5220"
       style="fill:#a55c23;fill-opacity:1;fill-rule:evenodd;stroke:#a55c23;stroke-width:0.91382182;stroke-miterlimit:8.69999981;stroke-opacity:1" />
    <path
       d="M 31.155416,36.436876 L 40.696335,36.436876 L 40.696335,43.172893 L 31.155416,43.172893 L 31.155416,36.436876 z"
       id="rect5222"
       style="fill:#a55c23;fill-opacity:1;fill-rule:evenodd;stroke:#a55c23;stroke-width:0.91382182;stroke-miterlimit:8.69999981;stroke-opacity:1" />
  </g>
  <g
     id="layer12"
     style="display:inline">
    <path
       d="M 22.409577,50.995367 L 31.685479,50.995367 L 31.685479,57.514092 L 22.409577,57.514092 L 22.409577,50.995367 z"
       id="rect5225"
       style="fill:#c77631;fill-opacity:1;fill-rule:evenodd;stroke:#c77631;stroke-width:0.91382182;stroke-miterlimit:8.69999981;stroke-opacity:1" />
    <path
       d="M 49.707207,94.888123 L 58.718075,94.888123 L 58.718075,102.4933 L 49.707207,102.4933 L 49.707207,94.888123 z"
       id="rect5227"
       style="fill:#c77631;fill-opacity:1;fill-rule:evenodd;stroke:#c77631;stroke-width:0.91382182;stroke-miterlimit:8.69999981;stroke-opacity:1" />
  </g>
  <g
     id="layer13"
     style="display:inline">
    <path
       d="M 22.939624,65.771144 L 31.155416,65.771144 L 31.155416,72.724451 L 22.939624,72.724451 L 22.939624,65.771144 z"
       id="rect5230"
       style="fill:#cb7c39;fill-opacity:1;fill-rule:evenodd;stroke:#cb7c39;stroke-width:0.91382182;stroke-miterlimit:8.69999981;stroke-opacity:1" />
  </g>
  <g
     id="layer14"
     style="display:inline">
    <path
       d="M 22.674594,73.376313 L 31.950496,73.376313 L 31.950496,80.112333 L 22.674594,80.112333 L 22.674594,73.376313 z"
       id="rect5233"
       style="fill:#d28a4a;fill-opacity:1;fill-rule:evenodd;stroke:#d28a4a;stroke-width:0.91382182;stroke-miterlimit:8.69999981;stroke-opacity:1" />
    <path
       d="M 31.950489,95.105403 L 48.912128,95.105403 L 48.912128,102.4933 L 31.950489,102.4933 L 31.950489,95.105403 z"
       id="rect5235"
       style="fill:#d28a4a;fill-opacity:1;fill-rule:evenodd;stroke:#d28a4a;stroke-width:0.91382182;stroke-miterlimit:8.69999981;stroke-opacity:1" />
    <path
       d="M 49.972231,87.500203 L 58.9831,87.500203 L 58.9831,94.670803 L 49.972231,94.670803 L 49.972231,87.500203 z"
       id="rect5237"
       style="fill:#d28a4a;fill-opacity:1;fill-rule:evenodd;stroke:#d28a4a;stroke-width:0.91382182;stroke-miterlimit:8.69999981;stroke-opacity:1" />
  </g>
  <g
     id="layer15"
     style="display:inline">
    <path
       d="M 23.204653,80.764203 L 32.215523,80.764203 L 32.215523,87.717513 L 23.204653,87.717513 L 23.204653,80.764203 z"
       id="rect5240"
       style="fill:#dfaa6e;fill-opacity:1;fill-rule:evenodd;stroke:#dfaa6e;stroke-width:0.91382182;stroke-miterlimit:8.69999981;stroke-opacity:1" />
    <path
       d="M 41.491413,80.546903 L 49.442181,80.546903 L 49.442181,87.282913 L 41.491413,87.282913 L 41.491413,80.546903 z"
       id="rect5242"
       style="fill:#dfaa6e;fill-opacity:1;fill-rule:evenodd;stroke:#dfaa6e;stroke-width:0.91382182;stroke-miterlimit:8.69999981;stroke-opacity:1" />
    <path
       d="M 32.215518,87.717493 L 49.177158,87.717493 L 49.177158,94.670803 L 32.215518,94.670803 L 32.215518,87.717493 z"
       id="rect5244"
       style="fill:#dfaa6e;fill-opacity:1;fill-rule:evenodd;stroke:#dfaa6e;stroke-width:0.91382182;stroke-miterlimit:8.69999981;stroke-opacity:1" />
    <path
       d="M 41.226389,42.955605 L 49.972231,42.955605 L 49.972231,50.343494 L 41.226389,50.343494 L 41.226389,42.955605 z"
       id="rect5246"
       style="fill:#dfaa6e;fill-opacity:1;fill-rule:evenodd;stroke:#dfaa6e;stroke-width:0.91382182;stroke-miterlimit:8.69999981;stroke-opacity:1" />
    <path
       d="M 76.474792,28.397117 L 86.280742,28.397117 L 86.280742,35.785005 L 76.474792,35.785005 L 76.474792,28.397117 z"
       id="rect5248"
       style="fill:#dfaa6e;fill-opacity:1;fill-rule:evenodd;stroke:#dfaa6e;stroke-width:0.91382182;stroke-miterlimit:8.69999981;stroke-opacity:1" />
    <path
       d="M 58.453055,35.567712 L 68.259002,35.567712 L 68.259002,43.390179 L 58.453055,43.390179 L 58.453055,35.567712 z"
       id="rect5250"
       style="fill:#dfaa6e;fill-opacity:1;fill-rule:evenodd;stroke:#dfaa6e;stroke-width:0.91382182;stroke-miterlimit:8.69999981;stroke-opacity:1" />
  </g>
  <g
     id="layer16"
     style="display:inline">
    <path
       d="M 22.939624,87.934783 L 31.685469,87.934783 L 31.685469,94.670803 L 22.939624,94.670803 L 22.939624,87.934783 z"
       id="rect5254"
       style="fill:#d99a5c;fill-opacity:1;fill-rule:evenodd;stroke:#d99a5c;stroke-width:0.91382182;stroke-miterlimit:8.69999981;stroke-opacity:1" />
    <path
       d="M 32.122164,73.734353 L 49.535515,73.734353 L 49.535515,79.971563 L 32.122164,79.971563 L 32.122164,73.734353 z"
       id="rect5256"
       style="fill:#d99a5c;fill-opacity:1;fill-rule:evenodd;stroke:#d99a5c;stroke-width:1.22472548;stroke-miterlimit:8.69999981;stroke-opacity:1" />
    <path
       d="M 49.442181,80.546903 L 58.453051,80.546903 L 58.453051,87.065623 L 49.442181,87.065623 L 49.442181,80.546903 z"
       id="rect5258"
       style="fill:#d99a5c;fill-opacity:1;fill-rule:evenodd;stroke:#d99a5c;stroke-width:0.91382182;stroke-miterlimit:8.69999981;stroke-opacity:1" />
  </g>
  <g
     id="layer17"
     style="display:inline">
    <path
       d="M 22.409577,95.105403 L 31.420445,95.105403 L 31.420445,102.27599 L 22.409577,102.27599 L 22.409577,95.105403 z"
       id="rect5260"
       style="fill:#a85e25;fill-opacity:1;fill-rule:evenodd;stroke:#a85e25;stroke-width:0.91382182;stroke-miterlimit:8.69999981;stroke-opacity:1" />
    <path
       d="M 68.719622,88.095163 L 76.544212,88.095163 L 76.544212,102.55018 L 68.719622,102.55018 L 68.719622,88.095163 z"
       id="rect5262"
       style="fill:#a85e25;fill-opacity:1;fill-rule:evenodd;stroke:#a85e25;stroke-width:1.26805162;stroke-miterlimit:8.69999981;stroke-opacity:1" />
    <path
       d="M 40.696336,50.995367 L 49.97224,50.995367 L 49.97224,57.948673 L 40.696336,57.948673 L 40.696336,50.995367 z"
       id="rect5264"
       style="fill:#a85e25;fill-opacity:1;fill-rule:evenodd;stroke:#a85e25;stroke-width:0.91382182;stroke-miterlimit:8.69999981;stroke-opacity:1" />
  </g>
  <g
     id="layer18"
     style="display:inline">
    <path
       d="M 32.215518,43.607475 L 40.96136,43.607475 L 40.96136,50.1262 L 32.215518,50.1262 L 32.215518,43.607475 z"
       id="rect5267"
       style="fill:#ce8240;fill-opacity:1;fill-rule:evenodd;stroke:#ce8240;stroke-width:0.91382182;stroke-miterlimit:8.69999981;stroke-opacity:1" />
  </g>
  <g
     id="layer19"
     style="display:inline">
    <path
       d="M 32.215518,80.764203 L 40.96136,80.764203 L 40.96136,87.717513 L 32.215518,87.717513 L 32.215518,80.764203 z"
       id="rect5270"
       style="fill:#f2dcaf;fill-opacity:1;fill-rule:evenodd;stroke:#f2dcaf;stroke-width:0.91382182;stroke-miterlimit:8.69999981;stroke-opacity:1" />
    <path
       d="M 50.237258,35.785003 L 58.453051,35.785003 L 58.453051,43.172893 L 50.237258,43.172893 L 50.237258,35.785003 z"
       id="rect5272"
       style="fill:#f2dcaf;fill-opacity:1;fill-rule:evenodd;stroke:#f2dcaf;stroke-width:0.91382182;stroke-miterlimit:8.69999981;stroke-opacity:1" />
    <path
       d="M 58.718079,28.614406 L 67.993972,28.614406 L 67.993972,34.91584 L 58.718079,34.91584 L 58.718079,28.614406 z"
       id="rect5274"
       style="fill:#f2dcaf;fill-opacity:1;fill-rule:evenodd;stroke:#f2dcaf;stroke-width:0.91382182;stroke-miterlimit:8.69999981;stroke-opacity:1" />
  </g>
  <g
     id="layer20"
     style="display:inline">
    <path
       d="M 67.728952,28.614406 L 77.534902,28.614406 L 77.534902,35.785003 L 67.728952,35.785003 L 67.728952,28.614406 z"
       id="rect5281"
       style="fill:#e9c38f;fill-opacity:1;fill-rule:evenodd;stroke:#e9c38f;stroke-width:0.91382182;stroke-miterlimit:8.69999981;stroke-opacity:1" />
  </g>
  <g
     id="layer21"
     style="display:inline">
    <path
       d="M 86.545762,28.179826 L 95.026582,28.179826 L 95.026582,36.002295 L 86.545762,36.002295 L 86.545762,28.179826 z"
       id="rect5284"
       style="fill:#ce8240;fill-opacity:1;fill-rule:evenodd;stroke:#ce8240;stroke-width:0.91382182;stroke-miterlimit:8.69999981;stroke-opacity:1" />
  </g>
  <g
     id="layer22"
     style="display:inline">
    <path
       d="M 67.728952,36.436876 L 76.739822,36.436876 L 76.739822,43.607475 L 67.728952,43.607475 L 67.728952,36.436876 z"
       id="rect5287"
       style="fill:#d69455;fill-opacity:1;fill-rule:evenodd;stroke:#d69455;stroke-width:0.91382182;stroke-miterlimit:8.69999981;stroke-opacity:1" />
    <path
       d="M 49.972231,43.824766 L 58.9831,43.824766 L 58.9831,50.1262 L 49.972231,50.1262 L 49.972231,43.824766 z"
       id="rect5289"
       style="fill:#d69455;fill-opacity:1;fill-rule:evenodd;stroke:#d69455;stroke-width:0.91382182;stroke-miterlimit:8.69999981;stroke-opacity:1" />
  </g>
  <g
     id="layer23"
     style="display:inline">
    <path
       d="M 60.043202,44.042064 L 67.728942,44.042064 L 67.728942,50.343494 L 60.043202,50.343494 L 60.043202,44.042064 z"
       id="rect5292"
       style="fill:#954f1d;fill-opacity:1;fill-rule:evenodd;stroke:#954f1d;stroke-width:0.91382182;stroke-miterlimit:8.69999981;stroke-opacity:1" />
  </g>
  <g
     id="layer24"
     style="display:inline">
    <path
       d="M 49.972231,50.778076 L 58.9831,50.778076 L 58.9831,57.94867 L 49.972231,57.94867 L 49.972231,50.778076 z"
       id="rect5295"
       style="fill:#86451b;fill-opacity:1;fill-rule:evenodd;stroke:#86451b;stroke-width:0.91382182;stroke-miterlimit:8.69999981;stroke-opacity:1" />
  </g>
  <g
     id="layer25"
     style="display:inline">
    <path
       d="M 40.696336,65.771144 L 49.707204,65.771144 L 49.707204,73.159033 L 40.696336,73.159033 L 40.696336,65.771144 z"
       id="rect5298"
       style="fill:#dfae85;fill-opacity:1;fill-rule:evenodd;stroke:#dfae85;stroke-width:0.91382182;stroke-miterlimit:8.69999981;stroke-opacity:1" />
    <path
       d="M 49.972231,58.817833 L 58.718075,58.817833 L 58.718075,65.119268 L 49.972231,65.119268 L 49.972231,58.817833 z"
       id="rect5300"
       style="fill:#dfae85;fill-opacity:1;fill-rule:evenodd;stroke:#dfae85;stroke-width:0.91382182;stroke-miterlimit:8.69999981;stroke-opacity:1" />
  </g>
  <g
     id="layer26"
     style="display:inline">
    <path
       d="M 50.008357,72.754054 L 58.946983,72.754054 L 58.946983,80.300003 L 50.008357,80.300003 L 50.008357,72.754054 z"
       id="rect5303"
       style="fill:#ebebea;fill-opacity:1;fill-rule:evenodd;stroke:#ebebea;stroke-width:0.97923964;stroke-miterlimit:8.69999981;stroke-opacity:1" />
    <path
       d="M 85.750692,94.670823 L 113.04832,94.670823 L 113.04832,101.84141 L 85.750692,101.84141 L 85.750692,94.670823 z"
       id="rect5305"
       style="fill:#ebebea;fill-opacity:1;fill-rule:evenodd;stroke:#ebebea;stroke-width:0.91382182;stroke-miterlimit:8.69999981;stroke-opacity:1" />
    <path
       d="M 104.03746,87.500203 L 113.04832,87.500203 L 113.04832,95.105383 L 104.03746,95.105383 L 104.03746,87.500203 z"
       id="rect5307"
       style="fill:#ebebea;fill-opacity:1;fill-rule:evenodd;stroke:#ebebea;stroke-width:0.91382182;stroke-miterlimit:8.69999981;stroke-opacity:1" />
  </g>
  <g
     id="layer27"
     style="display:inline">
    <path
       d="M 59.248129,58.383248 L 67.728952,58.383248 L 67.728952,65.336555 L 59.248129,65.336555 L 59.248129,58.383248 z"
       id="rect5310"
       style="fill:#b47b50;fill-opacity:1;fill-rule:evenodd;stroke:#b47b50;stroke-width:0.91382182;stroke-miterlimit:8.69999981;stroke-opacity:1" />
  </g>
  <g
     id="layer28"
     style="display:inline">
    <path
       d="M 58.983104,80.329623 L 67.728952,80.329623 L 67.728952,94.888103 L 58.983104,94.888103 L 58.983104,80.329623 z"
       id="rect5313"
       style="fill:#b4682c;fill-opacity:1;fill-rule:evenodd;stroke:#b4682c;stroke-width:0.91382182;stroke-miterlimit:8.69999981;stroke-opacity:1" />
  </g>
  <g
     id="layer29"
     style="display:inline">
    <path
       d="M 59.400806,73.401843 L 67.596712,73.401843 L 67.596712,79.917383 L 59.400806,79.917383 L 59.400806,73.401843 z"
       id="rect5316"
       style="fill:#414041;fill-opacity:1;fill-rule:evenodd;stroke:#414041;stroke-width:0.91249251;stroke-miterlimit:8.69999981;stroke-opacity:1" />
    <path
       d="M 85.848322,65.317265 L 112.79729,65.317265 L 112.79729,72.525629 L 85.848322,72.525629 L 85.848322,65.317265 z"
       id="rect5320"
       style="fill:#414041;fill-opacity:1;fill-rule:evenodd;stroke:#414041;stroke-width:0.92899066;stroke-miterlimit:8.69999981;stroke-opacity:1" />
    <path
       d="M 113.86393,72.75029 L 122.05984,72.75029 L 122.05984,102.93898 L 113.86393,102.93898 L 113.86393,72.75029 z"
       id="rect5322"
       style="fill:#414041;fill-opacity:1;fill-rule:evenodd;stroke:#414041;stroke-width:0.91249251;stroke-miterlimit:8.69999981;stroke-opacity:1" />
    <path
       d="M 103.28857,102.07023 L 113.33517,102.07023 L 113.33517,109.6717 L 103.28857,109.6717 L 103.28857,102.07023 z"
       id="rect5324"
       style="fill:#414041;fill-opacity:1;fill-rule:evenodd;stroke:#414041;stroke-width:0.91249251;stroke-miterlimit:8.69999981;stroke-opacity:1" />
    <path
       d="M 68.661572,110.11208 L 103.54563,110.11208 L 103.54563,117.26868 L 68.661572,117.26868 L 68.661572,110.11208 z"
       id="rect5326"
       style="fill:#414041;fill-opacity:1;fill-rule:evenodd;stroke:#414041;stroke-width:0.9257676;stroke-miterlimit:8.69999981;stroke-opacity:1" />
    <path
       d="M 122.01276,28.343441 C 117.73153,29.46205 114.05228,31.272979 113.0237,36.132341 C 107.78173,37.141793 104.39383,39.439991 103.41895,43.415471 C 97.116922,45.301608 88.007482,43.23424 85.810242,50.900906 C 66.245092,52.87002 74.473492,57.824466 86.302792,58.184036"
       id="path5428"
       style="fill:none;fill-rule:evenodd;stroke:#242909;stroke-width:0.08147255px;stroke-linecap:butt;stroke-linejoin:miter;stroke-opacity:1" />
    <path
       d="M 67.955262,58.184036 L 76.944322,58.285188"
       id="path5430"
       style="fill:none;fill-rule:evenodd;stroke:#642909;stroke-width:0.08147255px;stroke-linecap:butt;stroke-linejoin:miter;stroke-opacity:1" />
    <path
       d="M 68.713662,58.09143 L 68.190322,58.052712 L 68.190322,54.568696 L 68.190322,51.084679 L 75.356952,51.084679 C 79.298592,51.084679 84.545322,51.691054 84.480982,51.737924 C 84.416642,51.784799 81.652362,51.360209 80.873512,51.488644 C 79.166072,51.770216 76.894972,52.360562 75.846322,52.795411 C 74.468042,53.366959 73.800602,54.132484 74.028942,54.879863 C 74.378402,56.02365 77.566652,57.274397 81.589612,57.84591 C 82.355962,57.954781 83.016282,58.071225 83.057002,58.104677 C 83.135832,58.169424 69.598852,58.156927 68.713662,58.091433 L 68.713662,58.09143 z"
       id="path5432"
       style="opacity:1;fill:#642909;fill-opacity:1;fill-rule:evenodd;stroke:#642909;stroke-width:1.24998963;stroke-miterlimit:8.69999981;stroke-dasharray:none;stroke-opacity:1" />
    <path
       d="M 85.922152,46.487205 L 85.922142,43.376702 L 94.314342,43.403393 C 98.930062,43.418071 101.27156,43.685846 101.23436,43.716412 C 101.01538,43.896296 100.21572,43.998509 96.327312,44.439092 C 95.311432,44.554195 93.909222,44.76027 93.211302,44.897029 C 89.791782,45.567113 87.696962,46.8534 86.503142,49.016069 C 86.326552,49.335971 86.123592,49.597708 86.052122,49.597708 C 85.963762,49.597708 85.922172,48.602138 85.922152,46.487205 L 85.922152,46.487205 z"
       id="path5434"
       style="opacity:1;fill:#642909;fill-opacity:1;fill-rule:evenodd;stroke:#642909;stroke-width:1.24998963;stroke-miterlimit:8.69999981;stroke-dasharray:none;stroke-opacity:1" />
    <path
       d="M 113.13562,31.491043 L 113.13562,28.456405 L 117.09656,28.456405 C 119.27507,28.456405 120.56622,28.62735 120.538,28.648257 C 120.50978,28.669164 120.48387,28.701243 119.9082,28.907569 C 116.98937,29.953715 115.18887,31.290601 114.02377,33.276828 C 113.75766,33.730476 113.50957,34.197053 113.47245,34.313662 C 113.43533,34.430272 113.34435,34.52568 113.27029,34.52568 C 113.17581,34.52568 113.13562,33.619885 113.13562,31.491043 z"
       id="path5436"
       style="opacity:1;fill:#642909;fill-opacity:1;fill-rule:evenodd;stroke:#642909;stroke-width:1.24998963;stroke-miterlimit:8.69999981;stroke-dasharray:none;stroke-opacity:1" />
    <path
       d="M 68.322722,117.40761 C 62.020252,117.99182 60.361175,121.21677 58.905614,124.55747"
       id="path5505"
       style="fill:#523526;fill-opacity:1;fill-rule:evenodd;stroke:#000000;stroke-width:0.08147255px;stroke-linecap:butt;stroke-linejoin:miter;stroke-opacity:1" />
    <path
       d="M 59.246954,116.48617 L 59.246954,109.98097 L 63.170752,109.98097 C 66.563452,109.98097 67.094542,110.00476 67.094542,110.15678 C 67.094542,110.27958 67.245162,110.3326 67.593942,110.3326 L 68.093332,110.3326 L 68.093332,113.83367 L 68.093332,117.33475 L 67.201562,117.4709 C 63.938792,117.96903 61.691228,119.3823 60.146439,121.90717 C 59.781599,122.50348 59.429963,122.99137 59.365024,122.99137 C 59.300093,122.99137 59.246954,120.06403 59.246954,116.48617 z"
       id="path5507"
       style="opacity:1;fill:#523526;fill-opacity:1;fill-rule:evenodd;stroke:#523526;stroke-width:1.44840074;stroke-miterlimit:8.69999981;stroke-dasharray:none;stroke-opacity:1" />
  </g>
  <g
     id="layer30"
     style="display:inline">
    <path
       d="M 68.259002,57.94867 L 77.269872,57.94867 L 77.269872,65.553849 L 68.259002,65.553849 L 68.259002,57.94867 z"
       id="rect5329"
       style="fill:#804017;fill-opacity:1;fill-rule:evenodd;stroke:#804017;stroke-width:0.91382182;stroke-miterlimit:8.69999981;stroke-opacity:1" />
  </g>
  <g
     id="layer31"
     style="display:inline">
    <path
       d="M 67.463912,65.771144 L 77.004832,65.771144 L 77.004832,73.159033 L 67.463912,73.159033 L 67.463912,65.771144 z"
       id="rect5332"
       style="fill:#936a48;fill-opacity:1;fill-rule:evenodd;stroke:#936a48;stroke-width:0.91382182;stroke-miterlimit:8.69999981;stroke-opacity:1" />
  </g>
  <g
     id="layer32"
     style="display:inline">
    <path
       d="M 67.993972,73.810883 L 77.534902,73.810883 L 77.534902,87.717503 L 67.993972,87.717503 L 67.993972,73.810883 z"
       id="rect5341"
       style="fill:#c27739;fill-opacity:1;fill-rule:evenodd;stroke:#c27739;stroke-width:0.91382182;stroke-miterlimit:8.69999981;stroke-opacity:1" />
  </g>
  <g
     id="layer33"
     style="display:inline">
    <path
       d="M 67.728952,103.36245 L 76.474792,103.36245 L 76.474792,109.88117 L 67.728952,109.88117 L 67.728952,103.36245 z"
       id="rect5344"
       style="fill:#727476;fill-opacity:1;fill-rule:evenodd;stroke:#727476;stroke-width:0.91382182;stroke-miterlimit:8.69999981;stroke-opacity:1" />
    <path
       d="M 86.015712,80.764203 L 95.026582,80.764203 L 95.026582,87.500223 L 86.015712,87.500223 L 86.015712,80.764203 z"
       id="rect5346"
       style="fill:#727476;fill-opacity:1;fill-rule:evenodd;stroke:#727476;stroke-width:0.91382182;stroke-miterlimit:8.69999981;stroke-opacity:1" />
  </g>
  <g
     id="layer34"
     style="display:inline">
    <path
       d="M 77.562952,64.924974 L 85.457612,64.924974 L 85.457612,72.484149 L 77.562952,72.484149 L 77.562952,64.924974 z"
       id="rect5349"
       style="fill:#a7602a;fill-opacity:1;fill-rule:evenodd;stroke:#a7602a;stroke-width:0.96462673;stroke-miterlimit:8.69999981;stroke-opacity:1" />
  </g>
  <g
     id="layer35"
     style="display:inline">
    <path
       d="M 77.004842,72.941727 L 85.750682,72.941727 L 85.750682,80.329613 L 77.004842,80.329613 L 77.004842,72.941727 z"
       id="rect5352"
       style="fill:#cc914e;fill-opacity:1;fill-rule:evenodd;stroke:#cc914e;stroke-width:0.91382182;stroke-miterlimit:8.69999981;stroke-opacity:1" />
  </g>
  <g
     id="layer36"
     style="display:inline">
    <path
       d="M 77.534902,80.329623 L 85.750692,80.329623 L 85.750692,88.152083 L 77.534902,88.152083 L 77.534902,80.329623 z"
       id="rect5355"
       style="fill:#c18c57;fill-opacity:1;fill-rule:evenodd;stroke:#c18c57;stroke-width:0.91382182;stroke-miterlimit:8.69999981;stroke-opacity:1" />
  </g>
  <g
     id="layer37"
     style="display:inline">
    <path
       d="M 77.004842,88.803973 L 85.485652,88.803973 L 85.485652,94.888103 L 77.004842,94.888103 L 77.004842,88.803973 z"
       id="rect5358"
       style="fill:#c1a080;fill-opacity:1;fill-rule:evenodd;stroke:#c1a080;stroke-width:0.91382182;stroke-miterlimit:8.69999981;stroke-opacity:1" />
  </g>
  <g
     id="layer38"
     style="display:inline">
    <path
       d="M 85.750692,88.152083 L 95.291612,88.152083 L 95.291612,95.105383 L 85.750692,95.105383 L 85.750692,88.152083 z"
       id="rect5361"
       style="fill:#c5c5c1;fill-opacity:1;fill-rule:evenodd;stroke:#c5c5c1;stroke-width:0.91382182;stroke-miterlimit:8.69999981;stroke-opacity:1" />
    <path
       d="M 104.56752,72.941727 L 113.04833,72.941727 L 113.04833,80.329613 L 104.56752,80.329613 L 104.56752,72.941727 z"
       id="rect5363"
       style="fill:#c5c5c1;fill-opacity:1;fill-rule:evenodd;stroke:#c5c5c1;stroke-width:0.91382182;stroke-miterlimit:8.69999981;stroke-opacity:1" />
  </g>
  <g
     id="layer39"
     style="display:inline">
    <path
       d="M 85.750692,73.159023 L 94.761552,73.159023 L 94.761552,80.329623 L 85.750692,80.329623 L 85.750692,73.159023 z"
       id="rect5366"
       style="fill:#e6d2ba;fill-opacity:1;fill-rule:evenodd;stroke:#e6d2ba;stroke-width:0.91382182;stroke-miterlimit:8.69999981;stroke-opacity:1" />
  </g>
  <g
     id="layer40"
     style="display:inline">
    <path
       d="M 77.004842,95.539983 L 85.750682,95.539983 L 85.750682,102.71057 L 77.004842,102.71057 L 77.004842,95.539983 z"
       id="rect5369"
       style="fill:#c5b39f;fill-opacity:1;fill-rule:evenodd;stroke:#c5b39f;stroke-width:0.91382182;stroke-miterlimit:8.69999981;stroke-opacity:1" />
  </g>
  <g
     id="layer41"
     style="display:inline">
    <path
       d="M 77.004842,103.57975 L 85.750682,103.57975 L 85.750682,109.66389 L 77.004842,109.66389 L 77.004842,103.57975 z"
       id="rect5374"
       style="fill:#a0a09e;fill-opacity:1;fill-rule:evenodd;stroke:#a0a09e;stroke-width:0.91382182;stroke-miterlimit:8.69999981;stroke-opacity:1" />
  </g>
  <g
     id="layer42"
     style="display:inline">
    <path
       d="M 86.280742,102.49327 L 94.761572,102.49327 L 94.761572,109.44659 L 86.280742,109.44659 L 86.280742,102.49327 z"
       id="rect5377"
       style="fill:#aaaaa6;fill-opacity:1;fill-rule:evenodd;stroke:#aaaaa6;stroke-width:0.91382182;stroke-miterlimit:8.69999981;stroke-opacity:1" />
  </g>
  <g
     id="layer43"
     style="display:inline">
    <path
       d="M 94.292382,102.54319 L 102.38643,102.54319 L 102.38643,110.04856 L 94.292382,110.04856 L 94.292382,102.54319 z"
       id="rect5380"
       style="fill:#a4a5a2;fill-opacity:1;fill-rule:evenodd;stroke:#a4a5a2;stroke-width:1.02406108;stroke-miterlimit:8.69999981;stroke-opacity:1" />
  </g>
  <g
     id="layer44"
     style="display:inline">
    <path
       d="M 95.556632,80.546903 L 104.03745,80.546903 L 104.03745,87.717503 L 95.556632,87.717503 L 95.556632,80.546903 z"
       id="rect5383"
       style="fill:#171614;fill-opacity:1;fill-rule:evenodd;stroke:#171614;stroke-width:0.91382182;stroke-miterlimit:8.69999981;stroke-opacity:1" />
  </g>
  <g
     id="layer45"
     style="display:inline">
    <path
       d="M 95.556632,88.152083 L 103.24237,88.152083 L 103.24237,94.453513 L 95.556632,94.453513 L 95.556632,88.152083 z"
       id="rect5386"
       style="fill:#a0a09e;fill-opacity:1;fill-rule:evenodd;stroke:#a0a09e;stroke-width:0.91382182;stroke-miterlimit:8.69999981;stroke-opacity:1" />
  </g>
</svg>
