/* XPM */
static char *client3_ICO[] = {
/* columns rows colors chars-per-pixel */
"16 16 26 1",
"  c black",
". c #555555",
"X c gray35",
"o c gray37",
"O c #626262",
"+ c gray40",
"@ c DimGray",
"# c #717171",
"$ c #797979",
"% c #7E7E7E",
"& c gray52",
"* c gray54",
"= c #8D8D8D",
"- c gray57",
"; c gray60",
": c gray62",
"> c #A5A4A3",
", c gray65",
"< c #A9A8A8",
"1 c #B2B1B2",
"2 c #B9B8B9",
"3 c #D5D5D5",
"4 c gray87",
"5 c gray91",
"6 c #F4F3F4",
"7 c None",
/* pixels */
"7777777777777777",
"777777....777777",
"7777..5665..7777",
"777.34334344.777",
"77.=21121112:.77",
"77.%-  --  -&.77",
"7.XO%  %%  %@X.7",
"7.X@##%#%#$#+o.7",
"7.O#&&&&&&&%#@.7",
"7.#&=-::;;--%#.7",
"77.&:      -&.77",
"77.= :<11,: %.77",
"777.-><1<<;*.777",
"7777..><>:..7777",
"777777....777777",
"7777777777777777"
};
