/* XPM */
static char *down.bmp[] = {
/* columns rows colors chars-per-pixel */
"14 14 3 1",
"  c #808080",
". c #c0c0c0",
"X c white",
/* pixels */
"..............",
"..............",
"..............",
"..............",
"...        ...",
"...  ....XX...",
".... ....X....",
"....  ..XX....",
"..... ..X.....",
".....  XX.....",
"...... X......",
"..............",
"..............",
".............."
};
