/* XPM */
static char *friends1.ICO[] = {
/* columns rows colors chars-per-pixel */
"16 16 187 2",
"   c black",
".  c #3B0400",
"X  c #3F0000",
"o  c #3E1F1A",
"O  c #36251E",
"+  c gray15",
"@  c #272727",
"#  c #252628",
"$  c #27262B",
"%  c #252A26",
"&  c #262827",
"*  c #262B25",
"=  c #2D232B",
"-  c #29282D",
";  c #292A2C",
":  c #282C2F",
">  c #2D2D2B",
",  c #2D2D2D",
"<  c #2C2C2E",
"1  c #22322F",
"2  c #2E3025",
"3  c #273132",
"4  c #2A3030",
"5  c #36252B",
"6  c #302923",
"7  c #312D2C",
"8  c #332D2F",
"9  c #372928",
"0  c #352B2C",
"q  c #342633",
"w  c #332D31",
"e  c #332C33",
"r  c #363034",
"t  c #373737",
"y  c #323834",
"u  c #363837",
"i  c #373938",
"p  c #3A333B",
"a  c #3B3C36",
"s  c gray22",
"d  c #3A3A3A",
"f  c gray23",
"g  c #3C3A3F",
"h  c #3E3D3B",
"j  c gray24",
"k  c #3E3E3E",
"l  c #3C3944",
"z  c #3E4744",
"x  c #3E4648",
"c  c #3E4943",
"v  c #3D4949",
"b  c #3D4C49",
"n  c #410A03",
"m  c #430A01",
"M  c #490000",
"N  c #4F0000",
"B  c #4D0008",
"V  c #570200",
"C  c #560008",
"Z  c #5A0000",
"A  c #521014",
"S  c #5D1610",
"D  c #443F3B",
"F  c #650000",
"G  c #6C0A0B",
"H  c #661814",
"J  c #710000",
"K  c #453F59",
"L  c #4C453F",
"P  c #5A463D",
"I  c #6B443F",
"U  c gray25",
"Y  c gray26",
"T  c #474641",
"R  c gray27",
"E  c #464646",
"W  c #43474A",
"Q  c #474B4C",
"!  c #474C48",
"~  c #494041",
"^  c #4C474B",
"/  c #494949",
"(  c #4C4C4C",
")  c #4E4E4E",
"_  c #4E504F",
"`  c #4E534C",
"'  c #4D5150",
"]  c #4D5353",
"[  c gray32",
"{  c #5B5B5D",
"}  c #5F5E5C",
"|  c #5C6260",
" . c #5F6362",
".. c #615B5D",
"X. c #675D5E",
"o. c #6A555A",
"O. c #6A5F5D",
"+. c gray38",
"@. c #656565",
"#. c #686868",
"$. c #6D6B6E",
"%. c gray43",
"&. c #686E7A",
"*. c #6B7278",
"=. c #76676A",
"-. c #706C69",
";. c gray45",
":. c gray46",
">. c #747476",
",. c #777576",
"<. c #767676",
"1. c #777777",
"2. c #737977",
"3. c #767877",
"4. c #787775",
"5. c #7C7376",
"6. c #797A74",
"7. c #7E7F81",
"8. c #7D888A",
"9. c #9F1F20",
"0. c #A91B2B",
"q. c #B23233",
"w. c #857276",
"e. c #857C77",
"r. c #957371",
"t. c #C31934",
"y. c #D31D34",
"u. c #D22D3E",
"i. c #E3585D",
"p. c #E9535E",
"a. c #EB5851",
"s. c #FF5A64",
"d. c #FF6557",
"f. c #EB6D70",
"g. c #EC7571",
"h. c #FF7269",
"j. c #F07973",
"k. c #9E7F84",
"l. c #FF7782",
"z. c #FF778D",
"x. c #A2867A",
"c. c #ED817F",
"v. c gray51",
"b. c #808684",
"n. c #858482",
"m. c gray52",
"M. c #848587",
"N. c #868B8E",
"B. c #898481",
"V. c #8C8688",
"C. c #898989",
"Z. c #89898B",
"A. c #8A8A8C",
"S. c #86959C",
"D. c #939395",
"F. c gray59",
"G. c #959E9D",
"H. c #9C9994",
"J. c gray61",
"K. c #9C9E9D",
"L. c #93A494",
"P. c #9BA398",
"I. c #92A2A1",
"U. c #99A4A8",
"Y. c #99AAA0",
"T. c #9EA8A9",
"R. c #A58B8A",
"E. c #A09695",
"W. c #A09F9D",
"Q. c #A39D9F",
"!. c gray65",
"~. c #A8AEAC",
"^. c gray69",
"/. c #B6B6B6",
"(. c #B8B6B7",
"). c #B8C4B8",
"_. c #BBC1C1",
"`. c #DACFCD",
"'. c gray85",
"]. c #FFF8CD",
"[. c #EBF6F2",
"{. c #F3E5E2",
"}. c #F6EDEE",
"|. c #FFF2E6",
" X c #F0FFF8",
".X c #F7FFFA",
"XX c None",
/* pixels */
"XXXXXXXXXXK l a 2 XXXXXXXXXXXXXX",
"XXXXXXXXh *.Z.-.T y XXXXXXXXXXXX",
"XXXXXXD 3. X).H.=.^ 3 XXXXXXXXXX",
"XXXXXXL M.`.P.L.6.X.e XXXXXXXXXX",
"XXXXXXs %.I.G.V.w.o.5 e $ XXXXXX",
"XXXXXX@ ) %.;.3. .] @ g p r XXXX",
"XXXX/ s @ ~ ..| b 1 v x W - XXXX",
"XXU [ E s * * & ; Q ] z c 4 XXXX",
"j !.^.@.+.` / ] { ..O.o I 6 XXXX",
"E '.F.#.:.E.m.2.8.e.^ S V . XXXX",
"j /.v.( C.}.(.K.x.w.H j.a.q.N XX",
"U J.:.t m.[.~.Q.k.A j.h.d.s.9.n ",
"g D.7.: N.{.P.Y.x.J g.|..X].u.F ",
"j 6.>.< Z._.U.8.R.G i.l.z.f.0.B ",
"u :.,.w 5.!.S.&.= O V p.y.t.X XX",
"s , 7 XX0 9 7 q XXXXXXm M C XXXX"
};
