/* XPM */
static char *hdd_xpm[] = {
/* columns rows colors chars-per-pixel */
"16 16 154 2",
"   c black",
".  c #000007",
"X  c #00000A",
"o  c #000020",
"O  c #000022",
"+  c #00002A",
"@  c #00002C",
"#  c #00002E",
"$  c #000031",
"%  c #010031",
"&  c #000039",
"*  c #1B1B44",
"=  c #353559",
"-  c #635E74",
";  c #646478",
":  c #68687F",
">  c #5C5C80",
",  c #626287",
"<  c #737381",
"1  c #737388",
"2  c #7A7A98",
"3  c #7C7C9A",
"4  c #7E7E9B",
"5  c #0C9D00",
"6  c #0E9C00",
"7  c #0E9E00",
"8  c #179F1D",
"9  c #00AD00",
"0  c #00B400",
"q  c #00B800",
"w  c #00BD00",
"e  c #00BE00",
"r  c #0DB700",
"t  c #2ABF00",
"y  c #5EE960",
"u  c #81FF00",
"i  c #838396",
"p  c #81819E",
"a  c #898996",
"s  c #8C8C9F",
"d  c #91919B",
"f  c #8A8AA5",
"g  c #8B8BA4",
"h  c #8D8DA6",
"j  c #9494A3",
"k  c #9696A3",
"l  c #9797A7",
"z  c #9393AC",
"x  c #9797A9",
"c  c #9797AD",
"v  c #9696AE",
"b  c #9797AE",
"n  c #9B9BA2",
"m  c #9999A8",
"M  c #9D9DA9",
"N  c #9999B0",
"B  c #9D9DB1",
"V  c #9F9FB3",
"C  c #9E9EB4",
"Z  c #A1A1AC",
"A  c #A2A2AD",
"S  c #A0A0B4",
"D  c #A5A5B1",
"F  c #A4A4B3",
"G  c #A4A4BA",
"H  c #A9A9B5",
"J  c #A8A8BC",
"K  c #A9A9BD",
"L  c #AAAABD",
"P  c #ABABBD",
"I  c #B2B1BD",
"U  c #AEAEC0",
"Y  c #AEAEC1",
"T  c #AFAFC0",
"R  c #B0B0C1",
"E  c #B1B1C1",
"W  c #B1B1C2",
"Q  c #B2B2C3",
"!  c #B3B3C2",
"~  c #B3B3C3",
"^  c #B3B3C4",
"/  c #B3B3C5",
"(  c #B5B5C3",
")  c #B5B5C5",
"_  c #B7B7CA",
"`  c #B8B8C7",
"'  c #BABAC7",
"]  c #BBBBCA",
"[  c #BBBBCB",
"{  c #BCBCCC",
"}  c #BEBECC",
"|  c #BFBFCE",
" . c #BFBFCF",
".. c #C0C0CA",
"X. c #C0C0CD",
"o. c #C1C1CE",
"O. c #C3C3CF",
"+. c #C4C4CD",
"@. c #C1C1D0",
"#. c #C4C4D1",
"$. c #C5C5D3",
"%. c #C6C6D0",
"&. c #CAC2D2",
"*. c #C9C6D5",
"=. c #C8C8D5",
"-. c #C9C9D5",
";. c #CCCBD1",
":. c #CDCDD5",
">. c #CFCFD6",
",. c #CECED9",
"<. c #CFDED7",
"1. c #D0CCDC",
"2. c #D4D1D6",
"3. c #D0D0DA",
"4. c #D0D0DB",
"5. c #D1D1DA",
"6. c #D1D1DB",
"7. c #D3D3DD",
"8. c #D2D2DE",
"9. c #D5D3DC",
"0. c #D6D6D8",
"q. c #D4D4DD",
"w. c #D4D4DF",
"e. c #D5D5DE",
"r. c #D7D7DD",
"t. c #DBDBDE",
"y. c #D6D6E1",
"u. c #D9D9E0",
"i. c #D9D9E4",
"p. c #DFDFE4",
"a. c #DEDEE8",
"s. c #DAFADB",
"d. c #E0E0E5",
"f. c #E2E2E7",
"g. c #E1E1E8",
"h. c #E2E2E8",
"j. c #E3E3E9",
"k. c #E2E2EA",
"l. c #E7E7EB",
"z. c #E7E7EC",
"x. c #E7E7EE",
"c. c #E9EBE7",
"v. c #E8E8ED",
"b. c #EFEFF7",
"n. c #F0E7F6",
"m. c #F0F0F3",
"M. c #F0F0F5",
"N. c #F3F3F6",
"B. c #F7F7F9",
"V. c #F9F9FB",
"C. c #F9F9FC",
"Z. c #FFFAFF",
"A. c gray100",
"S. c None",
/* pixels */
"S.S.S.S.S.S.S.S.S.S.S.S.S.S.S.S.",
"S.S.S.S.S.S.S.S.S.S.S.S.S.S.S.S.",
"S.S.S.S.S.S.S.S.8.! S.S.S.S.S.S.",
"S.S.S.S.S.S...M.A.A.H S.S.S.S.S.",
"S.S.S.S.%.l.A.A.A.M.C.M S.S.S.S.",
"S.S.:.d.A.V.N.M.V.r.6.z.Z S.S.S.",
"b.r.M.z.k.d.k.k.#.| | o.y.D S.S.",
"u.A.6.,.6.6.r.Q P T ! T K _ m S.",
"r.c.Z.-._ { / C S S N c [ A.t.S.",
"2.s.y n.@.U v h f f ! p.x.A.0.S.",
"S.&.<.1.4.@.4 2 K | ) -.k.A.n S.",
"S.S.P y.W T @.C p c T i.:.- $ S.",
"S.S.S.Z -.z ! - 4 G ;.: $ S.q e ",
"S.S.S.S.j | K , ( a * S.S.0 7 r ",
"S.S.S.S.S.j ' d = S.S.S.e 7 u t ",
"S.S.S.S.S.S.; o S.S.S.S.9 7 t 8 "
};
