/* XPM */
static char *IRC.ico[] = {
/* columns rows colors chars-per-pixel */
"32 32 192 2",
"   c black",
".  c #171716161414",
"X  c #323237373E3E",
"o  c #3F3F33333030",
"O  c #00002D2D6262",
"+  c #000032326C6C",
"@  c #000035357272",
"#  c #000039397C7C",
"$  c #5A5A2D2D1212",
"%  c #454531312A2A",
"&  c #646429290909",
"*  c #68682B2B0909",
"=  c #6F6F31310D0D",
"-  c #787839391010",
";  c #7C7C4D4D2D2D",
":  c #484849494C4C",
">  c #67675B5B6363",
",  c #68686A6A6D6D",
"<  c #6D6D70707272",
"1  c #00003C3C8383",
"2  c #00003F3F8A8A",
"3  c #000040408B8B",
"4  c #0A0A40408383",
"5  c #010144449999",
"6  c #11114D4D9C9C",
"7  c #181852529C9C",
"8  c #05054E4EB0B0",
"9  c #0D0D5151A5A5",
"0  c #15155858A7A7",
"q  c #18185757B1B1",
"w  c #1B1B6565AEAE",
"e  c #232355558D8D",
"r  c #24245F5F9F9F",
"t  c #343465659B9B",
"y  c #27276B6BB8B8",
"u  c #3F3F6E6EA2A2",
"i  c #06065757C6C6",
"p  c #14146262D2D2",
"a  c #25256C6CD0D0",
"s  c #27277474C4C4",
"d  c #2D2D7070CDCD",
"f  c #2F2F7676D7D7",
"g  c #21217171E8E8",
"h  c #37377F7FE6E6",
"j  c #4D4D7979AFAF",
"k  c #3B3B9595DBDB",
"l  c #2F2F8282F0F0",
"z  c #3A3A8585E8E8",
"x  c #3E3E8989EDED",
"c  c #36368484F1F1",
"v  c #53538484BDBD",
"b  c #64648585AEAE",
"n  c #68688D8DBABA",
"m  c #7B7B9797BABA",
"M  c #41418282C7C7",
"N  c #49499797D8D8",
"B  c #42428989ECEC",
"V  c #43438989F2F2",
"C  c #44449090F2F2",
"Z  c #4E4E9494F2F2",
"A  c #5B5B9D9DF4F4",
"S  c #5454AFAFEDED",
"D  c #5B5BA4A4E1E1",
"F  c #7171A6A6DADA",
"G  c #6363A4A4F6F6",
"H  c #6767A9A9F8F8",
"J  c #6C6CA9A9F7F7",
"K  c #6D6DAAAAF8F8",
"L  c #7979AEAEE9E9",
"P  c #7575B8B8EEEE",
"I  c #7676B1B1F7F7",
"U  c #7777B2B2F9F9",
"Y  c #7575BCBCF3F3",
"T  c #7B7BB4B4F9F9",
"R  c #7F7FBDBDF9F9",
"E  c #7474C2C2FAFA",
"W  c #7E7EC6C6FBFB",
"Q  c #83833F3F1414",
"!  c #B5B500000101",
"~  c #BCBC00000303",
"^  c #868646461A1A",
"/  c #8E8E4B4B1B1B",
"(  c #91914C4C1B1B",
")  c #979751511E1E",
"_  c #9B9B55552222",
"`  c #A5A55C5C2525",
"'  c #A7A760602A2A",
"]  c #AEAE63632727",
"[  c #ADAD62622828",
"{  c #B4B468682C2C",
"}  c #BABA6C6C2C2C",
"|  c #B6B670703838",
" . c #BEBE7D7D3F3F",
".. c #C2C200000000",
"X. c #D9D900000000",
"o. c #FFFF05050404",
"O. c #C6C675753030",
"+. c #C2C277773939",
"@. c #C3C37A7A3131",
"#. c #CACA7B7B3838",
"$. c #FFFF62626262",
"%. c #A0A0A5A50B0B",
"&. c #A5A5AAAA0B0B",
"*. c #A9A9ACAC0B0B",
"=. c #B2B2B2B20000",
"-. c #B6B68B8B6767",
";. c #C6C683833838",
":. c #CDCD81813F3F",
">. c #D4D48C8C3838",
",. c #E4E49C9C3F3F",
"<. c #CECE82824040",
"1. c #CFCF87874A4A",
"2. c #D4D48D8D4E4E",
"3. c #D3D38E8E5252",
"4. c #D8D89C9C4747",
"5. c #D6D695955757",
"6. c #D9D99A9A6161",
"7. c #DCDCA2A25C5C",
"8. c #DADAA1A16C6C",
"9. c #E0E0AEAE7D7D",
"0. c #D9D9D9D90000",
"q. c yellow",
"w. c #858585858888",
"e. c #9A9A97979494",
"r. c #81819292AFAF",
"t. c #A0A0A0A09E9E",
"y. c #AAAAAAAAA7A7",
"u. c #B4B4B4B4B1B1",
"i. c #BDBDBDBDB6B6",
"p. c #8A8AA2A2C1C1",
"a. c #9595AFAFCECE",
"s. c #9595B3B3D7D7",
"d. c #8383BBBBF9F9",
"f. c #8D8DBBBBF0F0",
"g. c #8A8ABFBFFBFB",
"h. c #9696BEBEE6E6",
"j. c #8383C9C9FBFB",
"k. c #8E8EC3C3FDFD",
"l. c #9E9EC2C2E6E6",
"z. c #9D9DC5C5EEEE",
"x. c #9595C6C6FCFC",
"c. c #9595CCCCFBFB",
"v. c #9E9ECBCBFCFC",
"b. c #9C9CD1D1FBFB",
"n. c #A5A5C6C6E6E6",
"m. c #A3A3C5C5EAEA",
"M. c #ADADCACAE6E6",
"N. c #ACACCBCBE9E9",
"B. c #A0A0CECEFDFD",
"V. c #A6A6D2D2FEFE",
"C. c #AFAFD5D5F3F3",
"Z. c #ACACD6D6FEFE",
"A. c #B7B7CFCFE6E6",
"S. c #B3B3D4D4F3F3",
"D. c #B4B4D9D9F7F7",
"F. c #B5B5DCDCFBFB",
"G. c #BDBDDEDEFBFB",
"H. c #BEBEE1E1FDFD",
"J. c #D1D1B2B28B8B",
"K. c #FFFF80808080",
"L. c #E4E4B8B88686",
"P. c #C9C9C2C2B9B9",
"I. c #EBEBC9C99999",
"U. c #EEEED2D2AEAE",
"Y. c #FFFFFFFFA8A8",
"T. c #CBCBCBCBC7C7",
"R. c #D4D4CDCDC2C2",
"E. c #DDDDDBDBD7D7",
"W. c #C6C6D6D6E6E6",
"Q. c #CACADADAEAEA",
"!. c #C1C1DDDDF4F4",
"~. c #D4D4DCDCE6E6",
"^. c #C3C3E5E5FFFF",
"/. c #CDCDE2E2F4F4",
"(. c #CBCBE7E7FFFF",
"). c #CECEE9E9FFFF",
"_. c #DEDEE0E0E6E6",
"`. c #D4D4EBEBFEFE",
"'. c #E5E5DCDCD2D2",
"]. c #F6F6E7E7DADA",
"[. c #E3E3E3E3E0E0",
"{. c #E3E3E5E5EAEA",
"}. c #E8E8E8E8E6E6",
"|. c #EFEFEFEFEDED",
" X c #E7E7F4F4FFFF",
".X c #EAEAF6F6FFFF",
"XX c #EEEEF8F8FFFF",
"oX c LightYellow",
"OX c #F2F2F2F2F1F1",
"+X c #F3F3FAFAFFFF",
"@X c #FDFDFFFFFFFF",
"#X c None",
/* pixels */
"#X#X#X#X#X#X#X#X#X#X#X#X#X#X#X#X#X#X#X#X#X#X#X#X#X#X#X#X#X#X#X#X",
"#X#X#X#X#X#X#X#X#X#X#X1 1 1 1 1 # # # # # #X#X#X#X#X#X#X#X#X#X#X",
"#X#X#X#X#X#X#X#X1 1 1 0 k S E W j.W P F r # @ @ #X#X#X#X#X#X#X#X",
"#X#X#X#X#X#X2 1 w N Y c.b.H.H.H.H.H.H.D.C.z.F t @ @ #X#X#X#X#X#X",
"#X#X#X#X3 2 s N k.F.`. X@X@X@X@X@X@X@X@X@X.X`.H.s.u @ + #X#X#X#X",
"#X#X#X3 0 k E F.`.@X@X@X@X@X@X@X@X@X@X@X@X@X@XXX`.^.s.e + #X#X#X",
"#X#X3 y k E F.OX{._.~.Q.Q.Q.W.W.W.W.Q.Q.Q.~.~._.{./.G.z.u + #X#X",
"#X2 w k W H.OXm 2 2 2 2 b 2 2 2 2 2 2 b 2 2 2 2 2 m /.G.F e + #X",
"#X3 M E G.@XQ.2 K.K.K.X.2 K.K.K.K.K.X.2 oXoXoXoX0.2 {.`.v.v + #X",
"3 y D F..XXXA.2 K.@Xo.! 2 K.@Xo.o.o.~ 2 q.q.q.q.=.2 ~.XXF.L 7 + ",
"3 M k.G.+X`.A.2 $.! ! ! 2 K.o.o.! ! ~ 2 q.=.=.=.=.2 Q.+XF.g.y + ",
"2 D c.G.+X).M.2 2 2 2 2 2 K.o.o.! 2 2 2 q.2 2 2 2 n !.XXZ.d.M + ",
"2 P v.G.XX^.M.2 K.K.K...2 K.o.o.! 2 oXq.q.2 p.a.s.N.G. XZ.I z + ",
"2 D V.Z.).H.n.2 K.@Xo.! 2 K.o.o.! 2 oXq.q.2 2 2 2 j S.(.x.G h O ",
"1 v v.V.H.G.n.2 K.o.o.! 2 K.o.o.! 2 oXq.q.oXoXoX0.2 N.H.T Z a O ",
"2 r F V.F.G.n.2 K.o.o.! 2 K.o.o.! 2 oXq.q.q.q.q.=.2 n.V.J x 6 + ",
"#X1 M & & & m.2 & & & & & & & ! ! 2 Y.%.&.&.&.&.*.2 m.g.A f O #X",
"#X1 & 2.& v.& & 8.2.<.<.] & 2 2 2 j 2 2 2 2 2 2 2 v f.A x 6 O #X",
"#X& O.{ & & I.L.3.<._ & & z.h.h.z.z.m.n.n.n.n.l.z.f.A V d O #X#X",
"#X& { - <.9.5.2.^ & w.v.V.V.V.V.V.V.V.F.G.G.G.Z.x.Z h d 7 O #X#X",
"& & / <.2.<.] & > r.T k.k.k.k.k.k.k.x.B.F.F.F.R A B y 6 O #X#X#X",
"#X& ( } ] ] - _ & s x G H K J K K K T g.v.Z.d.Z B q 4 + #X#X#X#X",
"& & ` } O.$ 9.U.| & @ 9 p g l c c C G U x.g.Z h 0 + + #X#X#X#X#X",
"#X& } O.O.8.@XE.  / & % X X @ + + 5 i G d.G g 0 + #X#X#X#X#X#X#X",
"& = O.<.O.1.].e.: ' J.'.OXi.X #X#X+ 5 p A c 0 + #X#X#X#X#X#X#X#X",
"& ( 2.7.5.#.1.5.+.;.J., . OXu.X #X#X+ i c i O #X#X#X#X#X#X#X#X#X",
"& ] 2.U.9.2.#.{ [  .u.y.t.OX[.X #X#X+ i p + #X#X#X#X#X#X#X#X#X#X",
"& ( :.6.8.2.#.} [ | R.}.OX@X|.X #X#X+ 8 + #X#X#X#X#X#X#X#X#X#X#X",
"& = { :.:.4.O.} ` -.P.E.}.|.}.X #X#XO + #X#X#X#X#X#X#X#X#X#X#X#X",
"& - & ` ` ` ` _ ; t.T., T.E.w.X #X#X+ #X#X#X#X#X#X#X#X#X#X#X#X#X",
"= / ) Q * & $ o X < e.u.: X X #X#X#X#X#X#X#X#X#X#X#X#X#X#X#X#X#X",
"= ( @.,.>.[ & #X#XX X X X #X#X#X#X#X#X#X#X#X#X#X#X#X#X#X#X#X#X#X"
};
