/* XPM */
static char *plus_ICO[] = {
/* columns rows colors chars-per-pixel */
"16 16 80 1",
"  c black",
". c #5C5670",
"X c #625E74",
"o c #636479",
"O c #686B7C",
"+ c #484E91",
"@ c #484E9A",
"# c #545C8E",
"$ c #5E698B",
"% c #636682",
"& c #6B7180",
"* c #6E7A8D",
"= c #6A7892",
"- c #727680",
"; c #767983",
": c #727C8D",
"> c #727FAA",
", c #73828D",
"< c #7D828A",
"1 c #758392",
"2 c #B6DC79",
"3 c #FCFF00",
"4 c #83878F",
"5 c #808B93",
"6 c #898E94",
"7 c #869297",
"8 c #8D9297",
"9 c #92979D",
"0 c #808CA5",
"q c #8695A1",
"w c #8C99A2",
"e c #979DA0",
"r c #88AE8D",
"t c #86A692",
"y c #87B0A2",
"u c #94A1A6",
"i c #94A2AA",
"p c #9BA5A4",
"a c #9EACAD",
"s c #9CACB4",
"d c #9BB3AF",
"f c #A3AD96",
"g c #A6ACAE",
"h c #A4B1AE",
"j c #AAB7AC",
"k c #A4B2B3",
"l c #ADB2B4",
"z c #AAB9BD",
"x c #B0BAB5",
"c c #B2BEBC",
"v c #9DCE81",
"b c #AED0A3",
"n c #B7C6A8",
"m c #B7C1BC",
"M c #B1C8BF",
"N c #BFC7C5",
"B c #BFCAC7",
"V c #C4CE95",
"C c #C7DA98",
"Z c #CBD9A4",
"A c #CCDDBD",
"S c #DFEA9E",
"D c #D9F386",
"F c #D6E5AE",
"G c #DBE1A8",
"H c #C1C7C6",
"J c #C4C9C6",
"K c #C5CACA",
"L c #C6D1CE",
"P c #CBD0CF",
"I c #CCD5D1",
"U c #D5D6D5",
"Y c #D3DBD6",
"T c #D6DEDA",
"R c #DEDEDF",
"E c #DCE0DE",
"W c #DFE5E1",
"Q c #E5E6E5",
"! c #F2F4F4",
"~ c None",
/* pixels */
"~~~~~~QEEIBkY~~~",
"~~~UUJKxjnZC5I~~",
"~~~UfVG33333:N~~",
"~~~PS33333331l~~",
"~~~UF3333333tg~~",
"~~~EA3333333r9~~",
"~~~~c3333333v4~~",
"~~~~B3333333y-~~",
"~~~~L33333b0%<~~",
"~~~~T23DM>@o8K~~",
"~~~~TdBzs++*c~~~",
"~~~W!Q!QN=#quE~~",
"~~~T!!!RKu$wwg~~",
"~~~WIQRTJh,i&e~~",
"~~~~Npcmca7O;N~~",
"~~~~~L9O..X6H~~~"
};
