/* XPM */
static char *pluscompa_ICO[] = {
/* columns rows colors chars-per-pixel */
"16 16 64 1",
"  c black",
". c #5C5670",
"X c #625E74",
"o c #636479",
"O c #686879",
"+ c #484E91",
"@ c #484E9A",
"# c #545C8E",
"$ c #5E698B",
"% c #6B7180",
"& c #6E7A8D",
"* c #6A7892",
"= c #767983",
"- c #727FAA",
"; c #74EC48",
": c #73828D",
"> c #B6DC79",
", c #FCFF38",
"< c #898E94",
"1 c #869297",
"2 c #8D9297",
"3 c #92979D",
"4 c #8695A1",
"5 c #8897A1",
"6 c #8C99A2",
"7 c #979DA0",
"8 c #94A1A6",
"9 c #94A2AA",
"0 c #9BA5A4",
"q c #9EACAD",
"w c #9CACB4",
"e c #9BB3AF",
"r c #A3AD96",
"t c #A6ACAE",
"y c #A4B1AE",
"u c #AAB7AC",
"i c #A4B2B3",
"p c #AAB9BD",
"a c #B0BAB5",
"s c #B1BCB8",
"d c #B7C1BC",
"f c #B1C8BF",
"g c #BBC1C0",
"h c #B9C8C8",
"j c #C4CE95",
"k c #CCDDBD",
"l c #D6E5AE",
"z c #C1C7C6",
"x c #C1CBC6",
"c c #C5CDC9",
"v c #C6D1CE",
"b c #CDD0CF",
"n c #CED3D1",
"m c #D1D6D4",
"M c #D3DBD6",
"N c #D7D9D8",
"B c #DEDEDF",
"V c #DFDFE0",
"C c #DCE0DE",
"Z c #DFE5E1",
"A c #E1E1E2",
"S c #EFF0F0",
"D c #F2F4F3",
"F c None",
/* pixels */
"FFFFFFVCCnhiMFFF",
"FFFmmxcau,    FF",
"FFFmrj,,,, ;; FF",
"FFFb,,,,   ;;   ",
"FFFml,,, ;;;;;; ",
"FFFCk,,, ;;;;;; ",
"FFFFs,,,   ;;   ",
"FFFFh,,,,, ;; FF",
"FFFFv,,,,,    FF",
"FFFFN>,,f-@o2cFF",
"FFFFNehpw++&sFFF",
"FFFZSADAg*#48CFF",
"FFFNSSSBc8$56tDF",
"FFFZnAVNxy:9%7SF",
"FFFFg0sdsq1O=gFF",
"FFFFFv3O..X<zFFF"
};
