/* XPM */
static char *server.ico[] = {
/* columns rows colors chars-per-pixel */
"32 32 152 2",
"   c None",
".  c #0c0b0a",
"X  c #32373e",
"o  c #303941",
"O  c #1f4d2a",
"+  c #2c6c3b",
"@  c #36414a",
"#  c #39434d",
"$  c #3c4752",
"%  c #346246",
"&  c #5d2d0e",
"*  c #642909",
"=  c #6e310c",
"-  c #7f3e13",
";  c #723c44",
":  c #414041",
">  c #414d58",
",  c #43505b",
"<  c #475460",
"1  c #485663",
"2  c #4b5865",
"3  c #4e5c6a",
"4  c #505a65",
"5  c #555f6a",
"6  c #52606e",
"7  c #5b646d",
"8  c #566675",
"9  c #576877",
"0  c #586876",
"q  c #5b6b7b",
"w  c #6b6c6f",
"e  c #606f7d",
"r  c #62717d",
"t  c #727476",
"y  c #5e6f80",
"u  c #5e7080",
"i  c #637382",
"p  c #647788",
"a  c #657889",
"s  c #687784",
"d  c #6a7986",
"f  c #6d7c8b",
"g  c #6b7e91",
"h  c #747b82",
"j  c #727f8a",
"k  c #21a72c",
"l  c #378346",
"z  c #15c61d",
"x  c green",
"c  c #33e23a",
"v  c #429c55",
"b  c #47a55d",
"n  c #41ff41",
"m  c #6d8295",
"M  c #74828f",
"N  c #758491",
"B  c #708498",
"V  c #7b8792",
"C  c #7e8c99",
"Z  c #7fb79a",
"A  c #76c493",
"S  c #79c697",
"D  c #813f12",
"F  c #a1282d",
"G  c #804017",
"H  c #86451b",
"J  c #8e4a1a",
"K  c #954f1d",
"L  c #9a531e",
"P  c #a65d24",
"I  c #ab6228",
"U  c #b4682c",
"Y  c #bc6e2d",
"T  c #bf7732",
"R  c #a4734c",
"E  c red",
"W  c #c1742d",
"Q  c #c77835",
"!  c #ca4f55",
"~  c #ce8240",
"^  c #c18c57",
"/  c #cc914e",
"(  c #d28a4a",
")  c #d69556",
"_  c #d99a5c",
"`  c #dfaa6e",
"'  c #deaa7d",
"]  c #878f98",
"[  c #86929e",
"{  c #8b939c",
"}  c #90979f",
"|  c #8694a1",
" . c #8a96a1",
".. c #8d98a4",
"X. c #939ba2",
"o. c #939ea9",
"O. c #86ae9e",
"+. c #88bda3",
"@. c #96a2ae",
"#. c #9aa3ad",
"$. c #97a4b0",
"%. c #9aa6b2",
"&. c #9ca9b4",
"*. c #97b3af",
"=. c #a0a09f",
"-. c #a0a7ae",
";. c #a7a8a4",
":. c #a2abb4",
">. c #a3aeb8",
",. c #a8aeb4",
"<. c #a6b1bc",
"1. c #aab1b7",
"2. c #abb3bb",
"3. c #b2b8bd",
"4. c #aab5c1",
"5. c #acb8c4",
"6. c #b3bbc3",
"7. c #b1bdc8",
"8. c #8dcea7",
"9. c #8ecfa9",
"0. c #a2c3b9",
"q. c #b7c0ca",
"w. c #bac3cc",
"e. c #bdc7d1",
"r. c #bec8d2",
"t. c #c3aa90",
"y. c #dfae85",
"u. c #e9c38f",
"i. c #e6d2ba",
"p. c #f2dcaf",
"a. c #c5c5c1",
"s. c #c1c7cd",
"d. c #c2cad3",
"f. c #c9ced3",
"g. c #ccd1d6",
"h. c #cdd4da",
"j. c #d2d7dc",
"k. c #d2d9df",
"l. c #d8dbdf",
"z. c #d4dbe1",
"x. c #dadee3",
"c. c #d8e0e7",
"v. c #dfe4e8",
"b. c #e5e5e2",
"n. c #e3e6ea",
"m. c #e7eaee",
"M. c #ececea",
"N. c #eceff2",
"B. c #edf0f3",
"V. c #f0f2f5",
"C. c white",
"Z. c None",
/* pixels */
"Z.Z.Z.Z.Z.Z.Z.Z.Z.Z.Z.Z.Z.Z.Z.Z.Z.Z.Z.Z.Z.Z.Z.Z.Z.Z.Z.Z.Z.Z.Z.Z.",
"Z.Z.Z.Z.Z.Z.Z.Z.Z.Z.Z.3 3 3 2 2 2 Z.Z.Z.Z.Z.Z.Z.Z.Z.Z.Z.Z.Z.Z.Z.",
"Z.Z.Z.Z.Z.Z.Z.Z.8 8 0 0 e r r 0 8 , , , > > Z.Z.Z.Z.Z.Z.Z.Z.Z.Z.",
"Z.Z.Z.Z.Z.8 8 8 r s s s s r r r r r r r 0 3 , $ , # # Z.Z.Z.Z.Z.",
"Z.Z.8 8 8 r s s s s s s s s s s s s r r r r e e r r # Z.Z.Z.Z.Z.",
"8 8 i d f f f f f f f d s s s s s s s s s s s s q i # Z.Z.Z.Z.Z.",
"8 5.%.| C j f f f f j f f f f f d s s s s s e 9 a m # Z.Z.Z.Z.Z.",
"8 r.c.c.z.w.>. .M f f f f f f f f f f s e 9 9 u m m # Z.Z.Z.Z.Z.",
"8 r.N.C.V.m.x.k.d.q.%.| N i f d d d q 8 8 8 y m m m o Z.Z.Z.Z.Z.",
"8 r.C.C.C.m.l.k.h.r.w.7.5.q f r C | 8 8 8 9 g B m m o Z.Z.Z.Z.Z.",
"8 w.N.C.N.m.l.k.k.d.w.7.5.6 f 6 7.&.6 8 8 a m m m m o Z.Z.Z.Z.Z.",
"8 7.n.C.m.m.z.k.k.r.w.7.5.3 M 3 z.&.3 8 y g g g B p o Z.Z.Z.Z.Z.",
"8 4.x.N.v.v.k.z.h.r.w.5.5.2 M 2 k.%.2 9 a g g g f 8 o Z.Z.Z.Z.Z.",
"8 4.x.j <.v.z.z.h.r.w.5.4.1 j 1 h.%.< y a a a g q 9 o Z.Z.Z.Z.Z.",
"8 4.x.N.s.r X.k.<.d.q.5.<.1 N 1 r.%.< y p u a y 8 u o Z.Z.Z.Z.Z.",
"8 <.x.5 X.n.2.4 [ r.7.4.<., N > 7.$.> y u u u * q m o Z.Z.Z.Z.Z.",
"8 >.x.V.3.5 X.j.<.w.7.4.<., j , 4.@.> q q r * * a m X Z.Z.Z.Z.Z.",
"8 >.x.$ o.x.2.4 { s.5.<.&., j , 4.@., 0 0 * * G g * * * * * * * ",
"8 :.v.M.3.> X.j.,.w.5.,.*.% b + 0.o., 0 0 * Y - * p.u.` ~ I * Z.",
"8 &.l.> } x.2.$ { q.5.<.+.+ v + 9.o.> 8 * G P * p.` ) Y * * Z.Z.",
"8 &.x.N.3.$ X.g.:.w.2.,.S + c k 9.o., 8 * J ~ ` ) K * * Z.Z.Z.Z.",
"8 $.x.$ X.x.2.$ ] 6.<.:.A + n z 9...> 8 * Q Y P H * o Z.Z.Z.Z.Z.",
"0 @.x.m.3.$ } g.:.6.2.:.A + x z 9..., * * Y Y & ' R G * Z.Z.Z.Z.",
"5 o.x.$ X.l.3.# ] 7.2.&.Z + l O 8. ., 8 * Q Y y.C.. R I X X X Z.",
"6 o.l.n.2.> } f.-.6.,.&.O.% b + 0. ., * * ( _ _ M.: T / i.C.a.X ",
"3 ..l.$ X.l.1.# ] 6.<.#.@.> ! ; 2. ., 8 * ` p.` _ U T ^ w . C.X ",
"3 ] 7.l.l.> } f.-.6.<.#.o.> E F 2. ., * = _ ` ` ( U P t.a.=.M.X ",
"3 s o.7.f.f.j.> ] 6.,.#.o.> E F <. .> * = P ( ( Q I P t.b.b.b.X ",
"Z.3 8 r h 1.s.f.s.6.>.#.o., 7 o <.{ , * D * * * * * t =.;.;.X Z.",
"Z.Z.Z.1 1 < i C :.,.-.#.#., r , 2..., * J I P - * Z.X X X X Z.Z.",
"Z.Z.Z.Z.Z.Z.> > $ $ , 7 h , r > V M # * J W W L * Z.Z.Z.Z.Z.Z.Z.",
"Z.Z.Z.Z.Z.Z.Z.Z.Z.Z.# @ @ X o o X o o Z.Z.Z.Z.Z.Z.Z.Z.Z.Z.Z.Z.Z."
};
