/* XPM */
static char *shared.ico[] = {
/* columns rows colors chars-per-pixel */
"32 32 166 2",
"   c None",
".  c #00192b",
"X  c #2c2d2b",
"o  c #022a46",
"O  c #002d57",
"+  c #043961",
"@  c #043c6c",
"#  c #243c50",
"$  c #17562d",
"%  c #1a6a33",
"&  c #324630",
"*  c #257f37",
"=  c #024373",
"-  c #074c7f",
";  c #0d4c7e",
":  c #114d7e",
">  c #177073",
",  c #3c5941",
"<  c #48331f",
"1  c #572e07",
"2  c #4f3924",
"3  c #6e3a06",
"4  c #6c3909",
"5  c #623717",
"6  c #713a05",
"7  c #733d0b",
"8  c #4a453c",
"9  c #6e431e",
"0  c #7c430b",
"q  c #7d4814",
"w  c #764922",
"e  c #464a4a",
"r  c #085286",
"t  c #005497",
"y  c #00549e",
"u  c #005c96",
"i  c #015d9d",
"p  c #114f80",
"a  c #076793",
"s  c #026ba1",
"d  c #0169b4",
"f  c #0077ab",
"g  c #0077b5",
"h  c #0077c8",
"j  c #017ad3",
"k  c #0077e2",
"l  c #1fa079",
"z  c #2b994f",
"x  c #2a9f58",
"c  c #218e65",
"v  c #2cb55c",
"b  c #31ad4b",
"n  c #32b54b",
"m  c #32ba4d",
"M  c #25ad6c",
"N  c #27b768",
"B  c #29b061",
"V  c #32c752",
"C  c #2bd16c",
"Z  c #32e55e",
"A  c #33ef60",
"S  c #478e5b",
"D  c #5cbc6d",
"F  c #48c460",
"G  c #61db7c",
"H  c #168882",
"J  c #008cbf",
"K  c #17aab1",
"L  c #248e87",
"P  c #0098ca",
"I  c #0099d3",
"U  c #0086e6",
"Y  c #008ae2",
"T  c #0089f6",
"R  c #0093ef",
"E  c #0094fe",
"W  c #009fff",
"Q  c #00a0ee",
"!  c #00a5ff",
"~  c #00aafd",
"^  c #00b7ec",
"/  c #00b5f7",
"(  c #00b1f9",
")  c #00b8f6",
"_  c #00befb",
"`  c #00c5f1",
"'  c #00c5fa",
"]  c #00c8f6",
"[  c #00cffa",
"{  c #00d1f7",
"}  c #00d3f9",
"|  c #04ddf9",
" . c #12dffa",
".. c #00e4fb",
"X. c #2edefa",
"o. c #3fe2fa",
"O. c #679da3",
"+. c #5df180",
"@. c #854a14",
"#. c #834c19",
"$. c #8b4e15",
"%. c #86511c",
"&. c #8a531e",
"*. c #905318",
"=. c #875a2e",
"-. c #8e5621",
";. c #895a2e",
":. c #8d5d30",
">. c #935c26",
",. c #8f6436",
"<. c #97632c",
"1. c #99612b",
"2. c #926334",
"3. c #996433",
"4. c #9f6831",
"5. c #9c6d3b",
"6. c #a36b35",
"7. c #aa743b",
"8. c #9f7240",
"9. c #a67641",
"0. c #b37b43",
"q. c #b07f49",
"w. c #b58044",
"e. c #b2854e",
"r. c #bb844a",
"t. c #be8c4e",
"y. c #b78c54",
"u. c #c38c4f",
"i. c #c58e54",
"p. c #c59656",
"a. c #c49559",
"s. c #c59857",
"d. c #c79959",
"f. c #cb9457",
"g. c #ca955a",
"h. c #ca9d5b",
"j. c #d49c5e",
"k. c #cf9d63",
"l. c #cda262",
"z. c #cfa668",
"x. c #d6a165",
"c. c #d4aa6d",
"v. c #d8a46b",
"b. c #d6ae71",
"n. c #daaa75",
"m. c #d7b177",
"M. c #d4b07b",
"N. c #dab57c",
"B. c #dbb87e",
"V. c #86d997",
"C. c #87e79d",
"Z. c #93f9ac",
"A. c #adeebc",
"S. c #a3f1fd",
"D. c #dbb984",
"F. c #debe8a",
"G. c #e0b78a",
"H. c #e3bd93",
"J. c #e0c292",
"K. c #e5c79f",
"L. c #ead6b5",
"P. c #cbf5d4",
"I. c #f2e0cc",
"U. c #f5ead9",
"Y. c white",
"T. c None",
/* pixels */
"T.T.T.T.T.T.T.T.T.T.T.; ; d j Y Y Y j d ; ; T.T.T.T.T.T.T.T.T.T.",
"T.T.T.T.T.T.T.T.T.T.: g Y W W A.G F E V.L > : T.T.T.T.T.T.T.T.T.",
"T.T.T.T.T.T.T.T.T.p H V.N ~ ~ ! M W V.V.F D H : T.T.T.T.T.T.T.T.",
"T.T.T.T.T.T.T.T.p H P.C ' _ ( C.M W C.m n b z a : T.T.T.T.T.T.T.",
"T.T.T.T.T.T.T.T.: P.C K [ } ] C ( ~ A.V m n c > - 2 3 3 3 T.T.T.",
"T.T.T.T.T.T.T.p O.C K .. .| } ' / Z.C.V V m x j t @ 1 1 7 3 T.T.",
"T.T.T.T.T.T.T.r F K { ..S.o.} ] ) ( G M v m b c d + < 4 <.7.3 T.",
"T.T.T.T.T.T.8 s B ' [ | X. .} P.Z.A.Z H E c x z y + 2 6.w.w.3 T.",
"T.T.T.T.T.@.e i Q _ ] } } } } Z.A Z l W E T k * $ # 6.t.w.w.4.3 ",
"T.T.T.T.&.0.X = S I ^ ` ` ] ] +.Z N H R U h y + & 7.i.u.r.w.w.3 ",
"T.T.T.>.r.3 X . $ % g J P P I I c > h d i + O # 0.j.f.f.t.r.3 T.",
"T.T.>.p.3 q X o , $ % a s f f f f s u - = + # 7.n.j.h.f.i.3 T.T.",
"T.>.k.@.i.i.i.i.i.u.u.t.u.u.u.u.r.u.u.u.u.r.<.n.G.v.j.i.3 T.T.T.",
"T.T.@.n.n.n.v.v.x.x.x.x.j.j.j.j.j.j.j.j.r.3 3 h.K.n.f.3 3 T.T.T.",
"T.@.n.H.n.n.n.v.v.x.x.x.x.j.j.j.j.j.j.r.3 -.0 %.n.x.3 q 3 T.T.T.",
"@.N.I.Y.I.K.H.H.H.N.N.N.n.n.n.n.n.v.g.3 >.7.#.3 x.3 q #.3 T.T.T.",
"@.@.@.0 0 0 0 0 7 7 7 7 7 7 3 6 3 3 3 1.6.4.1.7 3 q #.-.3 T.T.T.",
"T.T.T.3 7.7.7.7.7.7.7.7.7.7.7.7.7.7.7.7.6.6.1.#.q #.-.-.3 T.T.T.",
"T.T.T.0 0.w.0.0.0.0.0.0.3.3.0.7.7.7.7.7.7.6.1.1.#.>.-.-.3 T.T.T.",
"T.T.T.@.r.t.t.t.t.r.7.3   6 5 5.w.0.0.0.0.6.1.1.>.>.-.-.3 T.T.T.",
"T.T.T.#.t.a.u.t.t.t.6 5 w ;.6 w.w.w.w.0.0.6.1.1.>.>.-.-.3 T.T.T.",
"T.T.T.&.t.z.p.p.i.u.3   2.w.r.w.w.w.w.0.0.6.1.1.>.>.-.-.3 T.T.T.",
"T.T.T.&.p.M.h.d.s.p.=.6 9 6 :.r.r.r.r.r.r.6.1.1.>.>.-.#.3 T.T.T.",
"T.T.T.&.p.D.h.h.h.d.s.9.2.  0 2.r.r.r.r.r.6.1.1.>.>.#.3 T.T.T.T.",
"T.T.T.&.k.J.c.z.l.l.e.a.s.8.  2.t.t.t.t.r.6.1.1.>.#.3 T.T.T.T.T.",
"T.T.T.*.m.K.N.c.c.k.<.,.5.=.  9.i.t.t.t.r.6.1.1.#.3 T.T.T.T.T.T.",
"T.T.T.&.F.L.F.B.b.z.y.  6   q.i.i.i.i.i.i.6.1.#.3 T.T.T.T.T.T.T.",
"T.T.T.*.K.U.K.D.N.b.c.c.x.k.h.g.g.p.p.p.i.6 6 3 T.T.T.T.T.T.T.T.",
"T.T.T.$.6 6 6 6 6 6 6 6 6 6 6 6 6 6 6 6 6 6 T.T.T.T.T.T.T.T.T.T.",
"T.T.T.T.T.T.T.T.T.T.T.T.T.T.T.T.T.T.T.T.T.T.T.T.T.T.T.T.T.T.T.T.",
"T.T.T.T.T.T.T.T.T.T.T.T.T.T.T.T.T.T.T.T.T.T.T.T.T.T.T.T.T.T.T.T.",
"T.T.T.T.T.T.T.T.T.T.T.T.T.T.T.T.T.T.T.T.T.T.T.T.T.T.T.T.T.T.T.T."
};
